<?xml version="1.0" encoding="utf-8" standalone="no"?>
<!DOCTYPE svg PUBLIC "-//W3C//DTD SVG 1.1//EN"
  "http://www.w3.org/Graphics/SVG/1.1/DTD/svg11.dtd">
<!-- Created with matplotlib (http://matplotlib.org/) -->
<svg height="527pt" version="1.1" viewBox="0 0 528 527" width="528pt" xmlns="http://www.w3.org/2000/svg" xmlns:xlink="http://www.w3.org/1999/xlink">
 <defs>
  <style type="text/css">
*{stroke-linecap:butt;stroke-linejoin:round;}
  </style>
 </defs>
 <g id="figure_1">
  <g id="patch_1">
   <path d="M 0 527.031875 
L 528.143437 527.031875 
L 528.143437 0 
L 0 0 
z
" style="fill:none;opacity:0;"/>
  </g>
  <g id="axes_1">
   <g id="patch_2">
    <path d="M 60.143438 149.505882 
L 520.943437 149.505882 
L 520.943437 7.2 
L 60.143438 7.2 
z
" style="fill:#ffffff;"/>
   </g>
   <g id="matplotlib.axis_1">
    <g id="xtick_1">
     <g id="line2d_1">
      <path clip-path="url(#p854ce98c06)" d="M 81.088892 149.505882 
L 81.088892 7.2 
" style="fill:none;stroke:#cbcbcb;"/>
     </g>
     <g id="line2d_2"/>
    </g>
    <g id="xtick_2">
     <g id="line2d_3">
      <path clip-path="url(#p854ce98c06)" d="M 133.715662 149.505882 
L 133.715662 7.2 
" style="fill:none;stroke:#cbcbcb;"/>
     </g>
     <g id="line2d_4"/>
    </g>
    <g id="xtick_3">
     <g id="line2d_5">
      <path clip-path="url(#p854ce98c06)" d="M 186.342432 149.505882 
L 186.342432 7.2 
" style="fill:none;stroke:#cbcbcb;"/>
     </g>
     <g id="line2d_6"/>
    </g>
    <g id="xtick_4">
     <g id="line2d_7">
      <path clip-path="url(#p854ce98c06)" d="M 238.969203 149.505882 
L 238.969203 7.2 
" style="fill:none;stroke:#cbcbcb;"/>
     </g>
     <g id="line2d_8"/>
    </g>
    <g id="xtick_5">
     <g id="line2d_9">
      <path clip-path="url(#p854ce98c06)" d="M 291.595973 149.505882 
L 291.595973 7.2 
" style="fill:none;stroke:#cbcbcb;"/>
     </g>
     <g id="line2d_10"/>
    </g>
    <g id="xtick_6">
     <g id="line2d_11">
      <path clip-path="url(#p854ce98c06)" d="M 344.222743 149.505882 
L 344.222743 7.2 
" style="fill:none;stroke:#cbcbcb;"/>
     </g>
     <g id="line2d_12"/>
    </g>
    <g id="xtick_7">
     <g id="line2d_13">
      <path clip-path="url(#p854ce98c06)" d="M 396.849513 149.505882 
L 396.849513 7.2 
" style="fill:none;stroke:#cbcbcb;"/>
     </g>
     <g id="line2d_14"/>
    </g>
    <g id="xtick_8">
     <g id="line2d_15">
      <path clip-path="url(#p854ce98c06)" d="M 449.476284 149.505882 
L 449.476284 7.2 
" style="fill:none;stroke:#cbcbcb;"/>
     </g>
     <g id="line2d_16"/>
    </g>
    <g id="xtick_9">
     <g id="line2d_17">
      <path clip-path="url(#p854ce98c06)" d="M 502.103054 149.505882 
L 502.103054 7.2 
" style="fill:none;stroke:#cbcbcb;"/>
     </g>
     <g id="line2d_18"/>
    </g>
   </g>
   <g id="matplotlib.axis_2">
    <g id="ytick_1">
     <g id="line2d_19">
      <path clip-path="url(#p854ce98c06)" d="M 60.143438 144.587052 
L 520.943437 144.587052 
" style="fill:none;stroke:#cbcbcb;"/>
     </g>
     <g id="line2d_20"/>
     <g id="text_1">
      <!-- −400 -->
      <defs>
       <path d="M 10.59375 35.5 
L 73.1875 35.5 
L 73.1875 27.203125 
L 10.59375 27.203125 
z
" id="DejaVuSans-2212"/>
       <path d="M 37.796875 64.3125 
L 12.890625 25.390625 
L 37.796875 25.390625 
z
M 35.203125 72.90625 
L 47.609375 72.90625 
L 47.609375 25.390625 
L 58.015625 25.390625 
L 58.015625 17.1875 
L 47.609375 17.1875 
L 47.609375 0 
L 37.796875 0 
L 37.796875 17.1875 
L 4.890625 17.1875 
L 4.890625 26.703125 
z
" id="DejaVuSans-34"/>
       <path d="M 31.78125 66.40625 
Q 24.171875 66.40625 20.328125 58.90625 
Q 16.5 51.421875 16.5 36.375 
Q 16.5 21.390625 20.328125 13.890625 
Q 24.171875 6.390625 31.78125 6.390625 
Q 39.453125 6.390625 43.28125 13.890625 
Q 47.125 21.390625 47.125 36.375 
Q 47.125 51.421875 43.28125 58.90625 
Q 39.453125 66.40625 31.78125 66.40625 
z
M 31.78125 74.21875 
Q 44.046875 74.21875 50.515625 64.515625 
Q 56.984375 54.828125 56.984375 36.375 
Q 56.984375 17.96875 50.515625 8.265625 
Q 44.046875 -1.421875 31.78125 -1.421875 
Q 19.53125 -1.421875 13.0625 8.265625 
Q 6.59375 17.96875 6.59375 36.375 
Q 6.59375 54.828125 13.0625 64.515625 
Q 19.53125 74.21875 31.78125 74.21875 
z
" id="DejaVuSans-30"/>
      </defs>
      <g transform="translate(29.17625 148.386271)scale(0.1 -0.1)">
       <use xlink:href="#DejaVuSans-2212"/>
       <use x="83.789062" xlink:href="#DejaVuSans-34"/>
       <use x="147.412109" xlink:href="#DejaVuSans-30"/>
       <use x="211.035156" xlink:href="#DejaVuSans-30"/>
      </g>
     </g>
    </g>
    <g id="ytick_2">
     <g id="line2d_21">
      <path clip-path="url(#p854ce98c06)" d="M 60.143438 111.469997 
L 520.943437 111.469997 
" style="fill:none;stroke:#cbcbcb;"/>
     </g>
     <g id="line2d_22"/>
     <g id="text_2">
      <!-- −200 -->
      <defs>
       <path d="M 19.1875 8.296875 
L 53.609375 8.296875 
L 53.609375 0 
L 7.328125 0 
L 7.328125 8.296875 
Q 12.9375 14.109375 22.625 23.890625 
Q 32.328125 33.6875 34.8125 36.53125 
Q 39.546875 41.84375 41.421875 45.53125 
Q 43.3125 49.21875 43.3125 52.78125 
Q 43.3125 58.59375 39.234375 62.25 
Q 35.15625 65.921875 28.609375 65.921875 
Q 23.96875 65.921875 18.8125 64.3125 
Q 13.671875 62.703125 7.8125 59.421875 
L 7.8125 69.390625 
Q 13.765625 71.78125 18.9375 73 
Q 24.125 74.21875 28.421875 74.21875 
Q 39.75 74.21875 46.484375 68.546875 
Q 53.21875 62.890625 53.21875 53.421875 
Q 53.21875 48.921875 51.53125 44.890625 
Q 49.859375 40.875 45.40625 35.40625 
Q 44.1875 33.984375 37.640625 27.21875 
Q 31.109375 20.453125 19.1875 8.296875 
z
" id="DejaVuSans-32"/>
      </defs>
      <g transform="translate(29.17625 115.269215)scale(0.1 -0.1)">
       <use xlink:href="#DejaVuSans-2212"/>
       <use x="83.789062" xlink:href="#DejaVuSans-32"/>
       <use x="147.412109" xlink:href="#DejaVuSans-30"/>
       <use x="211.035156" xlink:href="#DejaVuSans-30"/>
      </g>
     </g>
    </g>
    <g id="ytick_3">
     <g id="line2d_23">
      <path clip-path="url(#p854ce98c06)" d="M 60.143438 78.352941 
L 520.943437 78.352941 
" style="fill:none;stroke:#cbcbcb;"/>
     </g>
     <g id="line2d_24"/>
     <g id="text_3">
      <!-- 0 -->
      <g transform="translate(50.280938 82.15216)scale(0.1 -0.1)">
       <use xlink:href="#DejaVuSans-30"/>
      </g>
     </g>
    </g>
    <g id="ytick_4">
     <g id="line2d_25">
      <path clip-path="url(#p854ce98c06)" d="M 60.143438 45.235886 
L 520.943437 45.235886 
" style="fill:none;stroke:#cbcbcb;"/>
     </g>
     <g id="line2d_26"/>
     <g id="text_4">
      <!-- 200 -->
      <g transform="translate(37.555937 49.035104)scale(0.1 -0.1)">
       <use xlink:href="#DejaVuSans-32"/>
       <use x="63.623047" xlink:href="#DejaVuSans-30"/>
       <use x="127.246094" xlink:href="#DejaVuSans-30"/>
      </g>
     </g>
    </g>
    <g id="ytick_5">
     <g id="line2d_27">
      <path clip-path="url(#p854ce98c06)" d="M 60.143438 12.11883 
L 520.943437 12.11883 
" style="fill:none;stroke:#cbcbcb;"/>
     </g>
     <g id="line2d_28"/>
     <g id="text_5">
      <!-- 400 -->
      <g transform="translate(37.555937 15.918049)scale(0.1 -0.1)">
       <use xlink:href="#DejaVuSans-34"/>
       <use x="63.623047" xlink:href="#DejaVuSans-30"/>
       <use x="127.246094" xlink:href="#DejaVuSans-30"/>
      </g>
     </g>
    </g>
    <g id="text_6">
     <!-- Voltages (V) -->
     <defs>
      <path d="M 28.609375 0 
L 0.78125 72.90625 
L 11.078125 72.90625 
L 34.1875 11.53125 
L 57.328125 72.90625 
L 67.578125 72.90625 
L 39.796875 0 
z
" id="DejaVuSans-56"/>
      <path d="M 30.609375 48.390625 
Q 23.390625 48.390625 19.1875 42.75 
Q 14.984375 37.109375 14.984375 27.296875 
Q 14.984375 17.484375 19.15625 11.84375 
Q 23.34375 6.203125 30.609375 6.203125 
Q 37.796875 6.203125 41.984375 11.859375 
Q 46.1875 17.53125 46.1875 27.296875 
Q 46.1875 37.015625 41.984375 42.703125 
Q 37.796875 48.390625 30.609375 48.390625 
z
M 30.609375 56 
Q 42.328125 56 49.015625 48.375 
Q 55.71875 40.765625 55.71875 27.296875 
Q 55.71875 13.875 49.015625 6.21875 
Q 42.328125 -1.421875 30.609375 -1.421875 
Q 18.84375 -1.421875 12.171875 6.21875 
Q 5.515625 13.875 5.515625 27.296875 
Q 5.515625 40.765625 12.171875 48.375 
Q 18.84375 56 30.609375 56 
z
" id="DejaVuSans-6f"/>
      <path d="M 9.421875 75.984375 
L 18.40625 75.984375 
L 18.40625 0 
L 9.421875 0 
z
" id="DejaVuSans-6c"/>
      <path d="M 18.3125 70.21875 
L 18.3125 54.6875 
L 36.8125 54.6875 
L 36.8125 47.703125 
L 18.3125 47.703125 
L 18.3125 18.015625 
Q 18.3125 11.328125 20.140625 9.421875 
Q 21.96875 7.515625 27.59375 7.515625 
L 36.8125 7.515625 
L 36.8125 0 
L 27.59375 0 
Q 17.1875 0 13.234375 3.875 
Q 9.28125 7.765625 9.28125 18.015625 
L 9.28125 47.703125 
L 2.6875 47.703125 
L 2.6875 54.6875 
L 9.28125 54.6875 
L 9.28125 70.21875 
z
" id="DejaVuSans-74"/>
      <path d="M 34.28125 27.484375 
Q 23.390625 27.484375 19.1875 25 
Q 14.984375 22.515625 14.984375 16.5 
Q 14.984375 11.71875 18.140625 8.90625 
Q 21.296875 6.109375 26.703125 6.109375 
Q 34.1875 6.109375 38.703125 11.40625 
Q 43.21875 16.703125 43.21875 25.484375 
L 43.21875 27.484375 
z
M 52.203125 31.203125 
L 52.203125 0 
L 43.21875 0 
L 43.21875 8.296875 
Q 40.140625 3.328125 35.546875 0.953125 
Q 30.953125 -1.421875 24.3125 -1.421875 
Q 15.921875 -1.421875 10.953125 3.296875 
Q 6 8.015625 6 15.921875 
Q 6 25.140625 12.171875 29.828125 
Q 18.359375 34.515625 30.609375 34.515625 
L 43.21875 34.515625 
L 43.21875 35.40625 
Q 43.21875 41.609375 39.140625 45 
Q 35.0625 48.390625 27.6875 48.390625 
Q 23 48.390625 18.546875 47.265625 
Q 14.109375 46.140625 10.015625 43.890625 
L 10.015625 52.203125 
Q 14.9375 54.109375 19.578125 55.046875 
Q 24.21875 56 28.609375 56 
Q 40.484375 56 46.34375 49.84375 
Q 52.203125 43.703125 52.203125 31.203125 
z
" id="DejaVuSans-61"/>
      <path d="M 45.40625 27.984375 
Q 45.40625 37.75 41.375 43.109375 
Q 37.359375 48.484375 30.078125 48.484375 
Q 22.859375 48.484375 18.828125 43.109375 
Q 14.796875 37.75 14.796875 27.984375 
Q 14.796875 18.265625 18.828125 12.890625 
Q 22.859375 7.515625 30.078125 7.515625 
Q 37.359375 7.515625 41.375 12.890625 
Q 45.40625 18.265625 45.40625 27.984375 
z
M 54.390625 6.78125 
Q 54.390625 -7.171875 48.1875 -13.984375 
Q 42 -20.796875 29.203125 -20.796875 
Q 24.46875 -20.796875 20.265625 -20.09375 
Q 16.0625 -19.390625 12.109375 -17.921875 
L 12.109375 -9.1875 
Q 16.0625 -11.328125 19.921875 -12.34375 
Q 23.78125 -13.375 27.78125 -13.375 
Q 36.625 -13.375 41.015625 -8.765625 
Q 45.40625 -4.15625 45.40625 5.171875 
L 45.40625 9.625 
Q 42.625 4.78125 38.28125 2.390625 
Q 33.9375 0 27.875 0 
Q 17.828125 0 11.671875 7.65625 
Q 5.515625 15.328125 5.515625 27.984375 
Q 5.515625 40.671875 11.671875 48.328125 
Q 17.828125 56 27.875 56 
Q 33.9375 56 38.28125 53.609375 
Q 42.625 51.21875 45.40625 46.390625 
L 45.40625 54.6875 
L 54.390625 54.6875 
z
" id="DejaVuSans-67"/>
      <path d="M 56.203125 29.59375 
L 56.203125 25.203125 
L 14.890625 25.203125 
Q 15.484375 15.921875 20.484375 11.0625 
Q 25.484375 6.203125 34.421875 6.203125 
Q 39.59375 6.203125 44.453125 7.46875 
Q 49.3125 8.734375 54.109375 11.28125 
L 54.109375 2.78125 
Q 49.265625 0.734375 44.1875 -0.34375 
Q 39.109375 -1.421875 33.890625 -1.421875 
Q 20.796875 -1.421875 13.15625 6.1875 
Q 5.515625 13.8125 5.515625 26.8125 
Q 5.515625 40.234375 12.765625 48.109375 
Q 20.015625 56 32.328125 56 
Q 43.359375 56 49.78125 48.890625 
Q 56.203125 41.796875 56.203125 29.59375 
z
M 47.21875 32.234375 
Q 47.125 39.59375 43.09375 43.984375 
Q 39.0625 48.390625 32.421875 48.390625 
Q 24.90625 48.390625 20.390625 44.140625 
Q 15.875 39.890625 15.1875 32.171875 
z
" id="DejaVuSans-65"/>
      <path d="M 44.28125 53.078125 
L 44.28125 44.578125 
Q 40.484375 46.53125 36.375 47.5 
Q 32.28125 48.484375 27.875 48.484375 
Q 21.1875 48.484375 17.84375 46.4375 
Q 14.5 44.390625 14.5 40.28125 
Q 14.5 37.15625 16.890625 35.375 
Q 19.28125 33.59375 26.515625 31.984375 
L 29.59375 31.296875 
Q 39.15625 29.25 43.1875 25.515625 
Q 47.21875 21.78125 47.21875 15.09375 
Q 47.21875 7.46875 41.1875 3.015625 
Q 35.15625 -1.421875 24.609375 -1.421875 
Q 20.21875 -1.421875 15.453125 -0.5625 
Q 10.6875 0.296875 5.421875 2 
L 5.421875 11.28125 
Q 10.40625 8.6875 15.234375 7.390625 
Q 20.0625 6.109375 24.8125 6.109375 
Q 31.15625 6.109375 34.5625 8.28125 
Q 37.984375 10.453125 37.984375 14.40625 
Q 37.984375 18.0625 35.515625 20.015625 
Q 33.0625 21.96875 24.703125 23.78125 
L 21.578125 24.515625 
Q 13.234375 26.265625 9.515625 29.90625 
Q 5.8125 33.546875 5.8125 39.890625 
Q 5.8125 47.609375 11.28125 51.796875 
Q 16.75 56 26.8125 56 
Q 31.78125 56 36.171875 55.265625 
Q 40.578125 54.546875 44.28125 53.078125 
z
" id="DejaVuSans-73"/>
      <path id="DejaVuSans-20"/>
      <path d="M 31 75.875 
Q 24.46875 64.65625 21.28125 53.65625 
Q 18.109375 42.671875 18.109375 31.390625 
Q 18.109375 20.125 21.3125 9.0625 
Q 24.515625 -2 31 -13.1875 
L 23.1875 -13.1875 
Q 15.875 -1.703125 12.234375 9.375 
Q 8.59375 20.453125 8.59375 31.390625 
Q 8.59375 42.28125 12.203125 53.3125 
Q 15.828125 64.359375 23.1875 75.875 
z
" id="DejaVuSans-28"/>
      <path d="M 8.015625 75.875 
L 15.828125 75.875 
Q 23.140625 64.359375 26.78125 53.3125 
Q 30.421875 42.28125 30.421875 31.390625 
Q 30.421875 20.453125 26.78125 9.375 
Q 23.140625 -1.703125 15.828125 -13.1875 
L 8.015625 -13.1875 
Q 14.5 -2 17.703125 9.0625 
Q 20.90625 20.125 20.90625 31.390625 
Q 20.90625 42.671875 17.703125 53.65625 
Q 14.5 64.65625 8.015625 75.875 
z
" id="DejaVuSans-29"/>
     </defs>
     <g transform="translate(22.680625 115.137629)rotate(-90)scale(0.12 -0.12)">
      <use xlink:href="#DejaVuSans-56"/>
      <use x="68.298828" xlink:href="#DejaVuSans-6f"/>
      <use x="129.480469" xlink:href="#DejaVuSans-6c"/>
      <use x="157.263672" xlink:href="#DejaVuSans-74"/>
      <use x="196.472656" xlink:href="#DejaVuSans-61"/>
      <use x="257.751953" xlink:href="#DejaVuSans-67"/>
      <use x="321.228516" xlink:href="#DejaVuSans-65"/>
      <use x="382.751953" xlink:href="#DejaVuSans-73"/>
      <use x="434.851562" xlink:href="#DejaVuSans-20"/>
      <use x="466.638672" xlink:href="#DejaVuSans-28"/>
      <use x="505.652344" xlink:href="#DejaVuSans-56"/>
      <use x="574.060547" xlink:href="#DejaVuSans-29"/>
     </g>
    </g>
   </g>
   <g id="line2d_29">
    <path clip-path="url(#p854ce98c06)" d="M 81.088892 56.564332 
L 83.193963 53.334108 
L 85.299034 50.202621 
L 89.509175 44.284858 
L 93.719317 38.904368 
L 97.929459 34.146006 
L 100.034529 32.023991 
L 102.1396 30.084814 
L 104.244671 28.33613 
L 106.349742 26.784839 
L 108.454813 25.437064 
L 110.559883 24.298124 
L 112.664954 23.372514 
L 114.770025 22.663886 
L 116.875096 22.175037 
L 118.980167 21.907897 
L 121.085237 21.86352 
L 123.190308 22.04208 
L 125.295379 22.442874 
L 127.40045 23.06432 
L 129.505521 23.903964 
L 131.610591 24.958493 
L 133.715662 26.223746 
L 135.820733 27.69473 
L 137.925804 29.365638 
L 140.030875 31.229876 
L 142.135945 33.280088 
L 144.241016 35.508181 
L 148.451158 40.462174 
L 152.6613 46.013727 
L 156.871441 52.075289 
L 161.081583 58.551264 
L 167.396795 68.817453 
L 184.237362 96.825336 
L 188.447503 103.371775 
L 192.657645 109.523651 
L 196.867787 115.183947 
L 201.077928 120.263396 
L 203.182999 122.559876 
L 205.28807 124.681892 
L 207.393141 126.621068 
L 209.498211 128.369752 
L 211.603282 129.921043 
L 213.708353 131.268818 
L 215.813424 132.407758 
L 217.918495 133.333369 
L 220.023565 134.041997 
L 222.128636 134.530845 
L 224.233707 134.797985 
L 226.338778 134.842363 
L 228.443849 134.663802 
L 230.548919 134.263008 
L 232.65399 133.641563 
L 234.759061 132.801918 
L 236.864132 131.747389 
L 238.969203 130.482136 
L 241.074273 129.011153 
L 243.179344 127.340245 
L 245.284415 125.476006 
L 247.389486 123.425795 
L 249.494557 121.197701 
L 253.704698 116.243708 
L 257.91484 110.692155 
L 262.124982 104.630594 
L 266.335123 98.154618 
L 272.650336 87.888429 
L 289.490902 59.880546 
L 293.701044 53.334108 
L 297.911185 47.182231 
L 302.121327 41.521935 
L 306.331469 36.442487 
L 308.436539 34.146006 
L 310.54161 32.023991 
L 312.646681 30.084814 
L 314.751752 28.33613 
L 316.856823 26.784839 
L 318.961893 25.437064 
L 321.066964 24.298124 
L 323.172035 23.372514 
L 325.277106 22.663886 
L 327.382177 22.175037 
L 329.487247 21.907897 
L 331.592318 21.86352 
L 333.697389 22.04208 
L 335.80246 22.442874 
L 337.907531 23.06432 
L 340.012602 23.903964 
L 342.117672 24.958493 
L 344.222743 26.223746 
L 346.327814 27.69473 
L 348.432885 29.365638 
L 350.537956 31.229876 
L 352.643026 33.280088 
L 354.748097 35.508181 
L 358.958239 40.462174 
L 363.16838 46.013727 
L 367.378522 52.075289 
L 371.588664 58.551264 
L 377.903876 68.817453 
L 394.744443 96.825336 
L 398.954584 103.371775 
L 403.164726 109.523651 
L 407.374867 115.183947 
L 411.585009 120.263396 
L 413.69008 122.559876 
L 415.795151 124.681892 
L 417.900221 126.621068 
L 420.005292 128.369752 
L 422.110363 129.921043 
L 424.215434 131.268818 
L 426.320505 132.407758 
L 428.425575 133.333369 
L 430.530646 134.041997 
L 432.635717 134.530845 
L 434.740788 134.797985 
L 436.845859 134.842363 
L 438.95093 134.663802 
L 441.056 134.263008 
L 443.161071 133.641563 
L 445.266142 132.801918 
L 447.371213 131.747389 
L 449.476284 130.482136 
L 451.581354 129.011153 
L 453.686425 127.340245 
L 455.791496 125.476006 
L 457.896567 123.425795 
L 460.001638 121.197701 
L 464.211779 116.243708 
L 468.421921 110.692155 
L 472.632062 104.630594 
L 476.842204 98.154618 
L 483.157416 87.888429 
L 499.997983 59.880546 
L 499.997983 59.880546 
" style="fill:none;stroke:#fc4f30;stroke-width:4;"/>
   </g>
   <g id="line2d_30">
    <path clip-path="url(#p854ce98c06)" d="M 81.088892 142.657936 
L 83.193963 142.975202 
L 85.299034 143.037433 
L 87.404104 142.844384 
L 89.509175 142.396817 
L 91.614246 141.696498 
L 93.719317 140.746191 
L 95.824388 139.549646 
L 97.929459 138.111586 
L 100.034529 136.437685 
L 102.1396 134.534551 
L 104.244671 132.409693 
L 106.349742 130.071499 
L 108.454813 127.529194 
L 110.559883 124.792814 
L 114.770025 118.781745 
L 118.980167 112.133089 
L 123.190308 104.9517 
L 127.40045 97.350833 
L 133.715662 85.426572 
L 146.346087 61.257589 
L 150.556229 53.572444 
L 154.76637 46.278101 
L 158.976512 39.489598 
L 163.186654 33.313993 
L 165.291724 30.486883 
L 167.396795 27.848679 
L 169.501866 25.409792 
L 171.606937 23.179848 
L 173.712008 21.167646 
L 175.817078 19.381129 
L 177.922149 17.827346 
L 180.02722 16.512431 
L 182.132291 15.441571 
L 184.237362 14.618994 
L 186.342432 14.047946 
L 188.447503 13.73068 
L 190.552574 13.668449 
L 192.657645 13.861498 
L 194.762716 14.309065 
L 196.867787 15.009384 
L 198.972857 15.959692 
L 201.077928 17.156237 
L 203.182999 18.594297 
L 205.28807 20.268197 
L 207.393141 22.171331 
L 209.498211 24.296189 
L 211.603282 26.634384 
L 213.708353 29.176688 
L 215.813424 31.913068 
L 220.023565 37.924138 
L 224.233707 44.572793 
L 228.443849 51.754182 
L 232.65399 59.355049 
L 238.969203 71.27931 
L 251.599628 95.448293 
L 255.809769 103.133439 
L 260.019911 110.427781 
L 264.230052 117.216284 
L 268.440194 123.391889 
L 270.545265 126.218999 
L 272.650336 128.857203 
L 274.755406 131.29609 
L 276.860477 133.526035 
L 278.965548 135.538236 
L 281.070619 137.324754 
L 283.17569 138.878536 
L 285.28076 140.193452 
L 287.385831 141.264311 
L 289.490902 142.086888 
L 291.595973 142.657936 
L 293.701044 142.975202 
L 295.806115 143.037433 
L 297.911185 142.844384 
L 300.016256 142.396817 
L 302.121327 141.696498 
L 304.226398 140.746191 
L 306.331469 139.549646 
L 308.436539 138.111586 
L 310.54161 136.437685 
L 312.646681 134.534551 
L 314.751752 132.409693 
L 316.856823 130.071499 
L 318.961893 127.529194 
L 321.066964 124.792814 
L 325.277106 118.781745 
L 329.487247 112.133089 
L 333.697389 104.9517 
L 337.907531 97.350833 
L 344.222743 85.426572 
L 356.853168 61.257589 
L 361.06331 53.572444 
L 365.273451 46.278101 
L 369.483593 39.489598 
L 373.693734 33.313993 
L 375.798805 30.486883 
L 377.903876 27.848679 
L 380.008947 25.409792 
L 382.114018 23.179848 
L 384.219088 21.167646 
L 386.324159 19.381129 
L 388.42923 17.827346 
L 390.534301 16.512431 
L 392.639372 15.441571 
L 394.744443 14.618994 
L 396.849513 14.047946 
L 398.954584 13.73068 
L 401.059655 13.668449 
L 403.164726 13.861498 
L 405.269797 14.309065 
L 407.374867 15.009384 
L 409.479938 15.959692 
L 411.585009 17.156237 
L 413.69008 18.594297 
L 415.795151 20.268197 
L 417.900221 22.171331 
L 420.005292 24.296189 
L 422.110363 26.634384 
L 424.215434 29.176688 
L 426.320505 31.913068 
L 430.530646 37.924138 
L 434.740788 44.572793 
L 438.95093 51.754182 
L 443.161071 59.355049 
L 449.476284 71.27931 
L 462.106708 95.448293 
L 466.31685 103.133439 
L 470.526992 110.427781 
L 474.737133 117.216284 
L 478.947275 123.391889 
L 481.052346 126.218999 
L 483.157416 128.857203 
L 485.262487 131.29609 
L 487.367558 133.526035 
L 489.472629 135.538236 
L 491.5777 137.324754 
L 493.682771 138.878536 
L 495.787841 140.193452 
L 497.892912 141.264311 
L 499.997983 142.086888 
L 499.997983 142.086888 
" style="fill:none;stroke:#5cb85c;stroke-width:4;"/>
   </g>
   <g id="line2d_31">
    <path clip-path="url(#p854ce98c06)" d="M 81.088892 35.836555 
L 85.299034 41.818769 
L 89.509175 48.377149 
L 93.719317 55.408265 
L 100.034529 66.597148 
L 118.980167 101.017838 
L 123.190308 108.065043 
L 127.40045 114.643671 
L 131.610591 120.649972 
L 135.820733 125.989224 
L 137.925804 128.381945 
L 140.030875 130.577223 
L 142.135945 132.566397 
L 144.241016 134.341615 
L 146.346087 135.895871 
L 148.451158 137.223031 
L 150.556229 138.317858 
L 152.6613 139.176031 
L 154.76637 139.794163 
L 156.871441 140.169814 
L 158.976512 140.301503 
L 161.081583 140.188708 
L 163.186654 139.831877 
L 165.291724 139.232416 
L 167.396795 138.392691 
L 169.501866 137.316018 
L 171.606937 136.006643 
L 173.712008 134.469736 
L 175.817078 132.711362 
L 177.922149 130.73846 
L 180.02722 128.558816 
L 182.132291 126.181032 
L 184.237362 123.614493 
L 188.447503 117.956368 
L 192.657645 111.673674 
L 196.867787 104.865492 
L 201.077928 97.639191 
L 207.393141 86.266424 
L 222.128636 59.352875 
L 226.338778 52.112663 
L 230.548919 45.286276 
L 234.759061 38.98137 
L 238.969203 33.297377 
L 241.074273 30.716658 
L 243.179344 28.323938 
L 245.284415 26.128659 
L 247.389486 24.139486 
L 249.494557 22.364268 
L 251.599628 20.810012 
L 253.704698 19.482851 
L 255.809769 18.388024 
L 257.91484 17.529852 
L 260.019911 16.91172 
L 262.124982 16.536068 
L 264.230052 16.40438 
L 266.335123 16.517174 
L 268.440194 16.874006 
L 270.545265 17.473466 
L 272.650336 18.313191 
L 274.755406 19.389865 
L 276.860477 20.699239 
L 278.965548 22.236146 
L 281.070619 23.99452 
L 283.17569 25.967423 
L 285.28076 28.147067 
L 287.385831 30.52485 
L 289.490902 33.091389 
L 293.701044 38.749514 
L 297.911185 45.032208 
L 302.121327 51.84039 
L 306.331469 59.066691 
L 312.646681 70.439458 
L 327.382177 97.353008 
L 331.592318 104.593219 
L 335.80246 111.419606 
L 340.012602 117.724512 
L 344.222743 123.408505 
L 346.327814 125.989224 
L 348.432885 128.381945 
L 350.537956 130.577223 
L 352.643026 132.566397 
L 354.748097 134.341615 
L 356.853168 135.895871 
L 358.958239 137.223031 
L 361.06331 138.317858 
L 363.16838 139.176031 
L 365.273451 139.794163 
L 367.378522 140.169814 
L 369.483593 140.301503 
L 371.588664 140.188708 
L 373.693734 139.831877 
L 375.798805 139.232416 
L 377.903876 138.392691 
L 380.008947 137.316018 
L 382.114018 136.006643 
L 384.219088 134.469736 
L 386.324159 132.711362 
L 388.42923 130.73846 
L 390.534301 128.558816 
L 392.639372 126.181032 
L 394.744443 123.614493 
L 398.954584 117.956368 
L 403.164726 111.673674 
L 407.374867 104.865492 
L 411.585009 97.639191 
L 417.900221 86.266424 
L 432.635717 59.352875 
L 436.845859 52.112663 
L 441.056 45.286276 
L 445.266142 38.98137 
L 449.476284 33.297377 
L 451.581354 30.716658 
L 453.686425 28.323938 
L 455.791496 26.128659 
L 457.896567 24.139486 
L 460.001638 22.364268 
L 462.106708 20.810012 
L 464.211779 19.482851 
L 466.31685 18.388024 
L 468.421921 17.529852 
L 470.526992 16.91172 
L 472.632062 16.536068 
L 474.737133 16.40438 
L 476.842204 16.517174 
L 478.947275 16.874006 
L 481.052346 17.473466 
L 483.157416 18.313191 
L 485.262487 19.389865 
L 487.367558 20.699239 
L 489.472629 22.236146 
L 491.5777 23.99452 
L 493.682771 25.967423 
L 495.787841 28.147067 
L 497.892912 30.52485 
L 499.997983 33.091389 
L 499.997983 33.091389 
" style="fill:none;stroke:#30a2da;stroke-width:4;"/>
   </g>
   <g id="patch_3">
    <path d="M 60.143438 149.505882 
L 60.143438 7.2 
" style="fill:none;stroke:#ffffff;stroke-linecap:square;stroke-linejoin:miter;stroke-width:3;"/>
   </g>
   <g id="patch_4">
    <path d="M 520.943437 149.505882 
L 520.943437 7.2 
" style="fill:none;stroke:#ffffff;stroke-linecap:square;stroke-linejoin:miter;stroke-width:3;"/>
   </g>
   <g id="patch_5">
    <path d="M 60.143438 149.505882 
L 520.943437 149.505882 
" style="fill:none;stroke:#ffffff;stroke-linecap:square;stroke-linejoin:miter;stroke-width:3;"/>
   </g>
   <g id="patch_6">
    <path d="M 60.143438 7.2 
L 520.943437 7.2 
" style="fill:none;stroke:#ffffff;stroke-linecap:square;stroke-linejoin:miter;stroke-width:3;"/>
   </g>
  </g>
  <g id="axes_2">
   <g id="patch_7">
    <path d="M 60.143438 320.272941 
L 520.943437 320.272941 
L 520.943437 177.967059 
L 60.143438 177.967059 
z
" style="fill:#ffffff;"/>
   </g>
   <g id="matplotlib.axis_3">
    <g id="xtick_10">
     <g id="line2d_32">
      <path clip-path="url(#p1082b84325)" d="M 81.088892 320.272941 
L 81.088892 177.967059 
" style="fill:none;stroke:#cbcbcb;"/>
     </g>
     <g id="line2d_33"/>
    </g>
    <g id="xtick_11">
     <g id="line2d_34">
      <path clip-path="url(#p1082b84325)" d="M 133.715662 320.272941 
L 133.715662 177.967059 
" style="fill:none;stroke:#cbcbcb;"/>
     </g>
     <g id="line2d_35"/>
    </g>
    <g id="xtick_12">
     <g id="line2d_36">
      <path clip-path="url(#p1082b84325)" d="M 186.342432 320.272941 
L 186.342432 177.967059 
" style="fill:none;stroke:#cbcbcb;"/>
     </g>
     <g id="line2d_37"/>
    </g>
    <g id="xtick_13">
     <g id="line2d_38">
      <path clip-path="url(#p1082b84325)" d="M 238.969203 320.272941 
L 238.969203 177.967059 
" style="fill:none;stroke:#cbcbcb;"/>
     </g>
     <g id="line2d_39"/>
    </g>
    <g id="xtick_14">
     <g id="line2d_40">
      <path clip-path="url(#p1082b84325)" d="M 291.595973 320.272941 
L 291.595973 177.967059 
" style="fill:none;stroke:#cbcbcb;"/>
     </g>
     <g id="line2d_41"/>
    </g>
    <g id="xtick_15">
     <g id="line2d_42">
      <path clip-path="url(#p1082b84325)" d="M 344.222743 320.272941 
L 344.222743 177.967059 
" style="fill:none;stroke:#cbcbcb;"/>
     </g>
     <g id="line2d_43"/>
    </g>
    <g id="xtick_16">
     <g id="line2d_44">
      <path clip-path="url(#p1082b84325)" d="M 396.849513 320.272941 
L 396.849513 177.967059 
" style="fill:none;stroke:#cbcbcb;"/>
     </g>
     <g id="line2d_45"/>
    </g>
    <g id="xtick_17">
     <g id="line2d_46">
      <path clip-path="url(#p1082b84325)" d="M 449.476284 320.272941 
L 449.476284 177.967059 
" style="fill:none;stroke:#cbcbcb;"/>
     </g>
     <g id="line2d_47"/>
    </g>
    <g id="xtick_18">
     <g id="line2d_48">
      <path clip-path="url(#p1082b84325)" d="M 502.103054 320.272941 
L 502.103054 177.967059 
" style="fill:none;stroke:#cbcbcb;"/>
     </g>
     <g id="line2d_49"/>
    </g>
   </g>
   <g id="matplotlib.axis_4">
    <g id="ytick_6">
     <g id="line2d_50">
      <path clip-path="url(#p1082b84325)" d="M 60.143438 301.399339 
L 520.943437 301.399339 
" style="fill:none;stroke:#cbcbcb;"/>
     </g>
     <g id="line2d_51"/>
     <g id="text_7">
      <!-- −1000 -->
      <defs>
       <path d="M 12.40625 8.296875 
L 28.515625 8.296875 
L 28.515625 63.921875 
L 10.984375 60.40625 
L 10.984375 69.390625 
L 28.421875 72.90625 
L 38.28125 72.90625 
L 38.28125 8.296875 
L 54.390625 8.296875 
L 54.390625 0 
L 12.40625 0 
z
" id="DejaVuSans-31"/>
      </defs>
      <g transform="translate(22.81375 305.198558)scale(0.1 -0.1)">
       <use xlink:href="#DejaVuSans-2212"/>
       <use x="83.789062" xlink:href="#DejaVuSans-31"/>
       <use x="147.412109" xlink:href="#DejaVuSans-30"/>
       <use x="211.035156" xlink:href="#DejaVuSans-30"/>
       <use x="274.658203" xlink:href="#DejaVuSans-30"/>
      </g>
     </g>
    </g>
    <g id="ytick_7">
     <g id="line2d_52">
      <path clip-path="url(#p1082b84325)" d="M 60.143438 275.25967 
L 520.943437 275.25967 
" style="fill:none;stroke:#cbcbcb;"/>
     </g>
     <g id="line2d_53"/>
     <g id="text_8">
      <!-- −500 -->
      <defs>
       <path d="M 10.796875 72.90625 
L 49.515625 72.90625 
L 49.515625 64.59375 
L 19.828125 64.59375 
L 19.828125 46.734375 
Q 21.96875 47.46875 24.109375 47.828125 
Q 26.265625 48.1875 28.421875 48.1875 
Q 40.625 48.1875 47.75 41.5 
Q 54.890625 34.8125 54.890625 23.390625 
Q 54.890625 11.625 47.5625 5.09375 
Q 40.234375 -1.421875 26.90625 -1.421875 
Q 22.3125 -1.421875 17.546875 -0.640625 
Q 12.796875 0.140625 7.71875 1.703125 
L 7.71875 11.625 
Q 12.109375 9.234375 16.796875 8.0625 
Q 21.484375 6.890625 26.703125 6.890625 
Q 35.15625 6.890625 40.078125 11.328125 
Q 45.015625 15.765625 45.015625 23.390625 
Q 45.015625 31 40.078125 35.4375 
Q 35.15625 39.890625 26.703125 39.890625 
Q 22.75 39.890625 18.8125 39.015625 
Q 14.890625 38.140625 10.796875 36.28125 
z
" id="DejaVuSans-35"/>
      </defs>
      <g transform="translate(29.17625 279.058888)scale(0.1 -0.1)">
       <use xlink:href="#DejaVuSans-2212"/>
       <use x="83.789062" xlink:href="#DejaVuSans-35"/>
       <use x="147.412109" xlink:href="#DejaVuSans-30"/>
       <use x="211.035156" xlink:href="#DejaVuSans-30"/>
      </g>
     </g>
    </g>
    <g id="ytick_8">
     <g id="line2d_54">
      <path clip-path="url(#p1082b84325)" d="M 60.143438 249.12 
L 520.943437 249.12 
" style="fill:none;stroke:#cbcbcb;"/>
     </g>
     <g id="line2d_55"/>
     <g id="text_9">
      <!-- 0 -->
      <g transform="translate(50.280938 252.919219)scale(0.1 -0.1)">
       <use xlink:href="#DejaVuSans-30"/>
      </g>
     </g>
    </g>
    <g id="ytick_9">
     <g id="line2d_56">
      <path clip-path="url(#p1082b84325)" d="M 60.143438 222.98033 
L 520.943437 222.98033 
" style="fill:none;stroke:#cbcbcb;"/>
     </g>
     <g id="line2d_57"/>
     <g id="text_10">
      <!-- 500 -->
      <g transform="translate(37.555937 226.779549)scale(0.1 -0.1)">
       <use xlink:href="#DejaVuSans-35"/>
       <use x="63.623047" xlink:href="#DejaVuSans-30"/>
       <use x="127.246094" xlink:href="#DejaVuSans-30"/>
      </g>
     </g>
    </g>
    <g id="ytick_10">
     <g id="line2d_58">
      <path clip-path="url(#p1082b84325)" d="M 60.143438 196.840661 
L 520.943437 196.840661 
" style="fill:none;stroke:#cbcbcb;"/>
     </g>
     <g id="line2d_59"/>
     <g id="text_11">
      <!-- 1000 -->
      <g transform="translate(31.193438 200.63988)scale(0.1 -0.1)">
       <use xlink:href="#DejaVuSans-31"/>
       <use x="63.623047" xlink:href="#DejaVuSans-30"/>
       <use x="127.246094" xlink:href="#DejaVuSans-30"/>
       <use x="190.869141" xlink:href="#DejaVuSans-30"/>
      </g>
     </g>
    </g>
    <g id="text_12">
     <!-- Currents (A) -->
     <defs>
      <path d="M 64.40625 67.28125 
L 64.40625 56.890625 
Q 59.421875 61.53125 53.78125 63.8125 
Q 48.140625 66.109375 41.796875 66.109375 
Q 29.296875 66.109375 22.65625 58.46875 
Q 16.015625 50.828125 16.015625 36.375 
Q 16.015625 21.96875 22.65625 14.328125 
Q 29.296875 6.6875 41.796875 6.6875 
Q 48.140625 6.6875 53.78125 8.984375 
Q 59.421875 11.28125 64.40625 15.921875 
L 64.40625 5.609375 
Q 59.234375 2.09375 53.4375 0.328125 
Q 47.65625 -1.421875 41.21875 -1.421875 
Q 24.65625 -1.421875 15.125 8.703125 
Q 5.609375 18.84375 5.609375 36.375 
Q 5.609375 53.953125 15.125 64.078125 
Q 24.65625 74.21875 41.21875 74.21875 
Q 47.75 74.21875 53.53125 72.484375 
Q 59.328125 70.75 64.40625 67.28125 
z
" id="DejaVuSans-43"/>
      <path d="M 8.5 21.578125 
L 8.5 54.6875 
L 17.484375 54.6875 
L 17.484375 21.921875 
Q 17.484375 14.15625 20.5 10.265625 
Q 23.53125 6.390625 29.59375 6.390625 
Q 36.859375 6.390625 41.078125 11.03125 
Q 45.3125 15.671875 45.3125 23.6875 
L 45.3125 54.6875 
L 54.296875 54.6875 
L 54.296875 0 
L 45.3125 0 
L 45.3125 8.40625 
Q 42.046875 3.421875 37.71875 1 
Q 33.40625 -1.421875 27.6875 -1.421875 
Q 18.265625 -1.421875 13.375 4.4375 
Q 8.5 10.296875 8.5 21.578125 
z
M 31.109375 56 
z
" id="DejaVuSans-75"/>
      <path d="M 41.109375 46.296875 
Q 39.59375 47.171875 37.8125 47.578125 
Q 36.03125 48 33.890625 48 
Q 26.265625 48 22.1875 43.046875 
Q 18.109375 38.09375 18.109375 28.8125 
L 18.109375 0 
L 9.078125 0 
L 9.078125 54.6875 
L 18.109375 54.6875 
L 18.109375 46.1875 
Q 20.953125 51.171875 25.484375 53.578125 
Q 30.03125 56 36.53125 56 
Q 37.453125 56 38.578125 55.875 
Q 39.703125 55.765625 41.0625 55.515625 
z
" id="DejaVuSans-72"/>
      <path d="M 54.890625 33.015625 
L 54.890625 0 
L 45.90625 0 
L 45.90625 32.71875 
Q 45.90625 40.484375 42.875 44.328125 
Q 39.84375 48.1875 33.796875 48.1875 
Q 26.515625 48.1875 22.3125 43.546875 
Q 18.109375 38.921875 18.109375 30.90625 
L 18.109375 0 
L 9.078125 0 
L 9.078125 54.6875 
L 18.109375 54.6875 
L 18.109375 46.1875 
Q 21.34375 51.125 25.703125 53.5625 
Q 30.078125 56 35.796875 56 
Q 45.21875 56 50.046875 50.171875 
Q 54.890625 44.34375 54.890625 33.015625 
z
" id="DejaVuSans-6e"/>
      <path d="M 34.1875 63.1875 
L 20.796875 26.90625 
L 47.609375 26.90625 
z
M 28.609375 72.90625 
L 39.796875 72.90625 
L 67.578125 0 
L 57.328125 0 
L 50.6875 18.703125 
L 17.828125 18.703125 
L 11.1875 0 
L 0.78125 0 
z
" id="DejaVuSans-41"/>
     </defs>
     <g transform="translate(16.318125 285.707812)rotate(-90)scale(0.12 -0.12)">
      <use xlink:href="#DejaVuSans-43"/>
      <use x="69.824219" xlink:href="#DejaVuSans-75"/>
      <use x="133.203125" xlink:href="#DejaVuSans-72"/>
      <use x="174.300781" xlink:href="#DejaVuSans-72"/>
      <use x="215.382812" xlink:href="#DejaVuSans-65"/>
      <use x="276.90625" xlink:href="#DejaVuSans-6e"/>
      <use x="340.285156" xlink:href="#DejaVuSans-74"/>
      <use x="379.494141" xlink:href="#DejaVuSans-73"/>
      <use x="431.59375" xlink:href="#DejaVuSans-20"/>
      <use x="463.380859" xlink:href="#DejaVuSans-28"/>
      <use x="502.394531" xlink:href="#DejaVuSans-41"/>
      <use x="570.802734" xlink:href="#DejaVuSans-29"/>
     </g>
    </g>
   </g>
   <g id="line2d_60">
    <path clip-path="url(#p1082b84325)" d="M 81.088892 247.834398 
L 89.509175 231.788408 
L 93.719317 224.112728 
L 97.929459 216.831427 
L 102.1396 210.059336 
L 106.349742 203.903255 
L 108.454813 201.08698 
L 110.559883 198.460269 
L 112.664954 196.033489 
L 114.770025 193.816217 
L 116.875096 191.817204 
L 118.980167 190.044339 
L 121.085237 188.504619 
L 123.190308 187.20412 
L 125.295379 186.147974 
L 127.40045 185.34035 
L 129.505521 184.784436 
L 131.610591 184.482424 
L 133.715662 184.435508 
L 135.820733 184.643872 
L 137.925804 185.106693 
L 140.030875 185.822146 
L 142.135945 186.787407 
L 144.241016 187.998665 
L 146.346087 189.451142 
L 148.451158 191.139105 
L 150.556229 193.055891 
L 152.6613 195.193937 
L 154.76637 197.544805 
L 156.871441 200.099216 
L 161.081583 205.777582 
L 165.291724 212.139483 
L 169.501866 219.08459 
L 173.712008 226.503373 
L 180.02722 238.262165 
L 196.867787 270.331287 
L 201.077928 277.824565 
L 205.28807 284.865154 
L 209.498211 291.34202 
L 213.708353 297.15302 
L 215.813424 299.779731 
L 217.918495 302.206511 
L 220.023565 304.423783 
L 222.128636 306.422796 
L 224.233707 308.195661 
L 226.338778 309.735381 
L 228.443849 311.03588 
L 230.548919 312.092026 
L 232.65399 312.89965 
L 234.759061 313.455564 
L 236.864132 313.757576 
L 238.969203 313.804492 
L 241.074273 313.596128 
L 243.179344 313.133307 
L 245.284415 312.417854 
L 247.389486 311.452593 
L 249.494557 310.241335 
L 251.599628 308.788858 
L 253.704698 307.100895 
L 255.809769 305.184109 
L 257.91484 303.046063 
L 260.019911 300.695195 
L 262.124982 298.140784 
L 266.335123 292.462418 
L 270.545265 286.100517 
L 274.755406 279.15541 
L 278.965548 271.736627 
L 285.28076 259.977835 
L 302.121327 227.908713 
L 306.331469 220.415435 
L 310.54161 213.374846 
L 314.751752 206.89798 
L 318.961893 201.08698 
L 321.066964 198.460269 
L 323.172035 196.033489 
L 325.277106 193.816217 
L 327.382177 191.817204 
L 329.487247 190.044339 
L 331.592318 188.504619 
L 333.697389 187.20412 
L 335.80246 186.147974 
L 337.907531 185.34035 
L 340.012602 184.784436 
L 342.117672 184.482424 
L 344.222743 184.435508 
L 346.327814 184.643872 
L 348.432885 185.106693 
L 350.537956 185.822146 
L 352.643026 186.787407 
L 354.748097 187.998665 
L 356.853168 189.451142 
L 358.958239 191.139105 
L 361.06331 193.055891 
L 363.16838 195.193937 
L 365.273451 197.544805 
L 367.378522 200.099216 
L 371.588664 205.777582 
L 375.798805 212.139483 
L 380.008947 219.08459 
L 384.219088 226.503373 
L 390.534301 238.262165 
L 407.374867 270.331287 
L 411.585009 277.824565 
L 415.795151 284.865154 
L 420.005292 291.34202 
L 424.215434 297.15302 
L 426.320505 299.779731 
L 428.425575 302.206511 
L 430.530646 304.423783 
L 432.635717 306.422796 
L 434.740788 308.195661 
L 436.845859 309.735381 
L 438.95093 311.03588 
L 441.056 312.092026 
L 443.161071 312.89965 
L 445.266142 313.455564 
L 447.371213 313.757576 
L 449.476284 313.804492 
L 451.581354 313.596128 
L 453.686425 313.133307 
L 455.791496 312.417854 
L 457.896567 311.452593 
L 460.001638 310.241335 
L 462.106708 308.788858 
L 464.211779 307.100895 
L 466.31685 305.184109 
L 468.421921 303.046063 
L 470.526992 300.695195 
L 472.632062 298.140784 
L 476.842204 292.462418 
L 481.052346 286.100517 
L 485.262487 279.15541 
L 489.472629 271.736627 
L 495.787841 259.977835 
L 499.997983 251.898508 
L 499.997983 251.898508 
" style="fill:none;stroke:#fc4f30;stroke-width:4;"/>
   </g>
   <g id="line2d_61">
    <path clip-path="url(#p1082b84325)" d="M 81.088892 297.992806 
L 83.193963 299.702177 
L 85.299034 301.211924 
L 87.404104 302.516088 
L 89.509175 303.609521 
L 91.614246 304.48791 
L 93.719317 305.147786 
L 95.824388 305.586547 
L 97.929459 305.80246 
L 100.034529 305.794673 
L 102.1396 305.563217 
L 104.244671 305.109006 
L 106.349742 304.433831 
L 108.454813 303.540358 
L 110.559883 302.432113 
L 112.664954 301.113469 
L 114.770025 299.589631 
L 116.875096 297.866612 
L 118.980167 295.951212 
L 121.085237 293.850992 
L 123.190308 291.574238 
L 127.40045 286.527735 
L 131.610591 280.891289 
L 135.820733 274.753792 
L 140.030875 268.212034 
L 146.346087 257.868432 
L 163.186654 229.794718 
L 167.396795 223.265324 
L 171.606937 217.143674 
L 175.817078 211.526309 
L 180.02722 206.50182 
L 182.132291 204.237066 
L 184.237362 202.149444 
L 186.342432 200.247194 
L 188.447503 198.537823 
L 190.552574 197.028076 
L 192.657645 195.723912 
L 194.762716 194.630479 
L 196.867787 193.75209 
L 198.972857 193.092214 
L 201.077928 192.653453 
L 203.182999 192.43754 
L 205.28807 192.445327 
L 207.393141 192.676783 
L 209.498211 193.130994 
L 211.603282 193.806169 
L 213.708353 194.699642 
L 215.813424 195.807887 
L 217.918495 197.126531 
L 220.023565 198.650369 
L 222.128636 200.373388 
L 224.233707 202.288788 
L 226.338778 204.389008 
L 228.443849 206.665762 
L 232.65399 211.712265 
L 236.864132 217.348711 
L 241.074273 223.486208 
L 245.284415 230.027966 
L 251.599628 240.371568 
L 268.440194 268.445282 
L 272.650336 274.974676 
L 276.860477 281.096326 
L 281.070619 286.713691 
L 285.28076 291.73818 
L 287.385831 294.002934 
L 289.490902 296.090556 
L 291.595973 297.992806 
L 293.701044 299.702177 
L 295.806115 301.211924 
L 297.911185 302.516088 
L 300.016256 303.609521 
L 302.121327 304.48791 
L 304.226398 305.147786 
L 306.331469 305.586547 
L 308.436539 305.80246 
L 310.54161 305.794673 
L 312.646681 305.563217 
L 314.751752 305.109006 
L 316.856823 304.433831 
L 318.961893 303.540358 
L 321.066964 302.432113 
L 323.172035 301.113469 
L 325.277106 299.589631 
L 327.382177 297.866612 
L 329.487247 295.951212 
L 331.592318 293.850992 
L 333.697389 291.574238 
L 337.907531 286.527735 
L 342.117672 280.891289 
L 346.327814 274.753792 
L 350.537956 268.212034 
L 356.853168 257.868432 
L 373.693734 229.794718 
L 377.903876 223.265324 
L 382.114018 217.143674 
L 386.324159 211.526309 
L 390.534301 206.50182 
L 392.639372 204.237066 
L 394.744443 202.149444 
L 396.849513 200.247194 
L 398.954584 198.537823 
L 401.059655 197.028076 
L 403.164726 195.723912 
L 405.269797 194.630479 
L 407.374867 193.75209 
L 409.479938 193.092214 
L 411.585009 192.653453 
L 413.69008 192.43754 
L 415.795151 192.445327 
L 417.900221 192.676783 
L 420.005292 193.130994 
L 422.110363 193.806169 
L 424.215434 194.699642 
L 426.320505 195.807887 
L 428.425575 197.126531 
L 430.530646 198.650369 
L 432.635717 200.373388 
L 434.740788 202.288788 
L 436.845859 204.389008 
L 438.95093 206.665762 
L 443.161071 211.712265 
L 447.371213 217.348711 
L 451.581354 223.486208 
L 455.791496 230.027966 
L 462.106708 240.371568 
L 478.947275 268.445282 
L 483.157416 274.974676 
L 487.367558 281.096326 
L 491.5777 286.713691 
L 495.787841 291.73818 
L 497.892912 294.002934 
L 499.997983 296.090556 
L 499.997983 296.090556 
" style="fill:none;stroke:#5cb85c;stroke-width:4;"/>
   </g>
   <g id="line2d_62">
    <path clip-path="url(#p1082b84325)" d="M 81.088892 201.532796 
L 83.193963 203.882461 
L 87.404104 209.107408 
L 91.614246 214.963378 
L 95.824388 221.358018 
L 100.034529 228.190481 
L 106.349742 239.022914 
L 123.190308 268.581642 
L 127.40045 275.491915 
L 131.610591 281.986286 
L 135.820733 287.962337 
L 140.030875 293.32582 
L 142.135945 295.751002 
L 144.241016 297.992152 
L 146.346087 300.040426 
L 148.451158 301.88774 
L 150.556229 303.526804 
L 152.6613 304.95115 
L 154.76637 306.155155 
L 156.871441 307.134069 
L 158.976512 307.884027 
L 161.081583 308.402071 
L 163.186654 308.686156 
L 165.291724 308.73516 
L 167.396795 308.548891 
L 169.501866 308.128082 
L 171.606937 307.474396 
L 173.712008 306.590412 
L 175.817078 305.479618 
L 177.922149 304.146398 
L 180.02722 302.596015 
L 182.132291 300.834586 
L 184.237362 298.869063 
L 186.342432 296.707204 
L 188.447503 294.357539 
L 192.657645 289.132592 
L 196.867787 283.276622 
L 201.077928 276.881982 
L 205.28807 270.049519 
L 211.603282 259.217086 
L 228.443849 229.658358 
L 232.65399 222.748085 
L 236.864132 216.253714 
L 241.074273 210.277663 
L 245.284415 204.91418 
L 247.389486 202.488998 
L 249.494557 200.247848 
L 251.599628 198.199574 
L 253.704698 196.35226 
L 255.809769 194.713196 
L 257.91484 193.28885 
L 260.019911 192.084845 
L 262.124982 191.105931 
L 264.230052 190.355973 
L 266.335123 189.837929 
L 268.440194 189.553844 
L 270.545265 189.50484 
L 272.650336 189.691109 
L 274.755406 190.111918 
L 276.860477 190.765604 
L 278.965548 191.649588 
L 281.070619 192.760382 
L 283.17569 194.093602 
L 285.28076 195.643985 
L 287.385831 197.405414 
L 289.490902 199.370937 
L 291.595973 201.532796 
L 293.701044 203.882461 
L 297.911185 209.107408 
L 302.121327 214.963378 
L 306.331469 221.358018 
L 310.54161 228.190481 
L 316.856823 239.022914 
L 333.697389 268.581642 
L 337.907531 275.491915 
L 342.117672 281.986286 
L 346.327814 287.962337 
L 350.537956 293.32582 
L 352.643026 295.751002 
L 354.748097 297.992152 
L 356.853168 300.040426 
L 358.958239 301.88774 
L 361.06331 303.526804 
L 363.16838 304.95115 
L 365.273451 306.155155 
L 367.378522 307.134069 
L 369.483593 307.884027 
L 371.588664 308.402071 
L 373.693734 308.686156 
L 375.798805 308.73516 
L 377.903876 308.548891 
L 380.008947 308.128082 
L 382.114018 307.474396 
L 384.219088 306.590412 
L 386.324159 305.479618 
L 388.42923 304.146398 
L 390.534301 302.596015 
L 392.639372 300.834586 
L 394.744443 298.869063 
L 396.849513 296.707204 
L 398.954584 294.357539 
L 403.164726 289.132592 
L 407.374867 283.276622 
L 411.585009 276.881982 
L 415.795151 270.049519 
L 422.110363 259.217086 
L 438.95093 229.658358 
L 443.161071 222.748085 
L 447.371213 216.253714 
L 451.581354 210.277663 
L 455.791496 204.91418 
L 457.896567 202.488998 
L 460.001638 200.247848 
L 462.106708 198.199574 
L 464.211779 196.35226 
L 466.31685 194.713196 
L 468.421921 193.28885 
L 470.526992 192.084845 
L 472.632062 191.105931 
L 474.737133 190.355973 
L 476.842204 189.837929 
L 478.947275 189.553844 
L 481.052346 189.50484 
L 483.157416 189.691109 
L 485.262487 190.111918 
L 487.367558 190.765604 
L 489.472629 191.649588 
L 491.5777 192.760382 
L 493.682771 194.093602 
L 495.787841 195.643985 
L 497.892912 197.405414 
L 499.997983 199.370937 
L 499.997983 199.370937 
" style="fill:none;stroke:#30a2da;stroke-width:4;"/>
   </g>
   <g id="patch_8">
    <path d="M 60.143438 320.272941 
L 60.143438 177.967059 
" style="fill:none;stroke:#ffffff;stroke-linecap:square;stroke-linejoin:miter;stroke-width:3;"/>
   </g>
   <g id="patch_9">
    <path d="M 520.943437 320.272941 
L 520.943437 177.967059 
" style="fill:none;stroke:#ffffff;stroke-linecap:square;stroke-linejoin:miter;stroke-width:3;"/>
   </g>
   <g id="patch_10">
    <path d="M 60.143438 320.272941 
L 520.943437 320.272941 
" style="fill:none;stroke:#ffffff;stroke-linecap:square;stroke-linejoin:miter;stroke-width:3;"/>
   </g>
   <g id="patch_11">
    <path d="M 60.143438 177.967059 
L 520.943437 177.967059 
" style="fill:none;stroke:#ffffff;stroke-linecap:square;stroke-linejoin:miter;stroke-width:3;"/>
   </g>
  </g>
  <g id="axes_3">
   <g id="patch_12">
    <path d="M 60.143438 491.04 
L 520.943437 491.04 
L 520.943437 348.734118 
L 60.143438 348.734118 
z
" style="fill:#ffffff;"/>
   </g>
   <g id="matplotlib.axis_5">
    <g id="xtick_19">
     <g id="line2d_63">
      <path clip-path="url(#p457cde230c)" d="M 81.088892 491.04 
L 81.088892 348.734118 
" style="fill:none;stroke:#cbcbcb;"/>
     </g>
     <g id="line2d_64"/>
     <g id="text_13">
      <!-- 0.000 -->
      <defs>
       <path d="M 10.6875 12.40625 
L 21 12.40625 
L 21 0 
L 10.6875 0 
z
" id="DejaVuSans-2e"/>
      </defs>
      <g transform="translate(66.77483 502.138438)scale(0.1 -0.1)">
       <use xlink:href="#DejaVuSans-30"/>
       <use x="63.623047" xlink:href="#DejaVuSans-2e"/>
       <use x="95.410156" xlink:href="#DejaVuSans-30"/>
       <use x="159.033203" xlink:href="#DejaVuSans-30"/>
       <use x="222.65625" xlink:href="#DejaVuSans-30"/>
      </g>
     </g>
    </g>
    <g id="xtick_20">
     <g id="line2d_65">
      <path clip-path="url(#p457cde230c)" d="M 133.715662 491.04 
L 133.715662 348.734118 
" style="fill:none;stroke:#cbcbcb;"/>
     </g>
     <g id="line2d_66"/>
     <g id="text_14">
      <!-- 0.005 -->
      <g transform="translate(119.4016 502.138438)scale(0.1 -0.1)">
       <use xlink:href="#DejaVuSans-30"/>
       <use x="63.623047" xlink:href="#DejaVuSans-2e"/>
       <use x="95.410156" xlink:href="#DejaVuSans-30"/>
       <use x="159.033203" xlink:href="#DejaVuSans-30"/>
       <use x="222.65625" xlink:href="#DejaVuSans-35"/>
      </g>
     </g>
    </g>
    <g id="xtick_21">
     <g id="line2d_67">
      <path clip-path="url(#p457cde230c)" d="M 186.342432 491.04 
L 186.342432 348.734118 
" style="fill:none;stroke:#cbcbcb;"/>
     </g>
     <g id="line2d_68"/>
     <g id="text_15">
      <!-- 0.010 -->
      <g transform="translate(172.02837 502.138438)scale(0.1 -0.1)">
       <use xlink:href="#DejaVuSans-30"/>
       <use x="63.623047" xlink:href="#DejaVuSans-2e"/>
       <use x="95.410156" xlink:href="#DejaVuSans-30"/>
       <use x="159.033203" xlink:href="#DejaVuSans-31"/>
       <use x="222.65625" xlink:href="#DejaVuSans-30"/>
      </g>
     </g>
    </g>
    <g id="xtick_22">
     <g id="line2d_69">
      <path clip-path="url(#p457cde230c)" d="M 238.969203 491.04 
L 238.969203 348.734118 
" style="fill:none;stroke:#cbcbcb;"/>
     </g>
     <g id="line2d_70"/>
     <g id="text_16">
      <!-- 0.015 -->
      <g transform="translate(224.65514 502.138438)scale(0.1 -0.1)">
       <use xlink:href="#DejaVuSans-30"/>
       <use x="63.623047" xlink:href="#DejaVuSans-2e"/>
       <use x="95.410156" xlink:href="#DejaVuSans-30"/>
       <use x="159.033203" xlink:href="#DejaVuSans-31"/>
       <use x="222.65625" xlink:href="#DejaVuSans-35"/>
      </g>
     </g>
    </g>
    <g id="xtick_23">
     <g id="line2d_71">
      <path clip-path="url(#p457cde230c)" d="M 291.595973 491.04 
L 291.595973 348.734118 
" style="fill:none;stroke:#cbcbcb;"/>
     </g>
     <g id="line2d_72"/>
     <g id="text_17">
      <!-- 0.020 -->
      <g transform="translate(277.28191 502.138438)scale(0.1 -0.1)">
       <use xlink:href="#DejaVuSans-30"/>
       <use x="63.623047" xlink:href="#DejaVuSans-2e"/>
       <use x="95.410156" xlink:href="#DejaVuSans-30"/>
       <use x="159.033203" xlink:href="#DejaVuSans-32"/>
       <use x="222.65625" xlink:href="#DejaVuSans-30"/>
      </g>
     </g>
    </g>
    <g id="xtick_24">
     <g id="line2d_73">
      <path clip-path="url(#p457cde230c)" d="M 344.222743 491.04 
L 344.222743 348.734118 
" style="fill:none;stroke:#cbcbcb;"/>
     </g>
     <g id="line2d_74"/>
     <g id="text_18">
      <!-- 0.025 -->
      <g transform="translate(329.908681 502.138438)scale(0.1 -0.1)">
       <use xlink:href="#DejaVuSans-30"/>
       <use x="63.623047" xlink:href="#DejaVuSans-2e"/>
       <use x="95.410156" xlink:href="#DejaVuSans-30"/>
       <use x="159.033203" xlink:href="#DejaVuSans-32"/>
       <use x="222.65625" xlink:href="#DejaVuSans-35"/>
      </g>
     </g>
    </g>
    <g id="xtick_25">
     <g id="line2d_75">
      <path clip-path="url(#p457cde230c)" d="M 396.849513 491.04 
L 396.849513 348.734118 
" style="fill:none;stroke:#cbcbcb;"/>
     </g>
     <g id="line2d_76"/>
     <g id="text_19">
      <!-- 0.030 -->
      <defs>
       <path d="M 40.578125 39.3125 
Q 47.65625 37.796875 51.625 33 
Q 55.609375 28.21875 55.609375 21.1875 
Q 55.609375 10.40625 48.1875 4.484375 
Q 40.765625 -1.421875 27.09375 -1.421875 
Q 22.515625 -1.421875 17.65625 -0.515625 
Q 12.796875 0.390625 7.625 2.203125 
L 7.625 11.71875 
Q 11.71875 9.328125 16.59375 8.109375 
Q 21.484375 6.890625 26.8125 6.890625 
Q 36.078125 6.890625 40.9375 10.546875 
Q 45.796875 14.203125 45.796875 21.1875 
Q 45.796875 27.640625 41.28125 31.265625 
Q 36.765625 34.90625 28.71875 34.90625 
L 20.21875 34.90625 
L 20.21875 43.015625 
L 29.109375 43.015625 
Q 36.375 43.015625 40.234375 45.921875 
Q 44.09375 48.828125 44.09375 54.296875 
Q 44.09375 59.90625 40.109375 62.90625 
Q 36.140625 65.921875 28.71875 65.921875 
Q 24.65625 65.921875 20.015625 65.03125 
Q 15.375 64.15625 9.8125 62.3125 
L 9.8125 71.09375 
Q 15.4375 72.65625 20.34375 73.4375 
Q 25.25 74.21875 29.59375 74.21875 
Q 40.828125 74.21875 47.359375 69.109375 
Q 53.90625 64.015625 53.90625 55.328125 
Q 53.90625 49.265625 50.4375 45.09375 
Q 46.96875 40.921875 40.578125 39.3125 
z
" id="DejaVuSans-33"/>
      </defs>
      <g transform="translate(382.535451 502.138438)scale(0.1 -0.1)">
       <use xlink:href="#DejaVuSans-30"/>
       <use x="63.623047" xlink:href="#DejaVuSans-2e"/>
       <use x="95.410156" xlink:href="#DejaVuSans-30"/>
       <use x="159.033203" xlink:href="#DejaVuSans-33"/>
       <use x="222.65625" xlink:href="#DejaVuSans-30"/>
      </g>
     </g>
    </g>
    <g id="xtick_26">
     <g id="line2d_77">
      <path clip-path="url(#p457cde230c)" d="M 449.476284 491.04 
L 449.476284 348.734118 
" style="fill:none;stroke:#cbcbcb;"/>
     </g>
     <g id="line2d_78"/>
     <g id="text_20">
      <!-- 0.035 -->
      <g transform="translate(435.162221 502.138438)scale(0.1 -0.1)">
       <use xlink:href="#DejaVuSans-30"/>
       <use x="63.623047" xlink:href="#DejaVuSans-2e"/>
       <use x="95.410156" xlink:href="#DejaVuSans-30"/>
       <use x="159.033203" xlink:href="#DejaVuSans-33"/>
       <use x="222.65625" xlink:href="#DejaVuSans-35"/>
      </g>
     </g>
    </g>
    <g id="xtick_27">
     <g id="line2d_79">
      <path clip-path="url(#p457cde230c)" d="M 502.103054 491.04 
L 502.103054 348.734118 
" style="fill:none;stroke:#cbcbcb;"/>
     </g>
     <g id="line2d_80"/>
     <g id="text_21">
      <!-- 0.040 -->
      <g transform="translate(487.788991 502.138438)scale(0.1 -0.1)">
       <use xlink:href="#DejaVuSans-30"/>
       <use x="63.623047" xlink:href="#DejaVuSans-2e"/>
       <use x="95.410156" xlink:href="#DejaVuSans-30"/>
       <use x="159.033203" xlink:href="#DejaVuSans-34"/>
       <use x="222.65625" xlink:href="#DejaVuSans-30"/>
      </g>
     </g>
    </g>
    <g id="text_22">
     <!-- Time (s) -->
     <defs>
      <path d="M -0.296875 72.90625 
L 61.375 72.90625 
L 61.375 64.59375 
L 35.5 64.59375 
L 35.5 0 
L 25.59375 0 
L 25.59375 64.59375 
L -0.296875 64.59375 
z
" id="DejaVuSans-54"/>
      <path d="M 9.421875 54.6875 
L 18.40625 54.6875 
L 18.40625 0 
L 9.421875 0 
z
M 9.421875 75.984375 
L 18.40625 75.984375 
L 18.40625 64.59375 
L 9.421875 64.59375 
z
" id="DejaVuSans-69"/>
      <path d="M 52 44.1875 
Q 55.375 50.25 60.0625 53.125 
Q 64.75 56 71.09375 56 
Q 79.640625 56 84.28125 50.015625 
Q 88.921875 44.046875 88.921875 33.015625 
L 88.921875 0 
L 79.890625 0 
L 79.890625 32.71875 
Q 79.890625 40.578125 77.09375 44.375 
Q 74.3125 48.1875 68.609375 48.1875 
Q 61.625 48.1875 57.5625 43.546875 
Q 53.515625 38.921875 53.515625 30.90625 
L 53.515625 0 
L 44.484375 0 
L 44.484375 32.71875 
Q 44.484375 40.625 41.703125 44.40625 
Q 38.921875 48.1875 33.109375 48.1875 
Q 26.21875 48.1875 22.15625 43.53125 
Q 18.109375 38.875 18.109375 30.90625 
L 18.109375 0 
L 9.078125 0 
L 9.078125 54.6875 
L 18.109375 54.6875 
L 18.109375 46.1875 
Q 21.1875 51.21875 25.484375 53.609375 
Q 29.78125 56 35.6875 56 
Q 41.65625 56 45.828125 52.96875 
Q 50 49.953125 52 44.1875 
z
" id="DejaVuSans-6d"/>
     </defs>
     <g transform="translate(265.964062 517.33625)scale(0.12 -0.12)">
      <use xlink:href="#DejaVuSans-54"/>
      <use x="61.037109" xlink:href="#DejaVuSans-69"/>
      <use x="88.820312" xlink:href="#DejaVuSans-6d"/>
      <use x="186.232422" xlink:href="#DejaVuSans-65"/>
      <use x="247.755859" xlink:href="#DejaVuSans-20"/>
      <use x="279.542969" xlink:href="#DejaVuSans-28"/>
      <use x="318.556641" xlink:href="#DejaVuSans-73"/>
      <use x="370.65625" xlink:href="#DejaVuSans-29"/>
     </g>
    </g>
   </g>
   <g id="matplotlib.axis_6">
    <g id="ytick_11">
     <g id="line2d_81">
      <path clip-path="url(#p457cde230c)" d="M 60.143438 485.305124 
L 520.943437 485.305124 
" style="fill:none;stroke:#cbcbcb;"/>
     </g>
     <g id="line2d_82"/>
     <g id="text_23">
      <!-- 100 -->
      <g transform="translate(37.555937 489.104343)scale(0.1 -0.1)">
       <use xlink:href="#DejaVuSans-31"/>
       <use x="63.623047" xlink:href="#DejaVuSans-30"/>
       <use x="127.246094" xlink:href="#DejaVuSans-30"/>
      </g>
     </g>
    </g>
    <g id="ytick_12">
     <g id="line2d_83">
      <path clip-path="url(#p457cde230c)" d="M 60.143438 459.284615 
L 520.943437 459.284615 
" style="fill:none;stroke:#cbcbcb;"/>
     </g>
     <g id="line2d_84"/>
     <g id="text_24">
      <!-- 200 -->
      <g transform="translate(37.555937 463.083834)scale(0.1 -0.1)">
       <use xlink:href="#DejaVuSans-32"/>
       <use x="63.623047" xlink:href="#DejaVuSans-30"/>
       <use x="127.246094" xlink:href="#DejaVuSans-30"/>
      </g>
     </g>
    </g>
    <g id="ytick_13">
     <g id="line2d_85">
      <path clip-path="url(#p457cde230c)" d="M 60.143438 433.264107 
L 520.943437 433.264107 
" style="fill:none;stroke:#cbcbcb;"/>
     </g>
     <g id="line2d_86"/>
     <g id="text_25">
      <!-- 300 -->
      <g transform="translate(37.555937 437.063325)scale(0.1 -0.1)">
       <use xlink:href="#DejaVuSans-33"/>
       <use x="63.623047" xlink:href="#DejaVuSans-30"/>
       <use x="127.246094" xlink:href="#DejaVuSans-30"/>
      </g>
     </g>
    </g>
    <g id="ytick_14">
     <g id="line2d_87">
      <path clip-path="url(#p457cde230c)" d="M 60.143438 407.243598 
L 520.943437 407.243598 
" style="fill:none;stroke:#cbcbcb;"/>
     </g>
     <g id="line2d_88"/>
     <g id="text_26">
      <!-- 400 -->
      <g transform="translate(37.555937 411.042817)scale(0.1 -0.1)">
       <use xlink:href="#DejaVuSans-34"/>
       <use x="63.623047" xlink:href="#DejaVuSans-30"/>
       <use x="127.246094" xlink:href="#DejaVuSans-30"/>
      </g>
     </g>
    </g>
    <g id="ytick_15">
     <g id="line2d_89">
      <path clip-path="url(#p457cde230c)" d="M 60.143438 381.223089 
L 520.943437 381.223089 
" style="fill:none;stroke:#cbcbcb;"/>
     </g>
     <g id="line2d_90"/>
     <g id="text_27">
      <!-- 500 -->
      <g transform="translate(37.555937 385.022308)scale(0.1 -0.1)">
       <use xlink:href="#DejaVuSans-35"/>
       <use x="63.623047" xlink:href="#DejaVuSans-30"/>
       <use x="127.246094" xlink:href="#DejaVuSans-30"/>
      </g>
     </g>
    </g>
    <g id="ytick_16">
     <g id="line2d_91">
      <path clip-path="url(#p457cde230c)" d="M 60.143438 355.20258 
L 520.943437 355.20258 
" style="fill:none;stroke:#cbcbcb;"/>
     </g>
     <g id="line2d_92"/>
     <g id="text_28">
      <!-- 600 -->
      <defs>
       <path d="M 33.015625 40.375 
Q 26.375 40.375 22.484375 35.828125 
Q 18.609375 31.296875 18.609375 23.390625 
Q 18.609375 15.53125 22.484375 10.953125 
Q 26.375 6.390625 33.015625 6.390625 
Q 39.65625 6.390625 43.53125 10.953125 
Q 47.40625 15.53125 47.40625 23.390625 
Q 47.40625 31.296875 43.53125 35.828125 
Q 39.65625 40.375 33.015625 40.375 
z
M 52.59375 71.296875 
L 52.59375 62.3125 
Q 48.875 64.0625 45.09375 64.984375 
Q 41.3125 65.921875 37.59375 65.921875 
Q 27.828125 65.921875 22.671875 59.328125 
Q 17.53125 52.734375 16.796875 39.40625 
Q 19.671875 43.65625 24.015625 45.921875 
Q 28.375 48.1875 33.59375 48.1875 
Q 44.578125 48.1875 50.953125 41.515625 
Q 57.328125 34.859375 57.328125 23.390625 
Q 57.328125 12.15625 50.6875 5.359375 
Q 44.046875 -1.421875 33.015625 -1.421875 
Q 20.359375 -1.421875 13.671875 8.265625 
Q 6.984375 17.96875 6.984375 36.375 
Q 6.984375 53.65625 15.1875 63.9375 
Q 23.390625 74.21875 37.203125 74.21875 
Q 40.921875 74.21875 44.703125 73.484375 
Q 48.484375 72.75 52.59375 71.296875 
z
" id="DejaVuSans-36"/>
      </defs>
      <g transform="translate(37.555937 359.001799)scale(0.1 -0.1)">
       <use xlink:href="#DejaVuSans-36"/>
       <use x="63.623047" xlink:href="#DejaVuSans-30"/>
       <use x="127.246094" xlink:href="#DejaVuSans-30"/>
      </g>
     </g>
    </g>
    <g id="text_29">
     <!-- Powers (kVA) -->
     <defs>
      <path d="M 19.671875 64.796875 
L 19.671875 37.40625 
L 32.078125 37.40625 
Q 38.96875 37.40625 42.71875 40.96875 
Q 46.484375 44.53125 46.484375 51.125 
Q 46.484375 57.671875 42.71875 61.234375 
Q 38.96875 64.796875 32.078125 64.796875 
z
M 9.8125 72.90625 
L 32.078125 72.90625 
Q 44.34375 72.90625 50.609375 67.359375 
Q 56.890625 61.8125 56.890625 51.125 
Q 56.890625 40.328125 50.609375 34.8125 
Q 44.34375 29.296875 32.078125 29.296875 
L 19.671875 29.296875 
L 19.671875 0 
L 9.8125 0 
z
" id="DejaVuSans-50"/>
      <path d="M 4.203125 54.6875 
L 13.1875 54.6875 
L 24.421875 12.015625 
L 35.59375 54.6875 
L 46.1875 54.6875 
L 57.421875 12.015625 
L 68.609375 54.6875 
L 77.59375 54.6875 
L 63.28125 0 
L 52.6875 0 
L 40.921875 44.828125 
L 29.109375 0 
L 18.5 0 
z
" id="DejaVuSans-77"/>
      <path d="M 9.078125 75.984375 
L 18.109375 75.984375 
L 18.109375 31.109375 
L 44.921875 54.6875 
L 56.390625 54.6875 
L 27.390625 29.109375 
L 57.625 0 
L 45.90625 0 
L 18.109375 26.703125 
L 18.109375 0 
L 9.078125 0 
z
" id="DejaVuSans-6b"/>
     </defs>
     <g transform="translate(31.060312 459.630496)rotate(-90)scale(0.12 -0.12)">
      <use xlink:href="#DejaVuSans-50"/>
      <use x="60.255859" xlink:href="#DejaVuSans-6f"/>
      <use x="121.4375" xlink:href="#DejaVuSans-77"/>
      <use x="203.224609" xlink:href="#DejaVuSans-65"/>
      <use x="264.748047" xlink:href="#DejaVuSans-72"/>
      <use x="305.861328" xlink:href="#DejaVuSans-73"/>
      <use x="357.960938" xlink:href="#DejaVuSans-20"/>
      <use x="389.748047" xlink:href="#DejaVuSans-28"/>
      <use x="428.761719" xlink:href="#DejaVuSans-6b"/>
      <use x="486.671875" xlink:href="#DejaVuSans-56"/>
      <use x="554.986328" xlink:href="#DejaVuSans-41"/>
      <use x="623.394531" xlink:href="#DejaVuSans-29"/>
     </g>
    </g>
   </g>
   <g id="line2d_93">
    <path clip-path="url(#p457cde230c)" d="M 81.088892 355.202593 
L 499.997983 355.20259 
L 499.997983 355.20259 
" style="fill:none;stroke:#fc4f30;stroke-width:4;"/>
   </g>
   <g id="line2d_94">
    <path clip-path="url(#p457cde230c)" d="M 81.088892 460.189904 
L 83.193963 463.421699 
L 85.299034 466.578123 
L 89.509175 472.467717 
L 91.614246 475.108004 
L 93.719317 477.48862 
L 95.824388 479.572022 
L 97.929459 481.325352 
L 100.034529 482.720961 
L 102.1396 483.736837 
L 104.244671 484.35696 
L 106.349742 484.571551 
L 108.454813 484.377225 
L 110.559883 483.777046 
L 112.664954 482.780481 
L 114.770025 481.403245 
L 116.875096 479.667059 
L 118.980167 477.599302 
L 121.085237 475.232585 
L 123.190308 472.604233 
L 127.40045 466.731895 
L 133.715662 457.095072 
L 137.925804 450.706853 
L 142.135945 444.817259 
L 144.241016 442.176972 
L 146.346087 439.796356 
L 148.451158 437.712954 
L 150.556229 435.959623 
L 152.6613 434.564015 
L 154.76637 433.548139 
L 156.871441 432.928016 
L 158.976512 432.713425 
L 161.081583 432.907751 
L 163.186654 433.507929 
L 165.291724 434.504495 
L 167.396795 435.881731 
L 169.501866 437.617917 
L 171.606937 439.685674 
L 173.712008 442.052391 
L 175.817078 444.680743 
L 180.02722 450.553081 
L 186.342432 460.189904 
L 190.552574 466.578123 
L 194.762716 472.467717 
L 196.867787 475.108004 
L 198.972857 477.48862 
L 201.077928 479.572022 
L 203.182999 481.325352 
L 205.28807 482.720961 
L 207.393141 483.736837 
L 209.498211 484.35696 
L 211.603282 484.571551 
L 213.708353 484.377225 
L 215.813424 483.777046 
L 217.918495 482.780481 
L 220.023565 481.403245 
L 222.128636 479.667059 
L 224.233707 477.599302 
L 226.338778 475.232585 
L 228.443849 472.604233 
L 232.65399 466.731895 
L 238.969203 457.095072 
L 243.179344 450.706853 
L 247.389486 444.817259 
L 249.494557 442.176972 
L 251.599628 439.796356 
L 253.704698 437.712954 
L 255.809769 435.959623 
L 257.91484 434.564015 
L 260.019911 433.548139 
L 262.124982 432.928016 
L 264.230052 432.713425 
L 266.335123 432.907751 
L 268.440194 433.507929 
L 270.545265 434.504495 
L 272.650336 435.881731 
L 274.755406 437.617917 
L 276.860477 439.685674 
L 278.965548 442.052391 
L 281.070619 444.680743 
L 285.28076 450.553081 
L 291.595973 460.189904 
L 295.806115 466.578123 
L 300.016256 472.467717 
L 302.121327 475.108004 
L 304.226398 477.48862 
L 306.331469 479.572022 
L 308.436539 481.325352 
L 310.54161 482.720961 
L 312.646681 483.736837 
L 314.751752 484.35696 
L 316.856823 484.571551 
L 318.961893 484.377225 
L 321.066964 483.777046 
L 323.172035 482.780481 
L 325.277106 481.403245 
L 327.382177 479.667059 
L 329.487247 477.599302 
L 331.592318 475.232585 
L 333.697389 472.604233 
L 337.907531 466.731895 
L 344.222743 457.095072 
L 348.432885 450.706853 
L 352.643026 444.817259 
L 354.748097 442.176972 
L 356.853168 439.796356 
L 358.958239 437.712954 
L 361.06331 435.959623 
L 363.16838 434.564015 
L 365.273451 433.548139 
L 367.378522 432.928016 
L 369.483593 432.713425 
L 371.588664 432.907751 
L 373.693734 433.507929 
L 375.798805 434.504495 
L 377.903876 435.881731 
L 380.008947 437.617917 
L 382.114018 439.685674 
L 384.219088 442.052391 
L 386.324159 444.680743 
L 390.534301 450.553081 
L 396.849513 460.189904 
L 401.059655 466.578123 
L 405.269797 472.467717 
L 407.374867 475.108004 
L 409.479938 477.48862 
L 411.585009 479.572022 
L 413.69008 481.325352 
L 415.795151 482.720961 
L 417.900221 483.736837 
L 420.005292 484.35696 
L 422.110363 484.571551 
L 424.215434 484.377225 
L 426.320505 483.777046 
L 428.425575 482.780481 
L 430.530646 481.403245 
L 432.635717 479.667059 
L 434.740788 477.599302 
L 436.845859 475.232585 
L 438.95093 472.604233 
L 443.161071 466.731895 
L 449.476284 457.095072 
L 453.686425 450.706853 
L 457.896567 444.817259 
L 460.001638 442.176972 
L 462.106708 439.796356 
L 464.211779 437.712954 
L 466.31685 435.959623 
L 468.421921 434.564015 
L 470.526992 433.548139 
L 472.632062 432.928016 
L 474.737133 432.713425 
L 476.842204 432.907751 
L 478.947275 433.507929 
L 481.052346 434.504495 
L 483.157416 435.881731 
L 485.262487 437.617917 
L 487.367558 439.685674 
L 489.472629 442.052391 
L 491.5777 444.680743 
L 495.787841 450.553081 
L 499.997983 456.933705 
L 499.997983 456.933705 
" style="fill:none;stroke:#5cb85c;stroke-width:4;"/>
   </g>
   <g id="line2d_95">
    <path clip-path="url(#p457cde230c)" d="M 81.088892 459.284467 
L 499.997983 459.284467 
L 499.997983 459.284467 
" style="fill:none;stroke:#30a2da;stroke-width:4;"/>
   </g>
   <g id="patch_13">
    <path d="M 60.143438 491.04 
L 60.143438 348.734118 
" style="fill:none;stroke:#ffffff;stroke-linecap:square;stroke-linejoin:miter;stroke-width:3;"/>
   </g>
   <g id="patch_14">
    <path d="M 520.943437 491.04 
L 520.943437 348.734118 
" style="fill:none;stroke:#ffffff;stroke-linecap:square;stroke-linejoin:miter;stroke-width:3;"/>
   </g>
   <g id="patch_15">
    <path d="M 60.143438 491.04 
L 520.943437 491.04 
" style="fill:none;stroke:#ffffff;stroke-linecap:square;stroke-linejoin:miter;stroke-width:3;"/>
   </g>
   <g id="patch_16">
    <path d="M 60.143438 348.734118 
L 520.943437 348.734118 
" style="fill:none;stroke:#ffffff;stroke-linecap:square;stroke-linejoin:miter;stroke-width:3;"/>
   </g>
   <g id="legend_1">
    <g id="patch_17">
     <path d="M 67.143438 443.404246 
L 108.240313 443.404246 
Q 110.240313 443.404246 110.240313 441.404246 
L 110.240313 398.369871 
Q 110.240313 396.369871 108.240313 396.369871 
L 67.143438 396.369871 
Q 65.143438 396.369871 65.143438 398.369871 
L 65.143438 441.404246 
Q 65.143438 443.404246 67.143438 443.404246 
z
" style="fill:#ffffff;opacity:0.8;stroke:#cccccc;stroke-linejoin:miter;stroke-width:0.5;"/>
    </g>
    <g id="line2d_96">
     <path d="M 69.143438 404.468309 
L 89.143438 404.468309 
" style="fill:none;stroke:#fc4f30;stroke-width:4;"/>
    </g>
    <g id="line2d_97"/>
    <g id="text_30">
     <!-- p -->
     <defs>
      <path d="M 18.109375 8.203125 
L 18.109375 -20.796875 
L 9.078125 -20.796875 
L 9.078125 54.6875 
L 18.109375 54.6875 
L 18.109375 46.390625 
Q 20.953125 51.265625 25.265625 53.625 
Q 29.59375 56 35.59375 56 
Q 45.5625 56 51.78125 48.09375 
Q 58.015625 40.1875 58.015625 27.296875 
Q 58.015625 14.40625 51.78125 6.484375 
Q 45.5625 -1.421875 35.59375 -1.421875 
Q 29.59375 -1.421875 25.265625 0.953125 
Q 20.953125 3.328125 18.109375 8.203125 
z
M 48.6875 27.296875 
Q 48.6875 37.203125 44.609375 42.84375 
Q 40.53125 48.484375 33.40625 48.484375 
Q 26.265625 48.484375 22.1875 42.84375 
Q 18.109375 37.203125 18.109375 27.296875 
Q 18.109375 17.390625 22.1875 11.75 
Q 26.265625 6.109375 33.40625 6.109375 
Q 40.53125 6.109375 44.609375 11.75 
Q 48.6875 17.390625 48.6875 27.296875 
z
" id="DejaVuSans-70"/>
     </defs>
     <g transform="translate(97.143438 407.968309)scale(0.1 -0.1)">
      <use xlink:href="#DejaVuSans-70"/>
     </g>
    </g>
    <g id="line2d_98">
     <path d="M 69.143438 419.146434 
L 89.143438 419.146434 
" style="fill:none;stroke:#5cb85c;stroke-width:4;"/>
    </g>
    <g id="line2d_99"/>
    <g id="text_31">
     <!-- q -->
     <defs>
      <path d="M 14.796875 27.296875 
Q 14.796875 17.390625 18.875 11.75 
Q 22.953125 6.109375 30.078125 6.109375 
Q 37.203125 6.109375 41.296875 11.75 
Q 45.40625 17.390625 45.40625 27.296875 
Q 45.40625 37.203125 41.296875 42.84375 
Q 37.203125 48.484375 30.078125 48.484375 
Q 22.953125 48.484375 18.875 42.84375 
Q 14.796875 37.203125 14.796875 27.296875 
z
M 45.40625 8.203125 
Q 42.578125 3.328125 38.25 0.953125 
Q 33.9375 -1.421875 27.875 -1.421875 
Q 17.96875 -1.421875 11.734375 6.484375 
Q 5.515625 14.40625 5.515625 27.296875 
Q 5.515625 40.1875 11.734375 48.09375 
Q 17.96875 56 27.875 56 
Q 33.9375 56 38.25 53.625 
Q 42.578125 51.265625 45.40625 46.390625 
L 45.40625 54.6875 
L 54.390625 54.6875 
L 54.390625 -20.796875 
L 45.40625 -20.796875 
z
" id="DejaVuSans-71"/>
     </defs>
     <g transform="translate(97.143438 422.646434)scale(0.1 -0.1)">
      <use xlink:href="#DejaVuSans-71"/>
     </g>
    </g>
    <g id="line2d_100">
     <path d="M 69.143438 433.824559 
L 89.143438 433.824559 
" style="fill:none;stroke:#30a2da;stroke-width:4;"/>
    </g>
    <g id="line2d_101"/>
    <g id="text_32">
     <!-- q' -->
     <defs>
      <path d="M 17.921875 72.90625 
L 17.921875 45.796875 
L 9.625 45.796875 
L 9.625 72.90625 
z
" id="DejaVuSans-27"/>
     </defs>
     <g transform="translate(97.143438 437.324559)scale(0.1 -0.1)">
      <use xlink:href="#DejaVuSans-71"/>
      <use x="63.476562" xlink:href="#DejaVuSans-27"/>
     </g>
    </g>
   </g>
  </g>
 </g>
 <defs>
  <clipPath id="p854ce98c06">
   <rect height="142.305882" width="460.8" x="60.143438" y="7.2"/>
  </clipPath>
  <clipPath id="p1082b84325">
   <rect height="142.305882" width="460.8" x="60.143438" y="177.967059"/>
  </clipPath>
  <clipPath id="p457cde230c">
   <rect height="142.305882" width="460.8" x="60.143438" y="348.734118"/>
  </clipPath>
 </defs>
</svg>
