<?xml version="1.0" encoding="utf-8" standalone="no"?>
<!DOCTYPE svg PUBLIC "-//W3C//DTD SVG 1.1//EN"
  "http://www.w3.org/Graphics/SVG/1.1/DTD/svg11.dtd">
<!-- Created with matplotlib (http://matplotlib.org/) -->
<svg height="544pt" version="1.1" viewBox="0 0 592 544" width="592pt" xmlns="http://www.w3.org/2000/svg" xmlns:xlink="http://www.w3.org/1999/xlink">
 <defs>
  <style type="text/css">
*{stroke-linecap:butt;stroke-linejoin:round;stroke-miterlimit:100000;}
  </style>
 </defs>
 <g id="figure_1">
  <g id="patch_1">
   <path d="M 0 544.357125 
L 592.510875 544.357125 
L 592.510875 0 
L 0 0 
z
" style="fill:none;opacity:0;"/>
  </g>
  <g id="axes_1">
   <g id="patch_2">
    <path d="M 59.275875 235.55233 
L 577.675875 235.55233 
L 577.675875 13.006875 
L 59.275875 13.006875 
z
" style="fill:#ffffff;"/>
   </g>
   <g id="matplotlib.axis_1">
    <g id="xtick_1">
     <g id="line2d_1">
      <path clip-path="url(#pa26581d88c)" d="M 59.275875 235.55233 
L 59.275875 13.006875 
" style="fill:none;stroke:#cbcbcb;"/>
     </g>
     <g id="line2d_2"/>
     <g id="line2d_3"/>
    </g>
    <g id="xtick_2">
     <g id="line2d_4">
      <path clip-path="url(#pa26581d88c)" d="M 162.955875 235.55233 
L 162.955875 13.006875 
" style="fill:none;stroke:#cbcbcb;"/>
     </g>
     <g id="line2d_5"/>
     <g id="line2d_6"/>
    </g>
    <g id="xtick_3">
     <g id="line2d_7">
      <path clip-path="url(#pa26581d88c)" d="M 266.635875 235.55233 
L 266.635875 13.006875 
" style="fill:none;stroke:#cbcbcb;"/>
     </g>
     <g id="line2d_8"/>
     <g id="line2d_9"/>
    </g>
    <g id="xtick_4">
     <g id="line2d_10">
      <path clip-path="url(#pa26581d88c)" d="M 370.315875 235.55233 
L 370.315875 13.006875 
" style="fill:none;stroke:#cbcbcb;"/>
     </g>
     <g id="line2d_11"/>
     <g id="line2d_12"/>
    </g>
    <g id="xtick_5">
     <g id="line2d_13">
      <path clip-path="url(#pa26581d88c)" d="M 473.995875 235.55233 
L 473.995875 13.006875 
" style="fill:none;stroke:#cbcbcb;"/>
     </g>
     <g id="line2d_14"/>
     <g id="line2d_15"/>
    </g>
    <g id="xtick_6">
     <g id="line2d_16">
      <path clip-path="url(#pa26581d88c)" d="M 577.675875 235.55233 
L 577.675875 13.006875 
" style="fill:none;stroke:#cbcbcb;"/>
     </g>
     <g id="line2d_17"/>
     <g id="line2d_18"/>
    </g>
   </g>
   <g id="matplotlib.axis_2">
    <g id="ytick_1">
     <g id="line2d_19">
      <path clip-path="url(#pa26581d88c)" d="M 59.275875 235.55233 
L 577.675875 235.55233 
" style="fill:none;stroke:#cbcbcb;"/>
     </g>
     <g id="line2d_20"/>
     <g id="line2d_21"/>
     <g id="text_1">
      <!-- −2.5 -->
      <defs>
       <path d="M 19.1875 8.296875 
L 53.609375 8.296875 
L 53.609375 0 
L 7.328125 0 
L 7.328125 8.296875 
Q 12.9375 14.109375 22.625 23.890625 
Q 32.328125 33.6875 34.8125 36.53125 
Q 39.546875 41.84375 41.421875 45.53125 
Q 43.3125 49.21875 43.3125 52.78125 
Q 43.3125 58.59375 39.234375 62.25 
Q 35.15625 65.921875 28.609375 65.921875 
Q 23.96875 65.921875 18.8125 64.3125 
Q 13.671875 62.703125 7.8125 59.421875 
L 7.8125 69.390625 
Q 13.765625 71.78125 18.9375 73 
Q 24.125 74.21875 28.421875 74.21875 
Q 39.75 74.21875 46.484375 68.546875 
Q 53.21875 62.890625 53.21875 53.421875 
Q 53.21875 48.921875 51.53125 44.890625 
Q 49.859375 40.875 45.40625 35.40625 
Q 44.1875 33.984375 37.640625 27.21875 
Q 31.109375 20.453125 19.1875 8.296875 
" id="BitstreamVeraSans-Roman-32"/>
       <path d="M 10.796875 72.90625 
L 49.515625 72.90625 
L 49.515625 64.59375 
L 19.828125 64.59375 
L 19.828125 46.734375 
Q 21.96875 47.46875 24.109375 47.828125 
Q 26.265625 48.1875 28.421875 48.1875 
Q 40.625 48.1875 47.75 41.5 
Q 54.890625 34.8125 54.890625 23.390625 
Q 54.890625 11.625 47.5625 5.09375 
Q 40.234375 -1.421875 26.90625 -1.421875 
Q 22.3125 -1.421875 17.546875 -0.640625 
Q 12.796875 0.140625 7.71875 1.703125 
L 7.71875 11.625 
Q 12.109375 9.234375 16.796875 8.0625 
Q 21.484375 6.890625 26.703125 6.890625 
Q 35.15625 6.890625 40.078125 11.328125 
Q 45.015625 15.765625 45.015625 23.390625 
Q 45.015625 31 40.078125 35.4375 
Q 35.15625 39.890625 26.703125 39.890625 
Q 22.75 39.890625 18.8125 39.015625 
Q 14.890625 38.140625 10.796875 36.28125 
z
" id="BitstreamVeraSans-Roman-35"/>
       <path d="M 10.59375 35.5 
L 73.1875 35.5 
L 73.1875 27.203125 
L 10.59375 27.203125 
z
" id="BitstreamVeraSans-Roman-2212"/>
       <path d="M 10.6875 12.40625 
L 21 12.40625 
L 21 0 
L 10.6875 0 
z
" id="BitstreamVeraSans-Roman-2e"/>
      </defs>
      <g transform="translate(26.1365 238.863579545)scale(0.12 -0.12)">
       <use xlink:href="#BitstreamVeraSans-Roman-2212"/>
       <use x="83.7890625" xlink:href="#BitstreamVeraSans-Roman-32"/>
       <use x="147.412109375" xlink:href="#BitstreamVeraSans-Roman-2e"/>
       <use x="179.19921875" xlink:href="#BitstreamVeraSans-Roman-35"/>
      </g>
     </g>
    </g>
    <g id="ytick_2">
     <g id="line2d_22">
      <path clip-path="url(#pa26581d88c)" d="M 59.275875 198.46142 
L 577.675875 198.46142 
" style="fill:none;stroke:#cbcbcb;"/>
     </g>
     <g id="line2d_23"/>
     <g id="line2d_24"/>
     <g id="text_2">
      <!-- −2.0 -->
      <defs>
       <path d="M 31.78125 66.40625 
Q 24.171875 66.40625 20.328125 58.90625 
Q 16.5 51.421875 16.5 36.375 
Q 16.5 21.390625 20.328125 13.890625 
Q 24.171875 6.390625 31.78125 6.390625 
Q 39.453125 6.390625 43.28125 13.890625 
Q 47.125 21.390625 47.125 36.375 
Q 47.125 51.421875 43.28125 58.90625 
Q 39.453125 66.40625 31.78125 66.40625 
M 31.78125 74.21875 
Q 44.046875 74.21875 50.515625 64.515625 
Q 56.984375 54.828125 56.984375 36.375 
Q 56.984375 17.96875 50.515625 8.265625 
Q 44.046875 -1.421875 31.78125 -1.421875 
Q 19.53125 -1.421875 13.0625 8.265625 
Q 6.59375 17.96875 6.59375 36.375 
Q 6.59375 54.828125 13.0625 64.515625 
Q 19.53125 74.21875 31.78125 74.21875 
" id="BitstreamVeraSans-Roman-30"/>
      </defs>
      <g transform="translate(26.1365 201.772670455)scale(0.12 -0.12)">
       <use xlink:href="#BitstreamVeraSans-Roman-2212"/>
       <use x="83.7890625" xlink:href="#BitstreamVeraSans-Roman-32"/>
       <use x="147.412109375" xlink:href="#BitstreamVeraSans-Roman-2e"/>
       <use x="179.19921875" xlink:href="#BitstreamVeraSans-Roman-30"/>
      </g>
     </g>
    </g>
    <g id="ytick_3">
     <g id="line2d_25">
      <path clip-path="url(#pa26581d88c)" d="M 59.275875 161.370511 
L 577.675875 161.370511 
" style="fill:none;stroke:#cbcbcb;"/>
     </g>
     <g id="line2d_26"/>
     <g id="line2d_27"/>
     <g id="text_3">
      <!-- −1.5 -->
      <defs>
       <path d="M 12.40625 8.296875 
L 28.515625 8.296875 
L 28.515625 63.921875 
L 10.984375 60.40625 
L 10.984375 69.390625 
L 28.421875 72.90625 
L 38.28125 72.90625 
L 38.28125 8.296875 
L 54.390625 8.296875 
L 54.390625 0 
L 12.40625 0 
z
" id="BitstreamVeraSans-Roman-31"/>
      </defs>
      <g transform="translate(26.1365 164.681761364)scale(0.12 -0.12)">
       <use xlink:href="#BitstreamVeraSans-Roman-2212"/>
       <use x="83.7890625" xlink:href="#BitstreamVeraSans-Roman-31"/>
       <use x="147.412109375" xlink:href="#BitstreamVeraSans-Roman-2e"/>
       <use x="179.19921875" xlink:href="#BitstreamVeraSans-Roman-35"/>
      </g>
     </g>
    </g>
    <g id="ytick_4">
     <g id="line2d_28">
      <path clip-path="url(#pa26581d88c)" d="M 59.275875 124.279602 
L 577.675875 124.279602 
" style="fill:none;stroke:#cbcbcb;"/>
     </g>
     <g id="line2d_29"/>
     <g id="line2d_30"/>
     <g id="text_4">
      <!-- −1.0 -->
      <g transform="translate(26.1365 127.590852273)scale(0.12 -0.12)">
       <use xlink:href="#BitstreamVeraSans-Roman-2212"/>
       <use x="83.7890625" xlink:href="#BitstreamVeraSans-Roman-31"/>
       <use x="147.412109375" xlink:href="#BitstreamVeraSans-Roman-2e"/>
       <use x="179.19921875" xlink:href="#BitstreamVeraSans-Roman-30"/>
      </g>
     </g>
    </g>
    <g id="ytick_5">
     <g id="line2d_31">
      <path clip-path="url(#pa26581d88c)" d="M 59.275875 87.188693 
L 577.675875 87.188693 
" style="fill:none;stroke:#cbcbcb;"/>
     </g>
     <g id="line2d_32"/>
     <g id="line2d_33"/>
     <g id="text_5">
      <!-- −0.5 -->
      <g transform="translate(26.1365 90.4999431818)scale(0.12 -0.12)">
       <use xlink:href="#BitstreamVeraSans-Roman-2212"/>
       <use x="83.7890625" xlink:href="#BitstreamVeraSans-Roman-30"/>
       <use x="147.412109375" xlink:href="#BitstreamVeraSans-Roman-2e"/>
       <use x="179.19921875" xlink:href="#BitstreamVeraSans-Roman-35"/>
      </g>
     </g>
    </g>
    <g id="ytick_6">
     <g id="line2d_34">
      <path clip-path="url(#pa26581d88c)" d="M 59.275875 50.097784 
L 577.675875 50.097784 
" style="fill:none;stroke:#cbcbcb;"/>
     </g>
     <g id="line2d_35"/>
     <g id="line2d_36"/>
     <g id="text_6">
      <!-- 0.0 -->
      <g transform="translate(36.192125 53.4090340909)scale(0.12 -0.12)">
       <use xlink:href="#BitstreamVeraSans-Roman-30"/>
       <use x="63.623046875" xlink:href="#BitstreamVeraSans-Roman-2e"/>
       <use x="95.41015625" xlink:href="#BitstreamVeraSans-Roman-30"/>
      </g>
     </g>
    </g>
    <g id="ytick_7">
     <g id="line2d_37">
      <path clip-path="url(#pa26581d88c)" d="M 59.275875 13.006875 
L 577.675875 13.006875 
" style="fill:none;stroke:#cbcbcb;"/>
     </g>
     <g id="line2d_38"/>
     <g id="line2d_39"/>
     <g id="text_7">
      <!-- 0.5 -->
      <g transform="translate(36.192125 16.318125)scale(0.12 -0.12)">
       <use xlink:href="#BitstreamVeraSans-Roman-30"/>
       <use x="63.623046875" xlink:href="#BitstreamVeraSans-Roman-2e"/>
       <use x="95.41015625" xlink:href="#BitstreamVeraSans-Roman-35"/>
      </g>
     </g>
    </g>
    <g id="text_8">
     <!-- Stator currents (kA) -->
     <defs>
      <path d="M 9.078125 75.984375 
L 18.109375 75.984375 
L 18.109375 31.109375 
L 44.921875 54.6875 
L 56.390625 54.6875 
L 27.390625 29.109375 
L 57.625 0 
L 45.90625 0 
L 18.109375 26.703125 
L 18.109375 0 
L 9.078125 0 
z
" id="BitstreamVeraSans-Roman-6b"/>
      <path d="M 41.109375 46.296875 
Q 39.59375 47.171875 37.8125 47.578125 
Q 36.03125 48 33.890625 48 
Q 26.265625 48 22.1875 43.046875 
Q 18.109375 38.09375 18.109375 28.8125 
L 18.109375 0 
L 9.078125 0 
L 9.078125 54.6875 
L 18.109375 54.6875 
L 18.109375 46.1875 
Q 20.953125 51.171875 25.484375 53.578125 
Q 30.03125 56 36.53125 56 
Q 37.453125 56 38.578125 55.875 
Q 39.703125 55.765625 41.0625 55.515625 
z
" id="BitstreamVeraSans-Roman-72"/>
      <path d="M 8.015625 75.875 
L 15.828125 75.875 
Q 23.140625 64.359375 26.78125 53.3125 
Q 30.421875 42.28125 30.421875 31.390625 
Q 30.421875 20.453125 26.78125 9.375 
Q 23.140625 -1.703125 15.828125 -13.1875 
L 8.015625 -13.1875 
Q 14.5 -2 17.703125 9.0625 
Q 20.90625 20.125 20.90625 31.390625 
Q 20.90625 42.671875 17.703125 53.65625 
Q 14.5 64.65625 8.015625 75.875 
" id="BitstreamVeraSans-Roman-29"/>
      <path id="BitstreamVeraSans-Roman-20"/>
      <path d="M 56.203125 29.59375 
L 56.203125 25.203125 
L 14.890625 25.203125 
Q 15.484375 15.921875 20.484375 11.0625 
Q 25.484375 6.203125 34.421875 6.203125 
Q 39.59375 6.203125 44.453125 7.46875 
Q 49.3125 8.734375 54.109375 11.28125 
L 54.109375 2.78125 
Q 49.265625 0.734375 44.1875 -0.34375 
Q 39.109375 -1.421875 33.890625 -1.421875 
Q 20.796875 -1.421875 13.15625 6.1875 
Q 5.515625 13.8125 5.515625 26.8125 
Q 5.515625 40.234375 12.765625 48.109375 
Q 20.015625 56 32.328125 56 
Q 43.359375 56 49.78125 48.890625 
Q 56.203125 41.796875 56.203125 29.59375 
M 47.21875 32.234375 
Q 47.125 39.59375 43.09375 43.984375 
Q 39.0625 48.390625 32.421875 48.390625 
Q 24.90625 48.390625 20.390625 44.140625 
Q 15.875 39.890625 15.1875 32.171875 
z
" id="BitstreamVeraSans-Roman-65"/>
      <path d="M 18.3125 70.21875 
L 18.3125 54.6875 
L 36.8125 54.6875 
L 36.8125 47.703125 
L 18.3125 47.703125 
L 18.3125 18.015625 
Q 18.3125 11.328125 20.140625 9.421875 
Q 21.96875 7.515625 27.59375 7.515625 
L 36.8125 7.515625 
L 36.8125 0 
L 27.59375 0 
Q 17.1875 0 13.234375 3.875 
Q 9.28125 7.765625 9.28125 18.015625 
L 9.28125 47.703125 
L 2.6875 47.703125 
L 2.6875 54.6875 
L 9.28125 54.6875 
L 9.28125 70.21875 
z
" id="BitstreamVeraSans-Roman-74"/>
      <path d="M 8.5 21.578125 
L 8.5 54.6875 
L 17.484375 54.6875 
L 17.484375 21.921875 
Q 17.484375 14.15625 20.5 10.265625 
Q 23.53125 6.390625 29.59375 6.390625 
Q 36.859375 6.390625 41.078125 11.03125 
Q 45.3125 15.671875 45.3125 23.6875 
L 45.3125 54.6875 
L 54.296875 54.6875 
L 54.296875 0 
L 45.3125 0 
L 45.3125 8.40625 
Q 42.046875 3.421875 37.71875 1 
Q 33.40625 -1.421875 27.6875 -1.421875 
Q 18.265625 -1.421875 13.375 4.4375 
Q 8.5 10.296875 8.5 21.578125 
" id="BitstreamVeraSans-Roman-75"/>
      <path d="M 34.28125 27.484375 
Q 23.390625 27.484375 19.1875 25 
Q 14.984375 22.515625 14.984375 16.5 
Q 14.984375 11.71875 18.140625 8.90625 
Q 21.296875 6.109375 26.703125 6.109375 
Q 34.1875 6.109375 38.703125 11.40625 
Q 43.21875 16.703125 43.21875 25.484375 
L 43.21875 27.484375 
z
M 52.203125 31.203125 
L 52.203125 0 
L 43.21875 0 
L 43.21875 8.296875 
Q 40.140625 3.328125 35.546875 0.953125 
Q 30.953125 -1.421875 24.3125 -1.421875 
Q 15.921875 -1.421875 10.953125 3.296875 
Q 6 8.015625 6 15.921875 
Q 6 25.140625 12.171875 29.828125 
Q 18.359375 34.515625 30.609375 34.515625 
L 43.21875 34.515625 
L 43.21875 35.40625 
Q 43.21875 41.609375 39.140625 45 
Q 35.0625 48.390625 27.6875 48.390625 
Q 23 48.390625 18.546875 47.265625 
Q 14.109375 46.140625 10.015625 43.890625 
L 10.015625 52.203125 
Q 14.9375 54.109375 19.578125 55.046875 
Q 24.21875 56 28.609375 56 
Q 40.484375 56 46.34375 49.84375 
Q 52.203125 43.703125 52.203125 31.203125 
" id="BitstreamVeraSans-Roman-61"/>
      <path d="M 54.890625 33.015625 
L 54.890625 0 
L 45.90625 0 
L 45.90625 32.71875 
Q 45.90625 40.484375 42.875 44.328125 
Q 39.84375 48.1875 33.796875 48.1875 
Q 26.515625 48.1875 22.3125 43.546875 
Q 18.109375 38.921875 18.109375 30.90625 
L 18.109375 0 
L 9.078125 0 
L 9.078125 54.6875 
L 18.109375 54.6875 
L 18.109375 46.1875 
Q 21.34375 51.125 25.703125 53.5625 
Q 30.078125 56 35.796875 56 
Q 45.21875 56 50.046875 50.171875 
Q 54.890625 44.34375 54.890625 33.015625 
" id="BitstreamVeraSans-Roman-6e"/>
      <path d="M 34.1875 63.1875 
L 20.796875 26.90625 
L 47.609375 26.90625 
z
M 28.609375 72.90625 
L 39.796875 72.90625 
L 67.578125 0 
L 57.328125 0 
L 50.6875 18.703125 
L 17.828125 18.703125 
L 11.1875 0 
L 0.78125 0 
z
" id="BitstreamVeraSans-Roman-41"/>
      <path d="M 31 75.875 
Q 24.46875 64.65625 21.28125 53.65625 
Q 18.109375 42.671875 18.109375 31.390625 
Q 18.109375 20.125 21.3125 9.0625 
Q 24.515625 -2 31 -13.1875 
L 23.1875 -13.1875 
Q 15.875 -1.703125 12.234375 9.375 
Q 8.59375 20.453125 8.59375 31.390625 
Q 8.59375 42.28125 12.203125 53.3125 
Q 15.828125 64.359375 23.1875 75.875 
z
" id="BitstreamVeraSans-Roman-28"/>
      <path d="M 48.78125 52.59375 
L 48.78125 44.1875 
Q 44.96875 46.296875 41.140625 47.34375 
Q 37.3125 48.390625 33.40625 48.390625 
Q 24.65625 48.390625 19.8125 42.84375 
Q 14.984375 37.3125 14.984375 27.296875 
Q 14.984375 17.28125 19.8125 11.734375 
Q 24.65625 6.203125 33.40625 6.203125 
Q 37.3125 6.203125 41.140625 7.25 
Q 44.96875 8.296875 48.78125 10.40625 
L 48.78125 2.09375 
Q 45.015625 0.34375 40.984375 -0.53125 
Q 36.96875 -1.421875 32.421875 -1.421875 
Q 20.0625 -1.421875 12.78125 6.34375 
Q 5.515625 14.109375 5.515625 27.296875 
Q 5.515625 40.671875 12.859375 48.328125 
Q 20.21875 56 33.015625 56 
Q 37.15625 56 41.109375 55.140625 
Q 45.0625 54.296875 48.78125 52.59375 
" id="BitstreamVeraSans-Roman-63"/>
      <path d="M 44.28125 53.078125 
L 44.28125 44.578125 
Q 40.484375 46.53125 36.375 47.5 
Q 32.28125 48.484375 27.875 48.484375 
Q 21.1875 48.484375 17.84375 46.4375 
Q 14.5 44.390625 14.5 40.28125 
Q 14.5 37.15625 16.890625 35.375 
Q 19.28125 33.59375 26.515625 31.984375 
L 29.59375 31.296875 
Q 39.15625 29.25 43.1875 25.515625 
Q 47.21875 21.78125 47.21875 15.09375 
Q 47.21875 7.46875 41.1875 3.015625 
Q 35.15625 -1.421875 24.609375 -1.421875 
Q 20.21875 -1.421875 15.453125 -0.5625 
Q 10.6875 0.296875 5.421875 2 
L 5.421875 11.28125 
Q 10.40625 8.6875 15.234375 7.390625 
Q 20.0625 6.109375 24.8125 6.109375 
Q 31.15625 6.109375 34.5625 8.28125 
Q 37.984375 10.453125 37.984375 14.40625 
Q 37.984375 18.0625 35.515625 20.015625 
Q 33.0625 21.96875 24.703125 23.78125 
L 21.578125 24.515625 
Q 13.234375 26.265625 9.515625 29.90625 
Q 5.8125 33.546875 5.8125 39.890625 
Q 5.8125 47.609375 11.28125 51.796875 
Q 16.75 56 26.8125 56 
Q 31.78125 56 36.171875 55.265625 
Q 40.578125 54.546875 44.28125 53.078125 
" id="BitstreamVeraSans-Roman-73"/>
      <path d="M 30.609375 48.390625 
Q 23.390625 48.390625 19.1875 42.75 
Q 14.984375 37.109375 14.984375 27.296875 
Q 14.984375 17.484375 19.15625 11.84375 
Q 23.34375 6.203125 30.609375 6.203125 
Q 37.796875 6.203125 41.984375 11.859375 
Q 46.1875 17.53125 46.1875 27.296875 
Q 46.1875 37.015625 41.984375 42.703125 
Q 37.796875 48.390625 30.609375 48.390625 
M 30.609375 56 
Q 42.328125 56 49.015625 48.375 
Q 55.71875 40.765625 55.71875 27.296875 
Q 55.71875 13.875 49.015625 6.21875 
Q 42.328125 -1.421875 30.609375 -1.421875 
Q 18.84375 -1.421875 12.171875 6.21875 
Q 5.515625 13.875 5.515625 27.296875 
Q 5.515625 40.765625 12.171875 48.375 
Q 18.84375 56 30.609375 56 
" id="BitstreamVeraSans-Roman-6f"/>
      <path d="M 53.515625 70.515625 
L 53.515625 60.890625 
Q 47.90625 63.578125 42.921875 64.890625 
Q 37.9375 66.21875 33.296875 66.21875 
Q 25.25 66.21875 20.875 63.09375 
Q 16.5 59.96875 16.5 54.203125 
Q 16.5 49.359375 19.40625 46.890625 
Q 22.3125 44.4375 30.421875 42.921875 
L 36.375 41.703125 
Q 47.40625 39.59375 52.65625 34.296875 
Q 57.90625 29 57.90625 20.125 
Q 57.90625 9.515625 50.796875 4.046875 
Q 43.703125 -1.421875 29.984375 -1.421875 
Q 24.8125 -1.421875 18.96875 -0.25 
Q 13.140625 0.921875 6.890625 3.21875 
L 6.890625 13.375 
Q 12.890625 10.015625 18.65625 8.296875 
Q 24.421875 6.59375 29.984375 6.59375 
Q 38.421875 6.59375 43.015625 9.90625 
Q 47.609375 13.234375 47.609375 19.390625 
Q 47.609375 24.75 44.3125 27.78125 
Q 41.015625 30.8125 33.5 32.328125 
L 27.484375 33.5 
Q 16.453125 35.6875 11.515625 40.375 
Q 6.59375 45.0625 6.59375 53.421875 
Q 6.59375 63.09375 13.40625 68.65625 
Q 20.21875 74.21875 32.171875 74.21875 
Q 37.3125 74.21875 42.625 73.28125 
Q 47.953125 72.359375 53.515625 70.515625 
" id="BitstreamVeraSans-Roman-53"/>
     </defs>
     <g transform="translate(18.14175 195.567477273)rotate(-90.0)scale(0.144 -0.144)">
      <use xlink:href="#BitstreamVeraSans-Roman-53"/>
      <use x="63.4765625" xlink:href="#BitstreamVeraSans-Roman-74"/>
      <use x="102.685546875" xlink:href="#BitstreamVeraSans-Roman-61"/>
      <use x="163.96484375" xlink:href="#BitstreamVeraSans-Roman-74"/>
      <use x="203.173828125" xlink:href="#BitstreamVeraSans-Roman-6f"/>
      <use x="264.35546875" xlink:href="#BitstreamVeraSans-Roman-72"/>
      <use x="305.46875" xlink:href="#BitstreamVeraSans-Roman-20"/>
      <use x="337.255859375" xlink:href="#BitstreamVeraSans-Roman-63"/>
      <use x="392.236328125" xlink:href="#BitstreamVeraSans-Roman-75"/>
      <use x="455.615234375" xlink:href="#BitstreamVeraSans-Roman-72"/>
      <use x="496.712890625" xlink:href="#BitstreamVeraSans-Roman-72"/>
      <use x="537.794921875" xlink:href="#BitstreamVeraSans-Roman-65"/>
      <use x="599.318359375" xlink:href="#BitstreamVeraSans-Roman-6e"/>
      <use x="662.697265625" xlink:href="#BitstreamVeraSans-Roman-74"/>
      <use x="701.90625" xlink:href="#BitstreamVeraSans-Roman-73"/>
      <use x="754.005859375" xlink:href="#BitstreamVeraSans-Roman-20"/>
      <use x="785.79296875" xlink:href="#BitstreamVeraSans-Roman-28"/>
      <use x="824.806640625" xlink:href="#BitstreamVeraSans-Roman-6b"/>
      <use x="882.716796875" xlink:href="#BitstreamVeraSans-Roman-41"/>
      <use x="951.125" xlink:href="#BitstreamVeraSans-Roman-29"/>
     </g>
    </g>
   </g>
   <g id="line2d_40">
    <path clip-path="url(#pa26581d88c)" d="M 59.275875 37.690213 
L 59.794275 45.586892 
L 60.312675 45.675788 
L 61.349475 46.690848 
L 62.904675 47.773892 
L 64.459875 48.516671 
L 66.015075 49.024559 
L 68.088675 49.459667 
L 70.680675 49.766178 
L 74.827875 49.982507 
L 82.085475 50.080037 
L 111.634275 50.097777 
L 137.035875 50.097784 
L 137.554275 63.736384 
L 138.591075 83.046248 
L 139.627875 97.576474 
L 140.664675 108.4518 
L 141.701475 116.591252 
L 142.738275 122.683062 
L 143.775075 127.242336 
L 144.811875 130.654606 
L 145.848675 133.208421 
L 146.885475 135.119742 
L 147.922275 136.550204 
L 148.959075 137.62078 
L 149.995875 138.422008 
L 151.551075 139.26227 
L 153.106275 139.806293 
L 155.179875 140.24577 
L 157.771875 140.534193 
L 161.919075 140.720253 
L 170.213475 140.796919 
L 224.645475 140.805283 
L 271.301475 140.910304 
L 280.632675 141.068164 
L 302.923875 141.097755 
L 577.157475 141.097888 
L 577.157475 141.097888 
" style="fill:none;stroke:#fc4f30;stroke-width:4.0;"/>
   </g>
   <g id="line2d_41">
    <path clip-path="url(#pa26581d88c)" d="M 59.275875 45.501064 
L 59.794275 73.215502 
L 60.831075 96.21728 
L 61.867875 114.061034 
L 62.904675 127.417877 
L 63.941475 137.413701 
L 64.978275 144.894209 
L 66.015075 150.492323 
L 67.051875 154.681713 
L 68.088675 157.816862 
L 69.125475 160.163054 
L 70.162275 161.918824 
L 71.199075 163.232747 
L 72.235875 164.216011 
L 73.272675 164.951826 
L 74.827875 165.723401 
L 76.383075 166.222883 
L 78.456675 166.626314 
L 81.048675 166.891027 
L 85.195875 167.061742 
L 94.008675 167.133088 
L 138.591075 167.106208 
L 151.032675 166.613956 
L 163.992675 166.557277 
L 266.635875 166.554509 
L 267.154275 173.373808 
L 268.191075 183.02874 
L 269.227875 190.293854 
L 270.264675 195.731516 
L 271.301475 199.801243 
L 272.338275 202.847147 
L 273.375075 205.126784 
L 274.411875 206.83292 
L 275.448675 208.109827 
L 276.485475 209.065488 
L 277.522275 209.780719 
L 279.077475 210.530801 
L 280.632675 211.016443 
L 282.706275 211.408763 
L 285.298275 211.666243 
L 289.445475 211.832345 
L 298.258275 211.901798 
L 367.723875 211.908258 
L 577.157475 211.908258 
L 577.157475 211.908258 
" style="fill:none;stroke:#5cb85c;stroke-width:4.0;"/>
   </g>
   <g id="patch_3">
    <path d="M 59.275875 235.55233 
L 577.675875 235.55233 
" style="fill:none;stroke:#ffffff;stroke-linecap:square;stroke-linejoin:miter;stroke-width:3.0;"/>
   </g>
   <g id="patch_4">
    <path d="M 577.675875 235.55233 
L 577.675875 13.006875 
" style="fill:none;stroke:#ffffff;stroke-linecap:square;stroke-linejoin:miter;stroke-width:3.0;"/>
   </g>
   <g id="patch_5">
    <path d="M 59.275875 235.55233 
L 59.275875 13.006875 
" style="fill:none;stroke:#ffffff;stroke-linecap:square;stroke-linejoin:miter;stroke-width:3.0;"/>
   </g>
   <g id="patch_6">
    <path d="M 59.275875 13.006875 
L 577.675875 13.006875 
" style="fill:none;stroke:#ffffff;stroke-linecap:square;stroke-linejoin:miter;stroke-width:3.0;"/>
   </g>
   <g id="legend_1">
    <g id="patch_7">
     <path d="M 507.691875 68.413125 
L 567.595875 68.413125 
Q 570.475875 68.413125 570.475875 65.533125 
L 570.475875 23.086875 
Q 570.475875 20.206875 567.595875 20.206875 
L 507.691875 20.206875 
Q 504.811875 20.206875 504.811875 23.086875 
L 504.811875 65.533125 
Q 504.811875 68.413125 507.691875 68.413125 
z
" style="fill:#ffffff;stroke:#ffffff;stroke-linejoin:miter;stroke-width:0.5;"/>
    </g>
    <g id="line2d_42">
     <path d="M 514.891875 31.868625 
L 535.051875 31.868625 
" style="fill:none;stroke:#fc4f30;stroke-width:4.0;"/>
    </g>
    <g id="line2d_43"/>
    <g id="text_9">
     <!-- $\sf i_{dr}$ -->
     <defs>
      <path d="M 7.90625 0 
L 7.90625 44.390625 
L 15.828125 44.390625 
L 15.828125 0 
z
M 7.171875 58.6875 
L 7.171875 68.015625 
L 16.5 68.015625 
L 16.5 58.6875 
z
" id="Cmss10-69"/>
      <path d="M 20.3125 -1.125 
Q 14.984375 -1.125 11.125 2.515625 
Q 7.28125 6.15625 5.34375 11.578125 
Q 3.421875 17 3.421875 22.21875 
Q 3.421875 26.171875 4.546875 30.203125 
Q 5.671875 34.234375 7.8125 37.71875 
Q 9.96875 41.21875 13.234375 43.359375 
Q 16.5 45.515625 20.609375 45.515625 
Q 24.859375 45.515625 28.78125 44.09375 
Q 32.71875 42.671875 35.6875 40.1875 
L 35.6875 69.390625 
L 43.609375 69.390625 
L 43.609375 0 
L 35.40625 0 
L 35.40625 4.984375 
Q 32.171875 2 28.40625 0.4375 
Q 24.65625 -1.125 20.3125 -1.125 
M 24.90625 5.421875 
Q 28.21875 5.421875 31 7.265625 
Q 33.796875 9.125 35.40625 12.203125 
L 35.40625 33.796875 
Q 33.84375 36.1875 31.34375 37.59375 
Q 28.859375 39.015625 26.125 39.015625 
Q 21.4375 39.015625 18.140625 36.71875 
Q 14.84375 34.421875 13.234375 30.59375 
Q 11.625 26.765625 11.625 22.21875 
Q 11.625 15.328125 14.984375 10.375 
Q 18.359375 5.421875 24.90625 5.421875 
" id="Cmss10-64"/>
      <path d="M 8.015625 0 
L 8.015625 45.015625 
L 15.375 45.015625 
L 15.375 36.375 
Q 17.328125 39.109375 20.109375 41.203125 
Q 22.90625 43.3125 26.09375 44.40625 
Q 29.296875 45.515625 32.71875 45.515625 
L 32.71875 38.375 
Q 28.265625 38.375 24.390625 36.171875 
Q 20.515625 33.984375 18.21875 30.203125 
Q 15.921875 26.421875 15.921875 21.921875 
L 15.921875 0 
z
" id="Cmss10-72"/>
     </defs>
     <g transform="translate(550.891875 36.908625)scale(0.144 -0.144)">
      <use transform="translate(0.0 0.984375)" xlink:href="#Cmss10-69"/>
      <use transform="translate(28.425546875000002 -16.715625000000003)scale(0.7)" xlink:href="#Cmss10-64"/>
      <use transform="translate(64.5534765625 -16.715625000000003)scale(0.7)" xlink:href="#Cmss10-72"/>
     </g>
    </g>
    <g id="line2d_44">
     <path d="M 514.891875 53.005125 
L 535.051875 53.005125 
" style="fill:none;stroke:#5cb85c;stroke-width:4.0;"/>
    </g>
    <g id="line2d_45"/>
    <g id="text_10">
     <!-- $\sf i_{qr}$ -->
     <defs>
      <path d="M 19.921875 -1.125 
Q 14.65625 -1.125 10.890625 2.53125 
Q 7.125 6.203125 5.265625 11.671875 
Q 3.421875 17.140625 3.421875 22.21875 
Q 3.421875 27.546875 5.59375 32.984375 
Q 7.765625 38.421875 11.984375 41.96875 
Q 16.21875 45.515625 21.78125 45.515625 
Q 25.78125 45.515625 29.390625 43.796875 
Q 33.015625 42.09375 35.6875 39.015625 
L 35.6875 45.515625 
L 43.609375 45.515625 
L 43.609375 -19.390625 
L 35.40625 -19.390625 
L 35.40625 4.78125 
Q 32.171875 1.953125 28.140625 0.40625 
Q 24.125 -1.125 19.921875 -1.125 
M 24.90625 5.421875 
Q 28.265625 5.421875 31.171875 7.34375 
Q 34.078125 9.28125 35.6875 12.3125 
L 35.6875 29.6875 
Q 34.625 33.5 32.203125 36.109375 
Q 29.78125 38.71875 26.125 38.71875 
Q 21.921875 38.71875 18.578125 36.328125 
Q 15.234375 33.9375 13.421875 30.09375 
Q 11.625 26.265625 11.625 22.21875 
Q 11.625 15.875 15.234375 10.640625 
Q 18.84375 5.421875 24.90625 5.421875 
" id="Cmss10-71"/>
     </defs>
     <g transform="translate(550.891875 58.045125)scale(0.144 -0.144)">
      <use transform="translate(0.0 0.984375)" xlink:href="#Cmss10-69"/>
      <use transform="translate(28.425546875000002 -16.715625000000003)scale(0.7)" xlink:href="#Cmss10-71"/>
      <use transform="translate(64.5534765625 -16.715625000000003)scale(0.7)" xlink:href="#Cmss10-72"/>
     </g>
    </g>
   </g>
  </g>
  <g id="axes_2">
   <g id="patch_8">
    <path d="M 59.275875 502.606875 
L 577.675875 502.606875 
L 577.675875 280.06142 
L 59.275875 280.06142 
z
" style="fill:#ffffff;"/>
   </g>
   <g id="matplotlib.axis_3">
    <g id="xtick_7">
     <g id="line2d_46">
      <path clip-path="url(#pac05c02ab5)" d="M 59.275875 502.606875 
L 59.275875 280.06142 
" style="fill:none;stroke:#cbcbcb;"/>
     </g>
     <g id="line2d_47"/>
     <g id="line2d_48"/>
     <g id="text_11">
      <!-- 0 -->
      <g transform="translate(55.458375 515.725)scale(0.12 -0.12)">
       <use xlink:href="#BitstreamVeraSans-Roman-30"/>
      </g>
     </g>
    </g>
    <g id="xtick_8">
     <g id="line2d_49">
      <path clip-path="url(#pac05c02ab5)" d="M 162.955875 502.606875 
L 162.955875 280.06142 
" style="fill:none;stroke:#cbcbcb;"/>
     </g>
     <g id="line2d_50"/>
     <g id="line2d_51"/>
     <g id="text_12">
      <!-- 2 -->
      <g transform="translate(159.138375 515.725)scale(0.12 -0.12)">
       <use xlink:href="#BitstreamVeraSans-Roman-32"/>
      </g>
     </g>
    </g>
    <g id="xtick_9">
     <g id="line2d_52">
      <path clip-path="url(#pac05c02ab5)" d="M 266.635875 502.606875 
L 266.635875 280.06142 
" style="fill:none;stroke:#cbcbcb;"/>
     </g>
     <g id="line2d_53"/>
     <g id="line2d_54"/>
     <g id="text_13">
      <!-- 4 -->
      <defs>
       <path d="M 37.796875 64.3125 
L 12.890625 25.390625 
L 37.796875 25.390625 
z
M 35.203125 72.90625 
L 47.609375 72.90625 
L 47.609375 25.390625 
L 58.015625 25.390625 
L 58.015625 17.1875 
L 47.609375 17.1875 
L 47.609375 0 
L 37.796875 0 
L 37.796875 17.1875 
L 4.890625 17.1875 
L 4.890625 26.703125 
z
" id="BitstreamVeraSans-Roman-34"/>
      </defs>
      <g transform="translate(262.818375 515.725)scale(0.12 -0.12)">
       <use xlink:href="#BitstreamVeraSans-Roman-34"/>
      </g>
     </g>
    </g>
    <g id="xtick_10">
     <g id="line2d_55">
      <path clip-path="url(#pac05c02ab5)" d="M 370.315875 502.606875 
L 370.315875 280.06142 
" style="fill:none;stroke:#cbcbcb;"/>
     </g>
     <g id="line2d_56"/>
     <g id="line2d_57"/>
     <g id="text_14">
      <!-- 6 -->
      <defs>
       <path d="M 33.015625 40.375 
Q 26.375 40.375 22.484375 35.828125 
Q 18.609375 31.296875 18.609375 23.390625 
Q 18.609375 15.53125 22.484375 10.953125 
Q 26.375 6.390625 33.015625 6.390625 
Q 39.65625 6.390625 43.53125 10.953125 
Q 47.40625 15.53125 47.40625 23.390625 
Q 47.40625 31.296875 43.53125 35.828125 
Q 39.65625 40.375 33.015625 40.375 
M 52.59375 71.296875 
L 52.59375 62.3125 
Q 48.875 64.0625 45.09375 64.984375 
Q 41.3125 65.921875 37.59375 65.921875 
Q 27.828125 65.921875 22.671875 59.328125 
Q 17.53125 52.734375 16.796875 39.40625 
Q 19.671875 43.65625 24.015625 45.921875 
Q 28.375 48.1875 33.59375 48.1875 
Q 44.578125 48.1875 50.953125 41.515625 
Q 57.328125 34.859375 57.328125 23.390625 
Q 57.328125 12.15625 50.6875 5.359375 
Q 44.046875 -1.421875 33.015625 -1.421875 
Q 20.359375 -1.421875 13.671875 8.265625 
Q 6.984375 17.96875 6.984375 36.375 
Q 6.984375 53.65625 15.1875 63.9375 
Q 23.390625 74.21875 37.203125 74.21875 
Q 40.921875 74.21875 44.703125 73.484375 
Q 48.484375 72.75 52.59375 71.296875 
" id="BitstreamVeraSans-Roman-36"/>
      </defs>
      <g transform="translate(366.498375 515.725)scale(0.12 -0.12)">
       <use xlink:href="#BitstreamVeraSans-Roman-36"/>
      </g>
     </g>
    </g>
    <g id="xtick_11">
     <g id="line2d_58">
      <path clip-path="url(#pac05c02ab5)" d="M 473.995875 502.606875 
L 473.995875 280.06142 
" style="fill:none;stroke:#cbcbcb;"/>
     </g>
     <g id="line2d_59"/>
     <g id="line2d_60"/>
     <g id="text_15">
      <!-- 8 -->
      <defs>
       <path d="M 31.78125 34.625 
Q 24.75 34.625 20.71875 30.859375 
Q 16.703125 27.09375 16.703125 20.515625 
Q 16.703125 13.921875 20.71875 10.15625 
Q 24.75 6.390625 31.78125 6.390625 
Q 38.8125 6.390625 42.859375 10.171875 
Q 46.921875 13.96875 46.921875 20.515625 
Q 46.921875 27.09375 42.890625 30.859375 
Q 38.875 34.625 31.78125 34.625 
M 21.921875 38.8125 
Q 15.578125 40.375 12.03125 44.71875 
Q 8.5 49.078125 8.5 55.328125 
Q 8.5 64.0625 14.71875 69.140625 
Q 20.953125 74.21875 31.78125 74.21875 
Q 42.671875 74.21875 48.875 69.140625 
Q 55.078125 64.0625 55.078125 55.328125 
Q 55.078125 49.078125 51.53125 44.71875 
Q 48 40.375 41.703125 38.8125 
Q 48.828125 37.15625 52.796875 32.3125 
Q 56.78125 27.484375 56.78125 20.515625 
Q 56.78125 9.90625 50.3125 4.234375 
Q 43.84375 -1.421875 31.78125 -1.421875 
Q 19.734375 -1.421875 13.25 4.234375 
Q 6.78125 9.90625 6.78125 20.515625 
Q 6.78125 27.484375 10.78125 32.3125 
Q 14.796875 37.15625 21.921875 38.8125 
M 18.3125 54.390625 
Q 18.3125 48.734375 21.84375 45.5625 
Q 25.390625 42.390625 31.78125 42.390625 
Q 38.140625 42.390625 41.71875 45.5625 
Q 45.3125 48.734375 45.3125 54.390625 
Q 45.3125 60.0625 41.71875 63.234375 
Q 38.140625 66.40625 31.78125 66.40625 
Q 25.390625 66.40625 21.84375 63.234375 
Q 18.3125 60.0625 18.3125 54.390625 
" id="BitstreamVeraSans-Roman-38"/>
      </defs>
      <g transform="translate(470.178375 515.725)scale(0.12 -0.12)">
       <use xlink:href="#BitstreamVeraSans-Roman-38"/>
      </g>
     </g>
    </g>
    <g id="xtick_12">
     <g id="line2d_61">
      <path clip-path="url(#pac05c02ab5)" d="M 577.675875 502.606875 
L 577.675875 280.06142 
" style="fill:none;stroke:#cbcbcb;"/>
     </g>
     <g id="line2d_62"/>
     <g id="line2d_63"/>
     <g id="text_16">
      <!-- 10 -->
      <g transform="translate(570.040875 515.725)scale(0.12 -0.12)">
       <use xlink:href="#BitstreamVeraSans-Roman-31"/>
       <use x="63.623046875" xlink:href="#BitstreamVeraSans-Roman-30"/>
      </g>
     </g>
    </g>
    <g id="text_17">
     <!-- Time (s) -->
     <defs>
      <path d="M -0.296875 72.90625 
L 61.375 72.90625 
L 61.375 64.59375 
L 35.5 64.59375 
L 35.5 0 
L 25.59375 0 
L 25.59375 64.59375 
L -0.296875 64.59375 
z
" id="BitstreamVeraSans-Roman-54"/>
      <path d="M 9.421875 54.6875 
L 18.40625 54.6875 
L 18.40625 0 
L 9.421875 0 
z
M 9.421875 75.984375 
L 18.40625 75.984375 
L 18.40625 64.59375 
L 9.421875 64.59375 
z
" id="BitstreamVeraSans-Roman-69"/>
      <path d="M 52 44.1875 
Q 55.375 50.25 60.0625 53.125 
Q 64.75 56 71.09375 56 
Q 79.640625 56 84.28125 50.015625 
Q 88.921875 44.046875 88.921875 33.015625 
L 88.921875 0 
L 79.890625 0 
L 79.890625 32.71875 
Q 79.890625 40.578125 77.09375 44.375 
Q 74.3125 48.1875 68.609375 48.1875 
Q 61.625 48.1875 57.5625 43.546875 
Q 53.515625 38.921875 53.515625 30.90625 
L 53.515625 0 
L 44.484375 0 
L 44.484375 32.71875 
Q 44.484375 40.625 41.703125 44.40625 
Q 38.921875 48.1875 33.109375 48.1875 
Q 26.21875 48.1875 22.15625 43.53125 
Q 18.109375 38.875 18.109375 30.90625 
L 18.109375 0 
L 9.078125 0 
L 9.078125 54.6875 
L 18.109375 54.6875 
L 18.109375 46.1875 
Q 21.1875 51.21875 25.484375 53.609375 
Q 29.78125 56 35.6875 56 
Q 41.65625 56 45.828125 52.96875 
Q 50 49.953125 52 44.1875 
" id="BitstreamVeraSans-Roman-6d"/>
     </defs>
     <g transform="translate(288.980625 534.162375)scale(0.144 -0.144)">
      <use xlink:href="#BitstreamVeraSans-Roman-54"/>
      <use x="61.037109375" xlink:href="#BitstreamVeraSans-Roman-69"/>
      <use x="88.8203125" xlink:href="#BitstreamVeraSans-Roman-6d"/>
      <use x="186.232421875" xlink:href="#BitstreamVeraSans-Roman-65"/>
      <use x="247.755859375" xlink:href="#BitstreamVeraSans-Roman-20"/>
      <use x="279.54296875" xlink:href="#BitstreamVeraSans-Roman-28"/>
      <use x="318.556640625" xlink:href="#BitstreamVeraSans-Roman-73"/>
      <use x="370.65625" xlink:href="#BitstreamVeraSans-Roman-29"/>
     </g>
    </g>
   </g>
   <g id="matplotlib.axis_4">
    <g id="ytick_8">
     <g id="line2d_64">
      <path clip-path="url(#pac05c02ab5)" d="M 59.275875 502.606875 
L 577.675875 502.606875 
" style="fill:none;stroke:#cbcbcb;"/>
     </g>
     <g id="line2d_65"/>
     <g id="line2d_66"/>
     <g id="text_18">
      <!-- −2.0 -->
      <g transform="translate(26.1365 505.918125)scale(0.12 -0.12)">
       <use xlink:href="#BitstreamVeraSans-Roman-2212"/>
       <use x="83.7890625" xlink:href="#BitstreamVeraSans-Roman-32"/>
       <use x="147.412109375" xlink:href="#BitstreamVeraSans-Roman-2e"/>
       <use x="179.19921875" xlink:href="#BitstreamVeraSans-Roman-30"/>
      </g>
     </g>
    </g>
    <g id="ytick_9">
     <g id="line2d_67">
      <path clip-path="url(#pac05c02ab5)" d="M 59.275875 470.814667 
L 577.675875 470.814667 
" style="fill:none;stroke:#cbcbcb;"/>
     </g>
     <g id="line2d_68"/>
     <g id="line2d_69"/>
     <g id="text_19">
      <!-- −1.5 -->
      <g transform="translate(26.1365 474.125917208)scale(0.12 -0.12)">
       <use xlink:href="#BitstreamVeraSans-Roman-2212"/>
       <use x="83.7890625" xlink:href="#BitstreamVeraSans-Roman-31"/>
       <use x="147.412109375" xlink:href="#BitstreamVeraSans-Roman-2e"/>
       <use x="179.19921875" xlink:href="#BitstreamVeraSans-Roman-35"/>
      </g>
     </g>
    </g>
    <g id="ytick_10">
     <g id="line2d_70">
      <path clip-path="url(#pac05c02ab5)" d="M 59.275875 439.022459 
L 577.675875 439.022459 
" style="fill:none;stroke:#cbcbcb;"/>
     </g>
     <g id="line2d_71"/>
     <g id="line2d_72"/>
     <g id="text_20">
      <!-- −1.0 -->
      <g transform="translate(26.1365 442.333709416)scale(0.12 -0.12)">
       <use xlink:href="#BitstreamVeraSans-Roman-2212"/>
       <use x="83.7890625" xlink:href="#BitstreamVeraSans-Roman-31"/>
       <use x="147.412109375" xlink:href="#BitstreamVeraSans-Roman-2e"/>
       <use x="179.19921875" xlink:href="#BitstreamVeraSans-Roman-30"/>
      </g>
     </g>
    </g>
    <g id="ytick_11">
     <g id="line2d_73">
      <path clip-path="url(#pac05c02ab5)" d="M 59.275875 407.230252 
L 577.675875 407.230252 
" style="fill:none;stroke:#cbcbcb;"/>
     </g>
     <g id="line2d_74"/>
     <g id="line2d_75"/>
     <g id="text_21">
      <!-- −0.5 -->
      <g transform="translate(26.1365 410.541501623)scale(0.12 -0.12)">
       <use xlink:href="#BitstreamVeraSans-Roman-2212"/>
       <use x="83.7890625" xlink:href="#BitstreamVeraSans-Roman-30"/>
       <use x="147.412109375" xlink:href="#BitstreamVeraSans-Roman-2e"/>
       <use x="179.19921875" xlink:href="#BitstreamVeraSans-Roman-35"/>
      </g>
     </g>
    </g>
    <g id="ytick_12">
     <g id="line2d_76">
      <path clip-path="url(#pac05c02ab5)" d="M 59.275875 375.438044 
L 577.675875 375.438044 
" style="fill:none;stroke:#cbcbcb;"/>
     </g>
     <g id="line2d_77"/>
     <g id="line2d_78"/>
     <g id="text_22">
      <!-- 0.0 -->
      <g transform="translate(36.192125 378.749293831)scale(0.12 -0.12)">
       <use xlink:href="#BitstreamVeraSans-Roman-30"/>
       <use x="63.623046875" xlink:href="#BitstreamVeraSans-Roman-2e"/>
       <use x="95.41015625" xlink:href="#BitstreamVeraSans-Roman-30"/>
      </g>
     </g>
    </g>
    <g id="ytick_13">
     <g id="line2d_79">
      <path clip-path="url(#pac05c02ab5)" d="M 59.275875 343.645836 
L 577.675875 343.645836 
" style="fill:none;stroke:#cbcbcb;"/>
     </g>
     <g id="line2d_80"/>
     <g id="line2d_81"/>
     <g id="text_23">
      <!-- 0.5 -->
      <g transform="translate(36.192125 346.957086039)scale(0.12 -0.12)">
       <use xlink:href="#BitstreamVeraSans-Roman-30"/>
       <use x="63.623046875" xlink:href="#BitstreamVeraSans-Roman-2e"/>
       <use x="95.41015625" xlink:href="#BitstreamVeraSans-Roman-35"/>
      </g>
     </g>
    </g>
    <g id="ytick_14">
     <g id="line2d_82">
      <path clip-path="url(#pac05c02ab5)" d="M 59.275875 311.853628 
L 577.675875 311.853628 
" style="fill:none;stroke:#cbcbcb;"/>
     </g>
     <g id="line2d_83"/>
     <g id="line2d_84"/>
     <g id="text_24">
      <!-- 1.0 -->
      <g transform="translate(36.192125 315.164878247)scale(0.12 -0.12)">
       <use xlink:href="#BitstreamVeraSans-Roman-31"/>
       <use x="63.623046875" xlink:href="#BitstreamVeraSans-Roman-2e"/>
       <use x="95.41015625" xlink:href="#BitstreamVeraSans-Roman-30"/>
      </g>
     </g>
    </g>
    <g id="ytick_15">
     <g id="line2d_85">
      <path clip-path="url(#pac05c02ab5)" d="M 59.275875 280.06142 
L 577.675875 280.06142 
" style="fill:none;stroke:#cbcbcb;"/>
     </g>
     <g id="line2d_86"/>
     <g id="line2d_87"/>
     <g id="text_25">
      <!-- 1.5 -->
      <g transform="translate(36.192125 283.372670455)scale(0.12 -0.12)">
       <use xlink:href="#BitstreamVeraSans-Roman-31"/>
       <use x="63.623046875" xlink:href="#BitstreamVeraSans-Roman-2e"/>
       <use x="95.41015625" xlink:href="#BitstreamVeraSans-Roman-35"/>
      </g>
     </g>
    </g>
    <g id="text_26">
     <!-- Rotor currents (kA) -->
     <defs>
      <path d="M 44.390625 34.1875 
Q 47.5625 33.109375 50.5625 29.59375 
Q 53.5625 26.078125 56.59375 19.921875 
L 66.609375 0 
L 56 0 
L 46.6875 18.703125 
Q 43.0625 26.03125 39.671875 28.421875 
Q 36.28125 30.8125 30.421875 30.8125 
L 19.671875 30.8125 
L 19.671875 0 
L 9.8125 0 
L 9.8125 72.90625 
L 32.078125 72.90625 
Q 44.578125 72.90625 50.734375 67.671875 
Q 56.890625 62.453125 56.890625 51.90625 
Q 56.890625 45.015625 53.6875 40.46875 
Q 50.484375 35.9375 44.390625 34.1875 
M 19.671875 64.796875 
L 19.671875 38.921875 
L 32.078125 38.921875 
Q 39.203125 38.921875 42.84375 42.21875 
Q 46.484375 45.515625 46.484375 51.90625 
Q 46.484375 58.296875 42.84375 61.546875 
Q 39.203125 64.796875 32.078125 64.796875 
z
" id="BitstreamVeraSans-Roman-52"/>
     </defs>
     <g transform="translate(18.14175 460.220147727)rotate(-90.0)scale(0.144 -0.144)">
      <use xlink:href="#BitstreamVeraSans-Roman-52"/>
      <use x="69.419921875" xlink:href="#BitstreamVeraSans-Roman-6f"/>
      <use x="130.6015625" xlink:href="#BitstreamVeraSans-Roman-74"/>
      <use x="169.810546875" xlink:href="#BitstreamVeraSans-Roman-6f"/>
      <use x="230.9921875" xlink:href="#BitstreamVeraSans-Roman-72"/>
      <use x="272.10546875" xlink:href="#BitstreamVeraSans-Roman-20"/>
      <use x="303.892578125" xlink:href="#BitstreamVeraSans-Roman-63"/>
      <use x="358.873046875" xlink:href="#BitstreamVeraSans-Roman-75"/>
      <use x="422.251953125" xlink:href="#BitstreamVeraSans-Roman-72"/>
      <use x="463.349609375" xlink:href="#BitstreamVeraSans-Roman-72"/>
      <use x="504.431640625" xlink:href="#BitstreamVeraSans-Roman-65"/>
      <use x="565.955078125" xlink:href="#BitstreamVeraSans-Roman-6e"/>
      <use x="629.333984375" xlink:href="#BitstreamVeraSans-Roman-74"/>
      <use x="668.54296875" xlink:href="#BitstreamVeraSans-Roman-73"/>
      <use x="720.642578125" xlink:href="#BitstreamVeraSans-Roman-20"/>
      <use x="752.4296875" xlink:href="#BitstreamVeraSans-Roman-28"/>
      <use x="791.443359375" xlink:href="#BitstreamVeraSans-Roman-6b"/>
      <use x="849.353515625" xlink:href="#BitstreamVeraSans-Roman-41"/>
      <use x="917.76171875" xlink:href="#BitstreamVeraSans-Roman-29"/>
     </g>
    </g>
   </g>
   <g id="line2d_88">
    <path clip-path="url(#pac05c02ab5)" d="M 59.275875 385.07868 
L 59.794275 378.677021 
L 60.312675 378.666836 
L 61.349475 377.935611 
L 62.904675 377.153051 
L 64.459875 376.6119 
L 66.533475 376.142939 
L 69.125475 375.808315 
L 72.754275 375.586896 
L 78.975075 375.46859 
L 98.155875 375.438251 
L 137.035875 375.438044 
L 137.554275 364.12539 
L 138.591075 348.108479 
L 139.627875 336.055974 
L 140.664675 327.035014 
L 141.701475 320.283343 
L 142.738275 315.230127 
L 143.775075 311.448115 
L 144.811875 308.617531 
L 145.848675 306.499035 
L 146.885475 304.913494 
L 147.922275 303.726835 
L 148.959075 302.838714 
L 149.995875 302.174028 
L 151.551075 301.476949 
L 153.106275 301.025621 
L 155.179875 300.661017 
L 158.290275 300.391381 
L 162.955875 300.249601 
L 174.360675 300.198977 
L 267.672675 300.255148 
L 271.819875 300.283962 
L 295.147875 300.197499 
L 577.157475 300.1968 
L 577.157475 300.1968 
" style="fill:none;stroke:#fc4f30;stroke-width:4.0;"/>
   </g>
   <g id="line2d_89">
    <path clip-path="url(#pac05c02ab5)" d="M 59.275875 476.398664 
L 59.794275 453.368429 
L 60.831075 434.285953 
L 61.867875 419.480666 
L 62.904675 408.398101 
L 63.941475 400.104166 
L 64.978275 393.89721 
L 66.015075 389.252111 
L 67.051875 385.775873 
L 68.088675 383.174382 
L 69.125475 381.227527 
L 70.162275 379.770583 
L 71.199075 378.680271 
L 72.235875 377.864333 
L 73.791075 377.008726 
L 75.346275 376.454831 
L 77.419875 376.007438 
L 80.011875 375.713868 
L 84.159075 375.524533 
L 92.453475 375.446546 
L 154.661475 375.419901 
L 188.357475 375.43804 
L 266.635875 375.438044 
L 267.154275 369.781717 
L 268.191075 361.773262 
L 269.227875 355.747009 
L 270.264675 351.236529 
L 271.301475 347.860694 
L 272.338275 345.334085 
L 273.375075 343.44308 
L 274.411875 342.027787 
L 275.448675 340.968539 
L 276.485475 340.175769 
L 278.040675 339.344352 
L 279.595875 338.806036 
L 281.669475 338.371151 
L 284.261475 338.085726 
L 288.408675 337.901587 
L 296.703075 337.825703 
L 351.653475 337.817422 
L 577.157475 337.817422 
L 577.157475 337.817422 
" style="fill:none;stroke:#5cb85c;stroke-width:4.0;"/>
   </g>
   <g id="patch_9">
    <path d="M 59.275875 502.606875 
L 577.675875 502.606875 
" style="fill:none;stroke:#ffffff;stroke-linecap:square;stroke-linejoin:miter;stroke-width:3.0;"/>
   </g>
   <g id="patch_10">
    <path d="M 577.675875 502.606875 
L 577.675875 280.06142 
" style="fill:none;stroke:#ffffff;stroke-linecap:square;stroke-linejoin:miter;stroke-width:3.0;"/>
   </g>
   <g id="patch_11">
    <path d="M 59.275875 502.606875 
L 59.275875 280.06142 
" style="fill:none;stroke:#ffffff;stroke-linecap:square;stroke-linejoin:miter;stroke-width:3.0;"/>
   </g>
   <g id="patch_12">
    <path d="M 59.275875 280.06142 
L 577.675875 280.06142 
" style="fill:none;stroke:#ffffff;stroke-linecap:square;stroke-linejoin:miter;stroke-width:3.0;"/>
   </g>
   <g id="legend_2">
    <g id="patch_13">
     <path d="M 507.403875 335.46767 
L 567.595875 335.46767 
Q 570.475875 335.46767 570.475875 332.58767 
L 570.475875 290.14142 
Q 570.475875 287.26142 567.595875 287.26142 
L 507.403875 287.26142 
Q 504.523875 287.26142 504.523875 290.14142 
L 504.523875 332.58767 
Q 504.523875 335.46767 507.403875 335.46767 
z
" style="fill:#ffffff;stroke:#ffffff;stroke-linejoin:miter;stroke-width:0.5;"/>
    </g>
    <g id="line2d_90">
     <path d="M 514.603875 298.92317 
L 534.763875 298.92317 
" style="fill:none;stroke:#fc4f30;stroke-width:4.0;"/>
    </g>
    <g id="line2d_91"/>
    <g id="text_27">
     <!-- $\sf i_{ds}$ -->
     <defs>
      <path d="M 2.78125 3.328125 
L 4.109375 10.5 
Q 11.1875 5.609375 19.671875 5.609375 
Q 23.34375 5.609375 25.921875 7.203125 
Q 28.515625 8.796875 28.515625 12.203125 
Q 28.515625 14.796875 26.53125 16.453125 
Q 24.5625 18.109375 21.921875 18.609375 
L 15.828125 19.828125 
Q 10.75 20.84375 7.03125 24.359375 
Q 3.328125 27.875 3.328125 32.8125 
Q 3.328125 37.359375 5.515625 40.359375 
Q 7.71875 43.359375 11.421875 44.71875 
Q 15.140625 46.09375 19.671875 46.09375 
Q 24.03125 46.09375 27.265625 45.375 
Q 30.515625 44.671875 34.28125 42.921875 
L 33.109375 35.890625 
Q 29.5 38.03125 26.140625 38.90625 
Q 22.796875 39.796875 18.609375 39.796875 
Q 15.328125 39.796875 13.0625 38.359375 
Q 10.796875 36.921875 10.796875 33.796875 
Q 10.796875 31.640625 12.5 30.09375 
Q 14.203125 28.5625 16.609375 27.984375 
L 23.296875 26.703125 
Q 26.703125 25.921875 29.609375 24.015625 
Q 32.515625 22.125 34.25 19.265625 
Q 35.984375 16.40625 35.984375 12.984375 
Q 35.984375 8.203125 33.859375 5.046875 
Q 31.734375 1.90625 28.09375 0.390625 
Q 24.46875 -1.125 19.671875 -1.125 
Q 10.6875 -1.125 2.78125 3.328125 
" id="Cmss10-73"/>
     </defs>
     <g transform="translate(550.603875 303.963170455)scale(0.144 -0.144)">
      <use transform="translate(0.0 0.984375)" xlink:href="#Cmss10-69"/>
      <use transform="translate(28.425546875000002 -16.715625000000003)scale(0.7)" xlink:href="#Cmss10-64"/>
      <use transform="translate(64.5534765625 -16.715625000000003)scale(0.7)" xlink:href="#Cmss10-73"/>
     </g>
    </g>
    <g id="line2d_92">
     <path d="M 514.603875 320.05967 
L 534.763875 320.05967 
" style="fill:none;stroke:#5cb85c;stroke-width:4.0;"/>
    </g>
    <g id="line2d_93"/>
    <g id="text_28">
     <!-- $\sf i_{qs}$ -->
     <g transform="translate(550.603875 325.099670455)scale(0.144 -0.144)">
      <use transform="translate(0.0 0.984375)" xlink:href="#Cmss10-69"/>
      <use transform="translate(28.425546875000002 -16.715625000000003)scale(0.7)" xlink:href="#Cmss10-71"/>
      <use transform="translate(64.5534765625 -16.715625000000003)scale(0.7)" xlink:href="#Cmss10-73"/>
     </g>
    </g>
   </g>
  </g>
 </g>
 <defs>
  <clipPath id="pac05c02ab5">
   <rect height="222.545454545" width="518.4" x="59.275875" y="280.061420455"/>
  </clipPath>
  <clipPath id="pa26581d88c">
   <rect height="222.545454545" width="518.4" x="59.275875" y="13.006875"/>
  </clipPath>
 </defs>
</svg>
