<?xml version="1.0" encoding="utf-8" standalone="no"?>
<!DOCTYPE svg PUBLIC "-//W3C//DTD SVG 1.1//EN"
  "http://www.w3.org/Graphics/SVG/1.1/DTD/svg11.dtd">
<!-- Created with matplotlib (http://matplotlib.org/) -->
<svg height="538pt" version="1.1" viewBox="0 0 600 538" width="600pt" xmlns="http://www.w3.org/2000/svg" xmlns:xlink="http://www.w3.org/1999/xlink">
 <defs>
  <style type="text/css">
*{stroke-linecap:butt;stroke-linejoin:round;stroke-miterlimit:100000;}
  </style>
 </defs>
 <g id="figure_1">
  <g id="patch_1">
   <path d="M 0 538.55025 
L 600.145875 538.55025 
L 600.145875 0 
L 0 0 
z
" style="fill:none;opacity:0;"/>
  </g>
  <g id="axes_1">
   <g id="patch_2">
    <path d="M 66.910875 229.745455 
L 585.310875 229.745455 
L 585.310875 7.2 
L 66.910875 7.2 
z
" style="fill:#ffffff;"/>
   </g>
   <g id="matplotlib.axis_1">
    <g id="xtick_1">
     <g id="line2d_1">
      <path clip-path="url(#p99a06d90b6)" d="M 66.910875 229.745455 
L 66.910875 7.2 
" style="fill:none;stroke:#cbcbcb;"/>
     </g>
     <g id="line2d_2"/>
     <g id="line2d_3"/>
    </g>
    <g id="xtick_2">
     <g id="line2d_4">
      <path clip-path="url(#p99a06d90b6)" d="M 170.590875 229.745455 
L 170.590875 7.2 
" style="fill:none;stroke:#cbcbcb;"/>
     </g>
     <g id="line2d_5"/>
     <g id="line2d_6"/>
    </g>
    <g id="xtick_3">
     <g id="line2d_7">
      <path clip-path="url(#p99a06d90b6)" d="M 274.270875 229.745455 
L 274.270875 7.2 
" style="fill:none;stroke:#cbcbcb;"/>
     </g>
     <g id="line2d_8"/>
     <g id="line2d_9"/>
    </g>
    <g id="xtick_4">
     <g id="line2d_10">
      <path clip-path="url(#p99a06d90b6)" d="M 377.950875 229.745455 
L 377.950875 7.2 
" style="fill:none;stroke:#cbcbcb;"/>
     </g>
     <g id="line2d_11"/>
     <g id="line2d_12"/>
    </g>
    <g id="xtick_5">
     <g id="line2d_13">
      <path clip-path="url(#p99a06d90b6)" d="M 481.630875 229.745455 
L 481.630875 7.2 
" style="fill:none;stroke:#cbcbcb;"/>
     </g>
     <g id="line2d_14"/>
     <g id="line2d_15"/>
    </g>
    <g id="xtick_6">
     <g id="line2d_16">
      <path clip-path="url(#p99a06d90b6)" d="M 585.310875 229.745455 
L 585.310875 7.2 
" style="fill:none;stroke:#cbcbcb;"/>
     </g>
     <g id="line2d_17"/>
     <g id="line2d_18"/>
    </g>
   </g>
   <g id="matplotlib.axis_2">
    <g id="ytick_1">
     <g id="line2d_19">
      <path clip-path="url(#p99a06d90b6)" d="M 66.910875 211.2 
L 585.310875 211.2 
" style="fill:none;stroke:#cbcbcb;"/>
     </g>
     <g id="line2d_20"/>
     <g id="line2d_21"/>
     <g id="text_1">
      <!-- 0.0 -->
      <defs>
       <path d="M 31.78125 66.40625 
Q 24.171875 66.40625 20.328125 58.90625 
Q 16.5 51.421875 16.5 36.375 
Q 16.5 21.390625 20.328125 13.890625 
Q 24.171875 6.390625 31.78125 6.390625 
Q 39.453125 6.390625 43.28125 13.890625 
Q 47.125 21.390625 47.125 36.375 
Q 47.125 51.421875 43.28125 58.90625 
Q 39.453125 66.40625 31.78125 66.40625 
M 31.78125 74.21875 
Q 44.046875 74.21875 50.515625 64.515625 
Q 56.984375 54.828125 56.984375 36.375 
Q 56.984375 17.96875 50.515625 8.265625 
Q 44.046875 -1.421875 31.78125 -1.421875 
Q 19.53125 -1.421875 13.0625 8.265625 
Q 6.59375 17.96875 6.59375 36.375 
Q 6.59375 54.828125 13.0625 64.515625 
Q 19.53125 74.21875 31.78125 74.21875 
" id="BitstreamVeraSans-Roman-30"/>
       <path d="M 10.6875 12.40625 
L 21 12.40625 
L 21 0 
L 10.6875 0 
z
" id="BitstreamVeraSans-Roman-2e"/>
      </defs>
      <g transform="translate(43.827125 214.51125)scale(0.12 -0.12)">
       <use xlink:href="#BitstreamVeraSans-Roman-30"/>
       <use x="63.623046875" xlink:href="#BitstreamVeraSans-Roman-2e"/>
       <use x="95.41015625" xlink:href="#BitstreamVeraSans-Roman-30"/>
      </g>
     </g>
    </g>
    <g id="ytick_2">
     <g id="line2d_22">
      <path clip-path="url(#p99a06d90b6)" d="M 66.910875 174.109091 
L 585.310875 174.109091 
" style="fill:none;stroke:#cbcbcb;"/>
     </g>
     <g id="line2d_23"/>
     <g id="line2d_24"/>
     <g id="text_2">
      <!-- 0.2 -->
      <defs>
       <path d="M 19.1875 8.296875 
L 53.609375 8.296875 
L 53.609375 0 
L 7.328125 0 
L 7.328125 8.296875 
Q 12.9375 14.109375 22.625 23.890625 
Q 32.328125 33.6875 34.8125 36.53125 
Q 39.546875 41.84375 41.421875 45.53125 
Q 43.3125 49.21875 43.3125 52.78125 
Q 43.3125 58.59375 39.234375 62.25 
Q 35.15625 65.921875 28.609375 65.921875 
Q 23.96875 65.921875 18.8125 64.3125 
Q 13.671875 62.703125 7.8125 59.421875 
L 7.8125 69.390625 
Q 13.765625 71.78125 18.9375 73 
Q 24.125 74.21875 28.421875 74.21875 
Q 39.75 74.21875 46.484375 68.546875 
Q 53.21875 62.890625 53.21875 53.421875 
Q 53.21875 48.921875 51.53125 44.890625 
Q 49.859375 40.875 45.40625 35.40625 
Q 44.1875 33.984375 37.640625 27.21875 
Q 31.109375 20.453125 19.1875 8.296875 
" id="BitstreamVeraSans-Roman-32"/>
      </defs>
      <g transform="translate(43.827125 177.420340909)scale(0.12 -0.12)">
       <use xlink:href="#BitstreamVeraSans-Roman-30"/>
       <use x="63.623046875" xlink:href="#BitstreamVeraSans-Roman-2e"/>
       <use x="95.41015625" xlink:href="#BitstreamVeraSans-Roman-32"/>
      </g>
     </g>
    </g>
    <g id="ytick_3">
     <g id="line2d_25">
      <path clip-path="url(#p99a06d90b6)" d="M 66.910875 137.018182 
L 585.310875 137.018182 
" style="fill:none;stroke:#cbcbcb;"/>
     </g>
     <g id="line2d_26"/>
     <g id="line2d_27"/>
     <g id="text_3">
      <!-- 0.4 -->
      <defs>
       <path d="M 37.796875 64.3125 
L 12.890625 25.390625 
L 37.796875 25.390625 
z
M 35.203125 72.90625 
L 47.609375 72.90625 
L 47.609375 25.390625 
L 58.015625 25.390625 
L 58.015625 17.1875 
L 47.609375 17.1875 
L 47.609375 0 
L 37.796875 0 
L 37.796875 17.1875 
L 4.890625 17.1875 
L 4.890625 26.703125 
z
" id="BitstreamVeraSans-Roman-34"/>
      </defs>
      <g transform="translate(43.827125 140.329431818)scale(0.12 -0.12)">
       <use xlink:href="#BitstreamVeraSans-Roman-30"/>
       <use x="63.623046875" xlink:href="#BitstreamVeraSans-Roman-2e"/>
       <use x="95.41015625" xlink:href="#BitstreamVeraSans-Roman-34"/>
      </g>
     </g>
    </g>
    <g id="ytick_4">
     <g id="line2d_28">
      <path clip-path="url(#p99a06d90b6)" d="M 66.910875 99.927273 
L 585.310875 99.927273 
" style="fill:none;stroke:#cbcbcb;"/>
     </g>
     <g id="line2d_29"/>
     <g id="line2d_30"/>
     <g id="text_4">
      <!-- 0.6 -->
      <defs>
       <path d="M 33.015625 40.375 
Q 26.375 40.375 22.484375 35.828125 
Q 18.609375 31.296875 18.609375 23.390625 
Q 18.609375 15.53125 22.484375 10.953125 
Q 26.375 6.390625 33.015625 6.390625 
Q 39.65625 6.390625 43.53125 10.953125 
Q 47.40625 15.53125 47.40625 23.390625 
Q 47.40625 31.296875 43.53125 35.828125 
Q 39.65625 40.375 33.015625 40.375 
M 52.59375 71.296875 
L 52.59375 62.3125 
Q 48.875 64.0625 45.09375 64.984375 
Q 41.3125 65.921875 37.59375 65.921875 
Q 27.828125 65.921875 22.671875 59.328125 
Q 17.53125 52.734375 16.796875 39.40625 
Q 19.671875 43.65625 24.015625 45.921875 
Q 28.375 48.1875 33.59375 48.1875 
Q 44.578125 48.1875 50.953125 41.515625 
Q 57.328125 34.859375 57.328125 23.390625 
Q 57.328125 12.15625 50.6875 5.359375 
Q 44.046875 -1.421875 33.015625 -1.421875 
Q 20.359375 -1.421875 13.671875 8.265625 
Q 6.984375 17.96875 6.984375 36.375 
Q 6.984375 53.65625 15.1875 63.9375 
Q 23.390625 74.21875 37.203125 74.21875 
Q 40.921875 74.21875 44.703125 73.484375 
Q 48.484375 72.75 52.59375 71.296875 
" id="BitstreamVeraSans-Roman-36"/>
      </defs>
      <g transform="translate(43.827125 103.238522727)scale(0.12 -0.12)">
       <use xlink:href="#BitstreamVeraSans-Roman-30"/>
       <use x="63.623046875" xlink:href="#BitstreamVeraSans-Roman-2e"/>
       <use x="95.41015625" xlink:href="#BitstreamVeraSans-Roman-36"/>
      </g>
     </g>
    </g>
    <g id="ytick_5">
     <g id="line2d_31">
      <path clip-path="url(#p99a06d90b6)" d="M 66.910875 62.836364 
L 585.310875 62.836364 
" style="fill:none;stroke:#cbcbcb;"/>
     </g>
     <g id="line2d_32"/>
     <g id="line2d_33"/>
     <g id="text_5">
      <!-- 0.8 -->
      <defs>
       <path d="M 31.78125 34.625 
Q 24.75 34.625 20.71875 30.859375 
Q 16.703125 27.09375 16.703125 20.515625 
Q 16.703125 13.921875 20.71875 10.15625 
Q 24.75 6.390625 31.78125 6.390625 
Q 38.8125 6.390625 42.859375 10.171875 
Q 46.921875 13.96875 46.921875 20.515625 
Q 46.921875 27.09375 42.890625 30.859375 
Q 38.875 34.625 31.78125 34.625 
M 21.921875 38.8125 
Q 15.578125 40.375 12.03125 44.71875 
Q 8.5 49.078125 8.5 55.328125 
Q 8.5 64.0625 14.71875 69.140625 
Q 20.953125 74.21875 31.78125 74.21875 
Q 42.671875 74.21875 48.875 69.140625 
Q 55.078125 64.0625 55.078125 55.328125 
Q 55.078125 49.078125 51.53125 44.71875 
Q 48 40.375 41.703125 38.8125 
Q 48.828125 37.15625 52.796875 32.3125 
Q 56.78125 27.484375 56.78125 20.515625 
Q 56.78125 9.90625 50.3125 4.234375 
Q 43.84375 -1.421875 31.78125 -1.421875 
Q 19.734375 -1.421875 13.25 4.234375 
Q 6.78125 9.90625 6.78125 20.515625 
Q 6.78125 27.484375 10.78125 32.3125 
Q 14.796875 37.15625 21.921875 38.8125 
M 18.3125 54.390625 
Q 18.3125 48.734375 21.84375 45.5625 
Q 25.390625 42.390625 31.78125 42.390625 
Q 38.140625 42.390625 41.71875 45.5625 
Q 45.3125 48.734375 45.3125 54.390625 
Q 45.3125 60.0625 41.71875 63.234375 
Q 38.140625 66.40625 31.78125 66.40625 
Q 25.390625 66.40625 21.84375 63.234375 
Q 18.3125 60.0625 18.3125 54.390625 
" id="BitstreamVeraSans-Roman-38"/>
      </defs>
      <g transform="translate(43.827125 66.1476136364)scale(0.12 -0.12)">
       <use xlink:href="#BitstreamVeraSans-Roman-30"/>
       <use x="63.623046875" xlink:href="#BitstreamVeraSans-Roman-2e"/>
       <use x="95.41015625" xlink:href="#BitstreamVeraSans-Roman-38"/>
      </g>
     </g>
    </g>
    <g id="ytick_6">
     <g id="line2d_34">
      <path clip-path="url(#p99a06d90b6)" d="M 66.910875 25.745455 
L 585.310875 25.745455 
" style="fill:none;stroke:#cbcbcb;"/>
     </g>
     <g id="line2d_35"/>
     <g id="line2d_36"/>
     <g id="text_6">
      <!-- 1.0 -->
      <defs>
       <path d="M 12.40625 8.296875 
L 28.515625 8.296875 
L 28.515625 63.921875 
L 10.984375 60.40625 
L 10.984375 69.390625 
L 28.421875 72.90625 
L 38.28125 72.90625 
L 38.28125 8.296875 
L 54.390625 8.296875 
L 54.390625 0 
L 12.40625 0 
z
" id="BitstreamVeraSans-Roman-31"/>
      </defs>
      <g transform="translate(43.827125 29.0567045455)scale(0.12 -0.12)">
       <use xlink:href="#BitstreamVeraSans-Roman-31"/>
       <use x="63.623046875" xlink:href="#BitstreamVeraSans-Roman-2e"/>
       <use x="95.41015625" xlink:href="#BitstreamVeraSans-Roman-30"/>
      </g>
     </g>
    </g>
    <g id="text_7">
     <!-- Stator powers (MVA) -->
     <defs>
      <path d="M 28.609375 0 
L 0.78125 72.90625 
L 11.078125 72.90625 
L 34.1875 11.53125 
L 57.328125 72.90625 
L 67.578125 72.90625 
L 39.796875 0 
z
" id="BitstreamVeraSans-Roman-56"/>
      <path d="M 41.109375 46.296875 
Q 39.59375 47.171875 37.8125 47.578125 
Q 36.03125 48 33.890625 48 
Q 26.265625 48 22.1875 43.046875 
Q 18.109375 38.09375 18.109375 28.8125 
L 18.109375 0 
L 9.078125 0 
L 9.078125 54.6875 
L 18.109375 54.6875 
L 18.109375 46.1875 
Q 20.953125 51.171875 25.484375 53.578125 
Q 30.03125 56 36.53125 56 
Q 37.453125 56 38.578125 55.875 
Q 39.703125 55.765625 41.0625 55.515625 
z
" id="BitstreamVeraSans-Roman-72"/>
      <path d="M 8.015625 75.875 
L 15.828125 75.875 
Q 23.140625 64.359375 26.78125 53.3125 
Q 30.421875 42.28125 30.421875 31.390625 
Q 30.421875 20.453125 26.78125 9.375 
Q 23.140625 -1.703125 15.828125 -13.1875 
L 8.015625 -13.1875 
Q 14.5 -2 17.703125 9.0625 
Q 20.90625 20.125 20.90625 31.390625 
Q 20.90625 42.671875 17.703125 53.65625 
Q 14.5 64.65625 8.015625 75.875 
" id="BitstreamVeraSans-Roman-29"/>
      <path id="BitstreamVeraSans-Roman-20"/>
      <path d="M 56.203125 29.59375 
L 56.203125 25.203125 
L 14.890625 25.203125 
Q 15.484375 15.921875 20.484375 11.0625 
Q 25.484375 6.203125 34.421875 6.203125 
Q 39.59375 6.203125 44.453125 7.46875 
Q 49.3125 8.734375 54.109375 11.28125 
L 54.109375 2.78125 
Q 49.265625 0.734375 44.1875 -0.34375 
Q 39.109375 -1.421875 33.890625 -1.421875 
Q 20.796875 -1.421875 13.15625 6.1875 
Q 5.515625 13.8125 5.515625 26.8125 
Q 5.515625 40.234375 12.765625 48.109375 
Q 20.015625 56 32.328125 56 
Q 43.359375 56 49.78125 48.890625 
Q 56.203125 41.796875 56.203125 29.59375 
M 47.21875 32.234375 
Q 47.125 39.59375 43.09375 43.984375 
Q 39.0625 48.390625 32.421875 48.390625 
Q 24.90625 48.390625 20.390625 44.140625 
Q 15.875 39.890625 15.1875 32.171875 
z
" id="BitstreamVeraSans-Roman-65"/>
      <path d="M 4.203125 54.6875 
L 13.1875 54.6875 
L 24.421875 12.015625 
L 35.59375 54.6875 
L 46.1875 54.6875 
L 57.421875 12.015625 
L 68.609375 54.6875 
L 77.59375 54.6875 
L 63.28125 0 
L 52.6875 0 
L 40.921875 44.828125 
L 29.109375 0 
L 18.5 0 
z
" id="BitstreamVeraSans-Roman-77"/>
      <path d="M 44.28125 53.078125 
L 44.28125 44.578125 
Q 40.484375 46.53125 36.375 47.5 
Q 32.28125 48.484375 27.875 48.484375 
Q 21.1875 48.484375 17.84375 46.4375 
Q 14.5 44.390625 14.5 40.28125 
Q 14.5 37.15625 16.890625 35.375 
Q 19.28125 33.59375 26.515625 31.984375 
L 29.59375 31.296875 
Q 39.15625 29.25 43.1875 25.515625 
Q 47.21875 21.78125 47.21875 15.09375 
Q 47.21875 7.46875 41.1875 3.015625 
Q 35.15625 -1.421875 24.609375 -1.421875 
Q 20.21875 -1.421875 15.453125 -0.5625 
Q 10.6875 0.296875 5.421875 2 
L 5.421875 11.28125 
Q 10.40625 8.6875 15.234375 7.390625 
Q 20.0625 6.109375 24.8125 6.109375 
Q 31.15625 6.109375 34.5625 8.28125 
Q 37.984375 10.453125 37.984375 14.40625 
Q 37.984375 18.0625 35.515625 20.015625 
Q 33.0625 21.96875 24.703125 23.78125 
L 21.578125 24.515625 
Q 13.234375 26.265625 9.515625 29.90625 
Q 5.8125 33.546875 5.8125 39.890625 
Q 5.8125 47.609375 11.28125 51.796875 
Q 16.75 56 26.8125 56 
Q 31.78125 56 36.171875 55.265625 
Q 40.578125 54.546875 44.28125 53.078125 
" id="BitstreamVeraSans-Roman-73"/>
      <path d="M 34.28125 27.484375 
Q 23.390625 27.484375 19.1875 25 
Q 14.984375 22.515625 14.984375 16.5 
Q 14.984375 11.71875 18.140625 8.90625 
Q 21.296875 6.109375 26.703125 6.109375 
Q 34.1875 6.109375 38.703125 11.40625 
Q 43.21875 16.703125 43.21875 25.484375 
L 43.21875 27.484375 
z
M 52.203125 31.203125 
L 52.203125 0 
L 43.21875 0 
L 43.21875 8.296875 
Q 40.140625 3.328125 35.546875 0.953125 
Q 30.953125 -1.421875 24.3125 -1.421875 
Q 15.921875 -1.421875 10.953125 3.296875 
Q 6 8.015625 6 15.921875 
Q 6 25.140625 12.171875 29.828125 
Q 18.359375 34.515625 30.609375 34.515625 
L 43.21875 34.515625 
L 43.21875 35.40625 
Q 43.21875 41.609375 39.140625 45 
Q 35.0625 48.390625 27.6875 48.390625 
Q 23 48.390625 18.546875 47.265625 
Q 14.109375 46.140625 10.015625 43.890625 
L 10.015625 52.203125 
Q 14.9375 54.109375 19.578125 55.046875 
Q 24.21875 56 28.609375 56 
Q 40.484375 56 46.34375 49.84375 
Q 52.203125 43.703125 52.203125 31.203125 
" id="BitstreamVeraSans-Roman-61"/>
      <path d="M 18.109375 8.203125 
L 18.109375 -20.796875 
L 9.078125 -20.796875 
L 9.078125 54.6875 
L 18.109375 54.6875 
L 18.109375 46.390625 
Q 20.953125 51.265625 25.265625 53.625 
Q 29.59375 56 35.59375 56 
Q 45.5625 56 51.78125 48.09375 
Q 58.015625 40.1875 58.015625 27.296875 
Q 58.015625 14.40625 51.78125 6.484375 
Q 45.5625 -1.421875 35.59375 -1.421875 
Q 29.59375 -1.421875 25.265625 0.953125 
Q 20.953125 3.328125 18.109375 8.203125 
M 48.6875 27.296875 
Q 48.6875 37.203125 44.609375 42.84375 
Q 40.53125 48.484375 33.40625 48.484375 
Q 26.265625 48.484375 22.1875 42.84375 
Q 18.109375 37.203125 18.109375 27.296875 
Q 18.109375 17.390625 22.1875 11.75 
Q 26.265625 6.109375 33.40625 6.109375 
Q 40.53125 6.109375 44.609375 11.75 
Q 48.6875 17.390625 48.6875 27.296875 
" id="BitstreamVeraSans-Roman-70"/>
      <path d="M 34.1875 63.1875 
L 20.796875 26.90625 
L 47.609375 26.90625 
z
M 28.609375 72.90625 
L 39.796875 72.90625 
L 67.578125 0 
L 57.328125 0 
L 50.6875 18.703125 
L 17.828125 18.703125 
L 11.1875 0 
L 0.78125 0 
z
" id="BitstreamVeraSans-Roman-41"/>
      <path d="M 31 75.875 
Q 24.46875 64.65625 21.28125 53.65625 
Q 18.109375 42.671875 18.109375 31.390625 
Q 18.109375 20.125 21.3125 9.0625 
Q 24.515625 -2 31 -13.1875 
L 23.1875 -13.1875 
Q 15.875 -1.703125 12.234375 9.375 
Q 8.59375 20.453125 8.59375 31.390625 
Q 8.59375 42.28125 12.203125 53.3125 
Q 15.828125 64.359375 23.1875 75.875 
z
" id="BitstreamVeraSans-Roman-28"/>
      <path d="M 9.8125 72.90625 
L 24.515625 72.90625 
L 43.109375 23.296875 
L 61.8125 72.90625 
L 76.515625 72.90625 
L 76.515625 0 
L 66.890625 0 
L 66.890625 64.015625 
L 48.09375 14.015625 
L 38.1875 14.015625 
L 19.390625 64.015625 
L 19.390625 0 
L 9.8125 0 
z
" id="BitstreamVeraSans-Roman-4d"/>
      <path d="M 18.3125 70.21875 
L 18.3125 54.6875 
L 36.8125 54.6875 
L 36.8125 47.703125 
L 18.3125 47.703125 
L 18.3125 18.015625 
Q 18.3125 11.328125 20.140625 9.421875 
Q 21.96875 7.515625 27.59375 7.515625 
L 36.8125 7.515625 
L 36.8125 0 
L 27.59375 0 
Q 17.1875 0 13.234375 3.875 
Q 9.28125 7.765625 9.28125 18.015625 
L 9.28125 47.703125 
L 2.6875 47.703125 
L 2.6875 54.6875 
L 9.28125 54.6875 
L 9.28125 70.21875 
z
" id="BitstreamVeraSans-Roman-74"/>
      <path d="M 30.609375 48.390625 
Q 23.390625 48.390625 19.1875 42.75 
Q 14.984375 37.109375 14.984375 27.296875 
Q 14.984375 17.484375 19.15625 11.84375 
Q 23.34375 6.203125 30.609375 6.203125 
Q 37.796875 6.203125 41.984375 11.859375 
Q 46.1875 17.53125 46.1875 27.296875 
Q 46.1875 37.015625 41.984375 42.703125 
Q 37.796875 48.390625 30.609375 48.390625 
M 30.609375 56 
Q 42.328125 56 49.015625 48.375 
Q 55.71875 40.765625 55.71875 27.296875 
Q 55.71875 13.875 49.015625 6.21875 
Q 42.328125 -1.421875 30.609375 -1.421875 
Q 18.84375 -1.421875 12.171875 6.21875 
Q 5.515625 13.875 5.515625 27.296875 
Q 5.515625 40.765625 12.171875 48.375 
Q 18.84375 56 30.609375 56 
" id="BitstreamVeraSans-Roman-6f"/>
      <path d="M 53.515625 70.515625 
L 53.515625 60.890625 
Q 47.90625 63.578125 42.921875 64.890625 
Q 37.9375 66.21875 33.296875 66.21875 
Q 25.25 66.21875 20.875 63.09375 
Q 16.5 59.96875 16.5 54.203125 
Q 16.5 49.359375 19.40625 46.890625 
Q 22.3125 44.4375 30.421875 42.921875 
L 36.375 41.703125 
Q 47.40625 39.59375 52.65625 34.296875 
Q 57.90625 29 57.90625 20.125 
Q 57.90625 9.515625 50.796875 4.046875 
Q 43.703125 -1.421875 29.984375 -1.421875 
Q 24.8125 -1.421875 18.96875 -0.25 
Q 13.140625 0.921875 6.890625 3.21875 
L 6.890625 13.375 
Q 12.890625 10.015625 18.65625 8.296875 
Q 24.421875 6.59375 29.984375 6.59375 
Q 38.421875 6.59375 43.015625 9.90625 
Q 47.609375 13.234375 47.609375 19.390625 
Q 47.609375 24.75 44.3125 27.78125 
Q 41.015625 30.8125 33.5 32.328125 
L 27.484375 33.5 
Q 16.453125 35.6875 11.515625 40.375 
Q 6.59375 45.0625 6.59375 53.421875 
Q 6.59375 63.09375 13.40625 68.65625 
Q 20.21875 74.21875 32.171875 74.21875 
Q 37.3125 74.21875 42.625 73.28125 
Q 47.953125 72.359375 53.515625 70.515625 
" id="BitstreamVeraSans-Roman-53"/>
     </defs>
     <g transform="translate(35.832375 192.722727273)rotate(-90.0)scale(0.144 -0.144)">
      <use xlink:href="#BitstreamVeraSans-Roman-53"/>
      <use x="63.4765625" xlink:href="#BitstreamVeraSans-Roman-74"/>
      <use x="102.685546875" xlink:href="#BitstreamVeraSans-Roman-61"/>
      <use x="163.96484375" xlink:href="#BitstreamVeraSans-Roman-74"/>
      <use x="203.173828125" xlink:href="#BitstreamVeraSans-Roman-6f"/>
      <use x="264.35546875" xlink:href="#BitstreamVeraSans-Roman-72"/>
      <use x="305.46875" xlink:href="#BitstreamVeraSans-Roman-20"/>
      <use x="337.255859375" xlink:href="#BitstreamVeraSans-Roman-70"/>
      <use x="400.732421875" xlink:href="#BitstreamVeraSans-Roman-6f"/>
      <use x="461.9140625" xlink:href="#BitstreamVeraSans-Roman-77"/>
      <use x="543.701171875" xlink:href="#BitstreamVeraSans-Roman-65"/>
      <use x="605.224609375" xlink:href="#BitstreamVeraSans-Roman-72"/>
      <use x="646.337890625" xlink:href="#BitstreamVeraSans-Roman-73"/>
      <use x="698.4375" xlink:href="#BitstreamVeraSans-Roman-20"/>
      <use x="730.224609375" xlink:href="#BitstreamVeraSans-Roman-28"/>
      <use x="769.23828125" xlink:href="#BitstreamVeraSans-Roman-4d"/>
      <use x="855.517578125" xlink:href="#BitstreamVeraSans-Roman-56"/>
      <use x="923.83203125" xlink:href="#BitstreamVeraSans-Roman-41"/>
      <use x="992.240234375" xlink:href="#BitstreamVeraSans-Roman-29"/>
     </g>
    </g>
   </g>
   <g id="line2d_37">
    <path clip-path="url(#p99a06d90b6)" d="M 66.910875 234.96223 
L 67.429275 219.183427 
L 67.947675 219.158323 
L 68.984475 217.356002 
L 70.021275 215.993176 
L 71.058075 214.926609 
L 72.094875 214.093321 
L 73.650075 213.174575 
L 75.205275 212.54402 
L 77.278875 212.001777 
L 79.870875 211.618167 
L 83.499675 211.366704 
L 89.202075 211.238666 
L 104.754075 211.20067 
L 144.670875 211.2 
L 145.189275 183.316581 
L 146.226075 143.838115 
L 147.262875 114.131111 
L 148.299675 91.896257 
L 149.336475 75.254746 
L 150.373275 62.799583 
L 151.410075 53.477685 
L 152.446875 46.500863 
L 153.483675 41.279196 
L 154.520475 37.371155 
L 155.557275 34.446281 
L 156.594075 32.257242 
L 157.630875 30.618923 
L 158.667675 29.392779 
L 159.704475 28.475117 
L 160.741275 27.78833 
L 162.296475 27.068083 
L 163.851675 26.601763 
L 165.925275 26.225056 
L 169.035675 25.946476 
L 173.701275 25.8 
L 185.106075 25.747703 
L 274.270875 25.745455 
L 275.826075 25.928494 
L 278.418075 25.975828 
L 304.856475 25.74649 
L 584.792475 25.745455 
L 584.792475 25.745455 
" style="fill:none;stroke:#fc4f30;stroke-width:4.0;"/>
   </g>
   <g id="line2d_38">
    <path clip-path="url(#p99a06d90b6)" d="M 66.910875 460.047641 
L 67.429275 403.282739 
L 68.466075 356.24827 
L 69.502875 319.756213 
L 70.539675 292.439918 
L 71.576475 271.997034 
L 72.613275 256.698135 
L 73.650075 245.248901 
L 74.686875 236.680672 
L 75.723675 230.268519 
L 76.760475 225.469913 
L 77.797275 221.878838 
L 78.834075 219.191438 
L 79.870875 217.180316 
L 80.907675 215.675295 
L 81.944475 214.549018 
L 82.981275 213.706176 
L 84.536475 212.822369 
L 86.091675 212.250228 
L 88.165275 211.788107 
L 90.757275 211.48488 
L 94.386075 211.30326 
L 101.643675 211.213565 
L 136.894875 211.200001 
L 144.670875 211.2 
L 145.707675 210.912371 
L 147.262875 210.750986 
L 149.854875 210.77033 
L 161.778075 211.149824 
L 176.811675 211.198592 
L 274.270875 211.2 
L 274.789275 197.258291 
L 275.826075 177.519058 
L 276.862875 162.665556 
L 277.899675 151.548129 
L 278.936475 143.227373 
L 279.973275 136.999792 
L 281.010075 132.338842 
L 282.046875 128.850431 
L 283.083675 126.239598 
L 284.120475 124.285578 
L 285.157275 122.823141 
L 286.194075 121.728621 
L 287.230875 120.909461 
L 288.786075 120.050382 
L 290.341275 119.494165 
L 292.414875 119.044828 
L 295.006875 118.749924 
L 299.154075 118.559678 
L 307.448475 118.481281 
L 360.843675 118.472727 
L 584.792475 118.472727 
L 584.792475 118.472727 
" style="fill:none;stroke:#5cb85c;stroke-width:4.0;"/>
   </g>
   <g id="patch_3">
    <path d="M 66.910875 229.745455 
L 585.310875 229.745455 
" style="fill:none;stroke:#ffffff;stroke-linecap:square;stroke-linejoin:miter;stroke-width:3.0;"/>
   </g>
   <g id="patch_4">
    <path d="M 585.310875 229.745455 
L 585.310875 7.2 
" style="fill:none;stroke:#ffffff;stroke-linecap:square;stroke-linejoin:miter;stroke-width:3.0;"/>
   </g>
   <g id="patch_5">
    <path d="M 66.910875 229.745455 
L 66.910875 7.2 
" style="fill:none;stroke:#ffffff;stroke-linecap:square;stroke-linejoin:miter;stroke-width:3.0;"/>
   </g>
   <g id="patch_6">
    <path d="M 66.910875 7.2 
L 585.310875 7.2 
" style="fill:none;stroke:#ffffff;stroke-linecap:square;stroke-linejoin:miter;stroke-width:3.0;"/>
   </g>
   <g id="legend_1">
    <g id="patch_7">
     <path d="M 76.990875 60.993 
L 141.070875 60.993 
Q 143.950875 60.993 143.950875 58.113 
L 143.950875 17.28 
Q 143.950875 14.4 141.070875 14.4 
L 76.990875 14.4 
Q 74.110875 14.4 74.110875 17.28 
L 74.110875 58.113 
Q 74.110875 60.993 76.990875 60.993 
z
" style="fill:#ffffff;stroke:#ffffff;stroke-linejoin:miter;stroke-width:0.5;"/>
    </g>
    <g id="line2d_39">
     <path d="M 84.190875 26.06175 
L 104.350875 26.06175 
" style="fill:none;stroke:#fc4f30;stroke-width:4.0;"/>
    </g>
    <g id="line2d_40"/>
    <g id="text_8">
     <!-- $\sf p_{s1}$ -->
     <defs>
      <path d="M 8.015625 -19.390625 
L 8.015625 44.390625 
L 15.921875 44.390625 
L 15.921875 39.703125 
Q 22.953125 45.515625 33.015625 45.515625 
Q 37.9375 45.515625 41.375 41.75 
Q 44.828125 37.984375 46.5 32.53125 
Q 48.1875 27.09375 48.1875 22.21875 
Q 48.1875 16.890625 45.96875 11.375 
Q 43.75 5.859375 39.578125 2.359375 
Q 35.40625 -1.125 29.78125 -1.125 
Q 25.984375 -1.125 22.4375 0.359375 
Q 18.890625 1.859375 16.21875 4.390625 
L 16.21875 -19.390625 
z
M 16.21875 11.625 
Q 17.78125 8.734375 20.125 7.078125 
Q 22.46875 5.421875 25.484375 5.421875 
Q 29.78125 5.421875 33.078125 7.828125 
Q 36.375 10.25 38.171875 14.203125 
Q 39.984375 18.171875 39.984375 22.21875 
Q 39.984375 28.515625 36.328125 33.609375 
Q 32.671875 38.71875 26.703125 38.71875 
Q 24.703125 38.71875 22.671875 38.03125 
Q 20.65625 37.359375 19.046875 36.15625 
Q 17.4375 34.96875 16.21875 33.203125 
z
" id="Cmss10-70"/>
      <path d="M 2.78125 3.328125 
L 4.109375 10.5 
Q 11.1875 5.609375 19.671875 5.609375 
Q 23.34375 5.609375 25.921875 7.203125 
Q 28.515625 8.796875 28.515625 12.203125 
Q 28.515625 14.796875 26.53125 16.453125 
Q 24.5625 18.109375 21.921875 18.609375 
L 15.828125 19.828125 
Q 10.75 20.84375 7.03125 24.359375 
Q 3.328125 27.875 3.328125 32.8125 
Q 3.328125 37.359375 5.515625 40.359375 
Q 7.71875 43.359375 11.421875 44.71875 
Q 15.140625 46.09375 19.671875 46.09375 
Q 24.03125 46.09375 27.265625 45.375 
Q 30.515625 44.671875 34.28125 42.921875 
L 33.109375 35.890625 
Q 29.5 38.03125 26.140625 38.90625 
Q 22.796875 39.796875 18.609375 39.796875 
Q 15.328125 39.796875 13.0625 38.359375 
Q 10.796875 36.921875 10.796875 33.796875 
Q 10.796875 31.640625 12.5 30.09375 
Q 14.203125 28.5625 16.609375 27.984375 
L 23.296875 26.703125 
Q 26.703125 25.921875 29.609375 24.015625 
Q 32.515625 22.125 34.25 19.265625 
Q 35.984375 16.40625 35.984375 12.984375 
Q 35.984375 8.203125 33.859375 5.046875 
Q 31.734375 1.90625 28.09375 0.390625 
Q 24.46875 -1.125 19.671875 -1.125 
Q 10.6875 -1.125 2.78125 3.328125 
" id="Cmss10-73"/>
      <path d="M 9.28125 0 
L 9.28125 3.515625 
Q 21.78125 3.515625 21.78125 6.6875 
L 21.78125 59.1875 
Q 16.609375 56.6875 8.6875 56.6875 
L 8.6875 60.203125 
Q 20.953125 60.203125 27.203125 66.609375 
L 28.609375 66.609375 
Q 28.953125 66.609375 29.265625 66.328125 
Q 29.59375 66.0625 29.59375 65.71875 
L 29.59375 6.6875 
Q 29.59375 3.515625 42.09375 3.515625 
L 42.09375 0 
z
" id="Cmr10-31"/>
     </defs>
     <g transform="translate(120.190875 31.10175)scale(0.144 -0.144)">
      <use transform="translate(0.0 0.484375)" xlink:href="#Cmss10-70"/>
      <use transform="translate(56.257578125 -17.215625000000003)scale(0.7)" xlink:href="#Cmss10-73"/>
      <use transform="translate(83.05445312500001 -17.215625000000003)scale(0.7)" xlink:href="#Cmr10-31"/>
     </g>
    </g>
    <g id="line2d_41">
     <path d="M 84.190875 47.19825 
L 104.350875 47.19825 
" style="fill:none;stroke:#5cb85c;stroke-width:4.0;"/>
    </g>
    <g id="line2d_42"/>
    <g id="text_9">
     <!-- $\sf q_{s1}$ -->
     <defs>
      <path d="M 19.921875 -1.125 
Q 14.65625 -1.125 10.890625 2.53125 
Q 7.125 6.203125 5.265625 11.671875 
Q 3.421875 17.140625 3.421875 22.21875 
Q 3.421875 27.546875 5.59375 32.984375 
Q 7.765625 38.421875 11.984375 41.96875 
Q 16.21875 45.515625 21.78125 45.515625 
Q 25.78125 45.515625 29.390625 43.796875 
Q 33.015625 42.09375 35.6875 39.015625 
L 35.6875 45.515625 
L 43.609375 45.515625 
L 43.609375 -19.390625 
L 35.40625 -19.390625 
L 35.40625 4.78125 
Q 32.171875 1.953125 28.140625 0.40625 
Q 24.125 -1.125 19.921875 -1.125 
M 24.90625 5.421875 
Q 28.265625 5.421875 31.171875 7.34375 
Q 34.078125 9.28125 35.6875 12.3125 
L 35.6875 29.6875 
Q 34.625 33.5 32.203125 36.109375 
Q 29.78125 38.71875 26.125 38.71875 
Q 21.921875 38.71875 18.578125 36.328125 
Q 15.234375 33.9375 13.421875 30.09375 
Q 11.625 26.265625 11.625 22.21875 
Q 11.625 15.875 15.234375 10.640625 
Q 18.84375 5.421875 24.90625 5.421875 
" id="Cmss10-71"/>
     </defs>
     <g transform="translate(120.190875 52.23825)scale(0.144 -0.144)">
      <use transform="translate(0.0 0.484375)" xlink:href="#Cmss10-71"/>
      <use transform="translate(56.257578125 -17.215625000000003)scale(0.7)" xlink:href="#Cmss10-73"/>
      <use transform="translate(83.05445312500001 -17.215625000000003)scale(0.7)" xlink:href="#Cmr10-31"/>
     </g>
    </g>
   </g>
  </g>
  <g id="axes_2">
   <g id="patch_8">
    <path d="M 66.910875 496.8 
L 585.310875 496.8 
L 585.310875 274.254545 
L 66.910875 274.254545 
z
" style="fill:#ffffff;"/>
   </g>
   <g id="matplotlib.axis_3">
    <g id="xtick_7">
     <g id="line2d_43">
      <path clip-path="url(#p36f733bae5)" d="M 66.910875 496.8 
L 66.910875 274.254545 
" style="fill:none;stroke:#cbcbcb;"/>
     </g>
     <g id="line2d_44"/>
     <g id="line2d_45"/>
     <g id="text_10">
      <!-- 0 -->
      <g transform="translate(63.093375 509.918125)scale(0.12 -0.12)">
       <use xlink:href="#BitstreamVeraSans-Roman-30"/>
      </g>
     </g>
    </g>
    <g id="xtick_8">
     <g id="line2d_46">
      <path clip-path="url(#p36f733bae5)" d="M 170.590875 496.8 
L 170.590875 274.254545 
" style="fill:none;stroke:#cbcbcb;"/>
     </g>
     <g id="line2d_47"/>
     <g id="line2d_48"/>
     <g id="text_11">
      <!-- 2 -->
      <g transform="translate(166.773375 509.918125)scale(0.12 -0.12)">
       <use xlink:href="#BitstreamVeraSans-Roman-32"/>
      </g>
     </g>
    </g>
    <g id="xtick_9">
     <g id="line2d_49">
      <path clip-path="url(#p36f733bae5)" d="M 274.270875 496.8 
L 274.270875 274.254545 
" style="fill:none;stroke:#cbcbcb;"/>
     </g>
     <g id="line2d_50"/>
     <g id="line2d_51"/>
     <g id="text_12">
      <!-- 4 -->
      <g transform="translate(270.453375 509.918125)scale(0.12 -0.12)">
       <use xlink:href="#BitstreamVeraSans-Roman-34"/>
      </g>
     </g>
    </g>
    <g id="xtick_10">
     <g id="line2d_52">
      <path clip-path="url(#p36f733bae5)" d="M 377.950875 496.8 
L 377.950875 274.254545 
" style="fill:none;stroke:#cbcbcb;"/>
     </g>
     <g id="line2d_53"/>
     <g id="line2d_54"/>
     <g id="text_13">
      <!-- 6 -->
      <g transform="translate(374.133375 509.918125)scale(0.12 -0.12)">
       <use xlink:href="#BitstreamVeraSans-Roman-36"/>
      </g>
     </g>
    </g>
    <g id="xtick_11">
     <g id="line2d_55">
      <path clip-path="url(#p36f733bae5)" d="M 481.630875 496.8 
L 481.630875 274.254545 
" style="fill:none;stroke:#cbcbcb;"/>
     </g>
     <g id="line2d_56"/>
     <g id="line2d_57"/>
     <g id="text_14">
      <!-- 8 -->
      <g transform="translate(477.813375 509.918125)scale(0.12 -0.12)">
       <use xlink:href="#BitstreamVeraSans-Roman-38"/>
      </g>
     </g>
    </g>
    <g id="xtick_12">
     <g id="line2d_58">
      <path clip-path="url(#p36f733bae5)" d="M 585.310875 496.8 
L 585.310875 274.254545 
" style="fill:none;stroke:#cbcbcb;"/>
     </g>
     <g id="line2d_59"/>
     <g id="line2d_60"/>
     <g id="text_15">
      <!-- 10 -->
      <g transform="translate(577.675875 509.918125)scale(0.12 -0.12)">
       <use xlink:href="#BitstreamVeraSans-Roman-31"/>
       <use x="63.623046875" xlink:href="#BitstreamVeraSans-Roman-30"/>
      </g>
     </g>
    </g>
    <g id="text_16">
     <!-- Time (s) -->
     <defs>
      <path d="M -0.296875 72.90625 
L 61.375 72.90625 
L 61.375 64.59375 
L 35.5 64.59375 
L 35.5 0 
L 25.59375 0 
L 25.59375 64.59375 
L -0.296875 64.59375 
z
" id="BitstreamVeraSans-Roman-54"/>
      <path d="M 9.421875 54.6875 
L 18.40625 54.6875 
L 18.40625 0 
L 9.421875 0 
z
M 9.421875 75.984375 
L 18.40625 75.984375 
L 18.40625 64.59375 
L 9.421875 64.59375 
z
" id="BitstreamVeraSans-Roman-69"/>
      <path d="M 52 44.1875 
Q 55.375 50.25 60.0625 53.125 
Q 64.75 56 71.09375 56 
Q 79.640625 56 84.28125 50.015625 
Q 88.921875 44.046875 88.921875 33.015625 
L 88.921875 0 
L 79.890625 0 
L 79.890625 32.71875 
Q 79.890625 40.578125 77.09375 44.375 
Q 74.3125 48.1875 68.609375 48.1875 
Q 61.625 48.1875 57.5625 43.546875 
Q 53.515625 38.921875 53.515625 30.90625 
L 53.515625 0 
L 44.484375 0 
L 44.484375 32.71875 
Q 44.484375 40.625 41.703125 44.40625 
Q 38.921875 48.1875 33.109375 48.1875 
Q 26.21875 48.1875 22.15625 43.53125 
Q 18.109375 38.875 18.109375 30.90625 
L 18.109375 0 
L 9.078125 0 
L 9.078125 54.6875 
L 18.109375 54.6875 
L 18.109375 46.1875 
Q 21.1875 51.21875 25.484375 53.609375 
Q 29.78125 56 35.6875 56 
Q 41.65625 56 45.828125 52.96875 
Q 50 49.953125 52 44.1875 
" id="BitstreamVeraSans-Roman-6d"/>
     </defs>
     <g transform="translate(296.615625 528.3555)scale(0.144 -0.144)">
      <use xlink:href="#BitstreamVeraSans-Roman-54"/>
      <use x="61.037109375" xlink:href="#BitstreamVeraSans-Roman-69"/>
      <use x="88.8203125" xlink:href="#BitstreamVeraSans-Roman-6d"/>
      <use x="186.232421875" xlink:href="#BitstreamVeraSans-Roman-65"/>
      <use x="247.755859375" xlink:href="#BitstreamVeraSans-Roman-20"/>
      <use x="279.54296875" xlink:href="#BitstreamVeraSans-Roman-28"/>
      <use x="318.556640625" xlink:href="#BitstreamVeraSans-Roman-73"/>
      <use x="370.65625" xlink:href="#BitstreamVeraSans-Roman-29"/>
     </g>
    </g>
   </g>
   <g id="matplotlib.axis_4">
    <g id="ytick_7">
     <g id="line2d_61">
      <path clip-path="url(#p36f733bae5)" d="M 66.910875 496.8 
L 585.310875 496.8 
" style="fill:none;stroke:#cbcbcb;"/>
     </g>
     <g id="line2d_62"/>
     <g id="line2d_63"/>
     <g id="text_17">
      <!-- −0.15 -->
      <defs>
       <path d="M 10.796875 72.90625 
L 49.515625 72.90625 
L 49.515625 64.59375 
L 19.828125 64.59375 
L 19.828125 46.734375 
Q 21.96875 47.46875 24.109375 47.828125 
Q 26.265625 48.1875 28.421875 48.1875 
Q 40.625 48.1875 47.75 41.5 
Q 54.890625 34.8125 54.890625 23.390625 
Q 54.890625 11.625 47.5625 5.09375 
Q 40.234375 -1.421875 26.90625 -1.421875 
Q 22.3125 -1.421875 17.546875 -0.640625 
Q 12.796875 0.140625 7.71875 1.703125 
L 7.71875 11.625 
Q 12.109375 9.234375 16.796875 8.0625 
Q 21.484375 6.890625 26.703125 6.890625 
Q 35.15625 6.890625 40.078125 11.328125 
Q 45.015625 15.765625 45.015625 23.390625 
Q 45.015625 31 40.078125 35.4375 
Q 35.15625 39.890625 26.703125 39.890625 
Q 22.75 39.890625 18.8125 39.015625 
Q 14.890625 38.140625 10.796875 36.28125 
z
" id="BitstreamVeraSans-Roman-35"/>
       <path d="M 10.59375 35.5 
L 73.1875 35.5 
L 73.1875 27.203125 
L 10.59375 27.203125 
z
" id="BitstreamVeraSans-Roman-2212"/>
      </defs>
      <g transform="translate(26.1365 500.11125)scale(0.12 -0.12)">
       <use xlink:href="#BitstreamVeraSans-Roman-2212"/>
       <use x="83.7890625" xlink:href="#BitstreamVeraSans-Roman-30"/>
       <use x="147.412109375" xlink:href="#BitstreamVeraSans-Roman-2e"/>
       <use x="179.19921875" xlink:href="#BitstreamVeraSans-Roman-31"/>
       <use x="242.822265625" xlink:href="#BitstreamVeraSans-Roman-35"/>
      </g>
     </g>
    </g>
    <g id="ytick_8">
     <g id="line2d_64">
      <path clip-path="url(#p36f733bae5)" d="M 66.910875 459.709091 
L 585.310875 459.709091 
" style="fill:none;stroke:#cbcbcb;"/>
     </g>
     <g id="line2d_65"/>
     <g id="line2d_66"/>
     <g id="text_18">
      <!-- −0.10 -->
      <g transform="translate(26.1365 463.020340909)scale(0.12 -0.12)">
       <use xlink:href="#BitstreamVeraSans-Roman-2212"/>
       <use x="83.7890625" xlink:href="#BitstreamVeraSans-Roman-30"/>
       <use x="147.412109375" xlink:href="#BitstreamVeraSans-Roman-2e"/>
       <use x="179.19921875" xlink:href="#BitstreamVeraSans-Roman-31"/>
       <use x="242.822265625" xlink:href="#BitstreamVeraSans-Roman-30"/>
      </g>
     </g>
    </g>
    <g id="ytick_9">
     <g id="line2d_67">
      <path clip-path="url(#p36f733bae5)" d="M 66.910875 422.618182 
L 585.310875 422.618182 
" style="fill:none;stroke:#cbcbcb;"/>
     </g>
     <g id="line2d_68"/>
     <g id="line2d_69"/>
     <g id="text_19">
      <!-- −0.05 -->
      <g transform="translate(26.1365 425.929431818)scale(0.12 -0.12)">
       <use xlink:href="#BitstreamVeraSans-Roman-2212"/>
       <use x="83.7890625" xlink:href="#BitstreamVeraSans-Roman-30"/>
       <use x="147.412109375" xlink:href="#BitstreamVeraSans-Roman-2e"/>
       <use x="179.19921875" xlink:href="#BitstreamVeraSans-Roman-30"/>
       <use x="242.822265625" xlink:href="#BitstreamVeraSans-Roman-35"/>
      </g>
     </g>
    </g>
    <g id="ytick_10">
     <g id="line2d_70">
      <path clip-path="url(#p36f733bae5)" d="M 66.910875 385.527273 
L 585.310875 385.527273 
" style="fill:none;stroke:#cbcbcb;"/>
     </g>
     <g id="line2d_71"/>
     <g id="line2d_72"/>
     <g id="text_20">
      <!-- 0.00 -->
      <g transform="translate(36.192125 388.838522727)scale(0.12 -0.12)">
       <use xlink:href="#BitstreamVeraSans-Roman-30"/>
       <use x="63.623046875" xlink:href="#BitstreamVeraSans-Roman-2e"/>
       <use x="95.41015625" xlink:href="#BitstreamVeraSans-Roman-30"/>
       <use x="159.033203125" xlink:href="#BitstreamVeraSans-Roman-30"/>
      </g>
     </g>
    </g>
    <g id="ytick_11">
     <g id="line2d_73">
      <path clip-path="url(#p36f733bae5)" d="M 66.910875 348.436364 
L 585.310875 348.436364 
" style="fill:none;stroke:#cbcbcb;"/>
     </g>
     <g id="line2d_74"/>
     <g id="line2d_75"/>
     <g id="text_21">
      <!-- 0.05 -->
      <g transform="translate(36.192125 351.747613636)scale(0.12 -0.12)">
       <use xlink:href="#BitstreamVeraSans-Roman-30"/>
       <use x="63.623046875" xlink:href="#BitstreamVeraSans-Roman-2e"/>
       <use x="95.41015625" xlink:href="#BitstreamVeraSans-Roman-30"/>
       <use x="159.033203125" xlink:href="#BitstreamVeraSans-Roman-35"/>
      </g>
     </g>
    </g>
    <g id="ytick_12">
     <g id="line2d_76">
      <path clip-path="url(#p36f733bae5)" d="M 66.910875 311.345455 
L 585.310875 311.345455 
" style="fill:none;stroke:#cbcbcb;"/>
     </g>
     <g id="line2d_77"/>
     <g id="line2d_78"/>
     <g id="text_22">
      <!-- 0.10 -->
      <g transform="translate(36.192125 314.656704545)scale(0.12 -0.12)">
       <use xlink:href="#BitstreamVeraSans-Roman-30"/>
       <use x="63.623046875" xlink:href="#BitstreamVeraSans-Roman-2e"/>
       <use x="95.41015625" xlink:href="#BitstreamVeraSans-Roman-31"/>
       <use x="159.033203125" xlink:href="#BitstreamVeraSans-Roman-30"/>
      </g>
     </g>
    </g>
    <g id="ytick_13">
     <g id="line2d_79">
      <path clip-path="url(#p36f733bae5)" d="M 66.910875 274.254545 
L 585.310875 274.254545 
" style="fill:none;stroke:#cbcbcb;"/>
     </g>
     <g id="line2d_80"/>
     <g id="line2d_81"/>
     <g id="text_23">
      <!-- 0.15 -->
      <g transform="translate(36.192125 277.565795455)scale(0.12 -0.12)">
       <use xlink:href="#BitstreamVeraSans-Roman-30"/>
       <use x="63.623046875" xlink:href="#BitstreamVeraSans-Roman-2e"/>
       <use x="95.41015625" xlink:href="#BitstreamVeraSans-Roman-31"/>
       <use x="159.033203125" xlink:href="#BitstreamVeraSans-Roman-35"/>
      </g>
     </g>
    </g>
    <g id="text_24">
     <!-- Rotor powers (MVA) -->
     <defs>
      <path d="M 44.390625 34.1875 
Q 47.5625 33.109375 50.5625 29.59375 
Q 53.5625 26.078125 56.59375 19.921875 
L 66.609375 0 
L 56 0 
L 46.6875 18.703125 
Q 43.0625 26.03125 39.671875 28.421875 
Q 36.28125 30.8125 30.421875 30.8125 
L 19.671875 30.8125 
L 19.671875 0 
L 9.8125 0 
L 9.8125 72.90625 
L 32.078125 72.90625 
Q 44.578125 72.90625 50.734375 67.671875 
Q 56.890625 62.453125 56.890625 51.90625 
Q 56.890625 45.015625 53.6875 40.46875 
Q 50.484375 35.9375 44.390625 34.1875 
M 19.671875 64.796875 
L 19.671875 38.921875 
L 32.078125 38.921875 
Q 39.203125 38.921875 42.84375 42.21875 
Q 46.484375 45.515625 46.484375 51.90625 
Q 46.484375 58.296875 42.84375 61.546875 
Q 39.203125 64.796875 32.078125 64.796875 
z
" id="BitstreamVeraSans-Roman-52"/>
     </defs>
     <g transform="translate(18.14175 457.375397727)rotate(-90.0)scale(0.144 -0.144)">
      <use xlink:href="#BitstreamVeraSans-Roman-52"/>
      <use x="69.419921875" xlink:href="#BitstreamVeraSans-Roman-6f"/>
      <use x="130.6015625" xlink:href="#BitstreamVeraSans-Roman-74"/>
      <use x="169.810546875" xlink:href="#BitstreamVeraSans-Roman-6f"/>
      <use x="230.9921875" xlink:href="#BitstreamVeraSans-Roman-72"/>
      <use x="272.10546875" xlink:href="#BitstreamVeraSans-Roman-20"/>
      <use x="303.892578125" xlink:href="#BitstreamVeraSans-Roman-70"/>
      <use x="367.369140625" xlink:href="#BitstreamVeraSans-Roman-6f"/>
      <use x="428.55078125" xlink:href="#BitstreamVeraSans-Roman-77"/>
      <use x="510.337890625" xlink:href="#BitstreamVeraSans-Roman-65"/>
      <use x="571.861328125" xlink:href="#BitstreamVeraSans-Roman-72"/>
      <use x="612.974609375" xlink:href="#BitstreamVeraSans-Roman-73"/>
      <use x="665.07421875" xlink:href="#BitstreamVeraSans-Roman-20"/>
      <use x="696.861328125" xlink:href="#BitstreamVeraSans-Roman-28"/>
      <use x="735.875" xlink:href="#BitstreamVeraSans-Roman-4d"/>
      <use x="822.154296875" xlink:href="#BitstreamVeraSans-Roman-56"/>
      <use x="890.46875" xlink:href="#BitstreamVeraSans-Roman-41"/>
      <use x="958.876953125" xlink:href="#BitstreamVeraSans-Roman-29"/>
     </g>
    </g>
   </g>
   <g id="line2d_82">
    <path clip-path="url(#p36f733bae5)" d="M 66.910875 375.011318 
L 67.429275 381.59136 
L 67.947675 381.370296 
L 68.466075 381.424606 
L 69.502875 381.213621 
L 74.168475 379.742396 
L 76.242075 379.387202 
L 79.352475 379.115331 
L 84.018075 378.97712 
L 95.941275 378.934289 
L 144.670875 378.933333 
L 146.226075 369.900889 
L 147.781275 361.912357 
L 148.818075 357.636085 
L 150.373275 352.643585 
L 151.410075 350.072386 
L 151.928475 348.94918 
L 154.002075 346.237817 
L 154.520475 345.644382 
L 155.557275 344.802974 
L 156.075675 344.594596 
L 157.630875 343.61919 
L 159.704475 343.085502 
L 161.259675 342.500375 
L 161.778075 342.408797 
L 162.296475 342.526636 
L 162.814875 342.216079 
L 163.333275 342.224444 
L 163.851675 341.963713 
L 165.406875 341.870191 
L 166.443675 341.492835 
L 167.998875 341.154905 
L 169.035675 341.081742 
L 171.109275 341.219137 
L 172.664475 341.005713 
L 175.256475 341.125011 
L 175.774875 341.383912 
L 176.293275 341.422682 
L 176.811675 341.30177 
L 177.848475 341.39032 
L 178.366875 341.315964 
L 178.885275 341.450897 
L 179.403675 341.348442 
L 179.922075 341.425529 
L 180.440475 341.304154 
L 180.958875 341.379496 
L 183.032475 341.092009 
L 184.069275 341.312449 
L 185.106075 341.036548 
L 186.142875 341.022231 
L 186.661275 340.905616 
L 188.734875 341.040757 
L 189.253275 340.960054 
L 189.771675 341.00032 
L 190.808475 340.842429 
L 191.326875 340.865824 
L 192.363675 340.724464 
L 192.882075 340.716551 
L 193.400475 340.546144 
L 195.474075 340.493983 
L 195.992475 340.377179 
L 196.510875 340.401431 
L 197.029275 340.553533 
L 197.547675 340.368642 
L 199.621275 340.146812 
L 200.658075 340.359064 
L 201.694875 340.211649 
L 202.731675 340.073206 
L 203.768475 340.024899 
L 206.360475 339.853869 
L 208.952475 339.725679 
L 211.544475 339.859448 
L 214.136475 339.405824 
L 214.654875 339.454128 
L 215.691675 339.294126 
L 216.210075 339.268313 
L 217.246875 339.425136 
L 218.283675 339.360004 
L 219.320475 339.25272 
L 219.838875 339.056566 
L 220.357275 339.076986 
L 220.875675 338.920903 
L 222.430875 339.174726 
L 223.467675 339.081438 
L 226.578075 339.14283 
L 227.096475 339.076826 
L 228.651675 339.182579 
L 230.206875 338.990755 
L 230.725275 339.045706 
L 234.872475 338.589459 
L 235.909275 338.928942 
L 237.464475 338.696202 
L 239.019675 339.010189 
L 240.056475 338.899983 
L 241.093275 339.055573 
L 242.648475 339.046277 
L 243.685275 338.719651 
L 244.203675 338.692388 
L 244.722075 338.826757 
L 245.758875 338.64522 
L 246.277275 338.73443 
L 247.832475 338.514555 
L 249.906075 338.500693 
L 250.942875 338.631418 
L 255.090075 338.714151 
L 256.126875 338.98452 
L 256.645275 338.986047 
L 257.682075 338.717268 
L 258.718875 338.624931 
L 259.755675 338.668238 
L 262.866075 338.702463 
L 266.494875 338.72728 
L 267.531675 338.57334 
L 268.050075 338.753433 
L 269.605275 338.706173 
L 271.160475 338.810089 
L 271.678875 338.858746 
L 272.197275 338.599105 
L 274.270875 338.639546 
L 274.789275 337.820636 
L 276.344475 336.240101 
L 277.381275 335.226765 
L 278.936475 334.205723 
L 281.528475 333.405345 
L 282.565275 333.269281 
L 283.083675 333.232827 
L 284.638875 332.702644 
L 285.675675 332.530216 
L 286.194075 332.477076 
L 286.712475 332.307546 
L 288.267675 332.175791 
L 288.786075 331.865755 
L 289.304475 331.881571 
L 290.341275 331.681772 
L 290.859675 331.821321 
L 292.414875 331.790412 
L 293.451675 331.743287 
L 296.043675 331.238514 
L 298.635675 331.348815 
L 299.154075 331.466282 
L 300.190875 331.300608 
L 304.338075 331.73666 
L 304.856475 331.753033 
L 305.374875 331.62305 
L 306.930075 331.754593 
L 309.003675 331.646945 
L 310.558875 331.85146 
L 312.114075 331.823152 
L 313.669275 331.933991 
L 314.706075 331.760752 
L 316.261275 331.795279 
L 318.334875 331.70329 
L 319.371675 331.393518 
L 323.518875 330.973999 
L 324.037275 330.78415 
L 324.555675 330.916302 
L 325.074075 330.907136 
L 325.592475 331.024145 
L 327.666075 330.602879 
L 328.702875 330.450673 
L 329.221275 330.568904 
L 329.739675 330.407759 
L 330.258075 330.568327 
L 330.776475 330.483892 
L 331.294875 330.589721 
L 331.813275 330.814794 
L 333.886875 330.545299 
L 337.515675 330.893269 
L 338.034075 331.058796 
L 339.070875 331.075292 
L 340.626075 330.813906 
L 341.144475 330.846404 
L 341.662875 330.76482 
L 342.181275 330.978078 
L 345.291675 330.861089 
L 348.402075 330.704959 
L 348.920475 330.907072 
L 349.438875 330.916097 
L 349.957275 331.047387 
L 350.994075 330.771807 
L 351.512475 330.777498 
L 352.030875 330.614756 
L 353.586075 330.537495 
L 354.104475 330.500855 
L 354.622875 330.626611 
L 355.141275 330.473028 
L 355.659675 330.474639 
L 356.178075 330.344747 
L 356.696475 330.427322 
L 357.214875 330.306764 
L 359.806875 330.398232 
L 360.325275 330.269724 
L 362.398875 330.281278 
L 363.435675 330.263446 
L 364.990875 330.361699 
L 365.509275 330.264162 
L 366.027675 330.320772 
L 366.546075 330.198889 
L 368.619675 330.212863 
L 369.138075 330.08207 
L 370.174875 330.202109 
L 371.211675 330.293925 
L 371.730075 330.235646 
L 373.285275 330.41895 
L 373.803675 330.335759 
L 375.358875 330.448942 
L 375.877275 330.434905 
L 376.914075 330.17691 
L 377.432475 330.101045 
L 378.469275 330.21472 
L 378.987675 330.075298 
L 379.506075 330.286403 
L 380.024475 330.226438 
L 380.542875 330.413349 
L 381.579675 330.415635 
L 383.134875 330.608657 
L 384.690075 330.718965 
L 385.726875 330.736494 
L 390.910875 330.36936 
L 391.947675 330.388504 
L 392.984475 330.306931 
L 394.021275 330.340051 
L 395.058075 330.528149 
L 395.576475 330.448522 
L 396.094875 330.556737 
L 397.131675 330.328137 
L 399.723675 330.499182 
L 400.242075 330.347198 
L 401.797275 330.38144 
L 402.834075 330.59042 
L 403.352475 330.467381 
L 405.426075 330.491493 
L 410.091675 330.051744 
L 410.610075 330.151832 
L 413.202075 330.023009 
L 413.720475 330.183687 
L 416.312475 329.856271 
L 419.422875 329.447307 
L 419.941275 329.166997 
L 422.014875 329.38599 
L 423.051675 329.621525 
L 425.125275 329.688785 
L 425.643675 329.600612 
L 426.162075 329.654678 
L 426.680475 329.868589 
L 427.717275 329.472634 
L 429.272475 329.578381 
L 430.309275 329.82925 
L 433.419675 329.410401 
L 434.456475 329.5141 
L 436.530075 329.485505 
L 438.603675 329.495183 
L 440.158875 329.347765 
L 443.269275 329.537232 
L 444.824475 329.661956 
L 445.342875 329.759314 
L 450.008475 329.33721 
L 450.526875 329.215146 
L 451.563675 329.241592 
L 452.082075 329.107941 
L 452.600475 329.212346 
L 453.118875 329.166011 
L 453.637275 328.980605 
L 456.229275 329.211462 
L 457.266075 329.2662 
L 459.858075 329.312165 
L 460.376475 329.457891 
L 462.450075 329.402201 
L 463.486875 329.211279 
L 464.005275 329.303276 
L 465.042075 329.250515 
L 466.078875 329.073659 
L 467.634075 328.791359 
L 468.670875 328.802642 
L 469.707675 328.755927 
L 470.226075 328.757623 
L 470.744475 328.588314 
L 471.262875 328.759607 
L 472.299675 328.477355 
L 473.336475 328.70442 
L 473.854875 328.594499 
L 474.891675 328.730618 
L 475.410075 328.753266 
L 475.928475 328.646051 
L 476.965275 328.723751 
L 478.002075 328.717313 
L 478.520475 328.799288 
L 479.038875 328.583904 
L 479.557275 328.573882 
L 480.075675 328.741708 
L 480.594075 328.652922 
L 481.112475 328.763481 
L 483.704475 328.581175 
L 484.222875 328.462361 
L 484.741275 328.745883 
L 487.851675 328.554333 
L 488.888475 328.347263 
L 489.925275 328.511222 
L 490.962075 328.448456 
L 491.998875 328.178582 
L 493.554075 328.221785 
L 494.072475 328.011283 
L 494.590875 327.931996 
L 495.627675 328.006892 
L 496.146075 327.704746 
L 497.182875 327.528298 
L 500.811675 327.311539 
L 501.330075 327.443773 
L 502.366875 327.479521 
L 502.885275 327.246052 
L 503.403675 327.301846 
L 503.922075 327.175615 
L 504.440475 327.221577 
L 505.477275 327.027715 
L 507.032475 326.947098 
L 507.550875 326.803496 
L 508.587675 326.858884 
L 509.106075 326.953649 
L 510.661275 326.701228 
L 511.179675 326.937492 
L 512.734875 326.969501 
L 513.771675 326.942833 
L 514.290075 326.859539 
L 514.808475 326.950259 
L 516.363675 326.85196 
L 517.918875 327.004583 
L 519.474075 326.833154 
L 519.992475 326.726692 
L 521.547675 326.962276 
L 522.584475 326.738433 
L 523.102875 326.846668 
L 523.621275 326.821051 
L 524.658075 326.980727 
L 525.176475 326.891157 
L 526.213275 327.017251 
L 528.805275 326.928387 
L 529.842075 327.126542 
L 530.878875 326.936841 
L 532.434075 327.24425 
L 532.952475 327.090118 
L 534.507675 327.032803 
L 535.026075 327.265861 
L 537.099675 327.283033 
L 538.136475 327.244314 
L 539.173275 327.146128 
L 539.691675 327.270247 
L 549.541275 326.679262 
L 551.096475 326.680461 
L 551.614875 326.610117 
L 552.133275 326.737584 
L 553.170075 326.653693 
L 553.688475 326.551994 
L 554.725275 326.64313 
L 559.390875 326.189883 
L 560.427675 326.289828 
L 561.464475 326.224502 
L 563.019675 326.380188 
L 563.538075 326.413048 
L 564.574875 326.28689 
L 566.130075 326.354649 
L 566.648475 326.079926 
L 567.166875 325.93204 
L 568.203675 326.001796 
L 568.722075 325.810659 
L 569.240475 325.85565 
L 570.277275 325.669807 
L 572.350875 326.078798 
L 572.869275 326.066172 
L 573.387675 326.168397 
L 574.424475 326.03486 
L 574.942875 326.071985 
L 575.461275 325.961218 
L 576.498075 326.01538 
L 578.053275 325.865955 
L 579.608475 325.800985 
L 582.200475 325.728415 
L 582.718875 325.508169 
L 584.792475 325.730317 
L 584.792475 325.730317 
" style="fill:none;stroke:#fc4f30;stroke-width:4.0;"/>
   </g>
   <g id="line2d_83">
    <path clip-path="url(#p36f733bae5)" d="M 66.910875 381.818258 
L 67.429275 405.102851 
L 68.466075 424.910536 
L 69.502875 440.522512 
L 70.539675 452.348872 
L 71.576475 461.276019 
L 72.613275 467.998488 
L 73.650075 473.051838 
L 74.686875 476.845574 
L 75.723675 479.690952 
L 76.760475 481.823539 
L 77.797275 483.42106 
L 78.834075 484.617301 
L 79.870875 485.512803 
L 80.907675 486.183029 
L 82.462875 486.885789 
L 84.018075 487.340601 
L 86.091675 487.707769 
L 89.202075 487.978993 
L 93.867675 488.121343 
L 105.272475 488.172007 
L 118.750875 488.174122 
L 122.379675 470.601448 
L 124.971675 458.518987 
L 127.045275 448.2221 
L 128.600475 440.457583 
L 130.674075 429.892747 
L 132.229275 422.572743 
L 136.894875 399.048551 
L 138.968475 388.830632 
L 141.042075 377.830785 
L 143.115675 367.753979 
L 145.707675 355.25675 
L 146.744475 351.560339 
L 147.262875 349.887782 
L 148.299675 347.550361 
L 148.818075 346.489367 
L 149.336475 345.746018 
L 149.854875 344.738325 
L 151.928475 342.049292 
L 152.446875 341.947392 
L 153.483675 341.253761 
L 154.002075 341.096834 
L 154.520475 340.754854 
L 155.557275 340.389883 
L 156.075675 340.436702 
L 157.630875 339.812479 
L 158.149275 339.854928 
L 160.741275 339.405659 
L 161.259675 339.139013 
L 161.778075 339.080296 
L 162.296475 339.309328 
L 162.814875 338.922201 
L 163.333275 338.980387 
L 163.851675 338.651281 
L 165.406875 338.610052 
L 165.925275 338.28988 
L 167.998875 337.686642 
L 168.517275 337.569625 
L 171.627675 337.680117 
L 172.146075 337.484765 
L 175.256475 337.71613 
L 175.774875 338.082572 
L 176.293275 338.138486 
L 176.811675 337.969135 
L 177.330075 338.110122 
L 178.366875 337.991619 
L 178.885275 338.182431 
L 179.403675 338.038544 
L 179.922075 338.147662 
L 180.440475 337.976975 
L 180.958875 338.083517 
L 182.514075 337.613605 
L 183.032475 337.679273 
L 183.550875 337.897811 
L 184.069275 337.990296 
L 185.106075 337.601651 
L 185.624475 337.649158 
L 187.179675 337.50209 
L 188.216475 337.612908 
L 189.771675 337.551099 
L 190.808475 337.328603 
L 191.326875 337.361598 
L 192.363675 337.162385 
L 192.882075 337.151245 
L 193.400475 336.911073 
L 194.437275 336.826017 
L 196.510875 336.707143 
L 197.029275 336.921531 
L 197.547675 336.660936 
L 199.621275 336.348283 
L 200.658075 336.647449 
L 201.694875 336.439674 
L 202.731675 336.244545 
L 203.250075 336.281545 
L 204.805275 336.065524 
L 210.507675 335.796382 
L 211.544475 335.943264 
L 214.136475 335.303895 
L 214.654875 335.371978 
L 215.173275 335.190228 
L 216.210075 335.110077 
L 217.246875 335.331114 
L 218.283675 335.239313 
L 219.320475 335.088099 
L 219.838875 334.811626 
L 220.357275 334.840407 
L 220.875675 334.620414 
L 222.430875 334.978169 
L 223.467675 334.846682 
L 224.504475 334.867602 
L 225.022875 335.051306 
L 227.614875 334.925002 
L 228.133275 335.038032 
L 229.688475 334.825502 
L 230.206875 334.718867 
L 230.725275 334.796319 
L 234.872475 334.153253 
L 235.390875 334.46861 
L 235.909275 334.631743 
L 237.464475 334.303704 
L 239.019675 334.74626 
L 240.056475 334.590927 
L 241.093275 334.810227 
L 242.648475 334.797124 
L 243.166875 334.483395 
L 244.203675 334.298328 
L 244.722075 334.487718 
L 245.758875 334.231846 
L 246.277275 334.357584 
L 247.314075 334.009296 
L 248.350875 334.011938 
L 249.387675 333.967468 
L 252.498075 334.252518 
L 253.534875 334.150571 
L 254.571675 334.269927 
L 255.090075 334.329003 
L 256.126875 334.710079 
L 256.645275 334.712231 
L 257.682075 334.333395 
L 258.718875 334.20325 
L 259.237275 334.301771 
L 260.274075 334.247026 
L 260.792475 334.344021 
L 261.310875 334.10687 
L 262.347675 334.27192 
L 264.939675 334.503353 
L 265.976475 334.282182 
L 266.494875 334.347507 
L 267.531675 334.130534 
L 268.050075 334.38437 
L 269.605275 334.317757 
L 270.642075 334.236664 
L 271.160475 334.464223 
L 271.678875 334.532804 
L 272.197275 334.166848 
L 273.752475 334.282522 
L 274.270875 334.223848 
L 274.789275 331.054928 
L 276.344475 324.985907 
L 277.381275 321.777884 
L 278.418075 319.454859 
L 278.936475 318.526739 
L 279.454875 317.87643 
L 280.491675 316.853523 
L 281.528475 315.826629 
L 282.046875 315.469764 
L 283.083675 315.135499 
L 284.638875 313.880206 
L 285.157275 313.760991 
L 285.675675 313.441284 
L 286.194075 313.296908 
L 286.712475 312.928771 
L 288.267675 312.591957 
L 288.786075 311.96004 
L 289.304475 311.974922 
L 290.341275 311.552951 
L 290.859675 311.819058 
L 291.896475 311.996419 
L 292.414875 311.734619 
L 292.933275 311.744805 
L 293.970075 311.41425 
L 294.488475 311.173277 
L 295.006875 311.152921 
L 295.525275 310.733279 
L 296.043675 310.612185 
L 297.598875 310.672024 
L 298.117275 310.840254 
L 298.635675 310.823653 
L 299.154075 311.056118 
L 300.190875 310.725403 
L 301.227675 310.97397 
L 302.264475 311.436312 
L 303.819675 311.438731 
L 304.338075 311.58902 
L 304.856475 311.621389 
L 305.374875 311.362908 
L 305.893275 311.487897 
L 306.411675 311.442359 
L 306.930075 311.624015 
L 307.966875 311.415527 
L 308.485275 311.486613 
L 309.003675 311.409807 
L 310.040475 311.851033 
L 312.114075 311.759838 
L 313.669275 311.98009 
L 314.187675 311.724341 
L 314.706075 311.635751 
L 315.742875 311.73283 
L 318.334875 311.521507 
L 318.853275 311.127367 
L 319.890075 310.800799 
L 321.445275 310.59666 
L 321.963675 310.24226 
L 322.482075 310.130897 
L 323.518875 310.071997 
L 324.037275 309.694665 
L 324.555675 309.957321 
L 325.074075 309.939103 
L 325.592475 310.171662 
L 327.147675 309.520387 
L 328.702875 309.031863 
L 329.221275 309.266852 
L 329.739675 308.946569 
L 330.258075 309.265705 
L 330.776475 309.097885 
L 331.294875 309.308225 
L 331.813275 309.755567 
L 332.331675 309.56589 
L 332.850075 309.55125 
L 333.368475 309.138492 
L 336.478875 309.711437 
L 336.997275 309.96744 
L 337.515675 309.911539 
L 338.034075 310.240531 
L 339.070875 310.273317 
L 340.107675 309.836303 
L 340.626075 309.753801 
L 341.144475 309.818393 
L 341.662875 309.656241 
L 342.181275 310.080099 
L 344.254875 310.121935 
L 344.773275 309.840683 
L 346.328475 309.87863 
L 346.846875 309.669064 
L 347.883675 309.870501 
L 348.402075 309.537265 
L 348.920475 309.938973 
L 349.438875 309.956911 
L 349.957275 310.217855 
L 350.994075 309.670128 
L 351.512475 309.681439 
L 352.030875 309.357983 
L 353.067675 309.285892 
L 354.104475 309.1316 
L 354.622875 309.381546 
L 355.141275 309.076293 
L 355.659675 309.079496 
L 356.178075 308.821329 
L 356.696475 308.98545 
L 357.214875 308.745837 
L 357.733275 308.792777 
L 358.251675 308.995173 
L 358.770075 308.937392 
L 359.288475 309.007138 
L 359.806875 308.927633 
L 360.325275 308.672217 
L 361.880475 308.787108 
L 362.917275 308.603571 
L 363.954075 308.738404 
L 364.472475 308.995084 
L 365.509275 308.661162 
L 366.027675 308.773678 
L 366.546075 308.53143 
L 367.582875 308.473218 
L 368.101275 308.367544 
L 368.619675 308.559204 
L 369.138075 308.299249 
L 369.656475 308.331416 
L 370.693275 308.635425 
L 371.211675 308.720318 
L 371.730075 308.604487 
L 373.285275 308.96881 
L 373.803675 308.803465 
L 374.840475 308.965995 
L 375.877275 309.000522 
L 376.395675 308.656134 
L 377.432475 308.336962 
L 378.469275 308.562896 
L 378.987675 308.285788 
L 379.506075 308.705369 
L 380.024475 308.586186 
L 380.542875 308.957678 
L 381.579675 308.962222 
L 382.616475 309.211482 
L 383.134875 309.345861 
L 384.171675 309.421529 
L 385.208475 309.689984 
L 386.245275 309.514712 
L 386.763675 309.562846 
L 387.282075 309.348549 
L 387.800475 309.374952 
L 388.318875 309.121092 
L 394.021275 308.811996 
L 394.539675 309.08977 
L 395.058075 309.185848 
L 395.576475 309.027586 
L 396.094875 309.242668 
L 396.613275 308.901403 
L 397.131675 308.788316 
L 398.168475 308.997047 
L 399.205275 309.149425 
L 399.723675 309.128276 
L 400.242075 308.826202 
L 400.760475 308.856226 
L 401.278875 309.038252 
L 401.797275 308.894259 
L 402.315675 309.168625 
L 402.834075 309.309614 
L 403.352475 309.06507 
L 403.870875 309.108444 
L 404.389275 309.298345 
L 405.944475 309.005035 
L 406.981275 308.600332 
L 407.499675 308.853705 
L 409.054875 308.36826 
L 409.573275 308.359901 
L 410.091675 308.238975 
L 410.610075 308.437903 
L 411.646875 308.389805 
L 412.165275 308.45433 
L 413.202075 308.181862 
L 413.720475 308.501216 
L 414.757275 308.201856 
L 415.275675 307.804108 
L 415.794075 308.008142 
L 416.830875 307.736115 
L 417.349275 307.824383 
L 417.867675 307.621861 
L 418.386075 307.599598 
L 419.422875 307.037632 
L 419.941275 306.480504 
L 420.978075 306.64724 
L 423.570075 307.426201 
L 424.088475 307.270903 
L 424.606875 307.548033 
L 425.125275 307.517578 
L 425.643675 307.342331 
L 426.162075 307.449789 
L 426.680475 307.874947 
L 427.717275 307.08797 
L 428.754075 307.245459 
L 429.272475 307.298146 
L 430.309275 307.796758 
L 430.827675 307.646652 
L 431.864475 307.138919 
L 432.382875 307.164632 
L 433.419675 306.96428 
L 433.938075 307.134277 
L 436.011675 307.232821 
L 436.530075 307.113552 
L 437.566875 307.183687 
L 438.085275 307.002118 
L 438.603675 307.132788 
L 439.640475 306.846607 
L 440.677275 306.93252 
L 441.195675 307.229823 
L 442.232475 307.086732 
L 444.306075 307.194806 
L 445.342875 307.657757 
L 445.861275 307.5812 
L 446.379675 307.71031 
L 446.898075 307.345568 
L 448.453275 307.05164 
L 448.971675 307.219569 
L 449.490075 307.08558 
L 450.526875 306.576203 
L 451.045275 306.66889 
L 451.563675 306.628764 
L 452.082075 306.363129 
L 452.600475 306.570637 
L 453.118875 306.478545 
L 453.637275 306.110043 
L 454.155675 306.172958 
L 455.192475 306.506949 
L 456.229275 306.568881 
L 456.747675 306.716998 
L 458.302875 306.710447 
L 459.339675 306.659383 
L 459.858075 306.769031 
L 460.376475 307.058668 
L 460.894875 307.047327 
L 461.413275 307.219579 
L 461.931675 307.21985 
L 462.968475 306.778297 
L 463.486875 306.568517 
L 464.005275 306.751364 
L 464.523675 306.598607 
L 465.042075 306.6465 
L 465.560475 306.547521 
L 467.115675 305.855648 
L 467.634075 305.733908 
L 468.152475 305.81376 
L 470.226075 305.666857 
L 470.744475 305.330348 
L 471.262875 305.6708 
L 472.299675 305.109812 
L 473.336475 305.561113 
L 473.854875 305.342642 
L 474.373275 305.580998 
L 475.410075 305.658198 
L 475.928475 305.445102 
L 476.446875 305.619638 
L 478.002075 305.58674 
L 478.520475 305.749667 
L 479.038875 305.321583 
L 479.557275 305.301664 
L 480.075675 305.635224 
L 480.594075 305.458759 
L 481.112475 305.6785 
L 483.186075 305.431888 
L 483.704475 305.316159 
L 484.222875 305.080012 
L 484.741275 305.643522 
L 485.778075 305.600001 
L 486.296475 305.638736 
L 486.814875 305.396505 
L 487.333275 305.410265 
L 488.370075 305.01941 
L 488.888475 304.85125 
L 489.406875 305.097237 
L 490.443675 305.208508 
L 490.962075 305.052375 
L 491.998875 304.51599 
L 492.517275 304.526646 
L 493.035675 304.396825 
L 493.554075 304.601858 
L 494.072475 304.183476 
L 494.590875 304.02589 
L 495.627675 304.174749 
L 496.146075 303.574222 
L 497.182875 303.223525 
L 500.811675 302.792707 
L 501.330075 303.055527 
L 502.366875 303.126578 
L 502.885275 302.662549 
L 503.403675 302.773443 
L 503.922075 302.522552 
L 504.440475 302.613904 
L 504.958875 302.319385 
L 505.995675 302.240208 
L 507.032475 302.068367 
L 507.550875 301.782951 
L 508.069275 301.766701 
L 509.106075 302.081387 
L 510.142875 301.829396 
L 510.661275 301.579689 
L 511.179675 302.049275 
L 512.216475 302.024428 
L 513.253275 302.174686 
L 514.290075 301.89434 
L 514.808475 302.074649 
L 516.363675 301.879276 
L 517.918875 302.182619 
L 518.437275 302.100844 
L 518.955675 301.848131 
L 519.474075 301.841898 
L 519.992475 301.6303 
L 521.547675 302.098534 
L 522.584475 301.653636 
L 523.102875 301.868759 
L 523.621275 301.817842 
L 524.658075 302.135206 
L 525.176475 301.957182 
L 525.694875 302.186917 
L 527.250075 302.237365 
L 528.286875 302.089207 
L 528.805275 302.031178 
L 529.842075 302.425019 
L 530.878875 302.04798 
L 532.434075 302.658967 
L 532.952475 302.352624 
L 533.470875 302.35619 
L 533.989275 302.221882 
L 534.507675 302.238709 
L 535.026075 302.70192 
L 536.581275 302.591901 
L 537.618075 302.80269 
L 539.173275 302.463946 
L 539.691675 302.710638 
L 540.728475 302.613075 
L 541.246875 302.66536 
L 541.765275 302.295781 
L 542.283675 302.155449 
L 542.802075 302.23065 
L 543.320475 302.030953 
L 546.430875 301.938509 
L 549.022875 301.466856 
L 550.578075 301.643844 
L 551.614875 301.398603 
L 552.133275 301.651949 
L 553.170075 301.485213 
L 553.688475 301.283081 
L 554.725275 301.464218 
L 555.762075 301.217252 
L 556.280475 301.033299 
L 557.317275 300.929256 
L 557.835675 300.966316 
L 558.872475 300.602419 
L 559.390875 300.563371 
L 559.909275 300.751022 
L 560.427675 300.762017 
L 560.946075 300.633101 
L 561.464475 300.632177 
L 562.501275 300.842765 
L 563.538075 301.006921 
L 564.056475 300.814057 
L 564.574875 300.756177 
L 565.611675 300.855411 
L 566.130075 300.89085 
L 566.648475 300.344828 
L 567.166875 300.050897 
L 567.685275 300.057731 
L 568.203675 300.189541 
L 568.722075 299.809648 
L 569.240475 299.89907 
L 570.277275 299.5297 
L 572.350875 300.342586 
L 572.869275 300.317491 
L 573.387675 300.520668 
L 573.906075 300.295686 
L 574.424475 300.255256 
L 574.942875 300.329044 
L 575.461275 300.10889 
L 576.498075 300.21654 
L 577.534875 299.853512 
L 578.053275 299.919552 
L 579.090075 299.777978 
L 581.163675 299.732348 
L 581.682075 299.515161 
L 582.200475 299.646184 
L 582.718875 299.208437 
L 584.792475 299.649966 
L 584.792475 299.649966 
" style="fill:none;stroke:#5cb85c;stroke-width:4.0;"/>
   </g>
   <g id="patch_9">
    <path d="M 66.910875 496.8 
L 585.310875 496.8 
" style="fill:none;stroke:#ffffff;stroke-linecap:square;stroke-linejoin:miter;stroke-width:3.0;"/>
   </g>
   <g id="patch_10">
    <path d="M 585.310875 496.8 
L 585.310875 274.254545 
" style="fill:none;stroke:#ffffff;stroke-linecap:square;stroke-linejoin:miter;stroke-width:3.0;"/>
   </g>
   <g id="patch_11">
    <path d="M 66.910875 496.8 
L 66.910875 274.254545 
" style="fill:none;stroke:#ffffff;stroke-linecap:square;stroke-linejoin:miter;stroke-width:3.0;"/>
   </g>
   <g id="patch_12">
    <path d="M 66.910875 274.254545 
L 585.310875 274.254545 
" style="fill:none;stroke:#ffffff;stroke-linecap:square;stroke-linejoin:miter;stroke-width:3.0;"/>
   </g>
   <g id="legend_2">
    <g id="patch_13">
     <path d="M 76.990875 328.047545 
L 140.638875 328.047545 
Q 143.518875 328.047545 143.518875 325.167545 
L 143.518875 284.334545 
Q 143.518875 281.454545 140.638875 281.454545 
L 76.990875 281.454545 
Q 74.110875 281.454545 74.110875 284.334545 
L 74.110875 325.167545 
Q 74.110875 328.047545 76.990875 328.047545 
z
" style="fill:#ffffff;stroke:#ffffff;stroke-linejoin:miter;stroke-width:0.5;"/>
    </g>
    <g id="line2d_84">
     <path d="M 84.190875 293.116295 
L 104.350875 293.116295 
" style="fill:none;stroke:#fc4f30;stroke-width:4.0;"/>
    </g>
    <g id="line2d_85"/>
    <g id="text_25">
     <!-- $\sf p_{r1}$ -->
     <defs>
      <path d="M 8.015625 0 
L 8.015625 45.015625 
L 15.375 45.015625 
L 15.375 36.375 
Q 17.328125 39.109375 20.109375 41.203125 
Q 22.90625 43.3125 26.09375 44.40625 
Q 29.296875 45.515625 32.71875 45.515625 
L 32.71875 38.375 
Q 28.265625 38.375 24.390625 36.171875 
Q 20.515625 33.984375 18.21875 30.203125 
Q 15.921875 26.421875 15.921875 21.921875 
L 15.921875 0 
z
" id="Cmss10-72"/>
     </defs>
     <g transform="translate(120.190875 298.156295455)scale(0.144 -0.144)">
      <use transform="translate(0.0 0.484375)" xlink:href="#Cmss10-70"/>
      <use transform="translate(56.257578125 -17.215625000000003)scale(0.7)" xlink:href="#Cmss10-72"/>
      <use transform="translate(80.115 -17.215625000000003)scale(0.7)" xlink:href="#Cmr10-31"/>
     </g>
    </g>
    <g id="line2d_86">
     <path d="M 84.190875 314.252795 
L 104.350875 314.252795 
" style="fill:none;stroke:#5cb85c;stroke-width:4.0;"/>
    </g>
    <g id="line2d_87"/>
    <g id="text_26">
     <!-- $\sf q_{r1}$ -->
     <g transform="translate(120.190875 319.292795455)scale(0.144 -0.144)">
      <use transform="translate(0.0 0.484375)" xlink:href="#Cmss10-71"/>
      <use transform="translate(56.257578125 -17.215625000000003)scale(0.7)" xlink:href="#Cmss10-72"/>
      <use transform="translate(80.115 -17.215625000000003)scale(0.7)" xlink:href="#Cmr10-31"/>
     </g>
    </g>
   </g>
  </g>
 </g>
 <defs>
  <clipPath id="p99a06d90b6">
   <rect height="222.545454545" width="518.4" x="66.910875" y="7.2"/>
  </clipPath>
  <clipPath id="p36f733bae5">
   <rect height="222.545454545" width="518.4" x="66.910875" y="274.254545455"/>
  </clipPath>
 </defs>
</svg>
