<?xml version="1.0" encoding="utf-8" standalone="no"?>
<!DOCTYPE svg PUBLIC "-//W3C//DTD SVG 1.1//EN"
  "http://www.w3.org/Graphics/SVG/1.1/DTD/svg11.dtd">
<!-- Created with matplotlib (http://matplotlib.org/) -->
<svg height="414pt" version="1.1" viewBox="0 0 525 414" width="525pt" xmlns="http://www.w3.org/2000/svg" xmlns:xlink="http://www.w3.org/1999/xlink">
 <defs>
  <style type="text/css">
*{stroke-linecap:butt;stroke-linejoin:round;}
  </style>
 </defs>
 <g id="figure_1">
  <g id="patch_1">
   <path d="M 0 414.65025 
L 525.775875 414.65025 
L 525.775875 0 
L 0 0 
z
" style="fill:none;opacity:0;"/>
  </g>
  <g id="axes_1">
   <g id="patch_2">
    <path d="M 57.775875 174.109091 
L 518.575875 174.109091 
L 518.575875 7.2 
L 57.775875 7.2 
z
" style="fill:#ffffff;"/>
   </g>
   <g id="matplotlib.axis_1">
    <g id="xtick_1">
     <g id="line2d_1">
      <path clip-path="url(#p63a82a55d2)" d="M 78.72133 174.109091 
L 78.72133 7.2 
" style="fill:none;stroke:#cbcbcb;"/>
     </g>
     <g id="line2d_2"/>
    </g>
    <g id="xtick_2">
     <g id="line2d_3">
      <path clip-path="url(#p63a82a55d2)" d="M 162.587013 174.109091 
L 162.587013 7.2 
" style="fill:none;stroke:#cbcbcb;"/>
     </g>
     <g id="line2d_4"/>
    </g>
    <g id="xtick_3">
     <g id="line2d_5">
      <path clip-path="url(#p63a82a55d2)" d="M 246.452697 174.109091 
L 246.452697 7.2 
" style="fill:none;stroke:#cbcbcb;"/>
     </g>
     <g id="line2d_6"/>
    </g>
    <g id="xtick_4">
     <g id="line2d_7">
      <path clip-path="url(#p63a82a55d2)" d="M 330.318381 174.109091 
L 330.318381 7.2 
" style="fill:none;stroke:#cbcbcb;"/>
     </g>
     <g id="line2d_8"/>
    </g>
    <g id="xtick_5">
     <g id="line2d_9">
      <path clip-path="url(#p63a82a55d2)" d="M 414.184065 174.109091 
L 414.184065 7.2 
" style="fill:none;stroke:#cbcbcb;"/>
     </g>
     <g id="line2d_10"/>
    </g>
    <g id="xtick_6">
     <g id="line2d_11">
      <path clip-path="url(#p63a82a55d2)" d="M 498.049749 174.109091 
L 498.049749 7.2 
" style="fill:none;stroke:#cbcbcb;"/>
     </g>
     <g id="line2d_12"/>
    </g>
   </g>
   <g id="matplotlib.axis_2">
    <g id="ytick_1">
     <g id="line2d_13">
      <path clip-path="url(#p63a82a55d2)" d="M 57.775875 146.20269 
L 518.575875 146.20269 
" style="fill:none;stroke:#cbcbcb;"/>
     </g>
     <g id="line2d_14"/>
     <g id="text_1">
      <!-- −20 -->
      <defs>
       <path d="M 10.59375 35.5 
L 73.1875 35.5 
L 73.1875 27.203125 
L 10.59375 27.203125 
z
" id="DejaVuSans-2212"/>
       <path d="M 19.1875 8.296875 
L 53.609375 8.296875 
L 53.609375 0 
L 7.328125 0 
L 7.328125 8.296875 
Q 12.9375 14.109375 22.625 23.890625 
Q 32.328125 33.6875 34.8125 36.53125 
Q 39.546875 41.84375 41.421875 45.53125 
Q 43.3125 49.21875 43.3125 52.78125 
Q 43.3125 58.59375 39.234375 62.25 
Q 35.15625 65.921875 28.609375 65.921875 
Q 23.96875 65.921875 18.8125 64.3125 
Q 13.671875 62.703125 7.8125 59.421875 
L 7.8125 69.390625 
Q 13.765625 71.78125 18.9375 73 
Q 24.125 74.21875 28.421875 74.21875 
Q 39.75 74.21875 46.484375 68.546875 
Q 53.21875 62.890625 53.21875 53.421875 
Q 53.21875 48.921875 51.53125 44.890625 
Q 49.859375 40.875 45.40625 35.40625 
Q 44.1875 33.984375 37.640625 27.21875 
Q 31.109375 20.453125 19.1875 8.296875 
z
" id="DejaVuSans-32"/>
       <path d="M 31.78125 66.40625 
Q 24.171875 66.40625 20.328125 58.90625 
Q 16.5 51.421875 16.5 36.375 
Q 16.5 21.390625 20.328125 13.890625 
Q 24.171875 6.390625 31.78125 6.390625 
Q 39.453125 6.390625 43.28125 13.890625 
Q 47.125 21.390625 47.125 36.375 
Q 47.125 51.421875 43.28125 58.90625 
Q 39.453125 66.40625 31.78125 66.40625 
z
M 31.78125 74.21875 
Q 44.046875 74.21875 50.515625 64.515625 
Q 56.984375 54.828125 56.984375 36.375 
Q 56.984375 17.96875 50.515625 8.265625 
Q 44.046875 -1.421875 31.78125 -1.421875 
Q 19.53125 -1.421875 13.0625 8.265625 
Q 6.59375 17.96875 6.59375 36.375 
Q 6.59375 54.828125 13.0625 64.515625 
Q 19.53125 74.21875 31.78125 74.21875 
z
" id="DejaVuSans-30"/>
      </defs>
      <g transform="translate(28.95025 150.761753)scale(0.12 -0.12)">
       <use xlink:href="#DejaVuSans-2212"/>
       <use x="83.789062" xlink:href="#DejaVuSans-32"/>
       <use x="147.412109" xlink:href="#DejaVuSans-30"/>
      </g>
     </g>
    </g>
    <g id="ytick_2">
     <g id="line2d_15">
      <path clip-path="url(#p63a82a55d2)" d="M 57.775875 112.706978 
L 518.575875 112.706978 
" style="fill:none;stroke:#cbcbcb;"/>
     </g>
     <g id="line2d_16"/>
     <g id="text_2">
      <!-- 0 -->
      <g transform="translate(46.640875 117.266041)scale(0.12 -0.12)">
       <use xlink:href="#DejaVuSans-30"/>
      </g>
     </g>
    </g>
    <g id="ytick_3">
     <g id="line2d_17">
      <path clip-path="url(#p63a82a55d2)" d="M 57.775875 79.211266 
L 518.575875 79.211266 
" style="fill:none;stroke:#cbcbcb;"/>
     </g>
     <g id="line2d_18"/>
     <g id="text_3">
      <!-- 20 -->
      <g transform="translate(39.005875 83.770329)scale(0.12 -0.12)">
       <use xlink:href="#DejaVuSans-32"/>
       <use x="63.623047" xlink:href="#DejaVuSans-30"/>
      </g>
     </g>
    </g>
    <g id="ytick_4">
     <g id="line2d_19">
      <path clip-path="url(#p63a82a55d2)" d="M 57.775875 45.715554 
L 518.575875 45.715554 
" style="fill:none;stroke:#cbcbcb;"/>
     </g>
     <g id="line2d_20"/>
     <g id="text_4">
      <!-- 40 -->
      <defs>
       <path d="M 37.796875 64.3125 
L 12.890625 25.390625 
L 37.796875 25.390625 
z
M 35.203125 72.90625 
L 47.609375 72.90625 
L 47.609375 25.390625 
L 58.015625 25.390625 
L 58.015625 17.1875 
L 47.609375 17.1875 
L 47.609375 0 
L 37.796875 0 
L 37.796875 17.1875 
L 4.890625 17.1875 
L 4.890625 26.703125 
z
" id="DejaVuSans-34"/>
      </defs>
      <g transform="translate(39.005875 50.274617)scale(0.12 -0.12)">
       <use xlink:href="#DejaVuSans-34"/>
       <use x="63.623047" xlink:href="#DejaVuSans-30"/>
      </g>
     </g>
    </g>
    <g id="ytick_5">
     <g id="line2d_21">
      <path clip-path="url(#p63a82a55d2)" d="M 57.775875 12.219843 
L 518.575875 12.219843 
" style="fill:none;stroke:#cbcbcb;"/>
     </g>
     <g id="line2d_22"/>
     <g id="text_5">
      <!-- 60 -->
      <defs>
       <path d="M 33.015625 40.375 
Q 26.375 40.375 22.484375 35.828125 
Q 18.609375 31.296875 18.609375 23.390625 
Q 18.609375 15.53125 22.484375 10.953125 
Q 26.375 6.390625 33.015625 6.390625 
Q 39.65625 6.390625 43.53125 10.953125 
Q 47.40625 15.53125 47.40625 23.390625 
Q 47.40625 31.296875 43.53125 35.828125 
Q 39.65625 40.375 33.015625 40.375 
z
M 52.59375 71.296875 
L 52.59375 62.3125 
Q 48.875 64.0625 45.09375 64.984375 
Q 41.3125 65.921875 37.59375 65.921875 
Q 27.828125 65.921875 22.671875 59.328125 
Q 17.53125 52.734375 16.796875 39.40625 
Q 19.671875 43.65625 24.015625 45.921875 
Q 28.375 48.1875 33.59375 48.1875 
Q 44.578125 48.1875 50.953125 41.515625 
Q 57.328125 34.859375 57.328125 23.390625 
Q 57.328125 12.15625 50.6875 5.359375 
Q 44.046875 -1.421875 33.015625 -1.421875 
Q 20.359375 -1.421875 13.671875 8.265625 
Q 6.984375 17.96875 6.984375 36.375 
Q 6.984375 53.65625 15.1875 63.9375 
Q 23.390625 74.21875 37.203125 74.21875 
Q 40.921875 74.21875 44.703125 73.484375 
Q 48.484375 72.75 52.59375 71.296875 
z
" id="DejaVuSans-36"/>
      </defs>
      <g transform="translate(39.005875 16.778905)scale(0.12 -0.12)">
       <use xlink:href="#DejaVuSans-36"/>
       <use x="63.623047" xlink:href="#DejaVuSans-30"/>
      </g>
     </g>
    </g>
    <g id="text_6">
     <!-- Rotor voltages (V) -->
     <defs>
      <path d="M 44.390625 34.1875 
Q 47.5625 33.109375 50.5625 29.59375 
Q 53.5625 26.078125 56.59375 19.921875 
L 66.609375 0 
L 56 0 
L 46.6875 18.703125 
Q 43.0625 26.03125 39.671875 28.421875 
Q 36.28125 30.8125 30.421875 30.8125 
L 19.671875 30.8125 
L 19.671875 0 
L 9.8125 0 
L 9.8125 72.90625 
L 32.078125 72.90625 
Q 44.578125 72.90625 50.734375 67.671875 
Q 56.890625 62.453125 56.890625 51.90625 
Q 56.890625 45.015625 53.6875 40.46875 
Q 50.484375 35.9375 44.390625 34.1875 
z
M 19.671875 64.796875 
L 19.671875 38.921875 
L 32.078125 38.921875 
Q 39.203125 38.921875 42.84375 42.21875 
Q 46.484375 45.515625 46.484375 51.90625 
Q 46.484375 58.296875 42.84375 61.546875 
Q 39.203125 64.796875 32.078125 64.796875 
z
" id="DejaVuSans-52"/>
      <path d="M 30.609375 48.390625 
Q 23.390625 48.390625 19.1875 42.75 
Q 14.984375 37.109375 14.984375 27.296875 
Q 14.984375 17.484375 19.15625 11.84375 
Q 23.34375 6.203125 30.609375 6.203125 
Q 37.796875 6.203125 41.984375 11.859375 
Q 46.1875 17.53125 46.1875 27.296875 
Q 46.1875 37.015625 41.984375 42.703125 
Q 37.796875 48.390625 30.609375 48.390625 
z
M 30.609375 56 
Q 42.328125 56 49.015625 48.375 
Q 55.71875 40.765625 55.71875 27.296875 
Q 55.71875 13.875 49.015625 6.21875 
Q 42.328125 -1.421875 30.609375 -1.421875 
Q 18.84375 -1.421875 12.171875 6.21875 
Q 5.515625 13.875 5.515625 27.296875 
Q 5.515625 40.765625 12.171875 48.375 
Q 18.84375 56 30.609375 56 
z
" id="DejaVuSans-6f"/>
      <path d="M 18.3125 70.21875 
L 18.3125 54.6875 
L 36.8125 54.6875 
L 36.8125 47.703125 
L 18.3125 47.703125 
L 18.3125 18.015625 
Q 18.3125 11.328125 20.140625 9.421875 
Q 21.96875 7.515625 27.59375 7.515625 
L 36.8125 7.515625 
L 36.8125 0 
L 27.59375 0 
Q 17.1875 0 13.234375 3.875 
Q 9.28125 7.765625 9.28125 18.015625 
L 9.28125 47.703125 
L 2.6875 47.703125 
L 2.6875 54.6875 
L 9.28125 54.6875 
L 9.28125 70.21875 
z
" id="DejaVuSans-74"/>
      <path d="M 41.109375 46.296875 
Q 39.59375 47.171875 37.8125 47.578125 
Q 36.03125 48 33.890625 48 
Q 26.265625 48 22.1875 43.046875 
Q 18.109375 38.09375 18.109375 28.8125 
L 18.109375 0 
L 9.078125 0 
L 9.078125 54.6875 
L 18.109375 54.6875 
L 18.109375 46.1875 
Q 20.953125 51.171875 25.484375 53.578125 
Q 30.03125 56 36.53125 56 
Q 37.453125 56 38.578125 55.875 
Q 39.703125 55.765625 41.0625 55.515625 
z
" id="DejaVuSans-72"/>
      <path id="DejaVuSans-20"/>
      <path d="M 2.984375 54.6875 
L 12.5 54.6875 
L 29.59375 8.796875 
L 46.6875 54.6875 
L 56.203125 54.6875 
L 35.6875 0 
L 23.484375 0 
z
" id="DejaVuSans-76"/>
      <path d="M 9.421875 75.984375 
L 18.40625 75.984375 
L 18.40625 0 
L 9.421875 0 
z
" id="DejaVuSans-6c"/>
      <path d="M 34.28125 27.484375 
Q 23.390625 27.484375 19.1875 25 
Q 14.984375 22.515625 14.984375 16.5 
Q 14.984375 11.71875 18.140625 8.90625 
Q 21.296875 6.109375 26.703125 6.109375 
Q 34.1875 6.109375 38.703125 11.40625 
Q 43.21875 16.703125 43.21875 25.484375 
L 43.21875 27.484375 
z
M 52.203125 31.203125 
L 52.203125 0 
L 43.21875 0 
L 43.21875 8.296875 
Q 40.140625 3.328125 35.546875 0.953125 
Q 30.953125 -1.421875 24.3125 -1.421875 
Q 15.921875 -1.421875 10.953125 3.296875 
Q 6 8.015625 6 15.921875 
Q 6 25.140625 12.171875 29.828125 
Q 18.359375 34.515625 30.609375 34.515625 
L 43.21875 34.515625 
L 43.21875 35.40625 
Q 43.21875 41.609375 39.140625 45 
Q 35.0625 48.390625 27.6875 48.390625 
Q 23 48.390625 18.546875 47.265625 
Q 14.109375 46.140625 10.015625 43.890625 
L 10.015625 52.203125 
Q 14.9375 54.109375 19.578125 55.046875 
Q 24.21875 56 28.609375 56 
Q 40.484375 56 46.34375 49.84375 
Q 52.203125 43.703125 52.203125 31.203125 
z
" id="DejaVuSans-61"/>
      <path d="M 45.40625 27.984375 
Q 45.40625 37.75 41.375 43.109375 
Q 37.359375 48.484375 30.078125 48.484375 
Q 22.859375 48.484375 18.828125 43.109375 
Q 14.796875 37.75 14.796875 27.984375 
Q 14.796875 18.265625 18.828125 12.890625 
Q 22.859375 7.515625 30.078125 7.515625 
Q 37.359375 7.515625 41.375 12.890625 
Q 45.40625 18.265625 45.40625 27.984375 
z
M 54.390625 6.78125 
Q 54.390625 -7.171875 48.1875 -13.984375 
Q 42 -20.796875 29.203125 -20.796875 
Q 24.46875 -20.796875 20.265625 -20.09375 
Q 16.0625 -19.390625 12.109375 -17.921875 
L 12.109375 -9.1875 
Q 16.0625 -11.328125 19.921875 -12.34375 
Q 23.78125 -13.375 27.78125 -13.375 
Q 36.625 -13.375 41.015625 -8.765625 
Q 45.40625 -4.15625 45.40625 5.171875 
L 45.40625 9.625 
Q 42.625 4.78125 38.28125 2.390625 
Q 33.9375 0 27.875 0 
Q 17.828125 0 11.671875 7.65625 
Q 5.515625 15.328125 5.515625 27.984375 
Q 5.515625 40.671875 11.671875 48.328125 
Q 17.828125 56 27.875 56 
Q 33.9375 56 38.28125 53.609375 
Q 42.625 51.21875 45.40625 46.390625 
L 45.40625 54.6875 
L 54.390625 54.6875 
z
" id="DejaVuSans-67"/>
      <path d="M 56.203125 29.59375 
L 56.203125 25.203125 
L 14.890625 25.203125 
Q 15.484375 15.921875 20.484375 11.0625 
Q 25.484375 6.203125 34.421875 6.203125 
Q 39.59375 6.203125 44.453125 7.46875 
Q 49.3125 8.734375 54.109375 11.28125 
L 54.109375 2.78125 
Q 49.265625 0.734375 44.1875 -0.34375 
Q 39.109375 -1.421875 33.890625 -1.421875 
Q 20.796875 -1.421875 13.15625 6.1875 
Q 5.515625 13.8125 5.515625 26.8125 
Q 5.515625 40.234375 12.765625 48.109375 
Q 20.015625 56 32.328125 56 
Q 43.359375 56 49.78125 48.890625 
Q 56.203125 41.796875 56.203125 29.59375 
z
M 47.21875 32.234375 
Q 47.125 39.59375 43.09375 43.984375 
Q 39.0625 48.390625 32.421875 48.390625 
Q 24.90625 48.390625 20.390625 44.140625 
Q 15.875 39.890625 15.1875 32.171875 
z
" id="DejaVuSans-65"/>
      <path d="M 44.28125 53.078125 
L 44.28125 44.578125 
Q 40.484375 46.53125 36.375 47.5 
Q 32.28125 48.484375 27.875 48.484375 
Q 21.1875 48.484375 17.84375 46.4375 
Q 14.5 44.390625 14.5 40.28125 
Q 14.5 37.15625 16.890625 35.375 
Q 19.28125 33.59375 26.515625 31.984375 
L 29.59375 31.296875 
Q 39.15625 29.25 43.1875 25.515625 
Q 47.21875 21.78125 47.21875 15.09375 
Q 47.21875 7.46875 41.1875 3.015625 
Q 35.15625 -1.421875 24.609375 -1.421875 
Q 20.21875 -1.421875 15.453125 -0.5625 
Q 10.6875 0.296875 5.421875 2 
L 5.421875 11.28125 
Q 10.40625 8.6875 15.234375 7.390625 
Q 20.0625 6.109375 24.8125 6.109375 
Q 31.15625 6.109375 34.5625 8.28125 
Q 37.984375 10.453125 37.984375 14.40625 
Q 37.984375 18.0625 35.515625 20.015625 
Q 33.0625 21.96875 24.703125 23.78125 
L 21.578125 24.515625 
Q 13.234375 26.265625 9.515625 29.90625 
Q 5.8125 33.546875 5.8125 39.890625 
Q 5.8125 47.609375 11.28125 51.796875 
Q 16.75 56 26.8125 56 
Q 31.78125 56 36.171875 55.265625 
Q 40.578125 54.546875 44.28125 53.078125 
z
" id="DejaVuSans-73"/>
      <path d="M 31 75.875 
Q 24.46875 64.65625 21.28125 53.65625 
Q 18.109375 42.671875 18.109375 31.390625 
Q 18.109375 20.125 21.3125 9.0625 
Q 24.515625 -2 31 -13.1875 
L 23.1875 -13.1875 
Q 15.875 -1.703125 12.234375 9.375 
Q 8.59375 20.453125 8.59375 31.390625 
Q 8.59375 42.28125 12.203125 53.3125 
Q 15.828125 64.359375 23.1875 75.875 
z
" id="DejaVuSans-28"/>
      <path d="M 28.609375 0 
L 0.78125 72.90625 
L 11.078125 72.90625 
L 34.1875 11.53125 
L 57.328125 72.90625 
L 67.578125 72.90625 
L 39.796875 0 
z
" id="DejaVuSans-56"/>
      <path d="M 8.015625 75.875 
L 15.828125 75.875 
Q 23.140625 64.359375 26.78125 53.3125 
Q 30.421875 42.28125 30.421875 31.390625 
Q 30.421875 20.453125 26.78125 9.375 
Q 23.140625 -1.703125 15.828125 -13.1875 
L 8.015625 -13.1875 
Q 14.5 -2 17.703125 9.0625 
Q 20.90625 20.125 20.90625 31.390625 
Q 20.90625 42.671875 17.703125 53.65625 
Q 14.5 64.65625 8.015625 75.875 
z
" id="DejaVuSans-29"/>
     </defs>
     <g transform="translate(21.9555 156.02042)rotate(-90)scale(0.144 -0.144)">
      <use xlink:href="#DejaVuSans-52"/>
      <use x="69.419922" xlink:href="#DejaVuSans-6f"/>
      <use x="130.601562" xlink:href="#DejaVuSans-74"/>
      <use x="169.810547" xlink:href="#DejaVuSans-6f"/>
      <use x="230.992188" xlink:href="#DejaVuSans-72"/>
      <use x="272.105469" xlink:href="#DejaVuSans-20"/>
      <use x="303.892578" xlink:href="#DejaVuSans-76"/>
      <use x="363.072266" xlink:href="#DejaVuSans-6f"/>
      <use x="424.253906" xlink:href="#DejaVuSans-6c"/>
      <use x="452.037109" xlink:href="#DejaVuSans-74"/>
      <use x="491.246094" xlink:href="#DejaVuSans-61"/>
      <use x="552.525391" xlink:href="#DejaVuSans-67"/>
      <use x="616.001953" xlink:href="#DejaVuSans-65"/>
      <use x="677.525391" xlink:href="#DejaVuSans-73"/>
      <use x="729.625" xlink:href="#DejaVuSans-20"/>
      <use x="761.412109" xlink:href="#DejaVuSans-28"/>
      <use x="800.425781" xlink:href="#DejaVuSans-56"/>
      <use x="868.833984" xlink:href="#DejaVuSans-29"/>
     </g>
    </g>
   </g>
   <g id="line2d_23">
    <path clip-path="url(#p63a82a55d2)" d="M 78.72133 18.624654 
L 79.140658 18.056706 
L 79.559986 17.597913 
L 80.398643 16.86016 
L 81.656628 16.099302 
L 82.914614 15.616999 
L 84.591927 15.237068 
L 86.68857 14.996007 
L 90.462525 14.839176 
L 99.268422 14.788786 
L 120.654171 14.786777 
L 130.298725 71.432429 
L 131.55671 78.502359 
L 134.911338 97.795306 
L 136.169323 105.010063 
L 138.265965 117.094573 
L 141.620592 136.882229 
L 142.459249 142.797948 
L 142.878578 145.306889 
L 143.717235 148.560968 
L 144.555891 151.252793 
L 145.813877 154.288758 
L 146.652533 155.572967 
L 147.49119 156.597991 
L 147.910519 157.043665 
L 149.168504 157.561204 
L 149.587832 158.052321 
L 150.426489 158.506516 
L 150.845818 158.606036 
L 151.265146 158.923499 
L 152.103803 159.02672 
L 152.523131 159.093292 
L 152.94246 159.286771 
L 153.781117 159.374752 
L 154.200445 159.49581 
L 154.619773 159.385653 
L 155.039102 159.55522 
L 157.135744 159.666393 
L 157.555072 159.980454 
L 158.393729 160.038955 
L 158.813058 160.258016 
L 159.232386 160.234588 
L 159.651714 160.082301 
L 160.490371 159.986537 
L 161.748357 159.553716 
L 162.587013 159.671525 
L 163.006342 159.494009 
L 164.264327 159.788084 
L 165.522312 159.499622 
L 165.941641 159.524235 
L 166.360969 159.681556 
L 166.780298 159.560258 
L 167.199626 159.652118 
L 168.038283 159.465667 
L 168.87694 159.492625 
L 169.296268 159.353696 
L 170.973582 159.374345 
L 171.39291 159.353805 
L 172.231567 159.477018 
L 173.070224 159.430353 
L 173.489552 159.717661 
L 173.908881 159.581439 
L 174.328209 159.641706 
L 174.747538 159.454088 
L 175.166866 159.64628 
L 175.586194 159.653752 
L 177.263508 159.069124 
L 177.682837 159.13515 
L 178.521493 159.013426 
L 179.779479 159.351617 
L 180.198807 159.189885 
L 180.618135 159.379278 
L 181.876121 159.130314 
L 182.295449 159.218604 
L 182.714778 158.969135 
L 183.553434 158.767973 
L 183.972763 158.894727 
L 184.392091 158.835857 
L 185.230748 158.954935 
L 186.069405 159.076361 
L 186.488733 159.289874 
L 186.908062 159.375369 
L 188.166047 159.197201 
L 189.424032 159.368775 
L 189.843361 159.234416 
L 190.262689 158.950523 
L 190.682018 159.073657 
L 191.101346 159.048373 
L 191.520674 159.311358 
L 191.940003 159.13829 
L 192.359331 159.159108 
L 194.036645 158.799686 
L 194.455973 158.489959 
L 195.29463 158.511508 
L 195.713959 158.371205 
L 196.133287 158.587559 
L 196.552615 158.560362 
L 196.971944 158.748572 
L 197.810601 158.586194 
L 198.229929 158.897946 
L 198.649257 158.657347 
L 199.487914 158.938856 
L 200.326571 159.010569 
L 201.165228 158.850678 
L 202.842542 159.201567 
L 203.26187 159.176297 
L 203.681199 159.300432 
L 204.519855 159.18369 
L 205.358512 159.436814 
L 206.616497 159.743341 
L 207.455154 159.911697 
L 207.874483 160.11312 
L 209.971125 159.976953 
L 210.390453 160.001739 
L 210.809782 160.182589 
L 212.067767 160.384403 
L 212.906424 160.522225 
L 213.325752 160.523781 
L 213.745081 160.390677 
L 214.583737 160.346976 
L 215.003066 160.131758 
L 215.422394 160.174402 
L 216.261051 160.104639 
L 217.519036 160.131203 
L 217.938365 159.708192 
L 218.777022 159.390159 
L 219.615678 159.226349 
L 220.035007 159.470731 
L 221.712321 159.377675 
L 222.970306 159.273489 
L 223.389634 159.066326 
L 224.228291 159.142068 
L 224.647619 158.987126 
L 225.066948 159.29387 
L 226.324933 159.314207 
L 226.744262 159.195655 
L 228.002247 159.235257 
L 228.421575 159.130678 
L 228.840904 159.258247 
L 229.260232 159.528337 
L 230.937546 159.628321 
L 231.776203 159.166206 
L 232.614859 158.97089 
L 233.453516 158.964285 
L 233.872845 158.8564 
L 234.292173 158.973357 
L 235.13083 158.817522 
L 235.969487 158.727657 
L 236.808144 158.569948 
L 237.6468 158.6719 
L 238.066129 158.545973 
L 238.485457 158.866264 
L 240.582099 158.665122 
L 241.001428 158.838845 
L 241.420756 158.844944 
L 241.840085 159.050784 
L 242.678742 158.915204 
L 243.09807 159.036015 
L 244.356055 158.915619 
L 244.775384 159.148131 
L 245.61404 158.969654 
L 246.033369 158.877372 
L 246.452697 158.99261 
L 246.872026 159.36625 
L 247.291354 159.383892 
L 247.710683 159.133529 
L 248.968668 159.54986 
L 249.387996 159.464519 
L 249.807325 159.727459 
L 250.226653 159.670263 
L 251.06531 159.777633 
L 251.484638 159.651751 
L 252.742624 160.23141 
L 253.58128 160.194809 
L 254.000609 160.085381 
L 254.419937 160.244398 
L 254.839266 160.100737 
L 255.258594 160.127179 
L 256.516579 160.686623 
L 256.935908 160.541647 
L 257.774565 160.532041 
L 258.613221 160.195994 
L 259.03255 160.094631 
L 261.54852 160.467255 
L 261.967849 160.721219 
L 262.387177 160.739711 
L 263.645162 160.409844 
L 264.064491 160.638741 
L 264.903148 160.532795 
L 265.322476 160.713788 
L 266.161133 160.527935 
L 266.99979 160.643185 
L 267.419118 160.514715 
L 267.838447 160.623 
L 269.096432 160.277674 
L 270.354417 160.11561 
L 270.773746 160.177023 
L 271.612402 160.053942 
L 272.031731 160.236061 
L 272.451059 160.119193 
L 272.870388 160.251902 
L 273.289716 160.203439 
L 273.709045 160.5308 
L 274.128373 160.659504 
L 274.96703 160.484503 
L 276.225015 160.126471 
L 276.644343 160.440099 
L 277.063672 160.305372 
L 277.483 160.416777 
L 277.902329 160.362981 
L 278.321657 160.544223 
L 278.740986 160.488209 
L 279.160314 160.594927 
L 279.998971 160.267518 
L 280.418299 160.777077 
L 280.837628 160.779996 
L 281.256956 160.969651 
L 282.93427 161.0105 
L 283.353598 161.059774 
L 283.772927 160.837866 
L 284.611583 161.002446 
L 285.030912 161.073878 
L 285.45024 161.024459 
L 285.869569 160.767576 
L 286.288897 160.760203 
L 286.708226 160.60971 
L 287.127554 160.758097 
L 287.546882 160.654299 
L 287.966211 160.818559 
L 289.643524 160.80709 
L 291.740167 161.114734 
L 292.159495 160.899247 
L 292.578823 161.261253 
L 295.933451 161.375252 
L 296.352779 161.508648 
L 298.030093 161.083534 
L 300.546063 161.360004 
L 301.38472 161.221798 
L 301.804049 161.13716 
L 302.223377 161.187631 
L 302.642705 161.065048 
L 303.900691 161.369266 
L 304.320019 161.245766 
L 305.158676 161.550108 
L 305.578004 161.387572 
L 306.416661 161.747968 
L 307.255318 161.834772 
L 308.093975 161.842305 
L 308.932632 161.842144 
L 310.609945 161.663874 
L 312.706588 161.842021 
L 314.80323 161.320001 
L 315.222558 161.349165 
L 315.641886 161.532249 
L 317.3192 161.650925 
L 318.157857 161.361506 
L 318.996514 161.308667 
L 319.835171 161.741169 
L 320.254499 161.860378 
L 321.093156 161.911795 
L 321.512484 162.034724 
L 322.77047 161.934911 
L 323.609126 161.58377 
L 324.028455 161.783506 
L 325.705769 161.735576 
L 326.125097 161.551643 
L 326.544425 161.761064 
L 328.221739 161.327962 
L 329.479724 161.666303 
L 330.73771 161.534666 
L 331.157038 161.564325 
L 331.576366 161.451621 
L 332.834352 161.933836 
L 333.673008 161.923317 
L 334.092337 162.019303 
L 335.350322 161.832515 
L 336.188979 161.750391 
L 337.027636 162.023692 
L 339.124278 161.761989 
L 339.543606 161.948592 
L 340.382263 161.944377 
L 340.801592 161.802506 
L 341.22092 161.947874 
L 341.640248 161.811804 
L 342.059577 161.933902 
L 343.317562 161.767641 
L 344.994876 162.242217 
L 345.414204 162.494226 
L 345.833533 162.542106 
L 347.091518 162.202139 
L 347.930175 162.311026 
L 348.349503 162.522365 
L 348.768832 162.488849 
L 349.18816 162.629473 
L 349.607488 162.319486 
L 352.123459 162.834006 
L 352.542787 162.830899 
L 352.962116 163.041898 
L 353.381444 162.873011 
L 353.800773 163.018584 
L 354.639429 162.922384 
L 355.058758 163.139869 
L 355.897415 163.096371 
L 356.316743 163.120379 
L 357.1554 163.468317 
L 357.574728 163.243959 
L 358.413385 163.251078 
L 358.832714 163.521634 
L 359.67137 163.600546 
L 360.090699 163.861208 
L 360.510027 163.713111 
L 361.768013 163.75031 
L 362.187341 163.862637 
L 362.606669 163.755703 
L 364.283983 163.801562 
L 364.703312 163.73925 
L 365.12264 164.093827 
L 366.799954 163.877177 
L 368.057939 164.129608 
L 368.896596 164.323745 
L 369.735253 164.309662 
L 370.154581 164.505044 
L 370.573909 164.470808 
L 370.993238 164.629193 
L 371.412566 164.519114 
L 373.08988 164.830719 
L 373.509208 164.84869 
L 373.928537 165.098736 
L 374.347865 165.123926 
L 374.767194 164.995074 
L 376.444507 165.413773 
L 378.541149 164.967018 
L 378.960478 164.778777 
L 379.379806 164.965903 
L 379.799135 164.91948 
L 380.218463 164.715978 
L 381.05712 165.015266 
L 381.895777 165.194243 
L 383.992419 165.314478 
L 384.831076 165.321772 
L 385.250404 165.471654 
L 385.669732 165.482898 
L 386.089061 165.20088 
L 387.347046 165.605575 
L 388.185703 165.485769 
L 388.605031 165.482587 
L 389.02436 165.356066 
L 389.443688 165.351011 
L 389.863017 165.537298 
L 390.282345 165.566385 
L 391.54033 165.412228 
L 391.959659 165.562661 
L 392.378987 165.460854 
L 393.636972 165.545597 
L 394.056301 165.382307 
L 394.475629 165.524844 
L 394.894958 165.334283 
L 395.314286 165.306169 
L 395.733615 165.581236 
L 397.410928 165.805578 
L 397.830257 165.952619 
L 398.249585 165.96334 
L 399.088242 166.313758 
L 399.926899 166.279295 
L 400.346227 166.184135 
L 401.184884 166.522314 
L 401.604212 166.457518 
L 402.023541 166.518668 
L 404.95884 165.961266 
L 405.378168 166.082521 
L 405.797497 165.731952 
L 406.216825 165.864494 
L 406.636153 165.759349 
L 407.055482 166.012926 
L 409.152124 165.993478 
L 409.571452 165.842391 
L 410.829438 165.816871 
L 411.668094 165.70973 
L 412.087423 165.704827 
L 412.506751 165.434056 
L 412.92608 165.545088 
L 413.764737 165.365401 
L 414.603393 165.742115 
L 415.022722 165.539 
L 415.44205 165.641637 
L 415.861379 165.514292 
L 416.280707 165.807087 
L 416.700036 165.656745 
L 417.119364 165.708375 
L 418.377349 165.457249 
L 418.796678 165.63845 
L 419.635334 165.329094 
L 420.473991 165.397971 
L 420.89332 165.109973 
L 421.312648 165.29613 
L 422.151305 165.107045 
L 422.989962 165.161193 
L 423.828619 164.973849 
L 424.247947 164.987254 
L 424.667275 165.171246 
L 425.505932 165.291308 
L 425.925261 165.075242 
L 430.118545 165.576208 
L 430.957202 165.513715 
L 433.473172 165.354146 
L 433.892501 165.183039 
L 435.150486 165.357209 
L 435.569814 165.571551 
L 436.408471 165.798608 
L 436.8278 165.958355 
L 438.085785 166.017501 
L 438.505113 166.082801 
L 438.924442 165.907786 
L 439.34377 165.884228 
L 439.763099 165.746253 
L 440.182427 165.991275 
L 440.601755 166.057741 
L 441.021084 165.849667 
L 441.859741 165.787085 
L 442.279069 165.919803 
L 443.117726 165.869327 
L 444.375711 165.71059 
L 444.79504 165.832691 
L 445.633696 165.398701 
L 446.053025 165.460137 
L 446.472353 165.879722 
L 446.891682 166.040555 
L 448.149667 165.832919 
L 448.568995 165.877767 
L 448.988324 166.04476 
L 449.826981 165.949905 
L 450.246309 166.137025 
L 451.084966 165.984159 
L 451.504294 165.742042 
L 452.76228 165.517323 
L 454.858922 165.363 
L 455.697579 165.328894 
L 456.116907 165.547991 
L 456.955564 165.546509 
L 457.794221 165.501538 
L 458.213549 165.716252 
L 459.471534 165.790823 
L 460.310191 165.843112 
L 461.148848 165.56497 
L 462.826162 165.905271 
L 463.24549 165.884421 
L 464.084147 165.639883 
L 464.503475 165.625843 
L 464.922804 165.420974 
L 465.342132 165.455842 
L 466.600117 165.129493 
L 467.019446 165.38622 
L 467.858103 165.477063 
L 469.116088 165.259638 
L 469.535416 165.512712 
L 469.954745 165.151622 
L 470.374073 165.136197 
L 471.21273 164.873161 
L 472.890044 164.941272 
L 473.309372 165.183139 
L 473.728701 165.240928 
L 474.148029 165.105707 
L 474.986686 165.0405 
L 476.244671 164.663884 
L 477.083328 164.655533 
L 477.921985 164.44785 
L 478.341313 164.60376 
L 480.018627 164.587492 
L 480.437955 164.838429 
L 480.857284 164.816907 
L 481.695941 164.499838 
L 482.534597 164.674523 
L 483.373254 164.7781 
L 485.050568 165.041749 
L 485.469896 165.158714 
L 485.889225 165.135215 
L 486.308553 165.328015 
L 486.727882 165.273911 
L 487.14721 165.091212 
L 487.985867 165.123698 
L 488.405195 164.935158 
L 488.824524 165.19552 
L 490.921166 165.331039 
L 491.340494 165.213858 
L 493.437136 165.950905 
L 495.533778 166.35769 
L 497.211092 165.923147 
L 497.63042 165.891715 
L 497.63042 165.891715 
" style="fill:none;stroke:#fc4f30;stroke-width:4;"/>
   </g>
   <g id="line2d_24">
    <path clip-path="url(#p63a82a55d2)" d="M 78.72133 111.22806 
L 79.140658 113.247551 
L 80.398643 115.220441 
L 81.2373 116.167046 
L 82.495285 117.161173 
L 83.753271 117.806044 
L 85.430584 118.328188 
L 87.527226 118.671922 
L 90.462525 118.878705 
L 95.913795 118.97909 
L 117.718873 118.997269 
L 141.620592 118.997279 
L 143.717235 118.214935 
L 145.813877 117.684922 
L 147.910519 117.389873 
L 152.523131 117.151166 
L 157.974401 117.077951 
L 167.199626 117.085405 
L 174.747538 117.093996 
L 179.779479 117.098559 
L 186.069405 117.110861 
L 190.682018 117.110981 
L 211.22911 117.059518 
L 217.938365 117.082615 
L 224.647619 117.114849 
L 228.002247 117.103757 
L 239.743443 117.130227 
L 246.452697 117.114604 
L 247.291354 117.725168 
L 248.549339 118.345988 
L 250.226653 118.827689 
L 252.323295 119.14331 
L 257.355236 119.364598 
L 264.064491 119.410263 
L 280.837628 119.408959 
L 285.869569 119.409546 
L 344.575547 119.348316 
L 353.800773 119.305587 
L 369.735253 119.24596 
L 376.863836 119.198862 
L 386.508389 119.198762 
L 394.475629 119.189837 
L 398.249585 119.169586 
L 404.120183 119.164823 
L 426.344589 119.207961 
L 451.504294 119.179806 
L 461.148848 119.187984 
L 468.69676 119.198278 
L 483.373254 119.224325 
L 497.63042 119.172894 
L 497.63042 119.172894 
" style="fill:none;stroke:#5cb85c;stroke-width:4;"/>
   </g>
   <g id="patch_3">
    <path d="M 57.775875 174.109091 
L 57.775875 7.2 
" style="fill:none;stroke:#ffffff;stroke-linecap:square;stroke-linejoin:miter;stroke-width:3;"/>
   </g>
   <g id="patch_4">
    <path d="M 518.575875 174.109091 
L 518.575875 7.2 
" style="fill:none;stroke:#ffffff;stroke-linecap:square;stroke-linejoin:miter;stroke-width:3;"/>
   </g>
   <g id="patch_5">
    <path d="M 57.775875 174.109091 
L 518.575875 174.109091 
" style="fill:none;stroke:#ffffff;stroke-linecap:square;stroke-linejoin:miter;stroke-width:3;"/>
   </g>
   <g id="patch_6">
    <path d="M 57.775875 7.2 
L 518.575875 7.2 
" style="fill:none;stroke:#ffffff;stroke-linecap:square;stroke-linejoin:miter;stroke-width:3;"/>
   </g>
   <g id="legend_1">
    <g id="patch_7">
     <path d="M 455.335875 53.251875 
L 510.175875 53.251875 
Q 512.575875 53.251875 512.575875 50.851875 
L 512.575875 15.6 
Q 512.575875 13.2 510.175875 13.2 
L 455.335875 13.2 
Q 452.935875 13.2 452.935875 15.6 
L 452.935875 50.851875 
Q 452.935875 53.251875 455.335875 53.251875 
z
" style="fill:#ffffff;opacity:0.8;stroke:#cccccc;stroke-linejoin:miter;stroke-width:0.5;"/>
    </g>
    <g id="line2d_25">
     <path d="M 457.735875 22.918125 
L 481.735875 22.918125 
" style="fill:none;stroke:#fc4f30;stroke-width:4;"/>
    </g>
    <g id="line2d_26"/>
    <g id="text_7">
     <!-- $\sf v_{dr}$ -->
     <defs>
      <path d="M 45.40625 46.390625 
L 45.40625 75.984375 
L 54.390625 75.984375 
L 54.390625 0 
L 45.40625 0 
L 45.40625 8.203125 
Q 42.578125 3.328125 38.25 0.953125 
Q 33.9375 -1.421875 27.875 -1.421875 
Q 17.96875 -1.421875 11.734375 6.484375 
Q 5.515625 14.40625 5.515625 27.296875 
Q 5.515625 40.1875 11.734375 48.09375 
Q 17.96875 56 27.875 56 
Q 33.9375 56 38.25 53.625 
Q 42.578125 51.265625 45.40625 46.390625 
z
M 14.796875 27.296875 
Q 14.796875 17.390625 18.875 11.75 
Q 22.953125 6.109375 30.078125 6.109375 
Q 37.203125 6.109375 41.296875 11.75 
Q 45.40625 17.390625 45.40625 27.296875 
Q 45.40625 37.203125 41.296875 42.84375 
Q 37.203125 48.484375 30.078125 48.484375 
Q 22.953125 48.484375 18.875 42.84375 
Q 14.796875 37.203125 14.796875 27.296875 
z
" id="DejaVuSans-64"/>
     </defs>
     <g transform="translate(491.335875 27.118125)scale(0.12 -0.12)">
      <use transform="translate(0 0.3125)" xlink:href="#DejaVuSans-76"/>
      <use transform="translate(60.136719 -16.09375)scale(0.7)" xlink:href="#DejaVuSans-64"/>
      <use transform="translate(104.570312 -16.09375)scale(0.7)" xlink:href="#DejaVuSans-72"/>
     </g>
    </g>
    <g id="line2d_27">
     <path d="M 457.735875 40.531875 
L 481.735875 40.531875 
" style="fill:none;stroke:#5cb85c;stroke-width:4;"/>
    </g>
    <g id="line2d_28"/>
    <g id="text_8">
     <!-- $\sf v_{qr}$ -->
     <defs>
      <path d="M 14.796875 27.296875 
Q 14.796875 17.390625 18.875 11.75 
Q 22.953125 6.109375 30.078125 6.109375 
Q 37.203125 6.109375 41.296875 11.75 
Q 45.40625 17.390625 45.40625 27.296875 
Q 45.40625 37.203125 41.296875 42.84375 
Q 37.203125 48.484375 30.078125 48.484375 
Q 22.953125 48.484375 18.875 42.84375 
Q 14.796875 37.203125 14.796875 27.296875 
z
M 45.40625 8.203125 
Q 42.578125 3.328125 38.25 0.953125 
Q 33.9375 -1.421875 27.875 -1.421875 
Q 17.96875 -1.421875 11.734375 6.484375 
Q 5.515625 14.40625 5.515625 27.296875 
Q 5.515625 40.1875 11.734375 48.09375 
Q 17.96875 56 27.875 56 
Q 33.9375 56 38.25 53.625 
Q 42.578125 51.265625 45.40625 46.390625 
L 45.40625 54.6875 
L 54.390625 54.6875 
L 54.390625 -20.796875 
L 45.40625 -20.796875 
z
" id="DejaVuSans-71"/>
     </defs>
     <g transform="translate(491.335875 44.731875)scale(0.12 -0.12)">
      <use transform="translate(0 0.3125)" xlink:href="#DejaVuSans-76"/>
      <use transform="translate(60.136719 -16.09375)scale(0.7)" xlink:href="#DejaVuSans-71"/>
      <use transform="translate(104.570312 -16.09375)scale(0.7)" xlink:href="#DejaVuSans-72"/>
     </g>
    </g>
   </g>
  </g>
  <g id="axes_2">
   <g id="patch_8">
    <path d="M 57.775875 374.4 
L 518.575875 374.4 
L 518.575875 207.490909 
L 57.775875 207.490909 
z
" style="fill:#ffffff;"/>
   </g>
   <g id="matplotlib.axis_3">
    <g id="xtick_7">
     <g id="line2d_29">
      <path clip-path="url(#p12a121cabc)" d="M 78.72133 374.4 
L 78.72133 207.490909 
" style="fill:none;stroke:#cbcbcb;"/>
     </g>
     <g id="line2d_30"/>
     <g id="text_9">
      <!-- 0 -->
      <g transform="translate(74.90383 387.018125)scale(0.12 -0.12)">
       <use xlink:href="#DejaVuSans-30"/>
      </g>
     </g>
    </g>
    <g id="xtick_8">
     <g id="line2d_31">
      <path clip-path="url(#p12a121cabc)" d="M 162.587013 374.4 
L 162.587013 207.490909 
" style="fill:none;stroke:#cbcbcb;"/>
     </g>
     <g id="line2d_32"/>
     <g id="text_10">
      <!-- 2 -->
      <g transform="translate(158.769513 387.018125)scale(0.12 -0.12)">
       <use xlink:href="#DejaVuSans-32"/>
      </g>
     </g>
    </g>
    <g id="xtick_9">
     <g id="line2d_33">
      <path clip-path="url(#p12a121cabc)" d="M 246.452697 374.4 
L 246.452697 207.490909 
" style="fill:none;stroke:#cbcbcb;"/>
     </g>
     <g id="line2d_34"/>
     <g id="text_11">
      <!-- 4 -->
      <g transform="translate(242.635197 387.018125)scale(0.12 -0.12)">
       <use xlink:href="#DejaVuSans-34"/>
      </g>
     </g>
    </g>
    <g id="xtick_10">
     <g id="line2d_35">
      <path clip-path="url(#p12a121cabc)" d="M 330.318381 374.4 
L 330.318381 207.490909 
" style="fill:none;stroke:#cbcbcb;"/>
     </g>
     <g id="line2d_36"/>
     <g id="text_12">
      <!-- 6 -->
      <g transform="translate(326.500881 387.018125)scale(0.12 -0.12)">
       <use xlink:href="#DejaVuSans-36"/>
      </g>
     </g>
    </g>
    <g id="xtick_11">
     <g id="line2d_37">
      <path clip-path="url(#p12a121cabc)" d="M 414.184065 374.4 
L 414.184065 207.490909 
" style="fill:none;stroke:#cbcbcb;"/>
     </g>
     <g id="line2d_38"/>
     <g id="text_13">
      <!-- 8 -->
      <defs>
       <path d="M 31.78125 34.625 
Q 24.75 34.625 20.71875 30.859375 
Q 16.703125 27.09375 16.703125 20.515625 
Q 16.703125 13.921875 20.71875 10.15625 
Q 24.75 6.390625 31.78125 6.390625 
Q 38.8125 6.390625 42.859375 10.171875 
Q 46.921875 13.96875 46.921875 20.515625 
Q 46.921875 27.09375 42.890625 30.859375 
Q 38.875 34.625 31.78125 34.625 
z
M 21.921875 38.8125 
Q 15.578125 40.375 12.03125 44.71875 
Q 8.5 49.078125 8.5 55.328125 
Q 8.5 64.0625 14.71875 69.140625 
Q 20.953125 74.21875 31.78125 74.21875 
Q 42.671875 74.21875 48.875 69.140625 
Q 55.078125 64.0625 55.078125 55.328125 
Q 55.078125 49.078125 51.53125 44.71875 
Q 48 40.375 41.703125 38.8125 
Q 48.828125 37.15625 52.796875 32.3125 
Q 56.78125 27.484375 56.78125 20.515625 
Q 56.78125 9.90625 50.3125 4.234375 
Q 43.84375 -1.421875 31.78125 -1.421875 
Q 19.734375 -1.421875 13.25 4.234375 
Q 6.78125 9.90625 6.78125 20.515625 
Q 6.78125 27.484375 10.78125 32.3125 
Q 14.796875 37.15625 21.921875 38.8125 
z
M 18.3125 54.390625 
Q 18.3125 48.734375 21.84375 45.5625 
Q 25.390625 42.390625 31.78125 42.390625 
Q 38.140625 42.390625 41.71875 45.5625 
Q 45.3125 48.734375 45.3125 54.390625 
Q 45.3125 60.0625 41.71875 63.234375 
Q 38.140625 66.40625 31.78125 66.40625 
Q 25.390625 66.40625 21.84375 63.234375 
Q 18.3125 60.0625 18.3125 54.390625 
z
" id="DejaVuSans-38"/>
      </defs>
      <g transform="translate(410.366565 387.018125)scale(0.12 -0.12)">
       <use xlink:href="#DejaVuSans-38"/>
      </g>
     </g>
    </g>
    <g id="xtick_12">
     <g id="line2d_39">
      <path clip-path="url(#p12a121cabc)" d="M 498.049749 374.4 
L 498.049749 207.490909 
" style="fill:none;stroke:#cbcbcb;"/>
     </g>
     <g id="line2d_40"/>
     <g id="text_14">
      <!-- 10 -->
      <defs>
       <path d="M 12.40625 8.296875 
L 28.515625 8.296875 
L 28.515625 63.921875 
L 10.984375 60.40625 
L 10.984375 69.390625 
L 28.421875 72.90625 
L 38.28125 72.90625 
L 38.28125 8.296875 
L 54.390625 8.296875 
L 54.390625 0 
L 12.40625 0 
z
" id="DejaVuSans-31"/>
      </defs>
      <g transform="translate(490.414749 387.018125)scale(0.12 -0.12)">
       <use xlink:href="#DejaVuSans-31"/>
       <use x="63.623047" xlink:href="#DejaVuSans-30"/>
      </g>
     </g>
    </g>
    <g id="text_15">
     <!-- Time (s) -->
     <defs>
      <path d="M -0.296875 72.90625 
L 61.375 72.90625 
L 61.375 64.59375 
L 35.5 64.59375 
L 35.5 0 
L 25.59375 0 
L 25.59375 64.59375 
L -0.296875 64.59375 
z
" id="DejaVuSans-54"/>
      <path d="M 9.421875 54.6875 
L 18.40625 54.6875 
L 18.40625 0 
L 9.421875 0 
z
M 9.421875 75.984375 
L 18.40625 75.984375 
L 18.40625 64.59375 
L 9.421875 64.59375 
z
" id="DejaVuSans-69"/>
      <path d="M 52 44.1875 
Q 55.375 50.25 60.0625 53.125 
Q 64.75 56 71.09375 56 
Q 79.640625 56 84.28125 50.015625 
Q 88.921875 44.046875 88.921875 33.015625 
L 88.921875 0 
L 79.890625 0 
L 79.890625 32.71875 
Q 79.890625 40.578125 77.09375 44.375 
Q 74.3125 48.1875 68.609375 48.1875 
Q 61.625 48.1875 57.5625 43.546875 
Q 53.515625 38.921875 53.515625 30.90625 
L 53.515625 0 
L 44.484375 0 
L 44.484375 32.71875 
Q 44.484375 40.625 41.703125 44.40625 
Q 38.921875 48.1875 33.109375 48.1875 
Q 26.21875 48.1875 22.15625 43.53125 
Q 18.109375 38.875 18.109375 30.90625 
L 18.109375 0 
L 9.078125 0 
L 9.078125 54.6875 
L 18.109375 54.6875 
L 18.109375 46.1875 
Q 21.1875 51.21875 25.484375 53.609375 
Q 29.78125 56 35.6875 56 
Q 41.65625 56 45.828125 52.96875 
Q 50 49.953125 52 44.1875 
z
" id="DejaVuSans-6d"/>
     </defs>
     <g transform="translate(258.680625 404.4555)scale(0.144 -0.144)">
      <use xlink:href="#DejaVuSans-54"/>
      <use x="61.037109" xlink:href="#DejaVuSans-69"/>
      <use x="88.820312" xlink:href="#DejaVuSans-6d"/>
      <use x="186.232422" xlink:href="#DejaVuSans-65"/>
      <use x="247.755859" xlink:href="#DejaVuSans-20"/>
      <use x="279.542969" xlink:href="#DejaVuSans-28"/>
      <use x="318.556641" xlink:href="#DejaVuSans-73"/>
      <use x="370.65625" xlink:href="#DejaVuSans-29"/>
     </g>
    </g>
   </g>
   <g id="matplotlib.axis_4">
    <g id="ytick_6">
     <g id="line2d_41">
      <path clip-path="url(#p12a121cabc)" d="M 57.775875 345.795968 
L 518.575875 345.795968 
" style="fill:none;stroke:#cbcbcb;"/>
     </g>
     <g id="line2d_42"/>
     <g id="text_16">
      <!-- −0.1 -->
      <defs>
       <path d="M 10.6875 12.40625 
L 21 12.40625 
L 21 0 
L 10.6875 0 
z
" id="DejaVuSans-2e"/>
      </defs>
      <g transform="translate(25.1365 350.355031)scale(0.12 -0.12)">
       <use xlink:href="#DejaVuSans-2212"/>
       <use x="83.789062" xlink:href="#DejaVuSans-30"/>
       <use x="147.412109" xlink:href="#DejaVuSans-2e"/>
       <use x="179.199219" xlink:href="#DejaVuSans-31"/>
      </g>
     </g>
    </g>
    <g id="ytick_7">
     <g id="line2d_43">
      <path clip-path="url(#p12a121cabc)" d="M 57.775875 291.023564 
L 518.575875 291.023564 
" style="fill:none;stroke:#cbcbcb;"/>
     </g>
     <g id="line2d_44"/>
     <g id="text_17">
      <!-- 0.0 -->
      <g transform="translate(35.192125 295.582626)scale(0.12 -0.12)">
       <use xlink:href="#DejaVuSans-30"/>
       <use x="63.623047" xlink:href="#DejaVuSans-2e"/>
       <use x="95.410156" xlink:href="#DejaVuSans-30"/>
      </g>
     </g>
    </g>
    <g id="ytick_8">
     <g id="line2d_45">
      <path clip-path="url(#p12a121cabc)" d="M 57.775875 236.251159 
L 518.575875 236.251159 
" style="fill:none;stroke:#cbcbcb;"/>
     </g>
     <g id="line2d_46"/>
     <g id="text_18">
      <!-- 0.1 -->
      <g transform="translate(35.192125 240.810222)scale(0.12 -0.12)">
       <use xlink:href="#DejaVuSans-30"/>
       <use x="63.623047" xlink:href="#DejaVuSans-2e"/>
       <use x="95.410156" xlink:href="#DejaVuSans-31"/>
      </g>
     </g>
    </g>
    <g id="text_19">
     <!-- Rotor powers (MVA) -->
     <defs>
      <path d="M 18.109375 8.203125 
L 18.109375 -20.796875 
L 9.078125 -20.796875 
L 9.078125 54.6875 
L 18.109375 54.6875 
L 18.109375 46.390625 
Q 20.953125 51.265625 25.265625 53.625 
Q 29.59375 56 35.59375 56 
Q 45.5625 56 51.78125 48.09375 
Q 58.015625 40.1875 58.015625 27.296875 
Q 58.015625 14.40625 51.78125 6.484375 
Q 45.5625 -1.421875 35.59375 -1.421875 
Q 29.59375 -1.421875 25.265625 0.953125 
Q 20.953125 3.328125 18.109375 8.203125 
z
M 48.6875 27.296875 
Q 48.6875 37.203125 44.609375 42.84375 
Q 40.53125 48.484375 33.40625 48.484375 
Q 26.265625 48.484375 22.1875 42.84375 
Q 18.109375 37.203125 18.109375 27.296875 
Q 18.109375 17.390625 22.1875 11.75 
Q 26.265625 6.109375 33.40625 6.109375 
Q 40.53125 6.109375 44.609375 11.75 
Q 48.6875 17.390625 48.6875 27.296875 
z
" id="DejaVuSans-70"/>
      <path d="M 4.203125 54.6875 
L 13.1875 54.6875 
L 24.421875 12.015625 
L 35.59375 54.6875 
L 46.1875 54.6875 
L 57.421875 12.015625 
L 68.609375 54.6875 
L 77.59375 54.6875 
L 63.28125 0 
L 52.6875 0 
L 40.921875 44.828125 
L 29.109375 0 
L 18.5 0 
z
" id="DejaVuSans-77"/>
      <path d="M 9.8125 72.90625 
L 24.515625 72.90625 
L 43.109375 23.296875 
L 61.8125 72.90625 
L 76.515625 72.90625 
L 76.515625 0 
L 66.890625 0 
L 66.890625 64.015625 
L 48.09375 14.015625 
L 38.1875 14.015625 
L 19.390625 64.015625 
L 19.390625 0 
L 9.8125 0 
z
" id="DejaVuSans-4d"/>
      <path d="M 34.1875 63.1875 
L 20.796875 26.90625 
L 47.609375 26.90625 
z
M 28.609375 72.90625 
L 39.796875 72.90625 
L 67.578125 0 
L 57.328125 0 
L 50.6875 18.703125 
L 17.828125 18.703125 
L 11.1875 0 
L 0.78125 0 
z
" id="DejaVuSans-41"/>
     </defs>
     <g transform="translate(18.14175 362.79358)rotate(-90)scale(0.144 -0.144)">
      <use xlink:href="#DejaVuSans-52"/>
      <use x="69.419922" xlink:href="#DejaVuSans-6f"/>
      <use x="130.601562" xlink:href="#DejaVuSans-74"/>
      <use x="169.810547" xlink:href="#DejaVuSans-6f"/>
      <use x="230.992188" xlink:href="#DejaVuSans-72"/>
      <use x="272.105469" xlink:href="#DejaVuSans-20"/>
      <use x="303.892578" xlink:href="#DejaVuSans-70"/>
      <use x="367.369141" xlink:href="#DejaVuSans-6f"/>
      <use x="428.550781" xlink:href="#DejaVuSans-77"/>
      <use x="510.337891" xlink:href="#DejaVuSans-65"/>
      <use x="571.861328" xlink:href="#DejaVuSans-72"/>
      <use x="612.974609" xlink:href="#DejaVuSans-73"/>
      <use x="665.074219" xlink:href="#DejaVuSans-20"/>
      <use x="696.861328" xlink:href="#DejaVuSans-28"/>
      <use x="735.875" xlink:href="#DejaVuSans-4d"/>
      <use x="822.154297" xlink:href="#DejaVuSans-56"/>
      <use x="890.46875" xlink:href="#DejaVuSans-41"/>
      <use x="958.876953" xlink:href="#DejaVuSans-29"/>
     </g>
    </g>
   </g>
   <g id="line2d_47">
    <path clip-path="url(#p12a121cabc)" d="M 78.72133 283.259072 
L 79.140658 288.117469 
L 79.559986 287.954245 
L 80.398643 287.938582 
L 82.075957 287.435297 
L 84.172599 286.84082 
L 86.269241 286.490021 
L 89.20454 286.269902 
L 94.236481 286.171842 
L 115.202902 286.154906 
L 141.620592 286.154905 
L 143.297906 277.399903 
L 144.555891 272.078672 
L 145.813877 267.996125 
L 146.652533 266.018535 
L 147.49119 264.451599 
L 148.329847 263.332463 
L 150.007161 261.662382 
L 151.265146 260.826165 
L 152.103803 260.537028 
L 154.200445 259.918413 
L 154.619773 259.934344 
L 155.45843 259.747804 
L 156.716416 259.633826 
L 157.135744 259.606758 
L 157.555072 259.413298 
L 158.393729 259.353374 
L 158.813058 259.219012 
L 160.490371 259.341637 
L 161.748357 259.572462 
L 164.683656 259.486055 
L 165.522312 259.584942 
L 168.457611 259.570401 
L 173.070224 259.617888 
L 173.489552 259.455375 
L 174.747538 259.604251 
L 175.586194 259.491289 
L 177.263508 259.821756 
L 178.102165 259.814008 
L 178.940822 259.781467 
L 179.779479 259.661964 
L 180.198807 259.753403 
L 180.618135 259.646311 
L 181.876121 259.787067 
L 182.295449 259.737143 
L 183.134106 259.91844 
L 183.553434 259.991931 
L 184.392091 259.953545 
L 186.908062 259.64849 
L 188.585375 259.727231 
L 189.843361 259.728184 
L 190.262689 259.888702 
L 191.520674 259.684679 
L 192.359331 259.770764 
L 195.713959 260.216258 
L 196.133287 260.093928 
L 196.552615 260.109305 
L 196.971944 260.002888 
L 197.810601 260.094699 
L 198.229929 259.918429 
L 198.649257 260.054468 
L 199.907243 259.870205 
L 200.7459 259.891245 
L 201.165228 259.945155 
L 202.842542 259.746756 
L 204.939184 259.71229 
L 206.197169 259.490427 
L 208.293811 259.252698 
L 208.71314 259.324983 
L 209.551796 259.269329 
L 210.390453 259.294324 
L 211.648438 259.100494 
L 214.164409 259.063841 
L 217.099708 259.28592 
L 217.519036 259.221123 
L 217.938365 259.460301 
L 219.19635 259.672805 
L 219.615678 259.732744 
L 220.035007 259.594566 
L 222.550977 259.667733 
L 224.647619 259.868005 
L 225.066948 259.694567 
L 226.324933 259.683067 
L 227.16359 259.741723 
L 227.582918 259.670759 
L 228.421575 259.786838 
L 230.518217 259.528548 
L 230.937546 259.505462 
L 231.776203 259.76675 
L 232.614859 259.877185 
L 234.292173 259.87579 
L 235.13083 259.963902 
L 236.388815 260.067316 
L 237.227472 260.078032 
L 239.324114 260.011555 
L 240.162771 260.032562 
L 240.582099 260.050072 
L 241.840085 259.832012 
L 243.09807 259.840363 
L 246.452697 259.864904 
L 246.872026 259.163823 
L 247.291354 258.76072 
L 247.710683 258.540541 
L 248.968668 257.435978 
L 249.387996 257.254934 
L 249.807325 256.906843 
L 252.323295 256.019178 
L 252.742624 255.759885 
L 253.58128 255.649634 
L 254.000609 255.657229 
L 254.419937 255.523247 
L 255.258594 255.513143 
L 256.516579 255.124535 
L 257.355236 255.145191 
L 258.193893 255.254273 
L 259.03255 255.365471 
L 262.806506 255.024705 
L 263.645162 255.140585 
L 264.064491 255.012368 
L 266.161133 255.067641 
L 266.99979 255.002565 
L 267.419118 255.072956 
L 267.838447 255.012648 
L 269.935089 255.313498 
L 274.96703 255.086201 
L 276.225015 255.283864 
L 276.644343 255.110603 
L 277.063672 255.184999 
L 278.321657 255.053018 
L 279.998971 255.20582 
L 280.418299 254.924352 
L 281.676285 254.825058 
L 283.353598 254.768173 
L 283.772927 254.890744 
L 285.030912 254.760375 
L 285.45024 254.787671 
L 285.869569 254.929562 
L 290.062853 254.871771 
L 291.740167 254.737799 
L 292.159495 254.856826 
L 292.578823 254.656868 
L 297.191436 254.688619 
L 298.86875 254.661626 
L 300.546063 254.602321 
L 304.320019 254.665421 
L 305.158676 254.497315 
L 305.578004 254.587093 
L 306.83599 254.356811 
L 308.932632 254.336005 
L 310.609945 254.434475 
L 312.706588 254.336073 
L 314.80323 254.624417 
L 316.061215 254.475951 
L 316.899872 254.413726 
L 319.415842 254.484721 
L 320.254499 254.325933 
L 321.093156 254.297533 
L 321.931813 254.243606 
L 322.77047 254.284765 
L 323.609126 254.478721 
L 324.447783 254.370315 
L 324.867112 254.426871 
L 325.28644 254.349494 
L 328.221739 254.620019 
L 330.318381 254.449652 
L 331.576366 254.551715 
L 332.834352 254.285358 
L 336.608307 254.322978 
L 337.446964 254.261397 
L 340.801592 254.3579 
L 341.22092 254.277604 
L 341.640248 254.352764 
L 342.478905 254.314319 
L 343.317562 254.377158 
L 346.252861 254.019258 
L 347.091518 254.137158 
L 349.18816 253.901115 
L 349.607488 254.07234 
L 352.962116 253.673308 
L 353.381444 253.766594 
L 354.220101 253.701994 
L 354.639429 253.739322 
L 355.058758 253.619192 
L 356.316743 253.629958 
L 357.1554 253.43777 
L 357.574728 253.561697 
L 359.252042 253.401472 
L 360.929356 253.314467 
L 361.768013 253.282008 
L 362.187341 253.219963 
L 363.025998 253.26281 
L 365.961297 253.231527 
L 366.380625 253.284948 
L 368.477267 253.003359 
L 370.993238 252.796547 
L 371.412566 252.857351 
L 374.347865 252.523276 
L 374.767194 252.594449 
L 376.444507 252.363175 
L 380.218463 252.748611 
L 381.476448 252.520145 
L 383.57309 252.448931 
L 385.669732 252.324994 
L 386.089061 252.480769 
L 387.347046 252.257231 
L 388.185703 252.323408 
L 395.733615 252.270675 
L 398.249585 252.059616 
L 399.50757 251.865282 
L 400.765556 251.838114 
L 401.184884 251.75086 
L 404.95884 252.060762 
L 405.378168 251.993785 
L 405.797497 252.187426 
L 406.216825 252.114215 
L 406.636153 252.172293 
L 407.055482 252.032226 
L 409.152124 252.042969 
L 409.990781 252.111247 
L 414.184065 252.281368 
L 414.603393 252.181812 
L 415.022722 252.294005 
L 415.44205 252.237312 
L 415.861379 252.307653 
L 416.280707 252.145924 
L 417.119364 252.200449 
L 420.054663 252.362539 
L 420.473991 252.371904 
L 420.89332 252.530983 
L 421.312648 252.428157 
L 422.570633 252.499676 
L 427.602574 252.431555 
L 430.957202 252.307972 
L 435.150486 252.394419 
L 436.408471 252.150607 
L 437.247128 252.066903 
L 439.34377 252.103314 
L 439.763099 252.179527 
L 440.601755 252.007472 
L 441.440412 252.143406 
L 444.375711 252.199225 
L 444.79504 252.131781 
L 445.633696 252.371501 
L 446.053025 252.337566 
L 446.472353 252.105803 
L 446.891682 252.016965 
L 448.568995 252.106883 
L 448.988324 252.014643 
L 449.826981 252.067037 
L 450.246309 251.963679 
L 451.084966 252.048116 
L 451.923623 252.239302 
L 452.76228 252.305979 
L 455.697579 252.410059 
L 456.536235 252.264198 
L 457.794221 252.314697 
L 458.632877 252.162193 
L 459.471534 252.154908 
L 460.310191 252.126025 
L 461.148848 252.27966 
L 462.826162 252.091691 
L 463.664818 252.202814 
L 467.019446 252.378395 
L 468.277431 252.380058 
L 469.116088 252.448314 
L 469.535416 252.308526 
L 469.954745 252.507977 
L 470.793402 252.587519 
L 471.632058 252.660747 
L 472.890044 252.624167 
L 473.728701 252.458649 
L 474.567357 252.541384 
L 475.406014 252.65864 
L 475.825343 252.781052 
L 477.502656 252.854712 
L 477.921985 252.896714 
L 478.760642 252.798117 
L 480.018627 252.819581 
L 480.437955 252.680973 
L 481.276612 252.79342 
L 482.115269 252.843473 
L 483.373254 252.714297 
L 485.889225 252.51704 
L 486.308553 252.410545 
L 488.824524 252.48373 
L 492.179151 252.286279 
L 493.017808 252.134457 
L 495.11445 251.877944 
L 495.953107 251.911044 
L 496.791764 252.042681 
L 497.63042 252.099179 
L 497.63042 252.099179 
" style="fill:none;stroke:#30a2da;stroke-width:4;"/>
   </g>
   <g id="line2d_48">
    <path clip-path="url(#p12a121cabc)" d="M 78.72133 288.285 
L 79.140658 305.47726 
L 80.398643 326.26154 
L 81.2373 336.300449 
L 82.075957 343.889691 
L 82.914614 349.611009 
L 83.753271 353.915284 
L 84.591927 357.148596 
L 85.430584 359.574715 
L 86.269241 361.393664 
L 87.107898 362.756568 
L 87.946555 363.777307 
L 88.785212 364.54153 
L 90.043197 365.343093 
L 91.301182 365.861978 
L 92.978496 366.280949 
L 95.075138 366.555674 
L 98.429765 366.732638 
L 105.13902 366.805365 
L 120.654171 366.813223 
L 130.298725 322.969836 
L 131.55671 317.49775 
L 134.911338 302.565116 
L 136.169323 296.980933 
L 138.265965 287.627589 
L 142.878578 267.060038 
L 144.136563 264.052307 
L 145.394548 261.804616 
L 146.233205 260.714095 
L 147.910519 259.309663 
L 149.168504 258.989529 
L 149.587832 258.621657 
L 150.426489 258.296467 
L 150.845818 258.231746 
L 151.265146 257.99169 
L 152.103803 257.929867 
L 153.781117 257.679842 
L 154.200445 257.588164 
L 154.619773 257.680052 
L 155.45843 257.526207 
L 156.716416 257.481571 
L 157.135744 257.472233 
L 157.555072 257.223576 
L 158.393729 257.179561 
L 158.813058 257.006055 
L 160.071043 257.154465 
L 160.9097 257.367277 
L 161.748357 257.571783 
L 162.587013 257.47857 
L 163.006342 257.62031 
L 164.264327 257.38658 
L 165.522312 257.616882 
L 167.618954 257.609042 
L 169.715597 257.711228 
L 170.134925 257.605241 
L 171.39291 257.733789 
L 172.231567 257.635625 
L 173.070224 257.672836 
L 173.489552 257.443877 
L 173.908881 257.552446 
L 174.328209 257.504424 
L 174.747538 257.65395 
L 175.166866 257.500789 
L 175.586194 257.49484 
L 177.263508 257.960765 
L 178.102165 257.94989 
L 178.521493 258.005159 
L 179.779479 257.735645 
L 180.198807 257.864537 
L 180.618135 257.713602 
L 181.876121 257.912014 
L 182.295449 257.841653 
L 182.714778 258.040465 
L 183.972763 258.099765 
L 184.392091 258.146681 
L 185.230748 258.051783 
L 186.069405 257.955014 
L 186.908062 257.716723 
L 188.166047 257.858713 
L 189.843361 257.829054 
L 190.262689 258.0553 
L 190.682018 257.95717 
L 191.101346 257.97732 
L 191.520674 257.767736 
L 191.940003 257.905661 
L 192.77866 257.973157 
L 194.036645 258.175508 
L 194.455973 258.422342 
L 196.552615 258.366235 
L 196.971944 258.216243 
L 197.810601 258.345648 
L 198.229929 258.097201 
L 198.649257 258.288944 
L 199.487914 258.064599 
L 200.7459 258.058886 
L 201.165228 258.134871 
L 202.842542 257.855233 
L 203.26187 257.875372 
L 203.681199 257.776444 
L 204.519855 257.86948 
L 205.358512 257.667756 
L 207.035826 257.380685 
L 208.293811 257.158873 
L 208.71314 257.260757 
L 209.551796 257.182314 
L 210.390453 257.217544 
L 211.22911 257.039736 
L 212.487095 256.828565 
L 213.325752 256.801508 
L 213.745081 256.907584 
L 214.583737 256.942411 
L 215.003066 257.113927 
L 215.841723 257.149668 
L 217.519036 257.11437 
L 217.938365 257.451483 
L 218.777022 257.704937 
L 219.615678 257.835484 
L 220.035007 257.640726 
L 222.131649 257.738475 
L 222.970306 257.797916 
L 223.389634 257.963013 
L 224.228291 257.902651 
L 224.647619 258.02613 
L 225.066948 257.781674 
L 226.324933 257.765466 
L 227.16359 257.848139 
L 227.582918 257.748118 
L 228.421575 257.911727 
L 230.098889 257.516412 
L 230.937546 257.515136 
L 231.776203 257.883414 
L 232.614859 258.039069 
L 233.453516 258.044333 
L 233.872845 258.130311 
L 234.292173 258.037103 
L 235.13083 258.161295 
L 235.969487 258.232911 
L 236.808144 258.358596 
L 237.6468 258.277346 
L 238.066129 258.377702 
L 238.485457 258.12245 
L 240.582099 258.282748 
L 241.001428 258.144301 
L 241.420756 258.139441 
L 241.840085 257.975399 
L 242.678742 258.083448 
L 243.517398 257.995721 
L 244.356055 258.083116 
L 244.775384 257.897819 
L 246.033369 258.113597 
L 246.452697 258.02176 
L 246.872026 255.834557 
L 247.291354 254.392828 
L 249.387996 249.544874 
L 249.807325 248.675195 
L 251.06531 247.245984 
L 251.484638 247.036155 
L 252.742624 245.64977 
L 253.58128 245.328666 
L 254.000609 245.301962 
L 254.419937 245.005766 
L 254.839266 245.05293 
L 255.258594 244.930996 
L 256.516579 244.110957 
L 256.935908 244.216025 
L 257.774565 244.141393 
L 258.613221 244.445152 
L 259.03255 244.530699 
L 261.54852 244.028079 
L 261.967849 243.740378 
L 262.387177 243.712058 
L 263.645162 244.055756 
L 264.064491 243.80015 
L 264.903148 243.90916 
L 265.322476 243.707638 
L 266.161133 243.906914 
L 266.99979 243.776916 
L 267.419118 243.91652 
L 267.838447 243.796445 
L 269.096432 244.172765 
L 270.354417 244.348906 
L 270.773746 244.281053 
L 271.612402 244.415467 
L 272.031731 244.215255 
L 272.451059 244.343308 
L 272.870388 244.197408 
L 273.289716 244.250428 
L 273.709045 243.890888 
L 274.128373 243.749457 
L 274.547701 243.784327 
L 276.225015 244.334179 
L 276.644343 243.989811 
L 277.063672 244.137669 
L 277.483 244.015322 
L 277.902329 244.074344 
L 278.321657 243.875337 
L 278.740986 243.936804 
L 279.160314 243.819621 
L 279.998971 244.179024 
L 280.418299 243.619595 
L 280.837628 243.616377 
L 281.256956 243.408154 
L 282.93427 243.363275 
L 283.353598 243.309175 
L 283.772927 243.552789 
L 284.611583 243.372099 
L 285.030912 243.293675 
L 285.45024 243.347926 
L 285.869569 243.62994 
L 286.288897 243.638032 
L 286.708226 243.803248 
L 287.127554 243.640341 
L 287.546882 243.754293 
L 287.966211 243.573961 
L 288.804868 243.575879 
L 290.90151 243.312993 
L 291.320838 243.199683 
L 291.740167 243.248802 
L 292.159495 243.485373 
L 292.578823 243.087948 
L 295.933451 242.962794 
L 296.352779 242.816346 
L 298.030093 243.283053 
L 300.546063 242.979533 
L 301.38472 243.131262 
L 301.804049 243.224181 
L 302.223377 243.168771 
L 302.642705 243.303348 
L 303.900691 242.969365 
L 304.320019 243.104948 
L 305.158676 242.770829 
L 305.578004 242.949268 
L 306.416661 242.553611 
L 307.255318 242.458314 
L 307.674646 242.515267 
L 308.513303 242.390197 
L 310.609945 242.645933 
L 312.706588 242.450356 
L 314.80323 243.02345 
L 315.222558 242.991433 
L 315.641886 242.790436 
L 316.899872 242.604693 
L 317.3192 242.660149 
L 318.157857 242.977884 
L 318.996514 243.035894 
L 319.835171 242.561075 
L 320.254499 242.430202 
L 321.093156 242.373755 
L 321.512484 242.238799 
L 322.77047 242.348378 
L 323.609126 242.733873 
L 324.028455 242.514596 
L 325.705769 242.567215 
L 326.125097 242.769145 
L 326.544425 242.539234 
L 328.221739 243.01471 
L 329.479724 242.643266 
L 329.899053 242.718799 
L 330.318381 242.676098 
L 330.73771 242.787782 
L 331.157038 242.755222 
L 331.576366 242.878953 
L 332.834352 242.349557 
L 333.673008 242.361106 
L 334.092337 242.255729 
L 334.511665 242.35933 
L 334.930994 242.348445 
L 335.769651 242.490674 
L 336.188979 242.55095 
L 337.027636 242.25091 
L 337.866293 242.332371 
L 338.285621 242.522313 
L 339.124278 242.538218 
L 339.543606 242.333358 
L 340.382263 242.337985 
L 340.801592 242.493736 
L 341.22092 242.334145 
L 341.640248 242.483529 
L 342.059577 242.349485 
L 343.317562 242.532013 
L 343.736891 242.40454 
L 344.156219 242.39387 
L 345.414204 241.734339 
L 345.833533 241.681774 
L 347.091518 242.055004 
L 347.930175 241.935463 
L 348.349503 241.703447 
L 348.768832 241.740242 
L 349.18816 241.585859 
L 349.607488 241.926176 
L 352.123459 241.361314 
L 352.542787 241.364726 
L 352.962116 241.133083 
L 353.381444 241.318493 
L 353.800773 241.158678 
L 354.639429 241.264289 
L 355.058758 241.025526 
L 355.897415 241.07328 
L 356.316743 241.046923 
L 357.1554 240.664942 
L 357.574728 240.911252 
L 358.413385 240.903437 
L 358.832714 240.606409 
L 359.67137 240.519776 
L 360.090699 240.233611 
L 360.510027 240.396198 
L 361.348684 240.450488 
L 362.187341 240.232042 
L 362.606669 240.349439 
L 364.283983 240.299093 
L 364.703312 240.367501 
L 365.12264 239.978233 
L 365.961297 240.255026 
L 366.380625 240.361202 
L 367.219282 240.146627 
L 367.63861 240.134702 
L 368.477267 239.801533 
L 369.315924 239.706292 
L 369.735253 239.74128 
L 370.154581 239.526783 
L 370.573909 239.564368 
L 370.993238 239.390486 
L 371.412566 239.511336 
L 371.831895 239.395684 
L 372.251223 239.397006 
L 373.08988 239.169243 
L 373.509208 239.149514 
L 373.928537 238.875004 
L 374.347865 238.847349 
L 374.767194 238.988807 
L 376.444507 238.529143 
L 378.541149 239.019608 
L 378.960478 239.226267 
L 379.379806 239.020833 
L 379.799135 239.071798 
L 380.218463 239.29521 
L 381.05712 238.966639 
L 381.895777 238.770151 
L 383.992419 238.638153 
L 384.831076 238.630146 
L 385.250404 238.465599 
L 385.669732 238.453255 
L 386.089061 238.762865 
L 387.347046 238.318575 
L 388.185703 238.450103 
L 388.605031 238.453596 
L 389.02436 238.592495 
L 389.443688 238.598046 
L 389.863017 238.393532 
L 390.282345 238.361599 
L 391.54033 238.530839 
L 391.959659 238.365687 
L 392.378987 238.477455 
L 393.636972 238.384422 
L 394.056301 238.563688 
L 394.475629 238.407205 
L 394.894958 238.61641 
L 395.314286 238.647275 
L 395.733615 238.345295 
L 397.410928 238.099004 
L 397.830257 237.937576 
L 398.249585 237.925806 
L 399.088242 237.541103 
L 399.926899 237.578938 
L 400.346227 237.683409 
L 401.184884 237.312142 
L 401.604212 237.383277 
L 402.023541 237.316145 
L 404.95884 237.928083 
L 405.378168 237.794964 
L 405.797497 238.179834 
L 406.216825 238.034323 
L 406.636153 238.149756 
L 407.055482 237.871368 
L 409.152124 237.89272 
L 409.571452 238.058589 
L 410.410109 238.075387 
L 412.087423 238.209612 
L 412.506751 238.506876 
L 412.92608 238.38498 
L 413.764737 238.582248 
L 414.603393 238.168676 
L 415.022722 238.391663 
L 415.44205 238.278985 
L 415.861379 238.418789 
L 416.280707 238.097347 
L 416.700036 238.262398 
L 417.119364 238.205717 
L 418.377349 238.481413 
L 418.796678 238.282483 
L 419.635334 238.622107 
L 420.473991 238.546491 
L 420.89332 238.862667 
L 421.312648 238.658296 
L 422.151305 238.865881 
L 422.989962 238.806435 
L 423.828619 239.012109 
L 424.247947 238.997392 
L 424.667275 238.795399 
L 425.505932 238.66359 
L 425.925261 238.900795 
L 430.118545 238.350815 
L 430.957202 238.419423 
L 433.473172 238.594604 
L 433.892501 238.782452 
L 435.150486 238.591241 
L 435.569814 238.355928 
L 436.408471 238.106655 
L 436.8278 237.931278 
L 438.085785 237.866346 
L 438.505113 237.794656 
L 438.924442 237.986795 
L 439.34377 238.012658 
L 439.763099 238.164133 
L 440.182427 237.895138 
L 440.601755 237.822169 
L 441.021084 238.050601 
L 441.859741 238.119306 
L 442.279069 237.973602 
L 443.117726 238.029017 
L 444.375711 238.203285 
L 444.79504 238.069238 
L 445.214368 238.377105 
L 445.633696 238.54569 
L 446.053025 238.478242 
L 446.472353 238.017605 
L 446.891682 237.841036 
L 448.149667 238.068987 
L 448.568995 238.019751 
L 448.988324 237.83642 
L 449.826981 237.940555 
L 450.246309 237.735127 
L 450.665637 237.762648 
L 451.084966 237.90295 
L 451.504294 238.168756 
L 452.76228 238.415462 
L 454.858922 238.584883 
L 455.697579 238.622326 
L 456.116907 238.381792 
L 456.955564 238.38342 
L 457.794221 238.432791 
L 458.213549 238.197069 
L 459.052206 238.01377 
L 459.471534 238.115202 
L 460.310191 238.057797 
L 461.148848 238.363152 
L 461.987505 238.181694 
L 463.24549 238.012446 
L 463.664818 238.210418 
L 466.180789 238.741699 
L 466.600117 238.841237 
L 467.019446 238.559392 
L 467.858103 238.459661 
L 469.116088 238.698358 
L 469.535416 238.420524 
L 469.954745 238.816942 
L 470.374073 238.833877 
L 471.21273 239.122648 
L 472.890044 239.047873 
L 473.309372 238.782342 
L 473.728701 238.718899 
L 474.148029 238.86735 
L 474.986686 238.938937 
L 476.244671 239.352401 
L 477.083328 239.36157 
L 477.921985 239.589572 
L 478.341313 239.418408 
L 479.599298 239.356356 
L 480.018627 239.436267 
L 480.437955 239.160778 
L 480.857284 239.184406 
L 481.695941 239.532497 
L 482.534597 239.340721 
L 483.373254 239.22701 
L 485.050568 238.937566 
L 485.469896 238.809157 
L 485.889225 238.834954 
L 486.308553 238.623291 
L 486.727882 238.682689 
L 487.14721 238.883263 
L 487.985867 238.847599 
L 488.405195 239.054586 
L 488.824524 238.76875 
L 490.921166 238.619971 
L 491.340494 238.748618 
L 493.437136 237.939457 
L 495.533778 237.492873 
L 497.211092 237.969932 
L 497.63042 238.004439 
L 497.63042 238.004439 
" style="fill:none;stroke:#e5ae38;stroke-width:4;"/>
   </g>
   <g id="line2d_49">
    <path clip-path="url(#p12a121cabc)" d="M 78.72133 282.790273 
L 80.817972 250.292918 
L 81.656628 241.565251 
L 82.495285 234.970316 
L 83.333942 230.001106 
L 84.172599 226.264274 
L 85.011256 223.458207 
L 85.849913 221.353279 
L 86.68857 219.77552 
L 87.527226 218.59358 
L 88.365883 217.708532 
L 89.623868 216.780157 
L 90.881854 216.179165 
L 92.559167 215.693925 
L 94.655809 215.375793 
L 97.591108 215.185509 
L 103.461706 215.091761 
L 120.654171 215.077686 
L 130.298725 258.708425 
L 131.55671 264.105421 
L 134.072681 274.989012 
L 135.749995 281.759334 
L 136.588651 284.733351 
L 137.00798 285.787461 
L 137.427308 286.153043 
L 137.846637 285.895225 
L 138.265965 285.087532 
L 139.104622 282.34071 
L 140.362607 277.036798 
L 141.620592 271.689023 
L 142.878578 264.407618 
L 144.136563 258.969118 
L 145.394548 254.56286 
L 146.233205 252.306982 
L 147.49119 249.888348 
L 147.910519 249.222095 
L 149.168504 248.146507 
L 149.587832 247.532466 
L 150.426489 246.854474 
L 150.845818 246.659298 
L 151.265146 246.268815 
L 152.103803 246.027768 
L 154.200445 245.356767 
L 154.619773 245.434866 
L 155.039102 245.247078 
L 157.135744 245.059366 
L 157.555072 244.74562 
L 158.393729 244.67254 
L 158.813058 244.454042 
L 159.232386 244.470956 
L 159.651714 244.613319 
L 160.490371 244.698005 
L 161.748357 245.108496 
L 162.587013 244.990705 
L 163.006342 245.160958 
L 164.264327 244.872941 
L 165.522312 245.149897 
L 165.941641 245.125532 
L 166.360969 244.972803 
L 166.780298 245.08979 
L 167.199626 245.000534 
L 168.038283 245.180418 
L 168.87694 245.153906 
L 169.296268 245.288191 
L 170.973582 245.267734 
L 171.39291 245.287531 
L 172.231567 245.168155 
L 173.070224 245.213221 
L 173.489552 244.935106 
L 173.908881 245.066921 
L 174.328209 245.008561 
L 174.747538 245.190123 
L 175.166866 245.004086 
L 175.586194 244.996836 
L 177.263508 245.562576 
L 177.682837 245.498675 
L 178.521493 245.616448 
L 179.779479 245.289162 
L 180.198807 245.445674 
L 180.618135 245.262385 
L 181.876121 245.503311 
L 182.295449 245.41787 
L 182.714778 245.659273 
L 183.553434 245.853913 
L 183.972763 245.731269 
L 184.392091 245.788229 
L 185.230748 245.673008 
L 186.069405 245.55551 
L 186.488733 245.34889 
L 186.908062 245.26615 
L 188.166047 245.438572 
L 189.424032 245.27253 
L 189.843361 245.402557 
L 190.262689 245.677274 
L 190.682018 245.558124 
L 191.101346 245.58259 
L 191.520674 245.328096 
L 191.940003 245.495579 
L 192.359331 245.475434 
L 194.036645 245.823221 
L 194.455973 246.122881 
L 195.29463 246.102033 
L 195.713959 246.237763 
L 196.133287 246.028457 
L 196.552615 246.054769 
L 196.971944 245.872677 
L 197.810601 246.029777 
L 198.229929 245.728148 
L 198.649257 245.960938 
L 199.487914 245.688563 
L 200.326571 245.619171 
L 201.165228 245.773883 
L 202.842542 245.434345 
L 203.26187 245.458799 
L 203.681199 245.33867 
L 204.519855 245.451645 
L 205.358512 245.206681 
L 206.616497 244.910001 
L 207.455154 244.747038 
L 207.874483 244.552053 
L 210.390453 244.659876 
L 210.809782 244.484801 
L 212.067767 244.289416 
L 212.906424 244.155976 
L 213.325752 244.154469 
L 213.745081 244.283342 
L 214.583737 244.325652 
L 215.003066 244.53401 
L 215.422394 244.492727 
L 216.261051 244.560263 
L 217.519036 244.534547 
L 217.938365 244.944022 
L 218.777022 245.251834 
L 219.615678 245.410363 
L 220.035007 245.173856 
L 221.712321 245.263916 
L 222.970306 245.364744 
L 223.389634 245.565218 
L 224.228291 245.491924 
L 224.647619 245.641855 
L 225.066948 245.345021 
L 226.324933 245.325339 
L 226.744262 245.440066 
L 228.002247 245.401743 
L 228.421575 245.502945 
L 228.840904 245.379495 
L 229.260232 245.118102 
L 230.937546 245.02133 
L 231.776203 245.468565 
L 232.614859 245.657566 
L 233.453516 245.663957 
L 233.872845 245.768347 
L 234.292173 245.655179 
L 235.13083 245.805964 
L 235.969487 245.892912 
L 236.808144 246.045495 
L 237.6468 245.946858 
L 238.066129 246.06869 
L 238.485457 245.758803 
L 240.582099 245.953416 
L 241.001428 245.785333 
L 241.420756 245.779432 
L 241.840085 245.580257 
L 242.678742 245.711449 
L 243.09807 245.594549 
L 244.356055 245.711046 
L 244.775384 245.486056 
L 245.61404 245.658762 
L 246.033369 245.748055 
L 246.452697 245.636549 
L 246.872026 243.554528 
L 247.291354 242.210637 
L 248.130011 240.132786 
L 249.387996 237.537098 
L 249.807325 236.642179 
L 251.06531 235.213861 
L 251.484638 235.017992 
L 252.742624 233.557851 
L 253.58128 233.236554 
L 254.000609 233.220082 
L 254.419937 232.903772 
L 254.839266 232.965154 
L 255.258594 232.838387 
L 256.516579 231.951295 
L 256.935908 232.071355 
L 257.355236 231.975965 
L 257.774565 231.995741 
L 258.613221 232.335022 
L 259.03255 232.431021 
L 261.54852 231.884401 
L 261.967849 231.568384 
L 262.387177 231.537762 
L 263.645162 231.917192 
L 264.064491 231.636216 
L 264.903148 231.75663 
L 265.322476 231.535058 
L 266.161133 231.754625 
L 266.99979 231.611796 
L 267.419118 231.765486 
L 267.838447 231.63344 
L 268.677104 231.986739 
L 269.51576 232.137522 
L 269.935089 232.29059 
L 271.193074 232.254021 
L 271.612402 232.314722 
L 272.031731 232.09452 
L 272.451059 232.235383 
L 272.870388 232.074911 
L 273.289716 232.133241 
L 273.709045 231.737723 
L 274.128373 231.582118 
L 274.547701 231.620492 
L 276.225015 232.225394 
L 276.644343 231.846586 
L 277.063672 232.009245 
L 277.483 231.874655 
L 277.902329 231.939587 
L 278.321657 231.720651 
L 278.740986 231.788279 
L 279.160314 231.659352 
L 279.998971 232.054744 
L 280.418299 231.439259 
L 280.837628 231.435718 
L 281.256956 231.206574 
L 282.514941 231.20535 
L 283.353598 231.097641 
L 283.772927 231.365747 
L 284.611583 231.166895 
L 285.030912 231.080582 
L 285.45024 231.140292 
L 285.869569 231.450646 
L 286.288897 231.45955 
L 286.708226 231.641343 
L 287.127554 231.462092 
L 287.546882 231.587478 
L 287.966211 231.389047 
L 288.804868 231.391156 
L 290.90151 231.101844 
L 291.320838 230.977128 
L 291.740167 231.031193 
L 292.159495 231.291558 
L 292.578823 230.854138 
L 295.933451 230.716366 
L 296.352779 230.55514 
L 298.030093 231.068891 
L 300.546063 230.734794 
L 300.965392 230.7605 
L 301.804049 231.004093 
L 302.223377 230.943104 
L 302.642705 231.091229 
L 303.900691 230.7236 
L 304.320019 230.872851 
L 305.158676 230.505027 
L 305.578004 230.701476 
L 306.416661 230.265856 
L 307.255318 230.160918 
L 307.674646 230.223633 
L 308.513303 230.085905 
L 310.609945 230.367512 
L 312.706588 230.152155 
L 314.80323 230.783139 
L 315.222558 230.747893 
L 315.641886 230.526614 
L 316.061215 230.458277 
L 316.480543 230.267512 
L 317.3192 230.383165 
L 318.157857 230.732979 
L 318.996514 230.796837 
L 319.835171 230.274075 
L 320.254499 230.129961 
L 320.673827 230.155656 
L 321.931813 229.949761 
L 322.351141 229.933243 
L 322.77047 230.039852 
L 323.609126 230.464339 
L 324.028455 230.222895 
L 324.447783 230.227098 
L 324.867112 230.350872 
L 325.28644 230.181527 
L 325.705769 230.280836 
L 326.125097 230.503173 
L 326.544425 230.250025 
L 327.383082 230.666914 
L 327.802411 230.85018 
L 328.641067 230.653547 
L 329.479724 230.364576 
L 329.899053 230.447742 
L 330.318381 230.400726 
L 330.73771 230.523692 
L 331.157038 230.487844 
L 331.576366 230.624066 
L 332.834352 230.041151 
L 333.673008 230.05387 
L 334.092337 229.937817 
L 334.511665 230.051913 
L 334.930994 230.039926 
L 335.769651 230.196553 
L 336.188979 230.262926 
L 337.027636 229.932511 
L 337.866293 230.022224 
L 338.285621 230.231392 
L 339.124278 230.248907 
L 339.543606 230.023311 
L 340.382263 230.028406 
L 340.801592 230.199925 
L 341.22092 230.024178 
L 341.640248 230.188684 
L 342.059577 230.041071 
L 343.317562 230.242074 
L 343.736891 230.101701 
L 344.156219 230.08995 
L 345.414204 229.363504 
L 345.833533 229.305594 
L 347.091518 229.716739 
L 347.930175 229.585064 
L 348.349503 229.329471 
L 348.768832 229.370007 
L 349.18816 229.199921 
L 349.607488 229.574834 
L 351.284802 229.212784 
L 351.704131 228.8871 
L 352.542787 228.956268 
L 352.962116 228.701002 
L 353.381444 228.905323 
L 353.800773 228.729209 
L 354.639429 228.845593 
L 355.058758 228.582465 
L 355.897415 228.635095 
L 356.316743 228.606047 
L 357.1554 228.185019 
L 357.574728 228.456518 
L 358.413385 228.447904 
L 358.832714 228.120495 
L 359.67137 228.024991 
L 360.090699 227.709491 
L 360.510027 227.888751 
L 361.348684 227.948605 
L 362.187341 227.707761 
L 362.606669 227.837198 
L 364.283983 227.78169 
L 364.703312 227.857112 
L 365.12264 227.427893 
L 365.961297 227.733103 
L 366.380625 227.850167 
L 367.219282 227.613581 
L 367.63861 227.600431 
L 368.477267 227.233029 
L 369.315924 227.127989 
L 369.735253 227.166577 
L 370.154581 226.929999 
L 370.573909 226.971455 
L 370.993238 226.779657 
L 371.412566 226.91296 
L 371.831895 226.785391 
L 372.251223 226.78685 
L 372.670551 226.597491 
L 373.509208 226.513828 
L 373.928537 226.210962 
L 374.347865 226.180449 
L 374.767194 226.336527 
L 376.444507 225.829317 
L 378.541149 226.37051 
L 378.960478 226.598502 
L 379.379806 226.371861 
L 379.799135 226.428089 
L 380.218463 226.674558 
L 381.05712 226.312069 
L 381.895777 226.095268 
L 383.153762 226.004753 
L 384.411747 226.005041 
L 384.831076 225.940777 
L 385.250404 225.759191 
L 385.669732 225.745568 
L 386.089061 226.087229 
L 387.347046 225.59693 
L 387.766375 225.729426 
L 388.605031 225.745944 
L 389.02436 225.899229 
L 389.443688 225.905354 
L 389.863017 225.679657 
L 390.282345 225.644414 
L 391.121002 225.824568 
L 391.54033 225.831189 
L 391.959659 225.648927 
L 392.378987 225.772276 
L 393.636972 225.669602 
L 394.056301 225.867439 
L 394.475629 225.694747 
L 394.894958 225.925619 
L 395.314286 225.959679 
L 395.733615 225.62642 
L 397.410928 225.354582 
L 397.830257 225.176393 
L 398.249585 225.1634 
L 399.088242 224.738695 
L 399.926899 224.780468 
L 400.346227 224.895807 
L 401.184884 224.48589 
L 401.604212 224.564436 
L 402.023541 224.49031 
L 404.95884 225.165914 
L 405.378168 225.018962 
L 405.797497 225.4438 
L 406.216825 225.283187 
L 406.636153 225.410601 
L 407.055482 225.103307 
L 407.894139 225.139431 
L 408.313467 224.954994 
L 408.732796 224.957378 
L 409.571452 225.309972 
L 410.410109 225.328515 
L 412.087423 225.476668 
L 412.506751 225.804743 
L 412.92608 225.670218 
L 413.764737 225.88792 
L 414.603393 225.431485 
L 415.022722 225.677595 
L 415.44205 225.553235 
L 415.861379 225.707531 
L 416.280707 225.352754 
L 416.700036 225.534929 
L 417.119364 225.472368 
L 418.377349 225.776643 
L 418.796678 225.557097 
L 419.635334 225.931906 
L 420.054663 225.82792 
L 420.473991 225.848461 
L 420.89332 226.19735 
L 421.312648 225.971841 
L 422.151305 226.200896 
L 422.989962 226.135305 
L 423.828619 226.362235 
L 424.247947 226.345998 
L 424.667275 226.123127 
L 425.505932 225.977683 
L 425.925261 226.23942 
L 430.118545 225.632512 
L 430.957202 225.708231 
L 433.473172 225.901556 
L 433.892501 226.108841 
L 435.150486 225.897844 
L 435.569814 225.638155 
L 436.408471 225.363028 
L 436.8278 225.169441 
L 438.085785 225.097762 
L 438.505113 225.018622 
L 438.924442 225.230725 
L 439.34377 225.259273 
L 439.763099 225.426471 
L 440.182427 225.129546 
L 440.601755 225.048994 
L 441.021084 225.301156 
L 441.859741 225.376992 
L 442.279069 225.216162 
L 442.698398 225.308729 
L 443.537054 225.332499 
L 443.956383 225.329763 
L 444.375711 225.469684 
L 444.79504 225.321727 
L 445.214368 225.661528 
L 445.633696 225.847577 
L 446.053025 225.773144 
L 446.472353 225.264734 
L 446.891682 225.069823 
L 448.149667 225.32145 
L 448.568995 225.267103 
L 448.988324 225.064726 
L 449.826981 225.179682 
L 450.246309 224.952904 
L 450.665637 224.983286 
L 451.084966 225.13817 
L 451.504294 225.431573 
L 452.76228 225.703859 
L 454.858922 225.890829 
L 455.697579 225.932148 
L 456.116907 225.666701 
L 456.955564 225.668497 
L 457.794221 225.722984 
L 458.213549 225.462824 
L 459.052206 225.260501 
L 459.471534 225.372462 
L 460.310191 225.309098 
L 460.72952 225.545041 
L 461.148848 225.646129 
L 461.987505 225.445853 
L 463.24549 225.259039 
L 463.664818 225.477557 
L 465.761461 225.911326 
L 466.600117 226.173705 
L 467.019446 225.862698 
L 467.858103 225.752638 
L 469.116088 226.016048 
L 469.535416 225.709446 
L 469.954745 226.146898 
L 470.374073 226.165584 
L 471.21273 226.484189 
L 472.890044 226.401694 
L 473.309372 226.10872 
L 473.728701 226.038715 
L 474.148029 226.202518 
L 474.986686 226.281504 
L 475.825343 226.745684 
L 477.083328 226.74776 
L 477.921985 226.999255 
L 478.341313 226.810457 
L 479.599298 226.742008 
L 480.018627 226.830157 
L 480.437955 226.526256 
L 480.857284 226.552322 
L 481.695941 226.936302 
L 482.534597 226.724762 
L 483.373254 226.599322 
L 485.050568 226.279991 
L 485.469896 226.138308 
L 485.889225 226.166773 
L 486.308553 225.933212 
L 486.727882 225.998758 
L 487.14721 226.220076 
L 487.985867 226.180725 
L 488.405195 226.409099 
L 488.824524 226.093722 
L 490.921166 225.929549 
L 491.340494 226.071508 
L 493.437136 225.17847 
L 495.533778 224.685445 
L 497.211092 225.21211 
L 497.63042 225.250201 
L 497.63042 225.250201 
" style="fill:none;stroke:#8b8b8b;stroke-width:4;"/>
   </g>
   <g id="patch_9">
    <path d="M 57.775875 374.4 
L 57.775875 207.490909 
" style="fill:none;stroke:#ffffff;stroke-linecap:square;stroke-linejoin:miter;stroke-width:3;"/>
   </g>
   <g id="patch_10">
    <path d="M 518.575875 374.4 
L 518.575875 207.490909 
" style="fill:none;stroke:#ffffff;stroke-linecap:square;stroke-linejoin:miter;stroke-width:3;"/>
   </g>
   <g id="patch_11">
    <path d="M 57.775875 374.4 
L 518.575875 374.4 
" style="fill:none;stroke:#ffffff;stroke-linecap:square;stroke-linejoin:miter;stroke-width:3;"/>
   </g>
   <g id="patch_12">
    <path d="M 57.775875 207.490909 
L 518.575875 207.490909 
" style="fill:none;stroke:#ffffff;stroke-linecap:square;stroke-linejoin:miter;stroke-width:3;"/>
   </g>
   <g id="legend_2">
    <g id="patch_13">
     <path d="M 460.255875 368.4 
L 510.175875 368.4 
Q 512.575875 368.4 512.575875 366 
L 512.575875 314.31 
Q 512.575875 311.91 510.175875 311.91 
L 460.255875 311.91 
Q 457.855875 311.91 457.855875 314.31 
L 457.855875 366 
Q 457.855875 368.4 460.255875 368.4 
z
" style="fill:#ffffff;opacity:0.8;stroke:#cccccc;stroke-linejoin:miter;stroke-width:0.5;"/>
    </g>
    <g id="line2d_50">
     <path d="M 462.655875 321.628125 
L 486.655875 321.628125 
" style="fill:none;stroke:#30a2da;stroke-width:4;"/>
    </g>
    <g id="line2d_51"/>
    <g id="text_20">
     <!-- $\sf p_{r}$ -->
     <g transform="translate(496.255875 325.828125)scale(0.12 -0.12)">
      <use xlink:href="#DejaVuSans-70"/>
      <use transform="translate(64.433594 -16.40625)scale(0.7)" xlink:href="#DejaVuSans-72"/>
     </g>
    </g>
    <g id="line2d_52">
     <path d="M 462.655875 339.26625 
L 486.655875 339.26625 
" style="fill:none;stroke:#e5ae38;stroke-width:4;"/>
    </g>
    <g id="line2d_53"/>
    <g id="text_21">
     <!-- $\sf q_{r}$ -->
     <g transform="translate(496.255875 343.46625)scale(0.12 -0.12)">
      <use xlink:href="#DejaVuSans-71"/>
      <use transform="translate(64.433594 -16.40625)scale(0.7)" xlink:href="#DejaVuSans-72"/>
     </g>
    </g>
    <g id="line2d_54">
     <path d="M 462.655875 356.904375 
L 486.655875 356.904375 
" style="fill:none;stroke:#8b8b8b;stroke-width:4;"/>
    </g>
    <g id="line2d_55"/>
    <g id="text_22">
     <!-- $\sf s_{r}$ -->
     <g transform="translate(496.255875 361.104375)scale(0.12 -0.12)">
      <use xlink:href="#DejaVuSans-73"/>
      <use transform="translate(53.056641 -16.40625)scale(0.7)" xlink:href="#DejaVuSans-72"/>
     </g>
    </g>
   </g>
  </g>
 </g>
 <defs>
  <clipPath id="p63a82a55d2">
   <rect height="166.909091" width="460.8" x="57.775875" y="7.2"/>
  </clipPath>
  <clipPath id="p12a121cabc">
   <rect height="166.909091" width="460.8" x="57.775875" y="207.490909"/>
  </clipPath>
 </defs>
</svg>
