<?xml version="1.0" encoding="utf-8" standalone="no"?>
<!DOCTYPE svg PUBLIC "-//W3C//DTD SVG 1.1//EN"
  "http://www.w3.org/Graphics/SVG/1.1/DTD/svg11.dtd">
<!-- Created with matplotlib (http://matplotlib.org/) -->
<svg height="414pt" version="1.1" viewBox="0 0 533 414" width="533pt" xmlns="http://www.w3.org/2000/svg" xmlns:xlink="http://www.w3.org/1999/xlink">
 <defs>
  <style type="text/css">
*{stroke-linecap:butt;stroke-linejoin:round;}
  </style>
 </defs>
 <g id="figure_1">
  <g id="patch_1">
   <path d="M 0 414.65025 
L 533.410875 414.65025 
L 533.410875 0 
L 0 0 
z
" style="fill:none;opacity:0;"/>
  </g>
  <g id="axes_1">
   <g id="patch_2">
    <path d="M 65.410875 174.109091 
L 526.210875 174.109091 
L 526.210875 7.2 
L 65.410875 7.2 
z
" style="fill:#ffffff;"/>
   </g>
   <g id="matplotlib.axis_1">
    <g id="xtick_1">
     <g id="line2d_1">
      <path clip-path="url(#p94fdce48f4)" d="M 86.35633 174.109091 
L 86.35633 7.2 
" style="fill:none;stroke:#cbcbcb;"/>
     </g>
     <g id="line2d_2"/>
    </g>
    <g id="xtick_2">
     <g id="line2d_3">
      <path clip-path="url(#p94fdce48f4)" d="M 170.222013 174.109091 
L 170.222013 7.2 
" style="fill:none;stroke:#cbcbcb;"/>
     </g>
     <g id="line2d_4"/>
    </g>
    <g id="xtick_3">
     <g id="line2d_5">
      <path clip-path="url(#p94fdce48f4)" d="M 254.087697 174.109091 
L 254.087697 7.2 
" style="fill:none;stroke:#cbcbcb;"/>
     </g>
     <g id="line2d_6"/>
    </g>
    <g id="xtick_4">
     <g id="line2d_7">
      <path clip-path="url(#p94fdce48f4)" d="M 337.953381 174.109091 
L 337.953381 7.2 
" style="fill:none;stroke:#cbcbcb;"/>
     </g>
     <g id="line2d_8"/>
    </g>
    <g id="xtick_5">
     <g id="line2d_9">
      <path clip-path="url(#p94fdce48f4)" d="M 421.819065 174.109091 
L 421.819065 7.2 
" style="fill:none;stroke:#cbcbcb;"/>
     </g>
     <g id="line2d_10"/>
    </g>
    <g id="xtick_6">
     <g id="line2d_11">
      <path clip-path="url(#p94fdce48f4)" d="M 505.684749 174.109091 
L 505.684749 7.2 
" style="fill:none;stroke:#cbcbcb;"/>
     </g>
     <g id="line2d_12"/>
    </g>
   </g>
   <g id="matplotlib.axis_2">
    <g id="ytick_1">
     <g id="line2d_13">
      <path clip-path="url(#p94fdce48f4)" d="M 65.410875 160.2 
L 526.210875 160.2 
" style="fill:none;stroke:#cbcbcb;"/>
     </g>
     <g id="line2d_14"/>
     <g id="text_1">
      <!-- 0.00 -->
      <defs>
       <path d="M 31.78125 66.40625 
Q 24.171875 66.40625 20.328125 58.90625 
Q 16.5 51.421875 16.5 36.375 
Q 16.5 21.390625 20.328125 13.890625 
Q 24.171875 6.390625 31.78125 6.390625 
Q 39.453125 6.390625 43.28125 13.890625 
Q 47.125 21.390625 47.125 36.375 
Q 47.125 51.421875 43.28125 58.90625 
Q 39.453125 66.40625 31.78125 66.40625 
z
M 31.78125 74.21875 
Q 44.046875 74.21875 50.515625 64.515625 
Q 56.984375 54.828125 56.984375 36.375 
Q 56.984375 17.96875 50.515625 8.265625 
Q 44.046875 -1.421875 31.78125 -1.421875 
Q 19.53125 -1.421875 13.0625 8.265625 
Q 6.59375 17.96875 6.59375 36.375 
Q 6.59375 54.828125 13.0625 64.515625 
Q 19.53125 74.21875 31.78125 74.21875 
z
" id="DejaVuSans-30"/>
       <path d="M 10.6875 12.40625 
L 21 12.40625 
L 21 0 
L 10.6875 0 
z
" id="DejaVuSans-2e"/>
      </defs>
      <g transform="translate(35.192125 164.759062)scale(0.12 -0.12)">
       <use xlink:href="#DejaVuSans-30"/>
       <use x="63.623047" xlink:href="#DejaVuSans-2e"/>
       <use x="95.410156" xlink:href="#DejaVuSans-30"/>
       <use x="159.033203" xlink:href="#DejaVuSans-30"/>
      </g>
     </g>
    </g>
    <g id="ytick_2">
     <g id="line2d_15">
      <path clip-path="url(#p94fdce48f4)" d="M 65.410875 125.427273 
L 526.210875 125.427273 
" style="fill:none;stroke:#cbcbcb;"/>
     </g>
     <g id="line2d_16"/>
     <g id="text_2">
      <!-- 0.25 -->
      <defs>
       <path d="M 19.1875 8.296875 
L 53.609375 8.296875 
L 53.609375 0 
L 7.328125 0 
L 7.328125 8.296875 
Q 12.9375 14.109375 22.625 23.890625 
Q 32.328125 33.6875 34.8125 36.53125 
Q 39.546875 41.84375 41.421875 45.53125 
Q 43.3125 49.21875 43.3125 52.78125 
Q 43.3125 58.59375 39.234375 62.25 
Q 35.15625 65.921875 28.609375 65.921875 
Q 23.96875 65.921875 18.8125 64.3125 
Q 13.671875 62.703125 7.8125 59.421875 
L 7.8125 69.390625 
Q 13.765625 71.78125 18.9375 73 
Q 24.125 74.21875 28.421875 74.21875 
Q 39.75 74.21875 46.484375 68.546875 
Q 53.21875 62.890625 53.21875 53.421875 
Q 53.21875 48.921875 51.53125 44.890625 
Q 49.859375 40.875 45.40625 35.40625 
Q 44.1875 33.984375 37.640625 27.21875 
Q 31.109375 20.453125 19.1875 8.296875 
z
" id="DejaVuSans-32"/>
       <path d="M 10.796875 72.90625 
L 49.515625 72.90625 
L 49.515625 64.59375 
L 19.828125 64.59375 
L 19.828125 46.734375 
Q 21.96875 47.46875 24.109375 47.828125 
Q 26.265625 48.1875 28.421875 48.1875 
Q 40.625 48.1875 47.75 41.5 
Q 54.890625 34.8125 54.890625 23.390625 
Q 54.890625 11.625 47.5625 5.09375 
Q 40.234375 -1.421875 26.90625 -1.421875 
Q 22.3125 -1.421875 17.546875 -0.640625 
Q 12.796875 0.140625 7.71875 1.703125 
L 7.71875 11.625 
Q 12.109375 9.234375 16.796875 8.0625 
Q 21.484375 6.890625 26.703125 6.890625 
Q 35.15625 6.890625 40.078125 11.328125 
Q 45.015625 15.765625 45.015625 23.390625 
Q 45.015625 31 40.078125 35.4375 
Q 35.15625 39.890625 26.703125 39.890625 
Q 22.75 39.890625 18.8125 39.015625 
Q 14.890625 38.140625 10.796875 36.28125 
z
" id="DejaVuSans-35"/>
      </defs>
      <g transform="translate(35.192125 129.986335)scale(0.12 -0.12)">
       <use xlink:href="#DejaVuSans-30"/>
       <use x="63.623047" xlink:href="#DejaVuSans-2e"/>
       <use x="95.410156" xlink:href="#DejaVuSans-32"/>
       <use x="159.033203" xlink:href="#DejaVuSans-35"/>
      </g>
     </g>
    </g>
    <g id="ytick_3">
     <g id="line2d_17">
      <path clip-path="url(#p94fdce48f4)" d="M 65.410875 90.654545 
L 526.210875 90.654545 
" style="fill:none;stroke:#cbcbcb;"/>
     </g>
     <g id="line2d_18"/>
     <g id="text_3">
      <!-- 0.50 -->
      <g transform="translate(35.192125 95.213608)scale(0.12 -0.12)">
       <use xlink:href="#DejaVuSans-30"/>
       <use x="63.623047" xlink:href="#DejaVuSans-2e"/>
       <use x="95.410156" xlink:href="#DejaVuSans-35"/>
       <use x="159.033203" xlink:href="#DejaVuSans-30"/>
      </g>
     </g>
    </g>
    <g id="ytick_4">
     <g id="line2d_19">
      <path clip-path="url(#p94fdce48f4)" d="M 65.410875 55.881818 
L 526.210875 55.881818 
" style="fill:none;stroke:#cbcbcb;"/>
     </g>
     <g id="line2d_20"/>
     <g id="text_4">
      <!-- 0.75 -->
      <defs>
       <path d="M 8.203125 72.90625 
L 55.078125 72.90625 
L 55.078125 68.703125 
L 28.609375 0 
L 18.3125 0 
L 43.21875 64.59375 
L 8.203125 64.59375 
z
" id="DejaVuSans-37"/>
      </defs>
      <g transform="translate(35.192125 60.440881)scale(0.12 -0.12)">
       <use xlink:href="#DejaVuSans-30"/>
       <use x="63.623047" xlink:href="#DejaVuSans-2e"/>
       <use x="95.410156" xlink:href="#DejaVuSans-37"/>
       <use x="159.033203" xlink:href="#DejaVuSans-35"/>
      </g>
     </g>
    </g>
    <g id="ytick_5">
     <g id="line2d_21">
      <path clip-path="url(#p94fdce48f4)" d="M 65.410875 21.109091 
L 526.210875 21.109091 
" style="fill:none;stroke:#cbcbcb;"/>
     </g>
     <g id="line2d_22"/>
     <g id="text_5">
      <!-- 1.00 -->
      <defs>
       <path d="M 12.40625 8.296875 
L 28.515625 8.296875 
L 28.515625 63.921875 
L 10.984375 60.40625 
L 10.984375 69.390625 
L 28.421875 72.90625 
L 38.28125 72.90625 
L 38.28125 8.296875 
L 54.390625 8.296875 
L 54.390625 0 
L 12.40625 0 
z
" id="DejaVuSans-31"/>
      </defs>
      <g transform="translate(35.192125 25.668153)scale(0.12 -0.12)">
       <use xlink:href="#DejaVuSans-31"/>
       <use x="63.623047" xlink:href="#DejaVuSans-2e"/>
       <use x="95.410156" xlink:href="#DejaVuSans-30"/>
       <use x="159.033203" xlink:href="#DejaVuSans-30"/>
      </g>
     </g>
    </g>
    <g id="text_6">
     <!-- Stator powers (MVA) -->
     <defs>
      <path d="M 53.515625 70.515625 
L 53.515625 60.890625 
Q 47.90625 63.578125 42.921875 64.890625 
Q 37.9375 66.21875 33.296875 66.21875 
Q 25.25 66.21875 20.875 63.09375 
Q 16.5 59.96875 16.5 54.203125 
Q 16.5 49.359375 19.40625 46.890625 
Q 22.3125 44.4375 30.421875 42.921875 
L 36.375 41.703125 
Q 47.40625 39.59375 52.65625 34.296875 
Q 57.90625 29 57.90625 20.125 
Q 57.90625 9.515625 50.796875 4.046875 
Q 43.703125 -1.421875 29.984375 -1.421875 
Q 24.8125 -1.421875 18.96875 -0.25 
Q 13.140625 0.921875 6.890625 3.21875 
L 6.890625 13.375 
Q 12.890625 10.015625 18.65625 8.296875 
Q 24.421875 6.59375 29.984375 6.59375 
Q 38.421875 6.59375 43.015625 9.90625 
Q 47.609375 13.234375 47.609375 19.390625 
Q 47.609375 24.75 44.3125 27.78125 
Q 41.015625 30.8125 33.5 32.328125 
L 27.484375 33.5 
Q 16.453125 35.6875 11.515625 40.375 
Q 6.59375 45.0625 6.59375 53.421875 
Q 6.59375 63.09375 13.40625 68.65625 
Q 20.21875 74.21875 32.171875 74.21875 
Q 37.3125 74.21875 42.625 73.28125 
Q 47.953125 72.359375 53.515625 70.515625 
z
" id="DejaVuSans-53"/>
      <path d="M 18.3125 70.21875 
L 18.3125 54.6875 
L 36.8125 54.6875 
L 36.8125 47.703125 
L 18.3125 47.703125 
L 18.3125 18.015625 
Q 18.3125 11.328125 20.140625 9.421875 
Q 21.96875 7.515625 27.59375 7.515625 
L 36.8125 7.515625 
L 36.8125 0 
L 27.59375 0 
Q 17.1875 0 13.234375 3.875 
Q 9.28125 7.765625 9.28125 18.015625 
L 9.28125 47.703125 
L 2.6875 47.703125 
L 2.6875 54.6875 
L 9.28125 54.6875 
L 9.28125 70.21875 
z
" id="DejaVuSans-74"/>
      <path d="M 34.28125 27.484375 
Q 23.390625 27.484375 19.1875 25 
Q 14.984375 22.515625 14.984375 16.5 
Q 14.984375 11.71875 18.140625 8.90625 
Q 21.296875 6.109375 26.703125 6.109375 
Q 34.1875 6.109375 38.703125 11.40625 
Q 43.21875 16.703125 43.21875 25.484375 
L 43.21875 27.484375 
z
M 52.203125 31.203125 
L 52.203125 0 
L 43.21875 0 
L 43.21875 8.296875 
Q 40.140625 3.328125 35.546875 0.953125 
Q 30.953125 -1.421875 24.3125 -1.421875 
Q 15.921875 -1.421875 10.953125 3.296875 
Q 6 8.015625 6 15.921875 
Q 6 25.140625 12.171875 29.828125 
Q 18.359375 34.515625 30.609375 34.515625 
L 43.21875 34.515625 
L 43.21875 35.40625 
Q 43.21875 41.609375 39.140625 45 
Q 35.0625 48.390625 27.6875 48.390625 
Q 23 48.390625 18.546875 47.265625 
Q 14.109375 46.140625 10.015625 43.890625 
L 10.015625 52.203125 
Q 14.9375 54.109375 19.578125 55.046875 
Q 24.21875 56 28.609375 56 
Q 40.484375 56 46.34375 49.84375 
Q 52.203125 43.703125 52.203125 31.203125 
z
" id="DejaVuSans-61"/>
      <path d="M 30.609375 48.390625 
Q 23.390625 48.390625 19.1875 42.75 
Q 14.984375 37.109375 14.984375 27.296875 
Q 14.984375 17.484375 19.15625 11.84375 
Q 23.34375 6.203125 30.609375 6.203125 
Q 37.796875 6.203125 41.984375 11.859375 
Q 46.1875 17.53125 46.1875 27.296875 
Q 46.1875 37.015625 41.984375 42.703125 
Q 37.796875 48.390625 30.609375 48.390625 
z
M 30.609375 56 
Q 42.328125 56 49.015625 48.375 
Q 55.71875 40.765625 55.71875 27.296875 
Q 55.71875 13.875 49.015625 6.21875 
Q 42.328125 -1.421875 30.609375 -1.421875 
Q 18.84375 -1.421875 12.171875 6.21875 
Q 5.515625 13.875 5.515625 27.296875 
Q 5.515625 40.765625 12.171875 48.375 
Q 18.84375 56 30.609375 56 
z
" id="DejaVuSans-6f"/>
      <path d="M 41.109375 46.296875 
Q 39.59375 47.171875 37.8125 47.578125 
Q 36.03125 48 33.890625 48 
Q 26.265625 48 22.1875 43.046875 
Q 18.109375 38.09375 18.109375 28.8125 
L 18.109375 0 
L 9.078125 0 
L 9.078125 54.6875 
L 18.109375 54.6875 
L 18.109375 46.1875 
Q 20.953125 51.171875 25.484375 53.578125 
Q 30.03125 56 36.53125 56 
Q 37.453125 56 38.578125 55.875 
Q 39.703125 55.765625 41.0625 55.515625 
z
" id="DejaVuSans-72"/>
      <path id="DejaVuSans-20"/>
      <path d="M 18.109375 8.203125 
L 18.109375 -20.796875 
L 9.078125 -20.796875 
L 9.078125 54.6875 
L 18.109375 54.6875 
L 18.109375 46.390625 
Q 20.953125 51.265625 25.265625 53.625 
Q 29.59375 56 35.59375 56 
Q 45.5625 56 51.78125 48.09375 
Q 58.015625 40.1875 58.015625 27.296875 
Q 58.015625 14.40625 51.78125 6.484375 
Q 45.5625 -1.421875 35.59375 -1.421875 
Q 29.59375 -1.421875 25.265625 0.953125 
Q 20.953125 3.328125 18.109375 8.203125 
z
M 48.6875 27.296875 
Q 48.6875 37.203125 44.609375 42.84375 
Q 40.53125 48.484375 33.40625 48.484375 
Q 26.265625 48.484375 22.1875 42.84375 
Q 18.109375 37.203125 18.109375 27.296875 
Q 18.109375 17.390625 22.1875 11.75 
Q 26.265625 6.109375 33.40625 6.109375 
Q 40.53125 6.109375 44.609375 11.75 
Q 48.6875 17.390625 48.6875 27.296875 
z
" id="DejaVuSans-70"/>
      <path d="M 4.203125 54.6875 
L 13.1875 54.6875 
L 24.421875 12.015625 
L 35.59375 54.6875 
L 46.1875 54.6875 
L 57.421875 12.015625 
L 68.609375 54.6875 
L 77.59375 54.6875 
L 63.28125 0 
L 52.6875 0 
L 40.921875 44.828125 
L 29.109375 0 
L 18.5 0 
z
" id="DejaVuSans-77"/>
      <path d="M 56.203125 29.59375 
L 56.203125 25.203125 
L 14.890625 25.203125 
Q 15.484375 15.921875 20.484375 11.0625 
Q 25.484375 6.203125 34.421875 6.203125 
Q 39.59375 6.203125 44.453125 7.46875 
Q 49.3125 8.734375 54.109375 11.28125 
L 54.109375 2.78125 
Q 49.265625 0.734375 44.1875 -0.34375 
Q 39.109375 -1.421875 33.890625 -1.421875 
Q 20.796875 -1.421875 13.15625 6.1875 
Q 5.515625 13.8125 5.515625 26.8125 
Q 5.515625 40.234375 12.765625 48.109375 
Q 20.015625 56 32.328125 56 
Q 43.359375 56 49.78125 48.890625 
Q 56.203125 41.796875 56.203125 29.59375 
z
M 47.21875 32.234375 
Q 47.125 39.59375 43.09375 43.984375 
Q 39.0625 48.390625 32.421875 48.390625 
Q 24.90625 48.390625 20.390625 44.140625 
Q 15.875 39.890625 15.1875 32.171875 
z
" id="DejaVuSans-65"/>
      <path d="M 44.28125 53.078125 
L 44.28125 44.578125 
Q 40.484375 46.53125 36.375 47.5 
Q 32.28125 48.484375 27.875 48.484375 
Q 21.1875 48.484375 17.84375 46.4375 
Q 14.5 44.390625 14.5 40.28125 
Q 14.5 37.15625 16.890625 35.375 
Q 19.28125 33.59375 26.515625 31.984375 
L 29.59375 31.296875 
Q 39.15625 29.25 43.1875 25.515625 
Q 47.21875 21.78125 47.21875 15.09375 
Q 47.21875 7.46875 41.1875 3.015625 
Q 35.15625 -1.421875 24.609375 -1.421875 
Q 20.21875 -1.421875 15.453125 -0.5625 
Q 10.6875 0.296875 5.421875 2 
L 5.421875 11.28125 
Q 10.40625 8.6875 15.234375 7.390625 
Q 20.0625 6.109375 24.8125 6.109375 
Q 31.15625 6.109375 34.5625 8.28125 
Q 37.984375 10.453125 37.984375 14.40625 
Q 37.984375 18.0625 35.515625 20.015625 
Q 33.0625 21.96875 24.703125 23.78125 
L 21.578125 24.515625 
Q 13.234375 26.265625 9.515625 29.90625 
Q 5.8125 33.546875 5.8125 39.890625 
Q 5.8125 47.609375 11.28125 51.796875 
Q 16.75 56 26.8125 56 
Q 31.78125 56 36.171875 55.265625 
Q 40.578125 54.546875 44.28125 53.078125 
z
" id="DejaVuSans-73"/>
      <path d="M 31 75.875 
Q 24.46875 64.65625 21.28125 53.65625 
Q 18.109375 42.671875 18.109375 31.390625 
Q 18.109375 20.125 21.3125 9.0625 
Q 24.515625 -2 31 -13.1875 
L 23.1875 -13.1875 
Q 15.875 -1.703125 12.234375 9.375 
Q 8.59375 20.453125 8.59375 31.390625 
Q 8.59375 42.28125 12.203125 53.3125 
Q 15.828125 64.359375 23.1875 75.875 
z
" id="DejaVuSans-28"/>
      <path d="M 9.8125 72.90625 
L 24.515625 72.90625 
L 43.109375 23.296875 
L 61.8125 72.90625 
L 76.515625 72.90625 
L 76.515625 0 
L 66.890625 0 
L 66.890625 64.015625 
L 48.09375 14.015625 
L 38.1875 14.015625 
L 19.390625 64.015625 
L 19.390625 0 
L 9.8125 0 
z
" id="DejaVuSans-4d"/>
      <path d="M 28.609375 0 
L 0.78125 72.90625 
L 11.078125 72.90625 
L 34.1875 11.53125 
L 57.328125 72.90625 
L 67.578125 72.90625 
L 39.796875 0 
z
" id="DejaVuSans-56"/>
      <path d="M 34.1875 63.1875 
L 20.796875 26.90625 
L 47.609375 26.90625 
z
M 28.609375 72.90625 
L 39.796875 72.90625 
L 67.578125 0 
L 57.328125 0 
L 50.6875 18.703125 
L 17.828125 18.703125 
L 11.1875 0 
L 0.78125 0 
z
" id="DejaVuSans-41"/>
      <path d="M 8.015625 75.875 
L 15.828125 75.875 
Q 23.140625 64.359375 26.78125 53.3125 
Q 30.421875 42.28125 30.421875 31.390625 
Q 30.421875 20.453125 26.78125 9.375 
Q 23.140625 -1.703125 15.828125 -13.1875 
L 8.015625 -13.1875 
Q 14.5 -2 17.703125 9.0625 
Q 20.90625 20.125 20.90625 31.390625 
Q 20.90625 42.671875 17.703125 53.65625 
Q 14.5 64.65625 8.015625 75.875 
z
" id="DejaVuSans-29"/>
     </defs>
     <g transform="translate(28.197375 164.904545)rotate(-90)scale(0.144 -0.144)">
      <use xlink:href="#DejaVuSans-53"/>
      <use x="63.476562" xlink:href="#DejaVuSans-74"/>
      <use x="102.685547" xlink:href="#DejaVuSans-61"/>
      <use x="163.964844" xlink:href="#DejaVuSans-74"/>
      <use x="203.173828" xlink:href="#DejaVuSans-6f"/>
      <use x="264.355469" xlink:href="#DejaVuSans-72"/>
      <use x="305.46875" xlink:href="#DejaVuSans-20"/>
      <use x="337.255859" xlink:href="#DejaVuSans-70"/>
      <use x="400.732422" xlink:href="#DejaVuSans-6f"/>
      <use x="461.914062" xlink:href="#DejaVuSans-77"/>
      <use x="543.701172" xlink:href="#DejaVuSans-65"/>
      <use x="605.224609" xlink:href="#DejaVuSans-72"/>
      <use x="646.337891" xlink:href="#DejaVuSans-73"/>
      <use x="698.4375" xlink:href="#DejaVuSans-20"/>
      <use x="730.224609" xlink:href="#DejaVuSans-28"/>
      <use x="769.238281" xlink:href="#DejaVuSans-4d"/>
      <use x="855.517578" xlink:href="#DejaVuSans-56"/>
      <use x="923.832031" xlink:href="#DejaVuSans-41"/>
      <use x="992.240234" xlink:href="#DejaVuSans-29"/>
     </g>
    </g>
   </g>
   <g id="line2d_23">
    <path clip-path="url(#p94fdce48f4)" d="M 86.35633 178.021672 
L 86.775658 166.18757 
L 87.194986 166.168742 
L 88.033643 164.817002 
L 89.291628 163.370361 
L 90.549614 162.369991 
L 91.807599 161.680931 
L 93.484913 161.086222 
L 95.581555 160.663785 
L 98.097525 160.411698 
L 102.290809 160.256467 
L 111.935363 160.20257 
L 149.255592 160.2 
L 150.094249 123.499214 
L 150.932906 97.733318 
L 151.771563 78.457311 
L 152.61022 64.030344 
L 153.448877 53.232612 
L 154.287533 45.151179 
L 155.12619 39.102751 
L 155.964847 34.575914 
L 156.803504 31.187897 
L 157.642161 28.652216 
L 158.480818 26.754453 
L 159.319475 25.334129 
L 160.158131 24.271134 
L 160.996788 23.475573 
L 162.254773 22.641247 
L 163.512759 22.101062 
L 165.190072 21.664681 
L 167.286714 21.378284 
L 170.641342 21.193529 
L 177.350597 21.117397 
L 221.799409 21.109091 
L 254.926354 21.216952 
L 257.022996 21.284243 
L 307.342407 21.109091 
L 505.26542 21.109091 
L 505.26542 21.109091 
" style="fill:none;stroke:#fc4f30;stroke-width:4;"/>
   </g>
   <g id="line2d_24">
    <path clip-path="url(#p94fdce48f4)" d="M 86.35633 346.835731 
L 86.775658 304.262054 
L 88.033643 254.315312 
L 88.8723 230.63259 
L 89.710957 212.90932 
L 90.549614 199.645682 
L 91.388271 189.719556 
L 92.226927 182.291157 
L 93.065584 176.732 
L 93.904241 172.571735 
L 94.742898 169.458361 
L 95.581555 167.128448 
L 96.420212 165.384848 
L 97.258868 164.080024 
L 98.097525 163.103562 
L 99.355511 162.079632 
L 100.613496 161.416776 
L 101.871481 160.987671 
L 103.548795 160.64108 
L 106.064765 160.384826 
L 110.258049 160.243365 
L 121.160588 160.201 
L 149.255592 160.2 
L 150.094249 159.984278 
L 151.771563 159.851871 
L 154.706862 159.929553 
L 161.835445 160.147142 
L 173.576641 160.198236 
L 254.087697 160.2 
L 254.926354 141.849607 
L 255.765011 128.966659 
L 256.603668 119.328656 
L 257.442325 112.115172 
L 258.280981 106.716306 
L 259.119638 102.675589 
L 259.958295 99.651376 
L 260.796952 97.387957 
L 261.635609 95.693948 
L 262.474266 94.426108 
L 263.312923 93.477227 
L 264.570908 92.482096 
L 265.828893 91.837786 
L 267.506207 91.317279 
L 269.602849 90.975661 
L 272.538148 90.770984 
L 277.989417 90.67224 
L 300.213823 90.654554 
L 505.26542 90.654545 
L 505.26542 90.654545 
" style="fill:none;stroke:#5cb85c;stroke-width:4;"/>
   </g>
   <g id="patch_3">
    <path d="M 65.410875 174.109091 
L 65.410875 7.2 
" style="fill:none;stroke:#ffffff;stroke-linecap:square;stroke-linejoin:miter;stroke-width:3;"/>
   </g>
   <g id="patch_4">
    <path d="M 526.210875 174.109091 
L 526.210875 7.2 
" style="fill:none;stroke:#ffffff;stroke-linecap:square;stroke-linejoin:miter;stroke-width:3;"/>
   </g>
   <g id="patch_5">
    <path d="M 65.410875 174.109091 
L 526.210875 174.109091 
" style="fill:none;stroke:#ffffff;stroke-linecap:square;stroke-linejoin:miter;stroke-width:3;"/>
   </g>
   <g id="patch_6">
    <path d="M 65.410875 7.2 
L 526.210875 7.2 
" style="fill:none;stroke:#ffffff;stroke-linecap:square;stroke-linejoin:miter;stroke-width:3;"/>
   </g>
   <g id="legend_1">
    <g id="patch_7">
     <path d="M 73.810875 52.07625 
L 130.090875 52.07625 
Q 132.490875 52.07625 132.490875 49.67625 
L 132.490875 15.6 
Q 132.490875 13.2 130.090875 13.2 
L 73.810875 13.2 
Q 71.410875 13.2 71.410875 15.6 
L 71.410875 49.67625 
Q 71.410875 52.07625 73.810875 52.07625 
z
" style="fill:#ffffff;opacity:0.8;stroke:#cccccc;stroke-linejoin:miter;stroke-width:0.5;"/>
    </g>
    <g id="line2d_25">
     <path d="M 76.210875 22.918125 
L 100.210875 22.918125 
" style="fill:none;stroke:#fc4f30;stroke-width:4;"/>
    </g>
    <g id="line2d_26"/>
    <g id="text_7">
     <!-- $\sf p_{s1}$ -->
     <g transform="translate(109.810875 27.118125)scale(0.12 -0.12)">
      <use xlink:href="#DejaVuSans-70"/>
      <use transform="translate(64.433594 -16.40625)scale(0.7)" xlink:href="#DejaVuSans-73"/>
      <use transform="translate(100.90332 -16.40625)scale(0.7)" xlink:href="#DejaVuSans-31"/>
     </g>
    </g>
    <g id="line2d_27">
     <path d="M 76.210875 40.55625 
L 100.210875 40.55625 
" style="fill:none;stroke:#5cb85c;stroke-width:4;"/>
    </g>
    <g id="line2d_28"/>
    <g id="text_8">
     <!-- $\sf q_{s1}$ -->
     <defs>
      <path d="M 14.796875 27.296875 
Q 14.796875 17.390625 18.875 11.75 
Q 22.953125 6.109375 30.078125 6.109375 
Q 37.203125 6.109375 41.296875 11.75 
Q 45.40625 17.390625 45.40625 27.296875 
Q 45.40625 37.203125 41.296875 42.84375 
Q 37.203125 48.484375 30.078125 48.484375 
Q 22.953125 48.484375 18.875 42.84375 
Q 14.796875 37.203125 14.796875 27.296875 
z
M 45.40625 8.203125 
Q 42.578125 3.328125 38.25 0.953125 
Q 33.9375 -1.421875 27.875 -1.421875 
Q 17.96875 -1.421875 11.734375 6.484375 
Q 5.515625 14.40625 5.515625 27.296875 
Q 5.515625 40.1875 11.734375 48.09375 
Q 17.96875 56 27.875 56 
Q 33.9375 56 38.25 53.625 
Q 42.578125 51.265625 45.40625 46.390625 
L 45.40625 54.6875 
L 54.390625 54.6875 
L 54.390625 -20.796875 
L 45.40625 -20.796875 
z
" id="DejaVuSans-71"/>
     </defs>
     <g transform="translate(109.810875 44.75625)scale(0.12 -0.12)">
      <use xlink:href="#DejaVuSans-71"/>
      <use transform="translate(64.433594 -16.40625)scale(0.7)" xlink:href="#DejaVuSans-73"/>
      <use transform="translate(100.90332 -16.40625)scale(0.7)" xlink:href="#DejaVuSans-31"/>
     </g>
    </g>
   </g>
  </g>
  <g id="axes_2">
   <g id="patch_8">
    <path d="M 65.410875 374.4 
L 526.210875 374.4 
L 526.210875 207.490909 
L 65.410875 207.490909 
z
" style="fill:#ffffff;"/>
   </g>
   <g id="matplotlib.axis_3">
    <g id="xtick_7">
     <g id="line2d_29">
      <path clip-path="url(#padfd2b1205)" d="M 86.35633 374.4 
L 86.35633 207.490909 
" style="fill:none;stroke:#cbcbcb;"/>
     </g>
     <g id="line2d_30"/>
     <g id="text_9">
      <!-- 0 -->
      <g transform="translate(82.53883 387.018125)scale(0.12 -0.12)">
       <use xlink:href="#DejaVuSans-30"/>
      </g>
     </g>
    </g>
    <g id="xtick_8">
     <g id="line2d_31">
      <path clip-path="url(#padfd2b1205)" d="M 170.222013 374.4 
L 170.222013 207.490909 
" style="fill:none;stroke:#cbcbcb;"/>
     </g>
     <g id="line2d_32"/>
     <g id="text_10">
      <!-- 2 -->
      <g transform="translate(166.404513 387.018125)scale(0.12 -0.12)">
       <use xlink:href="#DejaVuSans-32"/>
      </g>
     </g>
    </g>
    <g id="xtick_9">
     <g id="line2d_33">
      <path clip-path="url(#padfd2b1205)" d="M 254.087697 374.4 
L 254.087697 207.490909 
" style="fill:none;stroke:#cbcbcb;"/>
     </g>
     <g id="line2d_34"/>
     <g id="text_11">
      <!-- 4 -->
      <defs>
       <path d="M 37.796875 64.3125 
L 12.890625 25.390625 
L 37.796875 25.390625 
z
M 35.203125 72.90625 
L 47.609375 72.90625 
L 47.609375 25.390625 
L 58.015625 25.390625 
L 58.015625 17.1875 
L 47.609375 17.1875 
L 47.609375 0 
L 37.796875 0 
L 37.796875 17.1875 
L 4.890625 17.1875 
L 4.890625 26.703125 
z
" id="DejaVuSans-34"/>
      </defs>
      <g transform="translate(250.270197 387.018125)scale(0.12 -0.12)">
       <use xlink:href="#DejaVuSans-34"/>
      </g>
     </g>
    </g>
    <g id="xtick_10">
     <g id="line2d_35">
      <path clip-path="url(#padfd2b1205)" d="M 337.953381 374.4 
L 337.953381 207.490909 
" style="fill:none;stroke:#cbcbcb;"/>
     </g>
     <g id="line2d_36"/>
     <g id="text_12">
      <!-- 6 -->
      <defs>
       <path d="M 33.015625 40.375 
Q 26.375 40.375 22.484375 35.828125 
Q 18.609375 31.296875 18.609375 23.390625 
Q 18.609375 15.53125 22.484375 10.953125 
Q 26.375 6.390625 33.015625 6.390625 
Q 39.65625 6.390625 43.53125 10.953125 
Q 47.40625 15.53125 47.40625 23.390625 
Q 47.40625 31.296875 43.53125 35.828125 
Q 39.65625 40.375 33.015625 40.375 
z
M 52.59375 71.296875 
L 52.59375 62.3125 
Q 48.875 64.0625 45.09375 64.984375 
Q 41.3125 65.921875 37.59375 65.921875 
Q 27.828125 65.921875 22.671875 59.328125 
Q 17.53125 52.734375 16.796875 39.40625 
Q 19.671875 43.65625 24.015625 45.921875 
Q 28.375 48.1875 33.59375 48.1875 
Q 44.578125 48.1875 50.953125 41.515625 
Q 57.328125 34.859375 57.328125 23.390625 
Q 57.328125 12.15625 50.6875 5.359375 
Q 44.046875 -1.421875 33.015625 -1.421875 
Q 20.359375 -1.421875 13.671875 8.265625 
Q 6.984375 17.96875 6.984375 36.375 
Q 6.984375 53.65625 15.1875 63.9375 
Q 23.390625 74.21875 37.203125 74.21875 
Q 40.921875 74.21875 44.703125 73.484375 
Q 48.484375 72.75 52.59375 71.296875 
z
" id="DejaVuSans-36"/>
      </defs>
      <g transform="translate(334.135881 387.018125)scale(0.12 -0.12)">
       <use xlink:href="#DejaVuSans-36"/>
      </g>
     </g>
    </g>
    <g id="xtick_11">
     <g id="line2d_37">
      <path clip-path="url(#padfd2b1205)" d="M 421.819065 374.4 
L 421.819065 207.490909 
" style="fill:none;stroke:#cbcbcb;"/>
     </g>
     <g id="line2d_38"/>
     <g id="text_13">
      <!-- 8 -->
      <defs>
       <path d="M 31.78125 34.625 
Q 24.75 34.625 20.71875 30.859375 
Q 16.703125 27.09375 16.703125 20.515625 
Q 16.703125 13.921875 20.71875 10.15625 
Q 24.75 6.390625 31.78125 6.390625 
Q 38.8125 6.390625 42.859375 10.171875 
Q 46.921875 13.96875 46.921875 20.515625 
Q 46.921875 27.09375 42.890625 30.859375 
Q 38.875 34.625 31.78125 34.625 
z
M 21.921875 38.8125 
Q 15.578125 40.375 12.03125 44.71875 
Q 8.5 49.078125 8.5 55.328125 
Q 8.5 64.0625 14.71875 69.140625 
Q 20.953125 74.21875 31.78125 74.21875 
Q 42.671875 74.21875 48.875 69.140625 
Q 55.078125 64.0625 55.078125 55.328125 
Q 55.078125 49.078125 51.53125 44.71875 
Q 48 40.375 41.703125 38.8125 
Q 48.828125 37.15625 52.796875 32.3125 
Q 56.78125 27.484375 56.78125 20.515625 
Q 56.78125 9.90625 50.3125 4.234375 
Q 43.84375 -1.421875 31.78125 -1.421875 
Q 19.734375 -1.421875 13.25 4.234375 
Q 6.78125 9.90625 6.78125 20.515625 
Q 6.78125 27.484375 10.78125 32.3125 
Q 14.796875 37.15625 21.921875 38.8125 
z
M 18.3125 54.390625 
Q 18.3125 48.734375 21.84375 45.5625 
Q 25.390625 42.390625 31.78125 42.390625 
Q 38.140625 42.390625 41.71875 45.5625 
Q 45.3125 48.734375 45.3125 54.390625 
Q 45.3125 60.0625 41.71875 63.234375 
Q 38.140625 66.40625 31.78125 66.40625 
Q 25.390625 66.40625 21.84375 63.234375 
Q 18.3125 60.0625 18.3125 54.390625 
z
" id="DejaVuSans-38"/>
      </defs>
      <g transform="translate(418.001565 387.018125)scale(0.12 -0.12)">
       <use xlink:href="#DejaVuSans-38"/>
      </g>
     </g>
    </g>
    <g id="xtick_12">
     <g id="line2d_39">
      <path clip-path="url(#padfd2b1205)" d="M 505.684749 374.4 
L 505.684749 207.490909 
" style="fill:none;stroke:#cbcbcb;"/>
     </g>
     <g id="line2d_40"/>
     <g id="text_14">
      <!-- 10 -->
      <g transform="translate(498.049749 387.018125)scale(0.12 -0.12)">
       <use xlink:href="#DejaVuSans-31"/>
       <use x="63.623047" xlink:href="#DejaVuSans-30"/>
      </g>
     </g>
    </g>
    <g id="text_15">
     <!-- Time (s) -->
     <defs>
      <path d="M -0.296875 72.90625 
L 61.375 72.90625 
L 61.375 64.59375 
L 35.5 64.59375 
L 35.5 0 
L 25.59375 0 
L 25.59375 64.59375 
L -0.296875 64.59375 
z
" id="DejaVuSans-54"/>
      <path d="M 9.421875 54.6875 
L 18.40625 54.6875 
L 18.40625 0 
L 9.421875 0 
z
M 9.421875 75.984375 
L 18.40625 75.984375 
L 18.40625 64.59375 
L 9.421875 64.59375 
z
" id="DejaVuSans-69"/>
      <path d="M 52 44.1875 
Q 55.375 50.25 60.0625 53.125 
Q 64.75 56 71.09375 56 
Q 79.640625 56 84.28125 50.015625 
Q 88.921875 44.046875 88.921875 33.015625 
L 88.921875 0 
L 79.890625 0 
L 79.890625 32.71875 
Q 79.890625 40.578125 77.09375 44.375 
Q 74.3125 48.1875 68.609375 48.1875 
Q 61.625 48.1875 57.5625 43.546875 
Q 53.515625 38.921875 53.515625 30.90625 
L 53.515625 0 
L 44.484375 0 
L 44.484375 32.71875 
Q 44.484375 40.625 41.703125 44.40625 
Q 38.921875 48.1875 33.109375 48.1875 
Q 26.21875 48.1875 22.15625 43.53125 
Q 18.109375 38.875 18.109375 30.90625 
L 18.109375 0 
L 9.078125 0 
L 9.078125 54.6875 
L 18.109375 54.6875 
L 18.109375 46.1875 
Q 21.1875 51.21875 25.484375 53.609375 
Q 29.78125 56 35.6875 56 
Q 41.65625 56 45.828125 52.96875 
Q 50 49.953125 52 44.1875 
z
" id="DejaVuSans-6d"/>
     </defs>
     <g transform="translate(266.315625 404.4555)scale(0.144 -0.144)">
      <use xlink:href="#DejaVuSans-54"/>
      <use x="61.037109" xlink:href="#DejaVuSans-69"/>
      <use x="88.820312" xlink:href="#DejaVuSans-6d"/>
      <use x="186.232422" xlink:href="#DejaVuSans-65"/>
      <use x="247.755859" xlink:href="#DejaVuSans-20"/>
      <use x="279.542969" xlink:href="#DejaVuSans-28"/>
      <use x="318.556641" xlink:href="#DejaVuSans-73"/>
      <use x="370.65625" xlink:href="#DejaVuSans-29"/>
     </g>
    </g>
   </g>
   <g id="matplotlib.axis_4">
    <g id="ytick_6">
     <g id="line2d_41">
      <path clip-path="url(#padfd2b1205)" d="M 65.410875 374.275675 
L 526.210875 374.275675 
" style="fill:none;stroke:#cbcbcb;"/>
     </g>
     <g id="line2d_42"/>
     <g id="text_16">
      <!-- −0.15 -->
      <defs>
       <path d="M 10.59375 35.5 
L 73.1875 35.5 
L 73.1875 27.203125 
L 10.59375 27.203125 
z
" id="DejaVuSans-2212"/>
      </defs>
      <g transform="translate(25.1365 378.834738)scale(0.12 -0.12)">
       <use xlink:href="#DejaVuSans-2212"/>
       <use x="83.789062" xlink:href="#DejaVuSans-30"/>
       <use x="147.412109" xlink:href="#DejaVuSans-2e"/>
       <use x="179.199219" xlink:href="#DejaVuSans-31"/>
       <use x="242.822266" xlink:href="#DejaVuSans-35"/>
      </g>
     </g>
    </g>
    <g id="ytick_7">
     <g id="line2d_43">
      <path clip-path="url(#padfd2b1205)" d="M 65.410875 342.187448 
L 526.210875 342.187448 
" style="fill:none;stroke:#cbcbcb;"/>
     </g>
     <g id="line2d_44"/>
     <g id="text_17">
      <!-- −0.10 -->
      <g transform="translate(25.1365 346.746511)scale(0.12 -0.12)">
       <use xlink:href="#DejaVuSans-2212"/>
       <use x="83.789062" xlink:href="#DejaVuSans-30"/>
       <use x="147.412109" xlink:href="#DejaVuSans-2e"/>
       <use x="179.199219" xlink:href="#DejaVuSans-31"/>
       <use x="242.822266" xlink:href="#DejaVuSans-30"/>
      </g>
     </g>
    </g>
    <g id="ytick_8">
     <g id="line2d_45">
      <path clip-path="url(#padfd2b1205)" d="M 65.410875 310.099221 
L 526.210875 310.099221 
" style="fill:none;stroke:#cbcbcb;"/>
     </g>
     <g id="line2d_46"/>
     <g id="text_18">
      <!-- −0.05 -->
      <g transform="translate(25.1365 314.658284)scale(0.12 -0.12)">
       <use xlink:href="#DejaVuSans-2212"/>
       <use x="83.789062" xlink:href="#DejaVuSans-30"/>
       <use x="147.412109" xlink:href="#DejaVuSans-2e"/>
       <use x="179.199219" xlink:href="#DejaVuSans-30"/>
       <use x="242.822266" xlink:href="#DejaVuSans-35"/>
      </g>
     </g>
    </g>
    <g id="ytick_9">
     <g id="line2d_47">
      <path clip-path="url(#padfd2b1205)" d="M 65.410875 278.010994 
L 526.210875 278.010994 
" style="fill:none;stroke:#cbcbcb;"/>
     </g>
     <g id="line2d_48"/>
     <g id="text_19">
      <!-- 0.00 -->
      <g transform="translate(35.192125 282.570056)scale(0.12 -0.12)">
       <use xlink:href="#DejaVuSans-30"/>
       <use x="63.623047" xlink:href="#DejaVuSans-2e"/>
       <use x="95.410156" xlink:href="#DejaVuSans-30"/>
       <use x="159.033203" xlink:href="#DejaVuSans-30"/>
      </g>
     </g>
    </g>
    <g id="ytick_10">
     <g id="line2d_49">
      <path clip-path="url(#padfd2b1205)" d="M 65.410875 245.922767 
L 526.210875 245.922767 
" style="fill:none;stroke:#cbcbcb;"/>
     </g>
     <g id="line2d_50"/>
     <g id="text_20">
      <!-- 0.05 -->
      <g transform="translate(35.192125 250.481829)scale(0.12 -0.12)">
       <use xlink:href="#DejaVuSans-30"/>
       <use x="63.623047" xlink:href="#DejaVuSans-2e"/>
       <use x="95.410156" xlink:href="#DejaVuSans-30"/>
       <use x="159.033203" xlink:href="#DejaVuSans-35"/>
      </g>
     </g>
    </g>
    <g id="ytick_11">
     <g id="line2d_51">
      <path clip-path="url(#padfd2b1205)" d="M 65.410875 213.83454 
L 526.210875 213.83454 
" style="fill:none;stroke:#cbcbcb;"/>
     </g>
     <g id="line2d_52"/>
     <g id="text_21">
      <!-- 0.10 -->
      <g transform="translate(35.192125 218.393602)scale(0.12 -0.12)">
       <use xlink:href="#DejaVuSans-30"/>
       <use x="63.623047" xlink:href="#DejaVuSans-2e"/>
       <use x="95.410156" xlink:href="#DejaVuSans-31"/>
       <use x="159.033203" xlink:href="#DejaVuSans-30"/>
      </g>
     </g>
    </g>
    <g id="text_22">
     <!-- Rotor powers (MVA) -->
     <defs>
      <path d="M 44.390625 34.1875 
Q 47.5625 33.109375 50.5625 29.59375 
Q 53.5625 26.078125 56.59375 19.921875 
L 66.609375 0 
L 56 0 
L 46.6875 18.703125 
Q 43.0625 26.03125 39.671875 28.421875 
Q 36.28125 30.8125 30.421875 30.8125 
L 19.671875 30.8125 
L 19.671875 0 
L 9.8125 0 
L 9.8125 72.90625 
L 32.078125 72.90625 
Q 44.578125 72.90625 50.734375 67.671875 
Q 56.890625 62.453125 56.890625 51.90625 
Q 56.890625 45.015625 53.6875 40.46875 
Q 50.484375 35.9375 44.390625 34.1875 
z
M 19.671875 64.796875 
L 19.671875 38.921875 
L 32.078125 38.921875 
Q 39.203125 38.921875 42.84375 42.21875 
Q 46.484375 45.515625 46.484375 51.90625 
Q 46.484375 58.296875 42.84375 61.546875 
Q 39.203125 64.796875 32.078125 64.796875 
z
" id="DejaVuSans-52"/>
     </defs>
     <g transform="translate(18.14175 362.79358)rotate(-90)scale(0.144 -0.144)">
      <use xlink:href="#DejaVuSans-52"/>
      <use x="69.419922" xlink:href="#DejaVuSans-6f"/>
      <use x="130.601562" xlink:href="#DejaVuSans-74"/>
      <use x="169.810547" xlink:href="#DejaVuSans-6f"/>
      <use x="230.992188" xlink:href="#DejaVuSans-72"/>
      <use x="272.105469" xlink:href="#DejaVuSans-20"/>
      <use x="303.892578" xlink:href="#DejaVuSans-70"/>
      <use x="367.369141" xlink:href="#DejaVuSans-6f"/>
      <use x="428.550781" xlink:href="#DejaVuSans-77"/>
      <use x="510.337891" xlink:href="#DejaVuSans-65"/>
      <use x="571.861328" xlink:href="#DejaVuSans-72"/>
      <use x="612.974609" xlink:href="#DejaVuSans-73"/>
      <use x="665.074219" xlink:href="#DejaVuSans-20"/>
      <use x="696.861328" xlink:href="#DejaVuSans-28"/>
      <use x="735.875" xlink:href="#DejaVuSans-4d"/>
      <use x="822.154297" xlink:href="#DejaVuSans-56"/>
      <use x="890.46875" xlink:href="#DejaVuSans-41"/>
      <use x="958.876953" xlink:href="#DejaVuSans-29"/>
     </g>
    </g>
   </g>
   <g id="line2d_53">
    <path clip-path="url(#padfd2b1205)" d="M 86.35633 268.913391 
L 86.775658 274.605943 
L 87.194986 274.414695 
L 87.614315 274.46168 
L 88.452972 274.279151 
L 92.646256 272.91424 
L 94.742898 272.597338 
L 97.678197 272.404881 
L 103.129466 272.318582 
L 130.805142 272.30642 
L 149.255592 272.30642 
L 150.932906 262.048243 
L 152.190891 255.813393 
L 153.448877 251.029901 
L 154.287533 248.712771 
L 155.12619 246.876803 
L 155.545519 246.10324 
L 157.222832 244.019934 
L 158.061489 243.256005 
L 159.738803 242.290127 
L 161.835445 241.5653 
L 162.254773 241.583966 
L 163.09343 241.365399 
L 164.351416 241.231852 
L 164.770744 241.200136 
L 165.190072 240.97346 
L 166.028729 240.903248 
L 166.448058 240.745817 
L 167.706043 240.838186 
L 168.5447 241.000682 
L 169.383357 241.159952 
L 172.318656 241.058709 
L 173.157312 241.174575 
L 175.253954 241.163661 
L 177.350597 241.246469 
L 177.769925 241.158096 
L 179.02791 241.264341 
L 179.866567 241.182456 
L 180.705224 241.213177 
L 181.124552 241.022761 
L 181.543881 241.112939 
L 181.963209 241.072955 
L 182.382538 241.197199 
L 182.801866 241.06983 
L 183.640523 241.162858 
L 185.317837 241.408288 
L 186.575822 241.404841 
L 187.414479 241.26482 
L 187.833807 241.371959 
L 188.253135 241.24648 
L 189.511121 241.411403 
L 189.930449 241.352908 
L 190.769106 241.565332 
L 191.188434 241.651441 
L 191.607763 241.567465 
L 192.44642 241.544304 
L 193.704405 241.447126 
L 194.543062 241.249033 
L 195.801047 241.367067 
L 197.478361 241.34241 
L 197.897689 241.530488 
L 199.155674 241.291436 
L 199.575003 241.406093 
L 200.41366 241.462202 
L 201.671645 241.630416 
L 202.090973 241.835609 
L 204.187615 241.788967 
L 204.606944 241.664279 
L 205.445601 241.771853 
L 205.864929 241.565319 
L 206.284257 241.724715 
L 207.122914 241.538217 
L 208.3809 241.533468 
L 208.800228 241.596634 
L 210.477542 241.364171 
L 212.154855 241.376014 
L 214.670826 240.969679 
L 215.928811 240.785287 
L 216.34814 240.869983 
L 217.186796 240.804773 
L 218.025453 240.83406 
L 218.86411 240.686248 
L 220.122095 240.510702 
L 220.960752 240.488209 
L 221.799409 240.564003 
L 224.734708 240.824213 
L 225.154036 240.748291 
L 225.573365 241.028534 
L 226.412022 241.23923 
L 227.250678 241.347753 
L 227.670007 241.185851 
L 230.185977 241.27158 
L 232.282619 241.506238 
L 232.701948 241.303021 
L 233.959933 241.289547 
L 234.79859 241.358274 
L 235.217918 241.275126 
L 236.056575 241.411135 
L 237.733889 241.082509 
L 238.991874 241.268352 
L 240.249859 241.516994 
L 241.088516 241.52137 
L 241.507845 241.592843 
L 241.927173 241.51536 
L 242.76583 241.6186 
L 243.604487 241.678135 
L 244.862472 241.752325 
L 245.2818 241.715074 
L 245.701129 241.7985 
L 246.120457 241.586308 
L 248.217099 241.719564 
L 249.475085 241.464065 
L 250.73307 241.473849 
L 254.087697 241.502605 
L 254.507026 240.681152 
L 254.926354 240.208839 
L 255.345683 239.950857 
L 256.603668 238.656648 
L 257.022996 238.44452 
L 257.442325 238.036664 
L 259.958295 236.996593 
L 260.377624 236.692781 
L 261.21628 236.563601 
L 261.635609 236.5725 
L 262.054937 236.415515 
L 262.893594 236.403675 
L 264.151579 235.948346 
L 264.570908 236.018954 
L 265.409565 235.987438 
L 266.66755 236.230649 
L 270.441506 235.831376 
L 271.280162 235.967151 
L 271.699491 235.81692 
L 272.538148 235.882107 
L 272.957476 235.763607 
L 273.796133 235.881684 
L 274.63479 235.805434 
L 275.054118 235.887911 
L 275.473447 235.817249 
L 277.15076 236.087664 
L 277.989417 236.143452 
L 278.828074 236.150244 
L 279.247402 236.182803 
L 279.666731 236.064797 
L 280.086059 236.140312 
L 280.505388 236.054318 
L 280.924716 236.085592 
L 281.344045 235.873646 
L 282.182701 235.810849 
L 283.860015 236.135031 
L 284.279343 235.932022 
L 284.698672 236.019192 
L 285.956657 235.86455 
L 287.633971 236.043587 
L 288.053299 235.713793 
L 288.472628 235.711897 
L 288.891956 235.589146 
L 292.246583 235.567895 
L 293.08524 235.553645 
L 293.504569 235.719898 
L 297.278524 235.694318 
L 299.375167 235.49521 
L 299.794495 235.634673 
L 300.213823 235.400384 
L 304.407108 235.317822 
L 305.245764 235.450456 
L 306.084421 235.480245 
L 307.342407 235.352721 
L 309.01972 235.425918 
L 310.277705 235.527366 
L 311.535691 235.330477 
L 311.955019 235.410406 
L 312.793676 235.213436 
L 313.213004 235.318629 
L 314.47099 235.048809 
L 316.567632 235.024431 
L 318.244945 235.139807 
L 320.341588 235.024511 
L 322.43823 235.362361 
L 323.276886 235.224995 
L 324.9542 235.148188 
L 325.792857 235.335499 
L 326.631514 235.369697 
L 327.470171 235.089782 
L 328.308827 235.026385 
L 329.986141 234.907326 
L 330.824798 235.096065 
L 331.244126 235.19165 
L 331.663455 235.062382 
L 333.340769 235.093402 
L 333.760097 235.212443 
L 334.179425 235.076906 
L 335.856739 235.357208 
L 337.534053 235.182763 
L 338.792038 235.204235 
L 339.211366 235.277177 
L 340.469352 234.965088 
L 344.243307 235.009167 
L 344.662636 234.906934 
L 346.759278 235.076307 
L 347.597935 234.935808 
L 350.952562 235.072649 
L 353.887861 234.6533 
L 354.726518 234.791443 
L 356.82316 234.514873 
L 357.242488 234.715496 
L 360.597116 234.247953 
L 361.016444 234.357256 
L 361.855101 234.281564 
L 362.274429 234.325302 
L 362.693758 234.184546 
L 363.951743 234.19716 
L 364.7904 233.971975 
L 365.209728 234.117179 
L 366.048385 234.112572 
L 366.467714 233.937469 
L 367.30637 233.886397 
L 367.725699 233.717697 
L 368.564356 233.827502 
L 369.403013 233.78947 
L 369.822341 233.716772 
L 370.660998 233.766976 
L 372.338312 233.796628 
L 372.75764 233.567146 
L 374.434954 233.707362 
L 384.498836 232.767465 
L 386.595478 233.123848 
L 387.014806 233.002741 
L 388.272791 233.043832 
L 390.369434 232.790834 
L 392.466076 232.772423 
L 393.304732 232.668143 
L 393.724061 232.850664 
L 394.982046 232.588746 
L 395.820703 232.666284 
L 403.368615 232.604498 
L 405.884585 232.357201 
L 406.723242 232.130411 
L 408.400556 232.097669 
L 408.819884 231.995434 
L 412.59384 232.358544 
L 413.013168 232.280067 
L 413.432497 232.506955 
L 413.851825 232.421174 
L 414.271153 232.489224 
L 414.690482 232.325109 
L 416.787124 232.337696 
L 417.206452 232.435479 
L 418.883766 232.451292 
L 420.56108 232.627893 
L 421.399737 232.744186 
L 422.238393 232.500378 
L 422.657722 232.631833 
L 423.07705 232.565407 
L 423.496379 232.647824 
L 423.915707 232.458328 
L 424.335036 232.555629 
L 425.173692 232.564642 
L 426.012349 232.684742 
L 426.431678 232.567469 
L 427.689663 232.712134 
L 428.108991 232.723107 
L 428.52832 232.909499 
L 428.947648 232.789018 
L 430.205633 232.872817 
L 431.04429 232.961103 
L 431.882947 232.988922 
L 432.721604 232.839656 
L 433.140932 232.792139 
L 433.560261 232.931976 
L 437.753545 232.607752 
L 439.430859 232.727753 
L 440.269515 232.697962 
L 441.946829 232.828554 
L 442.785486 232.749488 
L 443.624143 232.558888 
L 444.882128 232.36574 
L 446.97877 232.408402 
L 447.398099 232.4977 
L 448.236755 232.296105 
L 449.075412 232.455378 
L 452.010711 232.52078 
L 452.43004 232.441757 
L 453.268696 232.722634 
L 453.688025 232.682873 
L 454.107353 232.411319 
L 454.526682 232.307228 
L 456.203995 232.412584 
L 456.623324 232.304506 
L 457.461981 232.365896 
L 457.881309 232.244792 
L 458.719966 232.343727 
L 459.558623 232.567738 
L 460.39728 232.645863 
L 463.332579 232.767813 
L 464.171235 232.596908 
L 465.429221 232.656078 
L 466.267877 232.47739 
L 466.687206 232.409058 
L 467.525863 232.440138 
L 467.945191 232.435012 
L 468.783848 232.615025 
L 470.461162 232.394783 
L 471.299818 232.524985 
L 474.235117 232.896865 
L 474.654446 232.730712 
L 475.912431 232.732661 
L 476.751088 232.812636 
L 477.170416 232.648847 
L 477.589745 232.882543 
L 478.428402 232.975742 
L 479.267058 233.061543 
L 480.525044 233.018682 
L 480.944372 232.862146 
L 481.363701 232.824745 
L 482.202357 232.921685 
L 483.041014 233.059074 
L 483.460343 233.202502 
L 485.137656 233.28881 
L 485.556985 233.338023 
L 486.395642 233.222498 
L 487.653627 233.247647 
L 488.072955 233.085241 
L 488.911612 233.216994 
L 489.330941 233.304377 
L 492.266239 233.042211 
L 493.104896 232.877954 
L 493.524225 232.893162 
L 493.943553 232.768382 
L 496.040195 233.022638 
L 496.459524 232.854133 
L 499.814151 232.622781 
L 500.233479 232.472909 
L 501.491465 232.306658 
L 502.330122 232.163349 
L 503.588107 232.183121 
L 504.426764 232.337359 
L 505.26542 232.403557 
L 505.26542 232.403557 
" style="fill:none;stroke:#fc4f30;stroke-width:4;"/>
   </g>
   <g id="line2d_54">
    <path clip-path="url(#padfd2b1205)" d="M 86.35633 274.802237 
L 86.775658 294.946292 
L 88.033643 319.299092 
L 88.8723 331.061613 
L 89.710957 339.953876 
L 90.549614 346.657506 
L 91.388271 351.700795 
L 92.226927 355.489245 
L 93.065584 358.331913 
L 93.904241 360.463162 
L 94.742898 362.060067 
L 95.581555 363.256061 
L 96.420212 364.151496 
L 97.678197 365.090681 
L 98.936182 365.698656 
L 100.613496 366.189561 
L 102.710138 366.511455 
L 105.645437 366.70404 
L 111.096706 366.796729 
L 128.289171 366.813223 
L 137.933725 315.442224 
L 139.19171 309.030618 
L 142.546338 291.534152 
L 143.804323 284.991204 
L 145.900965 274.031954 
L 150.513578 249.933094 
L 151.771563 246.408956 
L 153.029548 243.775351 
L 153.868205 242.497595 
L 155.545519 240.852032 
L 156.803504 240.476933 
L 157.222832 240.0459 
L 158.061489 239.664877 
L 158.480818 239.589044 
L 158.900146 239.307772 
L 159.738803 239.235334 
L 160.158131 239.182889 
L 160.57746 239.010786 
L 161.416117 238.942382 
L 161.835445 238.834963 
L 162.254773 238.942628 
L 162.674102 238.788588 
L 164.770744 238.699128 
L 165.190072 238.407778 
L 166.028729 238.356206 
L 166.448058 238.15291 
L 166.867386 238.175866 
L 167.286714 238.319002 
L 168.125371 238.409966 
L 169.383357 238.81577 
L 170.222013 238.706552 
L 170.641342 238.872629 
L 171.899327 238.598769 
L 173.157312 238.868612 
L 173.576641 238.845752 
L 173.995969 238.698958 
L 174.415298 238.812316 
L 174.834626 238.726622 
L 175.673283 238.900857 
L 176.51194 238.875786 
L 176.931268 239.005555 
L 178.608582 238.986392 
L 179.02791 239.005591 
L 179.866567 238.890573 
L 180.705224 238.934173 
L 181.124552 238.665904 
L 181.543881 238.793113 
L 181.963209 238.736846 
L 182.382538 238.912044 
L 182.801866 238.732587 
L 183.221194 238.725616 
L 184.898508 239.271538 
L 185.737165 239.258795 
L 186.156493 239.323553 
L 187.414479 239.007766 
L 187.833807 239.158787 
L 188.253135 238.981939 
L 189.511121 239.214417 
L 189.930449 239.131974 
L 190.349778 239.364921 
L 191.188434 239.552761 
L 191.607763 239.434403 
L 192.027091 239.489374 
L 192.865748 239.378183 
L 193.704405 239.264799 
L 194.543062 238.985595 
L 195.801047 239.151963 
L 197.478361 239.117213 
L 197.897689 239.382304 
L 198.317018 239.267325 
L 198.736346 239.290934 
L 199.155674 239.045367 
L 199.575003 239.206972 
L 199.994331 239.187534 
L 201.671645 239.52315 
L 202.090973 239.812365 
L 202.92963 239.792243 
L 203.348959 239.923253 
L 203.768287 239.721229 
L 204.187615 239.746624 
L 204.606944 239.570879 
L 205.445601 239.722503 
L 205.864929 239.431399 
L 206.284257 239.656062 
L 207.122914 239.393198 
L 207.961571 239.326235 
L 208.800228 239.475536 
L 210.477542 239.147886 
L 210.89687 239.171483 
L 211.316199 239.05557 
L 212.154855 239.164579 
L 212.993512 238.92822 
L 214.251497 238.641995 
L 215.090154 238.484789 
L 215.509483 238.296706 
L 218.025453 238.400711 
L 218.444782 238.231839 
L 219.702767 238.043391 
L 220.541424 237.914697 
L 220.960752 237.913244 
L 221.380081 238.037533 
L 222.218737 238.078339 
L 222.638066 238.279303 
L 223.057394 238.239484 
L 223.896051 238.304626 
L 225.154036 238.279822 
L 225.573365 238.674816 
L 226.412022 238.971785 
L 227.250678 239.124746 
L 227.670007 238.89655 
L 229.347321 238.983442 
L 230.605306 239.080728 
L 231.024634 239.274171 
L 231.863291 239.203445 
L 232.282619 239.348125 
L 232.701948 239.061697 
L 233.959933 239.042707 
L 234.379262 239.153407 
L 235.637247 239.116428 
L 236.056575 239.21408 
L 236.475904 239.094961 
L 236.895232 238.842759 
L 238.572546 238.749397 
L 239.411203 239.180906 
L 240.249859 239.363286 
L 241.088516 239.369454 
L 241.507845 239.470193 
L 241.927173 239.360982 
L 242.76583 239.506496 
L 243.604487 239.590409 
L 244.443144 239.737673 
L 245.2818 239.642473 
L 245.701129 239.76006 
L 246.120457 239.460982 
L 248.217099 239.648802 
L 248.636428 239.486586 
L 249.055756 239.480891 
L 249.475085 239.288684 
L 250.313742 239.415284 
L 250.73307 239.302475 
L 251.991055 239.414896 
L 252.410384 239.197784 
L 253.24904 239.36444 
L 253.668369 239.45061 
L 254.087697 239.343004 
L 254.507026 236.780273 
L 254.926354 235.09101 
L 257.022996 229.410695 
L 257.442325 228.391698 
L 258.70031 226.717102 
L 259.119638 226.471246 
L 260.377624 224.846828 
L 261.21628 224.470593 
L 261.635609 224.439304 
L 262.054937 224.092253 
L 262.474266 224.147515 
L 262.893594 224.004646 
L 264.151579 223.043812 
L 264.570908 223.166919 
L 264.990236 223.061689 
L 265.409565 223.079473 
L 266.248221 223.435386 
L 266.66755 223.53562 
L 269.18352 222.946703 
L 269.602849 222.609607 
L 270.022177 222.576424 
L 271.280162 222.979133 
L 271.699491 222.67964 
L 272.538148 222.807367 
L 272.957476 222.571245 
L 273.796133 222.804736 
L 274.63479 222.652418 
L 275.054118 222.815991 
L 275.473447 222.6753 
L 276.312104 223.051437 
L 277.15076 223.211959 
L 277.570089 223.374984 
L 278.408746 223.243112 
L 279.247402 223.400603 
L 279.666731 223.166016 
L 280.086059 223.316056 
L 280.505388 223.145105 
L 280.924716 223.207229 
L 281.344045 222.785958 
L 281.763373 222.620244 
L 282.182701 222.661101 
L 283.860015 223.305359 
L 284.279343 222.901866 
L 284.698672 223.07511 
L 285.118 222.931756 
L 285.537329 223.000912 
L 285.956657 222.767737 
L 286.375986 222.839758 
L 286.795314 222.702455 
L 287.633971 223.123565 
L 288.053299 222.468086 
L 288.472628 222.464315 
L 288.891956 222.220342 
L 290.149941 222.219037 
L 290.988598 222.104369 
L 291.407927 222.38981 
L 292.246583 222.178096 
L 292.665912 222.086208 
L 293.08524 222.149774 
L 293.504569 222.480207 
L 293.923897 222.489688 
L 294.343226 222.683271 
L 294.762554 222.492394 
L 295.181882 222.625911 
L 295.601211 222.414617 
L 296.439868 222.416864 
L 298.53651 222.108842 
L 298.955838 221.976078 
L 299.375167 222.033631 
L 299.794495 222.310819 
L 300.213823 221.845159 
L 303.568451 221.698516 
L 303.987779 221.526925 
L 305.665093 222.073762 
L 308.181063 221.71813 
L 308.600392 221.745491 
L 309.439049 222.004781 
L 309.858377 221.939859 
L 310.277705 222.097542 
L 311.535691 221.706216 
L 311.955019 221.865078 
L 312.793676 221.473593 
L 313.213004 221.682668 
L 314.051661 221.21908 
L 314.890318 221.107421 
L 315.309646 221.174152 
L 316.148303 221.027608 
L 318.244945 221.327253 
L 320.341588 221.098096 
L 322.43823 221.769587 
L 322.857558 221.732073 
L 323.276886 221.496566 
L 323.696215 221.423841 
L 324.115543 221.220842 
L 324.9542 221.343909 
L 325.792857 221.716198 
L 326.631514 221.784167 
L 327.470171 221.227825 
L 327.889499 221.074483 
L 328.308827 221.101822 
L 329.566813 220.88276 
L 329.986141 220.865187 
L 330.40547 220.978609 
L 331.244126 221.430292 
L 331.663455 221.173366 
L 332.082783 221.177838 
L 332.502112 221.309546 
L 332.92144 221.129349 
L 333.340769 221.23502 
L 333.760097 221.471619 
L 334.179425 221.202234 
L 335.018082 221.645883 
L 335.437411 221.840946 
L 336.276067 221.631657 
L 337.114724 221.324128 
L 337.534053 221.412629 
L 337.953381 221.362597 
L 338.37271 221.493457 
L 338.792038 221.455306 
L 339.211366 221.600281 
L 340.469352 220.979991 
L 341.308008 220.993523 
L 341.727337 220.870053 
L 342.146665 220.991442 
L 342.565994 220.978688 
L 343.404651 221.145337 
L 343.823979 221.215962 
L 344.662636 220.864407 
L 345.501293 220.959854 
L 345.920621 221.182408 
L 346.759278 221.201044 
L 347.178606 220.961011 
L 348.017263 220.966432 
L 348.436592 221.148925 
L 348.85592 220.961933 
L 349.275248 221.136965 
L 349.694577 220.979907 
L 350.952562 221.193774 
L 351.371891 221.044415 
L 351.791219 221.031912 
L 353.049204 220.259144 
L 353.468533 220.197554 
L 354.726518 220.634865 
L 355.565175 220.4948 
L 355.984503 220.222948 
L 356.403832 220.266061 
L 356.82316 220.085172 
L 357.242488 220.483918 
L 358.081145 220.195847 
L 358.500474 220.24345 
L 358.919802 220.09885 
L 359.339131 219.752524 
L 360.177787 219.826071 
L 360.597116 219.554656 
L 361.016444 219.771901 
L 361.435773 219.584646 
L 362.274429 219.70839 
L 362.693758 219.428633 
L 363.532415 219.484586 
L 363.951743 219.453703 
L 364.7904 219.006139 
L 365.209728 219.294739 
L 366.048385 219.285582 
L 366.467714 218.937557 
L 367.30637 218.836049 
L 367.725699 218.500752 
L 368.145027 218.691254 
L 368.983684 218.754865 
L 369.822341 218.498913 
L 370.241669 218.636466 
L 371.918983 218.577477 
L 372.338312 218.657629 
L 372.75764 218.201527 
L 373.176968 218.303431 
L 374.015625 218.650249 
L 374.854282 218.398833 
L 375.27361 218.38486 
L 376.112267 217.994489 
L 376.950924 217.882895 
L 377.370253 217.92389 
L 377.789581 217.672565 
L 378.208909 217.716604 
L 378.628238 217.512868 
L 379.047566 217.654466 
L 379.466895 217.518958 
L 379.886223 217.520507 
L 380.305551 217.319379 
L 381.144208 217.230522 
L 381.563537 216.90888 
L 381.982865 216.876478 
L 382.402194 217.042223 
L 384.079507 216.503637 
L 386.176149 217.078313 
L 386.595478 217.320453 
L 387.014806 217.079748 
L 387.434135 217.139463 
L 387.853463 217.401234 
L 388.69212 217.016249 
L 389.530777 216.786026 
L 390.788762 216.689912 
L 392.046747 216.690218 
L 392.466076 216.621982 
L 392.885404 216.429184 
L 393.304732 216.41472 
L 393.724061 216.777489 
L 394.982046 216.256916 
L 395.401375 216.397582 
L 396.240031 216.41512 
L 396.65936 216.577868 
L 397.078688 216.584371 
L 397.498017 216.344743 
L 397.917345 216.307328 
L 398.756002 216.498595 
L 399.17533 216.505625 
L 399.594659 216.312118 
L 400.013987 216.443076 
L 401.271972 216.334069 
L 401.691301 216.544114 
L 402.110629 216.360764 
L 402.529958 216.605888 
L 402.949286 216.642053 
L 403.368615 216.288224 
L 405.045928 215.999647 
L 405.465257 215.810502 
L 405.884585 215.796712 
L 406.723242 215.345958 
L 407.561899 215.390289 
L 407.981227 215.512697 
L 408.819884 215.077686 
L 409.239212 215.161035 
L 409.658541 215.082376 
L 412.59384 215.79938 
L 413.013168 215.643405 
L 413.432497 216.094354 
L 413.851825 215.923861 
L 414.271153 216.059112 
L 414.690482 215.732928 
L 415.529139 215.771271 
L 415.948467 215.575513 
L 416.367796 215.578044 
L 417.206452 215.952293 
L 418.045109 215.971975 
L 418.883766 215.983721 
L 419.303094 216.122939 
L 419.722423 216.129246 
L 420.141751 216.477547 
L 420.56108 216.334723 
L 421.399737 216.56586 
L 422.238393 216.081281 
L 422.657722 216.342554 
L 423.07705 216.210529 
L 423.496379 216.374337 
L 423.915707 215.997706 
L 424.335036 216.191095 
L 424.754364 216.124682 
L 426.012349 216.447713 
L 426.431678 216.214629 
L 427.270334 216.612563 
L 427.689663 216.502154 
L 428.108991 216.523964 
L 428.52832 216.894425 
L 428.947648 216.654966 
L 429.786305 216.898191 
L 430.624962 216.828539 
L 431.463619 217.069526 
L 431.882947 217.052282 
L 432.302275 216.815608 
L 433.140932 216.661169 
L 433.560261 216.9391 
L 437.753545 216.294692 
L 438.172873 216.394595 
L 439.01153 216.413957 
L 439.430859 216.533198 
L 440.269515 216.473987 
L 441.946829 216.733544 
L 442.785486 216.576397 
L 443.204814 216.300683 
L 444.043471 216.008612 
L 444.4628 215.803124 
L 445.720785 215.727043 
L 446.140113 215.643045 
L 446.559442 215.868173 
L 446.97877 215.898476 
L 447.398099 216.075958 
L 447.817427 215.760778 
L 448.236755 215.675281 
L 448.656084 215.942934 
L 449.494741 216.023435 
L 449.914069 215.852715 
L 450.333398 215.950973 
L 451.172054 215.976205 
L 451.591383 215.9733 
L 452.010711 216.121832 
L 452.43004 215.96477 
L 452.849368 216.325496 
L 453.268696 216.523025 
L 453.688025 216.443998 
L 454.107353 215.904273 
L 454.526682 215.697388 
L 455.784667 215.964476 
L 456.203995 215.906787 
L 456.623324 215.691979 
L 457.461981 215.813994 
L 457.881309 215.573295 
L 458.300637 215.605541 
L 458.719966 215.769932 
L 459.139294 216.081375 
L 460.39728 216.370438 
L 462.493922 216.568948 
L 463.332579 216.61282 
L 463.751907 216.330988 
L 464.171235 216.273139 
L 465.429221 216.390743 
L 465.848549 216.114549 
L 466.687206 215.899779 
L 467.106534 216.018626 
L 467.945191 215.951365 
L 468.36452 216.20183 
L 468.783848 216.309148 
L 469.622505 216.096534 
L 470.88049 215.898228 
L 471.299818 216.13019 
L 472.138475 216.230845 
L 472.557804 216.494374 
L 472.977132 216.449523 
L 474.235117 216.869316 
L 474.654446 216.53908 
L 475.493103 216.422226 
L 476.751088 216.701906 
L 477.170416 216.37637 
L 477.589745 216.84085 
L 478.009073 216.860693 
L 478.84773 217.199044 
L 480.525044 217.111431 
L 480.944372 216.800309 
L 481.363701 216.725974 
L 481.783029 216.899913 
L 482.621686 216.983791 
L 483.460343 217.476782 
L 484.718328 217.478986 
L 485.556985 217.746135 
L 485.976313 217.545584 
L 487.234298 217.472877 
L 487.653627 217.566509 
L 488.072955 217.243721 
L 488.492284 217.271405 
L 489.330941 217.679261 
L 490.169597 217.454559 
L 491.008254 217.321324 
L 492.685568 216.982184 
L 493.104896 216.831728 
L 493.524225 216.861955 
L 493.943553 216.61395 
L 494.362882 216.683547 
L 494.78221 216.918558 
L 495.620867 216.876771 
L 496.040195 217.119295 
L 496.459524 216.784383 
L 498.556166 216.610061 
L 498.975494 216.760795 
L 501.072136 215.812707 
L 503.168778 215.289448 
L 504.846092 215.848414 
L 505.26542 215.888846 
L 505.26542 215.888846 
" style="fill:none;stroke:#5cb85c;stroke-width:4;"/>
   </g>
   <g id="patch_9">
    <path d="M 65.410875 374.4 
L 65.410875 207.490909 
" style="fill:none;stroke:#ffffff;stroke-linecap:square;stroke-linejoin:miter;stroke-width:3;"/>
   </g>
   <g id="patch_10">
    <path d="M 526.210875 374.4 
L 526.210875 207.490909 
" style="fill:none;stroke:#ffffff;stroke-linecap:square;stroke-linejoin:miter;stroke-width:3;"/>
   </g>
   <g id="patch_11">
    <path d="M 65.410875 374.4 
L 526.210875 374.4 
" style="fill:none;stroke:#ffffff;stroke-linecap:square;stroke-linejoin:miter;stroke-width:3;"/>
   </g>
   <g id="patch_12">
    <path d="M 65.410875 207.490909 
L 526.210875 207.490909 
" style="fill:none;stroke:#ffffff;stroke-linecap:square;stroke-linejoin:miter;stroke-width:3;"/>
   </g>
   <g id="legend_2">
    <g id="patch_13">
     <path d="M 73.810875 252.367159 
L 129.130875 252.367159 
Q 131.530875 252.367159 131.530875 249.967159 
L 131.530875 215.890909 
Q 131.530875 213.490909 129.130875 213.490909 
L 73.810875 213.490909 
Q 71.410875 213.490909 71.410875 215.890909 
L 71.410875 249.967159 
Q 71.410875 252.367159 73.810875 252.367159 
z
" style="fill:#ffffff;opacity:0.8;stroke:#cccccc;stroke-linejoin:miter;stroke-width:0.5;"/>
    </g>
    <g id="line2d_55">
     <path d="M 76.210875 223.209034 
L 100.210875 223.209034 
" style="fill:none;stroke:#fc4f30;stroke-width:4;"/>
    </g>
    <g id="line2d_56"/>
    <g id="text_23">
     <!-- $\sf p_{r1}$ -->
     <g transform="translate(109.810875 227.409034)scale(0.12 -0.12)">
      <use xlink:href="#DejaVuSans-70"/>
      <use transform="translate(64.433594 -16.40625)scale(0.7)" xlink:href="#DejaVuSans-72"/>
      <use transform="translate(93.212891 -16.40625)scale(0.7)" xlink:href="#DejaVuSans-31"/>
     </g>
    </g>
    <g id="line2d_57">
     <path d="M 76.210875 240.847159 
L 100.210875 240.847159 
" style="fill:none;stroke:#5cb85c;stroke-width:4;"/>
    </g>
    <g id="line2d_58"/>
    <g id="text_24">
     <!-- $\sf q_{r1}$ -->
     <g transform="translate(109.810875 245.047159)scale(0.12 -0.12)">
      <use xlink:href="#DejaVuSans-71"/>
      <use transform="translate(64.433594 -16.40625)scale(0.7)" xlink:href="#DejaVuSans-72"/>
      <use transform="translate(93.212891 -16.40625)scale(0.7)" xlink:href="#DejaVuSans-31"/>
     </g>
    </g>
   </g>
  </g>
 </g>
 <defs>
  <clipPath id="p94fdce48f4">
   <rect height="166.909091" width="460.8" x="65.410875" y="7.2"/>
  </clipPath>
  <clipPath id="padfd2b1205">
   <rect height="166.909091" width="460.8" x="65.410875" y="207.490909"/>
  </clipPath>
 </defs>
</svg>
