<?xml version="1.0" encoding="utf-8" standalone="no"?>
<!DOCTYPE svg PUBLIC "-//W3C//DTD SVG 1.1//EN"
  "http://www.w3.org/Graphics/SVG/1.1/DTD/svg11.dtd">
<!-- Created with matplotlib (http://matplotlib.org/) -->
<svg height="414pt" version="1.1" viewBox="0 0 523 414" width="523pt" xmlns="http://www.w3.org/2000/svg" xmlns:xlink="http://www.w3.org/1999/xlink">
 <defs>
  <style type="text/css">
*{stroke-linecap:butt;stroke-linejoin:round;}
  </style>
 </defs>
 <g id="figure_1">
  <g id="patch_1">
   <path d="M 0 414.65025 
L 523.35525 414.65025 
L 523.35525 0 
L 0 0 
z
" style="fill:none;opacity:0;"/>
  </g>
  <g id="axes_1">
   <g id="patch_2">
    <path d="M 55.35525 174.109091 
L 516.15525 174.109091 
L 516.15525 7.2 
L 55.35525 7.2 
z
" style="fill:#ffffff;"/>
   </g>
   <g id="matplotlib.axis_1">
    <g id="xtick_1">
     <g id="line2d_1">
      <path clip-path="url(#pa2545db511)" d="M 76.300705 174.109091 
L 76.300705 7.2 
" style="fill:none;stroke:#cbcbcb;"/>
     </g>
     <g id="line2d_2"/>
     <g id="text_1">
      <!-- 0 -->
      <defs>
       <path d="M 31.78125 66.40625 
Q 24.171875 66.40625 20.328125 58.90625 
Q 16.5 51.421875 16.5 36.375 
Q 16.5 21.390625 20.328125 13.890625 
Q 24.171875 6.390625 31.78125 6.390625 
Q 39.453125 6.390625 43.28125 13.890625 
Q 47.125 21.390625 47.125 36.375 
Q 47.125 51.421875 43.28125 58.90625 
Q 39.453125 66.40625 31.78125 66.40625 
z
M 31.78125 74.21875 
Q 44.046875 74.21875 50.515625 64.515625 
Q 56.984375 54.828125 56.984375 36.375 
Q 56.984375 17.96875 50.515625 8.265625 
Q 44.046875 -1.421875 31.78125 -1.421875 
Q 19.53125 -1.421875 13.0625 8.265625 
Q 6.59375 17.96875 6.59375 36.375 
Q 6.59375 54.828125 13.0625 64.515625 
Q 19.53125 74.21875 31.78125 74.21875 
z
" id="DejaVuSans-30"/>
      </defs>
      <g transform="translate(72.483205 186.727216)scale(0.12 -0.12)">
       <use xlink:href="#DejaVuSans-30"/>
      </g>
     </g>
    </g>
    <g id="xtick_2">
     <g id="line2d_3">
      <path clip-path="url(#pa2545db511)" d="M 160.166388 174.109091 
L 160.166388 7.2 
" style="fill:none;stroke:#cbcbcb;"/>
     </g>
     <g id="line2d_4"/>
     <g id="text_2">
      <!-- 2 -->
      <defs>
       <path d="M 19.1875 8.296875 
L 53.609375 8.296875 
L 53.609375 0 
L 7.328125 0 
L 7.328125 8.296875 
Q 12.9375 14.109375 22.625 23.890625 
Q 32.328125 33.6875 34.8125 36.53125 
Q 39.546875 41.84375 41.421875 45.53125 
Q 43.3125 49.21875 43.3125 52.78125 
Q 43.3125 58.59375 39.234375 62.25 
Q 35.15625 65.921875 28.609375 65.921875 
Q 23.96875 65.921875 18.8125 64.3125 
Q 13.671875 62.703125 7.8125 59.421875 
L 7.8125 69.390625 
Q 13.765625 71.78125 18.9375 73 
Q 24.125 74.21875 28.421875 74.21875 
Q 39.75 74.21875 46.484375 68.546875 
Q 53.21875 62.890625 53.21875 53.421875 
Q 53.21875 48.921875 51.53125 44.890625 
Q 49.859375 40.875 45.40625 35.40625 
Q 44.1875 33.984375 37.640625 27.21875 
Q 31.109375 20.453125 19.1875 8.296875 
z
" id="DejaVuSans-32"/>
      </defs>
      <g transform="translate(156.348888 186.727216)scale(0.12 -0.12)">
       <use xlink:href="#DejaVuSans-32"/>
      </g>
     </g>
    </g>
    <g id="xtick_3">
     <g id="line2d_5">
      <path clip-path="url(#pa2545db511)" d="M 244.032072 174.109091 
L 244.032072 7.2 
" style="fill:none;stroke:#cbcbcb;"/>
     </g>
     <g id="line2d_6"/>
     <g id="text_3">
      <!-- 4 -->
      <defs>
       <path d="M 37.796875 64.3125 
L 12.890625 25.390625 
L 37.796875 25.390625 
z
M 35.203125 72.90625 
L 47.609375 72.90625 
L 47.609375 25.390625 
L 58.015625 25.390625 
L 58.015625 17.1875 
L 47.609375 17.1875 
L 47.609375 0 
L 37.796875 0 
L 37.796875 17.1875 
L 4.890625 17.1875 
L 4.890625 26.703125 
z
" id="DejaVuSans-34"/>
      </defs>
      <g transform="translate(240.214572 186.727216)scale(0.12 -0.12)">
       <use xlink:href="#DejaVuSans-34"/>
      </g>
     </g>
    </g>
    <g id="xtick_4">
     <g id="line2d_7">
      <path clip-path="url(#pa2545db511)" d="M 327.897756 174.109091 
L 327.897756 7.2 
" style="fill:none;stroke:#cbcbcb;"/>
     </g>
     <g id="line2d_8"/>
     <g id="text_4">
      <!-- 6 -->
      <defs>
       <path d="M 33.015625 40.375 
Q 26.375 40.375 22.484375 35.828125 
Q 18.609375 31.296875 18.609375 23.390625 
Q 18.609375 15.53125 22.484375 10.953125 
Q 26.375 6.390625 33.015625 6.390625 
Q 39.65625 6.390625 43.53125 10.953125 
Q 47.40625 15.53125 47.40625 23.390625 
Q 47.40625 31.296875 43.53125 35.828125 
Q 39.65625 40.375 33.015625 40.375 
z
M 52.59375 71.296875 
L 52.59375 62.3125 
Q 48.875 64.0625 45.09375 64.984375 
Q 41.3125 65.921875 37.59375 65.921875 
Q 27.828125 65.921875 22.671875 59.328125 
Q 17.53125 52.734375 16.796875 39.40625 
Q 19.671875 43.65625 24.015625 45.921875 
Q 28.375 48.1875 33.59375 48.1875 
Q 44.578125 48.1875 50.953125 41.515625 
Q 57.328125 34.859375 57.328125 23.390625 
Q 57.328125 12.15625 50.6875 5.359375 
Q 44.046875 -1.421875 33.015625 -1.421875 
Q 20.359375 -1.421875 13.671875 8.265625 
Q 6.984375 17.96875 6.984375 36.375 
Q 6.984375 53.65625 15.1875 63.9375 
Q 23.390625 74.21875 37.203125 74.21875 
Q 40.921875 74.21875 44.703125 73.484375 
Q 48.484375 72.75 52.59375 71.296875 
z
" id="DejaVuSans-36"/>
      </defs>
      <g transform="translate(324.080256 186.727216)scale(0.12 -0.12)">
       <use xlink:href="#DejaVuSans-36"/>
      </g>
     </g>
    </g>
    <g id="xtick_5">
     <g id="line2d_9">
      <path clip-path="url(#pa2545db511)" d="M 411.76344 174.109091 
L 411.76344 7.2 
" style="fill:none;stroke:#cbcbcb;"/>
     </g>
     <g id="line2d_10"/>
     <g id="text_5">
      <!-- 8 -->
      <defs>
       <path d="M 31.78125 34.625 
Q 24.75 34.625 20.71875 30.859375 
Q 16.703125 27.09375 16.703125 20.515625 
Q 16.703125 13.921875 20.71875 10.15625 
Q 24.75 6.390625 31.78125 6.390625 
Q 38.8125 6.390625 42.859375 10.171875 
Q 46.921875 13.96875 46.921875 20.515625 
Q 46.921875 27.09375 42.890625 30.859375 
Q 38.875 34.625 31.78125 34.625 
z
M 21.921875 38.8125 
Q 15.578125 40.375 12.03125 44.71875 
Q 8.5 49.078125 8.5 55.328125 
Q 8.5 64.0625 14.71875 69.140625 
Q 20.953125 74.21875 31.78125 74.21875 
Q 42.671875 74.21875 48.875 69.140625 
Q 55.078125 64.0625 55.078125 55.328125 
Q 55.078125 49.078125 51.53125 44.71875 
Q 48 40.375 41.703125 38.8125 
Q 48.828125 37.15625 52.796875 32.3125 
Q 56.78125 27.484375 56.78125 20.515625 
Q 56.78125 9.90625 50.3125 4.234375 
Q 43.84375 -1.421875 31.78125 -1.421875 
Q 19.734375 -1.421875 13.25 4.234375 
Q 6.78125 9.90625 6.78125 20.515625 
Q 6.78125 27.484375 10.78125 32.3125 
Q 14.796875 37.15625 21.921875 38.8125 
z
M 18.3125 54.390625 
Q 18.3125 48.734375 21.84375 45.5625 
Q 25.390625 42.390625 31.78125 42.390625 
Q 38.140625 42.390625 41.71875 45.5625 
Q 45.3125 48.734375 45.3125 54.390625 
Q 45.3125 60.0625 41.71875 63.234375 
Q 38.140625 66.40625 31.78125 66.40625 
Q 25.390625 66.40625 21.84375 63.234375 
Q 18.3125 60.0625 18.3125 54.390625 
z
" id="DejaVuSans-38"/>
      </defs>
      <g transform="translate(407.94594 186.727216)scale(0.12 -0.12)">
       <use xlink:href="#DejaVuSans-38"/>
      </g>
     </g>
    </g>
    <g id="xtick_6">
     <g id="line2d_11">
      <path clip-path="url(#pa2545db511)" d="M 495.629124 174.109091 
L 495.629124 7.2 
" style="fill:none;stroke:#cbcbcb;"/>
     </g>
     <g id="line2d_12"/>
     <g id="text_6">
      <!-- 10 -->
      <defs>
       <path d="M 12.40625 8.296875 
L 28.515625 8.296875 
L 28.515625 63.921875 
L 10.984375 60.40625 
L 10.984375 69.390625 
L 28.421875 72.90625 
L 38.28125 72.90625 
L 38.28125 8.296875 
L 54.390625 8.296875 
L 54.390625 0 
L 12.40625 0 
z
" id="DejaVuSans-31"/>
      </defs>
      <g transform="translate(487.994124 186.727216)scale(0.12 -0.12)">
       <use xlink:href="#DejaVuSans-31"/>
       <use x="63.623047" xlink:href="#DejaVuSans-30"/>
      </g>
     </g>
    </g>
   </g>
   <g id="matplotlib.axis_2">
    <g id="ytick_1">
     <g id="line2d_13">
      <path clip-path="url(#pa2545db511)" d="M 55.35525 164.044438 
L 516.15525 164.044438 
" style="fill:none;stroke:#cbcbcb;"/>
     </g>
     <g id="line2d_14"/>
     <g id="text_7">
      <!-- 67.5 -->
      <defs>
       <path d="M 8.203125 72.90625 
L 55.078125 72.90625 
L 55.078125 68.703125 
L 28.609375 0 
L 18.3125 0 
L 43.21875 64.59375 
L 8.203125 64.59375 
z
" id="DejaVuSans-37"/>
       <path d="M 10.6875 12.40625 
L 21 12.40625 
L 21 0 
L 10.6875 0 
z
" id="DejaVuSans-2e"/>
       <path d="M 10.796875 72.90625 
L 49.515625 72.90625 
L 49.515625 64.59375 
L 19.828125 64.59375 
L 19.828125 46.734375 
Q 21.96875 47.46875 24.109375 47.828125 
Q 26.265625 48.1875 28.421875 48.1875 
Q 40.625 48.1875 47.75 41.5 
Q 54.890625 34.8125 54.890625 23.390625 
Q 54.890625 11.625 47.5625 5.09375 
Q 40.234375 -1.421875 26.90625 -1.421875 
Q 22.3125 -1.421875 17.546875 -0.640625 
Q 12.796875 0.140625 7.71875 1.703125 
L 7.71875 11.625 
Q 12.109375 9.234375 16.796875 8.0625 
Q 21.484375 6.890625 26.703125 6.890625 
Q 35.15625 6.890625 40.078125 11.328125 
Q 45.015625 15.765625 45.015625 23.390625 
Q 45.015625 31 40.078125 35.4375 
Q 35.15625 39.890625 26.703125 39.890625 
Q 22.75 39.890625 18.8125 39.015625 
Q 14.890625 38.140625 10.796875 36.28125 
z
" id="DejaVuSans-35"/>
      </defs>
      <g transform="translate(25.1365 168.603501)scale(0.12 -0.12)">
       <use xlink:href="#DejaVuSans-36"/>
       <use x="63.623047" xlink:href="#DejaVuSans-37"/>
       <use x="127.246094" xlink:href="#DejaVuSans-2e"/>
       <use x="159.033203" xlink:href="#DejaVuSans-35"/>
      </g>
     </g>
    </g>
    <g id="ytick_2">
     <g id="line2d_15">
      <path clip-path="url(#pa2545db511)" d="M 55.35525 130.798307 
L 516.15525 130.798307 
" style="fill:none;stroke:#cbcbcb;"/>
     </g>
     <g id="line2d_16"/>
     <g id="text_8">
      <!-- 70.0 -->
      <g transform="translate(25.1365 135.35737)scale(0.12 -0.12)">
       <use xlink:href="#DejaVuSans-37"/>
       <use x="63.623047" xlink:href="#DejaVuSans-30"/>
       <use x="127.246094" xlink:href="#DejaVuSans-2e"/>
       <use x="159.033203" xlink:href="#DejaVuSans-30"/>
      </g>
     </g>
    </g>
    <g id="ytick_3">
     <g id="line2d_17">
      <path clip-path="url(#pa2545db511)" d="M 55.35525 97.552176 
L 516.15525 97.552176 
" style="fill:none;stroke:#cbcbcb;"/>
     </g>
     <g id="line2d_18"/>
     <g id="text_9">
      <!-- 72.5 -->
      <g transform="translate(25.1365 102.111238)scale(0.12 -0.12)">
       <use xlink:href="#DejaVuSans-37"/>
       <use x="63.623047" xlink:href="#DejaVuSans-32"/>
       <use x="127.246094" xlink:href="#DejaVuSans-2e"/>
       <use x="159.033203" xlink:href="#DejaVuSans-35"/>
      </g>
     </g>
    </g>
    <g id="ytick_4">
     <g id="line2d_19">
      <path clip-path="url(#pa2545db511)" d="M 55.35525 64.306044 
L 516.15525 64.306044 
" style="fill:none;stroke:#cbcbcb;"/>
     </g>
     <g id="line2d_20"/>
     <g id="text_10">
      <!-- 75.0 -->
      <g transform="translate(25.1365 68.865107)scale(0.12 -0.12)">
       <use xlink:href="#DejaVuSans-37"/>
       <use x="63.623047" xlink:href="#DejaVuSans-35"/>
       <use x="127.246094" xlink:href="#DejaVuSans-2e"/>
       <use x="159.033203" xlink:href="#DejaVuSans-30"/>
      </g>
     </g>
    </g>
    <g id="ytick_5">
     <g id="line2d_21">
      <path clip-path="url(#pa2545db511)" d="M 55.35525 31.059913 
L 516.15525 31.059913 
" style="fill:none;stroke:#cbcbcb;"/>
     </g>
     <g id="line2d_22"/>
     <g id="text_11">
      <!-- 77.5 -->
      <g transform="translate(25.1365 35.618976)scale(0.12 -0.12)">
       <use xlink:href="#DejaVuSans-37"/>
       <use x="63.623047" xlink:href="#DejaVuSans-37"/>
       <use x="127.246094" xlink:href="#DejaVuSans-2e"/>
       <use x="159.033203" xlink:href="#DejaVuSans-35"/>
      </g>
     </g>
    </g>
    <g id="text_12">
     <!-- Rotor speed (rev/m) -->
     <defs>
      <path d="M 44.390625 34.1875 
Q 47.5625 33.109375 50.5625 29.59375 
Q 53.5625 26.078125 56.59375 19.921875 
L 66.609375 0 
L 56 0 
L 46.6875 18.703125 
Q 43.0625 26.03125 39.671875 28.421875 
Q 36.28125 30.8125 30.421875 30.8125 
L 19.671875 30.8125 
L 19.671875 0 
L 9.8125 0 
L 9.8125 72.90625 
L 32.078125 72.90625 
Q 44.578125 72.90625 50.734375 67.671875 
Q 56.890625 62.453125 56.890625 51.90625 
Q 56.890625 45.015625 53.6875 40.46875 
Q 50.484375 35.9375 44.390625 34.1875 
z
M 19.671875 64.796875 
L 19.671875 38.921875 
L 32.078125 38.921875 
Q 39.203125 38.921875 42.84375 42.21875 
Q 46.484375 45.515625 46.484375 51.90625 
Q 46.484375 58.296875 42.84375 61.546875 
Q 39.203125 64.796875 32.078125 64.796875 
z
" id="DejaVuSans-52"/>
      <path d="M 30.609375 48.390625 
Q 23.390625 48.390625 19.1875 42.75 
Q 14.984375 37.109375 14.984375 27.296875 
Q 14.984375 17.484375 19.15625 11.84375 
Q 23.34375 6.203125 30.609375 6.203125 
Q 37.796875 6.203125 41.984375 11.859375 
Q 46.1875 17.53125 46.1875 27.296875 
Q 46.1875 37.015625 41.984375 42.703125 
Q 37.796875 48.390625 30.609375 48.390625 
z
M 30.609375 56 
Q 42.328125 56 49.015625 48.375 
Q 55.71875 40.765625 55.71875 27.296875 
Q 55.71875 13.875 49.015625 6.21875 
Q 42.328125 -1.421875 30.609375 -1.421875 
Q 18.84375 -1.421875 12.171875 6.21875 
Q 5.515625 13.875 5.515625 27.296875 
Q 5.515625 40.765625 12.171875 48.375 
Q 18.84375 56 30.609375 56 
z
" id="DejaVuSans-6f"/>
      <path d="M 18.3125 70.21875 
L 18.3125 54.6875 
L 36.8125 54.6875 
L 36.8125 47.703125 
L 18.3125 47.703125 
L 18.3125 18.015625 
Q 18.3125 11.328125 20.140625 9.421875 
Q 21.96875 7.515625 27.59375 7.515625 
L 36.8125 7.515625 
L 36.8125 0 
L 27.59375 0 
Q 17.1875 0 13.234375 3.875 
Q 9.28125 7.765625 9.28125 18.015625 
L 9.28125 47.703125 
L 2.6875 47.703125 
L 2.6875 54.6875 
L 9.28125 54.6875 
L 9.28125 70.21875 
z
" id="DejaVuSans-74"/>
      <path d="M 41.109375 46.296875 
Q 39.59375 47.171875 37.8125 47.578125 
Q 36.03125 48 33.890625 48 
Q 26.265625 48 22.1875 43.046875 
Q 18.109375 38.09375 18.109375 28.8125 
L 18.109375 0 
L 9.078125 0 
L 9.078125 54.6875 
L 18.109375 54.6875 
L 18.109375 46.1875 
Q 20.953125 51.171875 25.484375 53.578125 
Q 30.03125 56 36.53125 56 
Q 37.453125 56 38.578125 55.875 
Q 39.703125 55.765625 41.0625 55.515625 
z
" id="DejaVuSans-72"/>
      <path id="DejaVuSans-20"/>
      <path d="M 44.28125 53.078125 
L 44.28125 44.578125 
Q 40.484375 46.53125 36.375 47.5 
Q 32.28125 48.484375 27.875 48.484375 
Q 21.1875 48.484375 17.84375 46.4375 
Q 14.5 44.390625 14.5 40.28125 
Q 14.5 37.15625 16.890625 35.375 
Q 19.28125 33.59375 26.515625 31.984375 
L 29.59375 31.296875 
Q 39.15625 29.25 43.1875 25.515625 
Q 47.21875 21.78125 47.21875 15.09375 
Q 47.21875 7.46875 41.1875 3.015625 
Q 35.15625 -1.421875 24.609375 -1.421875 
Q 20.21875 -1.421875 15.453125 -0.5625 
Q 10.6875 0.296875 5.421875 2 
L 5.421875 11.28125 
Q 10.40625 8.6875 15.234375 7.390625 
Q 20.0625 6.109375 24.8125 6.109375 
Q 31.15625 6.109375 34.5625 8.28125 
Q 37.984375 10.453125 37.984375 14.40625 
Q 37.984375 18.0625 35.515625 20.015625 
Q 33.0625 21.96875 24.703125 23.78125 
L 21.578125 24.515625 
Q 13.234375 26.265625 9.515625 29.90625 
Q 5.8125 33.546875 5.8125 39.890625 
Q 5.8125 47.609375 11.28125 51.796875 
Q 16.75 56 26.8125 56 
Q 31.78125 56 36.171875 55.265625 
Q 40.578125 54.546875 44.28125 53.078125 
z
" id="DejaVuSans-73"/>
      <path d="M 18.109375 8.203125 
L 18.109375 -20.796875 
L 9.078125 -20.796875 
L 9.078125 54.6875 
L 18.109375 54.6875 
L 18.109375 46.390625 
Q 20.953125 51.265625 25.265625 53.625 
Q 29.59375 56 35.59375 56 
Q 45.5625 56 51.78125 48.09375 
Q 58.015625 40.1875 58.015625 27.296875 
Q 58.015625 14.40625 51.78125 6.484375 
Q 45.5625 -1.421875 35.59375 -1.421875 
Q 29.59375 -1.421875 25.265625 0.953125 
Q 20.953125 3.328125 18.109375 8.203125 
z
M 48.6875 27.296875 
Q 48.6875 37.203125 44.609375 42.84375 
Q 40.53125 48.484375 33.40625 48.484375 
Q 26.265625 48.484375 22.1875 42.84375 
Q 18.109375 37.203125 18.109375 27.296875 
Q 18.109375 17.390625 22.1875 11.75 
Q 26.265625 6.109375 33.40625 6.109375 
Q 40.53125 6.109375 44.609375 11.75 
Q 48.6875 17.390625 48.6875 27.296875 
z
" id="DejaVuSans-70"/>
      <path d="M 56.203125 29.59375 
L 56.203125 25.203125 
L 14.890625 25.203125 
Q 15.484375 15.921875 20.484375 11.0625 
Q 25.484375 6.203125 34.421875 6.203125 
Q 39.59375 6.203125 44.453125 7.46875 
Q 49.3125 8.734375 54.109375 11.28125 
L 54.109375 2.78125 
Q 49.265625 0.734375 44.1875 -0.34375 
Q 39.109375 -1.421875 33.890625 -1.421875 
Q 20.796875 -1.421875 13.15625 6.1875 
Q 5.515625 13.8125 5.515625 26.8125 
Q 5.515625 40.234375 12.765625 48.109375 
Q 20.015625 56 32.328125 56 
Q 43.359375 56 49.78125 48.890625 
Q 56.203125 41.796875 56.203125 29.59375 
z
M 47.21875 32.234375 
Q 47.125 39.59375 43.09375 43.984375 
Q 39.0625 48.390625 32.421875 48.390625 
Q 24.90625 48.390625 20.390625 44.140625 
Q 15.875 39.890625 15.1875 32.171875 
z
" id="DejaVuSans-65"/>
      <path d="M 45.40625 46.390625 
L 45.40625 75.984375 
L 54.390625 75.984375 
L 54.390625 0 
L 45.40625 0 
L 45.40625 8.203125 
Q 42.578125 3.328125 38.25 0.953125 
Q 33.9375 -1.421875 27.875 -1.421875 
Q 17.96875 -1.421875 11.734375 6.484375 
Q 5.515625 14.40625 5.515625 27.296875 
Q 5.515625 40.1875 11.734375 48.09375 
Q 17.96875 56 27.875 56 
Q 33.9375 56 38.25 53.625 
Q 42.578125 51.265625 45.40625 46.390625 
z
M 14.796875 27.296875 
Q 14.796875 17.390625 18.875 11.75 
Q 22.953125 6.109375 30.078125 6.109375 
Q 37.203125 6.109375 41.296875 11.75 
Q 45.40625 17.390625 45.40625 27.296875 
Q 45.40625 37.203125 41.296875 42.84375 
Q 37.203125 48.484375 30.078125 48.484375 
Q 22.953125 48.484375 18.875 42.84375 
Q 14.796875 37.203125 14.796875 27.296875 
z
" id="DejaVuSans-64"/>
      <path d="M 31 75.875 
Q 24.46875 64.65625 21.28125 53.65625 
Q 18.109375 42.671875 18.109375 31.390625 
Q 18.109375 20.125 21.3125 9.0625 
Q 24.515625 -2 31 -13.1875 
L 23.1875 -13.1875 
Q 15.875 -1.703125 12.234375 9.375 
Q 8.59375 20.453125 8.59375 31.390625 
Q 8.59375 42.28125 12.203125 53.3125 
Q 15.828125 64.359375 23.1875 75.875 
z
" id="DejaVuSans-28"/>
      <path d="M 2.984375 54.6875 
L 12.5 54.6875 
L 29.59375 8.796875 
L 46.6875 54.6875 
L 56.203125 54.6875 
L 35.6875 0 
L 23.484375 0 
z
" id="DejaVuSans-76"/>
      <path d="M 25.390625 72.90625 
L 33.6875 72.90625 
L 8.296875 -9.28125 
L 0 -9.28125 
z
" id="DejaVuSans-2f"/>
      <path d="M 52 44.1875 
Q 55.375 50.25 60.0625 53.125 
Q 64.75 56 71.09375 56 
Q 79.640625 56 84.28125 50.015625 
Q 88.921875 44.046875 88.921875 33.015625 
L 88.921875 0 
L 79.890625 0 
L 79.890625 32.71875 
Q 79.890625 40.578125 77.09375 44.375 
Q 74.3125 48.1875 68.609375 48.1875 
Q 61.625 48.1875 57.5625 43.546875 
Q 53.515625 38.921875 53.515625 30.90625 
L 53.515625 0 
L 44.484375 0 
L 44.484375 32.71875 
Q 44.484375 40.625 41.703125 44.40625 
Q 38.921875 48.1875 33.109375 48.1875 
Q 26.21875 48.1875 22.15625 43.53125 
Q 18.109375 38.875 18.109375 30.90625 
L 18.109375 0 
L 9.078125 0 
L 9.078125 54.6875 
L 18.109375 54.6875 
L 18.109375 46.1875 
Q 21.1875 51.21875 25.484375 53.609375 
Q 29.78125 56 35.6875 56 
Q 41.65625 56 45.828125 52.96875 
Q 50 49.953125 52 44.1875 
z
" id="DejaVuSans-6d"/>
      <path d="M 8.015625 75.875 
L 15.828125 75.875 
Q 23.140625 64.359375 26.78125 53.3125 
Q 30.421875 42.28125 30.421875 31.390625 
Q 30.421875 20.453125 26.78125 9.375 
Q 23.140625 -1.703125 15.828125 -13.1875 
L 8.015625 -13.1875 
Q 14.5 -2 17.703125 9.0625 
Q 20.90625 20.125 20.90625 31.390625 
Q 20.90625 42.671875 17.703125 53.65625 
Q 14.5 64.65625 8.015625 75.875 
z
" id="DejaVuSans-29"/>
     </defs>
     <g transform="translate(18.14175 163.282295)rotate(-90)scale(0.144 -0.144)">
      <use xlink:href="#DejaVuSans-52"/>
      <use x="69.419922" xlink:href="#DejaVuSans-6f"/>
      <use x="130.601562" xlink:href="#DejaVuSans-74"/>
      <use x="169.810547" xlink:href="#DejaVuSans-6f"/>
      <use x="230.992188" xlink:href="#DejaVuSans-72"/>
      <use x="272.105469" xlink:href="#DejaVuSans-20"/>
      <use x="303.892578" xlink:href="#DejaVuSans-73"/>
      <use x="355.992188" xlink:href="#DejaVuSans-70"/>
      <use x="419.46875" xlink:href="#DejaVuSans-65"/>
      <use x="480.992188" xlink:href="#DejaVuSans-65"/>
      <use x="542.515625" xlink:href="#DejaVuSans-64"/>
      <use x="605.992188" xlink:href="#DejaVuSans-20"/>
      <use x="637.779297" xlink:href="#DejaVuSans-28"/>
      <use x="676.792969" xlink:href="#DejaVuSans-72"/>
      <use x="717.875" xlink:href="#DejaVuSans-65"/>
      <use x="779.398438" xlink:href="#DejaVuSans-76"/>
      <use x="838.578125" xlink:href="#DejaVuSans-2f"/>
      <use x="872.269531" xlink:href="#DejaVuSans-6d"/>
      <use x="969.681641" xlink:href="#DejaVuSans-29"/>
     </g>
    </g>
   </g>
   <g id="line2d_23">
    <path clip-path="url(#pa2545db511)" d="M 76.300705 166.522314 
L 76.720033 166.180176 
L 78.816675 165.675072 
L 81.332646 165.375869 
L 85.106601 165.202202 
L 93.073841 165.131261 
L 118.233546 165.12508 
L 127.8781 106.802486 
L 129.136085 99.523258 
L 132.490713 79.659162 
L 133.748698 72.230819 
L 135.84534 59.788559 
L 140.038624 34.611586 
L 140.457953 32.509295 
L 141.29661 29.931609 
L 142.135266 27.734604 
L 143.393252 25.207114 
L 144.231908 24.160501 
L 144.651237 23.6463 
L 145.489894 22.933803 
L 146.747879 22.58853 
L 147.167207 22.127546 
L 148.005864 21.733486 
L 148.425193 21.660916 
L 148.844521 21.358757 
L 149.683178 21.29432 
L 150.102506 21.242427 
L 150.521835 21.056931 
L 151.360492 20.989579 
L 151.77982 20.873816 
L 152.199148 20.996006 
L 152.618477 20.827653 
L 154.715119 20.736059 
L 155.134447 20.414053 
L 155.973104 20.358303 
L 156.392433 20.133545 
L 156.811761 20.159446 
L 157.231089 20.318462 
L 158.069746 20.419869 
L 159.327732 20.870162 
L 160.166388 20.749376 
L 160.585717 20.933514 
L 161.843702 20.630227 
L 163.101687 20.929376 
L 163.521016 20.904069 
L 163.940344 20.741417 
L 164.359673 20.867054 
L 164.779001 20.772105 
L 165.617658 20.965209 
L 166.456315 20.93744 
L 166.875643 21.081252 
L 168.552957 21.060028 
L 168.972285 21.081306 
L 169.810942 20.953848 
L 170.649599 21.002166 
L 171.068927 20.704877 
L 171.488256 20.845847 
L 171.907584 20.783494 
L 172.326913 20.977644 
L 172.746241 20.778774 
L 173.165569 20.771049 
L 174.842883 21.376024 
L 175.262212 21.307705 
L 176.100868 21.433666 
L 177.358854 21.083719 
L 177.778182 21.251077 
L 178.19751 21.055098 
L 179.455496 21.312723 
L 179.874824 21.221363 
L 180.294153 21.479508 
L 181.132809 21.687667 
L 181.552138 21.556505 
L 181.971466 21.617423 
L 182.810123 21.494204 
L 183.64878 21.368556 
L 184.068108 21.147617 
L 184.487437 21.059149 
L 185.745422 21.243513 
L 187.003407 21.065973 
L 187.422736 21.205004 
L 187.842064 21.49877 
L 188.261393 21.371354 
L 188.680721 21.397517 
L 189.100049 21.125386 
L 189.519378 21.304473 
L 189.938706 21.282932 
L 191.61602 21.654853 
L 192.035348 21.975352 
L 192.874005 21.953054 
L 193.293334 22.098236 
L 193.712662 21.874358 
L 194.13199 21.902501 
L 194.551319 21.707745 
L 195.389976 21.87577 
L 195.809304 21.553176 
L 196.228632 21.802143 
L 197.067289 21.510844 
L 197.905946 21.436636 
L 198.744603 21.602088 
L 200.421917 21.238995 
L 200.841245 21.265144 
L 201.260574 21.136692 
L 202.09923 21.257494 
L 202.937887 20.995568 
L 204.195872 20.67838 
L 205.034529 20.504169 
L 205.453858 20.295741 
L 207.5505 20.436643 
L 207.969828 20.410995 
L 208.389157 20.223856 
L 209.647142 20.015023 
L 210.485799 19.872409 
L 210.905127 19.870798 
L 211.324456 20.008531 
L 212.163112 20.053752 
L 212.582441 20.276455 
L 213.001769 20.232328 
L 213.840426 20.304517 
L 215.098411 20.277029 
L 215.51774 20.714751 
L 216.356397 21.043845 
L 217.195053 21.213352 
L 217.614382 20.960471 
L 218.03371 20.958437 
L 218.453039 20.842316 
L 219.711024 21.087393 
L 220.549681 21.164572 
L 220.969009 21.37894 
L 221.807666 21.300564 
L 222.226994 21.460895 
L 222.646323 21.143483 
L 223.904308 21.122438 
L 224.323637 21.245113 
L 224.742965 21.229785 
L 225.162293 21.099913 
L 226.00095 21.31235 
L 226.420279 21.180345 
L 226.839607 20.900862 
L 228.516921 20.7974 
L 229.355578 21.275587 
L 230.194234 21.477696 
L 231.032891 21.48453 
L 231.45222 21.596167 
L 231.871548 21.475143 
L 232.710205 21.636397 
L 233.548862 21.729387 
L 234.387519 21.892581 
L 235.226175 21.787083 
L 235.645504 21.91739 
L 236.064832 21.58596 
L 238.161474 21.794097 
L 238.580803 21.614333 
L 239.000131 21.608022 
L 239.41946 21.395023 
L 240.258117 21.535318 
L 240.677445 21.410306 
L 241.93543 21.534888 
L 242.354759 21.294291 
L 243.193415 21.478975 
L 243.612744 21.574466 
L 244.032072 21.45522 
L 244.451401 21.213513 
L 244.870729 21.304496 
L 245.290058 21.656806 
L 246.548043 21.445136 
L 246.967371 21.585569 
L 247.3867 21.363721 
L 247.806028 21.462093 
L 248.644685 21.417702 
L 249.064013 21.571693 
L 250.741327 21.041948 
L 251.579984 21.229475 
L 251.999312 21.077947 
L 252.418641 21.231914 
L 252.837969 21.212372 
L 254.095954 20.662215 
L 254.515283 20.813184 
L 255.35394 20.829602 
L 256.192596 21.174871 
L 256.611925 21.279505 
L 259.127895 20.909831 
L 259.547224 20.653498 
L 259.966552 20.635429 
L 261.224537 20.970799 
L 261.643866 20.739473 
L 262.482523 20.847303 
L 262.901851 20.664344 
L 263.740508 20.852846 
L 264.579165 20.736484 
L 264.998493 20.866634 
L 265.417822 20.757132 
L 266.675807 21.106889 
L 267.933792 21.271072 
L 268.353121 21.208949 
L 269.191777 21.333587 
L 269.611106 21.149277 
L 270.030434 21.267587 
L 270.449763 21.133282 
L 270.869091 21.182351 
L 271.28842 20.851024 
L 271.707748 20.720768 
L 272.127076 20.753037 
L 273.80439 21.260319 
L 274.223718 20.942884 
L 274.643047 21.079253 
L 275.062375 20.966497 
L 275.481704 21.020951 
L 275.901032 20.837508 
L 276.320361 20.894206 
L 276.739689 20.786193 
L 277.578346 21.117585 
L 277.997674 20.601834 
L 278.417003 20.59888 
L 278.836331 20.406921 
L 280.513645 20.365579 
L 280.932973 20.315707 
L 281.352302 20.540312 
L 282.190958 20.373732 
L 282.610287 20.301433 
L 283.029615 20.351453 
L 283.448944 20.611458 
L 283.868272 20.61892 
L 284.287601 20.771243 
L 284.706929 20.621053 
L 285.126257 20.726112 
L 285.545586 20.559856 
L 287.222899 20.571464 
L 289.319542 20.260081 
L 289.73887 20.478188 
L 290.158198 20.111782 
L 293.512826 19.996397 
L 293.932154 19.86138 
L 295.609468 20.291661 
L 298.125438 20.011831 
L 298.964095 20.151717 
L 299.383424 20.237383 
L 299.802752 20.186299 
L 300.22208 20.310372 
L 301.480066 20.002456 
L 301.899394 20.127457 
L 302.738051 19.819416 
L 303.157379 19.983928 
L 303.996036 19.619151 
L 304.834693 19.531293 
L 305.254021 19.5838 
L 306.092678 19.468491 
L 308.18932 19.704268 
L 310.285963 19.523955 
L 312.382605 20.05232 
L 312.801933 20.022802 
L 313.221261 19.837492 
L 314.898575 19.717374 
L 315.737232 20.010311 
L 316.575889 20.063792 
L 317.414546 19.626033 
L 317.833874 19.505375 
L 318.672531 19.453333 
L 319.091859 19.32891 
L 320.349845 19.429937 
L 321.188501 19.785345 
L 321.60783 19.583182 
L 323.285144 19.631694 
L 323.704472 19.817863 
L 324.1238 19.605897 
L 325.801114 20.044262 
L 327.059099 19.701809 
L 328.317085 19.835046 
L 328.736413 19.805027 
L 329.155741 19.919101 
L 330.413727 19.431024 
L 331.252383 19.441672 
L 331.671712 19.344519 
L 332.929697 19.533577 
L 333.768354 19.616698 
L 334.607011 19.340076 
L 336.703653 19.60496 
L 337.122981 19.416089 
L 337.961638 19.420355 
L 338.380967 19.56395 
L 338.800295 19.416815 
L 339.219623 19.554539 
L 339.638952 19.430957 
L 340.896937 19.599239 
L 342.574251 19.118896 
L 342.993579 18.863823 
L 343.412908 18.815361 
L 344.670893 19.15946 
L 345.50955 19.04925 
L 345.928878 18.835343 
L 346.348207 18.869265 
L 346.767535 18.726933 
L 347.186863 19.040687 
L 349.702834 18.519913 
L 350.122162 18.523059 
L 350.541491 18.309495 
L 350.960819 18.480434 
L 351.380148 18.333092 
L 352.218804 18.430461 
L 352.638133 18.210333 
L 353.47679 18.25436 
L 353.896118 18.23006 
L 354.734775 17.877892 
L 355.154103 18.104978 
L 355.99276 18.097773 
L 356.412089 17.823928 
L 357.250745 17.744056 
L 357.670074 17.480227 
L 358.089402 17.630124 
L 359.347388 17.592473 
L 359.766716 17.47878 
L 360.186044 17.587014 
L 361.863358 17.540598 
L 362.282687 17.603666 
L 362.702015 17.24478 
L 364.379329 17.464063 
L 365.637314 17.208565 
L 366.475971 17.012068 
L 367.314628 17.026322 
L 367.733956 16.828566 
L 368.153284 16.863217 
L 368.572613 16.702907 
L 368.991941 16.814324 
L 370.669255 16.498932 
L 371.088583 16.480742 
L 371.507912 16.227658 
L 371.92724 16.202162 
L 372.346569 16.332579 
L 374.023882 15.908791 
L 376.120524 16.360976 
L 376.539853 16.551505 
L 376.959181 16.362105 
L 377.37851 16.409092 
L 377.797838 16.615068 
L 378.636495 16.312141 
L 379.475152 16.130989 
L 381.571794 16.009293 
L 382.410451 16.001911 
L 382.829779 15.850207 
L 383.249107 15.838827 
L 383.668436 16.124272 
L 384.926421 15.714658 
L 385.765078 15.835921 
L 386.184406 15.839141 
L 386.603735 15.967199 
L 387.023063 15.972317 
L 387.442392 15.783765 
L 387.86172 15.754324 
L 389.119705 15.910355 
L 389.539034 15.758094 
L 389.958362 15.861138 
L 391.216347 15.775366 
L 391.635676 15.94064 
L 392.055004 15.796371 
L 392.474333 15.989247 
L 392.893661 16.017704 
L 393.31299 15.739293 
L 394.990303 15.512224 
L 395.409632 15.363396 
L 395.82896 15.352545 
L 396.667617 14.997868 
L 397.506274 15.03275 
L 397.925602 15.129066 
L 398.764259 14.786777 
L 399.183587 14.85236 
L 399.602916 14.790467 
L 402.538215 15.354644 
L 402.957543 15.231915 
L 403.376872 15.586746 
L 403.7962 15.452592 
L 404.215528 15.559015 
L 404.634857 15.302356 
L 406.731499 15.322041 
L 407.150827 15.474964 
L 408.408813 15.500794 
L 409.247469 15.609238 
L 409.666798 15.6142 
L 410.086126 15.888262 
L 410.505455 15.77588 
L 411.344112 15.957751 
L 412.182768 15.576459 
L 412.602097 15.782042 
L 413.021425 15.678158 
L 413.440754 15.807051 
L 413.860082 15.510697 
L 414.279411 15.662866 
L 414.698739 15.610609 
L 415.956724 15.864787 
L 416.376053 15.681384 
L 417.214709 15.9945 
L 418.053366 15.924785 
L 418.472695 16.216284 
L 418.892023 16.027864 
L 419.73068 16.219247 
L 420.569337 16.164441 
L 421.407994 16.354062 
L 421.827322 16.340494 
L 422.24665 16.154266 
L 423.085307 16.032745 
L 423.504636 16.251437 
L 427.69792 15.744382 
L 428.536577 15.807635 
L 431.052547 15.969143 
L 431.471876 16.14233 
L 432.729861 15.966042 
L 433.149189 15.749096 
L 433.987846 15.519279 
L 434.407175 15.35759 
L 435.66516 15.297725 
L 436.084488 15.231631 
L 436.503817 15.408774 
L 436.923145 15.432618 
L 437.342474 15.572271 
L 437.761802 15.32427 
L 438.18113 15.256996 
L 438.600459 15.4676 
L 439.439116 15.530942 
L 439.858444 15.396611 
L 440.697101 15.4477 
L 441.955086 15.608367 
L 442.374415 15.484782 
L 443.213071 15.924047 
L 443.6324 15.861863 
L 444.051728 15.437179 
L 444.471057 15.274391 
L 445.729042 15.484551 
L 446.14837 15.439157 
L 446.567699 15.270135 
L 447.406356 15.366143 
L 447.825684 15.176749 
L 448.664341 15.331472 
L 449.083669 15.576533 
L 450.341655 15.803983 
L 452.438297 15.960181 
L 453.276954 15.994702 
L 453.696282 15.772942 
L 454.534939 15.774442 
L 455.373596 15.819959 
L 455.792924 15.602636 
L 457.050909 15.527158 
L 457.889566 15.474234 
L 458.728223 15.755756 
L 459.986208 15.525616 
L 460.405537 15.411319 
L 460.824865 15.432423 
L 461.663522 15.679934 
L 462.08285 15.694144 
L 462.502179 15.901502 
L 462.921507 15.866211 
L 464.179492 16.196526 
L 464.598821 15.936679 
L 465.437478 15.844732 
L 466.695463 16.064799 
L 467.114791 15.80865 
L 467.53412 16.174128 
L 467.953448 16.189741 
L 468.792105 16.455974 
L 470.469419 16.387035 
L 470.888747 16.142228 
L 471.308076 16.083737 
L 471.727404 16.220602 
L 472.566061 16.286601 
L 473.824046 16.667795 
L 474.662703 16.676248 
L 475.50136 16.886454 
L 475.920688 16.72865 
L 477.598002 16.745115 
L 478.01733 16.491128 
L 478.436659 16.512911 
L 479.275316 16.833834 
L 480.113972 16.657026 
L 480.952629 16.55219 
L 482.629943 16.285337 
L 483.049271 16.16695 
L 483.4686 16.190735 
L 483.887928 15.995591 
L 484.307257 16.050353 
L 484.726585 16.235273 
L 485.565242 16.202392 
L 485.98457 16.393223 
L 486.403899 16.129697 
L 488.500541 15.992531 
L 488.919869 16.111136 
L 491.016511 15.365131 
L 493.113153 14.953402 
L 494.790467 15.393227 
L 495.209795 15.425041 
L 495.209795 15.425041 
" style="fill:none;stroke:#fc4f30;stroke-width:4;"/>
   </g>
   <g id="patch_3">
    <path d="M 55.35525 174.109091 
L 55.35525 7.2 
" style="fill:none;stroke:#ffffff;stroke-linecap:square;stroke-linejoin:miter;stroke-width:3;"/>
   </g>
   <g id="patch_4">
    <path d="M 516.15525 174.109091 
L 516.15525 7.2 
" style="fill:none;stroke:#ffffff;stroke-linecap:square;stroke-linejoin:miter;stroke-width:3;"/>
   </g>
   <g id="patch_5">
    <path d="M 55.35525 174.109091 
L 516.15525 174.109091 
" style="fill:none;stroke:#ffffff;stroke-linecap:square;stroke-linejoin:miter;stroke-width:3;"/>
   </g>
   <g id="patch_6">
    <path d="M 55.35525 7.2 
L 516.15525 7.2 
" style="fill:none;stroke:#ffffff;stroke-linecap:square;stroke-linejoin:miter;stroke-width:3;"/>
   </g>
  </g>
  <g id="axes_2">
   <g id="patch_7">
    <path d="M 55.35525 374.4 
L 516.15525 374.4 
L 516.15525 207.490909 
L 55.35525 207.490909 
z
" style="fill:#ffffff;"/>
   </g>
   <g id="matplotlib.axis_3">
    <g id="xtick_7">
     <g id="line2d_24">
      <path clip-path="url(#pdad2385dd3)" d="M 76.300705 374.4 
L 76.300705 207.490909 
" style="fill:none;stroke:#cbcbcb;"/>
     </g>
     <g id="line2d_25"/>
     <g id="text_13">
      <!-- 0 -->
      <g transform="translate(72.483205 387.018125)scale(0.12 -0.12)">
       <use xlink:href="#DejaVuSans-30"/>
      </g>
     </g>
    </g>
    <g id="xtick_8">
     <g id="line2d_26">
      <path clip-path="url(#pdad2385dd3)" d="M 160.166388 374.4 
L 160.166388 207.490909 
" style="fill:none;stroke:#cbcbcb;"/>
     </g>
     <g id="line2d_27"/>
     <g id="text_14">
      <!-- 2 -->
      <g transform="translate(156.348888 387.018125)scale(0.12 -0.12)">
       <use xlink:href="#DejaVuSans-32"/>
      </g>
     </g>
    </g>
    <g id="xtick_9">
     <g id="line2d_28">
      <path clip-path="url(#pdad2385dd3)" d="M 244.032072 374.4 
L 244.032072 207.490909 
" style="fill:none;stroke:#cbcbcb;"/>
     </g>
     <g id="line2d_29"/>
     <g id="text_15">
      <!-- 4 -->
      <g transform="translate(240.214572 387.018125)scale(0.12 -0.12)">
       <use xlink:href="#DejaVuSans-34"/>
      </g>
     </g>
    </g>
    <g id="xtick_10">
     <g id="line2d_30">
      <path clip-path="url(#pdad2385dd3)" d="M 327.897756 374.4 
L 327.897756 207.490909 
" style="fill:none;stroke:#cbcbcb;"/>
     </g>
     <g id="line2d_31"/>
     <g id="text_16">
      <!-- 6 -->
      <g transform="translate(324.080256 387.018125)scale(0.12 -0.12)">
       <use xlink:href="#DejaVuSans-36"/>
      </g>
     </g>
    </g>
    <g id="xtick_11">
     <g id="line2d_32">
      <path clip-path="url(#pdad2385dd3)" d="M 411.76344 374.4 
L 411.76344 207.490909 
" style="fill:none;stroke:#cbcbcb;"/>
     </g>
     <g id="line2d_33"/>
     <g id="text_17">
      <!-- 8 -->
      <g transform="translate(407.94594 387.018125)scale(0.12 -0.12)">
       <use xlink:href="#DejaVuSans-38"/>
      </g>
     </g>
    </g>
    <g id="xtick_12">
     <g id="line2d_34">
      <path clip-path="url(#pdad2385dd3)" d="M 495.629124 374.4 
L 495.629124 207.490909 
" style="fill:none;stroke:#cbcbcb;"/>
     </g>
     <g id="line2d_35"/>
     <g id="text_18">
      <!-- 10 -->
      <g transform="translate(487.994124 387.018125)scale(0.12 -0.12)">
       <use xlink:href="#DejaVuSans-31"/>
       <use x="63.623047" xlink:href="#DejaVuSans-30"/>
      </g>
     </g>
    </g>
    <g id="text_19">
     <!-- Time (s) -->
     <defs>
      <path d="M -0.296875 72.90625 
L 61.375 72.90625 
L 61.375 64.59375 
L 35.5 64.59375 
L 35.5 0 
L 25.59375 0 
L 25.59375 64.59375 
L -0.296875 64.59375 
z
" id="DejaVuSans-54"/>
      <path d="M 9.421875 54.6875 
L 18.40625 54.6875 
L 18.40625 0 
L 9.421875 0 
z
M 9.421875 75.984375 
L 18.40625 75.984375 
L 18.40625 64.59375 
L 9.421875 64.59375 
z
" id="DejaVuSans-69"/>
     </defs>
     <g transform="translate(256.26 404.4555)scale(0.144 -0.144)">
      <use xlink:href="#DejaVuSans-54"/>
      <use x="61.037109" xlink:href="#DejaVuSans-69"/>
      <use x="88.820312" xlink:href="#DejaVuSans-6d"/>
      <use x="186.232422" xlink:href="#DejaVuSans-65"/>
      <use x="247.755859" xlink:href="#DejaVuSans-20"/>
      <use x="279.542969" xlink:href="#DejaVuSans-28"/>
      <use x="318.556641" xlink:href="#DejaVuSans-73"/>
      <use x="370.65625" xlink:href="#DejaVuSans-29"/>
     </g>
    </g>
   </g>
   <g id="matplotlib.axis_4">
    <g id="ytick_6">
     <g id="line2d_36">
      <path clip-path="url(#pdad2385dd3)" d="M 55.35525 351.250216 
L 516.15525 351.250216 
" style="fill:none;stroke:#cbcbcb;"/>
     </g>
     <g id="line2d_37"/>
     <g id="text_20">
      <!-- 0 -->
      <g transform="translate(44.22025 355.809279)scale(0.12 -0.12)">
       <use xlink:href="#DejaVuSans-30"/>
      </g>
     </g>
    </g>
    <g id="ytick_7">
     <g id="line2d_38">
      <path clip-path="url(#pdad2385dd3)" d="M 55.35525 306.709804 
L 516.15525 306.709804 
" style="fill:none;stroke:#cbcbcb;"/>
     </g>
     <g id="line2d_39"/>
     <g id="text_21">
      <!-- 5 -->
      <g transform="translate(44.22025 311.268867)scale(0.12 -0.12)">
       <use xlink:href="#DejaVuSans-35"/>
      </g>
     </g>
    </g>
    <g id="ytick_8">
     <g id="line2d_40">
      <path clip-path="url(#pdad2385dd3)" d="M 55.35525 262.169393 
L 516.15525 262.169393 
" style="fill:none;stroke:#cbcbcb;"/>
     </g>
     <g id="line2d_41"/>
     <g id="text_22">
      <!-- 10 -->
      <g transform="translate(36.58525 266.728455)scale(0.12 -0.12)">
       <use xlink:href="#DejaVuSans-31"/>
       <use x="63.623047" xlink:href="#DejaVuSans-30"/>
      </g>
     </g>
    </g>
    <g id="ytick_9">
     <g id="line2d_42">
      <path clip-path="url(#pdad2385dd3)" d="M 55.35525 217.628981 
L 516.15525 217.628981 
" style="fill:none;stroke:#cbcbcb;"/>
     </g>
     <g id="line2d_43"/>
     <g id="text_23">
      <!-- 15 -->
      <g transform="translate(36.58525 222.188044)scale(0.12 -0.12)">
       <use xlink:href="#DejaVuSans-31"/>
       <use x="63.623047" xlink:href="#DejaVuSans-35"/>
      </g>
     </g>
    </g>
    <g id="text_24">
     <!-- Torques (kNm) -->
     <defs>
      <path d="M 14.796875 27.296875 
Q 14.796875 17.390625 18.875 11.75 
Q 22.953125 6.109375 30.078125 6.109375 
Q 37.203125 6.109375 41.296875 11.75 
Q 45.40625 17.390625 45.40625 27.296875 
Q 45.40625 37.203125 41.296875 42.84375 
Q 37.203125 48.484375 30.078125 48.484375 
Q 22.953125 48.484375 18.875 42.84375 
Q 14.796875 37.203125 14.796875 27.296875 
z
M 45.40625 8.203125 
Q 42.578125 3.328125 38.25 0.953125 
Q 33.9375 -1.421875 27.875 -1.421875 
Q 17.96875 -1.421875 11.734375 6.484375 
Q 5.515625 14.40625 5.515625 27.296875 
Q 5.515625 40.1875 11.734375 48.09375 
Q 17.96875 56 27.875 56 
Q 33.9375 56 38.25 53.625 
Q 42.578125 51.265625 45.40625 46.390625 
L 45.40625 54.6875 
L 54.390625 54.6875 
L 54.390625 -20.796875 
L 45.40625 -20.796875 
z
" id="DejaVuSans-71"/>
      <path d="M 8.5 21.578125 
L 8.5 54.6875 
L 17.484375 54.6875 
L 17.484375 21.921875 
Q 17.484375 14.15625 20.5 10.265625 
Q 23.53125 6.390625 29.59375 6.390625 
Q 36.859375 6.390625 41.078125 11.03125 
Q 45.3125 15.671875 45.3125 23.6875 
L 45.3125 54.6875 
L 54.296875 54.6875 
L 54.296875 0 
L 45.3125 0 
L 45.3125 8.40625 
Q 42.046875 3.421875 37.71875 1 
Q 33.40625 -1.421875 27.6875 -1.421875 
Q 18.265625 -1.421875 13.375 4.4375 
Q 8.5 10.296875 8.5 21.578125 
z
M 31.109375 56 
z
" id="DejaVuSans-75"/>
      <path d="M 9.078125 75.984375 
L 18.109375 75.984375 
L 18.109375 31.109375 
L 44.921875 54.6875 
L 56.390625 54.6875 
L 27.390625 29.109375 
L 57.625 0 
L 45.90625 0 
L 18.109375 26.703125 
L 18.109375 0 
L 9.078125 0 
z
" id="DejaVuSans-6b"/>
      <path d="M 9.8125 72.90625 
L 23.09375 72.90625 
L 55.421875 11.921875 
L 55.421875 72.90625 
L 64.984375 72.90625 
L 64.984375 0 
L 51.703125 0 
L 19.390625 60.984375 
L 19.390625 0 
L 9.8125 0 
z
" id="DejaVuSans-4e"/>
     </defs>
     <g transform="translate(29.5905 344.47858)rotate(-90)scale(0.144 -0.144)">
      <use xlink:href="#DejaVuSans-54"/>
      <use x="60.818359" xlink:href="#DejaVuSans-6f"/>
      <use x="122" xlink:href="#DejaVuSans-72"/>
      <use x="163.097656" xlink:href="#DejaVuSans-71"/>
      <use x="226.574219" xlink:href="#DejaVuSans-75"/>
      <use x="289.953125" xlink:href="#DejaVuSans-65"/>
      <use x="351.476562" xlink:href="#DejaVuSans-73"/>
      <use x="403.576172" xlink:href="#DejaVuSans-20"/>
      <use x="435.363281" xlink:href="#DejaVuSans-28"/>
      <use x="474.376953" xlink:href="#DejaVuSans-6b"/>
      <use x="532.287109" xlink:href="#DejaVuSans-4e"/>
      <use x="607.091797" xlink:href="#DejaVuSans-6d"/>
      <use x="704.503906" xlink:href="#DejaVuSans-29"/>
     </g>
    </g>
   </g>
   <g id="line2d_44">
    <path clip-path="url(#pdad2385dd3)" d="M 76.300705 351.250216 
L 118.233546 351.250216 
L 118.652875 235.044085 
L 119.072203 240.658531 
L 119.91086 228.368914 
L 120.330189 229.465422 
L 120.749517 241.012775 
L 121.168845 230.886382 
L 121.588174 242.645779 
L 122.426831 237.89412 
L 122.846159 241.735798 
L 123.265488 227.236752 
L 123.684816 230.744751 
L 124.104144 238.596917 
L 124.523473 233.024036 
L 124.942801 239.315472 
L 125.36213 239.089778 
L 125.781458 231.765302 
L 126.200786 241.191916 
L 126.620115 241.046509 
L 127.039443 231.889716 
L 127.458772 232.208589 
L 127.8781 236.937763 
L 128.297429 248.79821 
L 128.716757 238.358718 
L 129.136085 235.479929 
L 129.555414 235.314942 
L 129.974742 230.919373 
L 130.394071 234.691305 
L 130.813399 240.850187 
L 131.232727 239.946048 
L 131.652056 248.274361 
L 132.071384 238.489791 
L 132.490713 237.947889 
L 132.910041 245.127256 
L 133.32937 235.920502 
L 133.748698 234.806208 
L 134.168026 231.771664 
L 134.587355 226.846553 
L 135.006683 242.803189 
L 135.426012 245.607097 
L 135.84534 243.255399 
L 136.264669 235.299838 
L 136.683997 237.659208 
L 137.103325 236.791098 
L 137.522654 233.271449 
L 137.941982 225.313786 
L 138.361311 241.24596 
L 138.780639 230.952042 
L 139.199967 242.731295 
L 139.619296 235.061147 
L 140.038624 231.898805 
L 140.457953 225.734214 
L 140.877281 246.255308 
L 141.29661 247.046111 
L 141.715938 236.722084 
L 142.135266 240.170671 
L 142.554595 240.199988 
L 142.973923 229.944305 
L 143.393252 234.92002 
L 144.231908 240.057493 
L 144.651237 234.432295 
L 145.070565 239.927599 
L 145.489894 235.794243 
L 145.909222 247.132386 
L 146.328551 242.3656 
L 146.747879 242.844714 
L 147.167207 225.566608 
L 147.586536 235.616298 
L 148.005864 236.383517 
L 148.425193 240.364396 
L 148.844521 229.210015 
L 149.26385 238.30194 
L 149.683178 242.913933 
L 150.102506 238.986746 
L 150.521835 232.511336 
L 150.941163 239.857485 
L 151.360492 237.990173 
L 151.77982 234.783218 
L 152.199148 245.384045 
L 152.618477 231.975108 
L 153.037805 238.237332 
L 153.457134 236.351044 
L 153.876462 241.254228 
L 154.295791 237.56841 
L 154.715119 238.491899 
L 155.134447 224.267319 
L 155.553776 239.945031 
L 155.973104 235.14777 
L 156.392433 228.508125 
L 156.811761 239.864644 
L 157.231089 245.88053 
L 157.650418 239.021394 
L 158.489075 246.94649 
L 158.908403 246.487553 
L 159.327732 242.662017 
L 159.74706 236.93494 
L 160.166388 234.559373 
L 160.585717 246.850854 
L 161.005045 233.664826 
L 161.424374 237.887691 
L 161.843702 230.018143 
L 162.263031 243.606164 
L 162.682359 245.915674 
L 163.101687 239.389311 
L 163.521016 237.273528 
L 163.940344 231.02217 
L 164.359673 244.132415 
L 164.779001 234.095579 
L 165.198329 245.107034 
L 166.036986 235.958881 
L 166.456315 239.592504 
L 166.875643 244.946685 
L 167.294972 237.073391 
L 167.7143 232.143068 
L 168.133628 241.364908 
L 168.552957 242.062875 
L 168.972285 239.368325 
L 169.391614 233.098984 
L 170.23027 241.489812 
L 170.649599 237.505455 
L 171.068927 224.875294 
L 171.488256 244.810287 
L 171.907584 235.561358 
L 172.326913 247.228876 
L 172.746241 229.35118 
L 173.584898 245.363406 
L 174.004226 244.709941 
L 174.423555 244.307627 
L 174.842883 246.725103 
L 175.262212 235.288917 
L 175.68154 240.861844 
L 176.100868 241.660809 
L 176.520197 232.425059 
L 176.939525 231.240405 
L 177.358854 235.605442 
L 177.778182 246.008958 
L 178.19751 229.481691 
L 178.616839 242.621854 
L 179.036167 247.483674 
L 179.455496 236.8019 
L 179.874824 234.240424 
L 180.294153 250.138572 
L 180.713481 241.746707 
L 181.132809 244.514258 
L 181.552138 232.429937 
L 181.971466 241.167135 
L 182.390795 233.979844 
L 182.810123 237.207487 
L 183.229451 237.655248 
L 184.068108 228.34619 
L 184.487437 234.371914 
L 184.906765 242.224573 
L 185.326094 240.54658 
L 185.745422 240.80346 
L 186.16475 236.564961 
L 186.584079 238.049765 
L 187.003407 232.497702 
L 187.422736 244.720291 
L 187.842064 251.7588 
L 188.261393 232.600233 
L 188.680721 239.586214 
L 189.100049 226.01753 
L 189.519378 246.54232 
L 189.938706 237.416239 
L 190.358035 243.362469 
L 190.777363 241.074919 
L 191.196691 246.046621 
L 191.61602 240.018141 
L 192.035348 252.974806 
L 192.454677 238.28057 
L 192.874005 237.497319 
L 193.293334 245.00008 
L 193.712662 228.212435 
L 194.13199 239.676241 
L 194.551319 229.537144 
L 194.970647 241.928269 
L 195.389976 242.506951 
L 195.809304 223.722135 
L 196.228632 249.720939 
L 196.647961 230.554098 
L 197.067289 232.987637 
L 197.486618 236.307156 
L 197.905946 237.109526 
L 198.325275 241.434211 
L 198.744603 242.883967 
L 199.163931 233.255266 
L 199.58326 231.014279 
L 200.002588 233.530406 
L 200.421917 239.268261 
L 200.841245 239.585537 
L 201.260574 232.553145 
L 201.679902 243.039731 
L 202.518559 234.685406 
L 202.937887 230.1924 
L 203.357216 232.477512 
L 203.776544 234.048919 
L 204.195872 234.233799 
L 204.615201 235.86897 
L 205.034529 232.998801 
L 205.453858 228.915203 
L 205.873186 240.173473 
L 206.292515 244.41362 
L 206.711843 233.242721 
L 207.131171 238.916447 
L 207.5505 241.643512 
L 207.969828 237.229444 
L 208.389157 229.883598 
L 208.808485 236.406746 
L 209.227813 232.762134 
L 209.647142 236.520126 
L 210.06647 233.433725 
L 210.485799 236.871277 
L 210.905127 238.322815 
L 211.324456 244.661262 
L 211.743784 237.516038 
L 212.163112 241.333109 
L 212.582441 248.526297 
L 213.001769 236.388889 
L 213.421098 242.514279 
L 213.840426 237.561584 
L 214.259755 238.381417 
L 214.679083 242.554621 
L 215.098411 233.001924 
L 215.51774 258.306958 
L 215.937068 247.084507 
L 216.356397 244.677342 
L 216.775725 241.116773 
L 217.195053 243.385853 
L 217.614382 226.893189 
L 218.03371 238.303565 
L 218.453039 233.11405 
L 218.872367 242.681383 
L 219.291696 243.865455 
L 219.711024 239.78937 
L 220.130352 238.713684 
L 220.549681 241.589205 
L 220.969009 248.147169 
L 221.388338 236.454842 
L 221.807666 236.77222 
L 222.226994 245.689116 
L 222.646323 223.957839 
L 223.065651 236.725644 
L 223.48498 237.611696 
L 223.904308 239.893666 
L 224.323637 243.976273 
L 225.162293 232.488575 
L 225.581622 243.13685 
L 226.00095 243.318555 
L 226.420279 232.391528 
L 226.839607 225.683104 
L 227.258936 238.194707 
L 227.678264 233.966623 
L 228.097592 240.242581 
L 228.516921 236.474241 
L 228.936249 251.675389 
L 229.355578 246.868335 
L 230.194234 241.654448 
L 230.613563 237.163821 
L 231.032891 239.939257 
L 231.45222 243.474194 
L 231.871548 232.890978 
L 232.290877 244.111805 
L 232.710205 240.015466 
L 233.129533 238.586764 
L 233.548862 242.435287 
L 233.96819 242.775085 
L 234.387519 241.4404 
L 234.806847 236.243933 
L 235.226175 235.749423 
L 235.645504 244.323403 
L 236.064832 223.320194 
L 236.484161 240.451289 
L 236.903489 242.602131 
L 237.322818 242.636695 
L 237.742146 235.904256 
L 238.161474 239.853741 
L 238.580803 230.219069 
L 239.000131 238.109021 
L 239.41946 228.707328 
L 239.838788 241.077548 
L 240.258117 242.096302 
L 240.677445 232.709605 
L 241.516102 243.794799 
L 241.93543 238.159223 
L 242.354759 227.451921 
L 242.774087 244.621677 
L 243.193415 240.571328 
L 243.612744 242.739742 
L 244.032072 232.971907 
L 244.451401 227.40146 
L 245.290058 254.51874 
L 245.709386 236.313742 
L 246.128714 239.534771 
L 246.548043 230.170832 
L 246.967371 244.973565 
L 247.3867 228.50485 
L 247.806028 243.078033 
L 248.225356 236.343322 
L 248.644685 238.855275 
L 249.064013 245.615157 
L 249.483342 231.231891 
L 249.90267 236.091759 
L 250.321999 224.42926 
L 250.741327 238.575051 
L 251.579984 244.148211 
L 251.999312 231.698477 
L 252.418641 245.590905 
L 253.257298 231.015456 
L 253.676626 233.544874 
L 254.095954 226.144204 
L 254.515283 245.437365 
L 254.934611 236.865384 
L 255.35394 241.013186 
L 255.773268 247.802334 
L 256.192596 245.024824 
L 256.611925 243.317091 
L 257.031253 235.764937 
L 257.450582 236.765535 
L 257.86991 236.868875 
L 258.289239 235.054839 
L 258.708567 234.068549 
L 259.127895 235.971705 
L 259.547224 226.887161 
L 259.966552 237.724172 
L 260.385881 243.731208 
L 260.805209 242.810288 
L 261.224537 244.346955 
L 261.643866 228.020621 
L 262.063194 240.32654 
L 262.482523 241.662853 
L 262.901851 230.219125 
L 263.32118 243.522629 
L 263.740508 242.133728 
L 264.159836 234.16609 
L 264.579165 237.621378 
L 264.998493 244.460081 
L 265.417822 233.558652 
L 265.83715 245.383082 
L 266.256479 245.24994 
L 266.675807 240.89429 
L 267.095135 241.996503 
L 267.514464 244.401014 
L 267.933792 236.687227 
L 268.353121 235.712813 
L 268.772449 241.879032 
L 269.191777 240.867381 
L 269.611106 230.154597 
L 270.030434 243.919935 
L 270.449763 232.429078 
L 270.869091 240.770209 
L 271.28842 223.466944 
L 272.127076 240.00598 
L 272.546405 245.128191 
L 272.965733 244.022354 
L 273.385062 245.018299 
L 273.80439 243.058293 
L 274.223718 224.098658 
L 274.643047 244.74107 
L 275.062375 233.408993 
L 275.481704 241.014918 
L 275.901032 230.193594 
L 276.320361 241.116993 
L 276.739689 233.624677 
L 277.159017 244.224835 
L 277.578346 247.925178 
L 277.997674 215.077686 
L 278.417003 238.403575 
L 278.836331 229.806158 
L 279.25566 239.129035 
L 279.674988 236.215018 
L 280.094316 240.224149 
L 280.513645 236.702804 
L 280.932973 236.269342 
L 281.352302 248.754615 
L 281.77163 232.699409 
L 282.190958 236.79906 
L 282.610287 235.249159 
L 283.029615 240.813164 
L 283.448944 250.36486 
L 283.868272 238.877316 
L 284.287601 245.466655 
L 284.706929 231.706106 
L 285.126257 243.316754 
L 285.545586 230.97532 
L 285.964914 239.640865 
L 286.384243 237.515373 
L 286.803571 237.044494 
L 287.222899 240.478781 
L 287.642228 235.540604 
L 288.061556 236.235213 
L 288.480885 232.3657 
L 288.900213 233.785998 
L 289.73887 248.458991 
L 290.158198 221.871003 
L 290.577527 237.959805 
L 290.996855 239.547482 
L 291.416184 235.464625 
L 291.835512 236.38862 
L 292.25484 241.272788 
L 292.674169 239.825328 
L 293.093497 234.871895 
L 293.512826 237.723847 
L 293.932154 232.396278 
L 294.351483 244.054803 
L 294.770811 247.057653 
L 295.190139 239.453434 
L 295.609468 243.157999 
L 296.028796 236.036858 
L 296.448125 233.253286 
L 296.867453 235.242803 
L 297.286782 238.045756 
L 297.70611 238.511913 
L 298.125438 237.407849 
L 298.544767 239.517172 
L 298.964095 243.921641 
L 299.383424 242.434622 
L 299.802752 236.214156 
L 300.22208 244.181652 
L 300.641409 234.28759 
L 301.060737 233.699955 
L 301.480066 233.619751 
L 301.899394 244.223869 
L 302.318723 229.472117 
L 302.738051 233.591596 
L 303.157379 246.021101 
L 303.576708 229.624762 
L 303.996036 230.858224 
L 304.415365 235.936133 
L 304.834693 237.143139 
L 305.254021 240.926286 
L 305.67335 235.802607 
L 306.092678 236.028049 
L 306.512007 241.055109 
L 306.931335 241.707497 
L 307.350664 238.338427 
L 307.769992 240.975926 
L 308.18932 241.337274 
L 308.608649 236.16861 
L 309.027977 234.24291 
L 309.447306 239.999402 
L 309.866634 237.447082 
L 310.285963 236.629397 
L 310.705291 244.160689 
L 311.124619 243.024835 
L 311.543948 247.770256 
L 311.963276 239.458639 
L 312.382605 242.308923 
L 312.801933 237.195146 
L 313.221261 230.108621 
L 313.64059 235.934891 
L 314.059918 231.272149 
L 314.479247 240.61705 
L 314.898575 240.863516 
L 315.317904 246.411322 
L 315.737232 243.989372 
L 316.15656 237.941681 
L 316.575889 241.566806 
L 316.995217 226.372139 
L 317.414546 230.791037 
L 317.833874 233.049432 
L 318.253202 239.516421 
L 318.672531 235.192091 
L 319.091859 232.878179 
L 319.511188 239.70268 
L 319.930516 237.908881 
L 320.769173 247.904798 
L 321.188501 245.337564 
L 321.60783 229.341984 
L 322.027158 238.697947 
L 322.446487 243.251931 
L 322.865815 232.088293 
L 323.285144 242.320029 
L 323.704472 247.006225 
L 324.1238 228.896054 
L 324.543129 244.559536 
L 324.962457 248.395267 
L 325.381786 245.519583 
L 325.801114 235.617239 
L 326.220442 233.967623 
L 326.639771 231.236105 
L 327.059099 234.832554 
L 327.478428 241.70553 
L 327.897756 236.747115 
L 328.317085 243.221596 
L 328.736413 237.172371 
L 329.155741 243.726806 
L 329.57507 230.288848 
L 329.994398 230.908759 
L 330.413727 232.214637 
L 330.833055 239.612184 
L 331.252383 237.947889 
L 331.671712 234.118624 
L 332.09104 242.882627 
L 332.510369 238.0814 
L 332.929697 243.249366 
L 333.349026 239.791055 
L 333.768354 241.065689 
L 334.187682 233.227685 
L 334.607011 231.265219 
L 335.026339 240.677642 
L 335.445668 239.814314 
L 335.864996 246.503515 
L 336.284325 239.761948 
L 336.703653 237.98084 
L 337.122981 229.946589 
L 337.54231 237.134308 
L 337.961638 240.135472 
L 338.380967 245.069666 
L 338.800295 231.845074 
L 339.219623 244.802587 
L 339.638952 232.916448 
L 340.05828 240.954868 
L 340.477609 243.913474 
L 341.316266 233.192021 
L 341.735594 238.090369 
L 342.154922 229.332573 
L 342.574251 231.686894 
L 342.993579 226.935259 
L 343.832236 244.362871 
L 344.251564 247.062886 
L 344.670893 239.840087 
L 345.090221 235.618805 
L 345.50955 236.443733 
L 345.928878 228.807766 
L 346.348207 240.080939 
L 346.767535 232.063505 
L 347.186863 252.809789 
L 347.606192 234.25781 
L 348.02552 232.507294 
L 348.444849 240.2417 
L 349.283506 226.142168 
L 349.702834 241.027194 
L 350.122162 238.680951 
L 350.541491 228.823389 
L 350.960819 246.313479 
L 351.380148 231.835654 
L 351.799476 239.855527 
L 352.218804 241.649276 
L 352.638133 228.524804 
L 353.057461 241.293992 
L 353.47679 237.784413 
L 353.896118 237.432526 
L 354.315447 229.558733 
L 354.734775 231.49781 
L 355.154103 248.867425 
L 355.573432 237.151686 
L 355.99276 239.596296 
L 356.412089 226.081372 
L 356.831417 237.967103 
L 357.250745 235.475484 
L 357.670074 226.536912 
L 358.089402 245.356317 
L 358.508731 239.53075 
L 358.928059 239.821777 
L 359.347388 234.54844 
L 359.766716 233.366263 
L 360.186044 243.461181 
L 360.605373 237.185987 
L 361.024701 237.316245 
L 361.44403 234.25151 
L 361.863358 243.286394 
L 362.282687 241.406695 
L 362.702015 222.213052 
L 363.121343 242.185234 
L 363.540672 246.498442 
L 363.96 242.990602 
L 364.379329 232.451825 
L 365.217985 238.037742 
L 365.637314 230.328643 
L 367.314628 240.005164 
L 367.733956 229.542458 
L 368.153284 240.11409 
L 368.572613 231.24576 
L 368.991941 243.605963 
L 369.41127 233.687766 
L 369.830598 238.593326 
L 370.249926 231.3391 
L 370.669255 236.184882 
L 371.088583 237.710478 
L 371.507912 227.025686 
L 371.92724 237.378117 
L 372.346569 244.470242 
L 372.765897 233.135016 
L 373.185225 232.094936 
L 373.604554 232.807739 
L 374.023882 236.836739 
L 374.443211 242.420985 
L 374.862539 243.191088 
L 375.281868 241.968063 
L 376.120524 243.097343 
L 376.539853 247.20454 
L 376.959181 229.922559 
L 377.37851 240.6752 
L 377.797838 247.907165 
L 378.217166 229.954433 
L 378.636495 233.34196 
L 379.055823 233.274214 
L 379.475152 235.561363 
L 379.89448 236.646295 
L 380.313809 235.867762 
L 380.733137 239.659482 
L 381.152465 239.018613 
L 381.571794 235.961577 
L 381.991122 240.644362 
L 382.829779 231.637242 
L 383.249107 238.020207 
L 383.668436 251.522057 
L 384.087764 232.519628 
L 384.926421 232.156347 
L 385.34575 243.572579 
L 385.765078 239.019098 
L 386.184406 238.684344 
L 386.603735 244.362938 
L 387.023063 238.77064 
L 387.442392 229.961123 
L 387.86172 237.198699 
L 388.281049 242.493347 
L 388.700377 241.428238 
L 389.119705 238.78949 
L 389.539034 231.611869 
L 389.958362 243.225099 
L 390.377691 235.919507 
L 390.797019 235.63972 
L 391.216347 240.152818 
L 391.635676 246.055793 
L 392.055004 231.97543 
L 392.474333 247.311335 
L 392.893661 239.832281 
L 393.31299 225.873651 
L 393.732318 236.419839 
L 394.151646 239.305981 
L 394.570975 232.743778 
L 394.990303 235.353128 
L 395.409632 231.768027 
L 395.82896 238.044284 
L 396.248288 230.373429 
L 396.667617 230.568947 
L 397.086945 238.473154 
L 397.506274 240.1893 
L 397.925602 242.91907 
L 398.344931 230.240728 
L 398.764259 231.265122 
L 399.183587 241.521089 
L 399.602916 235.722525 
L 400.022244 242.41515 
L 400.441573 241.404194 
L 400.860901 242.84195 
L 401.28023 245.873321 
L 401.699558 240.974284 
L 402.118886 241.396083 
L 402.538215 240.523108 
L 402.957543 232.955221 
L 403.376872 254.678235 
L 403.7962 232.435562 
L 404.215528 243.378798 
L 404.634857 226.863078 
L 405.054185 238.205709 
L 405.473514 240.242403 
L 405.892842 231.531312 
L 406.731499 244.976903 
L 407.150827 245.493951 
L 407.570156 237.272912 
L 407.989484 240.507313 
L 408.408813 239.00833 
L 408.828141 238.487829 
L 409.247469 243.52076 
L 409.666798 238.763594 
L 410.086126 251.004265 
L 410.505455 233.425894 
L 410.924783 241.110223 
L 411.344112 244.238393 
L 411.76344 229.492026 
L 412.182768 230.239674 
L 412.602097 247.889346 
L 413.021425 233.812446 
L 413.440754 244.400866 
L 413.860082 225.057502 
L 414.279411 245.459655 
L 414.698739 236.160806 
L 415.118067 241.556136 
L 415.537396 243.874586 
L 415.956724 241.744821 
L 416.376053 230.195322 
L 416.795381 244.291386 
L 417.214709 247.027222 
L 417.634038 234.586123 
L 418.053366 239.31848 
L 418.472695 251.797406 
L 418.892023 229.967152 
L 419.311352 242.938391 
L 419.73068 242.842862 
L 420.150008 235.793603 
L 420.569337 238.789173 
L 420.988665 244.567121 
L 421.827322 237.920692 
L 422.24665 230.066849 
L 422.665979 236.390436 
L 423.085307 235.157614 
L 423.504636 248.48559 
L 423.923964 235.904904 
L 424.343293 236.268155 
L 424.762621 232.965293 
L 425.181949 239.126615 
L 425.601278 236.345817 
L 426.020606 237.326088 
L 426.859263 233.007864 
L 427.278592 236.999275 
L 428.117248 242.11359 
L 428.536577 237.83938 
L 428.955905 239.929397 
L 429.375234 242.805729 
L 429.794562 235.777803 
L 430.21389 239.178673 
L 430.633219 241.635575 
L 431.052547 239.246665 
L 431.471876 246.415694 
L 431.891204 236.143597 
L 432.310533 236.223166 
L 432.729861 235.227983 
L 433.149189 228.669505 
L 433.568518 234.847334 
L 433.987846 231.774618 
L 434.407175 231.183056 
L 434.826503 238.915791 
L 435.245831 238.159798 
L 435.66516 235.814929 
L 436.084488 235.531426 
L 436.503817 246.595643 
L 436.923145 239.622487 
L 437.342474 244.890307 
L 437.761802 227.256955 
L 438.18113 235.477756 
L 438.600459 248.117685 
L 439.019787 240.288404 
L 439.439116 239.668636 
L 439.858444 232.427466 
L 440.277773 242.054717 
L 440.697101 237.344954 
L 441.116429 240.633896 
L 441.535758 238.433911 
L 441.955086 243.85413 
L 442.374415 232.916294 
L 442.793743 251.448981 
L 443.213071 245.607829 
L 443.6324 235.709315 
L 444.051728 219.220057 
L 444.890385 241.872152 
L 445.309714 237.810612 
L 445.729042 245.490482 
L 446.14837 236.473049 
L 446.567699 230.84946 
L 446.987027 242.083839 
L 447.406356 239.359069 
L 447.825684 229.922798 
L 448.245012 239.692007 
L 449.083669 249.685043 
L 449.502998 243.326358 
L 449.922326 244.818152 
L 450.341655 237.815248 
L 450.760983 240.401307 
L 451.180311 238.78744 
L 452.018968 243.969638 
L 452.438297 234.958861 
L 452.857625 237.47009 
L 453.276954 241.17591 
L 453.696282 228.450559 
L 454.11561 236.467338 
L 454.534939 240.676671 
L 454.954267 237.824827 
L 455.373596 241.321374 
L 455.792924 228.652367 
L 456.212252 235.711876 
L 456.631581 233.676835 
L 457.050909 242.791627 
L 457.470238 236.495112 
L 457.889566 238.173216 
L 458.308895 247.502533 
L 458.728223 242.37897 
L 459.147551 233.302168 
L 459.56688 236.163719 
L 459.986208 235.679219 
L 460.405537 233.338804 
L 461.244193 246.840264 
L 461.663522 241.494136 
L 462.08285 239.184254 
L 462.502179 247.9701 
L 462.921507 236.932553 
L 463.340836 243.591278 
L 463.760164 244.335343 
L 464.179492 242.712206 
L 464.598821 226.718083 
L 465.018149 236.306619 
L 465.437478 236.58668 
L 465.856806 242.858968 
L 466.276135 240.430695 
L 466.695463 242.334261 
L 467.114791 226.886288 
L 467.53412 255.162547 
L 467.953448 239.248068 
L 468.372777 244.457651 
L 468.792105 244.728337 
L 469.211433 238.451088 
L 469.630762 238.274479 
L 470.05009 237.209277 
L 470.469419 237.08081 
L 470.888747 227.402214 
L 471.727404 244.763502 
L 472.146732 239.208389 
L 472.566061 240.869501 
L 472.985389 245.979794 
L 473.404718 248.74107 
L 473.824046 238.232269 
L 474.243374 238.134639 
L 474.662703 239.325609 
L 475.082031 244.598723 
L 475.50136 242.038805 
L 475.920688 231.359735 
L 476.340017 237.497756 
L 476.759345 238.608644 
L 477.178673 236.904909 
L 477.598002 241.889138 
L 478.01733 226.984636 
L 478.436659 239.528749 
L 478.855987 246.919628 
L 479.275316 244.754098 
L 479.694644 236.493694 
L 480.113972 232.539497 
L 480.533301 234.194095 
L 480.952629 238.112911 
L 481.371958 236.459015 
L 481.791286 236.393974 
L 482.210614 236.921971 
L 482.629943 232.238051 
L 483.049271 233.152759 
L 483.4686 239.619755 
L 483.887928 229.66129 
L 484.307257 241.02887 
L 484.726585 246.949377 
L 485.145913 239.019742 
L 485.565242 236.560355 
L 485.98457 247.218309 
L 486.403899 226.550718 
L 486.823227 237.277785 
L 487.242555 238.312479 
L 487.661884 235.582577 
L 488.081212 240.35996 
L 488.500541 234.917207 
L 488.919869 243.932948 
L 489.339198 230.89187 
L 489.758526 230.570235 
L 490.177854 227.876307 
L 490.597183 236.544751 
L 491.016511 232.872266 
L 491.43584 234.369844 
L 491.855168 230.972416 
L 492.274497 235.908599 
L 492.693825 237.1854 
L 493.113153 235.524602 
L 493.532482 244.310135 
L 493.95181 247.338587 
L 494.371139 240.709335 
L 494.790467 241.799936 
L 495.209795 239.985016 
L 495.209795 239.985016 
" style="fill:none;stroke:#fc4f30;stroke-width:4;"/>
   </g>
   <g id="line2d_45">
    <path clip-path="url(#pdad2385dd3)" d="M 76.300705 366.813223 
L 76.720033 356.742179 
L 77.139361 356.582739 
L 77.978018 355.275409 
L 78.816675 354.327446 
L 80.07466 353.319903 
L 81.332646 352.647897 
L 83.009959 352.08024 
L 85.106601 351.682791 
L 88.0419 351.423093 
L 92.654513 351.290538 
L 104.815037 351.251026 
L 139.199967 351.250216 
L 140.038624 321.362165 
L 140.877281 300.426351 
L 141.715938 284.78928 
L 142.554595 273.100096 
L 143.393252 264.359417 
L 144.231908 257.822033 
L 145.070565 252.931731 
L 145.909222 249.273075 
L 146.747879 246.535616 
L 147.586536 244.48727 
L 148.425193 242.954487 
L 149.26385 241.807459 
L 150.102506 240.949081 
L 151.360492 240.048945 
L 152.618477 239.466186 
L 154.295791 238.995431 
L 156.392433 238.686483 
L 159.327732 238.501387 
L 165.198329 238.409936 
L 192.874005 238.396096 
L 244.870729 238.493042 
L 247.3867 238.603357 
L 254.095954 238.570148 
L 274.643047 238.537967 
L 495.209795 238.537872 
L 495.209795 238.537872 
" style="fill:none;stroke:#5cb85c;stroke-width:4;"/>
   </g>
   <g id="patch_8">
    <path d="M 55.35525 374.4 
L 55.35525 207.490909 
" style="fill:none;stroke:#ffffff;stroke-linecap:square;stroke-linejoin:miter;stroke-width:3;"/>
   </g>
   <g id="patch_9">
    <path d="M 516.15525 374.4 
L 516.15525 207.490909 
" style="fill:none;stroke:#ffffff;stroke-linecap:square;stroke-linejoin:miter;stroke-width:3;"/>
   </g>
   <g id="patch_10">
    <path d="M 55.35525 374.4 
L 516.15525 374.4 
" style="fill:none;stroke:#ffffff;stroke-linecap:square;stroke-linejoin:miter;stroke-width:3;"/>
   </g>
   <g id="patch_11">
    <path d="M 55.35525 207.490909 
L 516.15525 207.490909 
" style="fill:none;stroke:#ffffff;stroke-linecap:square;stroke-linejoin:miter;stroke-width:3;"/>
   </g>
   <g id="legend_1">
    <g id="patch_12">
     <path d="M 63.75525 252.318409 
L 114.99525 252.318409 
Q 117.39525 252.318409 117.39525 249.918409 
L 117.39525 215.890909 
Q 117.39525 213.490909 114.99525 213.490909 
L 63.75525 213.490909 
Q 61.35525 213.490909 61.35525 215.890909 
L 61.35525 249.918409 
Q 61.35525 252.318409 63.75525 252.318409 
z
" style="fill:#ffffff;opacity:0.8;stroke:#cccccc;stroke-linejoin:miter;stroke-width:0.5;"/>
    </g>
    <g id="line2d_46">
     <path d="M 66.15525 223.209034 
L 90.15525 223.209034 
" style="fill:none;stroke:#fc4f30;stroke-width:4;"/>
    </g>
    <g id="line2d_47"/>
    <g id="text_25">
     <!-- $\sf \tau_t$ -->
     <defs>
      <path d="M 36.234375 9.96875 
Q 37.984375 7.625 43.265625 7.625 
L 47.609375 7.625 
L 47.609375 0 
L 42.1875 0 
Q 33.40625 0 29.390625 4.6875 
Q 25.390625 9.46875 25.390625 19.828125 
L 25.390625 45.703125 
L 4.890625 45.703125 
L 4.890625 54.6875 
L 55.328125 54.6875 
L 55.328125 45.703125 
L 34.578125 45.703125 
L 34.578125 19.28125 
Q 34.578125 12.203125 36.234375 9.96875 
z
" id="DejaVuSans-3c4"/>
     </defs>
     <g transform="translate(99.75525 227.409034)scale(0.12 -0.12)">
      <use transform="translate(0 0.3125)" xlink:href="#DejaVuSans-3c4"/>
      <use transform="translate(61.162109 -16.09375)scale(0.7)" xlink:href="#DejaVuSans-74"/>
     </g>
    </g>
    <g id="line2d_48">
     <path d="M 66.15525 240.822784 
L 90.15525 240.822784 
" style="fill:none;stroke:#5cb85c;stroke-width:4;"/>
    </g>
    <g id="line2d_49"/>
    <g id="text_26">
     <!-- $\sf \tau_e$ -->
     <g transform="translate(99.75525 245.022784)scale(0.12 -0.12)">
      <use transform="translate(0 0.3125)" xlink:href="#DejaVuSans-3c4"/>
      <use transform="translate(61.162109 -16.09375)scale(0.7)" xlink:href="#DejaVuSans-65"/>
     </g>
    </g>
   </g>
  </g>
 </g>
 <defs>
  <clipPath id="pa2545db511">
   <rect height="166.909091" width="460.8" x="55.35525" y="7.2"/>
  </clipPath>
  <clipPath id="pdad2385dd3">
   <rect height="166.909091" width="460.8" x="55.35525" y="207.490909"/>
  </clipPath>
 </defs>
</svg>
