<?xml version="1.0" encoding="utf-8" standalone="no"?>
<!DOCTYPE svg PUBLIC "-//W3C//DTD SVG 1.1//EN"
  "http://www.w3.org/Graphics/SVG/1.1/DTD/svg11.dtd">
<!-- Created with matplotlib (http://matplotlib.org/) -->
<svg height="544pt" version="1.1" viewBox="0 0 600 544" width="600pt" xmlns="http://www.w3.org/2000/svg" xmlns:xlink="http://www.w3.org/1999/xlink">
 <defs>
  <style type="text/css">
*{stroke-linecap:butt;stroke-linejoin:round;stroke-miterlimit:100000;}
  </style>
 </defs>
 <g id="figure_1">
  <g id="patch_1">
   <path d="M 0 544.357125 
L 600.145875 544.357125 
L 600.145875 0 
L 0 0 
z
" style="fill:none;opacity:0;"/>
  </g>
  <g id="axes_1">
   <g id="patch_2">
    <path d="M 66.910875 235.55233 
L 585.310875 235.55233 
L 585.310875 13.006875 
L 66.910875 13.006875 
z
" style="fill:#ffffff;"/>
   </g>
   <g id="matplotlib.axis_1">
    <g id="xtick_1">
     <g id="line2d_1">
      <path clip-path="url(#p915aca6fe2)" d="M 66.910875 235.55233 
L 66.910875 13.006875 
" style="fill:none;stroke:#cbcbcb;"/>
     </g>
     <g id="line2d_2"/>
     <g id="line2d_3"/>
    </g>
    <g id="xtick_2">
     <g id="line2d_4">
      <path clip-path="url(#p915aca6fe2)" d="M 170.590875 235.55233 
L 170.590875 13.006875 
" style="fill:none;stroke:#cbcbcb;"/>
     </g>
     <g id="line2d_5"/>
     <g id="line2d_6"/>
    </g>
    <g id="xtick_3">
     <g id="line2d_7">
      <path clip-path="url(#p915aca6fe2)" d="M 274.270875 235.55233 
L 274.270875 13.006875 
" style="fill:none;stroke:#cbcbcb;"/>
     </g>
     <g id="line2d_8"/>
     <g id="line2d_9"/>
    </g>
    <g id="xtick_4">
     <g id="line2d_10">
      <path clip-path="url(#p915aca6fe2)" d="M 377.950875 235.55233 
L 377.950875 13.006875 
" style="fill:none;stroke:#cbcbcb;"/>
     </g>
     <g id="line2d_11"/>
     <g id="line2d_12"/>
    </g>
    <g id="xtick_5">
     <g id="line2d_13">
      <path clip-path="url(#p915aca6fe2)" d="M 481.630875 235.55233 
L 481.630875 13.006875 
" style="fill:none;stroke:#cbcbcb;"/>
     </g>
     <g id="line2d_14"/>
     <g id="line2d_15"/>
    </g>
    <g id="xtick_6">
     <g id="line2d_16">
      <path clip-path="url(#p915aca6fe2)" d="M 585.310875 235.55233 
L 585.310875 13.006875 
" style="fill:none;stroke:#cbcbcb;"/>
     </g>
     <g id="line2d_17"/>
     <g id="line2d_18"/>
    </g>
   </g>
   <g id="matplotlib.axis_2">
    <g id="ytick_1">
     <g id="line2d_19">
      <path clip-path="url(#p915aca6fe2)" d="M 66.910875 235.55233 
L 585.310875 235.55233 
" style="fill:none;stroke:#cbcbcb;"/>
     </g>
     <g id="line2d_20"/>
     <g id="line2d_21"/>
     <g id="text_1">
      <!-- −40 -->
      <defs>
       <path d="M 37.796875 64.3125 
L 12.890625 25.390625 
L 37.796875 25.390625 
z
M 35.203125 72.90625 
L 47.609375 72.90625 
L 47.609375 25.390625 
L 58.015625 25.390625 
L 58.015625 17.1875 
L 47.609375 17.1875 
L 47.609375 0 
L 37.796875 0 
L 37.796875 17.1875 
L 4.890625 17.1875 
L 4.890625 26.703125 
z
" id="BitstreamVeraSans-Roman-34"/>
       <path d="M 10.59375 35.5 
L 73.1875 35.5 
L 73.1875 27.203125 
L 10.59375 27.203125 
z
" id="BitstreamVeraSans-Roman-2212"/>
       <path d="M 31.78125 66.40625 
Q 24.171875 66.40625 20.328125 58.90625 
Q 16.5 51.421875 16.5 36.375 
Q 16.5 21.390625 20.328125 13.890625 
Q 24.171875 6.390625 31.78125 6.390625 
Q 39.453125 6.390625 43.28125 13.890625 
Q 47.125 21.390625 47.125 36.375 
Q 47.125 51.421875 43.28125 58.90625 
Q 39.453125 66.40625 31.78125 66.40625 
M 31.78125 74.21875 
Q 44.046875 74.21875 50.515625 64.515625 
Q 56.984375 54.828125 56.984375 36.375 
Q 56.984375 17.96875 50.515625 8.265625 
Q 44.046875 -1.421875 31.78125 -1.421875 
Q 19.53125 -1.421875 13.0625 8.265625 
Q 6.59375 17.96875 6.59375 36.375 
Q 6.59375 54.828125 13.0625 64.515625 
Q 19.53125 74.21875 31.78125 74.21875 
" id="BitstreamVeraSans-Roman-30"/>
      </defs>
      <g transform="translate(37.58525 238.863579545)scale(0.12 -0.12)">
       <use xlink:href="#BitstreamVeraSans-Roman-2212"/>
       <use x="83.7890625" xlink:href="#BitstreamVeraSans-Roman-34"/>
       <use x="147.412109375" xlink:href="#BitstreamVeraSans-Roman-30"/>
      </g>
     </g>
    </g>
    <g id="ytick_2">
     <g id="line2d_22">
      <path clip-path="url(#p915aca6fe2)" d="M 66.910875 191.043239 
L 585.310875 191.043239 
" style="fill:none;stroke:#cbcbcb;"/>
     </g>
     <g id="line2d_23"/>
     <g id="line2d_24"/>
     <g id="text_2">
      <!-- −20 -->
      <defs>
       <path d="M 19.1875 8.296875 
L 53.609375 8.296875 
L 53.609375 0 
L 7.328125 0 
L 7.328125 8.296875 
Q 12.9375 14.109375 22.625 23.890625 
Q 32.328125 33.6875 34.8125 36.53125 
Q 39.546875 41.84375 41.421875 45.53125 
Q 43.3125 49.21875 43.3125 52.78125 
Q 43.3125 58.59375 39.234375 62.25 
Q 35.15625 65.921875 28.609375 65.921875 
Q 23.96875 65.921875 18.8125 64.3125 
Q 13.671875 62.703125 7.8125 59.421875 
L 7.8125 69.390625 
Q 13.765625 71.78125 18.9375 73 
Q 24.125 74.21875 28.421875 74.21875 
Q 39.75 74.21875 46.484375 68.546875 
Q 53.21875 62.890625 53.21875 53.421875 
Q 53.21875 48.921875 51.53125 44.890625 
Q 49.859375 40.875 45.40625 35.40625 
Q 44.1875 33.984375 37.640625 27.21875 
Q 31.109375 20.453125 19.1875 8.296875 
" id="BitstreamVeraSans-Roman-32"/>
      </defs>
      <g transform="translate(37.58525 194.354488636)scale(0.12 -0.12)">
       <use xlink:href="#BitstreamVeraSans-Roman-2212"/>
       <use x="83.7890625" xlink:href="#BitstreamVeraSans-Roman-32"/>
       <use x="147.412109375" xlink:href="#BitstreamVeraSans-Roman-30"/>
      </g>
     </g>
    </g>
    <g id="ytick_3">
     <g id="line2d_25">
      <path clip-path="url(#p915aca6fe2)" d="M 66.910875 146.534148 
L 585.310875 146.534148 
" style="fill:none;stroke:#cbcbcb;"/>
     </g>
     <g id="line2d_26"/>
     <g id="line2d_27"/>
     <g id="text_3">
      <!-- 0 -->
      <g transform="translate(55.275875 149.845397727)scale(0.12 -0.12)">
       <use xlink:href="#BitstreamVeraSans-Roman-30"/>
      </g>
     </g>
    </g>
    <g id="ytick_4">
     <g id="line2d_28">
      <path clip-path="url(#p915aca6fe2)" d="M 66.910875 102.025057 
L 585.310875 102.025057 
" style="fill:none;stroke:#cbcbcb;"/>
     </g>
     <g id="line2d_29"/>
     <g id="line2d_30"/>
     <g id="text_4">
      <!-- 20 -->
      <g transform="translate(47.640875 105.336306818)scale(0.12 -0.12)">
       <use xlink:href="#BitstreamVeraSans-Roman-32"/>
       <use x="63.623046875" xlink:href="#BitstreamVeraSans-Roman-30"/>
      </g>
     </g>
    </g>
    <g id="ytick_5">
     <g id="line2d_31">
      <path clip-path="url(#p915aca6fe2)" d="M 66.910875 57.515966 
L 585.310875 57.515966 
" style="fill:none;stroke:#cbcbcb;"/>
     </g>
     <g id="line2d_32"/>
     <g id="line2d_33"/>
     <g id="text_5">
      <!-- 40 -->
      <g transform="translate(47.640875 60.8272159091)scale(0.12 -0.12)">
       <use xlink:href="#BitstreamVeraSans-Roman-34"/>
       <use x="63.623046875" xlink:href="#BitstreamVeraSans-Roman-30"/>
      </g>
     </g>
    </g>
    <g id="ytick_6">
     <g id="line2d_34">
      <path clip-path="url(#p915aca6fe2)" d="M 66.910875 13.006875 
L 585.310875 13.006875 
" style="fill:none;stroke:#cbcbcb;"/>
     </g>
     <g id="line2d_35"/>
     <g id="line2d_36"/>
     <g id="text_6">
      <!-- 60 -->
      <defs>
       <path d="M 33.015625 40.375 
Q 26.375 40.375 22.484375 35.828125 
Q 18.609375 31.296875 18.609375 23.390625 
Q 18.609375 15.53125 22.484375 10.953125 
Q 26.375 6.390625 33.015625 6.390625 
Q 39.65625 6.390625 43.53125 10.953125 
Q 47.40625 15.53125 47.40625 23.390625 
Q 47.40625 31.296875 43.53125 35.828125 
Q 39.65625 40.375 33.015625 40.375 
M 52.59375 71.296875 
L 52.59375 62.3125 
Q 48.875 64.0625 45.09375 64.984375 
Q 41.3125 65.921875 37.59375 65.921875 
Q 27.828125 65.921875 22.671875 59.328125 
Q 17.53125 52.734375 16.796875 39.40625 
Q 19.671875 43.65625 24.015625 45.921875 
Q 28.375 48.1875 33.59375 48.1875 
Q 44.578125 48.1875 50.953125 41.515625 
Q 57.328125 34.859375 57.328125 23.390625 
Q 57.328125 12.15625 50.6875 5.359375 
Q 44.046875 -1.421875 33.015625 -1.421875 
Q 20.359375 -1.421875 13.671875 8.265625 
Q 6.984375 17.96875 6.984375 36.375 
Q 6.984375 53.65625 15.1875 63.9375 
Q 23.390625 74.21875 37.203125 74.21875 
Q 40.921875 74.21875 44.703125 73.484375 
Q 48.484375 72.75 52.59375 71.296875 
" id="BitstreamVeraSans-Roman-36"/>
      </defs>
      <g transform="translate(47.640875 16.318125)scale(0.12 -0.12)">
       <use xlink:href="#BitstreamVeraSans-Roman-36"/>
       <use x="63.623046875" xlink:href="#BitstreamVeraSans-Roman-30"/>
      </g>
     </g>
    </g>
    <g id="text_7">
     <!-- Rotor voltages (V) -->
     <defs>
      <path d="M 28.609375 0 
L 0.78125 72.90625 
L 11.078125 72.90625 
L 34.1875 11.53125 
L 57.328125 72.90625 
L 67.578125 72.90625 
L 39.796875 0 
z
" id="BitstreamVeraSans-Roman-56"/>
      <path d="M 41.109375 46.296875 
Q 39.59375 47.171875 37.8125 47.578125 
Q 36.03125 48 33.890625 48 
Q 26.265625 48 22.1875 43.046875 
Q 18.109375 38.09375 18.109375 28.8125 
L 18.109375 0 
L 9.078125 0 
L 9.078125 54.6875 
L 18.109375 54.6875 
L 18.109375 46.1875 
Q 20.953125 51.171875 25.484375 53.578125 
Q 30.03125 56 36.53125 56 
Q 37.453125 56 38.578125 55.875 
Q 39.703125 55.765625 41.0625 55.515625 
z
" id="BitstreamVeraSans-Roman-72"/>
      <path d="M 8.015625 75.875 
L 15.828125 75.875 
Q 23.140625 64.359375 26.78125 53.3125 
Q 30.421875 42.28125 30.421875 31.390625 
Q 30.421875 20.453125 26.78125 9.375 
Q 23.140625 -1.703125 15.828125 -13.1875 
L 8.015625 -13.1875 
Q 14.5 -2 17.703125 9.0625 
Q 20.90625 20.125 20.90625 31.390625 
Q 20.90625 42.671875 17.703125 53.65625 
Q 14.5 64.65625 8.015625 75.875 
" id="BitstreamVeraSans-Roman-29"/>
      <path d="M 44.390625 34.1875 
Q 47.5625 33.109375 50.5625 29.59375 
Q 53.5625 26.078125 56.59375 19.921875 
L 66.609375 0 
L 56 0 
L 46.6875 18.703125 
Q 43.0625 26.03125 39.671875 28.421875 
Q 36.28125 30.8125 30.421875 30.8125 
L 19.671875 30.8125 
L 19.671875 0 
L 9.8125 0 
L 9.8125 72.90625 
L 32.078125 72.90625 
Q 44.578125 72.90625 50.734375 67.671875 
Q 56.890625 62.453125 56.890625 51.90625 
Q 56.890625 45.015625 53.6875 40.46875 
Q 50.484375 35.9375 44.390625 34.1875 
M 19.671875 64.796875 
L 19.671875 38.921875 
L 32.078125 38.921875 
Q 39.203125 38.921875 42.84375 42.21875 
Q 46.484375 45.515625 46.484375 51.90625 
Q 46.484375 58.296875 42.84375 61.546875 
Q 39.203125 64.796875 32.078125 64.796875 
z
" id="BitstreamVeraSans-Roman-52"/>
      <path d="M 30.609375 48.390625 
Q 23.390625 48.390625 19.1875 42.75 
Q 14.984375 37.109375 14.984375 27.296875 
Q 14.984375 17.484375 19.15625 11.84375 
Q 23.34375 6.203125 30.609375 6.203125 
Q 37.796875 6.203125 41.984375 11.859375 
Q 46.1875 17.53125 46.1875 27.296875 
Q 46.1875 37.015625 41.984375 42.703125 
Q 37.796875 48.390625 30.609375 48.390625 
M 30.609375 56 
Q 42.328125 56 49.015625 48.375 
Q 55.71875 40.765625 55.71875 27.296875 
Q 55.71875 13.875 49.015625 6.21875 
Q 42.328125 -1.421875 30.609375 -1.421875 
Q 18.84375 -1.421875 12.171875 6.21875 
Q 5.515625 13.875 5.515625 27.296875 
Q 5.515625 40.765625 12.171875 48.375 
Q 18.84375 56 30.609375 56 
" id="BitstreamVeraSans-Roman-6f"/>
      <path d="M 56.203125 29.59375 
L 56.203125 25.203125 
L 14.890625 25.203125 
Q 15.484375 15.921875 20.484375 11.0625 
Q 25.484375 6.203125 34.421875 6.203125 
Q 39.59375 6.203125 44.453125 7.46875 
Q 49.3125 8.734375 54.109375 11.28125 
L 54.109375 2.78125 
Q 49.265625 0.734375 44.1875 -0.34375 
Q 39.109375 -1.421875 33.890625 -1.421875 
Q 20.796875 -1.421875 13.15625 6.1875 
Q 5.515625 13.8125 5.515625 26.8125 
Q 5.515625 40.234375 12.765625 48.109375 
Q 20.015625 56 32.328125 56 
Q 43.359375 56 49.78125 48.890625 
Q 56.203125 41.796875 56.203125 29.59375 
M 47.21875 32.234375 
Q 47.125 39.59375 43.09375 43.984375 
Q 39.0625 48.390625 32.421875 48.390625 
Q 24.90625 48.390625 20.390625 44.140625 
Q 15.875 39.890625 15.1875 32.171875 
z
" id="BitstreamVeraSans-Roman-65"/>
      <path d="M 34.28125 27.484375 
Q 23.390625 27.484375 19.1875 25 
Q 14.984375 22.515625 14.984375 16.5 
Q 14.984375 11.71875 18.140625 8.90625 
Q 21.296875 6.109375 26.703125 6.109375 
Q 34.1875 6.109375 38.703125 11.40625 
Q 43.21875 16.703125 43.21875 25.484375 
L 43.21875 27.484375 
z
M 52.203125 31.203125 
L 52.203125 0 
L 43.21875 0 
L 43.21875 8.296875 
Q 40.140625 3.328125 35.546875 0.953125 
Q 30.953125 -1.421875 24.3125 -1.421875 
Q 15.921875 -1.421875 10.953125 3.296875 
Q 6 8.015625 6 15.921875 
Q 6 25.140625 12.171875 29.828125 
Q 18.359375 34.515625 30.609375 34.515625 
L 43.21875 34.515625 
L 43.21875 35.40625 
Q 43.21875 41.609375 39.140625 45 
Q 35.0625 48.390625 27.6875 48.390625 
Q 23 48.390625 18.546875 47.265625 
Q 14.109375 46.140625 10.015625 43.890625 
L 10.015625 52.203125 
Q 14.9375 54.109375 19.578125 55.046875 
Q 24.21875 56 28.609375 56 
Q 40.484375 56 46.34375 49.84375 
Q 52.203125 43.703125 52.203125 31.203125 
" id="BitstreamVeraSans-Roman-61"/>
      <path d="M 44.28125 53.078125 
L 44.28125 44.578125 
Q 40.484375 46.53125 36.375 47.5 
Q 32.28125 48.484375 27.875 48.484375 
Q 21.1875 48.484375 17.84375 46.4375 
Q 14.5 44.390625 14.5 40.28125 
Q 14.5 37.15625 16.890625 35.375 
Q 19.28125 33.59375 26.515625 31.984375 
L 29.59375 31.296875 
Q 39.15625 29.25 43.1875 25.515625 
Q 47.21875 21.78125 47.21875 15.09375 
Q 47.21875 7.46875 41.1875 3.015625 
Q 35.15625 -1.421875 24.609375 -1.421875 
Q 20.21875 -1.421875 15.453125 -0.5625 
Q 10.6875 0.296875 5.421875 2 
L 5.421875 11.28125 
Q 10.40625 8.6875 15.234375 7.390625 
Q 20.0625 6.109375 24.8125 6.109375 
Q 31.15625 6.109375 34.5625 8.28125 
Q 37.984375 10.453125 37.984375 14.40625 
Q 37.984375 18.0625 35.515625 20.015625 
Q 33.0625 21.96875 24.703125 23.78125 
L 21.578125 24.515625 
Q 13.234375 26.265625 9.515625 29.90625 
Q 5.8125 33.546875 5.8125 39.890625 
Q 5.8125 47.609375 11.28125 51.796875 
Q 16.75 56 26.8125 56 
Q 31.78125 56 36.171875 55.265625 
Q 40.578125 54.546875 44.28125 53.078125 
" id="BitstreamVeraSans-Roman-73"/>
      <path d="M 9.421875 75.984375 
L 18.40625 75.984375 
L 18.40625 0 
L 9.421875 0 
z
" id="BitstreamVeraSans-Roman-6c"/>
      <path d="M 31 75.875 
Q 24.46875 64.65625 21.28125 53.65625 
Q 18.109375 42.671875 18.109375 31.390625 
Q 18.109375 20.125 21.3125 9.0625 
Q 24.515625 -2 31 -13.1875 
L 23.1875 -13.1875 
Q 15.875 -1.703125 12.234375 9.375 
Q 8.59375 20.453125 8.59375 31.390625 
Q 8.59375 42.28125 12.203125 53.3125 
Q 15.828125 64.359375 23.1875 75.875 
z
" id="BitstreamVeraSans-Roman-28"/>
      <path d="M 2.984375 54.6875 
L 12.5 54.6875 
L 29.59375 8.796875 
L 46.6875 54.6875 
L 56.203125 54.6875 
L 35.6875 0 
L 23.484375 0 
z
" id="BitstreamVeraSans-Roman-76"/>
      <path d="M 45.40625 27.984375 
Q 45.40625 37.75 41.375 43.109375 
Q 37.359375 48.484375 30.078125 48.484375 
Q 22.859375 48.484375 18.828125 43.109375 
Q 14.796875 37.75 14.796875 27.984375 
Q 14.796875 18.265625 18.828125 12.890625 
Q 22.859375 7.515625 30.078125 7.515625 
Q 37.359375 7.515625 41.375 12.890625 
Q 45.40625 18.265625 45.40625 27.984375 
M 54.390625 6.78125 
Q 54.390625 -7.171875 48.1875 -13.984375 
Q 42 -20.796875 29.203125 -20.796875 
Q 24.46875 -20.796875 20.265625 -20.09375 
Q 16.0625 -19.390625 12.109375 -17.921875 
L 12.109375 -9.1875 
Q 16.0625 -11.328125 19.921875 -12.34375 
Q 23.78125 -13.375 27.78125 -13.375 
Q 36.625 -13.375 41.015625 -8.765625 
Q 45.40625 -4.15625 45.40625 5.171875 
L 45.40625 9.625 
Q 42.625 4.78125 38.28125 2.390625 
Q 33.9375 0 27.875 0 
Q 17.828125 0 11.671875 7.65625 
Q 5.515625 15.328125 5.515625 27.984375 
Q 5.515625 40.671875 11.671875 48.328125 
Q 17.828125 56 27.875 56 
Q 33.9375 56 38.28125 53.609375 
Q 42.625 51.21875 45.40625 46.390625 
L 45.40625 54.6875 
L 54.390625 54.6875 
z
" id="BitstreamVeraSans-Roman-67"/>
      <path id="BitstreamVeraSans-Roman-20"/>
      <path d="M 18.3125 70.21875 
L 18.3125 54.6875 
L 36.8125 54.6875 
L 36.8125 47.703125 
L 18.3125 47.703125 
L 18.3125 18.015625 
Q 18.3125 11.328125 20.140625 9.421875 
Q 21.96875 7.515625 27.59375 7.515625 
L 36.8125 7.515625 
L 36.8125 0 
L 27.59375 0 
Q 17.1875 0 13.234375 3.875 
Q 9.28125 7.765625 9.28125 18.015625 
L 9.28125 47.703125 
L 2.6875 47.703125 
L 2.6875 54.6875 
L 9.28125 54.6875 
L 9.28125 70.21875 
z
" id="BitstreamVeraSans-Roman-74"/>
     </defs>
     <g transform="translate(29.5905 189.645477273)rotate(-90.0)scale(0.144 -0.144)">
      <use xlink:href="#BitstreamVeraSans-Roman-52"/>
      <use x="69.419921875" xlink:href="#BitstreamVeraSans-Roman-6f"/>
      <use x="130.6015625" xlink:href="#BitstreamVeraSans-Roman-74"/>
      <use x="169.810546875" xlink:href="#BitstreamVeraSans-Roman-6f"/>
      <use x="230.9921875" xlink:href="#BitstreamVeraSans-Roman-72"/>
      <use x="272.10546875" xlink:href="#BitstreamVeraSans-Roman-20"/>
      <use x="303.892578125" xlink:href="#BitstreamVeraSans-Roman-76"/>
      <use x="363.072265625" xlink:href="#BitstreamVeraSans-Roman-6f"/>
      <use x="424.25390625" xlink:href="#BitstreamVeraSans-Roman-6c"/>
      <use x="452.037109375" xlink:href="#BitstreamVeraSans-Roman-74"/>
      <use x="491.24609375" xlink:href="#BitstreamVeraSans-Roman-61"/>
      <use x="552.525390625" xlink:href="#BitstreamVeraSans-Roman-67"/>
      <use x="616.001953125" xlink:href="#BitstreamVeraSans-Roman-65"/>
      <use x="677.525390625" xlink:href="#BitstreamVeraSans-Roman-73"/>
      <use x="729.625" xlink:href="#BitstreamVeraSans-Roman-20"/>
      <use x="761.412109375" xlink:href="#BitstreamVeraSans-Roman-28"/>
      <use x="800.42578125" xlink:href="#BitstreamVeraSans-Roman-56"/>
      <use x="868.833984375" xlink:href="#BitstreamVeraSans-Roman-29"/>
     </g>
    </g>
   </g>
   <g id="line2d_37">
    <path clip-path="url(#p915aca6fe2)" d="M 66.910875 21.517586 
L 67.429275 20.762897 
L 67.947675 20.153254 
L 68.984475 19.172927 
L 70.021275 18.449227 
L 71.576475 17.703086 
L 73.131675 17.230404 
L 75.205275 16.858274 
L 78.315675 16.593191 
L 82.981275 16.461638 
L 95.422875 16.418858 
L 118.750875 16.417816 
L 122.379675 38.693173 
L 124.971675 54.009044 
L 127.045275 67.061496 
L 128.600475 76.903884 
L 130.674075 90.295986 
L 132.229275 99.574904 
L 136.894875 129.394428 
L 138.968475 142.346774 
L 141.042075 156.2903 
L 143.115675 169.06377 
L 144.670875 178.86189 
L 145.707675 186.527152 
L 146.744475 192.223456 
L 147.262875 194.710762 
L 148.299675 198.221197 
L 148.818075 199.766227 
L 149.336475 200.876637 
L 149.854875 202.285261 
L 151.410075 205.162591 
L 151.928475 206.032423 
L 152.446875 206.22561 
L 153.483675 207.190436 
L 154.002075 207.426891 
L 154.520475 207.88594 
L 155.557275 208.395535 
L 156.075675 208.361613 
L 157.630875 209.185484 
L 158.149275 209.146749 
L 159.186075 209.299967 
L 159.704475 209.386167 
L 160.222875 209.638512 
L 160.741275 209.746008 
L 161.259675 210.080356 
L 161.778075 210.15785 
L 162.296475 209.880336 
L 162.814875 210.361002 
L 163.333275 210.292799 
L 163.851675 210.701041 
L 165.406875 210.758711 
L 165.925275 211.154657 
L 166.962075 211.591935 
L 167.480475 211.932019 
L 167.998875 211.90236 
L 168.517275 212.047306 
L 169.554075 211.941965 
L 170.072475 212.036625 
L 170.590875 211.947146 
L 171.109275 211.73575 
L 172.146075 212.155489 
L 175.256475 211.871953 
L 175.774875 211.420953 
L 176.293275 211.352231 
L 176.811675 211.560821 
L 177.330075 211.387337 
L 178.366875 211.533371 
L 178.885275 211.298518 
L 179.403675 211.475709 
L 179.922075 211.341417 
L 180.440475 211.55159 
L 180.958875 211.420458 
L 182.514075 211.99905 
L 183.032475 211.918225 
L 183.550875 211.649197 
L 184.069275 211.535352 
L 185.106075 212.013842 
L 185.624475 211.955365 
L 186.142875 212.038488 
L 186.661275 212.240762 
L 188.216475 212.000027 
L 188.734875 212.006036 
L 189.253275 212.146036 
L 189.771675 212.076131 
L 190.808475 212.350055 
L 191.326875 212.309437 
L 192.363675 212.554693 
L 192.882075 212.56841 
L 193.400475 212.86409 
L 194.437275 212.968805 
L 194.955675 213.025844 
L 195.474075 212.954568 
L 195.992475 213.157241 
L 196.510875 213.115155 
L 197.029275 212.85122 
L 197.547675 213.172042 
L 199.621275 213.556955 
L 200.658075 213.188648 
L 201.176475 213.24905 
L 202.213275 213.598347 
L 202.731675 213.684669 
L 203.250075 213.639119 
L 204.286875 213.79076 
L 205.323675 213.936089 
L 205.842075 213.937443 
L 206.878875 214.130732 
L 208.952475 214.2877 
L 209.989275 214.133904 
L 210.507675 214.23641 
L 211.544475 214.055581 
L 214.136475 214.842717 
L 214.654875 214.758899 
L 215.173275 214.982654 
L 216.210075 215.08133 
L 217.246875 214.809207 
L 217.765275 214.80497 
L 219.320475 215.108386 
L 219.838875 215.448757 
L 220.357275 215.413324 
L 220.875675 215.68416 
L 222.430875 215.243723 
L 222.949275 215.383798 
L 224.504475 215.379844 
L 225.022875 215.153682 
L 227.614875 215.309178 
L 228.133275 215.170024 
L 229.688475 215.431673 
L 230.206875 215.562953 
L 230.725275 215.467601 
L 234.872475 216.259289 
L 235.390875 215.871048 
L 235.909275 215.670212 
L 237.464475 216.074066 
L 239.019675 215.529229 
L 240.056475 215.720462 
L 240.574875 215.519608 
L 241.611675 215.455158 
L 242.130075 215.566608 
L 242.648475 215.46661 
L 243.166875 215.852846 
L 243.685275 216.033377 
L 244.203675 216.080684 
L 244.722075 215.847524 
L 245.758875 216.162532 
L 246.277275 216.007733 
L 247.314075 216.436515 
L 248.350875 216.433263 
L 249.387675 216.488011 
L 251.461275 216.16484 
L 251.979675 216.231217 
L 252.498075 216.137082 
L 253.016475 216.257093 
L 253.534875 216.26259 
L 254.053275 216.128398 
L 255.090075 216.04292 
L 256.126875 215.573772 
L 256.645275 215.571123 
L 257.682075 216.037513 
L 258.718875 216.197737 
L 259.237275 216.076446 
L 260.274075 216.143843 
L 260.792475 216.024431 
L 261.310875 216.316391 
L 262.347675 216.113196 
L 264.939675 215.828275 
L 265.976475 216.100563 
L 266.494875 216.020139 
L 267.531675 216.287258 
L 268.050075 215.974757 
L 269.086875 216.12722 
L 270.123675 216.0457 
L 270.642075 216.1566 
L 271.160475 215.876448 
L 271.678875 215.792017 
L 272.197275 216.242552 
L 273.752475 216.100144 
L 274.270875 216.172377 
L 274.789275 216.472877 
L 275.307675 216.413917 
L 278.936475 217.627672 
L 280.491675 217.450565 
L 281.528475 217.607301 
L 282.046875 217.618271 
L 283.083675 217.41488 
L 284.638875 218.025914 
L 285.157275 218.002154 
L 285.675675 218.177417 
L 286.194075 218.209254 
L 286.712475 218.455932 
L 288.267675 218.566067 
L 288.786075 219.085729 
L 289.304475 219.030788 
L 290.341275 219.342078 
L 290.859675 219.076653 
L 291.896475 218.874509 
L 292.414875 219.091548 
L 292.933275 219.067399 
L 293.970075 219.338901 
L 294.488475 219.544698 
L 295.006875 219.554436 
L 295.525275 219.922405 
L 296.562075 220.013807 
L 298.117275 219.802432 
L 298.635675 219.814193 
L 299.154075 219.603724 
L 300.190875 219.895053 
L 301.746075 219.444256 
L 302.264475 219.254027 
L 303.819675 219.249364 
L 304.856475 219.084962 
L 305.374875 219.31551 
L 305.893275 219.203404 
L 306.411675 219.243756 
L 306.930075 219.081108 
L 307.966875 219.266952 
L 308.485275 219.203228 
L 309.003675 219.271702 
L 310.040475 218.877109 
L 312.114075 218.958257 
L 313.669275 218.761261 
L 314.187675 218.989782 
L 314.706075 219.068921 
L 315.742875 218.982107 
L 318.334875 219.17088 
L 318.853275 219.523107 
L 319.890075 219.814939 
L 321.445275 219.997357 
L 321.963675 220.314075 
L 322.482075 220.413594 
L 323.518875 220.466226 
L 324.037275 220.80344 
L 324.555675 220.568706 
L 325.074075 220.584985 
L 325.592475 220.377149 
L 327.666075 221.125412 
L 328.702875 221.395764 
L 329.221275 221.185758 
L 329.739675 221.471989 
L 330.258075 221.186782 
L 330.776475 221.336759 
L 331.294875 221.148782 
L 331.813275 220.748998 
L 332.331675 220.918509 
L 332.850075 220.931592 
L 333.368475 221.300468 
L 336.478875 220.788435 
L 336.997275 220.559648 
L 337.515675 220.609607 
L 338.034075 220.315591 
L 339.070875 220.286291 
L 340.107675 220.676844 
L 340.626075 220.750575 
L 341.144475 220.69285 
L 341.662875 220.837763 
L 342.181275 220.458966 
L 344.254875 220.421578 
L 344.773275 220.672929 
L 346.328475 220.639016 
L 346.846875 220.826303 
L 347.883675 220.646281 
L 348.402075 220.94409 
L 348.920475 220.585088 
L 349.438875 220.569058 
L 349.957275 220.335856 
L 350.994075 220.825352 
L 351.512475 220.815243 
L 352.030875 221.104312 
L 353.067675 221.168738 
L 354.104475 221.306627 
L 354.622875 221.083254 
L 355.141275 221.356053 
L 355.659675 221.353191 
L 356.178075 221.583911 
L 356.696475 221.437239 
L 357.214875 221.651377 
L 357.733275 221.609427 
L 358.251675 221.428549 
L 358.770075 221.480187 
L 359.288475 221.417857 
L 359.806875 221.488909 
L 360.325275 221.71717 
L 361.880475 221.614494 
L 362.917275 221.778518 
L 363.954075 221.65802 
L 364.472475 221.428629 
L 365.509275 221.72705 
L 366.027675 221.626496 
L 366.546075 221.842989 
L 367.582875 221.895013 
L 368.101275 221.989452 
L 368.619675 221.818169 
L 369.138075 222.050487 
L 369.656475 222.021739 
L 370.693275 221.750051 
L 371.211675 221.674183 
L 371.730075 221.7777 
L 373.285275 221.452109 
L 373.803675 221.599876 
L 374.840475 221.454625 
L 375.877275 221.423769 
L 376.395675 221.731543 
L 377.432475 222.016783 
L 378.469275 221.814869 
L 378.987675 222.062516 
L 379.506075 221.687543 
L 380.024475 221.794055 
L 380.542875 221.462058 
L 381.579675 221.457997 
L 382.616475 221.235237 
L 383.134875 221.115144 
L 384.171675 221.047521 
L 385.208475 220.807607 
L 386.245275 220.964245 
L 386.763675 220.921228 
L 387.282075 221.112742 
L 387.800475 221.089147 
L 388.318875 221.316017 
L 394.021275 221.592252 
L 394.539675 221.344009 
L 395.058075 221.258146 
L 395.576475 221.399583 
L 396.094875 221.207367 
L 396.613275 221.51235 
L 397.131675 221.613414 
L 398.168475 221.426874 
L 399.205275 221.290696 
L 399.723675 221.309597 
L 400.242075 221.579556 
L 400.760475 221.552724 
L 401.278875 221.39005 
L 401.797275 221.518735 
L 402.834075 221.147538 
L 403.352475 221.366083 
L 403.870875 221.32732 
L 404.389275 221.157609 
L 406.462875 221.617421 
L 406.981275 221.781413 
L 407.499675 221.554977 
L 409.054875 221.988812 
L 411.646875 221.969558 
L 412.165275 221.911892 
L 413.202075 222.155394 
L 413.720475 221.869992 
L 414.757275 222.137525 
L 415.275675 222.492987 
L 415.794075 222.310645 
L 416.830875 222.553751 
L 417.349275 222.474867 
L 417.867675 222.655858 
L 418.386075 222.675754 
L 419.422875 223.177975 
L 419.941275 223.675872 
L 420.978075 223.526863 
L 423.570075 222.830717 
L 424.088475 222.969505 
L 424.606875 222.721838 
L 425.125275 222.749055 
L 425.643675 222.905671 
L 426.162075 222.809637 
L 426.680475 222.429679 
L 427.717275 223.132989 
L 428.754075 222.992244 
L 429.272475 222.945157 
L 430.309275 222.499555 
L 430.827675 222.633703 
L 431.864475 223.087456 
L 432.382875 223.064477 
L 433.419675 223.243529 
L 433.938075 223.091605 
L 436.011675 223.003537 
L 436.530075 223.110127 
L 437.566875 223.047448 
L 438.085275 223.209713 
L 438.603675 223.092936 
L 439.640475 223.348692 
L 440.677275 223.271912 
L 441.195675 223.006217 
L 442.232475 223.134095 
L 444.306075 223.037511 
L 445.342875 222.623778 
L 445.861275 222.692196 
L 446.379675 222.576812 
L 446.898075 222.902777 
L 448.453275 223.165457 
L 448.971675 223.01538 
L 449.490075 223.135125 
L 450.526875 223.590348 
L 451.045275 223.507515 
L 451.563675 223.543375 
L 452.082075 223.780769 
L 452.600475 223.595322 
L 453.118875 223.677623 
L 453.637275 224.006948 
L 454.155675 223.950722 
L 455.192475 223.652239 
L 456.229275 223.596891 
L 456.747675 223.464522 
L 458.302875 223.470376 
L 459.858075 223.41802 
L 460.376475 223.159175 
L 460.894875 223.169311 
L 461.413275 223.015372 
L 461.931675 223.015129 
L 462.968475 223.409739 
L 463.486875 223.597217 
L 464.005275 223.433808 
L 464.523675 223.570325 
L 465.042075 223.527524 
L 465.560475 223.61598 
L 467.115675 224.234297 
L 467.634075 224.343095 
L 468.152475 224.271732 
L 470.226075 224.403017 
L 470.744475 224.70375 
L 471.262875 224.399493 
L 472.299675 224.90084 
L 473.336475 224.497519 
L 473.854875 224.692764 
L 474.373275 224.479748 
L 475.410075 224.410756 
L 475.928475 224.601196 
L 476.446875 224.445216 
L 478.002075 224.474617 
L 478.520475 224.329011 
L 479.038875 224.711584 
L 479.557275 224.729385 
L 480.075675 224.431287 
L 480.594075 224.588991 
L 481.112475 224.392612 
L 483.186075 224.613005 
L 484.222875 224.927472 
L 484.741275 224.423871 
L 485.778075 224.462765 
L 486.296475 224.428148 
L 486.814875 224.644626 
L 487.333275 224.63233 
L 488.888475 225.131913 
L 489.406875 224.912078 
L 490.443675 224.812637 
L 491.480475 225.202873 
L 491.998875 225.43153 
L 492.517275 225.422007 
L 493.035675 225.538026 
L 493.554075 225.354791 
L 494.072475 225.728694 
L 494.590875 225.869525 
L 495.627675 225.736492 
L 496.146075 226.273175 
L 497.182875 226.586588 
L 500.811675 226.971603 
L 501.330075 226.736725 
L 502.366875 226.673228 
L 502.885275 227.087924 
L 503.403675 226.98882 
L 503.922075 227.213037 
L 504.440475 227.131397 
L 504.958875 227.394604 
L 505.995675 227.465363 
L 507.032475 227.618936 
L 507.550875 227.874008 
L 508.069275 227.88853 
L 509.106075 227.6073 
L 510.142875 227.8325 
L 510.661275 228.055659 
L 511.179675 227.635998 
L 512.216475 227.658203 
L 513.253275 227.523919 
L 514.290075 227.774461 
L 514.808475 227.613321 
L 516.363675 227.787924 
L 517.918875 227.51683 
L 518.437275 227.589911 
L 518.955675 227.815757 
L 519.474075 227.821328 
L 519.992475 228.01043 
L 521.547675 227.591976 
L 522.584475 227.989575 
L 523.102875 227.797323 
L 523.621275 227.842826 
L 524.658075 227.559202 
L 525.176475 227.7183 
L 525.694875 227.512989 
L 527.250075 227.467905 
L 528.286875 227.600311 
L 528.805275 227.65217 
L 529.842075 227.300201 
L 530.878875 227.637155 
L 532.434075 227.091124 
L 532.952475 227.364899 
L 533.470875 227.361712 
L 533.989275 227.481741 
L 534.507675 227.466704 
L 535.026075 227.052738 
L 536.581275 227.15106 
L 537.618075 226.962682 
L 539.173275 227.265412 
L 539.691675 227.044947 
L 540.728475 227.132138 
L 541.246875 227.085412 
L 541.765275 227.415699 
L 542.283675 227.541112 
L 542.802075 227.473905 
L 543.320475 227.652372 
L 546.430875 227.734988 
L 549.022875 228.156497 
L 550.578075 227.998325 
L 551.614875 228.217494 
L 552.133275 227.991082 
L 553.170075 228.140092 
L 553.688475 228.320734 
L 554.725275 228.158855 
L 555.762075 228.379565 
L 556.798875 228.599842 
L 558.354075 228.804551 
L 559.390875 228.963928 
L 559.909275 228.796228 
L 560.427675 228.786402 
L 560.946075 228.901612 
L 561.464475 228.902438 
L 562.501275 228.714238 
L 563.538075 228.567534 
L 564.056475 228.739894 
L 564.574875 228.791621 
L 565.611675 228.702937 
L 566.130075 228.671265 
L 566.648475 229.159237 
L 567.166875 229.421919 
L 567.685275 229.415812 
L 568.203675 229.298015 
L 568.722075 229.63752 
L 569.240475 229.557605 
L 570.277275 229.887706 
L 572.350875 229.161241 
L 572.869275 229.183668 
L 573.387675 229.002092 
L 573.906075 229.203154 
L 577.016475 229.418726 
L 577.534875 229.598319 
L 578.053275 229.5393 
L 579.090075 229.665823 
L 581.163675 229.706602 
L 581.682075 229.900699 
L 582.200475 229.783605 
L 582.718875 230.174813 
L 584.792475 229.780225 
L 584.792475 229.780225 
" style="fill:none;stroke:#fc4f30;stroke-width:4.0;"/>
   </g>
   <g id="line2d_38">
    <path clip-path="url(#p915aca6fe2)" d="M 66.910875 144.568962 
L 67.429275 147.252461 
L 68.984475 149.874037 
L 70.021275 151.131885 
L 71.058075 152.074344 
L 72.094875 152.780562 
L 73.650075 153.522361 
L 75.205275 154.00361 
L 77.278875 154.393303 
L 79.870875 154.649856 
L 84.018075 154.816082 
L 92.830875 154.886097 
L 144.670875 154.892697 
L 146.744475 154.031609 
L 148.818075 153.374875 
L 151.410075 152.851377 
L 153.483675 152.622956 
L 158.149275 152.397013 
L 169.554075 152.219031 
L 179.403675 152.237509 
L 186.142875 152.21221 
L 194.955675 152.168047 
L 205.842075 152.127292 
L 221.912475 152.058467 
L 227.614875 152.06597 
L 233.835675 152.031957 
L 244.203675 152.031481 
L 248.350875 152.015719 
L 262.866075 152.032262 
L 274.270875 152.027382 
L 275.307675 152.848298 
L 276.862875 153.639801 
L 278.418075 154.143749 
L 280.491675 154.573606 
L 283.602075 154.881056 
L 288.267675 155.002082 
L 291.378075 155.016721 
L 295.525275 154.992613 
L 304.338075 155.03724 
L 323.000475 154.978733 
L 341.662875 154.958324 
L 344.773275 154.965937 
L 414.757275 154.898296 
L 419.941275 154.827248 
L 449.490075 154.852222 
L 455.710875 154.82905 
L 471.781275 154.781524 
L 476.446875 154.791717 
L 510.142875 154.635277 
L 515.326875 154.641219 
L 566.648475 154.574003 
L 571.314075 154.554277 
L 574.942875 154.573351 
L 583.237275 154.530821 
L 584.792475 154.545323 
L 584.792475 154.545323 
" style="fill:none;stroke:#5cb85c;stroke-width:4.0;"/>
   </g>
   <g id="patch_3">
    <path d="M 66.910875 235.55233 
L 585.310875 235.55233 
" style="fill:none;stroke:#ffffff;stroke-linecap:square;stroke-linejoin:miter;stroke-width:3.0;"/>
   </g>
   <g id="patch_4">
    <path d="M 585.310875 235.55233 
L 585.310875 13.006875 
" style="fill:none;stroke:#ffffff;stroke-linecap:square;stroke-linejoin:miter;stroke-width:3.0;"/>
   </g>
   <g id="patch_5">
    <path d="M 66.910875 235.55233 
L 66.910875 13.006875 
" style="fill:none;stroke:#ffffff;stroke-linecap:square;stroke-linejoin:miter;stroke-width:3.0;"/>
   </g>
   <g id="patch_6">
    <path d="M 66.910875 13.006875 
L 585.310875 13.006875 
" style="fill:none;stroke:#ffffff;stroke-linecap:square;stroke-linejoin:miter;stroke-width:3.0;"/>
   </g>
   <g id="legend_1">
    <g id="patch_7">
     <path d="M 512.158875 68.413125 
L 575.230875 68.413125 
Q 578.110875 68.413125 578.110875 65.533125 
L 578.110875 23.086875 
Q 578.110875 20.206875 575.230875 20.206875 
L 512.158875 20.206875 
Q 509.278875 20.206875 509.278875 23.086875 
L 509.278875 65.533125 
Q 509.278875 68.413125 512.158875 68.413125 
z
" style="fill:#ffffff;stroke:#ffffff;stroke-linejoin:miter;stroke-width:0.5;"/>
    </g>
    <g id="line2d_39">
     <path d="M 519.358875 31.868625 
L 539.518875 31.868625 
" style="fill:none;stroke:#fc4f30;stroke-width:4.0;"/>
    </g>
    <g id="line2d_40"/>
    <g id="text_8">
     <!-- $\sf v_{dr}$ -->
     <defs>
      <path d="M 20.3125 -1.125 
Q 14.984375 -1.125 11.125 2.515625 
Q 7.28125 6.15625 5.34375 11.578125 
Q 3.421875 17 3.421875 22.21875 
Q 3.421875 26.171875 4.546875 30.203125 
Q 5.671875 34.234375 7.8125 37.71875 
Q 9.96875 41.21875 13.234375 43.359375 
Q 16.5 45.515625 20.609375 45.515625 
Q 24.859375 45.515625 28.78125 44.09375 
Q 32.71875 42.671875 35.6875 40.1875 
L 35.6875 69.390625 
L 43.609375 69.390625 
L 43.609375 0 
L 35.40625 0 
L 35.40625 4.984375 
Q 32.171875 2 28.40625 0.4375 
Q 24.65625 -1.125 20.3125 -1.125 
M 24.90625 5.421875 
Q 28.21875 5.421875 31 7.265625 
Q 33.796875 9.125 35.40625 12.203125 
L 35.40625 33.796875 
Q 33.84375 36.1875 31.34375 37.59375 
Q 28.859375 39.015625 26.125 39.015625 
Q 21.4375 39.015625 18.140625 36.71875 
Q 14.84375 34.421875 13.234375 30.59375 
Q 11.625 26.765625 11.625 22.21875 
Q 11.625 15.328125 14.984375 10.375 
Q 18.359375 5.421875 24.90625 5.421875 
" id="Cmss10-64"/>
      <path d="M 8.015625 0 
L 8.015625 45.015625 
L 15.375 45.015625 
L 15.375 36.375 
Q 17.328125 39.109375 20.109375 41.203125 
Q 22.90625 43.3125 26.09375 44.40625 
Q 29.296875 45.515625 32.71875 45.515625 
L 32.71875 38.375 
Q 28.265625 38.375 24.390625 36.171875 
Q 20.515625 33.984375 18.21875 30.203125 
Q 15.921875 26.421875 15.921875 21.921875 
L 15.921875 0 
z
" id="Cmss10-72"/>
      <path d="M 18.40625 0 
L 1.421875 44.390625 
L 9.625 44.390625 
Q 12.453125 36.859375 14.75 30.796875 
Q 17.046875 24.75 18.65625 20.3125 
Q 20.265625 15.875 21.71875 11.1875 
Q 23.1875 6.5 23.1875 5.421875 
Q 23.1875 8.734375 36.71875 44.390625 
L 44.578125 44.390625 
L 27.59375 0 
z
" id="Cmss10-76"/>
     </defs>
     <g transform="translate(555.358875 36.908625)scale(0.144 -0.144)">
      <use transform="translate(0.0 0.609375)" xlink:href="#Cmss10-76"/>
      <use transform="translate(50.74 -17.090625000000003)scale(0.7)" xlink:href="#Cmss10-64"/>
      <use transform="translate(86.8679296875 -17.090625000000003)scale(0.7)" xlink:href="#Cmss10-72"/>
     </g>
    </g>
    <g id="line2d_41">
     <path d="M 519.358875 53.005125 
L 539.518875 53.005125 
" style="fill:none;stroke:#5cb85c;stroke-width:4.0;"/>
    </g>
    <g id="line2d_42"/>
    <g id="text_9">
     <!-- $\sf v_{qr}$ -->
     <defs>
      <path d="M 19.921875 -1.125 
Q 14.65625 -1.125 10.890625 2.53125 
Q 7.125 6.203125 5.265625 11.671875 
Q 3.421875 17.140625 3.421875 22.21875 
Q 3.421875 27.546875 5.59375 32.984375 
Q 7.765625 38.421875 11.984375 41.96875 
Q 16.21875 45.515625 21.78125 45.515625 
Q 25.78125 45.515625 29.390625 43.796875 
Q 33.015625 42.09375 35.6875 39.015625 
L 35.6875 45.515625 
L 43.609375 45.515625 
L 43.609375 -19.390625 
L 35.40625 -19.390625 
L 35.40625 4.78125 
Q 32.171875 1.953125 28.140625 0.40625 
Q 24.125 -1.125 19.921875 -1.125 
M 24.90625 5.421875 
Q 28.265625 5.421875 31.171875 7.34375 
Q 34.078125 9.28125 35.6875 12.3125 
L 35.6875 29.6875 
Q 34.625 33.5 32.203125 36.109375 
Q 29.78125 38.71875 26.125 38.71875 
Q 21.921875 38.71875 18.578125 36.328125 
Q 15.234375 33.9375 13.421875 30.09375 
Q 11.625 26.265625 11.625 22.21875 
Q 11.625 15.875 15.234375 10.640625 
Q 18.84375 5.421875 24.90625 5.421875 
" id="Cmss10-71"/>
     </defs>
     <g transform="translate(555.358875 58.045125)scale(0.144 -0.144)">
      <use transform="translate(0.0 0.609375)" xlink:href="#Cmss10-76"/>
      <use transform="translate(50.74 -17.090625000000003)scale(0.7)" xlink:href="#Cmss10-71"/>
      <use transform="translate(86.8679296875 -17.090625000000003)scale(0.7)" xlink:href="#Cmss10-72"/>
     </g>
    </g>
   </g>
  </g>
  <g id="axes_2">
   <g id="patch_8">
    <path d="M 66.910875 502.606875 
L 585.310875 502.606875 
L 585.310875 280.06142 
L 66.910875 280.06142 
z
" style="fill:#ffffff;"/>
   </g>
   <g id="matplotlib.axis_3">
    <g id="xtick_7">
     <g id="line2d_43">
      <path clip-path="url(#p5200ed5a91)" d="M 66.910875 502.606875 
L 66.910875 280.06142 
" style="fill:none;stroke:#cbcbcb;"/>
     </g>
     <g id="line2d_44"/>
     <g id="line2d_45"/>
     <g id="text_10">
      <!-- 0 -->
      <g transform="translate(63.093375 515.725)scale(0.12 -0.12)">
       <use xlink:href="#BitstreamVeraSans-Roman-30"/>
      </g>
     </g>
    </g>
    <g id="xtick_8">
     <g id="line2d_46">
      <path clip-path="url(#p5200ed5a91)" d="M 170.590875 502.606875 
L 170.590875 280.06142 
" style="fill:none;stroke:#cbcbcb;"/>
     </g>
     <g id="line2d_47"/>
     <g id="line2d_48"/>
     <g id="text_11">
      <!-- 2 -->
      <g transform="translate(166.773375 515.725)scale(0.12 -0.12)">
       <use xlink:href="#BitstreamVeraSans-Roman-32"/>
      </g>
     </g>
    </g>
    <g id="xtick_9">
     <g id="line2d_49">
      <path clip-path="url(#p5200ed5a91)" d="M 274.270875 502.606875 
L 274.270875 280.06142 
" style="fill:none;stroke:#cbcbcb;"/>
     </g>
     <g id="line2d_50"/>
     <g id="line2d_51"/>
     <g id="text_12">
      <!-- 4 -->
      <g transform="translate(270.453375 515.725)scale(0.12 -0.12)">
       <use xlink:href="#BitstreamVeraSans-Roman-34"/>
      </g>
     </g>
    </g>
    <g id="xtick_10">
     <g id="line2d_52">
      <path clip-path="url(#p5200ed5a91)" d="M 377.950875 502.606875 
L 377.950875 280.06142 
" style="fill:none;stroke:#cbcbcb;"/>
     </g>
     <g id="line2d_53"/>
     <g id="line2d_54"/>
     <g id="text_13">
      <!-- 6 -->
      <g transform="translate(374.133375 515.725)scale(0.12 -0.12)">
       <use xlink:href="#BitstreamVeraSans-Roman-36"/>
      </g>
     </g>
    </g>
    <g id="xtick_11">
     <g id="line2d_55">
      <path clip-path="url(#p5200ed5a91)" d="M 481.630875 502.606875 
L 481.630875 280.06142 
" style="fill:none;stroke:#cbcbcb;"/>
     </g>
     <g id="line2d_56"/>
     <g id="line2d_57"/>
     <g id="text_14">
      <!-- 8 -->
      <defs>
       <path d="M 31.78125 34.625 
Q 24.75 34.625 20.71875 30.859375 
Q 16.703125 27.09375 16.703125 20.515625 
Q 16.703125 13.921875 20.71875 10.15625 
Q 24.75 6.390625 31.78125 6.390625 
Q 38.8125 6.390625 42.859375 10.171875 
Q 46.921875 13.96875 46.921875 20.515625 
Q 46.921875 27.09375 42.890625 30.859375 
Q 38.875 34.625 31.78125 34.625 
M 21.921875 38.8125 
Q 15.578125 40.375 12.03125 44.71875 
Q 8.5 49.078125 8.5 55.328125 
Q 8.5 64.0625 14.71875 69.140625 
Q 20.953125 74.21875 31.78125 74.21875 
Q 42.671875 74.21875 48.875 69.140625 
Q 55.078125 64.0625 55.078125 55.328125 
Q 55.078125 49.078125 51.53125 44.71875 
Q 48 40.375 41.703125 38.8125 
Q 48.828125 37.15625 52.796875 32.3125 
Q 56.78125 27.484375 56.78125 20.515625 
Q 56.78125 9.90625 50.3125 4.234375 
Q 43.84375 -1.421875 31.78125 -1.421875 
Q 19.734375 -1.421875 13.25 4.234375 
Q 6.78125 9.90625 6.78125 20.515625 
Q 6.78125 27.484375 10.78125 32.3125 
Q 14.796875 37.15625 21.921875 38.8125 
M 18.3125 54.390625 
Q 18.3125 48.734375 21.84375 45.5625 
Q 25.390625 42.390625 31.78125 42.390625 
Q 38.140625 42.390625 41.71875 45.5625 
Q 45.3125 48.734375 45.3125 54.390625 
Q 45.3125 60.0625 41.71875 63.234375 
Q 38.140625 66.40625 31.78125 66.40625 
Q 25.390625 66.40625 21.84375 63.234375 
Q 18.3125 60.0625 18.3125 54.390625 
" id="BitstreamVeraSans-Roman-38"/>
      </defs>
      <g transform="translate(477.813375 515.725)scale(0.12 -0.12)">
       <use xlink:href="#BitstreamVeraSans-Roman-38"/>
      </g>
     </g>
    </g>
    <g id="xtick_12">
     <g id="line2d_58">
      <path clip-path="url(#p5200ed5a91)" d="M 585.310875 502.606875 
L 585.310875 280.06142 
" style="fill:none;stroke:#cbcbcb;"/>
     </g>
     <g id="line2d_59"/>
     <g id="line2d_60"/>
     <g id="text_15">
      <!-- 10 -->
      <defs>
       <path d="M 12.40625 8.296875 
L 28.515625 8.296875 
L 28.515625 63.921875 
L 10.984375 60.40625 
L 10.984375 69.390625 
L 28.421875 72.90625 
L 38.28125 72.90625 
L 38.28125 8.296875 
L 54.390625 8.296875 
L 54.390625 0 
L 12.40625 0 
z
" id="BitstreamVeraSans-Roman-31"/>
      </defs>
      <g transform="translate(577.675875 515.725)scale(0.12 -0.12)">
       <use xlink:href="#BitstreamVeraSans-Roman-31"/>
       <use x="63.623046875" xlink:href="#BitstreamVeraSans-Roman-30"/>
      </g>
     </g>
    </g>
    <g id="text_16">
     <!-- Time (s) -->
     <defs>
      <path d="M -0.296875 72.90625 
L 61.375 72.90625 
L 61.375 64.59375 
L 35.5 64.59375 
L 35.5 0 
L 25.59375 0 
L 25.59375 64.59375 
L -0.296875 64.59375 
z
" id="BitstreamVeraSans-Roman-54"/>
      <path d="M 9.421875 54.6875 
L 18.40625 54.6875 
L 18.40625 0 
L 9.421875 0 
z
M 9.421875 75.984375 
L 18.40625 75.984375 
L 18.40625 64.59375 
L 9.421875 64.59375 
z
" id="BitstreamVeraSans-Roman-69"/>
      <path d="M 52 44.1875 
Q 55.375 50.25 60.0625 53.125 
Q 64.75 56 71.09375 56 
Q 79.640625 56 84.28125 50.015625 
Q 88.921875 44.046875 88.921875 33.015625 
L 88.921875 0 
L 79.890625 0 
L 79.890625 32.71875 
Q 79.890625 40.578125 77.09375 44.375 
Q 74.3125 48.1875 68.609375 48.1875 
Q 61.625 48.1875 57.5625 43.546875 
Q 53.515625 38.921875 53.515625 30.90625 
L 53.515625 0 
L 44.484375 0 
L 44.484375 32.71875 
Q 44.484375 40.625 41.703125 44.40625 
Q 38.921875 48.1875 33.109375 48.1875 
Q 26.21875 48.1875 22.15625 43.53125 
Q 18.109375 38.875 18.109375 30.90625 
L 18.109375 0 
L 9.078125 0 
L 9.078125 54.6875 
L 18.109375 54.6875 
L 18.109375 46.1875 
Q 21.1875 51.21875 25.484375 53.609375 
Q 29.78125 56 35.6875 56 
Q 41.65625 56 45.828125 52.96875 
Q 50 49.953125 52 44.1875 
" id="BitstreamVeraSans-Roman-6d"/>
     </defs>
     <g transform="translate(296.615625 534.162375)scale(0.144 -0.144)">
      <use xlink:href="#BitstreamVeraSans-Roman-54"/>
      <use x="61.037109375" xlink:href="#BitstreamVeraSans-Roman-69"/>
      <use x="88.8203125" xlink:href="#BitstreamVeraSans-Roman-6d"/>
      <use x="186.232421875" xlink:href="#BitstreamVeraSans-Roman-65"/>
      <use x="247.755859375" xlink:href="#BitstreamVeraSans-Roman-20"/>
      <use x="279.54296875" xlink:href="#BitstreamVeraSans-Roman-28"/>
      <use x="318.556640625" xlink:href="#BitstreamVeraSans-Roman-73"/>
      <use x="370.65625" xlink:href="#BitstreamVeraSans-Roman-29"/>
     </g>
    </g>
   </g>
   <g id="matplotlib.axis_4">
    <g id="ytick_7">
     <g id="line2d_61">
      <path clip-path="url(#p5200ed5a91)" d="M 66.910875 502.606875 
L 585.310875 502.606875 
" style="fill:none;stroke:#cbcbcb;"/>
     </g>
     <g id="line2d_62"/>
     <g id="line2d_63"/>
     <g id="text_17">
      <!-- −0.15 -->
      <defs>
       <path d="M 10.796875 72.90625 
L 49.515625 72.90625 
L 49.515625 64.59375 
L 19.828125 64.59375 
L 19.828125 46.734375 
Q 21.96875 47.46875 24.109375 47.828125 
Q 26.265625 48.1875 28.421875 48.1875 
Q 40.625 48.1875 47.75 41.5 
Q 54.890625 34.8125 54.890625 23.390625 
Q 54.890625 11.625 47.5625 5.09375 
Q 40.234375 -1.421875 26.90625 -1.421875 
Q 22.3125 -1.421875 17.546875 -0.640625 
Q 12.796875 0.140625 7.71875 1.703125 
L 7.71875 11.625 
Q 12.109375 9.234375 16.796875 8.0625 
Q 21.484375 6.890625 26.703125 6.890625 
Q 35.15625 6.890625 40.078125 11.328125 
Q 45.015625 15.765625 45.015625 23.390625 
Q 45.015625 31 40.078125 35.4375 
Q 35.15625 39.890625 26.703125 39.890625 
Q 22.75 39.890625 18.8125 39.015625 
Q 14.890625 38.140625 10.796875 36.28125 
z
" id="BitstreamVeraSans-Roman-35"/>
       <path d="M 10.6875 12.40625 
L 21 12.40625 
L 21 0 
L 10.6875 0 
z
" id="BitstreamVeraSans-Roman-2e"/>
      </defs>
      <g transform="translate(26.1365 505.918125)scale(0.12 -0.12)">
       <use xlink:href="#BitstreamVeraSans-Roman-2212"/>
       <use x="83.7890625" xlink:href="#BitstreamVeraSans-Roman-30"/>
       <use x="147.412109375" xlink:href="#BitstreamVeraSans-Roman-2e"/>
       <use x="179.19921875" xlink:href="#BitstreamVeraSans-Roman-31"/>
       <use x="242.822265625" xlink:href="#BitstreamVeraSans-Roman-35"/>
      </g>
     </g>
    </g>
    <g id="ytick_8">
     <g id="line2d_64">
      <path clip-path="url(#p5200ed5a91)" d="M 66.910875 465.515966 
L 585.310875 465.515966 
" style="fill:none;stroke:#cbcbcb;"/>
     </g>
     <g id="line2d_65"/>
     <g id="line2d_66"/>
     <g id="text_18">
      <!-- −0.10 -->
      <g transform="translate(26.1365 468.827215909)scale(0.12 -0.12)">
       <use xlink:href="#BitstreamVeraSans-Roman-2212"/>
       <use x="83.7890625" xlink:href="#BitstreamVeraSans-Roman-30"/>
       <use x="147.412109375" xlink:href="#BitstreamVeraSans-Roman-2e"/>
       <use x="179.19921875" xlink:href="#BitstreamVeraSans-Roman-31"/>
       <use x="242.822265625" xlink:href="#BitstreamVeraSans-Roman-30"/>
      </g>
     </g>
    </g>
    <g id="ytick_9">
     <g id="line2d_67">
      <path clip-path="url(#p5200ed5a91)" d="M 66.910875 428.425057 
L 585.310875 428.425057 
" style="fill:none;stroke:#cbcbcb;"/>
     </g>
     <g id="line2d_68"/>
     <g id="line2d_69"/>
     <g id="text_19">
      <!-- −0.05 -->
      <g transform="translate(26.1365 431.736306818)scale(0.12 -0.12)">
       <use xlink:href="#BitstreamVeraSans-Roman-2212"/>
       <use x="83.7890625" xlink:href="#BitstreamVeraSans-Roman-30"/>
       <use x="147.412109375" xlink:href="#BitstreamVeraSans-Roman-2e"/>
       <use x="179.19921875" xlink:href="#BitstreamVeraSans-Roman-30"/>
       <use x="242.822265625" xlink:href="#BitstreamVeraSans-Roman-35"/>
      </g>
     </g>
    </g>
    <g id="ytick_10">
     <g id="line2d_70">
      <path clip-path="url(#p5200ed5a91)" d="M 66.910875 391.334148 
L 585.310875 391.334148 
" style="fill:none;stroke:#cbcbcb;"/>
     </g>
     <g id="line2d_71"/>
     <g id="line2d_72"/>
     <g id="text_20">
      <!-- 0.00 -->
      <g transform="translate(36.192125 394.645397727)scale(0.12 -0.12)">
       <use xlink:href="#BitstreamVeraSans-Roman-30"/>
       <use x="63.623046875" xlink:href="#BitstreamVeraSans-Roman-2e"/>
       <use x="95.41015625" xlink:href="#BitstreamVeraSans-Roman-30"/>
       <use x="159.033203125" xlink:href="#BitstreamVeraSans-Roman-30"/>
      </g>
     </g>
    </g>
    <g id="ytick_11">
     <g id="line2d_73">
      <path clip-path="url(#p5200ed5a91)" d="M 66.910875 354.243239 
L 585.310875 354.243239 
" style="fill:none;stroke:#cbcbcb;"/>
     </g>
     <g id="line2d_74"/>
     <g id="line2d_75"/>
     <g id="text_21">
      <!-- 0.05 -->
      <g transform="translate(36.192125 357.554488636)scale(0.12 -0.12)">
       <use xlink:href="#BitstreamVeraSans-Roman-30"/>
       <use x="63.623046875" xlink:href="#BitstreamVeraSans-Roman-2e"/>
       <use x="95.41015625" xlink:href="#BitstreamVeraSans-Roman-30"/>
       <use x="159.033203125" xlink:href="#BitstreamVeraSans-Roman-35"/>
      </g>
     </g>
    </g>
    <g id="ytick_12">
     <g id="line2d_76">
      <path clip-path="url(#p5200ed5a91)" d="M 66.910875 317.15233 
L 585.310875 317.15233 
" style="fill:none;stroke:#cbcbcb;"/>
     </g>
     <g id="line2d_77"/>
     <g id="line2d_78"/>
     <g id="text_22">
      <!-- 0.10 -->
      <g transform="translate(36.192125 320.463579545)scale(0.12 -0.12)">
       <use xlink:href="#BitstreamVeraSans-Roman-30"/>
       <use x="63.623046875" xlink:href="#BitstreamVeraSans-Roman-2e"/>
       <use x="95.41015625" xlink:href="#BitstreamVeraSans-Roman-31"/>
       <use x="159.033203125" xlink:href="#BitstreamVeraSans-Roman-30"/>
      </g>
     </g>
    </g>
    <g id="ytick_13">
     <g id="line2d_79">
      <path clip-path="url(#p5200ed5a91)" d="M 66.910875 280.06142 
L 585.310875 280.06142 
" style="fill:none;stroke:#cbcbcb;"/>
     </g>
     <g id="line2d_80"/>
     <g id="line2d_81"/>
     <g id="text_23">
      <!-- 0.15 -->
      <g transform="translate(36.192125 283.372670455)scale(0.12 -0.12)">
       <use xlink:href="#BitstreamVeraSans-Roman-30"/>
       <use x="63.623046875" xlink:href="#BitstreamVeraSans-Roman-2e"/>
       <use x="95.41015625" xlink:href="#BitstreamVeraSans-Roman-31"/>
       <use x="159.033203125" xlink:href="#BitstreamVeraSans-Roman-35"/>
      </g>
     </g>
    </g>
    <g id="text_24">
     <!-- Rotor powers (MVA) -->
     <defs>
      <path d="M 9.8125 72.90625 
L 24.515625 72.90625 
L 43.109375 23.296875 
L 61.8125 72.90625 
L 76.515625 72.90625 
L 76.515625 0 
L 66.890625 0 
L 66.890625 64.015625 
L 48.09375 14.015625 
L 38.1875 14.015625 
L 19.390625 64.015625 
L 19.390625 0 
L 9.8125 0 
z
" id="BitstreamVeraSans-Roman-4d"/>
      <path d="M 18.109375 8.203125 
L 18.109375 -20.796875 
L 9.078125 -20.796875 
L 9.078125 54.6875 
L 18.109375 54.6875 
L 18.109375 46.390625 
Q 20.953125 51.265625 25.265625 53.625 
Q 29.59375 56 35.59375 56 
Q 45.5625 56 51.78125 48.09375 
Q 58.015625 40.1875 58.015625 27.296875 
Q 58.015625 14.40625 51.78125 6.484375 
Q 45.5625 -1.421875 35.59375 -1.421875 
Q 29.59375 -1.421875 25.265625 0.953125 
Q 20.953125 3.328125 18.109375 8.203125 
M 48.6875 27.296875 
Q 48.6875 37.203125 44.609375 42.84375 
Q 40.53125 48.484375 33.40625 48.484375 
Q 26.265625 48.484375 22.1875 42.84375 
Q 18.109375 37.203125 18.109375 27.296875 
Q 18.109375 17.390625 22.1875 11.75 
Q 26.265625 6.109375 33.40625 6.109375 
Q 40.53125 6.109375 44.609375 11.75 
Q 48.6875 17.390625 48.6875 27.296875 
" id="BitstreamVeraSans-Roman-70"/>
      <path d="M 4.203125 54.6875 
L 13.1875 54.6875 
L 24.421875 12.015625 
L 35.59375 54.6875 
L 46.1875 54.6875 
L 57.421875 12.015625 
L 68.609375 54.6875 
L 77.59375 54.6875 
L 63.28125 0 
L 52.6875 0 
L 40.921875 44.828125 
L 29.109375 0 
L 18.5 0 
z
" id="BitstreamVeraSans-Roman-77"/>
      <path d="M 34.1875 63.1875 
L 20.796875 26.90625 
L 47.609375 26.90625 
z
M 28.609375 72.90625 
L 39.796875 72.90625 
L 67.578125 0 
L 57.328125 0 
L 50.6875 18.703125 
L 17.828125 18.703125 
L 11.1875 0 
L 0.78125 0 
z
" id="BitstreamVeraSans-Roman-41"/>
     </defs>
     <g transform="translate(18.14175 463.182272727)rotate(-90.0)scale(0.144 -0.144)">
      <use xlink:href="#BitstreamVeraSans-Roman-52"/>
      <use x="69.419921875" xlink:href="#BitstreamVeraSans-Roman-6f"/>
      <use x="130.6015625" xlink:href="#BitstreamVeraSans-Roman-74"/>
      <use x="169.810546875" xlink:href="#BitstreamVeraSans-Roman-6f"/>
      <use x="230.9921875" xlink:href="#BitstreamVeraSans-Roman-72"/>
      <use x="272.10546875" xlink:href="#BitstreamVeraSans-Roman-20"/>
      <use x="303.892578125" xlink:href="#BitstreamVeraSans-Roman-70"/>
      <use x="367.369140625" xlink:href="#BitstreamVeraSans-Roman-6f"/>
      <use x="428.55078125" xlink:href="#BitstreamVeraSans-Roman-77"/>
      <use x="510.337890625" xlink:href="#BitstreamVeraSans-Roman-65"/>
      <use x="571.861328125" xlink:href="#BitstreamVeraSans-Roman-72"/>
      <use x="612.974609375" xlink:href="#BitstreamVeraSans-Roman-73"/>
      <use x="665.07421875" xlink:href="#BitstreamVeraSans-Roman-20"/>
      <use x="696.861328125" xlink:href="#BitstreamVeraSans-Roman-28"/>
      <use x="735.875" xlink:href="#BitstreamVeraSans-Roman-4d"/>
      <use x="822.154296875" xlink:href="#BitstreamVeraSans-Roman-56"/>
      <use x="890.46875" xlink:href="#BitstreamVeraSans-Roman-41"/>
      <use x="958.876953125" xlink:href="#BitstreamVeraSans-Roman-29"/>
     </g>
    </g>
   </g>
   <g id="line2d_82">
    <path clip-path="url(#p5200ed5a91)" d="M 66.910875 380.818193 
L 67.429275 387.398235 
L 67.947675 387.177171 
L 68.466075 387.231481 
L 69.502875 387.020496 
L 74.168475 385.549271 
L 76.242075 385.194077 
L 79.352475 384.922206 
L 84.018075 384.783995 
L 95.941275 384.741164 
L 144.670875 384.740208 
L 146.226075 375.707764 
L 147.781275 367.719232 
L 148.818075 363.44296 
L 150.373275 358.45046 
L 151.410075 355.879261 
L 151.928475 354.756055 
L 154.002075 352.044692 
L 154.520475 351.451257 
L 155.557275 350.609849 
L 156.075675 350.401471 
L 157.630875 349.426065 
L 159.704475 348.892377 
L 161.259675 348.30725 
L 161.778075 348.215672 
L 162.296475 348.333511 
L 162.814875 348.022954 
L 163.333275 348.031319 
L 163.851675 347.770588 
L 165.406875 347.677066 
L 166.443675 347.29971 
L 167.998875 346.96178 
L 169.035675 346.888617 
L 171.109275 347.026012 
L 172.664475 346.812588 
L 175.256475 346.931886 
L 175.774875 347.190787 
L 176.293275 347.229557 
L 176.811675 347.108645 
L 177.848475 347.197195 
L 178.366875 347.122839 
L 178.885275 347.257772 
L 179.403675 347.155317 
L 179.922075 347.232404 
L 180.440475 347.111029 
L 180.958875 347.186371 
L 183.032475 346.898884 
L 184.069275 347.119324 
L 185.106075 346.843423 
L 186.142875 346.829106 
L 186.661275 346.712491 
L 188.734875 346.847632 
L 189.253275 346.766929 
L 189.771675 346.807195 
L 190.808475 346.649304 
L 191.326875 346.672699 
L 192.363675 346.531339 
L 192.882075 346.523426 
L 193.400475 346.353019 
L 195.474075 346.300858 
L 195.992475 346.184054 
L 196.510875 346.208306 
L 197.029275 346.360408 
L 197.547675 346.175517 
L 199.621275 345.953687 
L 200.658075 346.165939 
L 201.694875 346.018524 
L 202.731675 345.880081 
L 203.768475 345.831774 
L 206.360475 345.660744 
L 208.952475 345.532554 
L 211.544475 345.666323 
L 214.136475 345.212699 
L 214.654875 345.261003 
L 215.691675 345.101001 
L 216.210075 345.075188 
L 217.246875 345.232011 
L 218.283675 345.166879 
L 219.320475 345.059595 
L 219.838875 344.863441 
L 220.357275 344.883861 
L 220.875675 344.727778 
L 222.430875 344.981601 
L 223.467675 344.888313 
L 226.578075 344.949705 
L 227.096475 344.883701 
L 228.651675 344.989454 
L 230.206875 344.79763 
L 230.725275 344.852581 
L 234.872475 344.396334 
L 235.909275 344.735817 
L 237.464475 344.503077 
L 239.019675 344.817064 
L 240.056475 344.706858 
L 241.093275 344.862448 
L 242.648475 344.853152 
L 243.685275 344.526526 
L 244.203675 344.499263 
L 244.722075 344.633632 
L 245.758875 344.452095 
L 246.277275 344.541305 
L 247.832475 344.32143 
L 249.906075 344.307568 
L 250.942875 344.438293 
L 255.090075 344.521026 
L 256.126875 344.791395 
L 256.645275 344.792922 
L 257.682075 344.524143 
L 258.718875 344.431806 
L 259.755675 344.475113 
L 262.866075 344.509338 
L 266.494875 344.534155 
L 267.531675 344.380215 
L 268.050075 344.560308 
L 269.605275 344.513048 
L 271.160475 344.616964 
L 271.678875 344.665621 
L 272.197275 344.40598 
L 274.270875 344.446421 
L 274.789275 343.627511 
L 276.344475 342.046976 
L 277.381275 341.03364 
L 278.936475 340.012598 
L 281.528475 339.21222 
L 282.565275 339.076156 
L 283.083675 339.039702 
L 284.638875 338.509519 
L 285.675675 338.337091 
L 286.194075 338.283951 
L 286.712475 338.114421 
L 288.267675 337.982666 
L 288.786075 337.67263 
L 289.304475 337.688446 
L 290.341275 337.488647 
L 290.859675 337.628196 
L 292.414875 337.597287 
L 293.451675 337.550162 
L 296.043675 337.045389 
L 298.635675 337.15569 
L 299.154075 337.273157 
L 300.190875 337.107483 
L 304.338075 337.543535 
L 304.856475 337.559908 
L 305.374875 337.429925 
L 306.930075 337.561468 
L 309.003675 337.45382 
L 310.558875 337.658335 
L 312.114075 337.630027 
L 313.669275 337.740866 
L 314.706075 337.567627 
L 316.261275 337.602154 
L 318.334875 337.510165 
L 319.371675 337.200393 
L 323.518875 336.780874 
L 324.037275 336.591025 
L 324.555675 336.723177 
L 325.074075 336.714011 
L 325.592475 336.83102 
L 327.666075 336.409754 
L 328.702875 336.257548 
L 329.221275 336.375779 
L 329.739675 336.214634 
L 330.258075 336.375202 
L 330.776475 336.290767 
L 331.294875 336.396596 
L 331.813275 336.621669 
L 333.886875 336.352174 
L 337.515675 336.700144 
L 338.034075 336.865671 
L 339.070875 336.882167 
L 340.626075 336.620781 
L 341.144475 336.653279 
L 341.662875 336.571695 
L 342.181275 336.784953 
L 345.291675 336.667964 
L 348.402075 336.511834 
L 348.920475 336.713947 
L 349.438875 336.722972 
L 349.957275 336.854262 
L 350.994075 336.578682 
L 351.512475 336.584373 
L 352.030875 336.421631 
L 353.586075 336.34437 
L 354.104475 336.30773 
L 354.622875 336.433486 
L 355.141275 336.279903 
L 355.659675 336.281514 
L 356.178075 336.151622 
L 356.696475 336.234197 
L 357.214875 336.113639 
L 359.806875 336.205107 
L 360.325275 336.076599 
L 362.398875 336.088153 
L 363.435675 336.070321 
L 364.990875 336.168574 
L 365.509275 336.071037 
L 366.027675 336.127647 
L 366.546075 336.005764 
L 368.619675 336.019738 
L 369.138075 335.888945 
L 370.174875 336.008984 
L 371.211675 336.1008 
L 371.730075 336.042521 
L 373.285275 336.225825 
L 373.803675 336.142634 
L 375.358875 336.255817 
L 375.877275 336.24178 
L 376.914075 335.983785 
L 377.432475 335.90792 
L 378.469275 336.021595 
L 378.987675 335.882173 
L 379.506075 336.093278 
L 380.024475 336.033313 
L 380.542875 336.220224 
L 381.579675 336.22251 
L 383.134875 336.415532 
L 384.690075 336.52584 
L 385.726875 336.543369 
L 390.910875 336.176235 
L 391.947675 336.195379 
L 392.984475 336.113806 
L 394.021275 336.146926 
L 395.058075 336.335024 
L 395.576475 336.255397 
L 396.094875 336.363612 
L 397.131675 336.135012 
L 399.723675 336.306057 
L 400.242075 336.154073 
L 401.797275 336.188315 
L 402.834075 336.397295 
L 403.352475 336.274256 
L 405.426075 336.298368 
L 410.091675 335.858619 
L 410.610075 335.958707 
L 413.202075 335.829884 
L 413.720475 335.990562 
L 416.312475 335.663146 
L 419.422875 335.254182 
L 419.941275 334.973872 
L 422.014875 335.192865 
L 423.051675 335.4284 
L 425.125275 335.49566 
L 425.643675 335.407487 
L 426.162075 335.461553 
L 426.680475 335.675464 
L 427.717275 335.279509 
L 429.272475 335.385256 
L 430.309275 335.636125 
L 433.419675 335.217276 
L 434.456475 335.320975 
L 436.530075 335.29238 
L 438.603675 335.302058 
L 440.158875 335.15464 
L 443.269275 335.344107 
L 444.824475 335.468831 
L 445.342875 335.566189 
L 450.008475 335.144085 
L 450.526875 335.022021 
L 451.563675 335.048467 
L 452.082075 334.914816 
L 452.600475 335.019221 
L 453.118875 334.972886 
L 453.637275 334.78748 
L 456.229275 335.018337 
L 457.266075 335.073075 
L 459.858075 335.11904 
L 460.376475 335.264766 
L 462.450075 335.209076 
L 463.486875 335.018154 
L 464.005275 335.110151 
L 465.042075 335.05739 
L 466.078875 334.880534 
L 467.634075 334.598234 
L 468.670875 334.609517 
L 469.707675 334.562802 
L 470.226075 334.564498 
L 470.744475 334.395189 
L 471.262875 334.566482 
L 472.299675 334.28423 
L 473.336475 334.511295 
L 473.854875 334.401374 
L 474.891675 334.537493 
L 475.410075 334.560141 
L 475.928475 334.452926 
L 476.965275 334.530626 
L 478.002075 334.524188 
L 478.520475 334.606163 
L 479.038875 334.390779 
L 479.557275 334.380757 
L 480.075675 334.548583 
L 480.594075 334.459797 
L 481.112475 334.570356 
L 483.704475 334.38805 
L 484.222875 334.269236 
L 484.741275 334.552758 
L 487.851675 334.361208 
L 488.888475 334.154138 
L 489.925275 334.318097 
L 490.962075 334.255331 
L 491.998875 333.985457 
L 493.554075 334.02866 
L 494.072475 333.818158 
L 494.590875 333.738871 
L 495.627675 333.813767 
L 496.146075 333.511621 
L 497.182875 333.335173 
L 500.811675 333.118414 
L 501.330075 333.250648 
L 502.366875 333.286396 
L 502.885275 333.052927 
L 503.403675 333.108721 
L 503.922075 332.98249 
L 504.440475 333.028452 
L 505.477275 332.83459 
L 507.032475 332.753973 
L 507.550875 332.610371 
L 508.587675 332.665759 
L 509.106075 332.760524 
L 510.661275 332.508103 
L 511.179675 332.744367 
L 512.734875 332.776376 
L 513.771675 332.749708 
L 514.290075 332.666414 
L 514.808475 332.757134 
L 516.363675 332.658835 
L 517.918875 332.811458 
L 519.474075 332.640029 
L 519.992475 332.533567 
L 521.547675 332.769151 
L 522.584475 332.545308 
L 523.102875 332.653543 
L 523.621275 332.627926 
L 524.658075 332.787602 
L 525.176475 332.698032 
L 526.213275 332.824126 
L 528.805275 332.735262 
L 529.842075 332.933417 
L 530.878875 332.743716 
L 532.434075 333.051125 
L 532.952475 332.896993 
L 534.507675 332.839678 
L 535.026075 333.072736 
L 537.099675 333.089908 
L 538.136475 333.051189 
L 539.173275 332.953003 
L 539.691675 333.077122 
L 549.541275 332.486137 
L 551.096475 332.487336 
L 551.614875 332.416992 
L 552.133275 332.544459 
L 553.170075 332.460568 
L 553.688475 332.358869 
L 554.725275 332.450005 
L 559.390875 331.996758 
L 560.427675 332.096703 
L 561.464475 332.031377 
L 563.019675 332.187063 
L 563.538075 332.219923 
L 564.574875 332.093765 
L 566.130075 332.161524 
L 566.648475 331.886801 
L 567.166875 331.738915 
L 568.203675 331.808671 
L 568.722075 331.617534 
L 569.240475 331.662525 
L 570.277275 331.476682 
L 572.350875 331.885673 
L 572.869275 331.873047 
L 573.387675 331.975272 
L 574.424475 331.841735 
L 574.942875 331.87886 
L 575.461275 331.768093 
L 576.498075 331.822255 
L 578.053275 331.67283 
L 579.608475 331.60786 
L 582.200475 331.53529 
L 582.718875 331.315044 
L 584.792475 331.537192 
L 584.792475 331.537192 
" style="fill:none;stroke:#30a2da;stroke-width:4.0;"/>
   </g>
   <g id="line2d_83">
    <path clip-path="url(#p5200ed5a91)" d="M 66.910875 387.625133 
L 67.429275 410.909726 
L 68.466075 430.717411 
L 69.502875 446.329387 
L 70.539675 458.155747 
L 71.576475 467.082894 
L 72.613275 473.805363 
L 73.650075 478.858713 
L 74.686875 482.652449 
L 75.723675 485.497827 
L 76.760475 487.630414 
L 77.797275 489.227935 
L 78.834075 490.424176 
L 79.870875 491.319678 
L 80.907675 491.989904 
L 82.462875 492.692664 
L 84.018075 493.147476 
L 86.091675 493.514644 
L 89.202075 493.785868 
L 93.867675 493.928218 
L 105.272475 493.978882 
L 118.750875 493.980997 
L 122.379675 476.408323 
L 124.971675 464.325862 
L 127.045275 454.028975 
L 128.600475 446.264458 
L 130.674075 435.699622 
L 132.229275 428.379618 
L 136.894875 404.855426 
L 138.968475 394.637507 
L 141.042075 383.63766 
L 143.115675 373.560854 
L 145.707675 361.063625 
L 146.744475 357.367214 
L 147.262875 355.694657 
L 148.299675 353.357236 
L 148.818075 352.296242 
L 149.336475 351.552893 
L 149.854875 350.5452 
L 151.928475 347.856167 
L 152.446875 347.754267 
L 153.483675 347.060636 
L 154.002075 346.903709 
L 154.520475 346.561729 
L 155.557275 346.196758 
L 156.075675 346.243577 
L 157.630875 345.619354 
L 158.149275 345.661803 
L 160.741275 345.212534 
L 161.259675 344.945888 
L 161.778075 344.887171 
L 162.296475 345.116203 
L 162.814875 344.729076 
L 163.333275 344.787262 
L 163.851675 344.458156 
L 165.406875 344.416927 
L 165.925275 344.096755 
L 167.998875 343.493517 
L 168.517275 343.3765 
L 171.627675 343.486992 
L 172.146075 343.29164 
L 175.256475 343.523005 
L 175.774875 343.889447 
L 176.293275 343.945361 
L 176.811675 343.77601 
L 177.330075 343.916997 
L 178.366875 343.798494 
L 178.885275 343.989306 
L 179.403675 343.845419 
L 179.922075 343.954537 
L 180.440475 343.78385 
L 180.958875 343.890392 
L 182.514075 343.42048 
L 183.032475 343.486148 
L 183.550875 343.704686 
L 184.069275 343.797171 
L 185.106075 343.408526 
L 185.624475 343.456033 
L 187.179675 343.308965 
L 188.216475 343.419783 
L 189.771675 343.357974 
L 190.808475 343.135478 
L 191.326875 343.168473 
L 192.363675 342.96926 
L 192.882075 342.95812 
L 193.400475 342.717948 
L 194.437275 342.632892 
L 196.510875 342.514018 
L 197.029275 342.728406 
L 197.547675 342.467811 
L 199.621275 342.155158 
L 200.658075 342.454324 
L 201.694875 342.246549 
L 202.731675 342.05142 
L 203.250075 342.08842 
L 204.805275 341.872399 
L 210.507675 341.603257 
L 211.544475 341.750139 
L 214.136475 341.11077 
L 214.654875 341.178853 
L 215.173275 340.997103 
L 216.210075 340.916952 
L 217.246875 341.137989 
L 218.283675 341.046188 
L 219.320475 340.894974 
L 219.838875 340.618501 
L 220.357275 340.647282 
L 220.875675 340.427289 
L 222.430875 340.785044 
L 223.467675 340.653557 
L 224.504475 340.674477 
L 225.022875 340.858181 
L 227.614875 340.731877 
L 228.133275 340.844907 
L 229.688475 340.632377 
L 230.206875 340.525742 
L 230.725275 340.603194 
L 234.872475 339.960128 
L 235.390875 340.275485 
L 235.909275 340.438618 
L 237.464475 340.110579 
L 239.019675 340.553135 
L 240.056475 340.397802 
L 241.093275 340.617102 
L 242.648475 340.603999 
L 243.166875 340.29027 
L 244.203675 340.105203 
L 244.722075 340.294593 
L 245.758875 340.038721 
L 246.277275 340.164459 
L 247.314075 339.816171 
L 248.350875 339.818813 
L 249.387675 339.774343 
L 252.498075 340.059393 
L 253.534875 339.957446 
L 254.571675 340.076802 
L 255.090075 340.135878 
L 256.126875 340.516954 
L 256.645275 340.519106 
L 257.682075 340.14027 
L 258.718875 340.010125 
L 259.237275 340.108646 
L 260.274075 340.053901 
L 260.792475 340.150896 
L 261.310875 339.913745 
L 262.347675 340.078795 
L 264.939675 340.310228 
L 265.976475 340.089057 
L 266.494875 340.154382 
L 267.531675 339.937409 
L 268.050075 340.191245 
L 269.605275 340.124632 
L 270.642075 340.043539 
L 271.160475 340.271098 
L 271.678875 340.339679 
L 272.197275 339.973723 
L 273.752475 340.089397 
L 274.270875 340.030723 
L 274.789275 336.861803 
L 276.344475 330.792782 
L 277.381275 327.584759 
L 278.418075 325.261734 
L 278.936475 324.333614 
L 279.454875 323.683305 
L 280.491675 322.660398 
L 281.528475 321.633504 
L 282.046875 321.276639 
L 283.083675 320.942374 
L 284.638875 319.687081 
L 285.157275 319.567866 
L 285.675675 319.248159 
L 286.194075 319.103783 
L 286.712475 318.735646 
L 288.267675 318.398832 
L 288.786075 317.766915 
L 289.304475 317.781797 
L 290.341275 317.359826 
L 290.859675 317.625933 
L 291.896475 317.803294 
L 292.414875 317.541494 
L 292.933275 317.55168 
L 293.970075 317.221125 
L 294.488475 316.980152 
L 295.006875 316.959796 
L 295.525275 316.540154 
L 296.043675 316.41906 
L 297.598875 316.478899 
L 298.117275 316.647129 
L 298.635675 316.630528 
L 299.154075 316.862993 
L 300.190875 316.532278 
L 301.227675 316.780845 
L 302.264475 317.243187 
L 303.819675 317.245606 
L 304.338075 317.395895 
L 304.856475 317.428264 
L 305.374875 317.169783 
L 305.893275 317.294772 
L 306.411675 317.249234 
L 306.930075 317.43089 
L 307.966875 317.222402 
L 308.485275 317.293488 
L 309.003675 317.216682 
L 310.040475 317.657908 
L 312.114075 317.566713 
L 313.669275 317.786965 
L 314.187675 317.531216 
L 314.706075 317.442626 
L 315.742875 317.539705 
L 318.334875 317.328382 
L 318.853275 316.934242 
L 319.890075 316.607674 
L 321.445275 316.403535 
L 321.963675 316.049135 
L 322.482075 315.937772 
L 323.518875 315.878872 
L 324.037275 315.50154 
L 324.555675 315.764196 
L 325.074075 315.745978 
L 325.592475 315.978537 
L 327.147675 315.327262 
L 328.702875 314.838738 
L 329.221275 315.073727 
L 329.739675 314.753444 
L 330.258075 315.07258 
L 330.776475 314.90476 
L 331.294875 315.1151 
L 331.813275 315.562442 
L 332.331675 315.372765 
L 332.850075 315.358125 
L 333.368475 314.945367 
L 336.478875 315.518312 
L 336.997275 315.774315 
L 337.515675 315.718414 
L 338.034075 316.047406 
L 339.070875 316.080192 
L 340.107675 315.643178 
L 340.626075 315.560676 
L 341.144475 315.625268 
L 341.662875 315.463116 
L 342.181275 315.886974 
L 344.254875 315.92881 
L 344.773275 315.647558 
L 346.328475 315.685505 
L 346.846875 315.475939 
L 347.883675 315.677376 
L 348.402075 315.34414 
L 348.920475 315.745848 
L 349.438875 315.763786 
L 349.957275 316.02473 
L 350.994075 315.477003 
L 351.512475 315.488314 
L 352.030875 315.164858 
L 353.067675 315.092767 
L 354.104475 314.938475 
L 354.622875 315.188421 
L 355.141275 314.883168 
L 355.659675 314.886371 
L 356.178075 314.628204 
L 356.696475 314.792325 
L 357.214875 314.552712 
L 357.733275 314.599652 
L 358.251675 314.802048 
L 358.770075 314.744267 
L 359.288475 314.814013 
L 359.806875 314.734508 
L 360.325275 314.479092 
L 361.880475 314.593983 
L 362.917275 314.410446 
L 363.954075 314.545279 
L 364.472475 314.801959 
L 365.509275 314.468037 
L 366.027675 314.580553 
L 366.546075 314.338305 
L 367.582875 314.280093 
L 368.101275 314.174419 
L 368.619675 314.366079 
L 369.138075 314.106124 
L 369.656475 314.138291 
L 370.693275 314.4423 
L 371.211675 314.527193 
L 371.730075 314.411362 
L 373.285275 314.775685 
L 373.803675 314.61034 
L 374.840475 314.77287 
L 375.877275 314.807397 
L 376.395675 314.463009 
L 377.432475 314.143837 
L 378.469275 314.369771 
L 378.987675 314.092663 
L 379.506075 314.512244 
L 380.024475 314.393061 
L 380.542875 314.764553 
L 381.579675 314.769097 
L 382.616475 315.018357 
L 383.134875 315.152736 
L 384.171675 315.228404 
L 385.208475 315.496859 
L 386.245275 315.321587 
L 386.763675 315.369721 
L 387.282075 315.155424 
L 387.800475 315.181827 
L 388.318875 314.927967 
L 394.021275 314.618871 
L 394.539675 314.896645 
L 395.058075 314.992723 
L 395.576475 314.834461 
L 396.094875 315.049543 
L 396.613275 314.708278 
L 397.131675 314.595191 
L 398.168475 314.803922 
L 399.205275 314.9563 
L 399.723675 314.935151 
L 400.242075 314.633077 
L 400.760475 314.663101 
L 401.278875 314.845127 
L 401.797275 314.701134 
L 402.315675 314.9755 
L 402.834075 315.116489 
L 403.352475 314.871945 
L 403.870875 314.915319 
L 404.389275 315.10522 
L 405.944475 314.81191 
L 406.981275 314.407207 
L 407.499675 314.66058 
L 409.054875 314.175135 
L 409.573275 314.166776 
L 410.091675 314.04585 
L 410.610075 314.244778 
L 411.646875 314.19668 
L 412.165275 314.261205 
L 413.202075 313.988737 
L 413.720475 314.308091 
L 414.757275 314.008731 
L 415.275675 313.610983 
L 415.794075 313.815017 
L 416.830875 313.54299 
L 417.349275 313.631258 
L 417.867675 313.428736 
L 418.386075 313.406473 
L 419.422875 312.844507 
L 419.941275 312.287379 
L 420.978075 312.454115 
L 423.570075 313.233076 
L 424.088475 313.077778 
L 424.606875 313.354908 
L 425.125275 313.324453 
L 425.643675 313.149206 
L 426.162075 313.256664 
L 426.680475 313.681822 
L 427.717275 312.894845 
L 428.754075 313.052334 
L 429.272475 313.105021 
L 430.309275 313.603633 
L 430.827675 313.453527 
L 431.864475 312.945794 
L 432.382875 312.971507 
L 433.419675 312.771155 
L 433.938075 312.941152 
L 436.011675 313.039696 
L 436.530075 312.920427 
L 437.566875 312.990562 
L 438.085275 312.808993 
L 438.603675 312.939663 
L 439.640475 312.653482 
L 440.677275 312.739395 
L 441.195675 313.036698 
L 442.232475 312.893607 
L 444.306075 313.001681 
L 445.342875 313.464632 
L 445.861275 313.388075 
L 446.379675 313.517185 
L 446.898075 313.152443 
L 448.453275 312.858515 
L 448.971675 313.026444 
L 449.490075 312.892455 
L 450.526875 312.383078 
L 451.045275 312.475765 
L 451.563675 312.435639 
L 452.082075 312.170004 
L 452.600475 312.377512 
L 453.118875 312.28542 
L 453.637275 311.916918 
L 454.155675 311.979833 
L 455.192475 312.313824 
L 456.229275 312.375756 
L 456.747675 312.523873 
L 458.302875 312.517322 
L 459.339675 312.466258 
L 459.858075 312.575906 
L 460.376475 312.865543 
L 460.894875 312.854202 
L 461.413275 313.026454 
L 461.931675 313.026725 
L 462.968475 312.585172 
L 463.486875 312.375392 
L 464.005275 312.558239 
L 464.523675 312.405482 
L 465.042075 312.453375 
L 465.560475 312.354396 
L 467.115675 311.662523 
L 467.634075 311.540783 
L 468.152475 311.620635 
L 470.226075 311.473732 
L 470.744475 311.137223 
L 471.262875 311.477675 
L 472.299675 310.916687 
L 473.336475 311.367988 
L 473.854875 311.149517 
L 474.373275 311.387873 
L 475.410075 311.465073 
L 475.928475 311.251977 
L 476.446875 311.426513 
L 478.002075 311.393615 
L 478.520475 311.556542 
L 479.038875 311.128458 
L 479.557275 311.108539 
L 480.075675 311.442099 
L 480.594075 311.265634 
L 481.112475 311.485375 
L 483.186075 311.238763 
L 483.704475 311.123034 
L 484.222875 310.886887 
L 484.741275 311.450397 
L 485.778075 311.406876 
L 486.296475 311.445611 
L 486.814875 311.20338 
L 487.333275 311.21714 
L 488.370075 310.826285 
L 488.888475 310.658125 
L 489.406875 310.904112 
L 490.443675 311.015383 
L 490.962075 310.85925 
L 491.998875 310.322865 
L 492.517275 310.333521 
L 493.035675 310.2037 
L 493.554075 310.408733 
L 494.072475 309.990351 
L 494.590875 309.832765 
L 495.627675 309.981624 
L 496.146075 309.381097 
L 497.182875 309.0304 
L 500.811675 308.599582 
L 501.330075 308.862402 
L 502.366875 308.933453 
L 502.885275 308.469424 
L 503.403675 308.580318 
L 503.922075 308.329427 
L 504.440475 308.420779 
L 504.958875 308.12626 
L 505.995675 308.047083 
L 507.032475 307.875242 
L 507.550875 307.589826 
L 508.069275 307.573576 
L 509.106075 307.888262 
L 510.142875 307.636271 
L 510.661275 307.386564 
L 511.179675 307.85615 
L 512.216475 307.831303 
L 513.253275 307.981561 
L 514.290075 307.701215 
L 514.808475 307.881524 
L 516.363675 307.686151 
L 517.918875 307.989494 
L 518.437275 307.907719 
L 518.955675 307.655006 
L 519.474075 307.648773 
L 519.992475 307.437175 
L 521.547675 307.905409 
L 522.584475 307.460511 
L 523.102875 307.675634 
L 523.621275 307.624717 
L 524.658075 307.942081 
L 525.176475 307.764057 
L 525.694875 307.993792 
L 527.250075 308.04424 
L 528.286875 307.896082 
L 528.805275 307.838053 
L 529.842075 308.231894 
L 530.878875 307.854855 
L 532.434075 308.465842 
L 532.952475 308.159499 
L 533.470875 308.163065 
L 533.989275 308.028757 
L 534.507675 308.045584 
L 535.026075 308.508795 
L 536.581275 308.398776 
L 537.618075 308.609565 
L 539.173275 308.270821 
L 539.691675 308.517513 
L 540.728475 308.41995 
L 541.246875 308.472235 
L 541.765275 308.102656 
L 542.283675 307.962324 
L 542.802075 308.037525 
L 543.320475 307.837828 
L 546.430875 307.745384 
L 549.022875 307.273731 
L 550.578075 307.450719 
L 551.614875 307.205478 
L 552.133275 307.458824 
L 553.170075 307.292088 
L 553.688475 307.089956 
L 554.725275 307.271093 
L 555.762075 307.024127 
L 556.280475 306.840174 
L 557.317275 306.736131 
L 557.835675 306.773191 
L 558.872475 306.409294 
L 559.390875 306.370246 
L 559.909275 306.557897 
L 560.427675 306.568892 
L 560.946075 306.439976 
L 561.464475 306.439052 
L 562.501275 306.64964 
L 563.538075 306.813796 
L 564.056475 306.620932 
L 564.574875 306.563052 
L 565.611675 306.662286 
L 566.130075 306.697725 
L 566.648475 306.151703 
L 567.166875 305.857772 
L 567.685275 305.864606 
L 568.203675 305.996416 
L 568.722075 305.616523 
L 569.240475 305.705945 
L 570.277275 305.336575 
L 572.350875 306.149461 
L 572.869275 306.124366 
L 573.387675 306.327543 
L 573.906075 306.102561 
L 574.424475 306.062131 
L 574.942875 306.135919 
L 575.461275 305.915765 
L 576.498075 306.023415 
L 577.534875 305.660387 
L 578.053275 305.726427 
L 579.090075 305.584853 
L 581.163675 305.539223 
L 581.682075 305.322036 
L 582.200475 305.453059 
L 582.718875 305.015312 
L 584.792475 305.456841 
L 584.792475 305.456841 
" style="fill:none;stroke:#e5ae38;stroke-width:4.0;"/>
   </g>
   <g id="line2d_84">
    <path clip-path="url(#p5200ed5a91)" d="M 66.910875 380.183269 
L 67.947675 361.286093 
L 68.984475 343.426526 
L 70.021275 329.84901 
L 71.058075 319.569385 
L 72.094875 311.813861 
L 73.131675 305.976433 
L 74.168475 301.59009 
L 75.205275 298.29815 
L 76.242075 295.829779 
L 77.278875 293.980169 
L 78.315675 292.594892 
L 79.352475 291.55776 
L 80.389275 290.781489 
L 81.944475 289.967527 
L 83.499675 289.440771 
L 85.573275 289.015568 
L 88.165275 288.736845 
L 92.312475 288.557377 
L 100.606875 288.483666 
L 118.750875 288.475722 
L 122.379675 306.004813 
L 124.971675 318.045196 
L 127.045275 328.293515 
L 128.600475 336.009479 
L 130.674075 346.481329 
L 132.229275 353.706407 
L 135.339675 369.165135 
L 137.931675 380.603576 
L 138.450075 382.500002 
L 138.968475 383.95904 
L 139.486875 384.726986 
L 140.005275 384.3584 
L 140.523675 383.002122 
L 141.560475 379.274363 
L 143.115675 372.37709 
L 144.670875 364.992595 
L 146.226075 355.519937 
L 147.781275 347.529501 
L 148.818075 343.356273 
L 150.891675 337.019803 
L 151.928475 334.516091 
L 152.446875 333.984384 
L 153.483675 332.487857 
L 154.002075 332.023734 
L 154.520475 331.374041 
L 155.557275 330.540624 
L 156.075675 330.435513 
L 157.630875 329.316975 
L 158.149275 329.275911 
L 159.186075 328.99818 
L 159.704475 328.862263 
L 160.222875 328.569954 
L 160.741275 328.425687 
L 161.259675 328.063423 
L 161.778075 327.958091 
L 162.296475 328.206078 
L 162.814875 327.711099 
L 163.333275 327.759407 
L 163.851675 327.340849 
L 165.406875 327.246969 
L 165.925275 326.847331 
L 166.962075 326.401095 
L 167.480475 326.059538 
L 167.998875 326.083608 
L 168.517275 325.936065 
L 169.554075 326.032796 
L 170.072475 325.936459 
L 170.590875 326.022281 
L 171.109275 326.228793 
L 172.146075 325.810951 
L 175.256475 326.084886 
L 175.774875 326.52955 
L 176.293275 326.596893 
L 176.811675 326.390545 
L 177.330075 326.561438 
L 178.366875 326.416675 
L 178.885275 326.648284 
L 179.403675 326.473155 
L 179.922075 326.60555 
L 180.440475 326.397909 
L 180.958875 326.527234 
L 182.514075 325.955691 
L 183.032475 326.035421 
L 183.550875 326.300973 
L 184.069275 326.413312 
L 185.106075 325.940802 
L 185.624475 325.998504 
L 186.142875 325.916399 
L 186.661275 325.716644 
L 188.216475 325.954288 
L 188.734875 325.948339 
L 189.253275 325.810091 
L 189.771675 325.879104 
L 190.808475 325.608604 
L 191.326875 325.648706 
L 192.363675 325.406505 
L 192.882075 325.392955 
L 193.400475 325.100947 
L 194.437275 324.997523 
L 194.955675 324.941187 
L 195.474075 325.011579 
L 195.992475 324.811407 
L 196.510875 324.852973 
L 197.029275 325.113642 
L 197.547675 324.796784 
L 199.621275 324.416592 
L 200.658075 324.780378 
L 201.176475 324.720719 
L 202.213275 324.375704 
L 202.731675 324.290435 
L 203.250075 324.335429 
L 204.286875 324.185636 
L 205.323675 324.042073 
L 205.842075 324.040735 
L 206.878875 323.849787 
L 208.952475 323.694714 
L 209.989275 323.846653 
L 210.507675 323.745385 
L 211.544475 323.924029 
L 214.136475 323.14635 
L 214.654875 323.229168 
L 215.173275 323.00808 
L 216.210075 322.910577 
L 217.246875 323.179461 
L 217.765275 323.183647 
L 219.320475 322.883841 
L 219.838875 322.547496 
L 220.357275 322.582511 
L 220.875675 322.314861 
L 222.430875 322.750108 
L 222.949275 322.611688 
L 224.504475 322.615596 
L 225.022875 322.839082 
L 227.614875 322.685427 
L 228.133275 322.822934 
L 229.688475 322.564378 
L 230.206875 322.434644 
L 230.725275 322.528873 
L 234.872475 321.746446 
L 235.390875 322.130162 
L 235.909275 322.328645 
L 237.464475 321.929514 
L 239.019675 322.467971 
L 240.056475 322.278985 
L 240.574875 322.477479 
L 241.611675 322.54117 
L 242.130075 322.431032 
L 242.648475 322.529853 
L 243.166875 322.148152 
L 243.685275 321.969728 
L 244.203675 321.922973 
L 244.722075 322.153411 
L 245.758875 321.842078 
L 246.277275 321.995074 
L 247.314075 321.571273 
L 248.350875 321.574488 
L 249.387675 321.520373 
L 251.461275 321.839796 
L 251.979675 321.774191 
L 252.498075 321.867232 
L 253.534875 321.743183 
L 254.053275 321.875814 
L 255.090075 321.960297 
L 256.126875 322.423952 
L 256.645275 322.426571 
L 257.682075 321.965641 
L 258.718875 321.807282 
L 259.237275 321.927162 
L 260.274075 321.860549 
L 260.792475 321.978571 
L 261.310875 321.690006 
L 262.347675 321.89084 
L 264.939675 322.172435 
L 265.976475 321.903326 
L 266.494875 321.982812 
L 267.531675 321.7188 
L 268.050075 322.027665 
L 269.086875 321.876979 
L 270.123675 321.957549 
L 270.642075 321.847941 
L 271.160475 322.124825 
L 271.678875 322.208268 
L 272.197275 321.762988 
L 273.752475 321.90374 
L 274.270875 321.832347 
L 274.789275 318.924483 
L 276.344475 313.266982 
L 277.381275 310.129926 
L 278.418075 307.851293 
L 278.936475 306.93644 
L 279.454875 306.313902 
L 280.491675 305.332079 
L 281.528475 304.30039 
L 282.046875 303.946889 
L 283.083675 303.643151 
L 284.638875 302.318735 
L 285.157275 302.203072 
L 285.675675 301.863048 
L 286.194075 301.715238 
L 286.712475 301.318139 
L 288.267675 300.968552 
L 288.786075 300.275397 
L 289.304475 300.29674 
L 290.341275 299.838037 
L 290.859675 300.135298 
L 291.378075 300.179406 
L 291.896475 300.336211 
L 292.414875 300.048848 
L 292.933275 300.061778 
L 293.970075 299.6992 
L 294.488475 299.433994 
L 295.006875 299.41243 
L 295.525275 298.949495 
L 296.043675 298.816367 
L 297.598875 298.884058 
L 298.117275 299.070338 
L 298.635675 299.052318 
L 299.154075 299.309458 
L 300.190875 298.944479 
L 301.227675 299.219461 
L 302.264475 299.730501 
L 303.819675 299.733417 
L 304.338075 299.899498 
L 304.856475 299.935305 
L 305.374875 299.649808 
L 305.893275 299.787922 
L 306.411675 299.737648 
L 306.930075 299.938346 
L 307.966875 299.708079 
L 308.485275 299.786625 
L 309.003675 299.701793 
L 310.040475 300.189207 
L 312.114075 300.088506 
L 313.669275 300.331797 
L 314.187675 300.049314 
L 314.706075 299.951459 
L 315.742875 300.058698 
L 316.779675 299.96539 
L 317.298075 300.076438 
L 318.334875 299.825272 
L 318.853275 299.389853 
L 319.371675 299.145076 
L 320.408475 298.983017 
L 321.445275 298.803478 
L 321.963675 298.411848 
L 322.482075 298.288778 
L 323.518875 298.223685 
L 324.037275 297.806644 
L 324.555675 298.096946 
L 325.074075 298.076812 
L 325.592475 298.333831 
L 327.147675 297.614011 
L 328.702875 297.073978 
L 329.221275 297.333754 
L 329.739675 296.979683 
L 330.258075 297.332486 
L 330.776475 297.146967 
L 331.294875 297.379489 
L 331.813275 297.87396 
L 332.331675 297.664309 
L 332.850075 297.648126 
L 333.368475 297.191857 
L 336.478875 297.825183 
L 336.997275 298.108131 
L 337.515675 298.046348 
L 338.034075 298.40994 
L 339.070875 298.446172 
L 340.107675 297.963195 
L 340.626075 297.872008 
L 341.144475 297.943399 
L 341.662875 297.764175 
L 342.181275 298.232641 
L 342.699675 298.226225 
L 343.218075 298.102705 
L 343.736475 298.292871 
L 344.254875 298.278876 
L 344.773275 297.968036 
L 346.328475 298.009977 
L 346.846875 297.778349 
L 347.883675 298.000992 
L 348.402075 297.632667 
L 348.920475 298.076669 
L 349.438875 298.096494 
L 349.957275 298.38488 
L 350.994075 297.779525 
L 351.512475 297.792027 
L 352.030875 297.434492 
L 353.067675 297.354802 
L 354.104475 297.184238 
L 354.622875 297.460539 
L 355.141275 297.123097 
L 355.659675 297.126637 
L 356.178075 296.841222 
L 356.696475 297.022668 
L 357.214875 296.757758 
L 357.733275 296.809656 
L 358.251675 297.033417 
L 358.770075 296.969538 
L 359.288475 297.046644 
L 359.806875 296.958749 
L 360.325275 296.676363 
L 361.880475 296.803388 
L 362.917275 296.600464 
L 363.954075 296.749541 
L 364.472475 297.033318 
L 365.509275 296.66414 
L 366.027675 296.788539 
L 366.546075 296.5207 
L 367.582875 296.456335 
L 368.101275 296.33949 
L 368.619675 296.551409 
L 369.138075 296.263973 
L 369.656475 296.299541 
L 370.693275 296.635683 
L 371.211675 296.729544 
L 371.730075 296.601477 
L 373.285275 297.004272 
L 373.803675 296.821472 
L 374.840475 297.00116 
L 375.877275 297.039331 
L 376.395675 296.658581 
L 377.432475 296.305675 
L 378.469275 296.555492 
L 378.987675 296.249088 
L 379.506075 296.713016 
L 380.024475 296.581242 
L 380.542875 296.991965 
L 381.579675 296.996989 
L 382.616475 297.272545 
L 383.134875 297.421093 
L 384.171675 297.504736 
L 385.208475 297.801472 
L 386.245275 297.607739 
L 386.763675 297.660944 
L 387.282075 297.424064 
L 387.800475 297.45325 
L 388.318875 297.172622 
L 394.021275 296.830903 
L 394.539675 297.137995 
L 395.058075 297.244208 
L 395.576475 297.06925 
L 396.094875 297.30702 
L 396.613275 296.92975 
L 397.131675 296.804723 
L 397.650075 296.859386 
L 398.686875 297.158124 
L 399.723675 297.180563 
L 400.242075 296.846609 
L 400.760475 296.879803 
L 401.278875 297.081042 
L 401.797275 296.921852 
L 402.315675 297.225168 
L 402.834075 297.381025 
L 403.352475 297.110689 
L 403.870875 297.15864 
L 404.389275 297.368568 
L 405.944475 297.044319 
L 406.981275 296.596883 
L 407.499675 296.877016 
L 409.054875 296.340282 
L 409.573275 296.331039 
L 410.091675 296.197324 
L 410.610075 296.417288 
L 411.646875 296.364105 
L 412.165275 296.435451 
L 413.202075 296.134169 
L 413.720475 296.487292 
L 414.757275 296.156278 
L 415.275675 295.716428 
L 415.794075 295.942066 
L 416.830875 295.641234 
L 417.349275 295.738851 
L 417.867675 295.514874 
L 418.386075 295.490252 
L 419.422875 294.868681 
L 419.941275 294.252366 
L 420.978075 294.436825 
L 423.570075 295.298474 
L 424.088475 295.126706 
L 424.606875 295.433221 
L 425.125275 295.399538 
L 425.643675 295.20571 
L 426.162075 295.324563 
L 426.680475 295.79477 
L 427.717275 294.924362 
L 428.235675 294.953797 
L 429.790875 295.449836 
L 430.309275 295.708301 
L 430.827675 295.542292 
L 431.864475 294.980719 
L 432.382875 295.00916 
L 433.419675 294.787542 
L 433.938075 294.975584 
L 436.011675 295.084584 
L 436.530075 294.952659 
L 437.566875 295.030237 
L 438.085275 294.829398 
L 438.603675 294.973936 
L 439.640475 294.657373 
L 440.677275 294.75241 
L 441.195675 295.081268 
L 441.714075 294.940323 
L 442.750875 294.941578 
L 443.787675 295.098936 
L 444.306075 295.042535 
L 445.342875 295.554575 
L 445.861275 295.469904 
L 446.379675 295.612695 
L 446.898075 295.209291 
L 448.453275 294.884176 
L 448.971675 295.069926 
L 449.490075 294.921718 
L 450.526875 294.358239 
L 451.045275 294.460776 
L 451.563675 294.416386 
L 452.082075 294.122509 
L 452.600475 294.352081 
L 453.118875 294.250199 
L 453.637275 293.842497 
L 454.155675 293.912108 
L 455.192475 294.281622 
L 456.229275 294.350138 
L 456.747675 294.513995 
L 457.784475 294.491637 
L 459.858075 294.571557 
L 460.376475 294.891951 
L 460.894875 294.879406 
L 461.413275 295.069937 
L 461.931675 295.070237 
L 462.968475 294.581808 
L 463.486875 294.349735 
L 464.005275 294.552013 
L 464.523675 294.383024 
L 465.042075 294.436007 
L 465.560475 294.326508 
L 467.115675 293.561017 
L 467.634075 293.426308 
L 468.152475 293.514667 
L 470.226075 293.352113 
L 470.744475 292.979728 
L 471.262875 293.356476 
L 472.299675 292.735663 
L 473.336475 293.235099 
L 473.854875 292.993333 
L 474.373275 293.257103 
L 475.410075 293.342531 
L 475.928475 293.106721 
L 476.446875 293.299862 
L 478.002075 293.263457 
L 478.520475 293.443747 
L 479.038875 292.970028 
L 479.557275 292.947985 
L 480.075675 293.317109 
L 480.594075 293.121833 
L 481.112475 293.364996 
L 483.186075 293.092098 
L 483.704475 292.964026 
L 484.222875 292.702683 
L 484.741275 293.326292 
L 485.778075 293.278132 
L 486.296475 293.320996 
L 486.814875 293.052942 
L 487.333275 293.068169 
L 488.370075 292.635612 
L 488.888475 292.449497 
L 489.406875 292.721746 
L 490.443675 292.844891 
L 490.962075 292.672096 
L 491.998875 292.078416 
L 492.517275 292.090211 
L 493.035675 291.946511 
L 493.554075 292.173462 
L 494.072475 291.710343 
L 494.590875 291.535895 
L 495.627675 291.700683 
L 496.146075 291.035857 
L 496.664475 290.776732 
L 497.701275 290.580838 
L 499.774875 290.388141 
L 500.293275 290.204423 
L 500.811675 290.170517 
L 501.330075 290.461546 
L 502.366875 290.540219 
L 502.885275 290.026383 
L 503.403675 290.149185 
L 503.922075 289.871349 
L 504.440475 289.972513 
L 504.958875 289.646348 
L 505.477275 289.5458 
L 506.514075 289.48997 
L 507.032475 289.368341 
L 507.550875 289.052216 
L 508.069275 289.034218 
L 509.106075 289.382761 
L 510.142875 289.103661 
L 510.661275 288.827073 
L 511.179675 289.347195 
L 512.216475 289.319675 
L 513.253275 289.486094 
L 514.290075 289.175593 
L 514.808475 289.375298 
L 515.326875 289.26311 
L 515.845275 289.274506 
L 516.363675 289.158907 
L 517.918875 289.49488 
L 518.437275 289.40431 
L 518.955675 289.124411 
L 519.474075 289.117507 
L 519.992475 288.883133 
L 521.547675 289.401752 
L 522.584475 288.908982 
L 523.102875 289.147259 
L 523.621275 289.090863 
L 524.658075 289.442368 
L 525.176475 289.245196 
L 525.694875 289.499639 
L 527.250075 289.555511 
L 528.286875 289.391422 
L 528.805275 289.327152 
L 529.842075 289.763336 
L 530.878875 289.345761 
L 532.434075 290.022417 
L 532.952475 289.68316 
L 533.470875 289.68711 
L 533.989275 289.538364 
L 534.507675 289.556999 
L 535.026075 290.069982 
L 536.581275 289.948147 
L 537.618075 290.181572 
L 539.173275 289.806445 
L 539.691675 290.079637 
L 540.728475 289.971595 
L 541.246875 290.029496 
L 541.765275 289.620208 
L 542.283675 289.464787 
L 542.802075 289.548075 
L 543.320475 289.326902 
L 546.430875 289.224514 
L 549.022875 288.702088 
L 550.578075 288.898136 
L 551.614875 288.626483 
L 552.133275 288.907113 
L 553.170075 288.722423 
L 553.688475 288.498515 
L 554.725275 288.699166 
L 555.762075 288.425592 
L 556.280475 288.22181 
L 557.317275 288.106547 
L 557.835675 288.147604 
L 558.872475 287.74445 
L 559.390875 287.701188 
L 559.909275 287.909088 
L 560.427675 287.921269 
L 560.946075 287.778444 
L 561.464475 287.77742 
L 561.982875 287.956201 
L 563.538075 288.192588 
L 564.056475 287.978924 
L 564.574875 287.914799 
L 565.611675 288.024738 
L 566.130075 288.064 
L 566.648475 287.45905 
L 567.166875 287.133368 
L 567.685275 287.140939 
L 568.203675 287.286991 
L 568.722075 286.866042 
L 569.240475 286.965131 
L 570.277275 286.555816 
L 572.350875 287.456566 
L 572.869275 287.428761 
L 573.387675 287.653875 
L 573.906075 287.404602 
L 574.424475 287.359805 
L 574.942875 287.441562 
L 575.461275 287.197627 
L 576.498075 287.316906 
L 577.534875 286.914649 
L 578.053275 286.987827 
L 579.090075 286.830948 
L 581.163675 286.780383 
L 581.682075 286.539704 
L 582.200475 286.684901 
L 582.718875 286.199785 
L 584.792475 286.689092 
L 584.792475 286.689092 
" style="fill:none;stroke:#8b8b8b;stroke-width:4.0;"/>
   </g>
   <g id="patch_9">
    <path d="M 66.910875 502.606875 
L 585.310875 502.606875 
" style="fill:none;stroke:#ffffff;stroke-linecap:square;stroke-linejoin:miter;stroke-width:3.0;"/>
   </g>
   <g id="patch_10">
    <path d="M 585.310875 502.606875 
L 585.310875 280.06142 
" style="fill:none;stroke:#ffffff;stroke-linecap:square;stroke-linejoin:miter;stroke-width:3.0;"/>
   </g>
   <g id="patch_11">
    <path d="M 66.910875 502.606875 
L 66.910875 280.06142 
" style="fill:none;stroke:#ffffff;stroke-linecap:square;stroke-linejoin:miter;stroke-width:3.0;"/>
   </g>
   <g id="patch_12">
    <path d="M 66.910875 280.06142 
L 585.310875 280.06142 
" style="fill:none;stroke:#ffffff;stroke-linecap:square;stroke-linejoin:miter;stroke-width:3.0;"/>
   </g>
   <g id="legend_2">
    <g id="patch_13">
     <path d="M 516.622875 495.406875 
L 575.230875 495.406875 
Q 578.110875 495.406875 578.110875 492.526875 
L 578.110875 430.557375 
Q 578.110875 427.677375 575.230875 427.677375 
L 516.622875 427.677375 
Q 513.742875 427.677375 513.742875 430.557375 
L 513.742875 492.526875 
Q 513.742875 495.406875 516.622875 495.406875 
z
" style="fill:#ffffff;stroke:#ffffff;stroke-linejoin:miter;stroke-width:0.5;"/>
    </g>
    <g id="line2d_85">
     <path d="M 523.822875 439.339125 
L 543.982875 439.339125 
" style="fill:none;stroke:#30a2da;stroke-width:4.0;"/>
    </g>
    <g id="line2d_86"/>
    <g id="text_25">
     <!-- $\sf p_{r}$ -->
     <defs>
      <path d="M 8.015625 -19.390625 
L 8.015625 44.390625 
L 15.921875 44.390625 
L 15.921875 39.703125 
Q 22.953125 45.515625 33.015625 45.515625 
Q 37.9375 45.515625 41.375 41.75 
Q 44.828125 37.984375 46.5 32.53125 
Q 48.1875 27.09375 48.1875 22.21875 
Q 48.1875 16.890625 45.96875 11.375 
Q 43.75 5.859375 39.578125 2.359375 
Q 35.40625 -1.125 29.78125 -1.125 
Q 25.984375 -1.125 22.4375 0.359375 
Q 18.890625 1.859375 16.21875 4.390625 
L 16.21875 -19.390625 
z
M 16.21875 11.625 
Q 17.78125 8.734375 20.125 7.078125 
Q 22.46875 5.421875 25.484375 5.421875 
Q 29.78125 5.421875 33.078125 7.828125 
Q 36.375 10.25 38.171875 14.203125 
Q 39.984375 18.171875 39.984375 22.21875 
Q 39.984375 28.515625 36.328125 33.609375 
Q 32.671875 38.71875 26.703125 38.71875 
Q 24.703125 38.71875 22.671875 38.03125 
Q 20.65625 37.359375 19.046875 36.15625 
Q 17.4375 34.96875 16.21875 33.203125 
z
" id="Cmss10-70"/>
     </defs>
     <g transform="translate(559.822875 444.379125)scale(0.144 -0.144)">
      <use transform="translate(0.0 0.484375)" xlink:href="#Cmss10-70"/>
      <use transform="translate(56.257578125 -17.215625000000003)scale(0.7)" xlink:href="#Cmss10-72"/>
     </g>
    </g>
    <g id="line2d_87">
     <path d="M 523.822875 460.475625 
L 543.982875 460.475625 
" style="fill:none;stroke:#e5ae38;stroke-width:4.0;"/>
    </g>
    <g id="line2d_88"/>
    <g id="text_26">
     <!-- $\sf q_{r}$ -->
     <g transform="translate(559.822875 465.515625)scale(0.144 -0.144)">
      <use transform="translate(0.0 0.484375)" xlink:href="#Cmss10-71"/>
      <use transform="translate(56.257578125 -17.215625000000003)scale(0.7)" xlink:href="#Cmss10-72"/>
     </g>
    </g>
    <g id="line2d_89">
     <path d="M 523.822875 481.612125 
L 543.982875 481.612125 
" style="fill:none;stroke:#8b8b8b;stroke-width:4.0;"/>
    </g>
    <g id="line2d_90"/>
    <g id="text_27">
     <!-- $\sf s_{r}$ -->
     <defs>
      <path d="M 2.78125 3.328125 
L 4.109375 10.5 
Q 11.1875 5.609375 19.671875 5.609375 
Q 23.34375 5.609375 25.921875 7.203125 
Q 28.515625 8.796875 28.515625 12.203125 
Q 28.515625 14.796875 26.53125 16.453125 
Q 24.5625 18.109375 21.921875 18.609375 
L 15.828125 19.828125 
Q 10.75 20.84375 7.03125 24.359375 
Q 3.328125 27.875 3.328125 32.8125 
Q 3.328125 37.359375 5.515625 40.359375 
Q 7.71875 43.359375 11.421875 44.71875 
Q 15.140625 46.09375 19.671875 46.09375 
Q 24.03125 46.09375 27.265625 45.375 
Q 30.515625 44.671875 34.28125 42.921875 
L 33.109375 35.890625 
Q 29.5 38.03125 26.140625 38.90625 
Q 22.796875 39.796875 18.609375 39.796875 
Q 15.328125 39.796875 13.0625 38.359375 
Q 10.796875 36.921875 10.796875 33.796875 
Q 10.796875 31.640625 12.5 30.09375 
Q 14.203125 28.5625 16.609375 27.984375 
L 23.296875 26.703125 
Q 26.703125 25.921875 29.609375 24.015625 
Q 32.515625 22.125 34.25 19.265625 
Q 35.984375 16.40625 35.984375 12.984375 
Q 35.984375 8.203125 33.859375 5.046875 
Q 31.734375 1.90625 28.09375 0.390625 
Q 24.46875 -1.125 19.671875 -1.125 
Q 10.6875 -1.125 2.78125 3.328125 
" id="Cmss10-73"/>
     </defs>
     <g transform="translate(559.822875 486.652125)scale(0.144 -0.144)">
      <use transform="translate(0.0 0.90625)" xlink:href="#Cmss10-73"/>
      <use transform="translate(42.9275 -16.793750000000003)scale(0.7)" xlink:href="#Cmss10-72"/>
     </g>
    </g>
   </g>
  </g>
 </g>
 <defs>
  <clipPath id="p915aca6fe2">
   <rect height="222.545454545" width="518.4" x="66.910875" y="13.006875"/>
  </clipPath>
  <clipPath id="p5200ed5a91">
   <rect height="222.545454545" width="518.4" x="66.910875" y="280.061420455"/>
  </clipPath>
 </defs>
</svg>
