<?xml version="1.0" encoding="utf-8" standalone="no"?>
<!DOCTYPE svg PUBLIC "-//W3C//DTD SVG 1.1//EN"
  "http://www.w3.org/Graphics/SVG/1.1/DTD/svg11.dtd">
<!-- Created with matplotlib (http://matplotlib.org/) -->
<svg height="363pt" version="1.1" viewBox="0 0 527 363" width="527pt" xmlns="http://www.w3.org/2000/svg" xmlns:xlink="http://www.w3.org/1999/xlink">
 <defs>
  <style type="text/css">
*{stroke-linecap:butt;stroke-linejoin:round;stroke-miterlimit:100000;}
  </style>
 </defs>
 <g id="figure_1">
  <g id="patch_1">
   <path d="M 0 363.544425 
L 527.64255 363.544425 
L 527.64255 0 
L 0 0 
z
" style="fill:none;opacity:0;"/>
  </g>
  <g id="axes_1">
   <g id="patch_2">
    <path d="M 52.00755 319.006875 
L 512.80755 319.006875 
L 512.80755 13.006875 
L 52.00755 13.006875 
z
" style="fill:#ffffff;"/>
   </g>
   <g id="matplotlib.axis_1">
    <g id="xtick_1">
     <g id="line2d_1">
      <path clip-path="url(#p425922fe2b)" d="M 52.00755 319.006875 
L 52.00755 13.006875 
" style="fill:none;stroke:#cbcbcb;"/>
     </g>
     <g id="line2d_2"/>
     <g id="line2d_3"/>
     <g id="text_1">
      <!-- 0 -->
      <defs>
       <path d="M 31.78125 66.40625 
Q 24.171875 66.40625 20.328125 58.90625 
Q 16.5 51.421875 16.5 36.375 
Q 16.5 21.390625 20.328125 13.890625 
Q 24.171875 6.390625 31.78125 6.390625 
Q 39.453125 6.390625 43.28125 13.890625 
Q 47.125 21.390625 47.125 36.375 
Q 47.125 51.421875 43.28125 58.90625 
Q 39.453125 66.40625 31.78125 66.40625 
M 31.78125 74.21875 
Q 44.046875 74.21875 50.515625 64.515625 
Q 56.984375 54.828125 56.984375 36.375 
Q 56.984375 17.96875 50.515625 8.265625 
Q 44.046875 -1.421875 31.78125 -1.421875 
Q 19.53125 -1.421875 13.0625 8.265625 
Q 6.59375 17.96875 6.59375 36.375 
Q 6.59375 54.828125 13.0625 64.515625 
Q 19.53125 74.21875 31.78125 74.21875 
" id="BitstreamVeraSans-Roman-30"/>
      </defs>
      <g transform="translate(48.19005 332.125)scale(0.12 -0.12)">
       <use xlink:href="#BitstreamVeraSans-Roman-30"/>
      </g>
     </g>
    </g>
    <g id="xtick_2">
     <g id="line2d_4">
      <path clip-path="url(#p425922fe2b)" d="M 144.16755 319.006875 
L 144.16755 13.006875 
" style="fill:none;stroke:#cbcbcb;"/>
     </g>
     <g id="line2d_5"/>
     <g id="line2d_6"/>
     <g id="text_2">
      <!-- 2 -->
      <defs>
       <path d="M 19.1875 8.296875 
L 53.609375 8.296875 
L 53.609375 0 
L 7.328125 0 
L 7.328125 8.296875 
Q 12.9375 14.109375 22.625 23.890625 
Q 32.328125 33.6875 34.8125 36.53125 
Q 39.546875 41.84375 41.421875 45.53125 
Q 43.3125 49.21875 43.3125 52.78125 
Q 43.3125 58.59375 39.234375 62.25 
Q 35.15625 65.921875 28.609375 65.921875 
Q 23.96875 65.921875 18.8125 64.3125 
Q 13.671875 62.703125 7.8125 59.421875 
L 7.8125 69.390625 
Q 13.765625 71.78125 18.9375 73 
Q 24.125 74.21875 28.421875 74.21875 
Q 39.75 74.21875 46.484375 68.546875 
Q 53.21875 62.890625 53.21875 53.421875 
Q 53.21875 48.921875 51.53125 44.890625 
Q 49.859375 40.875 45.40625 35.40625 
Q 44.1875 33.984375 37.640625 27.21875 
Q 31.109375 20.453125 19.1875 8.296875 
" id="BitstreamVeraSans-Roman-32"/>
      </defs>
      <g transform="translate(140.35005 332.125)scale(0.12 -0.12)">
       <use xlink:href="#BitstreamVeraSans-Roman-32"/>
      </g>
     </g>
    </g>
    <g id="xtick_3">
     <g id="line2d_7">
      <path clip-path="url(#p425922fe2b)" d="M 236.32755 319.006875 
L 236.32755 13.006875 
" style="fill:none;stroke:#cbcbcb;"/>
     </g>
     <g id="line2d_8"/>
     <g id="line2d_9"/>
     <g id="text_3">
      <!-- 4 -->
      <defs>
       <path d="M 37.796875 64.3125 
L 12.890625 25.390625 
L 37.796875 25.390625 
z
M 35.203125 72.90625 
L 47.609375 72.90625 
L 47.609375 25.390625 
L 58.015625 25.390625 
L 58.015625 17.1875 
L 47.609375 17.1875 
L 47.609375 0 
L 37.796875 0 
L 37.796875 17.1875 
L 4.890625 17.1875 
L 4.890625 26.703125 
z
" id="BitstreamVeraSans-Roman-34"/>
      </defs>
      <g transform="translate(232.51005 332.125)scale(0.12 -0.12)">
       <use xlink:href="#BitstreamVeraSans-Roman-34"/>
      </g>
     </g>
    </g>
    <g id="xtick_4">
     <g id="line2d_10">
      <path clip-path="url(#p425922fe2b)" d="M 328.48755 319.006875 
L 328.48755 13.006875 
" style="fill:none;stroke:#cbcbcb;"/>
     </g>
     <g id="line2d_11"/>
     <g id="line2d_12"/>
     <g id="text_4">
      <!-- 6 -->
      <defs>
       <path d="M 33.015625 40.375 
Q 26.375 40.375 22.484375 35.828125 
Q 18.609375 31.296875 18.609375 23.390625 
Q 18.609375 15.53125 22.484375 10.953125 
Q 26.375 6.390625 33.015625 6.390625 
Q 39.65625 6.390625 43.53125 10.953125 
Q 47.40625 15.53125 47.40625 23.390625 
Q 47.40625 31.296875 43.53125 35.828125 
Q 39.65625 40.375 33.015625 40.375 
M 52.59375 71.296875 
L 52.59375 62.3125 
Q 48.875 64.0625 45.09375 64.984375 
Q 41.3125 65.921875 37.59375 65.921875 
Q 27.828125 65.921875 22.671875 59.328125 
Q 17.53125 52.734375 16.796875 39.40625 
Q 19.671875 43.65625 24.015625 45.921875 
Q 28.375 48.1875 33.59375 48.1875 
Q 44.578125 48.1875 50.953125 41.515625 
Q 57.328125 34.859375 57.328125 23.390625 
Q 57.328125 12.15625 50.6875 5.359375 
Q 44.046875 -1.421875 33.015625 -1.421875 
Q 20.359375 -1.421875 13.671875 8.265625 
Q 6.984375 17.96875 6.984375 36.375 
Q 6.984375 53.65625 15.1875 63.9375 
Q 23.390625 74.21875 37.203125 74.21875 
Q 40.921875 74.21875 44.703125 73.484375 
Q 48.484375 72.75 52.59375 71.296875 
" id="BitstreamVeraSans-Roman-36"/>
      </defs>
      <g transform="translate(324.67005 332.125)scale(0.12 -0.12)">
       <use xlink:href="#BitstreamVeraSans-Roman-36"/>
      </g>
     </g>
    </g>
    <g id="xtick_5">
     <g id="line2d_13">
      <path clip-path="url(#p425922fe2b)" d="M 420.64755 319.006875 
L 420.64755 13.006875 
" style="fill:none;stroke:#cbcbcb;"/>
     </g>
     <g id="line2d_14"/>
     <g id="line2d_15"/>
     <g id="text_5">
      <!-- 8 -->
      <defs>
       <path d="M 31.78125 34.625 
Q 24.75 34.625 20.71875 30.859375 
Q 16.703125 27.09375 16.703125 20.515625 
Q 16.703125 13.921875 20.71875 10.15625 
Q 24.75 6.390625 31.78125 6.390625 
Q 38.8125 6.390625 42.859375 10.171875 
Q 46.921875 13.96875 46.921875 20.515625 
Q 46.921875 27.09375 42.890625 30.859375 
Q 38.875 34.625 31.78125 34.625 
M 21.921875 38.8125 
Q 15.578125 40.375 12.03125 44.71875 
Q 8.5 49.078125 8.5 55.328125 
Q 8.5 64.0625 14.71875 69.140625 
Q 20.953125 74.21875 31.78125 74.21875 
Q 42.671875 74.21875 48.875 69.140625 
Q 55.078125 64.0625 55.078125 55.328125 
Q 55.078125 49.078125 51.53125 44.71875 
Q 48 40.375 41.703125 38.8125 
Q 48.828125 37.15625 52.796875 32.3125 
Q 56.78125 27.484375 56.78125 20.515625 
Q 56.78125 9.90625 50.3125 4.234375 
Q 43.84375 -1.421875 31.78125 -1.421875 
Q 19.734375 -1.421875 13.25 4.234375 
Q 6.78125 9.90625 6.78125 20.515625 
Q 6.78125 27.484375 10.78125 32.3125 
Q 14.796875 37.15625 21.921875 38.8125 
M 18.3125 54.390625 
Q 18.3125 48.734375 21.84375 45.5625 
Q 25.390625 42.390625 31.78125 42.390625 
Q 38.140625 42.390625 41.71875 45.5625 
Q 45.3125 48.734375 45.3125 54.390625 
Q 45.3125 60.0625 41.71875 63.234375 
Q 38.140625 66.40625 31.78125 66.40625 
Q 25.390625 66.40625 21.84375 63.234375 
Q 18.3125 60.0625 18.3125 54.390625 
" id="BitstreamVeraSans-Roman-38"/>
      </defs>
      <g transform="translate(416.83005 332.125)scale(0.12 -0.12)">
       <use xlink:href="#BitstreamVeraSans-Roman-38"/>
      </g>
     </g>
    </g>
    <g id="xtick_6">
     <g id="line2d_16">
      <path clip-path="url(#p425922fe2b)" d="M 512.80755 319.006875 
L 512.80755 13.006875 
" style="fill:none;stroke:#cbcbcb;"/>
     </g>
     <g id="line2d_17"/>
     <g id="line2d_18"/>
     <g id="text_6">
      <!-- 10 -->
      <defs>
       <path d="M 12.40625 8.296875 
L 28.515625 8.296875 
L 28.515625 63.921875 
L 10.984375 60.40625 
L 10.984375 69.390625 
L 28.421875 72.90625 
L 38.28125 72.90625 
L 38.28125 8.296875 
L 54.390625 8.296875 
L 54.390625 0 
L 12.40625 0 
z
" id="BitstreamVeraSans-Roman-31"/>
      </defs>
      <g transform="translate(505.17255 332.125)scale(0.12 -0.12)">
       <use xlink:href="#BitstreamVeraSans-Roman-31"/>
       <use x="63.623046875" xlink:href="#BitstreamVeraSans-Roman-30"/>
      </g>
     </g>
    </g>
    <g id="text_7">
     <!-- Time (s) -->
     <defs>
      <path d="M -0.296875 72.90625 
L 61.375 72.90625 
L 61.375 64.59375 
L 35.5 64.59375 
L 35.5 0 
L 25.59375 0 
L 25.59375 64.59375 
L -0.296875 64.59375 
z
" id="BitstreamVeraSans-Roman-54"/>
      <path d="M 44.28125 53.078125 
L 44.28125 44.578125 
Q 40.484375 46.53125 36.375 47.5 
Q 32.28125 48.484375 27.875 48.484375 
Q 21.1875 48.484375 17.84375 46.4375 
Q 14.5 44.390625 14.5 40.28125 
Q 14.5 37.15625 16.890625 35.375 
Q 19.28125 33.59375 26.515625 31.984375 
L 29.59375 31.296875 
Q 39.15625 29.25 43.1875 25.515625 
Q 47.21875 21.78125 47.21875 15.09375 
Q 47.21875 7.46875 41.1875 3.015625 
Q 35.15625 -1.421875 24.609375 -1.421875 
Q 20.21875 -1.421875 15.453125 -0.5625 
Q 10.6875 0.296875 5.421875 2 
L 5.421875 11.28125 
Q 10.40625 8.6875 15.234375 7.390625 
Q 20.0625 6.109375 24.8125 6.109375 
Q 31.15625 6.109375 34.5625 8.28125 
Q 37.984375 10.453125 37.984375 14.40625 
Q 37.984375 18.0625 35.515625 20.015625 
Q 33.0625 21.96875 24.703125 23.78125 
L 21.578125 24.515625 
Q 13.234375 26.265625 9.515625 29.90625 
Q 5.8125 33.546875 5.8125 39.890625 
Q 5.8125 47.609375 11.28125 51.796875 
Q 16.75 56 26.8125 56 
Q 31.78125 56 36.171875 55.265625 
Q 40.578125 54.546875 44.28125 53.078125 
" id="BitstreamVeraSans-Roman-73"/>
      <path d="M 52 44.1875 
Q 55.375 50.25 60.0625 53.125 
Q 64.75 56 71.09375 56 
Q 79.640625 56 84.28125 50.015625 
Q 88.921875 44.046875 88.921875 33.015625 
L 88.921875 0 
L 79.890625 0 
L 79.890625 32.71875 
Q 79.890625 40.578125 77.09375 44.375 
Q 74.3125 48.1875 68.609375 48.1875 
Q 61.625 48.1875 57.5625 43.546875 
Q 53.515625 38.921875 53.515625 30.90625 
L 53.515625 0 
L 44.484375 0 
L 44.484375 32.71875 
Q 44.484375 40.625 41.703125 44.40625 
Q 38.921875 48.1875 33.109375 48.1875 
Q 26.21875 48.1875 22.15625 43.53125 
Q 18.109375 38.875 18.109375 30.90625 
L 18.109375 0 
L 9.078125 0 
L 9.078125 54.6875 
L 18.109375 54.6875 
L 18.109375 46.1875 
Q 21.1875 51.21875 25.484375 53.609375 
Q 29.78125 56 35.6875 56 
Q 41.65625 56 45.828125 52.96875 
Q 50 49.953125 52 44.1875 
" id="BitstreamVeraSans-Roman-6d"/>
      <path id="BitstreamVeraSans-Roman-20"/>
      <path d="M 9.421875 54.6875 
L 18.40625 54.6875 
L 18.40625 0 
L 9.421875 0 
z
M 9.421875 75.984375 
L 18.40625 75.984375 
L 18.40625 64.59375 
L 9.421875 64.59375 
z
" id="BitstreamVeraSans-Roman-69"/>
      <path d="M 56.203125 29.59375 
L 56.203125 25.203125 
L 14.890625 25.203125 
Q 15.484375 15.921875 20.484375 11.0625 
Q 25.484375 6.203125 34.421875 6.203125 
Q 39.59375 6.203125 44.453125 7.46875 
Q 49.3125 8.734375 54.109375 11.28125 
L 54.109375 2.78125 
Q 49.265625 0.734375 44.1875 -0.34375 
Q 39.109375 -1.421875 33.890625 -1.421875 
Q 20.796875 -1.421875 13.15625 6.1875 
Q 5.515625 13.8125 5.515625 26.8125 
Q 5.515625 40.234375 12.765625 48.109375 
Q 20.015625 56 32.328125 56 
Q 43.359375 56 49.78125 48.890625 
Q 56.203125 41.796875 56.203125 29.59375 
M 47.21875 32.234375 
Q 47.125 39.59375 43.09375 43.984375 
Q 39.0625 48.390625 32.421875 48.390625 
Q 24.90625 48.390625 20.390625 44.140625 
Q 15.875 39.890625 15.1875 32.171875 
z
" id="BitstreamVeraSans-Roman-65"/>
      <path d="M 31 75.875 
Q 24.46875 64.65625 21.28125 53.65625 
Q 18.109375 42.671875 18.109375 31.390625 
Q 18.109375 20.125 21.3125 9.0625 
Q 24.515625 -2 31 -13.1875 
L 23.1875 -13.1875 
Q 15.875 -1.703125 12.234375 9.375 
Q 8.59375 20.453125 8.59375 31.390625 
Q 8.59375 42.28125 12.203125 53.3125 
Q 15.828125 64.359375 23.1875 75.875 
z
" id="BitstreamVeraSans-Roman-28"/>
      <path d="M 8.015625 75.875 
L 15.828125 75.875 
Q 23.140625 64.359375 26.78125 53.3125 
Q 30.421875 42.28125 30.421875 31.390625 
Q 30.421875 20.453125 26.78125 9.375 
Q 23.140625 -1.703125 15.828125 -13.1875 
L 8.015625 -13.1875 
Q 14.5 -2 17.703125 9.0625 
Q 20.90625 20.125 20.90625 31.390625 
Q 20.90625 42.671875 17.703125 53.65625 
Q 14.5 64.65625 8.015625 75.875 
" id="BitstreamVeraSans-Roman-29"/>
     </defs>
     <g transform="translate(247.01325 352.750725)scale(0.1728 -0.1728)">
      <use xlink:href="#BitstreamVeraSans-Roman-54"/>
      <use x="61.037109375" xlink:href="#BitstreamVeraSans-Roman-69"/>
      <use x="88.8203125" xlink:href="#BitstreamVeraSans-Roman-6d"/>
      <use x="186.232421875" xlink:href="#BitstreamVeraSans-Roman-65"/>
      <use x="247.755859375" xlink:href="#BitstreamVeraSans-Roman-20"/>
      <use x="279.54296875" xlink:href="#BitstreamVeraSans-Roman-28"/>
      <use x="318.556640625" xlink:href="#BitstreamVeraSans-Roman-73"/>
      <use x="370.65625" xlink:href="#BitstreamVeraSans-Roman-29"/>
     </g>
    </g>
   </g>
   <g id="matplotlib.axis_2">
    <g id="ytick_1">
     <g id="line2d_19">
      <path clip-path="url(#p425922fe2b)" d="M 52.00755 319.006875 
L 512.80755 319.006875 
" style="fill:none;stroke:#cbcbcb;"/>
     </g>
     <g id="line2d_20"/>
     <g id="line2d_21"/>
     <g id="text_8">
      <!-- 7.0 -->
      <defs>
       <path d="M 10.6875 12.40625 
L 21 12.40625 
L 21 0 
L 10.6875 0 
z
" id="BitstreamVeraSans-Roman-2e"/>
       <path d="M 8.203125 72.90625 
L 55.078125 72.90625 
L 55.078125 68.703125 
L 28.609375 0 
L 18.3125 0 
L 43.21875 64.59375 
L 8.203125 64.59375 
z
" id="BitstreamVeraSans-Roman-37"/>
      </defs>
      <g transform="translate(28.9238 322.318125)scale(0.12 -0.12)">
       <use xlink:href="#BitstreamVeraSans-Roman-37"/>
       <use x="63.623046875" xlink:href="#BitstreamVeraSans-Roman-2e"/>
       <use x="95.41015625" xlink:href="#BitstreamVeraSans-Roman-30"/>
      </g>
     </g>
    </g>
    <g id="ytick_2">
     <g id="line2d_22">
      <path clip-path="url(#p425922fe2b)" d="M 52.00755 257.806875 
L 512.80755 257.806875 
" style="fill:none;stroke:#cbcbcb;"/>
     </g>
     <g id="line2d_23"/>
     <g id="line2d_24"/>
     <g id="text_9">
      <!-- 7.5 -->
      <defs>
       <path d="M 10.796875 72.90625 
L 49.515625 72.90625 
L 49.515625 64.59375 
L 19.828125 64.59375 
L 19.828125 46.734375 
Q 21.96875 47.46875 24.109375 47.828125 
Q 26.265625 48.1875 28.421875 48.1875 
Q 40.625 48.1875 47.75 41.5 
Q 54.890625 34.8125 54.890625 23.390625 
Q 54.890625 11.625 47.5625 5.09375 
Q 40.234375 -1.421875 26.90625 -1.421875 
Q 22.3125 -1.421875 17.546875 -0.640625 
Q 12.796875 0.140625 7.71875 1.703125 
L 7.71875 11.625 
Q 12.109375 9.234375 16.796875 8.0625 
Q 21.484375 6.890625 26.703125 6.890625 
Q 35.15625 6.890625 40.078125 11.328125 
Q 45.015625 15.765625 45.015625 23.390625 
Q 45.015625 31 40.078125 35.4375 
Q 35.15625 39.890625 26.703125 39.890625 
Q 22.75 39.890625 18.8125 39.015625 
Q 14.890625 38.140625 10.796875 36.28125 
z
" id="BitstreamVeraSans-Roman-35"/>
      </defs>
      <g transform="translate(28.9238 261.118125)scale(0.12 -0.12)">
       <use xlink:href="#BitstreamVeraSans-Roman-37"/>
       <use x="63.623046875" xlink:href="#BitstreamVeraSans-Roman-2e"/>
       <use x="95.41015625" xlink:href="#BitstreamVeraSans-Roman-35"/>
      </g>
     </g>
    </g>
    <g id="ytick_3">
     <g id="line2d_25">
      <path clip-path="url(#p425922fe2b)" d="M 52.00755 196.606875 
L 512.80755 196.606875 
" style="fill:none;stroke:#cbcbcb;"/>
     </g>
     <g id="line2d_26"/>
     <g id="line2d_27"/>
     <g id="text_10">
      <!-- 8.0 -->
      <g transform="translate(28.9238 199.918125)scale(0.12 -0.12)">
       <use xlink:href="#BitstreamVeraSans-Roman-38"/>
       <use x="63.623046875" xlink:href="#BitstreamVeraSans-Roman-2e"/>
       <use x="95.41015625" xlink:href="#BitstreamVeraSans-Roman-30"/>
      </g>
     </g>
    </g>
    <g id="ytick_4">
     <g id="line2d_28">
      <path clip-path="url(#p425922fe2b)" d="M 52.00755 135.406875 
L 512.80755 135.406875 
" style="fill:none;stroke:#cbcbcb;"/>
     </g>
     <g id="line2d_29"/>
     <g id="line2d_30"/>
     <g id="text_11">
      <!-- 8.5 -->
      <g transform="translate(28.9238 138.718125)scale(0.12 -0.12)">
       <use xlink:href="#BitstreamVeraSans-Roman-38"/>
       <use x="63.623046875" xlink:href="#BitstreamVeraSans-Roman-2e"/>
       <use x="95.41015625" xlink:href="#BitstreamVeraSans-Roman-35"/>
      </g>
     </g>
    </g>
    <g id="ytick_5">
     <g id="line2d_31">
      <path clip-path="url(#p425922fe2b)" d="M 52.00755 74.206875 
L 512.80755 74.206875 
" style="fill:none;stroke:#cbcbcb;"/>
     </g>
     <g id="line2d_32"/>
     <g id="line2d_33"/>
     <g id="text_12">
      <!-- 9.0 -->
      <defs>
       <path d="M 10.984375 1.515625 
L 10.984375 10.5 
Q 14.703125 8.734375 18.5 7.8125 
Q 22.3125 6.890625 25.984375 6.890625 
Q 35.75 6.890625 40.890625 13.453125 
Q 46.046875 20.015625 46.78125 33.40625 
Q 43.953125 29.203125 39.59375 26.953125 
Q 35.25 24.703125 29.984375 24.703125 
Q 19.046875 24.703125 12.671875 31.3125 
Q 6.296875 37.9375 6.296875 49.421875 
Q 6.296875 60.640625 12.9375 67.421875 
Q 19.578125 74.21875 30.609375 74.21875 
Q 43.265625 74.21875 49.921875 64.515625 
Q 56.59375 54.828125 56.59375 36.375 
Q 56.59375 19.140625 48.40625 8.859375 
Q 40.234375 -1.421875 26.421875 -1.421875 
Q 22.703125 -1.421875 18.890625 -0.6875 
Q 15.09375 0.046875 10.984375 1.515625 
M 30.609375 32.421875 
Q 37.25 32.421875 41.125 36.953125 
Q 45.015625 41.5 45.015625 49.421875 
Q 45.015625 57.28125 41.125 61.84375 
Q 37.25 66.40625 30.609375 66.40625 
Q 23.96875 66.40625 20.09375 61.84375 
Q 16.21875 57.28125 16.21875 49.421875 
Q 16.21875 41.5 20.09375 36.953125 
Q 23.96875 32.421875 30.609375 32.421875 
" id="BitstreamVeraSans-Roman-39"/>
      </defs>
      <g transform="translate(28.9238 77.518125)scale(0.12 -0.12)">
       <use xlink:href="#BitstreamVeraSans-Roman-39"/>
       <use x="63.623046875" xlink:href="#BitstreamVeraSans-Roman-2e"/>
       <use x="95.41015625" xlink:href="#BitstreamVeraSans-Roman-30"/>
      </g>
     </g>
    </g>
    <g id="ytick_6">
     <g id="line2d_34">
      <path clip-path="url(#p425922fe2b)" d="M 52.00755 13.006875 
L 512.80755 13.006875 
" style="fill:none;stroke:#cbcbcb;"/>
     </g>
     <g id="line2d_35"/>
     <g id="line2d_36"/>
     <g id="text_13">
      <!-- 9.5 -->
      <g transform="translate(28.9238 16.318125)scale(0.12 -0.12)">
       <use xlink:href="#BitstreamVeraSans-Roman-39"/>
       <use x="63.623046875" xlink:href="#BitstreamVeraSans-Roman-2e"/>
       <use x="95.41015625" xlink:href="#BitstreamVeraSans-Roman-35"/>
      </g>
     </g>
    </g>
    <g id="text_14">
     <!-- Rotor speed (rad/s) -->
     <defs>
      <path d="M 34.28125 27.484375 
Q 23.390625 27.484375 19.1875 25 
Q 14.984375 22.515625 14.984375 16.5 
Q 14.984375 11.71875 18.140625 8.90625 
Q 21.296875 6.109375 26.703125 6.109375 
Q 34.1875 6.109375 38.703125 11.40625 
Q 43.21875 16.703125 43.21875 25.484375 
L 43.21875 27.484375 
z
M 52.203125 31.203125 
L 52.203125 0 
L 43.21875 0 
L 43.21875 8.296875 
Q 40.140625 3.328125 35.546875 0.953125 
Q 30.953125 -1.421875 24.3125 -1.421875 
Q 15.921875 -1.421875 10.953125 3.296875 
Q 6 8.015625 6 15.921875 
Q 6 25.140625 12.171875 29.828125 
Q 18.359375 34.515625 30.609375 34.515625 
L 43.21875 34.515625 
L 43.21875 35.40625 
Q 43.21875 41.609375 39.140625 45 
Q 35.0625 48.390625 27.6875 48.390625 
Q 23 48.390625 18.546875 47.265625 
Q 14.109375 46.140625 10.015625 43.890625 
L 10.015625 52.203125 
Q 14.9375 54.109375 19.578125 55.046875 
Q 24.21875 56 28.609375 56 
Q 40.484375 56 46.34375 49.84375 
Q 52.203125 43.703125 52.203125 31.203125 
" id="BitstreamVeraSans-Roman-61"/>
      <path d="M 18.109375 8.203125 
L 18.109375 -20.796875 
L 9.078125 -20.796875 
L 9.078125 54.6875 
L 18.109375 54.6875 
L 18.109375 46.390625 
Q 20.953125 51.265625 25.265625 53.625 
Q 29.59375 56 35.59375 56 
Q 45.5625 56 51.78125 48.09375 
Q 58.015625 40.1875 58.015625 27.296875 
Q 58.015625 14.40625 51.78125 6.484375 
Q 45.5625 -1.421875 35.59375 -1.421875 
Q 29.59375 -1.421875 25.265625 0.953125 
Q 20.953125 3.328125 18.109375 8.203125 
M 48.6875 27.296875 
Q 48.6875 37.203125 44.609375 42.84375 
Q 40.53125 48.484375 33.40625 48.484375 
Q 26.265625 48.484375 22.1875 42.84375 
Q 18.109375 37.203125 18.109375 27.296875 
Q 18.109375 17.390625 22.1875 11.75 
Q 26.265625 6.109375 33.40625 6.109375 
Q 40.53125 6.109375 44.609375 11.75 
Q 48.6875 17.390625 48.6875 27.296875 
" id="BitstreamVeraSans-Roman-70"/>
      <path d="M 41.109375 46.296875 
Q 39.59375 47.171875 37.8125 47.578125 
Q 36.03125 48 33.890625 48 
Q 26.265625 48 22.1875 43.046875 
Q 18.109375 38.09375 18.109375 28.8125 
L 18.109375 0 
L 9.078125 0 
L 9.078125 54.6875 
L 18.109375 54.6875 
L 18.109375 46.1875 
Q 20.953125 51.171875 25.484375 53.578125 
Q 30.03125 56 36.53125 56 
Q 37.453125 56 38.578125 55.875 
Q 39.703125 55.765625 41.0625 55.515625 
z
" id="BitstreamVeraSans-Roman-72"/>
      <path d="M 18.3125 70.21875 
L 18.3125 54.6875 
L 36.8125 54.6875 
L 36.8125 47.703125 
L 18.3125 47.703125 
L 18.3125 18.015625 
Q 18.3125 11.328125 20.140625 9.421875 
Q 21.96875 7.515625 27.59375 7.515625 
L 36.8125 7.515625 
L 36.8125 0 
L 27.59375 0 
Q 17.1875 0 13.234375 3.875 
Q 9.28125 7.765625 9.28125 18.015625 
L 9.28125 47.703125 
L 2.6875 47.703125 
L 2.6875 54.6875 
L 9.28125 54.6875 
L 9.28125 70.21875 
z
" id="BitstreamVeraSans-Roman-74"/>
      <path d="M 45.40625 46.390625 
L 45.40625 75.984375 
L 54.390625 75.984375 
L 54.390625 0 
L 45.40625 0 
L 45.40625 8.203125 
Q 42.578125 3.328125 38.25 0.953125 
Q 33.9375 -1.421875 27.875 -1.421875 
Q 17.96875 -1.421875 11.734375 6.484375 
Q 5.515625 14.40625 5.515625 27.296875 
Q 5.515625 40.1875 11.734375 48.09375 
Q 17.96875 56 27.875 56 
Q 33.9375 56 38.25 53.625 
Q 42.578125 51.265625 45.40625 46.390625 
M 14.796875 27.296875 
Q 14.796875 17.390625 18.875 11.75 
Q 22.953125 6.109375 30.078125 6.109375 
Q 37.203125 6.109375 41.296875 11.75 
Q 45.40625 17.390625 45.40625 27.296875 
Q 45.40625 37.203125 41.296875 42.84375 
Q 37.203125 48.484375 30.078125 48.484375 
Q 22.953125 48.484375 18.875 42.84375 
Q 14.796875 37.203125 14.796875 27.296875 
" id="BitstreamVeraSans-Roman-64"/>
      <path d="M 30.609375 48.390625 
Q 23.390625 48.390625 19.1875 42.75 
Q 14.984375 37.109375 14.984375 27.296875 
Q 14.984375 17.484375 19.15625 11.84375 
Q 23.34375 6.203125 30.609375 6.203125 
Q 37.796875 6.203125 41.984375 11.859375 
Q 46.1875 17.53125 46.1875 27.296875 
Q 46.1875 37.015625 41.984375 42.703125 
Q 37.796875 48.390625 30.609375 48.390625 
M 30.609375 56 
Q 42.328125 56 49.015625 48.375 
Q 55.71875 40.765625 55.71875 27.296875 
Q 55.71875 13.875 49.015625 6.21875 
Q 42.328125 -1.421875 30.609375 -1.421875 
Q 18.84375 -1.421875 12.171875 6.21875 
Q 5.515625 13.875 5.515625 27.296875 
Q 5.515625 40.765625 12.171875 48.375 
Q 18.84375 56 30.609375 56 
" id="BitstreamVeraSans-Roman-6f"/>
      <path d="M 44.390625 34.1875 
Q 47.5625 33.109375 50.5625 29.59375 
Q 53.5625 26.078125 56.59375 19.921875 
L 66.609375 0 
L 56 0 
L 46.6875 18.703125 
Q 43.0625 26.03125 39.671875 28.421875 
Q 36.28125 30.8125 30.421875 30.8125 
L 19.671875 30.8125 
L 19.671875 0 
L 9.8125 0 
L 9.8125 72.90625 
L 32.078125 72.90625 
Q 44.578125 72.90625 50.734375 67.671875 
Q 56.890625 62.453125 56.890625 51.90625 
Q 56.890625 45.015625 53.6875 40.46875 
Q 50.484375 35.9375 44.390625 34.1875 
M 19.671875 64.796875 
L 19.671875 38.921875 
L 32.078125 38.921875 
Q 39.203125 38.921875 42.84375 42.21875 
Q 46.484375 45.515625 46.484375 51.90625 
Q 46.484375 58.296875 42.84375 61.546875 
Q 39.203125 64.796875 32.078125 64.796875 
z
" id="BitstreamVeraSans-Roman-52"/>
      <path d="M 25.390625 72.90625 
L 33.6875 72.90625 
L 8.296875 -9.28125 
L 0 -9.28125 
z
" id="BitstreamVeraSans-Roman-2f"/>
     </defs>
     <g transform="translate(20.3301 249.597525)rotate(-90.0)scale(0.1728 -0.1728)">
      <use xlink:href="#BitstreamVeraSans-Roman-52"/>
      <use x="69.419921875" xlink:href="#BitstreamVeraSans-Roman-6f"/>
      <use x="130.6015625" xlink:href="#BitstreamVeraSans-Roman-74"/>
      <use x="169.810546875" xlink:href="#BitstreamVeraSans-Roman-6f"/>
      <use x="230.9921875" xlink:href="#BitstreamVeraSans-Roman-72"/>
      <use x="272.10546875" xlink:href="#BitstreamVeraSans-Roman-20"/>
      <use x="303.892578125" xlink:href="#BitstreamVeraSans-Roman-73"/>
      <use x="355.9921875" xlink:href="#BitstreamVeraSans-Roman-70"/>
      <use x="419.46875" xlink:href="#BitstreamVeraSans-Roman-65"/>
      <use x="480.9921875" xlink:href="#BitstreamVeraSans-Roman-65"/>
      <use x="542.515625" xlink:href="#BitstreamVeraSans-Roman-64"/>
      <use x="605.9921875" xlink:href="#BitstreamVeraSans-Roman-20"/>
      <use x="637.779296875" xlink:href="#BitstreamVeraSans-Roman-28"/>
      <use x="676.79296875" xlink:href="#BitstreamVeraSans-Roman-72"/>
      <use x="717.90625" xlink:href="#BitstreamVeraSans-Roman-61"/>
      <use x="779.185546875" xlink:href="#BitstreamVeraSans-Roman-64"/>
      <use x="842.662109375" xlink:href="#BitstreamVeraSans-Roman-2f"/>
      <use x="876.353515625" xlink:href="#BitstreamVeraSans-Roman-73"/>
      <use x="928.453125" xlink:href="#BitstreamVeraSans-Roman-29"/>
     </g>
    </g>
   </g>
   <g id="line2d_37">
    <path clip-path="url(#p425922fe2b)" d="M 52.00755 313.000556 
L 52.46835 312.670786 
L 54.77235 312.183943 
L 57.53715 311.895556 
L 61.68435 311.728167 
L 70.43955 311.659791 
L 98.08755 311.653833 
L 101.31315 295.035529 
L 102.23475 290.21023 
L 103.61715 282.910702 
L 105.92115 271.30287 
L 107.30355 263.870201 
L 111.45075 241.991168 
L 113.75475 229.802151 
L 116.05875 217.85334 
L 118.36275 205.940378 
L 119.74515 199.098601 
L 123.89235 177.698782 
L 125.73555 167.913233 
L 127.57875 158.783344 
L 132.64755 131.603881 
L 134.02995 124.448552 
L 137.71635 104.857923 
L 140.02035 92.791448 
L 144.62835 68.612728 
L 145.54995 64.805947 
L 146.47155 61.94918 
L 147.39315 59.799903 
L 147.85395 59.093229 
L 148.31475 58.124005 
L 150.15795 56.361875 
L 152.46195 55.259485 
L 152.92275 55.208065 
L 153.84435 54.777641 
L 154.30515 54.708424 
L 154.76595 54.410056 
L 155.68755 54.330786 
L 156.60915 54.479542 
L 157.06995 54.278378 
L 158.45235 54.274747 
L 158.91315 54.414456 
L 159.83475 54.388247 
L 160.75635 54.679072 
L 161.67795 54.447411 
L 163.52115 54.194996 
L 164.90355 54.2632 
L 165.36435 53.973634 
L 168.58995 53.727116 
L 169.51155 53.684676 
L 169.97235 54.039773 
L 170.43315 54.082514 
L 170.89395 53.973857 
L 171.35475 53.69378 
L 171.81555 53.767521 
L 172.73715 53.401593 
L 173.19795 53.520524 
L 175.50195 53.424329 
L 175.96275 53.617272 
L 176.42355 53.4942 
L 176.88435 53.628271 
L 177.80595 53.538744 
L 179.18835 53.365731 
L 179.64915 53.438591 
L 180.10995 53.279173 
L 181.03155 53.337948 
L 181.95315 53.047067 
L 182.87475 53.058431 
L 183.33555 53.255633 
L 183.79635 53.296604 
L 185.17875 53.099565 
L 186.56115 53.196966 
L 187.02195 52.937687 
L 187.48275 52.926993 
L 187.94355 53.207058 
L 188.40435 53.282971 
L 188.86515 53.117388 
L 189.32595 53.256717 
L 191.16915 53.234504 
L 191.62995 53.049188 
L 192.09075 53.016424 
L 193.01235 53.365215 
L 193.47315 53.209492 
L 194.39475 53.172982 
L 194.85555 53.345594 
L 195.31635 52.936216 
L 195.77715 53.008627 
L 196.69875 52.971847 
L 197.62035 52.939647 
L 198.08115 52.874551 
L 199.00275 53.159009 
L 199.92435 53.084344 
L 203.14995 53.053944 
L 204.99315 52.703688 
L 205.45395 52.64272 
L 205.91475 52.718299 
L 207.75795 52.628688 
L 210.06195 52.673415 
L 210.98355 52.447323 
L 211.44435 52.488208 
L 211.90515 52.357576 
L 215.13075 52.370983 
L 216.05235 51.921264 
L 221.12115 51.749213 
L 222.04275 51.7618 
L 222.96435 51.369334 
L 223.42515 51.241599 
L 223.88595 51.393875 
L 225.26835 51.399786 
L 225.72915 51.497644 
L 226.18995 51.773721 
L 226.65075 51.771179 
L 227.57235 51.429527 
L 228.03315 51.497732 
L 229.41555 51.237578 
L 229.87635 51.252686 
L 230.33715 51.118387 
L 230.79795 51.245169 
L 231.25875 51.238399 
L 231.71955 51.009399 
L 233.10195 50.757092 
L 233.56275 50.546071 
L 235.86675 50.464178 
L 236.32755 50.662781 
L 236.78835 50.736334 
L 237.24915 50.524832 
L 237.70995 50.44076 
L 239.09235 50.815653 
L 240.01395 50.896689 
L 240.47475 50.674251 
L 241.39635 50.62811 
L 243.23955 50.432087 
L 243.70035 50.340443 
L 244.16115 50.467766 
L 245.54355 49.953335 
L 246.00435 50.029969 
L 246.92595 49.823838 
L 247.38675 50.070656 
L 248.30835 49.904227 
L 249.22995 49.973674 
L 249.69075 50.063543 
L 250.15155 50.30634 
L 251.07315 50.097269 
L 251.53395 50.107298 
L 251.99475 50.23168 
L 252.45555 50.181716 
L 254.29875 50.623734 
L 256.14195 50.289557 
L 256.60275 50.321913 
L 257.06355 50.501307 
L 257.52435 50.40258 
L 257.98515 50.168182 
L 260.74995 50.158456 
L 261.21075 49.954296 
L 261.67155 50.012632 
L 262.59315 49.578142 
L 263.97555 49.582521 
L 265.35795 49.516688 
L 265.81875 49.571639 
L 267.20115 49.268197 
L 267.66195 49.035012 
L 269.04435 49.019739 
L 269.96595 49.172082 
L 270.42675 49.045042 
L 270.88755 49.042037 
L 271.34835 48.904513 
L 272.26995 48.942053 
L 272.73075 48.705345 
L 273.65235 48.720763 
L 275.03475 48.416942 
L 275.95635 48.328027 
L 276.41715 48.271014 
L 276.87795 48.534666 
L 277.79955 48.617675 
L 278.26035 48.493945 
L 278.72115 48.499136 
L 279.64275 48.322278 
L 280.10355 48.52009 
L 280.56435 48.530104 
L 281.02515 48.252484 
L 282.40755 48.18382 
L 282.86835 48.103719 
L 283.32915 48.150101 
L 283.78995 47.942491 
L 284.25075 47.966767 
L 285.17235 48.252115 
L 286.09395 48.070424 
L 287.01555 48.33041 
L 287.93715 48.217168 
L 288.39795 48.210798 
L 288.85875 48.037441 
L 289.78035 48.047438 
L 290.70195 47.646853 
L 291.62355 47.7779 
L 292.08435 47.47162 
L 293.00595 47.627299 
L 293.92755 47.37496 
L 294.84915 47.66912 
L 295.30995 47.698556 
L 295.77075 47.913999 
L 296.23155 47.829459 
L 296.69235 47.963035 
L 298.53555 47.828234 
L 298.99635 47.613361 
L 299.91795 47.622182 
L 300.83955 47.339217 
L 301.76115 47.566915 
L 302.68275 47.555289 
L 307.29075 46.920279 
L 308.67315 47.133424 
L 310.51635 46.969356 
L 311.43795 47.019764 
L 312.82035 46.99059 
L 313.28115 46.708238 
L 313.74195 46.605288 
L 314.20275 46.648794 
L 314.66355 46.419397 
L 317.42835 46.192199 
L 317.88915 46.051657 
L 318.34995 46.303674 
L 318.81075 46.178516 
L 319.27155 46.413103 
L 319.73235 46.478362 
L 320.65395 46.365811 
L 321.11475 46.522651 
L 322.95795 46.224598 
L 323.41875 46.017983 
L 323.87955 45.955997 
L 324.34035 45.757445 
L 325.26195 45.711889 
L 325.72275 45.820947 
L 326.18355 45.531814 
L 328.48755 45.05254 
L 329.40915 45.246815 
L 329.86995 45.077726 
L 330.79155 45.282813 
L 332.17395 45.232223 
L 333.09555 44.988185 
L 333.55635 45.079317 
L 334.93875 44.772369 
L 335.39955 44.697007 
L 335.86035 44.759114 
L 337.24275 44.392016 
L 338.16435 44.509686 
L 338.62515 44.214161 
L 339.54675 44.039581 
L 340.00755 44.069301 
L 340.92915 43.681565 
L 342.77235 43.786634 
L 343.23315 43.772019 
L 344.15475 43.217806 
L 344.61555 43.110175 
L 345.99795 43.423472 
L 347.38035 43.39503 
L 351.06675 43.279589 
L 351.52755 43.168857 
L 351.98835 43.221878 
L 352.44915 43.411572 
L 353.37075 43.248201 
L 353.83155 43.24052 
L 354.75315 42.9507 
L 356.13555 42.948354 
L 356.59635 42.805625 
L 357.05715 42.94001 
L 357.97875 42.721212 
L 358.90035 42.698992 
L 359.36115 42.633016 
L 359.82195 42.769411 
L 360.28275 42.753895 
L 360.74355 42.615426 
L 361.66515 42.682378 
L 362.12595 42.53669 
L 363.04755 42.732699 
L 364.89075 42.652516 
L 365.81235 42.419268 
L 366.27315 42.618313 
L 366.73395 42.478204 
L 369.03795 42.432619 
L 369.49875 42.380668 
L 369.95955 42.443322 
L 371.34195 41.87437 
L 372.26355 42.044396 
L 373.18515 42.292434 
L 373.64595 42.204556 
L 375.02835 42.346347 
L 375.48915 42.167276 
L 376.41075 42.374371 
L 377.33235 42.611267 
L 379.17555 42.765313 
L 379.63635 42.533603 
L 380.55795 42.530128 
L 381.01875 42.603897 
L 381.47955 42.417264 
L 381.94035 42.682366 
L 382.40115 42.544563 
L 382.86195 42.244633 
L 383.32275 42.401267 
L 384.24435 42.211017 
L 384.70515 42.214421 
L 385.16595 42.028324 
L 386.08755 41.99159 
L 387.46995 41.765656 
L 388.39155 42.122334 
L 390.69555 42.722769 
L 391.15635 42.688479 
L 391.61715 42.792034 
L 392.07795 43.112787 
L 394.38195 42.733169 
L 394.84275 42.730964 
L 395.76435 42.293199 
L 396.68595 42.331292 
L 397.14675 42.015245 
L 398.06835 41.728725 
L 398.52915 41.902883 
L 399.91155 42.071914 
L 402.67635 41.233416 
L 403.59795 41.454643 
L 404.05875 41.740842 
L 405.44115 41.528379 
L 405.90195 41.784278 
L 406.36275 41.768174 
L 407.28435 41.988156 
L 407.74515 41.810423 
L 408.20595 41.886005 
L 408.66675 41.678929 
L 410.50995 41.576146 
L 413.73555 42.044908 
L 414.65715 41.864468 
L 415.11795 41.769587 
L 415.57875 41.857442 
L 416.03955 41.691448 
L 416.96115 41.699974 
L 417.88275 41.915536 
L 418.34355 41.905654 
L 418.80435 41.782538 
L 421.56915 41.86465 
L 422.02995 41.596997 
L 423.87315 41.321651 
L 424.33395 41.218666 
L 424.79475 41.400682 
L 425.71635 41.252024 
L 426.63795 41.350488 
L 427.09875 41.026547 
L 427.55955 41.072487 
L 428.02035 40.947267 
L 429.40275 41.063578 
L 430.78515 40.892507 
L 432.16755 41.11907 
L 432.62835 40.956372 
L 433.08915 41.013784 
L 434.01075 40.845439 
L 434.47155 40.977494 
L 434.93235 40.650268 
L 437.23635 40.776865 
L 438.61875 40.485334 
L 439.07955 40.612737 
L 440.92275 40.57552 
L 441.84435 39.909668 
L 442.30515 39.934244 
L 442.76595 39.847154 
L 443.22675 39.639232 
L 444.14835 39.684767 
L 444.60915 39.553847 
L 446.45235 39.795428 
L 446.91315 39.743194 
L 447.37395 40.010925 
L 447.83475 39.988699 
L 448.29555 40.124253 
L 448.75635 39.901054 
L 450.59955 39.751587 
L 451.06035 39.778133 
L 451.98195 40.009598 
L 452.44275 39.919125 
L 453.82515 40.247635 
L 454.74675 39.955813 
L 455.20755 40.00976 
L 455.66835 39.92907 
L 456.12915 39.984973 
L 456.58995 39.706151 
L 457.05075 39.557935 
L 458.43315 39.986024 
L 461.19795 39.42722 
L 462.11955 39.390543 
L 462.58035 39.178409 
L 463.04115 39.264479 
L 463.50195 39.119481 
L 465.80595 39.265237 
L 467.18835 39.276029 
L 467.64915 39.325843 
L 468.10995 38.983006 
L 469.03155 38.757545 
L 469.95315 38.573837 
L 470.41395 38.630862 
L 471.33555 38.505333 
L 472.25715 38.127766 
L 472.71795 38.115836 
L 473.17875 38.292392 
L 474.10035 38.302151 
L 474.56115 38.362773 
L 475.48275 37.914858 
L 475.94355 37.824932 
L 476.86515 37.950259 
L 477.78675 37.604216 
L 479.16915 37.350008 
L 479.62995 37.423938 
L 480.09075 37.225302 
L 483.77715 37.757179 
L 484.69875 37.695049 
L 485.15955 37.849841 
L 485.62035 37.755946 
L 486.08115 37.945937 
L 487.00275 38.057167 
L 487.46355 37.959275 
L 487.92435 38.078166 
L 488.38515 37.89344 
L 488.84595 37.834227 
L 489.30675 38.001851 
L 490.22835 37.845742 
L 490.68915 37.943341 
L 491.61075 37.689141 
L 492.99315 37.619587 
L 493.45395 37.444971 
L 494.83635 37.686121 
L 495.29715 37.613781 
L 495.75795 37.995364 
L 499.44435 37.492273 
L 499.90515 37.313396 
L 500.82675 37.44839 
L 503.59155 37.371398 
L 504.05235 37.505541 
L 504.51315 37.352387 
L 504.97395 37.409861 
L 505.43475 37.333738 
L 505.89555 37.377757 
L 507.27795 36.981291 
L 508.19955 37.143817 
L 508.66035 37.333804 
L 510.50355 37.352059 
L 512.34675 37.22488 
L 512.34675 37.22488 
" style="fill:none;stroke:#fc4f30;stroke-width:4.0;"/>
   </g>
   <g id="patch_3">
    <path d="M 52.00755 13.006875 
L 512.80755 13.006875 
" style="fill:none;stroke:#ffffff;stroke-linecap:square;stroke-linejoin:miter;stroke-width:3.0;"/>
   </g>
   <g id="patch_4">
    <path d="M 52.00755 319.006875 
L 52.00755 13.006875 
" style="fill:none;stroke:#ffffff;stroke-linecap:square;stroke-linejoin:miter;stroke-width:3.0;"/>
   </g>
   <g id="patch_5">
    <path d="M 512.80755 319.006875 
L 512.80755 13.006875 
" style="fill:none;stroke:#ffffff;stroke-linecap:square;stroke-linejoin:miter;stroke-width:3.0;"/>
   </g>
   <g id="patch_6">
    <path d="M 52.00755 319.006875 
L 512.80755 319.006875 
" style="fill:none;stroke:#ffffff;stroke-linecap:square;stroke-linejoin:miter;stroke-width:3.0;"/>
   </g>
  </g>
 </g>
 <defs>
  <clipPath id="p425922fe2b">
   <rect height="306.0" width="460.8" x="52.00755" y="13.006875"/>
  </clipPath>
 </defs>
</svg>
