<?xml version="1.0" encoding="utf-8" standalone="no"?>
<!DOCTYPE svg PUBLIC "-//W3C//DTD SVG 1.1//EN"
  "http://www.w3.org/Graphics/SVG/1.1/DTD/svg11.dtd">
<!-- Created with matplotlib (http://matplotlib.org/) -->
<svg height="544pt" version="1.1" viewBox="0 0 524 544" width="524pt" xmlns="http://www.w3.org/2000/svg" xmlns:xlink="http://www.w3.org/1999/xlink">
 <defs>
  <style type="text/css">
*{stroke-linecap:butt;stroke-linejoin:round;stroke-miterlimit:100000;}
  </style>
 </defs>
 <g id="figure_1">
  <g id="patch_1">
   <path d="M 0 544.357125 
L 524.85525 544.357125 
L 524.85525 0 
L 0 0 
z
" style="fill:none;opacity:0;"/>
  </g>
  <g id="axes_1">
   <g id="patch_2">
    <path d="M 49.22025 235.55233 
L 510.02025 235.55233 
L 510.02025 13.006875 
L 49.22025 13.006875 
z
" style="fill:#ffffff;"/>
   </g>
   <g id="matplotlib.axis_1">
    <g id="xtick_1">
     <g id="line2d_1">
      <path clip-path="url(#pabe2156998)" d="M 49.22025 235.55233 
L 49.22025 13.006875 
" style="fill:none;stroke:#cbcbcb;"/>
     </g>
     <g id="line2d_2"/>
     <g id="line2d_3"/>
    </g>
    <g id="xtick_2">
     <g id="line2d_4">
      <path clip-path="url(#pabe2156998)" d="M 141.38025 235.55233 
L 141.38025 13.006875 
" style="fill:none;stroke:#cbcbcb;"/>
     </g>
     <g id="line2d_5"/>
     <g id="line2d_6"/>
    </g>
    <g id="xtick_3">
     <g id="line2d_7">
      <path clip-path="url(#pabe2156998)" d="M 233.54025 235.55233 
L 233.54025 13.006875 
" style="fill:none;stroke:#cbcbcb;"/>
     </g>
     <g id="line2d_8"/>
     <g id="line2d_9"/>
    </g>
    <g id="xtick_4">
     <g id="line2d_10">
      <path clip-path="url(#pabe2156998)" d="M 325.70025 235.55233 
L 325.70025 13.006875 
" style="fill:none;stroke:#cbcbcb;"/>
     </g>
     <g id="line2d_11"/>
     <g id="line2d_12"/>
    </g>
    <g id="xtick_5">
     <g id="line2d_13">
      <path clip-path="url(#pabe2156998)" d="M 417.86025 235.55233 
L 417.86025 13.006875 
" style="fill:none;stroke:#cbcbcb;"/>
     </g>
     <g id="line2d_14"/>
     <g id="line2d_15"/>
    </g>
    <g id="xtick_6">
     <g id="line2d_16">
      <path clip-path="url(#pabe2156998)" d="M 510.02025 235.55233 
L 510.02025 13.006875 
" style="fill:none;stroke:#cbcbcb;"/>
     </g>
     <g id="line2d_17"/>
     <g id="line2d_18"/>
    </g>
   </g>
   <g id="matplotlib.axis_2">
    <g id="ytick_1">
     <g id="line2d_19">
      <path clip-path="url(#pabe2156998)" d="M 49.22025 235.55233 
L 510.02025 235.55233 
" style="fill:none;stroke:#cbcbcb;"/>
     </g>
     <g id="line2d_20"/>
     <g id="line2d_21"/>
     <g id="text_1">
      <!-- 7.0 -->
      <defs>
       <path d="M 8.203125 72.90625 
L 55.078125 72.90625 
L 55.078125 68.703125 
L 28.609375 0 
L 18.3125 0 
L 43.21875 64.59375 
L 8.203125 64.59375 
z
" id="BitstreamVeraSans-Roman-37"/>
       <path d="M 31.78125 66.40625 
Q 24.171875 66.40625 20.328125 58.90625 
Q 16.5 51.421875 16.5 36.375 
Q 16.5 21.390625 20.328125 13.890625 
Q 24.171875 6.390625 31.78125 6.390625 
Q 39.453125 6.390625 43.28125 13.890625 
Q 47.125 21.390625 47.125 36.375 
Q 47.125 51.421875 43.28125 58.90625 
Q 39.453125 66.40625 31.78125 66.40625 
M 31.78125 74.21875 
Q 44.046875 74.21875 50.515625 64.515625 
Q 56.984375 54.828125 56.984375 36.375 
Q 56.984375 17.96875 50.515625 8.265625 
Q 44.046875 -1.421875 31.78125 -1.421875 
Q 19.53125 -1.421875 13.0625 8.265625 
Q 6.59375 17.96875 6.59375 36.375 
Q 6.59375 54.828125 13.0625 64.515625 
Q 19.53125 74.21875 31.78125 74.21875 
" id="BitstreamVeraSans-Roman-30"/>
       <path d="M 10.6875 12.40625 
L 21 12.40625 
L 21 0 
L 10.6875 0 
z
" id="BitstreamVeraSans-Roman-2e"/>
      </defs>
      <g transform="translate(26.1365 238.863579545)scale(0.12 -0.12)">
       <use xlink:href="#BitstreamVeraSans-Roman-37"/>
       <use x="63.623046875" xlink:href="#BitstreamVeraSans-Roman-2e"/>
       <use x="95.41015625" xlink:href="#BitstreamVeraSans-Roman-30"/>
      </g>
     </g>
    </g>
    <g id="ytick_2">
     <g id="line2d_22">
      <path clip-path="url(#pabe2156998)" d="M 49.22025 203.760122 
L 510.02025 203.760122 
" style="fill:none;stroke:#cbcbcb;"/>
     </g>
     <g id="line2d_23"/>
     <g id="line2d_24"/>
     <g id="text_2">
      <!-- 7.2 -->
      <defs>
       <path d="M 19.1875 8.296875 
L 53.609375 8.296875 
L 53.609375 0 
L 7.328125 0 
L 7.328125 8.296875 
Q 12.9375 14.109375 22.625 23.890625 
Q 32.328125 33.6875 34.8125 36.53125 
Q 39.546875 41.84375 41.421875 45.53125 
Q 43.3125 49.21875 43.3125 52.78125 
Q 43.3125 58.59375 39.234375 62.25 
Q 35.15625 65.921875 28.609375 65.921875 
Q 23.96875 65.921875 18.8125 64.3125 
Q 13.671875 62.703125 7.8125 59.421875 
L 7.8125 69.390625 
Q 13.765625 71.78125 18.9375 73 
Q 24.125 74.21875 28.421875 74.21875 
Q 39.75 74.21875 46.484375 68.546875 
Q 53.21875 62.890625 53.21875 53.421875 
Q 53.21875 48.921875 51.53125 44.890625 
Q 49.859375 40.875 45.40625 35.40625 
Q 44.1875 33.984375 37.640625 27.21875 
Q 31.109375 20.453125 19.1875 8.296875 
" id="BitstreamVeraSans-Roman-32"/>
      </defs>
      <g transform="translate(26.1365 207.071371753)scale(0.12 -0.12)">
       <use xlink:href="#BitstreamVeraSans-Roman-37"/>
       <use x="63.623046875" xlink:href="#BitstreamVeraSans-Roman-2e"/>
       <use x="95.41015625" xlink:href="#BitstreamVeraSans-Roman-32"/>
      </g>
     </g>
    </g>
    <g id="ytick_3">
     <g id="line2d_25">
      <path clip-path="url(#pabe2156998)" d="M 49.22025 171.967914 
L 510.02025 171.967914 
" style="fill:none;stroke:#cbcbcb;"/>
     </g>
     <g id="line2d_26"/>
     <g id="line2d_27"/>
     <g id="text_3">
      <!-- 7.4 -->
      <defs>
       <path d="M 37.796875 64.3125 
L 12.890625 25.390625 
L 37.796875 25.390625 
z
M 35.203125 72.90625 
L 47.609375 72.90625 
L 47.609375 25.390625 
L 58.015625 25.390625 
L 58.015625 17.1875 
L 47.609375 17.1875 
L 47.609375 0 
L 37.796875 0 
L 37.796875 17.1875 
L 4.890625 17.1875 
L 4.890625 26.703125 
z
" id="BitstreamVeraSans-Roman-34"/>
      </defs>
      <g transform="translate(26.1365 175.279163961)scale(0.12 -0.12)">
       <use xlink:href="#BitstreamVeraSans-Roman-37"/>
       <use x="63.623046875" xlink:href="#BitstreamVeraSans-Roman-2e"/>
       <use x="95.41015625" xlink:href="#BitstreamVeraSans-Roman-34"/>
      </g>
     </g>
    </g>
    <g id="ytick_4">
     <g id="line2d_28">
      <path clip-path="url(#pabe2156998)" d="M 49.22025 140.175706 
L 510.02025 140.175706 
" style="fill:none;stroke:#cbcbcb;"/>
     </g>
     <g id="line2d_29"/>
     <g id="line2d_30"/>
     <g id="text_4">
      <!-- 7.6 -->
      <defs>
       <path d="M 33.015625 40.375 
Q 26.375 40.375 22.484375 35.828125 
Q 18.609375 31.296875 18.609375 23.390625 
Q 18.609375 15.53125 22.484375 10.953125 
Q 26.375 6.390625 33.015625 6.390625 
Q 39.65625 6.390625 43.53125 10.953125 
Q 47.40625 15.53125 47.40625 23.390625 
Q 47.40625 31.296875 43.53125 35.828125 
Q 39.65625 40.375 33.015625 40.375 
M 52.59375 71.296875 
L 52.59375 62.3125 
Q 48.875 64.0625 45.09375 64.984375 
Q 41.3125 65.921875 37.59375 65.921875 
Q 27.828125 65.921875 22.671875 59.328125 
Q 17.53125 52.734375 16.796875 39.40625 
Q 19.671875 43.65625 24.015625 45.921875 
Q 28.375 48.1875 33.59375 48.1875 
Q 44.578125 48.1875 50.953125 41.515625 
Q 57.328125 34.859375 57.328125 23.390625 
Q 57.328125 12.15625 50.6875 5.359375 
Q 44.046875 -1.421875 33.015625 -1.421875 
Q 20.359375 -1.421875 13.671875 8.265625 
Q 6.984375 17.96875 6.984375 36.375 
Q 6.984375 53.65625 15.1875 63.9375 
Q 23.390625 74.21875 37.203125 74.21875 
Q 40.921875 74.21875 44.703125 73.484375 
Q 48.484375 72.75 52.59375 71.296875 
" id="BitstreamVeraSans-Roman-36"/>
      </defs>
      <g transform="translate(26.1365 143.486956169)scale(0.12 -0.12)">
       <use xlink:href="#BitstreamVeraSans-Roman-37"/>
       <use x="63.623046875" xlink:href="#BitstreamVeraSans-Roman-2e"/>
       <use x="95.41015625" xlink:href="#BitstreamVeraSans-Roman-36"/>
      </g>
     </g>
    </g>
    <g id="ytick_5">
     <g id="line2d_31">
      <path clip-path="url(#pabe2156998)" d="M 49.22025 108.383498 
L 510.02025 108.383498 
" style="fill:none;stroke:#cbcbcb;"/>
     </g>
     <g id="line2d_32"/>
     <g id="line2d_33"/>
     <g id="text_5">
      <!-- 7.8 -->
      <defs>
       <path d="M 31.78125 34.625 
Q 24.75 34.625 20.71875 30.859375 
Q 16.703125 27.09375 16.703125 20.515625 
Q 16.703125 13.921875 20.71875 10.15625 
Q 24.75 6.390625 31.78125 6.390625 
Q 38.8125 6.390625 42.859375 10.171875 
Q 46.921875 13.96875 46.921875 20.515625 
Q 46.921875 27.09375 42.890625 30.859375 
Q 38.875 34.625 31.78125 34.625 
M 21.921875 38.8125 
Q 15.578125 40.375 12.03125 44.71875 
Q 8.5 49.078125 8.5 55.328125 
Q 8.5 64.0625 14.71875 69.140625 
Q 20.953125 74.21875 31.78125 74.21875 
Q 42.671875 74.21875 48.875 69.140625 
Q 55.078125 64.0625 55.078125 55.328125 
Q 55.078125 49.078125 51.53125 44.71875 
Q 48 40.375 41.703125 38.8125 
Q 48.828125 37.15625 52.796875 32.3125 
Q 56.78125 27.484375 56.78125 20.515625 
Q 56.78125 9.90625 50.3125 4.234375 
Q 43.84375 -1.421875 31.78125 -1.421875 
Q 19.734375 -1.421875 13.25 4.234375 
Q 6.78125 9.90625 6.78125 20.515625 
Q 6.78125 27.484375 10.78125 32.3125 
Q 14.796875 37.15625 21.921875 38.8125 
M 18.3125 54.390625 
Q 18.3125 48.734375 21.84375 45.5625 
Q 25.390625 42.390625 31.78125 42.390625 
Q 38.140625 42.390625 41.71875 45.5625 
Q 45.3125 48.734375 45.3125 54.390625 
Q 45.3125 60.0625 41.71875 63.234375 
Q 38.140625 66.40625 31.78125 66.40625 
Q 25.390625 66.40625 21.84375 63.234375 
Q 18.3125 60.0625 18.3125 54.390625 
" id="BitstreamVeraSans-Roman-38"/>
      </defs>
      <g transform="translate(26.1365 111.694748377)scale(0.12 -0.12)">
       <use xlink:href="#BitstreamVeraSans-Roman-37"/>
       <use x="63.623046875" xlink:href="#BitstreamVeraSans-Roman-2e"/>
       <use x="95.41015625" xlink:href="#BitstreamVeraSans-Roman-38"/>
      </g>
     </g>
    </g>
    <g id="ytick_6">
     <g id="line2d_34">
      <path clip-path="url(#pabe2156998)" d="M 49.22025 76.591291 
L 510.02025 76.591291 
" style="fill:none;stroke:#cbcbcb;"/>
     </g>
     <g id="line2d_35"/>
     <g id="line2d_36"/>
     <g id="text_6">
      <!-- 8.0 -->
      <g transform="translate(26.1365 79.9025405844)scale(0.12 -0.12)">
       <use xlink:href="#BitstreamVeraSans-Roman-38"/>
       <use x="63.623046875" xlink:href="#BitstreamVeraSans-Roman-2e"/>
       <use x="95.41015625" xlink:href="#BitstreamVeraSans-Roman-30"/>
      </g>
     </g>
    </g>
    <g id="ytick_7">
     <g id="line2d_37">
      <path clip-path="url(#pabe2156998)" d="M 49.22025 44.799083 
L 510.02025 44.799083 
" style="fill:none;stroke:#cbcbcb;"/>
     </g>
     <g id="line2d_38"/>
     <g id="line2d_39"/>
     <g id="text_7">
      <!-- 8.2 -->
      <g transform="translate(26.1365 48.1103327922)scale(0.12 -0.12)">
       <use xlink:href="#BitstreamVeraSans-Roman-38"/>
       <use x="63.623046875" xlink:href="#BitstreamVeraSans-Roman-2e"/>
       <use x="95.41015625" xlink:href="#BitstreamVeraSans-Roman-32"/>
      </g>
     </g>
    </g>
    <g id="ytick_8">
     <g id="line2d_40">
      <path clip-path="url(#pabe2156998)" d="M 49.22025 13.006875 
L 510.02025 13.006875 
" style="fill:none;stroke:#cbcbcb;"/>
     </g>
     <g id="line2d_41"/>
     <g id="line2d_42"/>
     <g id="text_8">
      <!-- 8.4 -->
      <g transform="translate(26.1365 16.318125)scale(0.12 -0.12)">
       <use xlink:href="#BitstreamVeraSans-Roman-38"/>
       <use x="63.623046875" xlink:href="#BitstreamVeraSans-Roman-2e"/>
       <use x="95.41015625" xlink:href="#BitstreamVeraSans-Roman-34"/>
      </g>
     </g>
    </g>
    <g id="text_9">
     <!-- Rotor speed -->
     <defs>
      <path d="M 18.109375 8.203125 
L 18.109375 -20.796875 
L 9.078125 -20.796875 
L 9.078125 54.6875 
L 18.109375 54.6875 
L 18.109375 46.390625 
Q 20.953125 51.265625 25.265625 53.625 
Q 29.59375 56 35.59375 56 
Q 45.5625 56 51.78125 48.09375 
Q 58.015625 40.1875 58.015625 27.296875 
Q 58.015625 14.40625 51.78125 6.484375 
Q 45.5625 -1.421875 35.59375 -1.421875 
Q 29.59375 -1.421875 25.265625 0.953125 
Q 20.953125 3.328125 18.109375 8.203125 
M 48.6875 27.296875 
Q 48.6875 37.203125 44.609375 42.84375 
Q 40.53125 48.484375 33.40625 48.484375 
Q 26.265625 48.484375 22.1875 42.84375 
Q 18.109375 37.203125 18.109375 27.296875 
Q 18.109375 17.390625 22.1875 11.75 
Q 26.265625 6.109375 33.40625 6.109375 
Q 40.53125 6.109375 44.609375 11.75 
Q 48.6875 17.390625 48.6875 27.296875 
" id="BitstreamVeraSans-Roman-70"/>
      <path d="M 41.109375 46.296875 
Q 39.59375 47.171875 37.8125 47.578125 
Q 36.03125 48 33.890625 48 
Q 26.265625 48 22.1875 43.046875 
Q 18.109375 38.09375 18.109375 28.8125 
L 18.109375 0 
L 9.078125 0 
L 9.078125 54.6875 
L 18.109375 54.6875 
L 18.109375 46.1875 
Q 20.953125 51.171875 25.484375 53.578125 
Q 30.03125 56 36.53125 56 
Q 37.453125 56 38.578125 55.875 
Q 39.703125 55.765625 41.0625 55.515625 
z
" id="BitstreamVeraSans-Roman-72"/>
      <path d="M 44.390625 34.1875 
Q 47.5625 33.109375 50.5625 29.59375 
Q 53.5625 26.078125 56.59375 19.921875 
L 66.609375 0 
L 56 0 
L 46.6875 18.703125 
Q 43.0625 26.03125 39.671875 28.421875 
Q 36.28125 30.8125 30.421875 30.8125 
L 19.671875 30.8125 
L 19.671875 0 
L 9.8125 0 
L 9.8125 72.90625 
L 32.078125 72.90625 
Q 44.578125 72.90625 50.734375 67.671875 
Q 56.890625 62.453125 56.890625 51.90625 
Q 56.890625 45.015625 53.6875 40.46875 
Q 50.484375 35.9375 44.390625 34.1875 
M 19.671875 64.796875 
L 19.671875 38.921875 
L 32.078125 38.921875 
Q 39.203125 38.921875 42.84375 42.21875 
Q 46.484375 45.515625 46.484375 51.90625 
Q 46.484375 58.296875 42.84375 61.546875 
Q 39.203125 64.796875 32.078125 64.796875 
z
" id="BitstreamVeraSans-Roman-52"/>
      <path d="M 45.40625 46.390625 
L 45.40625 75.984375 
L 54.390625 75.984375 
L 54.390625 0 
L 45.40625 0 
L 45.40625 8.203125 
Q 42.578125 3.328125 38.25 0.953125 
Q 33.9375 -1.421875 27.875 -1.421875 
Q 17.96875 -1.421875 11.734375 6.484375 
Q 5.515625 14.40625 5.515625 27.296875 
Q 5.515625 40.1875 11.734375 48.09375 
Q 17.96875 56 27.875 56 
Q 33.9375 56 38.25 53.625 
Q 42.578125 51.265625 45.40625 46.390625 
M 14.796875 27.296875 
Q 14.796875 17.390625 18.875 11.75 
Q 22.953125 6.109375 30.078125 6.109375 
Q 37.203125 6.109375 41.296875 11.75 
Q 45.40625 17.390625 45.40625 27.296875 
Q 45.40625 37.203125 41.296875 42.84375 
Q 37.203125 48.484375 30.078125 48.484375 
Q 22.953125 48.484375 18.875 42.84375 
Q 14.796875 37.203125 14.796875 27.296875 
" id="BitstreamVeraSans-Roman-64"/>
      <path d="M 30.609375 48.390625 
Q 23.390625 48.390625 19.1875 42.75 
Q 14.984375 37.109375 14.984375 27.296875 
Q 14.984375 17.484375 19.15625 11.84375 
Q 23.34375 6.203125 30.609375 6.203125 
Q 37.796875 6.203125 41.984375 11.859375 
Q 46.1875 17.53125 46.1875 27.296875 
Q 46.1875 37.015625 41.984375 42.703125 
Q 37.796875 48.390625 30.609375 48.390625 
M 30.609375 56 
Q 42.328125 56 49.015625 48.375 
Q 55.71875 40.765625 55.71875 27.296875 
Q 55.71875 13.875 49.015625 6.21875 
Q 42.328125 -1.421875 30.609375 -1.421875 
Q 18.84375 -1.421875 12.171875 6.21875 
Q 5.515625 13.875 5.515625 27.296875 
Q 5.515625 40.765625 12.171875 48.375 
Q 18.84375 56 30.609375 56 
" id="BitstreamVeraSans-Roman-6f"/>
      <path d="M 44.28125 53.078125 
L 44.28125 44.578125 
Q 40.484375 46.53125 36.375 47.5 
Q 32.28125 48.484375 27.875 48.484375 
Q 21.1875 48.484375 17.84375 46.4375 
Q 14.5 44.390625 14.5 40.28125 
Q 14.5 37.15625 16.890625 35.375 
Q 19.28125 33.59375 26.515625 31.984375 
L 29.59375 31.296875 
Q 39.15625 29.25 43.1875 25.515625 
Q 47.21875 21.78125 47.21875 15.09375 
Q 47.21875 7.46875 41.1875 3.015625 
Q 35.15625 -1.421875 24.609375 -1.421875 
Q 20.21875 -1.421875 15.453125 -0.5625 
Q 10.6875 0.296875 5.421875 2 
L 5.421875 11.28125 
Q 10.40625 8.6875 15.234375 7.390625 
Q 20.0625 6.109375 24.8125 6.109375 
Q 31.15625 6.109375 34.5625 8.28125 
Q 37.984375 10.453125 37.984375 14.40625 
Q 37.984375 18.0625 35.515625 20.015625 
Q 33.0625 21.96875 24.703125 23.78125 
L 21.578125 24.515625 
Q 13.234375 26.265625 9.515625 29.90625 
Q 5.8125 33.546875 5.8125 39.890625 
Q 5.8125 47.609375 11.28125 51.796875 
Q 16.75 56 26.8125 56 
Q 31.78125 56 36.171875 55.265625 
Q 40.578125 54.546875 44.28125 53.078125 
" id="BitstreamVeraSans-Roman-73"/>
      <path d="M 56.203125 29.59375 
L 56.203125 25.203125 
L 14.890625 25.203125 
Q 15.484375 15.921875 20.484375 11.0625 
Q 25.484375 6.203125 34.421875 6.203125 
Q 39.59375 6.203125 44.453125 7.46875 
Q 49.3125 8.734375 54.109375 11.28125 
L 54.109375 2.78125 
Q 49.265625 0.734375 44.1875 -0.34375 
Q 39.109375 -1.421875 33.890625 -1.421875 
Q 20.796875 -1.421875 13.15625 6.1875 
Q 5.515625 13.8125 5.515625 26.8125 
Q 5.515625 40.234375 12.765625 48.109375 
Q 20.015625 56 32.328125 56 
Q 43.359375 56 49.78125 48.890625 
Q 56.203125 41.796875 56.203125 29.59375 
M 47.21875 32.234375 
Q 47.125 39.59375 43.09375 43.984375 
Q 39.0625 48.390625 32.421875 48.390625 
Q 24.90625 48.390625 20.390625 44.140625 
Q 15.875 39.890625 15.1875 32.171875 
z
" id="BitstreamVeraSans-Roman-65"/>
      <path id="BitstreamVeraSans-Roman-20"/>
      <path d="M 18.3125 70.21875 
L 18.3125 54.6875 
L 36.8125 54.6875 
L 36.8125 47.703125 
L 18.3125 47.703125 
L 18.3125 18.015625 
Q 18.3125 11.328125 20.140625 9.421875 
Q 21.96875 7.515625 27.59375 7.515625 
L 36.8125 7.515625 
L 36.8125 0 
L 27.59375 0 
Q 17.1875 0 13.234375 3.875 
Q 9.28125 7.765625 9.28125 18.015625 
L 9.28125 47.703125 
L 2.6875 47.703125 
L 2.6875 54.6875 
L 9.28125 54.6875 
L 9.28125 70.21875 
z
" id="BitstreamVeraSans-Roman-74"/>
     </defs>
     <g transform="translate(18.14175 167.912727273)rotate(-90.0)scale(0.144 -0.144)">
      <use xlink:href="#BitstreamVeraSans-Roman-52"/>
      <use x="69.419921875" xlink:href="#BitstreamVeraSans-Roman-6f"/>
      <use x="130.6015625" xlink:href="#BitstreamVeraSans-Roman-74"/>
      <use x="169.810546875" xlink:href="#BitstreamVeraSans-Roman-6f"/>
      <use x="230.9921875" xlink:href="#BitstreamVeraSans-Roman-72"/>
      <use x="272.10546875" xlink:href="#BitstreamVeraSans-Roman-20"/>
      <use x="303.892578125" xlink:href="#BitstreamVeraSans-Roman-73"/>
      <use x="355.9921875" xlink:href="#BitstreamVeraSans-Roman-70"/>
      <use x="419.46875" xlink:href="#BitstreamVeraSans-Roman-65"/>
      <use x="480.9921875" xlink:href="#BitstreamVeraSans-Roman-65"/>
      <use x="542.515625" xlink:href="#BitstreamVeraSans-Roman-64"/>
     </g>
    </g>
   </g>
   <g id="line2d_43">
    <path clip-path="url(#pabe2156998)" d="M 49.22025 227.751915 
L 49.68105 227.323643 
L 51.52425 226.788175 
L 53.82825 226.410631 
L 57.05385 226.166134 
L 62.58345 226.036481 
L 78.25065 226.003268 
L 95.30025 226.002925 
L 98.98665 201.51066 
L 104.05545 167.33722 
L 105.89865 154.348161 
L 107.28105 145.348498 
L 111.42825 116.426411 
L 113.27145 103.863874 
L 115.11465 90.339987 
L 116.95785 77.950942 
L 119.26185 62.624533 
L 120.18345 58.22085 
L 120.64425 56.255182 
L 121.56585 53.569428 
L 122.02665 52.357929 
L 122.48745 51.529474 
L 122.94825 50.376263 
L 124.79145 47.34093 
L 125.25225 47.257936 
L 126.17385 46.487564 
L 126.63465 46.325167 
L 127.09545 45.936656 
L 128.01705 45.534842 
L 128.47785 45.6059 
L 129.86025 44.888801 
L 130.32105 44.947793 
L 131.24265 44.832708 
L 131.70345 44.762423 
L 132.16425 44.528339 
L 132.62505 44.433829 
L 133.08585 44.116811 
L 133.54665 44.04895 
L 134.00745 44.326089 
L 134.46825 43.863305 
L 134.92905 43.934747 
L 135.38985 43.541105 
L 136.77225 43.494579 
L 137.23305 43.111024 
L 138.15465 42.688646 
L 138.61545 42.358693 
L 139.07625 42.388942 
L 139.53705 42.248811 
L 140.45865 42.353362 
L 140.91945 42.261838 
L 141.38025 42.349707 
L 141.84105 42.55633 
L 142.76265 42.148082 
L 145.52745 42.426023 
L 145.98825 42.865799 
L 146.44905 42.932919 
L 146.90985 42.729703 
L 147.37065 42.898909 
L 148.29225 42.756716 
L 148.75305 42.985709 
L 149.21385 42.813042 
L 149.67465 42.943994 
L 150.13545 42.739163 
L 150.59625 42.867022 
L 151.97865 42.303104 
L 152.43945 42.381911 
L 152.90025 42.64417 
L 153.36105 42.755158 
L 154.28265 42.288761 
L 154.74345 42.345772 
L 155.20425 42.264754 
L 155.66505 42.067589 
L 157.04745 42.302269 
L 157.50825 42.296414 
L 157.96905 42.159949 
L 158.42985 42.228094 
L 159.35145 41.961084 
L 159.81225 42.00068 
L 160.73385 41.761612 
L 161.19465 41.748243 
L 161.65545 41.460021 
L 162.57705 41.357948 
L 163.03785 41.302349 
L 163.49865 41.371828 
L 163.95945 41.174267 
L 164.42025 41.215292 
L 164.88105 41.472571 
L 165.34185 41.159841 
L 167.18505 40.784637 
L 168.10665 41.143655 
L 168.56745 41.084776 
L 169.48905 40.744289 
L 169.94985 40.660144 
L 170.41065 40.704546 
L 171.33225 40.556729 
L 172.25385 40.415066 
L 172.71465 40.413746 
L 173.63625 40.225333 
L 175.47945 40.072324 
L 176.40105 40.222241 
L 176.86185 40.12232 
L 177.78345 40.298588 
L 180.08745 39.531305 
L 180.54825 39.613009 
L 181.00905 39.394898 
L 181.93065 39.298711 
L 182.85225 39.56397 
L 183.31305 39.5681 
L 184.69545 39.272336 
L 185.15625 38.940551 
L 185.61705 38.97509 
L 186.07785 38.711084 
L 187.46025 39.140414 
L 188.38185 38.982621 
L 189.30345 39.007726 
L 189.76425 39.228183 
L 192.06825 39.07661 
L 192.52905 39.212253 
L 193.91145 38.957203 
L 194.37225 38.829235 
L 194.83305 38.922182 
L 198.51945 38.150462 
L 198.98025 38.52891 
L 199.44105 38.724681 
L 200.82345 38.331013 
L 202.20585 38.862108 
L 203.12745 38.675698 
L 203.58825 38.871486 
L 204.50985 38.934311 
L 204.97065 38.825672 
L 205.43145 38.923148 
L 205.89225 38.546653 
L 206.35305 38.370675 
L 206.81385 38.324562 
L 207.27465 38.551841 
L 208.19625 38.244779 
L 208.65705 38.395673 
L 209.57865 37.977705 
L 210.50025 37.980876 
L 211.42185 37.927508 
L 213.26505 38.242528 
L 213.72585 38.177825 
L 214.18665 38.269587 
L 215.10825 38.147244 
L 215.56905 38.278051 
L 216.49065 38.361373 
L 217.41225 38.818688 
L 217.87305 38.821271 
L 218.79465 38.366644 
L 219.71625 38.210461 
L 220.17705 38.328693 
L 221.09865 38.262996 
L 221.55945 38.379396 
L 222.02025 38.0948 
L 222.94185 38.29287 
L 225.24585 38.570605 
L 226.16745 38.305185 
L 226.62825 38.38358 
L 227.54985 38.123198 
L 228.01065 38.427817 
L 228.93225 38.2792 
L 229.85385 38.358663 
L 230.31465 38.25056 
L 230.77545 38.523646 
L 231.23625 38.605948 
L 231.69705 38.166777 
L 233.07945 38.305593 
L 234.00105 38.149609 
L 234.46185 38.362813 
L 235.84425 38.165584 
L 236.76585 37.943721 
L 237.68745 37.839534 
L 239.06985 38.139892 
L 239.99145 38.05047 
L 240.45225 38.064342 
L 241.37385 38.298014 
L 242.75625 37.756065 
L 243.21705 37.789115 
L 243.67785 37.630844 
L 244.13865 37.608273 
L 244.59945 37.379687 
L 245.98185 37.290047 
L 246.44265 36.798224 
L 246.90345 36.853978 
L 247.82505 36.562524 
L 248.28585 36.817841 
L 249.20745 37.014141 
L 249.66825 36.808591 
L 250.58985 36.748852 
L 251.51145 36.380524 
L 251.97225 36.37194 
L 252.43305 36.021681 
L 253.35465 35.935515 
L 254.73705 36.1381 
L 255.19785 36.127145 
L 255.65865 36.328047 
L 256.58025 36.050632 
L 257.96265 36.480838 
L 258.42345 36.662311 
L 259.80585 36.66697 
L 260.72745 36.823822 
L 261.18825 36.604041 
L 261.64905 36.710966 
L 262.10985 36.672521 
L 262.57065 36.827627 
L 263.49225 36.650472 
L 263.95305 36.711248 
L 264.41385 36.645975 
L 265.33545 37.022231 
L 267.17865 36.94489 
L 268.56105 37.132732 
L 269.02185 36.914849 
L 269.48265 36.839396 
L 270.40425 36.922174 
L 272.70825 36.742194 
L 273.16905 36.406358 
L 274.09065 36.128107 
L 275.47305 35.954179 
L 275.93385 35.6522 
L 276.85545 35.574293 
L 277.31625 35.50713 
L 277.77705 35.185608 
L 278.23785 35.40942 
L 278.69865 35.393898 
L 279.15945 35.592063 
L 281.00265 34.87862 
L 281.92425 34.620848 
L 282.38505 34.821082 
L 282.84585 34.54817 
L 283.30665 34.820106 
L 283.76745 34.677107 
L 284.22825 34.856338 
L 284.68905 35.237518 
L 285.14985 35.075895 
L 285.61065 35.063421 
L 286.07145 34.71171 
L 288.83625 35.199916 
L 289.29705 35.418057 
L 289.75785 35.370423 
L 290.21865 35.650757 
L 291.14025 35.678694 
L 292.06185 35.306315 
L 292.52265 35.236015 
L 292.98345 35.291054 
L 293.44425 35.152884 
L 293.90505 35.514054 
L 295.74825 35.549702 
L 296.20905 35.310048 
L 297.59145 35.342382 
L 298.05225 35.163811 
L 298.97385 35.335456 
L 299.43465 35.051505 
L 299.89545 35.393801 
L 300.35625 35.409085 
L 300.81705 35.631435 
L 301.73865 35.164717 
L 302.19945 35.174356 
L 302.66025 34.898739 
L 303.58185 34.837311 
L 304.50345 34.705838 
L 304.96425 34.918817 
L 305.42505 34.658712 
L 305.88585 34.66144 
L 306.34665 34.441456 
L 306.80745 34.581304 
L 307.26825 34.37713 
L 307.72905 34.417128 
L 308.18985 34.589589 
L 310.95465 34.381049 
L 311.87625 34.333967 
L 312.33705 34.255905 
L 313.25865 34.370797 
L 313.71945 34.589513 
L 314.64105 34.304979 
L 315.10185 34.400853 
L 315.56265 34.194434 
L 316.48425 34.144832 
L 316.94505 34.054787 
L 317.40585 34.2181 
L 317.86665 33.996593 
L 318.32745 34.024002 
L 319.24905 34.283048 
L 319.70985 34.355385 
L 320.17065 34.256686 
L 321.55305 34.567125 
L 322.01385 34.426234 
L 322.93545 34.564726 
L 323.85705 34.594147 
L 324.31785 34.300694 
L 325.23945 34.028728 
L 326.16105 34.221247 
L 326.62185 33.985123 
L 327.08265 34.342647 
L 327.54345 34.241091 
L 328.00425 34.557639 
L 328.92585 34.561512 
L 330.30825 34.88841 
L 331.22985 34.952886 
L 332.15145 35.181637 
L 333.07305 35.032288 
L 333.53385 35.073303 
L 333.99465 34.8907 
L 334.45545 34.913198 
L 334.91625 34.696885 
L 339.98505 34.433504 
L 340.44585 34.670195 
L 340.90665 34.752063 
L 341.36745 34.617208 
L 341.82825 34.800479 
L 342.28905 34.509688 
L 342.74985 34.413326 
L 343.67145 34.591186 
L 344.59305 34.721027 
L 345.05385 34.703006 
L 345.51465 34.445609 
L 345.97545 34.471192 
L 346.43625 34.626297 
L 346.89705 34.5036 
L 347.81865 34.857524 
L 348.27945 34.649148 
L 348.74025 34.686107 
L 349.20105 34.847922 
L 351.04425 34.409506 
L 351.50505 34.253145 
L 351.96585 34.469044 
L 353.34825 34.055397 
L 355.65225 34.073756 
L 356.11305 34.128738 
L 357.03465 33.896567 
L 357.49545 34.168689 
L 358.41705 33.913604 
L 358.87785 33.574683 
L 359.33865 33.748541 
L 360.26025 33.516747 
L 360.72105 33.59196 
L 361.18185 33.419391 
L 361.64265 33.400421 
L 362.56425 32.92157 
L 363.02505 32.446842 
L 363.94665 32.588918 
L 366.25065 33.252669 
L 366.71145 33.12034 
L 367.17225 33.356482 
L 367.63305 33.330531 
L 368.09385 33.181204 
L 368.55465 33.272769 
L 369.01545 33.635046 
L 369.93705 32.964463 
L 371.31945 33.143554 
L 372.24105 33.568421 
L 372.70185 33.440515 
L 373.62345 33.007877 
L 374.08425 33.029787 
L 375.00585 32.859067 
L 375.92745 33.034689 
L 376.38825 32.992048 
L 377.30985 33.087891 
L 377.77065 32.986261 
L 378.69225 33.046023 
L 379.15305 32.891309 
L 379.61385 33.002652 
L 380.53545 32.758798 
L 381.45705 32.832005 
L 381.91785 33.085336 
L 382.83945 32.963409 
L 384.68265 33.055498 
L 385.60425 33.449979 
L 386.06505 33.384744 
L 386.52585 33.494759 
L 386.98665 33.183963 
L 388.36905 32.933506 
L 388.82985 33.076599 
L 389.75145 32.735111 
L 390.21225 32.528387 
L 390.67305 32.607365 
L 391.13385 32.573174 
L 391.59465 32.346826 
L 392.05545 32.523645 
L 392.51625 32.445173 
L 392.97705 32.131172 
L 393.43785 32.184783 
L 394.35945 32.469376 
L 395.28105 32.522148 
L 395.74185 32.648358 
L 397.58505 32.624633 
L 398.04585 32.599265 
L 398.50665 32.692696 
L 398.96745 32.939495 
L 399.42825 32.929831 
L 399.88905 33.076607 
L 400.34985 33.076838 
L 401.27145 32.700591 
L 401.73225 32.521838 
L 402.19305 32.677642 
L 402.65385 32.547478 
L 403.11465 32.588287 
L 403.57545 32.503947 
L 404.95785 31.914403 
L 405.41865 31.810668 
L 405.87945 31.87871 
L 407.72265 31.753534 
L 408.18345 31.466795 
L 408.64425 31.756894 
L 409.56585 31.278877 
L 410.48745 31.66343 
L 410.94825 31.47727 
L 411.40905 31.680373 
L 412.33065 31.746155 
L 412.79145 31.564577 
L 413.25225 31.713299 
L 414.63465 31.685266 
L 415.09545 31.824097 
L 415.55625 31.459326 
L 416.01705 31.442353 
L 416.47785 31.72658 
L 416.93865 31.576214 
L 417.39945 31.763455 
L 419.24265 31.553317 
L 420.16425 31.253484 
L 420.62505 31.733651 
L 421.54665 31.696566 
L 422.00745 31.729572 
L 422.46825 31.523168 
L 422.92905 31.534892 
L 424.31145 31.058556 
L 424.77225 31.268161 
L 425.69385 31.362975 
L 426.61545 30.990899 
L 427.07625 30.772881 
L 427.53705 30.781961 
L 427.99785 30.671341 
L 428.45865 30.84605 
L 428.91945 30.489546 
L 429.38025 30.355268 
L 430.30185 30.482111 
L 430.76265 29.970402 
L 431.68425 29.671573 
L 434.90985 29.304473 
L 435.37065 29.528422 
L 436.29225 29.588964 
L 436.75305 29.193566 
L 437.21385 29.288058 
L 437.67465 29.074275 
L 438.13545 29.152115 
L 438.59625 28.901156 
L 441.36105 28.430215 
L 442.28265 28.698358 
L 443.20425 28.483637 
L 443.66505 28.270862 
L 444.12585 28.670995 
L 445.04745 28.649823 
L 445.96905 28.777859 
L 446.89065 28.538976 
L 447.35145 28.692617 
L 448.73385 28.526139 
L 450.11625 28.784618 
L 450.57705 28.714937 
L 451.03785 28.499601 
L 451.49865 28.49429 
L 451.95945 28.313987 
L 453.34185 28.712969 
L 454.26345 28.333872 
L 454.72425 28.517178 
L 455.18505 28.473792 
L 456.10665 28.744217 
L 456.56745 28.592524 
L 457.02825 28.78828 
L 458.41065 28.831267 
L 459.79305 28.655576 
L 460.71465 28.991167 
L 461.63625 28.669892 
L 463.01865 29.190514 
L 463.47945 28.929479 
L 463.94025 28.932518 
L 464.40105 28.818074 
L 464.86185 28.832412 
L 465.32265 29.227114 
L 466.70505 29.133367 
L 467.62665 29.31298 
L 469.00905 29.024336 
L 469.46985 29.234543 
L 470.39145 29.151409 
L 470.85225 29.195961 
L 471.31305 28.881043 
L 471.77385 28.761466 
L 472.23465 28.825545 
L 472.69545 28.655383 
L 475.46025 28.576612 
L 477.76425 28.174717 
L 479.14665 28.325528 
L 480.06825 28.116559 
L 480.52905 28.332435 
L 481.45065 28.190359 
L 481.91145 28.018122 
L 482.83305 28.172469 
L 483.75465 27.962029 
L 484.67625 27.752003 
L 486.05865 27.55682 
L 486.98025 27.404859 
L 487.44105 27.564755 
L 487.90185 27.574124 
L 488.82345 27.463488 
L 489.74505 27.64293 
L 490.66665 27.782807 
L 491.58825 27.569148 
L 492.50985 27.653705 
L 492.97065 27.683903 
L 493.43145 27.218638 
L 493.89225 26.96818 
L 494.81385 27.086318 
L 495.27465 26.762612 
L 495.73545 26.838808 
L 496.65705 26.524068 
L 498.50025 27.216727 
L 498.96105 27.195344 
L 499.42185 27.368471 
L 499.88265 27.176764 
L 502.64745 26.971224 
L 503.10825 26.799988 
L 503.56905 26.856261 
L 504.49065 26.735626 
L 506.33385 26.696744 
L 506.79465 26.511679 
L 507.25545 26.623324 
L 507.71625 26.25032 
L 509.55945 26.626547 
L 509.55945 26.626547 
" style="fill:none;stroke:#fc4f30;stroke-width:4.0;"/>
   </g>
   <g id="patch_3">
    <path d="M 49.22025 235.55233 
L 510.02025 235.55233 
" style="fill:none;stroke:#ffffff;stroke-linecap:square;stroke-linejoin:miter;stroke-width:3.0;"/>
   </g>
   <g id="patch_4">
    <path d="M 510.02025 235.55233 
L 510.02025 13.006875 
" style="fill:none;stroke:#ffffff;stroke-linecap:square;stroke-linejoin:miter;stroke-width:3.0;"/>
   </g>
   <g id="patch_5">
    <path d="M 49.22025 235.55233 
L 49.22025 13.006875 
" style="fill:none;stroke:#ffffff;stroke-linecap:square;stroke-linejoin:miter;stroke-width:3.0;"/>
   </g>
   <g id="patch_6">
    <path d="M 49.22025 13.006875 
L 510.02025 13.006875 
" style="fill:none;stroke:#ffffff;stroke-linecap:square;stroke-linejoin:miter;stroke-width:3.0;"/>
   </g>
  </g>
  <g id="axes_2">
   <g id="patch_7">
    <path d="M 49.22025 502.606875 
L 510.02025 502.606875 
L 510.02025 280.06142 
L 49.22025 280.06142 
z
" style="fill:#ffffff;"/>
   </g>
   <g id="matplotlib.axis_3">
    <g id="xtick_7">
     <g id="line2d_44">
      <path clip-path="url(#pcbcd49942e)" d="M 49.22025 502.606875 
L 49.22025 280.06142 
" style="fill:none;stroke:#cbcbcb;"/>
     </g>
     <g id="line2d_45"/>
     <g id="line2d_46"/>
     <g id="text_10">
      <!-- 0 -->
      <g transform="translate(45.40275 515.725)scale(0.12 -0.12)">
       <use xlink:href="#BitstreamVeraSans-Roman-30"/>
      </g>
     </g>
    </g>
    <g id="xtick_8">
     <g id="line2d_47">
      <path clip-path="url(#pcbcd49942e)" d="M 141.38025 502.606875 
L 141.38025 280.06142 
" style="fill:none;stroke:#cbcbcb;"/>
     </g>
     <g id="line2d_48"/>
     <g id="line2d_49"/>
     <g id="text_11">
      <!-- 2 -->
      <g transform="translate(137.56275 515.725)scale(0.12 -0.12)">
       <use xlink:href="#BitstreamVeraSans-Roman-32"/>
      </g>
     </g>
    </g>
    <g id="xtick_9">
     <g id="line2d_50">
      <path clip-path="url(#pcbcd49942e)" d="M 233.54025 502.606875 
L 233.54025 280.06142 
" style="fill:none;stroke:#cbcbcb;"/>
     </g>
     <g id="line2d_51"/>
     <g id="line2d_52"/>
     <g id="text_12">
      <!-- 4 -->
      <g transform="translate(229.72275 515.725)scale(0.12 -0.12)">
       <use xlink:href="#BitstreamVeraSans-Roman-34"/>
      </g>
     </g>
    </g>
    <g id="xtick_10">
     <g id="line2d_53">
      <path clip-path="url(#pcbcd49942e)" d="M 325.70025 502.606875 
L 325.70025 280.06142 
" style="fill:none;stroke:#cbcbcb;"/>
     </g>
     <g id="line2d_54"/>
     <g id="line2d_55"/>
     <g id="text_13">
      <!-- 6 -->
      <g transform="translate(321.88275 515.725)scale(0.12 -0.12)">
       <use xlink:href="#BitstreamVeraSans-Roman-36"/>
      </g>
     </g>
    </g>
    <g id="xtick_11">
     <g id="line2d_56">
      <path clip-path="url(#pcbcd49942e)" d="M 417.86025 502.606875 
L 417.86025 280.06142 
" style="fill:none;stroke:#cbcbcb;"/>
     </g>
     <g id="line2d_57"/>
     <g id="line2d_58"/>
     <g id="text_14">
      <!-- 8 -->
      <g transform="translate(414.04275 515.725)scale(0.12 -0.12)">
       <use xlink:href="#BitstreamVeraSans-Roman-38"/>
      </g>
     </g>
    </g>
    <g id="xtick_12">
     <g id="line2d_59">
      <path clip-path="url(#pcbcd49942e)" d="M 510.02025 502.606875 
L 510.02025 280.06142 
" style="fill:none;stroke:#cbcbcb;"/>
     </g>
     <g id="line2d_60"/>
     <g id="line2d_61"/>
     <g id="text_15">
      <!-- 10 -->
      <defs>
       <path d="M 12.40625 8.296875 
L 28.515625 8.296875 
L 28.515625 63.921875 
L 10.984375 60.40625 
L 10.984375 69.390625 
L 28.421875 72.90625 
L 38.28125 72.90625 
L 38.28125 8.296875 
L 54.390625 8.296875 
L 54.390625 0 
L 12.40625 0 
z
" id="BitstreamVeraSans-Roman-31"/>
      </defs>
      <g transform="translate(502.38525 515.725)scale(0.12 -0.12)">
       <use xlink:href="#BitstreamVeraSans-Roman-31"/>
       <use x="63.623046875" xlink:href="#BitstreamVeraSans-Roman-30"/>
      </g>
     </g>
    </g>
    <g id="text_16">
     <!-- Time (s) -->
     <defs>
      <path d="M -0.296875 72.90625 
L 61.375 72.90625 
L 61.375 64.59375 
L 35.5 64.59375 
L 35.5 0 
L 25.59375 0 
L 25.59375 64.59375 
L -0.296875 64.59375 
z
" id="BitstreamVeraSans-Roman-54"/>
      <path d="M 9.421875 54.6875 
L 18.40625 54.6875 
L 18.40625 0 
L 9.421875 0 
z
M 9.421875 75.984375 
L 18.40625 75.984375 
L 18.40625 64.59375 
L 9.421875 64.59375 
z
" id="BitstreamVeraSans-Roman-69"/>
      <path d="M 52 44.1875 
Q 55.375 50.25 60.0625 53.125 
Q 64.75 56 71.09375 56 
Q 79.640625 56 84.28125 50.015625 
Q 88.921875 44.046875 88.921875 33.015625 
L 88.921875 0 
L 79.890625 0 
L 79.890625 32.71875 
Q 79.890625 40.578125 77.09375 44.375 
Q 74.3125 48.1875 68.609375 48.1875 
Q 61.625 48.1875 57.5625 43.546875 
Q 53.515625 38.921875 53.515625 30.90625 
L 53.515625 0 
L 44.484375 0 
L 44.484375 32.71875 
Q 44.484375 40.625 41.703125 44.40625 
Q 38.921875 48.1875 33.109375 48.1875 
Q 26.21875 48.1875 22.15625 43.53125 
Q 18.109375 38.875 18.109375 30.90625 
L 18.109375 0 
L 9.078125 0 
L 9.078125 54.6875 
L 18.109375 54.6875 
L 18.109375 46.1875 
Q 21.1875 51.21875 25.484375 53.609375 
Q 29.78125 56 35.6875 56 
Q 41.65625 56 45.828125 52.96875 
Q 50 49.953125 52 44.1875 
" id="BitstreamVeraSans-Roman-6d"/>
      <path d="M 8.015625 75.875 
L 15.828125 75.875 
Q 23.140625 64.359375 26.78125 53.3125 
Q 30.421875 42.28125 30.421875 31.390625 
Q 30.421875 20.453125 26.78125 9.375 
Q 23.140625 -1.703125 15.828125 -13.1875 
L 8.015625 -13.1875 
Q 14.5 -2 17.703125 9.0625 
Q 20.90625 20.125 20.90625 31.390625 
Q 20.90625 42.671875 17.703125 53.65625 
Q 14.5 64.65625 8.015625 75.875 
" id="BitstreamVeraSans-Roman-29"/>
      <path d="M 31 75.875 
Q 24.46875 64.65625 21.28125 53.65625 
Q 18.109375 42.671875 18.109375 31.390625 
Q 18.109375 20.125 21.3125 9.0625 
Q 24.515625 -2 31 -13.1875 
L 23.1875 -13.1875 
Q 15.875 -1.703125 12.234375 9.375 
Q 8.59375 20.453125 8.59375 31.390625 
Q 8.59375 42.28125 12.203125 53.3125 
Q 15.828125 64.359375 23.1875 75.875 
z
" id="BitstreamVeraSans-Roman-28"/>
     </defs>
     <g transform="translate(250.125 534.162375)scale(0.144 -0.144)">
      <use xlink:href="#BitstreamVeraSans-Roman-54"/>
      <use x="61.037109375" xlink:href="#BitstreamVeraSans-Roman-69"/>
      <use x="88.8203125" xlink:href="#BitstreamVeraSans-Roman-6d"/>
      <use x="186.232421875" xlink:href="#BitstreamVeraSans-Roman-65"/>
      <use x="247.755859375" xlink:href="#BitstreamVeraSans-Roman-20"/>
      <use x="279.54296875" xlink:href="#BitstreamVeraSans-Roman-28"/>
      <use x="318.556640625" xlink:href="#BitstreamVeraSans-Roman-73"/>
      <use x="370.65625" xlink:href="#BitstreamVeraSans-Roman-29"/>
     </g>
    </g>
   </g>
   <g id="matplotlib.axis_4">
    <g id="ytick_9">
     <g id="line2d_62">
      <path clip-path="url(#pcbcd49942e)" d="M 49.22025 502.606875 
L 510.02025 502.606875 
" style="fill:none;stroke:#cbcbcb;"/>
     </g>
     <g id="line2d_63"/>
     <g id="line2d_64"/>
     <g id="text_17">
      <!-- −2 -->
      <defs>
       <path d="M 10.59375 35.5 
L 73.1875 35.5 
L 73.1875 27.203125 
L 10.59375 27.203125 
z
" id="BitstreamVeraSans-Roman-2212"/>
      </defs>
      <g transform="translate(27.529625 505.918125)scale(0.12 -0.12)">
       <use xlink:href="#BitstreamVeraSans-Roman-2212"/>
       <use x="83.7890625" xlink:href="#BitstreamVeraSans-Roman-32"/>
      </g>
     </g>
    </g>
    <g id="ytick_10">
     <g id="line2d_65">
      <path clip-path="url(#pcbcd49942e)" d="M 49.22025 477.879602 
L 510.02025 477.879602 
" style="fill:none;stroke:#cbcbcb;"/>
     </g>
     <g id="line2d_66"/>
     <g id="line2d_67"/>
     <g id="text_18">
      <!-- 0 -->
      <g transform="translate(37.58525 481.190852273)scale(0.12 -0.12)">
       <use xlink:href="#BitstreamVeraSans-Roman-30"/>
      </g>
     </g>
    </g>
    <g id="ytick_11">
     <g id="line2d_68">
      <path clip-path="url(#pcbcd49942e)" d="M 49.22025 453.15233 
L 510.02025 453.15233 
" style="fill:none;stroke:#cbcbcb;"/>
     </g>
     <g id="line2d_69"/>
     <g id="line2d_70"/>
     <g id="text_19">
      <!-- 2 -->
      <g transform="translate(37.58525 456.463579545)scale(0.12 -0.12)">
       <use xlink:href="#BitstreamVeraSans-Roman-32"/>
      </g>
     </g>
    </g>
    <g id="ytick_12">
     <g id="line2d_71">
      <path clip-path="url(#pcbcd49942e)" d="M 49.22025 428.425057 
L 510.02025 428.425057 
" style="fill:none;stroke:#cbcbcb;"/>
     </g>
     <g id="line2d_72"/>
     <g id="line2d_73"/>
     <g id="text_20">
      <!-- 4 -->
      <g transform="translate(37.58525 431.736306818)scale(0.12 -0.12)">
       <use xlink:href="#BitstreamVeraSans-Roman-34"/>
      </g>
     </g>
    </g>
    <g id="ytick_13">
     <g id="line2d_74">
      <path clip-path="url(#pcbcd49942e)" d="M 49.22025 403.697784 
L 510.02025 403.697784 
" style="fill:none;stroke:#cbcbcb;"/>
     </g>
     <g id="line2d_75"/>
     <g id="line2d_76"/>
     <g id="text_21">
      <!-- 6 -->
      <g transform="translate(37.58525 407.009034091)scale(0.12 -0.12)">
       <use xlink:href="#BitstreamVeraSans-Roman-36"/>
      </g>
     </g>
    </g>
    <g id="ytick_14">
     <g id="line2d_77">
      <path clip-path="url(#pcbcd49942e)" d="M 49.22025 378.970511 
L 510.02025 378.970511 
" style="fill:none;stroke:#cbcbcb;"/>
     </g>
     <g id="line2d_78"/>
     <g id="line2d_79"/>
     <g id="text_22">
      <!-- 8 -->
      <g transform="translate(37.58525 382.281761364)scale(0.12 -0.12)">
       <use xlink:href="#BitstreamVeraSans-Roman-38"/>
      </g>
     </g>
    </g>
    <g id="ytick_15">
     <g id="line2d_80">
      <path clip-path="url(#pcbcd49942e)" d="M 49.22025 354.243239 
L 510.02025 354.243239 
" style="fill:none;stroke:#cbcbcb;"/>
     </g>
     <g id="line2d_81"/>
     <g id="line2d_82"/>
     <g id="text_23">
      <!-- 10 -->
      <g transform="translate(29.95025 357.554488636)scale(0.12 -0.12)">
       <use xlink:href="#BitstreamVeraSans-Roman-31"/>
       <use x="63.623046875" xlink:href="#BitstreamVeraSans-Roman-30"/>
      </g>
     </g>
    </g>
    <g id="ytick_16">
     <g id="line2d_83">
      <path clip-path="url(#pcbcd49942e)" d="M 49.22025 329.515966 
L 510.02025 329.515966 
" style="fill:none;stroke:#cbcbcb;"/>
     </g>
     <g id="line2d_84"/>
     <g id="line2d_85"/>
     <g id="text_24">
      <!-- 12 -->
      <g transform="translate(29.95025 332.827215909)scale(0.12 -0.12)">
       <use xlink:href="#BitstreamVeraSans-Roman-31"/>
       <use x="63.623046875" xlink:href="#BitstreamVeraSans-Roman-32"/>
      </g>
     </g>
    </g>
    <g id="ytick_17">
     <g id="line2d_86">
      <path clip-path="url(#pcbcd49942e)" d="M 49.22025 304.788693 
L 510.02025 304.788693 
" style="fill:none;stroke:#cbcbcb;"/>
     </g>
     <g id="line2d_87"/>
     <g id="line2d_88"/>
     <g id="text_25">
      <!-- 14 -->
      <g transform="translate(29.95025 308.099943182)scale(0.12 -0.12)">
       <use xlink:href="#BitstreamVeraSans-Roman-31"/>
       <use x="63.623046875" xlink:href="#BitstreamVeraSans-Roman-34"/>
      </g>
     </g>
    </g>
    <g id="ytick_18">
     <g id="line2d_89">
      <path clip-path="url(#pcbcd49942e)" d="M 49.22025 280.06142 
L 510.02025 280.06142 
" style="fill:none;stroke:#cbcbcb;"/>
     </g>
     <g id="line2d_90"/>
     <g id="line2d_91"/>
     <g id="text_26">
      <!-- 16 -->
      <g transform="translate(29.95025 283.372670455)scale(0.12 -0.12)">
       <use xlink:href="#BitstreamVeraSans-Roman-31"/>
       <use x="63.623046875" xlink:href="#BitstreamVeraSans-Roman-36"/>
      </g>
     </g>
    </g>
    <g id="text_27">
     <!-- Torques (kNm) -->
     <defs>
      <path d="M 9.8125 72.90625 
L 23.09375 72.90625 
L 55.421875 11.921875 
L 55.421875 72.90625 
L 64.984375 72.90625 
L 64.984375 0 
L 51.703125 0 
L 19.390625 60.984375 
L 19.390625 0 
L 9.8125 0 
z
" id="BitstreamVeraSans-Roman-4e"/>
      <path d="M 9.078125 75.984375 
L 18.109375 75.984375 
L 18.109375 31.109375 
L 44.921875 54.6875 
L 56.390625 54.6875 
L 27.390625 29.109375 
L 57.625 0 
L 45.90625 0 
L 18.109375 26.703125 
L 18.109375 0 
L 9.078125 0 
z
" id="BitstreamVeraSans-Roman-6b"/>
      <path d="M 8.5 21.578125 
L 8.5 54.6875 
L 17.484375 54.6875 
L 17.484375 21.921875 
Q 17.484375 14.15625 20.5 10.265625 
Q 23.53125 6.390625 29.59375 6.390625 
Q 36.859375 6.390625 41.078125 11.03125 
Q 45.3125 15.671875 45.3125 23.6875 
L 45.3125 54.6875 
L 54.296875 54.6875 
L 54.296875 0 
L 45.3125 0 
L 45.3125 8.40625 
Q 42.046875 3.421875 37.71875 1 
Q 33.40625 -1.421875 27.6875 -1.421875 
Q 18.265625 -1.421875 13.375 4.4375 
Q 8.5 10.296875 8.5 21.578125 
" id="BitstreamVeraSans-Roman-75"/>
      <path d="M 14.796875 27.296875 
Q 14.796875 17.390625 18.875 11.75 
Q 22.953125 6.109375 30.078125 6.109375 
Q 37.203125 6.109375 41.296875 11.75 
Q 45.40625 17.390625 45.40625 27.296875 
Q 45.40625 37.203125 41.296875 42.84375 
Q 37.203125 48.484375 30.078125 48.484375 
Q 22.953125 48.484375 18.875 42.84375 
Q 14.796875 37.203125 14.796875 27.296875 
M 45.40625 8.203125 
Q 42.578125 3.328125 38.25 0.953125 
Q 33.9375 -1.421875 27.875 -1.421875 
Q 17.96875 -1.421875 11.734375 6.484375 
Q 5.515625 14.40625 5.515625 27.296875 
Q 5.515625 40.1875 11.734375 48.09375 
Q 17.96875 56 27.875 56 
Q 33.9375 56 38.25 53.625 
Q 42.578125 51.265625 45.40625 46.390625 
L 45.40625 54.6875 
L 54.390625 54.6875 
L 54.390625 -20.796875 
L 45.40625 -20.796875 
z
" id="BitstreamVeraSans-Roman-71"/>
     </defs>
     <g transform="translate(19.534875 444.867272727)rotate(-90.0)scale(0.144 -0.144)">
      <use xlink:href="#BitstreamVeraSans-Roman-54"/>
      <use x="60.818359375" xlink:href="#BitstreamVeraSans-Roman-6f"/>
      <use x="122.0" xlink:href="#BitstreamVeraSans-Roman-72"/>
      <use x="163.09765625" xlink:href="#BitstreamVeraSans-Roman-71"/>
      <use x="226.57421875" xlink:href="#BitstreamVeraSans-Roman-75"/>
      <use x="289.953125" xlink:href="#BitstreamVeraSans-Roman-65"/>
      <use x="351.4765625" xlink:href="#BitstreamVeraSans-Roman-73"/>
      <use x="403.576171875" xlink:href="#BitstreamVeraSans-Roman-20"/>
      <use x="435.36328125" xlink:href="#BitstreamVeraSans-Roman-28"/>
      <use x="474.376953125" xlink:href="#BitstreamVeraSans-Roman-6b"/>
      <use x="532.287109375" xlink:href="#BitstreamVeraSans-Roman-4e"/>
      <use x="607.091796875" xlink:href="#BitstreamVeraSans-Roman-6d"/>
      <use x="704.50390625" xlink:href="#BitstreamVeraSans-Roman-29"/>
     </g>
    </g>
   </g>
   <g id="line2d_92">
    <path clip-path="url(#pcbcd49942e)" d="M 49.22025 477.879602 
L 95.30025 477.879602 
L 95.76105 318.751435 
L 96.22185 330.91872 
L 96.68265 315.915406 
L 97.14345 323.791914 
L 97.60425 317.669728 
L 98.06505 329.60591 
L 98.52585 318.848239 
L 98.98665 332.257538 
L 99.44745 324.497982 
L 99.90825 320.49477 
L 100.36905 331.514901 
L 100.82985 331.417944 
L 101.29065 311.398626 
L 101.75145 321.983391 
L 102.21225 312.593081 
L 102.67305 327.049401 
L 103.13385 326.884991 
L 103.59465 307.275421 
L 104.05545 318.012905 
L 104.51625 307.175276 
L 104.97705 321.136273 
L 105.43785 314.304752 
L 105.89865 313.793275 
L 106.35945 333.969466 
L 106.82025 309.895784 
L 107.28105 335.871638 
L 107.74185 312.277914 
L 108.20265 310.86976 
L 108.66345 317.195988 
L 109.12425 309.567436 
L 109.58505 304.928485 
L 110.04585 327.756023 
L 110.50665 326.369906 
L 110.96745 305.242415 
L 111.42825 328.010516 
L 111.88905 325.790101 
L 112.34985 316.469948 
L 112.81065 317.490297 
L 113.27145 318.17105 
L 113.73225 298.949933 
L 114.19305 310.830475 
L 114.65385 303.189272 
L 115.57545 329.000129 
L 116.03625 323.349517 
L 116.49705 315.998636 
L 116.95785 318.323299 
L 117.41865 318.229574 
L 117.87945 314.645468 
L 118.34025 321.463757 
L 118.80105 319.23503 
L 119.26185 319.179693 
L 119.72265 318.298358 
L 120.18345 316.802486 
L 120.64425 308.201222 
L 121.10505 322.635344 
L 121.56585 323.245763 
L 122.02665 315.834688 
L 122.48745 327.630628 
L 122.94825 304.7459 
L 123.40905 317.056649 
L 123.86985 314.058534 
L 124.33065 310.299962 
L 124.79145 307.976298 
L 125.25225 337.236333 
L 125.71305 319.298739 
L 126.17385 316.890875 
L 126.63465 326.116537 
L 127.09545 312.950239 
L 127.55625 322.544743 
L 128.01705 317.912199 
L 128.47785 332.145197 
L 128.93865 314.078619 
L 129.39945 311.042637 
L 130.32105 328.319144 
L 130.78185 319.609931 
L 131.24265 323.690297 
L 131.70345 320.354929 
L 132.16425 311.735852 
L 132.62505 318.465838 
L 133.08585 306.975894 
L 133.54665 319.310567 
L 134.00745 336.510412 
L 134.46825 299.018793 
L 134.92905 325.812732 
L 135.38985 302.226302 
L 135.85065 321.620986 
L 136.31145 325.148147 
L 136.77225 316.508956 
L 137.23305 302.369134 
L 137.69385 311.343813 
L 138.15465 310.601017 
L 138.61545 304.908288 
L 139.07625 323.034554 
L 139.53705 314.406157 
L 139.99785 323.545662 
L 140.45865 324.587559 
L 140.91945 316.778082 
L 141.38025 325.806125 
L 141.84105 331.778477 
L 142.30185 312.571946 
L 142.76265 309.510313 
L 143.22345 324.44498 
L 143.68425 324.91049 
L 144.14505 324.857855 
L 144.60585 322.967204 
L 145.06665 326.082276 
L 145.52745 318.548021 
L 145.98825 343.457972 
L 146.44905 324.658864 
L 146.90985 311.020898 
L 147.37065 329.801187 
L 147.83145 320.393553 
L 148.29225 314.961884 
L 148.75305 332.809772 
L 149.21385 312.550197 
L 149.67465 327.861909 
L 150.13545 310.925309 
L 150.59625 327.703603 
L 151.05705 312.760738 
L 151.51785 317.626667 
L 151.97865 304.930829 
L 152.43945 325.226536 
L 152.90025 334.478546 
L 153.36105 326.848614 
L 153.82185 309.890426 
L 154.28265 309.087321 
L 154.74345 324.125248 
L 155.66505 311.305317 
L 156.12585 326.378063 
L 156.58665 327.585855 
L 157.04745 321.619397 
L 157.50825 320.95352 
L 157.96905 314.366001 
L 158.42985 324.685478 
L 158.89065 313.446157 
L 159.35145 315.584023 
L 159.81225 323.24539 
L 160.27305 313.122784 
L 161.19465 320.573939 
L 161.65545 306.711609 
L 162.11625 321.027863 
L 162.57705 316.320401 
L 163.03785 318.443963 
L 163.49865 324.752314 
L 163.95945 311.283996 
L 164.88105 334.224015 
L 165.34185 305.47539 
L 165.80265 316.622335 
L 166.26345 317.772299 
L 166.72425 316.725259 
L 167.18505 314.948683 
L 167.64585 331.208381 
L 168.10665 329.39486 
L 168.56745 318.278453 
L 169.02825 311.641864 
L 169.48905 313.681557 
L 169.94985 317.004118 
L 170.41065 323.487428 
L 170.87145 314.887663 
L 171.33225 320.153124 
L 171.79305 315.6284 
L 172.25385 319.722755 
L 172.71465 321.18142 
L 173.17545 314.963962 
L 173.63625 318.029296 
L 174.09705 318.2763 
L 175.01865 320.94831 
L 175.47945 318.387414 
L 175.94025 324.033299 
L 176.40105 326.023801 
L 176.86185 316.208448 
L 177.32265 326.899773 
L 177.78345 324.486374 
L 178.24425 313.013486 
L 178.70505 317.427844 
L 179.16585 308.889598 
L 179.62665 308.350771 
L 180.08745 319.859967 
L 180.54825 325.368761 
L 181.00905 310.247463 
L 181.46985 318.598884 
L 181.93065 319.045872 
L 182.39145 330.48639 
L 183.77385 315.483338 
L 184.23465 315.810815 
L 184.69545 317.532829 
L 185.15625 304.514247 
L 185.61705 322.989996 
L 186.07785 307.932741 
L 186.53865 329.170487 
L 186.99945 323.50901 
L 187.46025 332.717873 
L 187.92105 314.361386 
L 188.38185 320.176259 
L 188.84265 323.027247 
L 189.30345 320.734888 
L 189.76425 332.366845 
L 190.22505 318.965507 
L 190.68585 324.290813 
L 191.14665 313.339961 
L 191.60745 315.617216 
L 192.06825 326.381774 
L 192.52905 328.089234 
L 192.98985 318.294686 
L 193.45065 314.984899 
L 193.91145 317.600833 
L 194.37225 314.793846 
L 194.83305 325.935791 
L 195.29385 316.326136 
L 195.75465 312.254077 
L 196.21545 315.457668 
L 196.67625 316.87711 
L 197.13705 316.394388 
L 197.59785 320.561152 
L 198.05865 315.902781 
L 198.51945 317.288586 
L 198.98025 340.335201 
L 199.44105 331.121742 
L 199.90185 314.93704 
L 200.36265 311.555245 
L 200.82345 317.396878 
L 201.28425 330.868503 
L 201.74505 329.102683 
L 202.20585 330.558778 
L 202.66665 317.367839 
L 203.12745 315.7265 
L 203.58825 331.122642 
L 204.04905 324.646616 
L 204.50985 321.017968 
L 204.97065 315.768718 
L 205.43145 326.164233 
L 205.89225 302.259312 
L 206.35305 312.372452 
L 206.81385 318.922236 
L 207.27465 332.710918 
L 207.73545 314.192738 
L 208.19625 312.816408 
L 208.65705 328.858414 
L 209.11785 312.016218 
L 209.57865 309.399381 
L 210.03945 323.571077 
L 210.50025 319.084805 
L 210.96105 317.638761 
L 211.42185 322.165604 
L 211.88265 324.920182 
L 212.34345 328.557074 
L 213.72585 317.984671 
L 214.18665 325.876016 
L 214.64745 315.347833 
L 215.56905 327.845301 
L 216.02985 321.874802 
L 216.49065 324.823559 
L 216.95145 334.960646 
L 217.41225 330.600237 
L 217.87305 321.378254 
L 218.33385 307.979778 
L 218.79465 311.586891 
L 219.25545 316.602748 
L 219.71625 318.016076 
L 220.17705 327.211053 
L 220.63785 318.979422 
L 221.09865 320.203074 
L 221.55945 327.118694 
L 222.02025 306.894266 
L 222.48105 328.021275 
L 222.94185 324.464443 
L 223.40265 323.705855 
L 223.86345 322.039403 
L 224.32425 321.407592 
L 224.78505 324.386178 
L 225.24585 328.708584 
L 225.70665 313.240843 
L 226.16745 315.868565 
L 226.62825 325.201871 
L 227.08905 312.648881 
L 227.54985 316.714615 
L 228.01065 336.611597 
L 228.47145 317.942283 
L 228.93225 317.058135 
L 229.39305 324.711761 
L 229.85385 321.791979 
L 230.31465 315.795776 
L 230.77545 335.021201 
L 231.23625 325.398898 
L 231.69705 299.098205 
L 232.15785 324.052466 
L 232.61865 321.862876 
L 233.07945 324.829868 
L 233.54025 317.696741 
L 234.00105 316.93214 
L 234.46185 332.080952 
L 234.92265 319.138899 
L 235.38345 320.350008 
L 235.84425 314.837322 
L 236.30505 313.169795 
L 236.76585 318.641987 
L 237.22665 318.290828 
L 237.68745 319.515794 
L 238.14825 326.934035 
L 238.60905 330.82636 
L 239.06985 322.020574 
L 239.53065 317.276873 
L 239.99145 321.299304 
L 240.45225 322.237857 
L 240.91305 328.576509 
L 241.37385 326.271701 
L 241.83465 312.881491 
L 242.29545 313.34436 
L 242.75625 310.99671 
L 243.21705 323.175116 
L 243.67785 313.520788 
L 244.13865 320.360045 
L 244.59945 309.965051 
L 245.06025 320.72894 
L 245.52105 320.960337 
L 245.98185 318.246534 
L 246.44265 296.672948 
L 246.90345 324.287019 
L 247.36425 313.616003 
L 247.82505 314.625889 
L 248.28585 334.343943 
L 248.74665 324.294072 
L 249.20745 328.533694 
L 249.66825 311.093784 
L 250.12905 322.682651 
L 251.05065 312.736016 
L 251.51145 311.59834 
L 251.97225 321.020868 
L 252.43305 303.787384 
L 252.89385 316.577472 
L 253.35465 321.979838 
L 253.81545 325.517465 
L 254.27625 320.181081 
L 254.73705 328.868437 
L 255.19785 320.896169 
L 255.65865 331.58089 
L 256.11945 315.150178 
L 256.58025 313.753669 
L 257.04105 326.93048 
L 257.50185 326.816268 
L 257.96265 332.291646 
L 258.42345 330.599131 
L 258.88425 320.944163 
L 259.34505 320.701516 
L 259.80585 322.927567 
L 260.26665 327.937493 
L 260.72745 322.864856 
L 261.18825 310.360778 
L 261.64905 326.838262 
L 262.10985 319.506406 
L 262.57065 329.268158 
L 263.03145 317.347333 
L 263.49225 316.608209 
L 263.95305 324.510379 
L 264.41385 318.153023 
L 264.87465 329.576049 
L 265.33545 332.290618 
L 265.79625 319.952396 
L 266.25705 319.036329 
L 266.71785 316.778309 
L 267.17865 326.112021 
L 267.63945 325.446529 
L 268.10025 326.669352 
L 268.56105 321.692687 
L 269.02185 310.4558 
L 269.94345 324.589444 
L 270.86505 320.222211 
L 271.32585 319.039175 
L 271.78665 325.766103 
L 272.24745 314.568182 
L 272.70825 318.550938 
L 273.16905 304.506773 
L 273.62985 311.923974 
L 274.09065 316.93189 
L 274.55145 319.655021 
L 275.01225 318.656676 
L 275.47305 317.25051 
L 275.93385 306.214316 
L 276.39465 316.659062 
L 276.85545 322.301205 
L 277.31625 318.05739 
L 277.77705 305.228658 
L 278.23785 332.732815 
L 278.69865 320.66194 
L 279.15945 331.439297 
L 279.62025 311.099422 
L 280.08105 313.728399 
L 280.54185 311.517472 
L 281.00265 313.450939 
L 281.46345 316.985911 
L 281.92425 312.902773 
L 282.38505 331.543671 
L 282.84585 307.680334 
L 283.30665 335.159965 
L 283.76745 314.232561 
L 284.22825 330.484329 
L 284.68905 340.669771 
L 285.14985 313.293222 
L 285.61065 320.815605 
L 286.07145 303.706078 
L 286.53225 324.944823 
L 286.99305 325.443599 
L 287.45385 326.97067 
L 287.91465 322.957719 
L 288.37545 327.955371 
L 288.83625 325.019282 
L 289.29705 332.446782 
L 289.75785 319.042336 
L 290.21865 335.583537 
L 290.67945 322.74886 
L 291.14025 321.549664 
L 291.60105 311.187043 
L 292.06185 312.921389 
L 292.52265 317.899141 
L 292.98345 324.220672 
L 293.44425 314.47613 
L 293.90505 339.660502 
L 294.36585 321.195282 
L 294.82665 316.641613 
L 295.28745 328.839568 
L 295.74825 320.900509 
L 296.20905 309.357696 
L 296.66985 321.741117 
L 297.13065 319.936387 
L 297.59145 324.287591 
L 298.05225 312.43843 
L 298.51305 324.721582 
L 298.97385 326.82493 
L 299.43465 307.123584 
L 299.89545 338.708589 
L 300.35625 322.215631 
L 300.81705 332.659102 
L 301.27785 308.295919 
L 301.73865 311.054483 
L 302.19945 321.930878 
L 302.66025 307.543906 
L 303.12105 321.688848 
L 303.58185 318.102514 
L 304.04265 317.943599 
L 304.50345 318.315052 
L 304.96425 332.18644 
L 305.42505 308.326249 
L 305.88585 321.582383 
L 306.34665 310.349775 
L 306.80745 328.498024 
L 307.26825 311.147175 
L 307.72905 323.46206 
L 308.18985 330.142933 
L 308.65065 318.961573 
L 309.11145 324.442131 
L 310.03305 310.468016 
L 310.49385 323.564097 
L 310.95465 322.686956 
L 311.41545 323.02078 
L 311.87625 317.494152 
L 312.33705 317.50769 
L 312.79785 323.858671 
L 313.25865 324.825446 
L 313.71945 332.475813 
L 314.18025 315.425497 
L 314.64105 313.113428 
L 315.10185 326.280212 
L 315.56265 311.033941 
L 316.02345 321.9505 
L 316.48425 318.437292 
L 316.94505 316.903334 
L 317.40585 329.681512 
L 317.86665 310.27295 
L 318.32745 322.827163 
L 318.78825 330.315649 
L 319.24905 325.638967 
L 319.70985 325.093131 
L 320.17065 316.46681 
L 320.63145 326.585759 
L 321.09225 328.462328 
L 321.55305 324.943345 
L 322.01385 314.338869 
L 322.47465 326.61105 
L 322.93545 323.263376 
L 323.39625 324.127572 
L 323.85705 320.245792 
L 324.31785 306.644352 
L 324.77865 314.208169 
L 325.23945 314.964633 
L 325.70025 326.156175 
L 326.16105 326.443084 
L 326.62185 309.535755 
L 327.08265 339.47667 
L 327.54345 316.322744 
L 328.00425 337.41 
L 328.46505 320.27347 
L 328.92585 322.811367 
L 329.38665 328.82625 
L 329.84745 324.775429 
L 330.30825 327.219859 
L 330.76905 321.533471 
L 331.69065 327.614968 
L 332.15145 326.811692 
L 332.61225 317.575142 
L 333.07305 317.781904 
L 333.53385 323.51336 
L 333.99465 312.235132 
L 334.45545 322.579442 
L 334.91625 310.534902 
L 335.37705 319.853083 
L 335.83785 318.263111 
L 336.29865 321.462512 
L 336.75945 315.850154 
L 337.22025 321.014714 
L 337.68105 324.877165 
L 338.60265 314.474465 
L 339.06345 321.447376 
L 339.52425 323.012772 
L 339.98505 322.705757 
L 340.44585 333.382382 
L 340.90665 325.573818 
L 341.36745 314.643278 
L 341.82825 330.68813 
L 342.28905 306.778581 
L 342.74985 316.584729 
L 343.21065 323.56957 
L 343.67145 328.290395 
L 344.13225 326.212082 
L 345.05385 320.535851 
L 345.51465 308.462823 
L 345.97545 322.735075 
L 346.43625 329.26752 
L 346.89705 315.256519 
L 347.35785 333.235897 
L 347.81865 327.503922 
L 348.27945 310.935231 
L 348.74025 323.308823 
L 349.20105 329.605933 
L 349.66185 317.182665 
L 350.12265 317.741188 
L 350.58345 316.805133 
L 351.04425 311.938372 
L 351.50505 313.558643 
L 351.96585 332.333724 
L 352.42665 313.119663 
L 352.88745 312.386227 
L 353.34825 317.965923 
L 353.80905 321.085537 
L 354.26985 316.247831 
L 354.73065 329.993905 
L 355.19145 319.153739 
L 356.11305 324.217791 
L 356.57385 316.209443 
L 357.03465 314.970467 
L 357.49545 335.169322 
L 357.95625 313.949917 
L 358.41705 316.07431 
L 358.87785 304.351145 
L 359.33865 330.213337 
L 359.79945 314.668403 
L 360.26025 316.530489 
L 360.72105 325.238168 
L 361.18185 312.741178 
L 361.64265 320.488017 
L 362.10345 311.644371 
L 362.56425 307.094088 
L 363.02505 297.501654 
L 363.48585 323.757555 
L 364.40745 328.96862 
L 364.86825 325.460872 
L 365.32905 334.180059 
L 366.25065 323.262857 
L 366.71145 314.770671 
L 367.17225 333.354692 
L 367.63305 320.135935 
L 368.09385 313.913344 
L 369.01545 339.716358 
L 369.47625 301.788587 
L 369.93705 307.27981 
L 370.39785 322.588377 
L 370.85865 327.069383 
L 371.31945 323.709064 
L 371.78025 332.829459 
L 372.24105 331.488402 
L 372.70185 314.993793 
L 373.16265 309.045987 
L 373.62345 312.023232 
L 374.08425 322.549791 
L 374.54505 315.505304 
L 375.00585 318.77388 
L 375.46665 328.750558 
L 375.92745 322.996536 
L 376.38825 319.294139 
L 376.84905 325.422375 
L 377.30985 322.301048 
L 377.77065 316.319028 
L 378.23145 322.651104 
L 378.69225 323.252542 
L 379.15305 313.641683 
L 379.61385 327.060404 
L 380.07465 314.323593 
L 380.53545 316.267027 
L 381.45705 325.430064 
L 381.91785 334.221625 
L 382.37865 315.968609 
L 382.83945 320.771467 
L 383.30025 322.166813 
L 383.76105 326.293636 
L 384.68265 319.253373 
L 385.14345 333.024586 
L 385.60425 329.76075 
L 386.06505 318.15463 
L 386.52585 326.993399 
L 386.98665 305.769624 
L 387.44745 315.858205 
L 387.90825 320.01923 
L 388.36905 315.824971 
L 388.82985 328.661707 
L 389.29065 315.686425 
L 389.75145 309.98002 
L 390.21225 311.018542 
L 390.67305 325.428053 
L 391.13385 319.720326 
L 391.59465 310.028815 
L 392.05545 330.362662 
L 392.97705 305.608021 
L 393.43785 324.148609 
L 393.89865 330.480626 
L 394.82025 322.184665 
L 395.28105 323.366455 
L 395.74185 327.810214 
L 396.20265 319.754818 
L 396.66345 322.266122 
L 397.12425 322.031844 
L 397.58505 320.52968 
L 398.04585 320.165308 
L 398.50665 326.156998 
L 398.96745 333.892203 
L 399.42825 320.957366 
L 399.88905 328.847453 
L 400.34985 321.45642 
L 400.81065 309.760956 
L 401.27145 314.152395 
L 401.73225 312.429235 
L 402.19305 329.302821 
L 402.65385 314.879872 
L 403.11465 323.502993 
L 404.03625 310.592007 
L 404.49705 311.14503 
L 404.95785 312.8633 
L 405.41865 316.212864 
L 405.87945 324.876497 
L 406.34025 318.976792 
L 406.80105 314.908222 
L 407.26185 323.991073 
L 407.72265 321.589628 
L 408.18345 306.982973 
L 408.64425 336.076012 
L 409.10505 308.633212 
L 409.56585 310.147322 
L 410.02665 332.267149 
L 410.48745 330.017477 
L 410.94825 312.055729 
L 411.40905 331.688347 
L 411.86985 322.827982 
L 412.33065 323.379292 
L 412.79145 312.286782 
L 413.25225 328.945615 
L 413.71305 320.580818 
L 414.17385 319.405401 
L 414.63465 322.934211 
L 415.09545 328.446732 
L 415.55625 303.047407 
L 416.47785 335.779856 
L 416.93865 313.860991 
L 417.39945 330.888332 
L 417.86025 319.789363 
L 418.32105 317.53761 
L 418.78185 318.588133 
L 419.24265 319.265578 
L 419.70345 316.471161 
L 420.16425 311.296141 
L 420.62505 345.662163 
L 421.08585 319.32951 
L 421.54665 321.689642 
L 422.00745 323.10945 
L 422.46825 311.034649 
L 422.92905 322.036099 
L 423.38985 315.107762 
L 423.85065 310.984367 
L 424.31145 314.217921 
L 424.77225 332.016301 
L 425.23305 324.87806 
L 425.69385 322.793445 
L 426.15465 314.734803 
L 426.61545 309.388885 
L 427.07625 310.448967 
L 427.53705 321.902706 
L 427.99785 315.86557 
L 428.45865 330.256275 
L 428.91945 303.464351 
L 429.84105 326.760548 
L 430.30185 322.526337 
L 430.76265 295.636493 
L 431.22345 311.386709 
L 431.68425 316.431265 
L 432.14505 318.854894 
L 432.60585 320.001734 
L 433.06665 317.782848 
L 433.52745 322.697561 
L 433.98825 317.817937 
L 434.44905 314.314621 
L 434.90985 320.128909 
L 435.37065 332.739729 
L 435.83145 321.164546 
L 436.29225 324.778442 
L 436.75305 301.502672 
L 437.21385 326.210524 
L 437.67465 310.662508 
L 438.13545 325.370679 
L 438.59625 308.78752 
L 439.05705 317.543021 
L 439.51785 321.943816 
L 439.97865 318.779309 
L 440.43945 316.725149 
L 440.90025 309.178721 
L 441.36105 320.746411 
L 441.82185 326.874237 
L 442.28265 329.539236 
L 442.74345 316.464379 
L 443.20425 315.595604 
L 443.66505 310.713357 
L 444.12585 341.625648 
L 444.58665 320.078395 
L 445.04745 321.743301 
L 445.50825 325.246659 
L 445.96905 324.100383 
L 446.42985 316.511273 
L 446.89065 314.330099 
L 447.35145 329.193711 
L 447.81225 317.091617 
L 448.27305 321.886919 
L 448.73385 316.95939 
L 449.19465 327.122855 
L 449.65545 328.737755 
L 450.11625 321.510159 
L 450.57705 317.930381 
L 451.03785 310.584168 
L 451.49865 321.176887 
L 451.95945 312.351144 
L 452.42025 328.802406 
L 452.88105 330.719032 
L 453.34185 324.935677 
L 453.80265 310.555213 
L 454.26345 313.214367 
L 454.72425 330.689875 
L 455.18505 319.256591 
L 455.64585 330.384953 
L 456.10665 326.143577 
L 456.56745 313.794018 
L 457.02825 331.317841 
L 457.48905 322.342132 
L 457.94985 318.962696 
L 458.41065 325.197495 
L 458.87145 316.654193 
L 459.33225 319.86811 
L 459.79305 318.950926 
L 460.25385 329.937091 
L 460.71465 329.878122 
L 461.17545 313.241814 
L 461.63625 313.444065 
L 462.09705 330.212643 
L 462.55785 328.031036 
L 463.01865 332.348409 
L 463.47945 308.279349 
L 463.94025 321.59804 
L 464.40105 315.672729 
L 464.86185 322.167893 
L 465.32265 341.351735 
L 465.78345 320.291879 
L 466.24425 319.04072 
L 466.70505 320.273517 
L 467.16585 327.639708 
L 467.62665 324.308669 
L 468.08745 315.273593 
L 468.54825 318.88641 
L 469.00905 315.616426 
L 469.46985 332.046606 
L 469.93065 318.504067 
L 470.39145 320.192563 
L 470.85225 323.69176 
L 471.31305 305.561767 
L 472.23465 324.676623 
L 472.69545 312.862573 
L 473.15625 321.430279 
L 473.61705 320.277954 
L 474.07785 322.750489 
L 474.53865 317.732411 
L 474.99945 321.354225 
L 475.46025 321.150337 
L 475.92105 317.54376 
L 476.38185 320.71368 
L 476.84265 314.127662 
L 477.30345 314.427738 
L 477.76425 320.141224 
L 478.22505 324.417693 
L 478.68585 323.829801 
L 479.14665 323.693032 
L 479.60745 316.913822 
L 480.06825 315.436222 
L 480.52905 332.332573 
L 480.98985 319.971239 
L 481.45065 315.75263 
L 481.91145 312.757925 
L 482.37225 327.550833 
L 482.83305 323.123229 
L 483.29385 317.241623 
L 483.75465 315.0343 
L 484.21545 313.539202 
L 484.67625 318.757538 
L 485.13705 319.660631 
L 485.59785 323.037455 
L 486.05865 311.792047 
L 486.98025 319.766658 
L 487.44105 329.509226 
L 488.36265 315.904498 
L 488.82345 321.405043 
L 489.28425 328.379779 
L 489.74505 323.559975 
L 490.20585 325.692739 
L 490.66665 324.251557 
L 491.12745 313.156239 
L 492.04905 325.68849 
L 492.50985 321.465701 
L 492.97065 322.967816 
L 493.43145 297.978919 
L 494.35305 321.738438 
L 494.81385 327.109436 
L 495.27465 305.118491 
L 495.73545 325.287754 
L 496.19625 313.966269 
L 496.65705 313.049199 
L 497.11785 330.735859 
L 497.57865 326.645933 
L 498.03945 337.731853 
L 498.50025 325.599995 
L 498.96105 320.366291 
L 499.42185 330.176488 
L 499.88265 311.775956 
L 500.34345 319.707235 
L 500.80425 324.615876 
L 501.26505 311.983428 
L 501.72585 325.36422 
L 502.18665 322.151638 
L 502.64745 314.479669 
L 503.10825 312.808407 
L 503.56905 324.282891 
L 504.02985 316.73378 
L 504.49065 320.071447 
L 504.95145 321.979515 
L 505.41225 319.857387 
L 505.87305 322.385815 
L 506.33385 319.595318 
L 506.79465 312.110932 
L 507.25545 327.075636 
L 507.71625 302.63214 
L 508.17705 325.320467 
L 508.63785 329.486869 
L 509.09865 318.442869 
L 509.55945 331.504006 
L 509.55945 331.504006 
" style="fill:none;stroke:#fc4f30;stroke-width:4.0;"/>
   </g>
   <g id="line2d_93">
    <path clip-path="url(#pcbcd49942e)" d="M 49.22025 499.47969 
L 49.68105 485.501965 
L 50.14185 485.280675 
L 51.06345 483.466217 
L 51.98505 482.150527 
L 52.90665 481.156197 
L 54.28905 480.090055 
L 55.67145 479.374297 
L 57.05385 478.890953 
L 58.89705 478.479978 
L 61.20105 478.191644 
L 64.88745 477.988297 
L 71.79945 477.894294 
L 103.13385 477.879604 
L 118.34025 477.879602 
L 118.80105 454.229215 
L 119.72265 420.804905 
L 120.64425 395.700606 
L 121.56585 376.937176 
L 122.48745 362.908632 
L 123.40905 352.41741 
L 124.33065 344.570041 
L 125.25225 338.69941 
L 126.17385 334.307107 
L 127.09545 331.020602 
L 128.01705 328.561358 
L 128.93865 326.721062 
L 129.86025 325.343893 
L 130.78185 324.313279 
L 131.70345 323.541999 
L 133.08585 322.73318 
L 134.46825 322.209534 
L 136.31145 321.786528 
L 138.61545 321.508917 
L 142.30185 321.329833 
L 149.67465 321.256039 
L 199.90185 321.247988 
L 234.00105 321.327928 
L 236.30505 321.510982 
L 240.45225 321.533852 
L 259.34505 321.445921 
L 509.55945 321.444762 
L 509.55945 321.444762 
" style="fill:none;stroke:#5cb85c;stroke-width:4.0;"/>
   </g>
   <g id="patch_8">
    <path d="M 49.22025 502.606875 
L 510.02025 502.606875 
" style="fill:none;stroke:#ffffff;stroke-linecap:square;stroke-linejoin:miter;stroke-width:3.0;"/>
   </g>
   <g id="patch_9">
    <path d="M 510.02025 502.606875 
L 510.02025 280.06142 
" style="fill:none;stroke:#ffffff;stroke-linecap:square;stroke-linejoin:miter;stroke-width:3.0;"/>
   </g>
   <g id="patch_10">
    <path d="M 49.22025 502.606875 
L 49.22025 280.06142 
" style="fill:none;stroke:#ffffff;stroke-linecap:square;stroke-linejoin:miter;stroke-width:3.0;"/>
   </g>
   <g id="patch_11">
    <path d="M 49.22025 280.06142 
L 510.02025 280.06142 
" style="fill:none;stroke:#ffffff;stroke-linecap:square;stroke-linejoin:miter;stroke-width:3.0;"/>
   </g>
   <g id="legend_1">
    <g id="patch_12">
     <path d="M 442.05225 495.406875 
L 499.94025 495.406875 
Q 502.82025 495.406875 502.82025 492.526875 
L 502.82025 451.693875 
Q 502.82025 448.813875 499.94025 448.813875 
L 442.05225 448.813875 
Q 439.17225 448.813875 439.17225 451.693875 
L 439.17225 492.526875 
Q 439.17225 495.406875 442.05225 495.406875 
z
" style="fill:#ffffff;stroke:#ffffff;stroke-linejoin:miter;stroke-width:0.5;"/>
    </g>
    <g id="line2d_94">
     <path d="M 449.25225 460.475625 
L 469.41225 460.475625 
" style="fill:none;stroke:#fc4f30;stroke-width:4.0;"/>
    </g>
    <g id="line2d_95"/>
    <g id="text_28">
     <!-- $\sf \tau_t$ -->
     <defs>
      <path d="M 15.578125 1.515625 
Q 15.578125 2.203125 15.71875 2.59375 
L 26.21875 36.921875 
L 17.1875 36.921875 
Q 13.53125 36.921875 10.34375 34.625 
Q 7.171875 32.328125 5.078125 28.8125 
Q 4.890625 28.421875 4.5 28.421875 
L 3.328125 28.421875 
Q 2.390625 28.421875 2.390625 29.390625 
Q 2.390625 29.59375 2.59375 29.984375 
Q 5.859375 35.546875 9.59375 39.328125 
Q 13.328125 43.109375 18.015625 43.109375 
L 48.6875 43.109375 
Q 49.75 43.109375 50.484375 42.375 
Q 51.21875 41.65625 51.21875 40.578125 
Q 51.21875 39.109375 50.171875 38.015625 
Q 49.125 36.921875 47.609375 36.921875 
L 29.5 36.921875 
L 22.796875 2.390625 
Q 22.40625 0.78125 21.328125 -0.265625 
Q 20.265625 -1.3125 18.609375 -1.3125 
Q 17.328125 -1.3125 16.453125 -0.5 
Q 15.578125 0.296875 15.578125 1.515625 
" id="Cmmi10-bf"/>
      <path d="M 17.828125 -1.125 
Q 13.421875 -1.125 11.765625 3.296875 
Q 10.109375 7.71875 10.109375 12.984375 
L 10.109375 38.1875 
L 1.90625 38.1875 
L 1.90625 44.390625 
L 10.40625 44.390625 
L 10.40625 57.078125 
L 17.671875 57.078125 
L 17.671875 44.390625 
L 31.59375 44.390625 
L 31.59375 38.1875 
L 17.671875 38.1875 
L 17.671875 14.3125 
Q 17.671875 5.71875 22.3125 5.71875 
Q 27.4375 5.71875 31.5 8.890625 
L 33.203125 2.59375 
Q 29.4375 0.734375 25.71875 -0.1875 
Q 22.015625 -1.125 17.828125 -1.125 
" id="Cmss10-74"/>
     </defs>
     <g transform="translate(485.25225 465.515625)scale(0.144 -0.144)">
      <use transform="translate(0.0 0.890625)" xlink:href="#Cmmi10-bf"/>
      <use transform="translate(43.701171875 -16.809375000000003)scale(0.7)" xlink:href="#Cmss10-74"/>
     </g>
    </g>
    <g id="line2d_96">
     <path d="M 449.25225 481.612125 
L 469.41225 481.612125 
" style="fill:none;stroke:#5cb85c;stroke-width:4.0;"/>
    </g>
    <g id="line2d_97"/>
    <g id="text_29">
     <!-- $\sf \tau_e$ -->
     <defs>
      <path d="M 24.90625 -1.125 
Q 20.3125 -1.125 16.3125 0.796875 
Q 12.3125 2.734375 9.40625 6.09375 
Q 6.5 9.46875 4.90625 13.78125 
Q 3.328125 18.109375 3.328125 22.515625 
Q 3.328125 28.21875 5.828125 33.734375 
Q 8.34375 39.265625 12.984375 42.671875 
Q 17.625 46.09375 23.484375 46.09375 
Q 33.0625 46.09375 37.28125 39.0625 
Q 41.5 32.03125 41.5 21.921875 
L 10.6875 21.921875 
Q 10.6875 17.96875 12.515625 14.125 
Q 14.359375 10.296875 17.65625 7.859375 
Q 20.953125 5.421875 24.90625 5.421875 
Q 33.59375 5.421875 40.375 10.796875 
L 41.015625 4 
Q 38.921875 1.90625 33.78125 0.390625 
Q 28.65625 -1.125 24.90625 -1.125 
M 11.28125 27.78125 
L 35.296875 27.78125 
Q 34.515625 32.859375 31.484375 36.21875 
Q 28.46875 39.59375 23.484375 39.59375 
Q 20.5625 39.59375 17.96875 37.90625 
Q 15.375 36.234375 13.6875 33.515625 
Q 12.015625 30.8125 11.28125 27.78125 
" id="Cmss10-65"/>
     </defs>
     <g transform="translate(485.25225 486.652125)scale(0.144 -0.144)">
      <use transform="translate(0.0 0.890625)" xlink:href="#Cmmi10-bf"/>
      <use transform="translate(43.701171875 -16.809375000000003)scale(0.7)" xlink:href="#Cmss10-65"/>
     </g>
    </g>
   </g>
  </g>
 </g>
 <defs>
  <clipPath id="pcbcd49942e">
   <rect height="222.545454545" width="460.8" x="49.22025" y="280.061420455"/>
  </clipPath>
  <clipPath id="pabe2156998">
   <rect height="222.545454545" width="460.8" x="49.22025" y="13.006875"/>
  </clipPath>
 </defs>
</svg>
