<?xml version="1.0" encoding="utf-8" standalone="no"?>
<!DOCTYPE svg PUBLIC "-//W3C//DTD SVG 1.1//EN"
  "http://www.w3.org/Graphics/SVG/1.1/DTD/svg11.dtd">
<!-- Created with matplotlib (http://matplotlib.org/) -->
<svg height="349pt" version="1.1" viewBox="0 0 511 349" width="511pt" xmlns="http://www.w3.org/2000/svg" xmlns:xlink="http://www.w3.org/1999/xlink">
 <defs>
  <style type="text/css">
*{stroke-linecap:butt;stroke-linejoin:round;}
  </style>
 </defs>
 <g id="figure_1">
  <g id="patch_1">
   <path d="M 0 349.391094 
L 511.563125 349.391094 
L 511.563125 0 
L 0 0 
z
" style="fill:none;opacity:0;"/>
  </g>
  <g id="axes_1">
   <g id="patch_2">
    <path d="M 43.563125 313.399219 
L 504.363125 313.399219 
L 504.363125 10.999219 
L 43.563125 10.999219 
z
" style="fill:#ffffff;"/>
   </g>
   <g id="matplotlib.axis_1">
    <g id="xtick_1">
     <g id="line2d_1">
      <path clip-path="url(#p30206e0d0e)" d="M 43.563125 313.399219 
L 43.563125 10.999219 
" style="fill:none;stroke:#cbcbcb;"/>
     </g>
     <g id="line2d_2"/>
     <g id="text_1">
      <!-- 0.0 -->
      <defs>
       <path d="M 31.78125 66.40625 
Q 24.171875 66.40625 20.328125 58.90625 
Q 16.5 51.421875 16.5 36.375 
Q 16.5 21.390625 20.328125 13.890625 
Q 24.171875 6.390625 31.78125 6.390625 
Q 39.453125 6.390625 43.28125 13.890625 
Q 47.125 21.390625 47.125 36.375 
Q 47.125 51.421875 43.28125 58.90625 
Q 39.453125 66.40625 31.78125 66.40625 
z
M 31.78125 74.21875 
Q 44.046875 74.21875 50.515625 64.515625 
Q 56.984375 54.828125 56.984375 36.375 
Q 56.984375 17.96875 50.515625 8.265625 
Q 44.046875 -1.421875 31.78125 -1.421875 
Q 19.53125 -1.421875 13.0625 8.265625 
Q 6.59375 17.96875 6.59375 36.375 
Q 6.59375 54.828125 13.0625 64.515625 
Q 19.53125 74.21875 31.78125 74.21875 
z
" id="DejaVuSans-30"/>
       <path d="M 10.6875 12.40625 
L 21 12.40625 
L 21 0 
L 10.6875 0 
z
" id="DejaVuSans-2e"/>
      </defs>
      <g transform="translate(35.611563 324.497656)scale(0.1 -0.1)">
       <use xlink:href="#DejaVuSans-30"/>
       <use x="63.623047" xlink:href="#DejaVuSans-2e"/>
       <use x="95.410156" xlink:href="#DejaVuSans-30"/>
      </g>
     </g>
    </g>
    <g id="xtick_2">
     <g id="line2d_3">
      <path clip-path="url(#p30206e0d0e)" d="M 95.926761 313.399219 
L 95.926761 10.999219 
" style="fill:none;stroke:#cbcbcb;"/>
     </g>
     <g id="line2d_4"/>
     <g id="text_2">
      <!-- 2.5 -->
      <defs>
       <path d="M 19.1875 8.296875 
L 53.609375 8.296875 
L 53.609375 0 
L 7.328125 0 
L 7.328125 8.296875 
Q 12.9375 14.109375 22.625 23.890625 
Q 32.328125 33.6875 34.8125 36.53125 
Q 39.546875 41.84375 41.421875 45.53125 
Q 43.3125 49.21875 43.3125 52.78125 
Q 43.3125 58.59375 39.234375 62.25 
Q 35.15625 65.921875 28.609375 65.921875 
Q 23.96875 65.921875 18.8125 64.3125 
Q 13.671875 62.703125 7.8125 59.421875 
L 7.8125 69.390625 
Q 13.765625 71.78125 18.9375 73 
Q 24.125 74.21875 28.421875 74.21875 
Q 39.75 74.21875 46.484375 68.546875 
Q 53.21875 62.890625 53.21875 53.421875 
Q 53.21875 48.921875 51.53125 44.890625 
Q 49.859375 40.875 45.40625 35.40625 
Q 44.1875 33.984375 37.640625 27.21875 
Q 31.109375 20.453125 19.1875 8.296875 
z
" id="DejaVuSans-32"/>
       <path d="M 10.796875 72.90625 
L 49.515625 72.90625 
L 49.515625 64.59375 
L 19.828125 64.59375 
L 19.828125 46.734375 
Q 21.96875 47.46875 24.109375 47.828125 
Q 26.265625 48.1875 28.421875 48.1875 
Q 40.625 48.1875 47.75 41.5 
Q 54.890625 34.8125 54.890625 23.390625 
Q 54.890625 11.625 47.5625 5.09375 
Q 40.234375 -1.421875 26.90625 -1.421875 
Q 22.3125 -1.421875 17.546875 -0.640625 
Q 12.796875 0.140625 7.71875 1.703125 
L 7.71875 11.625 
Q 12.109375 9.234375 16.796875 8.0625 
Q 21.484375 6.890625 26.703125 6.890625 
Q 35.15625 6.890625 40.078125 11.328125 
Q 45.015625 15.765625 45.015625 23.390625 
Q 45.015625 31 40.078125 35.4375 
Q 35.15625 39.890625 26.703125 39.890625 
Q 22.75 39.890625 18.8125 39.015625 
Q 14.890625 38.140625 10.796875 36.28125 
z
" id="DejaVuSans-35"/>
      </defs>
      <g transform="translate(87.975199 324.497656)scale(0.1 -0.1)">
       <use xlink:href="#DejaVuSans-32"/>
       <use x="63.623047" xlink:href="#DejaVuSans-2e"/>
       <use x="95.410156" xlink:href="#DejaVuSans-35"/>
      </g>
     </g>
    </g>
    <g id="xtick_3">
     <g id="line2d_5">
      <path clip-path="url(#p30206e0d0e)" d="M 148.290398 313.399219 
L 148.290398 10.999219 
" style="fill:none;stroke:#cbcbcb;"/>
     </g>
     <g id="line2d_6"/>
     <g id="text_3">
      <!-- 5.0 -->
      <g transform="translate(140.338835 324.497656)scale(0.1 -0.1)">
       <use xlink:href="#DejaVuSans-35"/>
       <use x="63.623047" xlink:href="#DejaVuSans-2e"/>
       <use x="95.410156" xlink:href="#DejaVuSans-30"/>
      </g>
     </g>
    </g>
    <g id="xtick_4">
     <g id="line2d_7">
      <path clip-path="url(#p30206e0d0e)" d="M 200.654034 313.399219 
L 200.654034 10.999219 
" style="fill:none;stroke:#cbcbcb;"/>
     </g>
     <g id="line2d_8"/>
     <g id="text_4">
      <!-- 7.5 -->
      <defs>
       <path d="M 8.203125 72.90625 
L 55.078125 72.90625 
L 55.078125 68.703125 
L 28.609375 0 
L 18.3125 0 
L 43.21875 64.59375 
L 8.203125 64.59375 
z
" id="DejaVuSans-37"/>
      </defs>
      <g transform="translate(192.702472 324.497656)scale(0.1 -0.1)">
       <use xlink:href="#DejaVuSans-37"/>
       <use x="63.623047" xlink:href="#DejaVuSans-2e"/>
       <use x="95.410156" xlink:href="#DejaVuSans-35"/>
      </g>
     </g>
    </g>
    <g id="xtick_5">
     <g id="line2d_9">
      <path clip-path="url(#p30206e0d0e)" d="M 253.01767 313.399219 
L 253.01767 10.999219 
" style="fill:none;stroke:#cbcbcb;"/>
     </g>
     <g id="line2d_10"/>
     <g id="text_5">
      <!-- 10.0 -->
      <defs>
       <path d="M 12.40625 8.296875 
L 28.515625 8.296875 
L 28.515625 63.921875 
L 10.984375 60.40625 
L 10.984375 69.390625 
L 28.421875 72.90625 
L 38.28125 72.90625 
L 38.28125 8.296875 
L 54.390625 8.296875 
L 54.390625 0 
L 12.40625 0 
z
" id="DejaVuSans-31"/>
      </defs>
      <g transform="translate(241.884858 324.497656)scale(0.1 -0.1)">
       <use xlink:href="#DejaVuSans-31"/>
       <use x="63.623047" xlink:href="#DejaVuSans-30"/>
       <use x="127.246094" xlink:href="#DejaVuSans-2e"/>
       <use x="159.033203" xlink:href="#DejaVuSans-30"/>
      </g>
     </g>
    </g>
    <g id="xtick_6">
     <g id="line2d_11">
      <path clip-path="url(#p30206e0d0e)" d="M 305.381307 313.399219 
L 305.381307 10.999219 
" style="fill:none;stroke:#cbcbcb;"/>
     </g>
     <g id="line2d_12"/>
     <g id="text_6">
      <!-- 12.5 -->
      <g transform="translate(294.248494 324.497656)scale(0.1 -0.1)">
       <use xlink:href="#DejaVuSans-31"/>
       <use x="63.623047" xlink:href="#DejaVuSans-32"/>
       <use x="127.246094" xlink:href="#DejaVuSans-2e"/>
       <use x="159.033203" xlink:href="#DejaVuSans-35"/>
      </g>
     </g>
    </g>
    <g id="xtick_7">
     <g id="line2d_13">
      <path clip-path="url(#p30206e0d0e)" d="M 357.744943 313.399219 
L 357.744943 10.999219 
" style="fill:none;stroke:#cbcbcb;"/>
     </g>
     <g id="line2d_14"/>
     <g id="text_7">
      <!-- 15.0 -->
      <g transform="translate(346.612131 324.497656)scale(0.1 -0.1)">
       <use xlink:href="#DejaVuSans-31"/>
       <use x="63.623047" xlink:href="#DejaVuSans-35"/>
       <use x="127.246094" xlink:href="#DejaVuSans-2e"/>
       <use x="159.033203" xlink:href="#DejaVuSans-30"/>
      </g>
     </g>
    </g>
    <g id="xtick_8">
     <g id="line2d_15">
      <path clip-path="url(#p30206e0d0e)" d="M 410.10858 313.399219 
L 410.10858 10.999219 
" style="fill:none;stroke:#cbcbcb;"/>
     </g>
     <g id="line2d_16"/>
     <g id="text_8">
      <!-- 17.5 -->
      <g transform="translate(398.975767 324.497656)scale(0.1 -0.1)">
       <use xlink:href="#DejaVuSans-31"/>
       <use x="63.623047" xlink:href="#DejaVuSans-37"/>
       <use x="127.246094" xlink:href="#DejaVuSans-2e"/>
       <use x="159.033203" xlink:href="#DejaVuSans-35"/>
      </g>
     </g>
    </g>
    <g id="xtick_9">
     <g id="line2d_17">
      <path clip-path="url(#p30206e0d0e)" d="M 462.472216 313.399219 
L 462.472216 10.999219 
" style="fill:none;stroke:#cbcbcb;"/>
     </g>
     <g id="line2d_18"/>
     <g id="text_9">
      <!-- 20.0 -->
      <g transform="translate(451.339403 324.497656)scale(0.1 -0.1)">
       <use xlink:href="#DejaVuSans-32"/>
       <use x="63.623047" xlink:href="#DejaVuSans-30"/>
       <use x="127.246094" xlink:href="#DejaVuSans-2e"/>
       <use x="159.033203" xlink:href="#DejaVuSans-30"/>
      </g>
     </g>
    </g>
    <g id="text_10">
     <!-- $\sf \lambda$ -->
     <defs>
      <path d="M 30.953125 67.4375 
L 56.203125 0 
L 46.6875 0 
L 31.34375 40.4375 
L 12.5 0 
L 2.984375 0 
L 26.953125 52.4375 
L 23.34375 62.109375 
Q 21.046875 68.265625 15.828125 68.265625 
L 11.140625 68.265625 
L 11.140625 75.984375 
L 16.84375 75.875 
Q 27.875 75.734375 30.953125 67.4375 
z
" id="DejaVuSans-3bb"/>
     </defs>
     <g transform="translate(270.363125 339.695469)scale(0.12 -0.12)">
      <use transform="translate(0 0.015625)" xlink:href="#DejaVuSans-3bb"/>
     </g>
    </g>
   </g>
   <g id="matplotlib.axis_2">
    <g id="ytick_1">
     <g id="line2d_19">
      <path clip-path="url(#p30206e0d0e)" d="M 43.563125 313.399219 
L 504.363125 313.399219 
" style="fill:none;stroke:#cbcbcb;"/>
     </g>
     <g id="line2d_20"/>
     <g id="text_11">
      <!-- 0.0 -->
      <g transform="translate(24.16 317.198437)scale(0.1 -0.1)">
       <use xlink:href="#DejaVuSans-30"/>
       <use x="63.623047" xlink:href="#DejaVuSans-2e"/>
       <use x="95.410156" xlink:href="#DejaVuSans-30"/>
      </g>
     </g>
    </g>
    <g id="ytick_2">
     <g id="line2d_21">
      <path clip-path="url(#p30206e0d0e)" d="M 43.563125 252.919219 
L 504.363125 252.919219 
" style="fill:none;stroke:#cbcbcb;"/>
     </g>
     <g id="line2d_22"/>
     <g id="text_12">
      <!-- 0.1 -->
      <g transform="translate(24.16 256.718437)scale(0.1 -0.1)">
       <use xlink:href="#DejaVuSans-30"/>
       <use x="63.623047" xlink:href="#DejaVuSans-2e"/>
       <use x="95.410156" xlink:href="#DejaVuSans-31"/>
      </g>
     </g>
    </g>
    <g id="ytick_3">
     <g id="line2d_23">
      <path clip-path="url(#p30206e0d0e)" d="M 43.563125 192.439219 
L 504.363125 192.439219 
" style="fill:none;stroke:#cbcbcb;"/>
     </g>
     <g id="line2d_24"/>
     <g id="text_13">
      <!-- 0.2 -->
      <g transform="translate(24.16 196.238437)scale(0.1 -0.1)">
       <use xlink:href="#DejaVuSans-30"/>
       <use x="63.623047" xlink:href="#DejaVuSans-2e"/>
       <use x="95.410156" xlink:href="#DejaVuSans-32"/>
      </g>
     </g>
    </g>
    <g id="ytick_4">
     <g id="line2d_25">
      <path clip-path="url(#p30206e0d0e)" d="M 43.563125 131.959219 
L 504.363125 131.959219 
" style="fill:none;stroke:#cbcbcb;"/>
     </g>
     <g id="line2d_26"/>
     <g id="text_14">
      <!-- 0.3 -->
      <defs>
       <path d="M 40.578125 39.3125 
Q 47.65625 37.796875 51.625 33 
Q 55.609375 28.21875 55.609375 21.1875 
Q 55.609375 10.40625 48.1875 4.484375 
Q 40.765625 -1.421875 27.09375 -1.421875 
Q 22.515625 -1.421875 17.65625 -0.515625 
Q 12.796875 0.390625 7.625 2.203125 
L 7.625 11.71875 
Q 11.71875 9.328125 16.59375 8.109375 
Q 21.484375 6.890625 26.8125 6.890625 
Q 36.078125 6.890625 40.9375 10.546875 
Q 45.796875 14.203125 45.796875 21.1875 
Q 45.796875 27.640625 41.28125 31.265625 
Q 36.765625 34.90625 28.71875 34.90625 
L 20.21875 34.90625 
L 20.21875 43.015625 
L 29.109375 43.015625 
Q 36.375 43.015625 40.234375 45.921875 
Q 44.09375 48.828125 44.09375 54.296875 
Q 44.09375 59.90625 40.109375 62.90625 
Q 36.140625 65.921875 28.71875 65.921875 
Q 24.65625 65.921875 20.015625 65.03125 
Q 15.375 64.15625 9.8125 62.3125 
L 9.8125 71.09375 
Q 15.4375 72.65625 20.34375 73.4375 
Q 25.25 74.21875 29.59375 74.21875 
Q 40.828125 74.21875 47.359375 69.109375 
Q 53.90625 64.015625 53.90625 55.328125 
Q 53.90625 49.265625 50.4375 45.09375 
Q 46.96875 40.921875 40.578125 39.3125 
z
" id="DejaVuSans-33"/>
      </defs>
      <g transform="translate(24.16 135.758437)scale(0.1 -0.1)">
       <use xlink:href="#DejaVuSans-30"/>
       <use x="63.623047" xlink:href="#DejaVuSans-2e"/>
       <use x="95.410156" xlink:href="#DejaVuSans-33"/>
      </g>
     </g>
    </g>
    <g id="ytick_5">
     <g id="line2d_27">
      <path clip-path="url(#p30206e0d0e)" d="M 43.563125 71.479219 
L 504.363125 71.479219 
" style="fill:none;stroke:#cbcbcb;"/>
     </g>
     <g id="line2d_28"/>
     <g id="text_15">
      <!-- 0.4 -->
      <defs>
       <path d="M 37.796875 64.3125 
L 12.890625 25.390625 
L 37.796875 25.390625 
z
M 35.203125 72.90625 
L 47.609375 72.90625 
L 47.609375 25.390625 
L 58.015625 25.390625 
L 58.015625 17.1875 
L 47.609375 17.1875 
L 47.609375 0 
L 37.796875 0 
L 37.796875 17.1875 
L 4.890625 17.1875 
L 4.890625 26.703125 
z
" id="DejaVuSans-34"/>
      </defs>
      <g transform="translate(24.16 75.278437)scale(0.1 -0.1)">
       <use xlink:href="#DejaVuSans-30"/>
       <use x="63.623047" xlink:href="#DejaVuSans-2e"/>
       <use x="95.410156" xlink:href="#DejaVuSans-34"/>
      </g>
     </g>
    </g>
    <g id="ytick_6">
     <g id="line2d_29">
      <path clip-path="url(#p30206e0d0e)" d="M 43.563125 10.999219 
L 504.363125 10.999219 
" style="fill:none;stroke:#cbcbcb;"/>
     </g>
     <g id="line2d_30"/>
     <g id="text_16">
      <!-- 0.5 -->
      <g transform="translate(24.16 14.798437)scale(0.1 -0.1)">
       <use xlink:href="#DejaVuSans-30"/>
       <use x="63.623047" xlink:href="#DejaVuSans-2e"/>
       <use x="95.410156" xlink:href="#DejaVuSans-35"/>
      </g>
     </g>
    </g>
    <g id="text_17">
     <!-- $\sf C_p ( \lambda,\beta )$ -->
     <defs>
      <path d="M 64.40625 67.28125 
L 64.40625 56.890625 
Q 59.421875 61.53125 53.78125 63.8125 
Q 48.140625 66.109375 41.796875 66.109375 
Q 29.296875 66.109375 22.65625 58.46875 
Q 16.015625 50.828125 16.015625 36.375 
Q 16.015625 21.96875 22.65625 14.328125 
Q 29.296875 6.6875 41.796875 6.6875 
Q 48.140625 6.6875 53.78125 8.984375 
Q 59.421875 11.28125 64.40625 15.921875 
L 64.40625 5.609375 
Q 59.234375 2.09375 53.4375 0.328125 
Q 47.65625 -1.421875 41.21875 -1.421875 
Q 24.65625 -1.421875 15.125 8.703125 
Q 5.609375 18.84375 5.609375 36.375 
Q 5.609375 53.953125 15.125 64.078125 
Q 24.65625 74.21875 41.21875 74.21875 
Q 47.75 74.21875 53.53125 72.484375 
Q 59.328125 70.75 64.40625 67.28125 
z
" id="DejaVuSans-43"/>
      <path d="M 18.109375 8.203125 
L 18.109375 -20.796875 
L 9.078125 -20.796875 
L 9.078125 54.6875 
L 18.109375 54.6875 
L 18.109375 46.390625 
Q 20.953125 51.265625 25.265625 53.625 
Q 29.59375 56 35.59375 56 
Q 45.5625 56 51.78125 48.09375 
Q 58.015625 40.1875 58.015625 27.296875 
Q 58.015625 14.40625 51.78125 6.484375 
Q 45.5625 -1.421875 35.59375 -1.421875 
Q 29.59375 -1.421875 25.265625 0.953125 
Q 20.953125 3.328125 18.109375 8.203125 
z
M 48.6875 27.296875 
Q 48.6875 37.203125 44.609375 42.84375 
Q 40.53125 48.484375 33.40625 48.484375 
Q 26.265625 48.484375 22.1875 42.84375 
Q 18.109375 37.203125 18.109375 27.296875 
Q 18.109375 17.390625 22.1875 11.75 
Q 26.265625 6.109375 33.40625 6.109375 
Q 40.53125 6.109375 44.609375 11.75 
Q 48.6875 17.390625 48.6875 27.296875 
z
" id="DejaVuSans-70"/>
      <path d="M 31 75.875 
Q 24.46875 64.65625 21.28125 53.65625 
Q 18.109375 42.671875 18.109375 31.390625 
Q 18.109375 20.125 21.3125 9.0625 
Q 24.515625 -2 31 -13.1875 
L 23.1875 -13.1875 
Q 15.875 -1.703125 12.234375 9.375 
Q 8.59375 20.453125 8.59375 31.390625 
Q 8.59375 42.28125 12.203125 53.3125 
Q 15.828125 64.359375 23.1875 75.875 
z
" id="DejaVuSans-28"/>
      <path d="M 11.71875 12.40625 
L 22.015625 12.40625 
L 22.015625 4 
L 14.015625 -11.625 
L 7.71875 -11.625 
L 11.71875 4 
z
" id="DejaVuSans-2c"/>
      <path d="M 18.40625 3.375 
L 18.40625 -20.796875 
L 9.375 -20.796875 
L 9.375 54.34375 
Q 9.375 76.609375 30.171875 76.609375 
Q 51.375 76.609375 51.375 57.8125 
Q 51.375 44.4375 42.96875 39.546875 
Q 56.640625 35.15625 56.640625 22.125 
Q 56.640625 -1.03125 33.109375 -1.03125 
Q 22.75 -1.03125 18.40625 3.375 
z
M 18.40625 15.09375 
Q 23.828125 6.640625 33.453125 6.640625 
Q 47.515625 6.640625 47.515625 21.96875 
Q 47.515625 35.75 24.859375 34.671875 
L 24.859375 42.96875 
Q 42.578125 42.96875 42.578125 58.59375 
Q 42.578125 69.28125 31.15625 69.28125 
Q 18.40625 69.28125 18.40625 54.046875 
z
" id="DejaVuSans-3b2"/>
      <path d="M 8.015625 75.875 
L 15.828125 75.875 
Q 23.140625 64.359375 26.78125 53.3125 
Q 30.421875 42.28125 30.421875 31.390625 
Q 30.421875 20.453125 26.78125 9.375 
Q 23.140625 -1.703125 15.828125 -13.1875 
L 8.015625 -13.1875 
Q 14.5 -2 17.703125 9.0625 
Q 20.90625 20.125 20.90625 31.390625 
Q 20.90625 42.671875 17.703125 53.65625 
Q 14.5 64.65625 8.015625 75.875 
z
" id="DejaVuSans-29"/>
     </defs>
     <g transform="translate(16.44 184.459219)rotate(-90)scale(0.12 -0.12)">
      <use transform="translate(0 0.390625)" xlink:href="#DejaVuSans-43"/>
      <use transform="translate(70.78125 -16.015625)scale(0.7)" xlink:href="#DejaVuSans-70"/>
      <use transform="translate(117.949219 0.390625)" xlink:href="#DejaVuSans-28"/>
      <use transform="translate(156.962891 0.390625)" xlink:href="#DejaVuSans-3bb"/>
      <use transform="translate(216.142578 0.390625)" xlink:href="#DejaVuSans-2c"/>
      <use transform="translate(267.412109 0.390625)" xlink:href="#DejaVuSans-3b2"/>
      <use transform="translate(331.230469 0.390625)" xlink:href="#DejaVuSans-29"/>
     </g>
    </g>
   </g>
   <g id="line2d_31">
    <path clip-path="url(#p30206e0d0e)" d="M 54.035852 311.342899 
L 57.632546 310.636688 
L 61.229241 309.930476 
L 64.825935 309.224195 
L 68.422629 308.516857 
L 72.019323 307.802195 
L 75.616018 307.057827 
L 79.212712 306.230413 
L 82.809406 305.224972 
L 86.4061 303.905246 
L 90.002794 302.105804 
L 93.599489 299.651404 
L 97.196183 296.377642 
L 100.792877 292.14824 
L 104.389571 286.866616 
L 107.986265 280.481354 
L 111.58296 272.986438 
L 115.179654 264.417637 
L 118.776348 254.846494 
L 122.373042 244.373139 
L 125.969737 233.118872 
L 129.566431 221.219142 
L 133.163125 208.817289 
L 136.759819 196.059243 
L 140.356513 183.089214 
L 143.953208 170.046344 
L 147.549902 157.062221 
L 151.146596 144.259136 
L 154.74329 131.748984 
L 158.339985 119.632656 
L 161.936679 107.999848 
L 165.533373 96.929177 
L 169.130067 86.488521 
L 172.726761 76.73553 
L 176.323456 67.718244 
L 179.92015 59.475782 
L 183.516844 52.039057 
L 187.113538 45.431515 
L 190.710232 39.669849 
L 194.306927 34.764698 
L 197.903621 30.721317 
L 201.500315 27.540195 
L 205.097009 25.217644 
L 208.693704 23.746339 
L 212.290398 23.115808 
L 215.887092 23.312889 
L 219.483786 24.322132 
L 223.08048 26.126177 
L 226.677175 28.706075 
L 230.273869 32.041593 
L 233.870563 36.111472 
L 237.467257 40.89366 
L 241.063951 46.365523 
L 244.660646 52.50402 
L 248.25734 59.285866 
L 251.854034 66.687667 
L 255.450728 74.686044 
L 259.047423 83.257729 
L 262.644117 92.379661 
L 266.240811 102.029057 
L 269.837505 112.183477 
L 273.434199 122.820874 
L 277.030894 133.919644 
L 280.627588 145.458657 
L 284.224282 157.417287 
L 287.820976 169.775435 
L 291.41767 182.513544 
L 295.014365 195.612615 
L 298.611059 209.054209 
L 302.207753 222.820458 
L 305.804447 236.89406 
L 309.401142 251.258282 
L 312.997836 265.896951 
L 316.59453 280.794455 
L 320.191224 295.935731 
L 323.787918 311.306255 
L 327.384613 326.892035 
L 330.981307 342.6796 
L 332.717362 350.391094 
" style="fill:none;stroke:#fc4f30;stroke-width:4;"/>
   </g>
   <g id="line2d_32">
    <path clip-path="url(#p30206e0d0e)" d="M 54.035852 311.342882 
L 57.632546 310.636335 
L 61.229241 309.92724 
L 64.825935 309.206753 
L 68.422629 308.452103 
L 72.019323 307.620291 
L 75.616018 306.646661 
L 79.212712 305.449464 
L 82.809406 303.938697 
L 86.4061 302.026349 
L 90.002794 299.635546 
L 93.599489 296.707154 
L 97.196183 293.203424 
L 100.792877 289.108949 
L 104.389571 284.429548 
L 107.986265 279.189773 
L 111.58296 273.429666 
L 115.179654 267.201249 
L 118.776348 260.565094 
L 122.373042 253.587198 
L 125.969737 246.336271 
L 129.566431 238.881475 
L 133.163125 231.290635 
L 136.759819 223.628855 
L 140.356513 215.957514 
L 143.953208 208.333587 
L 147.549902 200.809213 
L 151.146596 193.431487 
L 154.74329 186.242417 
L 158.339985 179.278997 
L 161.936679 172.573386 
L 165.533373 166.153144 
L 169.130067 160.041517 
L 172.726761 154.257741 
L 176.323456 148.817367 
L 179.92015 143.732581 
L 183.516844 139.012525 
L 187.113538 134.663601 
L 190.710232 130.689767 
L 194.306927 127.092807 
L 197.903621 123.872592 
L 201.500315 121.027315 
L 205.097009 118.553709 
L 208.693704 116.447249 
L 212.290398 114.702328 
L 215.887092 113.312425 
L 219.483786 112.270249 
L 223.08048 111.567873 
L 226.677175 111.196853 
L 230.273869 111.148329 
L 233.870563 111.413121 
L 237.467257 111.981811 
L 241.063951 112.844813 
L 244.660646 113.992441 
L 248.25734 115.414957 
L 251.854034 117.102627 
L 255.450728 119.045756 
L 259.047423 121.234728 
L 262.644117 123.660035 
L 266.240811 126.312302 
L 269.837505 129.182308 
L 273.434199 132.261007 
L 277.030894 135.539543 
L 280.627588 139.009255 
L 284.224282 142.661697 
L 287.820976 146.488638 
L 291.41767 150.482067 
L 295.014365 154.634203 
L 298.611059 158.937489 
L 302.207753 163.384599 
L 305.804447 167.968437 
L 309.401142 172.682131 
L 312.997836 177.519038 
L 316.59453 182.472737 
L 320.191224 187.537025 
L 323.787918 192.705917 
L 327.384613 197.973639 
L 330.981307 203.334626 
L 334.578001 208.783513 
L 338.174695 214.315136 
L 341.771389 219.924523 
L 345.368084 225.606887 
L 348.964778 231.357628 
L 352.561472 237.17232 
L 356.158166 243.046711 
L 359.754861 248.976713 
L 363.351555 254.958401 
L 366.948249 260.988008 
L 370.544943 267.061916 
L 374.141637 273.176653 
L 377.738332 279.328888 
L 381.335026 285.515429 
L 384.93172 291.733212 
L 388.528414 297.979301 
L 392.125108 304.250884 
L 395.721803 310.545265 
L 399.318497 316.859862 
L 402.915191 323.192203 
L 406.511885 329.539922 
L 410.10858 335.900753 
" style="fill:none;stroke:#5cb85c;stroke-width:4;"/>
   </g>
   <g id="line2d_33">
    <path clip-path="url(#p30206e0d0e)" d="M 54.035852 311.330539 
L 57.632546 310.587274 
L 61.229241 309.780777 
L 64.825935 308.854539 
L 68.422629 307.735756 
L 72.019323 306.343563 
L 75.616018 304.598925 
L 79.212712 302.433638 
L 82.809406 299.796879 
L 86.4061 296.658807 
L 90.002794 293.011452 
L 93.599489 288.867509 
L 97.196183 284.257738 
L 100.792877 279.227614 
L 104.389571 273.833741 
L 107.986265 268.140362 
L 111.58296 262.216207 
L 115.179654 256.131781 
L 118.776348 249.957142 
L 122.373042 243.760148 
L 125.969737 237.605152 
L 129.566431 231.552065 
L 133.163125 225.655758 
L 136.759819 219.965719 
L 140.356513 214.525926 
L 143.953208 209.374876 
L 147.549902 204.545742 
L 151.146596 200.066618 
L 154.74329 195.960814 
L 158.339985 192.247197 
L 161.936679 188.940551 
L 165.533373 186.051937 
L 169.130067 183.589056 
L 172.726761 181.556599 
L 176.323456 179.956577 
L 179.92015 178.78864 
L 183.516844 178.050368 
L 187.113538 177.737542 
L 190.710232 177.844393 
L 194.306927 178.363826 
L 197.903621 179.287632 
L 201.500315 180.606666 
L 205.097009 182.311015 
L 208.693704 184.390147 
L 212.290398 186.833045 
L 215.887092 189.628318 
L 219.483786 192.764306 
L 223.08048 196.229174 
L 226.677175 200.010985 
L 230.273869 204.097769 
L 233.870563 208.477588 
L 237.467257 213.138579 
L 241.063951 218.069002 
L 244.660646 223.257277 
L 248.25734 228.692011 
L 251.854034 234.362028 
L 255.450728 240.25639 
L 259.047423 246.364408 
L 262.644117 252.675664 
L 266.240811 259.180016 
L 269.837505 265.867607 
L 273.434199 272.728869 
L 277.030894 279.754528 
L 280.627588 286.935606 
L 284.224282 294.263418 
L 287.820976 301.729572 
L 291.41767 309.325967 
L 295.014365 317.044789 
L 298.611059 324.878506 
L 302.207753 332.819864 
L 305.804447 340.861881 
L 309.401142 348.997841 
L 310.01051 350.391094 
" style="fill:none;stroke:#30a2da;stroke-width:4;"/>
   </g>
   <g id="line2d_34">
    <path clip-path="url(#p30206e0d0e)" d="M 54.035852 311.046362 
L 57.632546 309.994658 
L 61.229241 308.705344 
L 64.825935 307.10787 
L 68.422629 305.142379 
L 72.019323 302.766225 
L 75.616018 299.957533 
L 79.212712 296.716012 
L 82.809406 293.061633 
L 86.4061 289.031888 
L 90.002794 284.678308 
L 93.599489 280.06275 
L 97.196183 275.253825 
L 100.792877 270.323693 
L 104.389571 265.345329 
L 107.986265 260.390317 
L 111.58296 255.527139 
L 115.179654 250.819918 
L 118.776348 246.327566 
L 122.373042 242.10326 
L 125.969737 238.194182 
L 129.566431 234.641481 
L 133.163125 231.480383 
L 136.759819 228.74043 
L 140.356513 226.445789 
L 143.953208 224.615626 
L 147.549902 223.264501 
L 151.146596 222.402779 
L 154.74329 222.037043 
L 158.339985 222.170497 
L 161.936679 222.803346 
L 165.533373 223.933165 
L 169.130067 225.555232 
L 172.726761 227.662849 
L 176.323456 230.247623 
L 179.92015 233.299733 
L 183.516844 236.808163 
L 187.113538 240.760917 
L 190.710232 245.145211 
L 194.306927 249.947637 
L 197.903621 255.154319 
L 201.500315 260.75104 
L 205.097009 266.723363 
L 208.693704 273.056726 
L 212.290398 279.736534 
L 215.887092 286.748235 
L 219.483786 294.077379 
L 223.08048 301.709681 
L 226.677175 309.631062 
L 230.273869 317.827689 
L 233.870563 326.286008 
L 237.467257 334.992771 
L 241.063951 343.935055 
L 243.597485 350.391094 
" style="fill:none;stroke:#e5ae38;stroke-width:4;"/>
   </g>
   <g id="line2d_35">
    <path clip-path="url(#p30206e0d0e)" d="M 54.035852 309.565274 
L 57.632546 307.778745 
L 61.229241 305.638093 
L 64.825935 303.129444 
L 68.422629 300.260359 
L 72.019323 297.058379 
L 75.616018 293.568121 
L 79.212712 289.847632 
L 82.809406 285.964531 
L 86.4061 281.992323 
L 90.002794 278.00712 
L 93.599489 274.084877 
L 97.196183 270.299179 
L 100.792877 266.719564 
L 104.389571 263.410323 
L 107.986265 260.429713 
L 111.58296 257.829512 
L 115.179654 255.654852 
L 118.776348 253.944263 
L 122.373042 252.729869 
L 125.969737 252.037712 
L 129.566431 251.888136 
L 133.163125 252.296231 
L 136.759819 253.272294 
L 140.356513 254.822296 
L 143.953208 256.948347 
L 147.549902 259.649138 
L 151.146596 262.920366 
L 154.74329 266.755128 
L 158.339985 271.144288 
L 161.936679 276.076814 
L 165.533373 281.540081 
L 169.130067 287.520152 
L 172.726761 294.002022 
L 176.323456 300.969844 
L 179.92015 308.40712 
L 183.516844 316.296879 
L 187.113538 324.621829 
L 190.710232 333.364486 
L 194.306927 342.507297 
L 197.283758 350.391094 
" style="fill:none;stroke:#8b8b8b;stroke-width:4;"/>
   </g>
   <g id="patch_3">
    <path d="M 43.563125 313.399219 
L 43.563125 10.999219 
" style="fill:none;stroke:#ffffff;stroke-linecap:square;stroke-linejoin:miter;stroke-width:3;"/>
   </g>
   <g id="patch_4">
    <path d="M 504.363125 313.399219 
L 504.363125 10.999219 
" style="fill:none;stroke:#ffffff;stroke-linecap:square;stroke-linejoin:miter;stroke-width:3;"/>
   </g>
   <g id="patch_5">
    <path d="M 43.563125 313.399219 
L 504.363125 313.399219 
" style="fill:none;stroke:#ffffff;stroke-linecap:square;stroke-linejoin:miter;stroke-width:3;"/>
   </g>
   <g id="patch_6">
    <path d="M 43.563125 10.999219 
L 504.363125 10.999219 
" style="fill:none;stroke:#ffffff;stroke-linecap:square;stroke-linejoin:miter;stroke-width:3;"/>
   </g>
  </g>
 </g>
 <defs>
  <clipPath id="p30206e0d0e">
   <rect height="302.4" width="460.8" x="43.563125" y="10.999219"/>
  </clipPath>
 </defs>
</svg>
