<?xml version="1.0" encoding="UTF-8" standalone="no"?>
<!-- Created with matplotlib (http://matplotlib.org/) -->

<svg
   xmlns:dc="http://purl.org/dc/elements/1.1/"
   xmlns:cc="http://creativecommons.org/ns#"
   xmlns:rdf="http://www.w3.org/1999/02/22-rdf-syntax-ns#"
   xmlns:svg="http://www.w3.org/2000/svg"
   xmlns="http://www.w3.org/2000/svg"
   xmlns:xlink="http://www.w3.org/1999/xlink"
   xmlns:sodipodi="http://sodipodi.sourceforge.net/DTD/sodipodi-0.dtd"
   xmlns:inkscape="http://www.inkscape.org/namespaces/inkscape"
   height="365pt"
   version="1.1"
   viewBox="0 0 524 365"
   width="524pt"
   id="svg2"
   inkscape:version="0.48.5 r10040"
   sodipodi:docname="lam_cp.svg">
  <metadata
     id="metadata272">
    <rdf:RDF>
      <cc:Work
         rdf:about="">
        <dc:format>image/svg+xml</dc:format>
        <dc:type
           rdf:resource="http://purl.org/dc/dcmitype/StillImage" />
        <dc:title></dc:title>
      </cc:Work>
    </rdf:RDF>
  </metadata>
  <sodipodi:namedview
     pagecolor="#ffffff"
     bordercolor="#666666"
     borderopacity="1"
     objecttolerance="10"
     gridtolerance="10"
     guidetolerance="10"
     inkscape:pageopacity="0"
     inkscape:pageshadow="2"
     inkscape:window-width="1920"
     inkscape:window-height="1027"
     id="namedview270"
     showgrid="false"
     inkscape:zoom="1.2306897"
     inkscape:cx="270.46543"
     inkscape:cy="194.16702"
     inkscape:window-x="0"
     inkscape:window-y="0"
     inkscape:window-maximized="1"
     inkscape:current-layer="svg2" />
  <defs
     id="defs4">
    <style
       type="text/css"
       id="style6">
*{stroke-linecap:butt;stroke-linejoin:round;stroke-miterlimit:100000;}
  </style>
    <marker
       inkscape:stockid="Arrow1Mend"
       orient="auto"
       refY="0"
       refX="0"
       id="Arrow1Mend"
       style="stroke-linecap:butt;stroke-linejoin:round;stroke-miterlimit:100000;overflow:visible">
      <path
         id="path4018"
         d="M 0,0 5,-5 -12.5,0 5,5 0,0 z"
         style="fill-rule:evenodd;stroke:#000000;stroke-width:1pt;stroke-linecap:butt;stroke-linejoin:round;stroke-miterlimit:100000"
         transform="matrix(-0.4,0,0,-0.4,-4,0)"
         inkscape:connector-curvature="0" />
    </marker>
  </defs>
  <g
     id="figure_1">
    <g
       id="patch_1">
      <path
         d="M 0 365.983312  L 524.440375 365.983312  L 524.440375 -0  L 0 -0  z "
         style="fill:none;opacity:0;"
         id="path10" />
    </g>
    <g
       id="axes_1">
      <g
         id="patch_2">
        <path
           d="M 56.440375 319.974687  L 517.240375 319.974687  L 517.240375 13.974687  L 56.440375 13.974687  z "
           style="fill:#ffffff;"
           id="path14" />
      </g>
      <g
         id="matplotlib.axis_1">
        <g
           id="xtick_1">
          <g
             id="line2d_1">
            <path
               clip-path="url(#p43087ecdae)"
               d="M 56.440375 319.974687  L 56.440375 13.974687  "
               style="fill:none;stroke:#cbcbcb;"
               id="path19" />
          </g>
          <g
             id="line2d_2" />
          <g
             id="line2d_3" />
          <g
             id="text_1">
            <!-- 0 -->
            <defs
               id="defs24">
              <path
                 d="M 31.78125 66.40625  Q 24.171875 66.40625 20.328125 58.90625  Q 16.5 51.421875 16.5 36.375  Q 16.5 21.390625 20.328125 13.890625  Q 24.171875 6.390625 31.78125 6.390625  Q 39.453125 6.390625 43.28125 13.890625  Q 47.125 21.390625 47.125 36.375  Q 47.125 51.421875 43.28125 58.90625  Q 39.453125 66.40625 31.78125 66.40625  M 31.78125 74.21875  Q 44.046875 74.21875 50.515625 64.515625  Q 56.984375 54.828125 56.984375 36.375  Q 56.984375 17.96875 50.515625 8.265625  Q 44.046875 -1.421875 31.78125 -1.421875  Q 19.53125 -1.421875 13.0625 8.265625  Q 6.59375 17.96875 6.59375 36.375  Q 6.59375 54.828125 13.0625 64.515625  Q 19.53125 74.21875 31.78125 74.21875  "
                 id="BitstreamVeraSans-Roman-30" />
            </defs>
            <g
               transform="translate(51.986625 334.6125)scale(0.14 -0.14)"
               id="g27">
              <use
                 xlink:href="#BitstreamVeraSans-Roman-30"
                 id="use29" />
            </g>
          </g>
        </g>
        <g
           id="xtick_2">
          <g
             id="line2d_4">
            <path
               clip-path="url(#p43087ecdae)"
               d="M 161.167648 319.974687  L 161.167648 13.974687  "
               style="fill:none;stroke:#cbcbcb;"
               id="path33" />
          </g>
          <g
             id="line2d_5" />
          <g
             id="line2d_6" />
          <g
             id="text_2">
            <!-- 5 -->
            <defs
               id="defs38">
              <path
                 d="M 10.796875 72.90625  L 49.515625 72.90625  L 49.515625 64.59375  L 19.828125 64.59375  L 19.828125 46.734375  Q 21.96875 47.46875 24.109375 47.828125  Q 26.265625 48.1875 28.421875 48.1875  Q 40.625 48.1875 47.75 41.5  Q 54.890625 34.8125 54.890625 23.390625  Q 54.890625 11.625 47.5625 5.09375  Q 40.234375 -1.421875 26.90625 -1.421875  Q 22.3125 -1.421875 17.546875 -0.640625  Q 12.796875 0.140625 7.71875 1.703125  L 7.71875 11.625  Q 12.109375 9.234375 16.796875 8.0625  Q 21.484375 6.890625 26.703125 6.890625  Q 35.15625 6.890625 40.078125 11.328125  Q 45.015625 15.765625 45.015625 23.390625  Q 45.015625 31 40.078125 35.4375  Q 35.15625 39.890625 26.703125 39.890625  Q 22.75 39.890625 18.8125 39.015625  Q 14.890625 38.140625 10.796875 36.28125  z "
                 id="BitstreamVeraSans-Roman-35" />
            </defs>
            <g
               transform="translate(156.713897727 334.6125)scale(0.14 -0.14)"
               id="g41">
              <use
                 xlink:href="#BitstreamVeraSans-Roman-35"
                 id="use43" />
            </g>
          </g>
        </g>
        <g
           id="xtick_3">
          <g
             id="line2d_7">
            <path
               clip-path="url(#p43087ecdae)"
               d="M 265.89492 319.974687  L 265.89492 13.974687  "
               style="fill:none;stroke:#cbcbcb;"
               id="path47" />
          </g>
          <g
             id="line2d_8" />
          <g
             id="line2d_9" />
          <g
             id="text_3">
            <!-- 10 -->
            <defs
               id="defs52">
              <path
                 d="M 12.40625 8.296875  L 28.515625 8.296875  L 28.515625 63.921875  L 10.984375 60.40625  L 10.984375 69.390625  L 28.421875 72.90625  L 38.28125 72.90625  L 38.28125 8.296875  L 54.390625 8.296875  L 54.390625 0  L 12.40625 0  z "
                 id="BitstreamVeraSans-Roman-31" />
            </defs>
            <g
               transform="translate(256.987420455 334.6125)scale(0.14 -0.14)"
               id="g55">
              <use
                 xlink:href="#BitstreamVeraSans-Roman-31"
                 id="use57" />
              <use
                 x="63.623046875"
                 xlink:href="#BitstreamVeraSans-Roman-30"
                 id="use59" />
            </g>
          </g>
        </g>
        <g
           id="xtick_4">
          <g
             id="line2d_10">
            <path
               clip-path="url(#p43087ecdae)"
               d="M 370.622193 319.974687  L 370.622193 13.974687  "
               style="fill:none;stroke:#cbcbcb;"
               id="path63" />
          </g>
          <g
             id="line2d_11" />
          <g
             id="line2d_12" />
          <g
             id="text_4">
            <!-- 15 -->
            <g
               transform="translate(361.714693182 334.6125)scale(0.14 -0.14)"
               id="g68">
              <use
                 xlink:href="#BitstreamVeraSans-Roman-31"
                 id="use70" />
              <use
                 x="63.623046875"
                 xlink:href="#BitstreamVeraSans-Roman-35"
                 id="use72" />
            </g>
          </g>
        </g>
        <g
           id="xtick_5">
          <g
             id="line2d_13">
            <path
               clip-path="url(#p43087ecdae)"
               d="M 475.349466 319.974687  L 475.349466 13.974687  "
               style="fill:none;stroke:#cbcbcb;"
               id="path76" />
          </g>
          <g
             id="line2d_14" />
          <g
             id="line2d_15" />
          <g
             id="text_5">
            <!-- 20 -->
            <defs
               id="defs81">
              <path
                 d="M 19.1875 8.296875  L 53.609375 8.296875  L 53.609375 0  L 7.328125 0  L 7.328125 8.296875  Q 12.9375 14.109375 22.625 23.890625  Q 32.328125 33.6875 34.8125 36.53125  Q 39.546875 41.84375 41.421875 45.53125  Q 43.3125 49.21875 43.3125 52.78125  Q 43.3125 58.59375 39.234375 62.25  Q 35.15625 65.921875 28.609375 65.921875  Q 23.96875 65.921875 18.8125 64.3125  Q 13.671875 62.703125 7.8125 59.421875  L 7.8125 69.390625  Q 13.765625 71.78125 18.9375 73  Q 24.125 74.21875 28.421875 74.21875  Q 39.75 74.21875 46.484375 68.546875  Q 53.21875 62.890625 53.21875 53.421875  Q 53.21875 48.921875 51.53125 44.890625  Q 49.859375 40.875 45.40625 35.40625  Q 44.1875 33.984375 37.640625 27.21875  Q 31.109375 20.453125 19.1875 8.296875  "
                 id="BitstreamVeraSans-Roman-32" />
            </defs>
            <g
               transform="translate(466.441965909 334.6125)scale(0.14 -0.14)"
               id="g84">
              <use
                 xlink:href="#BitstreamVeraSans-Roman-32"
                 id="use86" />
              <use
                 x="63.623046875"
                 xlink:href="#BitstreamVeraSans-Roman-30"
                 id="use88" />
            </g>
          </g>
        </g>
        <g
           id="text_6">
          <!-- $\sf \lambda$ -->
          <defs
             id="defs91">
            <path
               d="M 5.078125 1.703125  Q 5.078125 3.171875 6.390625 4.5  L 34.515625 32.078125  L 24.609375 59.90625  Q 23.4375 63.09375 22.140625 64.9375  Q 20.84375 66.796875 18.40625 66.796875  Q 17.28125 66.796875 17.28125 68.109375  Q 17.390625 68.703125 17.78125 69.046875  Q 18.171875 69.390625 18.796875 69.390625  Q 29.296875 69.390625 31.5 63.1875  L 51.8125 6.5  Q 53.125 2.25 54.5 0.78125  Q 54.984375 0.046875 54.984375 -0.203125  Q 54.984375 -1.125 54.203125 -1.125  L 48.78125 -1.125  Q 46.296875 -0.390625 44.828125 3.21875  L 35.6875 28.8125  L 11.53125 0.390625  Q 9.71875 -1.3125 8.296875 -1.3125  Q 7.03125 -1.3125 6.046875 -0.4375  Q 5.078125 0.4375 5.078125 1.703125  "
               id="Cmmi10-b8" />
          </defs>
          <g
             transform="translate(281.884375 355.2894375)scale(0.168 -0.168)"
             id="g94">
            <use
               transform="translate(0.0 0.609375)"
               xlink:href="#Cmmi10-b8"
               id="use96" />
          </g>
        </g>
      </g>
      <g
         id="matplotlib.axis_2">
        <g
           id="ytick_1">
          <g
             id="line2d_16">
            <path
               clip-path="url(#p43087ecdae)"
               d="M 56.440375 319.974687  L 517.240375 319.974687  "
               style="fill:none;stroke:#cbcbcb;"
               id="path101" />
          </g>
          <g
             id="line2d_17" />
          <g
             id="line2d_18" />
          <g
             id="text_7">
            <!-- 0.0 -->
            <defs
               id="defs106">
              <path
                 d="M 10.6875 12.40625  L 21 12.40625  L 21 0  L 10.6875 0  z "
                 id="BitstreamVeraSans-Roman-2e" />
            </defs>
            <g
               transform="translate(30.176 323.8378125)scale(0.14 -0.14)"
               id="g109">
              <use
                 xlink:href="#BitstreamVeraSans-Roman-30"
                 id="use111" />
              <use
                 x="63.623046875"
                 xlink:href="#BitstreamVeraSans-Roman-2e"
                 id="use113" />
              <use
                 x="95.41015625"
                 xlink:href="#BitstreamVeraSans-Roman-30"
                 id="use115" />
            </g>
          </g>
        </g>
        <g
           id="ytick_2">
          <g
             id="line2d_19">
            <path
               clip-path="url(#p43087ecdae)"
               d="M 56.440375 258.774687  L 517.240375 258.774687  "
               style="fill:none;stroke:#cbcbcb;"
               id="path119" />
          </g>
          <g
             id="line2d_20" />
          <g
             id="line2d_21" />
          <g
             id="text_8">
            <!-- 0.1 -->
            <g
               transform="translate(30.176 262.6378125)scale(0.14 -0.14)"
               id="g124">
              <use
                 xlink:href="#BitstreamVeraSans-Roman-30"
                 id="use126" />
              <use
                 x="63.623046875"
                 xlink:href="#BitstreamVeraSans-Roman-2e"
                 id="use128" />
              <use
                 x="95.41015625"
                 xlink:href="#BitstreamVeraSans-Roman-31"
                 id="use130" />
            </g>
          </g>
        </g>
        <g
           id="ytick_3">
          <g
             id="line2d_22">
            <path
               clip-path="url(#p43087ecdae)"
               d="M 56.440375 197.574687  L 517.240375 197.574687  "
               style="fill:none;stroke:#cbcbcb;"
               id="path134" />
          </g>
          <g
             id="line2d_23" />
          <g
             id="line2d_24" />
          <g
             id="text_9">
            <!-- 0.2 -->
            <g
               transform="translate(30.176 201.4378125)scale(0.14 -0.14)"
               id="g139">
              <use
                 xlink:href="#BitstreamVeraSans-Roman-30"
                 id="use141" />
              <use
                 x="63.623046875"
                 xlink:href="#BitstreamVeraSans-Roman-2e"
                 id="use143" />
              <use
                 x="95.41015625"
                 xlink:href="#BitstreamVeraSans-Roman-32"
                 id="use145" />
            </g>
          </g>
        </g>
        <g
           id="ytick_4">
          <g
             id="line2d_25">
            <path
               clip-path="url(#p43087ecdae)"
               d="M 56.440375 136.374687  L 517.240375 136.374687  "
               style="fill:none;stroke:#cbcbcb;"
               id="path149" />
          </g>
          <g
             id="line2d_26" />
          <g
             id="line2d_27" />
          <g
             id="text_10">
            <!-- 0.3 -->
            <defs
               id="defs154">
              <path
                 d="M 40.578125 39.3125  Q 47.65625 37.796875 51.625 33  Q 55.609375 28.21875 55.609375 21.1875  Q 55.609375 10.40625 48.1875 4.484375  Q 40.765625 -1.421875 27.09375 -1.421875  Q 22.515625 -1.421875 17.65625 -0.515625  Q 12.796875 0.390625 7.625 2.203125  L 7.625 11.71875  Q 11.71875 9.328125 16.59375 8.109375  Q 21.484375 6.890625 26.8125 6.890625  Q 36.078125 6.890625 40.9375 10.546875  Q 45.796875 14.203125 45.796875 21.1875  Q 45.796875 27.640625 41.28125 31.265625  Q 36.765625 34.90625 28.71875 34.90625  L 20.21875 34.90625  L 20.21875 43.015625  L 29.109375 43.015625  Q 36.375 43.015625 40.234375 45.921875  Q 44.09375 48.828125 44.09375 54.296875  Q 44.09375 59.90625 40.109375 62.90625  Q 36.140625 65.921875 28.71875 65.921875  Q 24.65625 65.921875 20.015625 65.03125  Q 15.375 64.15625 9.8125 62.3125  L 9.8125 71.09375  Q 15.4375 72.65625 20.34375 73.4375  Q 25.25 74.21875 29.59375 74.21875  Q 40.828125 74.21875 47.359375 69.109375  Q 53.90625 64.015625 53.90625 55.328125  Q 53.90625 49.265625 50.4375 45.09375  Q 46.96875 40.921875 40.578125 39.3125  "
                 id="BitstreamVeraSans-Roman-33" />
            </defs>
            <g
               transform="translate(30.176 140.2378125)scale(0.14 -0.14)"
               id="g157">
              <use
                 xlink:href="#BitstreamVeraSans-Roman-30"
                 id="use159" />
              <use
                 x="63.623046875"
                 xlink:href="#BitstreamVeraSans-Roman-2e"
                 id="use161" />
              <use
                 x="95.41015625"
                 xlink:href="#BitstreamVeraSans-Roman-33"
                 id="use163" />
            </g>
          </g>
        </g>
        <g
           id="ytick_5">
          <g
             id="line2d_28">
            <path
               clip-path="url(#p43087ecdae)"
               d="M 56.440375 75.174687  L 517.240375 75.174687  "
               style="fill:none;stroke:#cbcbcb;"
               id="path167" />
          </g>
          <g
             id="line2d_29" />
          <g
             id="line2d_30" />
          <g
             id="text_11">
            <!-- 0.4 -->
            <defs
               id="defs172">
              <path
                 d="M 37.796875 64.3125  L 12.890625 25.390625  L 37.796875 25.390625  z M 35.203125 72.90625  L 47.609375 72.90625  L 47.609375 25.390625  L 58.015625 25.390625  L 58.015625 17.1875  L 47.609375 17.1875  L 47.609375 0  L 37.796875 0  L 37.796875 17.1875  L 4.890625 17.1875  L 4.890625 26.703125  z "
                 id="BitstreamVeraSans-Roman-34" />
            </defs>
            <g
               transform="translate(30.176 79.0378125)scale(0.14 -0.14)"
               id="g175">
              <use
                 xlink:href="#BitstreamVeraSans-Roman-30"
                 id="use177" />
              <use
                 x="63.623046875"
                 xlink:href="#BitstreamVeraSans-Roman-2e"
                 id="use179" />
              <use
                 x="95.41015625"
                 xlink:href="#BitstreamVeraSans-Roman-34"
                 id="use181" />
            </g>
          </g>
        </g>
        <g
           id="ytick_6">
          <g
             id="line2d_31">
            <path
               clip-path="url(#p43087ecdae)"
               d="M 56.440375 13.974687  L 517.240375 13.974687  "
               style="fill:none;stroke:#cbcbcb;"
               id="path185" />
          </g>
          <g
             id="line2d_32" />
          <g
             id="line2d_33" />
          <g
             id="text_12">
            <!-- 0.5 -->
            <g
               transform="translate(30.176 17.8378125)scale(0.14 -0.14)"
               id="g190">
              <use
                 xlink:href="#BitstreamVeraSans-Roman-30"
                 id="use192" />
              <use
                 x="63.623046875"
                 xlink:href="#BitstreamVeraSans-Roman-2e"
                 id="use194" />
              <use
                 x="95.41015625"
                 xlink:href="#BitstreamVeraSans-Roman-35"
                 id="use196" />
            </g>
          </g>
        </g>
        <g
           id="text_13">
          <!-- $\sf C_p ( \lambda,\beta )$ -->
          <defs
             id="defs199">
            <path
               d="M 9.90625 -18.015625  Q 9.90625 -17.578125 10.296875 -17.1875  Q 13.921875 -13.71875 15.921875 -9.171875  Q 17.921875 -4.640625 17.921875 0.390625  L 17.921875 1.609375  Q 16.3125 0 13.921875 0  Q 11.625 0 10.015625 1.609375  Q 8.40625 3.21875 8.40625 5.515625  Q 8.40625 7.859375 10.015625 9.421875  Q 11.625 10.984375 13.921875 10.984375  Q 17.484375 10.984375 19 7.6875  Q 20.515625 4.390625 20.515625 0.390625  Q 20.515625 -5.171875 18.28125 -10.171875  Q 16.0625 -15.1875 12.015625 -19.1875  Q 11.625 -19.390625 11.375 -19.390625  Q 10.890625 -19.390625 10.390625 -18.9375  Q 9.90625 -18.5 9.90625 -18.015625  "
               id="Cmmi10-3b" />
            <path
               d="M 38.8125 -2.203125  Q 31.6875 -2.203125 25.671875 0.921875  Q 19.671875 4.046875 15.40625 9.375  Q 11.140625 14.703125 8.8125 21.234375  Q 6.5 27.78125 6.5 34.71875  Q 6.5 41.65625 8.8125 48.21875  Q 11.140625 54.78125 15.453125 60.125  Q 19.78125 65.484375 25.734375 68.53125  Q 31.6875 71.578125 38.8125 71.578125  Q 42.53125 71.578125 45.53125 71.234375  Q 48.53125 70.90625 51.65625 70.09375  Q 54.78125 69.28125 57.71875 68.109375  L 56.203125 59.515625  L 56.109375 59.515625  Q 51.953125 62.359375 47.890625 63.578125  Q 43.84375 64.796875 38.8125 64.796875  Q 33.296875 64.796875 28.96875 62.0625  Q 24.65625 59.328125 21.71875 54.828125  Q 18.796875 50.34375 17.3125 45.09375  Q 15.828125 39.84375 15.828125 34.71875  Q 15.828125 29.640625 17.328125 24.3125  Q 18.84375 19 21.796875 14.5  Q 24.75 10.015625 29.09375 7.296875  Q 33.453125 4.59375 38.8125 4.59375  Q 45.265625 4.59375 49.140625 5.8125  Q 53.03125 7.03125 58.203125 10.6875  L 58.796875 3.515625  L 58.796875 3.421875  Q 55.03125 1.078125 52.21875 -0.09375  Q 49.421875 -1.265625 46.4375 -1.734375  Q 43.453125 -2.203125 38.8125 -2.203125  "
               id="Cmss10-43" />
            <path
               d="M 6.5 -25  Q 5.609375 -25 5.609375 -24.125  Q 5.609375 -23.6875 5.8125 -23.484375  Q 22.90625 -6.78125 22.90625 25  Q 22.90625 56.78125 6 73.296875  Q 5.609375 73.53125 5.609375 74.125  Q 5.609375 74.46875 5.875 74.734375  Q 6.15625 75 6.5 75  L 7.421875 75  Q 7.71875 75 7.90625 74.8125  Q 15.09375 69.140625 19.875 61.03125  Q 24.65625 52.9375 26.875 43.75  Q 29.109375 34.578125 29.109375 25  Q 29.109375 17.921875 27.90625 11.0625  Q 26.703125 4.203125 24.09375 -2.453125  Q 21.484375 -9.125 17.484375 -14.765625  Q 13.484375 -20.40625 7.90625 -24.8125  Q 7.71875 -25 7.421875 -25  z "
               id="Cmr10-29" />
            <path
               d="M 2.6875 -19.390625  Q 2.390625 -19.390625 2.140625 -19.046875  Q 1.90625 -18.703125 1.90625 -18.40625  L 17.28125 43.40625  Q 18.609375 48.390625 21.140625 53.078125  Q 23.6875 57.765625 27.515625 61.796875  Q 31.34375 65.828125 35.9375 68.171875  Q 40.53125 70.515625 45.703125 70.515625  Q 49.421875 70.515625 52.421875 68.875  Q 55.421875 67.234375 57.15625 64.28125  Q 58.890625 61.328125 58.890625 57.625  Q 58.890625 54.046875 57.515625 50.796875  Q 56.15625 47.5625 53.703125 44.75  Q 51.265625 41.9375 48.484375 40.1875  Q 50.09375 39.15625 51.359375 37.5625  Q 52.640625 35.984375 53.421875 34.25  Q 54.203125 32.515625 54.640625 30.390625  Q 55.078125 28.265625 55.078125 26.421875  Q 55.078125 21.296875 52.875 16.3125  Q 50.6875 11.328125 46.890625 7.265625  Q 43.109375 3.21875 38.21875 0.84375  Q 33.34375 -1.515625 28.21875 -1.515625  Q 22.609375 -1.515625 18.109375 1.5625  Q 13.625 4.640625 11.921875 9.90625  L 4.6875 -18.796875  Q 4.6875 -19.390625 3.90625 -19.390625  z M 28.421875 1.21875  Q 32.90625 1.21875 36.546875 4.171875  Q 40.1875 7.125 42.546875 11.59375  Q 44.921875 16.0625 46.15625 21.0625  Q 47.40625 26.078125 47.40625 30.171875  Q 47.40625 35.25 44.484375 38.1875  Q 41.0625 36.921875 37.796875 36.921875  Q 29.890625 36.921875 29.890625 39.59375  Q 29.890625 43.109375 38.921875 43.109375  Q 42.140625 43.109375 44.828125 42.09375  Q 46.96875 43.75 48.71875 46.96875  Q 50.484375 50.203125 51.390625 53.71875  Q 52.296875 57.234375 52.296875 60.296875  Q 52.296875 63.578125 50.5625 65.75  Q 48.828125 67.921875 45.515625 67.921875  Q 39.40625 67.921875 34.15625 64.15625  Q 28.90625 60.40625 25.296875 54.65625  Q 21.6875 48.921875 20.125 42.828125  L 14.59375 20.703125  Q 14.0625 18.40625 13.921875 15.578125  Q 13.921875 9.328125 18.015625 5.265625  Q 22.125 1.21875 28.421875 1.21875  M 32.90625 39.890625  Q 34.421875 39.5 37.890625 39.5  Q 39.59375 39.5 41.3125 40.09375  Q 41.21875 40.1875 40.921875 40.1875  Q 39.84375 40.484375 38.625 40.484375  Q 34.078125 40.484375 32.90625 39.890625  "
               id="Cmmi10-af" />
            <path
               d="M 8.015625 -19.390625  L 8.015625 44.390625  L 15.921875 44.390625  L 15.921875 39.703125  Q 22.953125 45.515625 33.015625 45.515625  Q 37.9375 45.515625 41.375 41.75  Q 44.828125 37.984375 46.5 32.53125  Q 48.1875 27.09375 48.1875 22.21875  Q 48.1875 16.890625 45.96875 11.375  Q 43.75 5.859375 39.578125 2.359375  Q 35.40625 -1.125 29.78125 -1.125  Q 25.984375 -1.125 22.4375 0.359375  Q 18.890625 1.859375 16.21875 4.390625  L 16.21875 -19.390625  z M 16.21875 11.625  Q 17.78125 8.734375 20.125 7.078125  Q 22.46875 5.421875 25.484375 5.421875  Q 29.78125 5.421875 33.078125 7.828125  Q 36.375 10.25 38.171875 14.203125  Q 39.984375 18.171875 39.984375 22.21875  Q 39.984375 28.515625 36.328125 33.609375  Q 32.671875 38.71875 26.703125 38.71875  Q 24.703125 38.71875 22.671875 38.03125  Q 20.65625 37.359375 19.046875 36.15625  Q 17.4375 34.96875 16.21875 33.203125  z "
               id="Cmss10-70" />
            <path
               d="M 31 -24.8125  Q 25.4375 -20.40625 21.40625 -14.71875  Q 17.390625 -9.03125 14.8125 -2.578125  Q 12.25 3.859375 10.984375 10.890625  Q 9.71875 17.921875 9.71875 25  Q 9.71875 32.171875 10.984375 39.203125  Q 12.25 46.234375 14.859375 52.734375  Q 17.484375 59.234375 21.53125 64.890625  Q 25.59375 70.5625 31 74.8125  Q 31 75 31.5 75  L 32.421875 75  Q 32.71875 75 32.953125 74.734375  Q 33.203125 74.46875 33.203125 74.125  Q 33.203125 73.6875 33.015625 73.484375  Q 28.125 68.703125 24.875 63.234375  Q 21.625 57.765625 19.640625 51.578125  Q 17.671875 45.40625 16.796875 38.78125  Q 15.921875 32.171875 15.921875 25  Q 15.921875 -6.78125 32.90625 -23.296875  Q 33.203125 -23.578125 33.203125 -24.125  Q 33.203125 -24.359375 32.9375 -24.671875  Q 32.671875 -25 32.421875 -25  L 31.5 -25  Q 31 -25 31 -24.8125  "
               id="Cmr10-28" />
          </defs>
          <g
             transform="translate(19.8 196.2066875)rotate(-90.0)scale(0.168 -0.168)"
             id="g207">
            <use
               xlink:href="#Cmss10-43"
               id="use209" />
            <use
               transform="translate(68.464609375 -17.700000000000003)scale(0.7)"
               xlink:href="#Cmss10-70"
               id="use211" />
            <use
               transform="translate(111.2300390625 0.0)"
               xlink:href="#Cmr10-28"
               id="use213" />
            <use
               transform="translate(150.0483984375 0.0)"
               xlink:href="#Cmmi10-b8"
               id="use215" />
            <use
               transform="translate(208.3491796875 0.0)"
               xlink:href="#Cmmi10-3b"
               id="use217" />
            <use
               transform="translate(251.9136328125 0.0)"
               xlink:href="#Cmmi10-af"
               id="use219" />
            <use
               transform="translate(308.4077734375 0.0)"
               xlink:href="#Cmr10-29"
               id="use221" />
          </g>
        </g>
      </g>
      <g
         id="line2d_34">
        <path
           clip-path="url(#p43087ecdae)"
           d="M 57.487648 319.766607  L 62.766325 318.7178  L 68.045003 317.668993  L 73.323681 316.620185  L 78.602358 315.571219  L 83.881036 314.516833  L 89.159714 313.411268  L 94.438392 312.084462  L 99.717069 310.17736  L 104.995747 307.177283  L 110.274425 302.537925  L 115.553102 295.809906  L 120.83178 286.726888  L 126.110458 275.233734  L 131.389135 261.469521  L 136.667813 245.725548  L 141.946491 228.395366  L 147.225168 209.927648  L 152.503846 190.787291  L 157.782524 171.4263  L 163.061201 152.263976  L 168.339879 133.674887  L 173.618557 115.982893  L 178.897235 99.459559  L 184.175912 84.325573  L 189.45459 70.754062  L 194.733268 58.874994  L 200.011945 48.78008  L 205.290623 40.527769  L 210.569301 34.148081  L 215.847978 29.647118  L 221.126656 27.011173  L 226.405334 26.210386  L 231.684011 27.201968  L 236.962689 29.932986  L 242.241367 34.342759  L 247.520044 40.364892  L 252.798722 47.928984  L 258.0774 56.962057  L 263.356077 67.389734  L 268.634755 79.137207  L 273.913433 92.130019  L 279.192111 106.29469  L 284.470788 121.559209  L 289.749466 137.853422  L 295.028144 155.109316  L 300.306821 173.261235  L 305.585499 192.246027  L 310.864177 212.003138  L 316.142854 232.474665  L 321.421532 253.605371  L 326.70021 275.342676  L 331.978887 297.636623  L 337.257565 320.439824  L 342.536243 343.7074  L 347.722761 366.983312  "
           style="fill:none;stroke:#fc4f30;stroke-width:4.0;"
           id="path224" />
      </g>
      <g
         id="line2d_35">
        <path
           clip-path="url(#p43087ecdae)"
           d="M 57.487648 319.766607  L 62.766325 318.7178  L 68.045003 317.668993  L 73.323681 316.620146  L 78.602358 315.569505  L 83.881036 314.498887  L 89.159714 313.332102  L 94.438392 311.893422  L 99.717069 309.91302  L 104.995747 307.082084  L 110.274425 303.122405  L 115.553102 297.838471  L 120.83178 291.140661  L 126.110458 283.043494  L 131.389135 273.648469  L 136.667813 263.12049  L 141.946491 251.664038  L 147.225168 239.502492  L 152.503846 226.861881  L 157.782524 213.959192  L 163.061201 200.994647  L 168.339879 188.147212  L 173.618557 175.57252  L 178.897235 163.402537  L 184.175912 151.74638  L 189.45459 140.691876  L 194.733268 130.307517  L 200.011945 120.644601  L 205.290623 111.739386  L 210.569301 103.615177  L 215.847978 96.284265  L 221.126656 89.749695  L 226.405334 84.006858  L 231.684011 79.044885  L 236.962689 74.847871  L 242.241367 71.395929  L 247.520044 68.666096  L 252.798722 66.6331  L 258.0774 65.270008  L 263.356077 64.54877  L 268.634755 64.440669  L 273.913433 64.916695  L 279.192111 65.947845  L 284.470788 67.505372  L 289.749466 69.56098  L 295.028144 72.086982  L 300.306821 75.056413  L 305.585499 78.443129  L 310.864177 82.221866  L 316.142854 86.368289  L 321.421532 90.85902  L 326.70021 95.671653  L 331.978887 100.784756  L 337.257565 106.177868  L 342.536243 111.831487  L 347.81492 117.727049  L 353.093598 123.846906  L 358.372276 130.174302  L 363.650954 136.693343  L 368.929631 143.388967  L 374.208309 150.246911  L 379.486987 157.253681  L 384.765664 164.396522  L 390.044342 171.663378  L 395.32302 179.042869  L 400.601697 186.524254  L 405.880375 194.097402  L 411.159053 201.752763  L 416.43773 209.48134  L 421.716408 217.274656  L 426.995086 225.124734  L 432.273763 233.024067  L 437.552441 240.965595  L 442.831119 248.942679  L 448.109796 256.949083  L 453.388474 264.978948  L 458.667152 273.026773  L 463.94583 281.087397  L 469.224507 289.155977  L 474.503185 297.227974  L 479.781863 305.299136  L 485.06054 313.36548  L 490.339218 321.423276  L 495.617896 329.469038  L 500.896573 337.499505  L 506.175251 345.511631  L 511.453929 353.502575  L 516.732606 361.469683  L 520.397813 366.983312  "
           style="fill:none;stroke:#5cb85c;stroke-width:4.0;"
           id="path227" />
      </g>
      <g
         id="line2d_36">
        <path
           clip-path="url(#p43087ecdae)"
           d="M 57.487648 319.766607  L 62.766325 318.7178  L 68.045003 317.668975  L 73.323681 316.61908  L 78.602358 315.555111  L 83.881036 314.41614  L 89.159714 313.05107  L 94.438392 311.216593  L 99.717069 308.625268  L 104.995747 305.012364  L 110.274425 300.188651  L 115.553102 294.065604  L 120.83178 286.655589  L 126.110458 278.056097  L 131.389135 268.426995  L 136.667813 257.96716  L 141.946491 246.894015  L 147.225168 235.427411  L 152.503846 223.778005  L 157.782524 212.139608  L 163.061201 200.684755  L 168.339879 189.562697  L 173.618557 178.899127  L 178.897235 168.797058  L 184.175912 159.338426  L 189.45459 150.586095  L 194.733268 142.586017  L 200.011945 135.36942  L 205.290623 128.954896  L 210.569301 123.350353  L 215.847978 118.554784  L 221.126656 114.559846  L 226.405334 111.35125  L 231.684011 108.909971  L 236.962689 107.213291  L 242.241367 106.235684  L 247.520044 105.949571  L 252.798722 106.325948  L 258.0774 107.334917  L 263.356077 108.946117  L 268.634755 111.129079  L 273.913433 113.853519  L 279.192111 117.089567  L 284.470788 120.807949  L 289.749466 124.980131  L 295.028144 129.578425  L 300.306821 134.57607  L 305.585499 139.947287  L 310.864177 145.667315  L 316.142854 151.71243  L 321.421532 158.059955  L 326.70021 164.688252  L 331.978887 171.576714  L 337.257565 178.705742  L 342.536243 186.056728  L 347.81492 193.612018  L 353.093598 201.354889  L 358.372276 209.269514  L 363.650954 217.340926  L 368.929631 225.554985  L 374.208309 233.898343  L 379.486987 242.358407  L 384.765664 250.923305  L 390.044342 259.581856  L 395.32302 268.323528  L 400.601697 277.138413  L 405.880375 286.017193  L 411.159053 294.951109  L 416.43773 303.931932  L 421.716408 312.951935  L 426.995086 322.003867  L 432.273763 331.080927  L 437.552441 340.176739  L 442.831119 349.285327  L 448.109796 358.401097  L 453.078448 366.983312  "
           style="fill:none;stroke:#30a2da;stroke-width:4.0;"
           id="path230" />
      </g>
      <g
         id="line2d_37">
        <path
           clip-path="url(#p43087ecdae)"
           d="M 57.487648 319.766607  L 62.766325 318.717793  L 68.045003 317.668344  L 73.323681 316.608918  L 78.602358 315.490208  L 83.881036 314.180191  L 89.159714 312.455463  L 94.438392 310.04347  L 99.717069 306.687943  L 104.995747 302.203384  L 110.274425 296.502669  L 115.553102 289.598984  L 120.83178 281.590868  L 126.110458 272.639594  L 131.389135 262.945546  L 136.667813 252.727411  L 141.946491 242.205747  L 147.225168 231.591149  L 152.503846 221.076497  L 157.782524 210.832517  L 163.061201 201.005834  L 168.339879 191.718795  L 173.618557 183.070477  L 178.897235 175.138422  L 184.175912 167.980764  L 189.45459 161.638511  L 194.733268 156.137832  L 200.011945 151.492236  L 205.290623 147.704596  L 210.569301 144.768974  L 215.847978 142.672247  L 221.126656 141.395532  L 226.405334 140.915423  L 231.684011 141.205041  L 236.962689 142.234939  L 242.241367 143.973855  L 247.520044 146.389346  L 252.798722 149.448307  L 258.0774 153.117404  L 263.356077 157.363419  L 268.634755 162.153531  L 273.913433 167.455538  L 279.192111 173.238028  L 284.470788 179.470513  L 289.749466 186.123521  L 295.028144 193.168671  L 300.306821 200.57871  L 305.585499 208.327548  L 310.864177 216.390261  L 316.142854 224.743092  L 321.421532 233.363437  L 326.70021 242.229826  L 331.978887 251.321894  L 337.257565 260.620354  L 342.536243 270.106957  L 347.81492 279.764458  L 353.093598 289.576576  L 358.372276 299.527956  L 363.650954 309.604126  L 368.929631 319.79146  L 374.208309 330.077137  L 379.486987 340.449099  L 384.765664 350.896019  L 390.044342 361.407259  L 392.830198 366.983312  "
           style="fill:none;stroke:#e5ae38;stroke-width:4.0;"
           id="path233" />
      </g>
      <g
         id="line2d_38">
        <path
           clip-path="url(#p43087ecdae)"
           d="M 57.487648 319.766604  L 62.766325 318.717431  L 68.045003 317.66132  L 73.323681 316.558861  L 78.602358 315.295517  L 83.881036 313.666949  L 89.159714 311.415207  L 94.438392 308.292436  L 99.717069 304.116953  L 104.995747 298.803309  L 110.274425 292.366027  L 115.553102 284.905466  L 120.83178 276.585263  L 126.110458 267.608391  L 131.389135 258.195911  L 136.667813 248.570159  L 141.946491 238.942649  L 147.225168 229.50619  L 152.503846 220.430423  L 157.782524 211.859927  L 163.061201 203.914155  L 168.339879 196.688576  L 173.618557 190.256555  L 178.897235 184.671619  L 184.175912 179.969877  L 189.45459 176.17242  L 194.733268 173.2876  L 200.011945 171.313139  L 205.290623 170.238022  L 210.569301 170.044179  L 215.847978 170.707945  L 221.126656 172.20133  L 226.405334 174.493095  L 231.684011 177.549664  L 236.962689 181.335886  L 242.241367 185.815673  L 247.520044 190.952517  L 252.798722 196.709916  L 258.0774 203.051716  L 263.356077 209.942382  L 268.634755 217.347209  L 273.913433 225.232487  L 279.192111 233.565616  L 284.470788 242.315197  L 289.749466 251.451088  L 295.028144 260.944439  L 300.306821 270.767705  L 305.585499 280.89465  L 310.864177 291.30033  L 316.142854 301.961076  L 321.421532 312.854461  L 326.70021 323.959267  L 331.978887 335.255449  L 337.257565 346.724084  L 342.536243 358.347336  L 346.412296 366.983312  "
           style="fill:none;stroke:#8b8b8b;stroke-width:4.0;"
           id="path236" />
      </g>
      <g
         id="line2d_39">
        <path
           clip-path="url(#p43087ecdae)"
           d="M 57.487648 319.766406  L 62.766325 318.712682  L 68.045003 317.623219  L 73.323681 316.399596  L 78.602358 314.856014  L 83.881036 312.749242  L 89.159714 309.840127  L 94.438392 305.951064  L 99.717069 300.998515  L 104.995747 294.998644  L 110.274425 288.054044  L 115.553102 280.33125  L 120.83178 272.036438  L 126.110458 263.39369  L 131.389135 254.62776  L 136.667813 245.951678  L 141.946491 237.558707  L 147.225168 229.617845  L 152.503846 222.271988  L 157.782524 215.637974  L 163.061201 209.807866  L 168.339879 204.850984  L 173.618557 200.816331  L 178.897235 197.735142  L 184.175912 195.62342  L 189.45459 194.484319  L 194.733268 194.310343  L 200.011945 195.085316  L 205.290623 196.786118  L 210.569301 199.384198  L 215.847978 202.846871  L 221.126656 207.13842  L 226.405334 212.221022  L 231.684011 218.055525  L 236.962689 224.602081  L 242.241367 231.82067  L 247.520044 239.671518  L 252.798722 248.115434  L 258.0774 257.114072  L 263.356077 266.630135  L 268.634755 276.627525  L 273.913433 287.071455  L 279.192111 297.928522  L 284.470788 309.166753  L 289.749466 320.755633  L 295.028144 332.666102  L 300.306821 344.870552  L 305.585499 357.342803  L 309.587707 366.983312  "
           style="fill:none;stroke:#fc4f30;stroke-width:4.0;"
           id="path239" />
      </g>
      <g
         id="line2d_40">
        <path
           clip-path="url(#p43087ecdae)"
           d="M 57.487648 319.763271  L 62.766325 318.684089  L 68.045003 317.49408  L 73.323681 316.025426  L 78.602358 314.049733  L 83.881036 311.336874  L 89.159714 307.713584  L 94.438392 303.098445  L 99.717069 297.50949  L 104.995747 291.051876  L 110.274425 283.895472  L 115.553102 276.250175  L 120.83178 268.343663  L 126.110458 260.403678  L 131.389135 252.645299  L 136.667813 245.262728  L 141.946491 238.424732  L 147.225168 232.272859  L 152.503846 226.921591  L 157.782524 222.459779  L 163.061201 218.952833  L 168.339879 216.445305  L 173.618557 214.963594  L 178.897235 214.518609  L 184.175912 215.108276  L 189.45459 216.719826  L 194.733268 219.331851  L 200.011945 222.916101  L 205.290623 227.439044  L 210.569301 232.863205  L 215.847978 239.148288  L 221.126656 246.252128  L 226.405334 254.131469  L 231.684011 262.74261  L 236.962689 272.041922  L 242.241367 281.986272  L 247.520044 292.533346  L 252.798722 303.641906  L 258.0774 315.271986  L 263.356077 327.38503  L 268.634755 339.943994  L 273.913433 352.913406  L 279.192111 366.259406  L 279.471232 366.983312  "
           style="fill:none;stroke:#5cb85c;stroke-width:4.0;"
           id="path242" />
      </g>
      <g
         id="line2d_41">
        <path
           clip-path="url(#p43087ecdae)"
           d="M 57.487648 319.742138  L 62.766325 318.580359  L 68.045003 317.177465  L 73.323681 315.319968  L 78.602358 312.787067  L 83.881036 309.410082  L 89.159714 305.109882  L 94.438392 299.906558  L 99.717069 293.908102  L 104.995747 287.288112  L 110.274425 280.260703  L 115.553102 273.057688  L 120.83178 265.910358  L 126.110458 259.036381  L 131.389135 252.631375  L 136.667813 246.864295  L 141.946491 241.875684  L 147.225168 237.77794  L 152.503846 234.656902  L 157.782524 232.574208  L 163.061201 231.570049  L 168.339879 231.666027  L 173.618557 232.867965  L 178.897235 235.168532  L 184.175912 238.549644  L 189.45459 242.984593  L 194.733268 248.43992  L 200.011945 254.87703  L 205.290623 262.253563  L 210.569301 270.524554  L 215.847978 279.643396  L 221.126656 289.562638  L 226.405334 300.234632  L 231.684011 311.612054  L 236.962689 323.648322  L 242.241367 336.297919  L 247.520044 349.516637  L 252.798722 363.261767  L 254.1792 366.983312  "
           style="fill:none;stroke:#30a2da;stroke-width:4.0;"
           id="path245" />
      </g>
      <g
         id="line2d_42">
        <path
           clip-path="url(#p43087ecdae)"
           d="M 57.487648 319.659656  L 62.766325 318.314172  L 68.045003 316.56289  L 73.323681 314.194602  L 78.602358 311.045435  L 83.881036 307.038679  L 89.159714 302.196619  L 94.438392 296.63032  L 99.717069 290.517468  L 104.995747 284.076864  L 110.274425 277.544999  L 115.553102 271.157275  L 120.83178 265.134487  L 126.110458 259.674171  L 131.389135 254.945899  L 136.667813 251.089568  L 141.946491 248.215777  L 147.225168 246.407569  L 152.503846 245.722963  L 157.782524 246.197883  L 163.061201 247.849187  L 168.339879 250.677625  L 173.618557 254.670591  L 178.897235 259.80464  L 184.175912 266.047707  L 189.45459 273.36105  L 194.733268 281.700925  L 200.011945 291.020001  L 205.290623 301.268549  L 210.569301 312.39543  L 215.847978 324.348902  L 221.126656 337.077279  L 226.405334 350.529454  L 231.684011 364.655312  L 232.517106 366.983312  "
           style="fill:none;stroke:#e5ae38;stroke-width:4.0;"
           id="path248" />
      </g>
      <g
         id="line2d_43">
        <path
           clip-path="url(#p43087ecdae)"
           d="M 57.487648 319.4374  L 62.766325 317.781205  L 68.045003 315.563089  L 73.323681 312.624176  L 78.602358 308.890274  L 83.881036 304.385961  L 89.159714 299.225566  L 94.438392 293.591191  L 99.717069 287.706774  L 104.995747 281.81402  L 110.274425 276.153002  L 115.553102 270.948206  L 120.83178 266.399593  L 126.110458 262.677804  L 131.389135 259.922467  L 136.667813 258.242684  L 141.946491 257.718933  L 147.225168 258.405778  L 152.503846 260.334988  L 157.782524 263.518737  L 163.061201 267.952719  L 168.339879 273.619045  L 173.618557 280.488868  L 178.897235 288.52471  L 184.175912 297.682477  L 189.45459 307.913194  L 194.733268 319.16447  L 200.011945 331.381721  L 205.290623 344.509182  L 210.569301 358.49073  L 213.602464 366.983312  "
           style="fill:none;stroke:#8b8b8b;stroke-width:4.0;"
           id="path251" />
      </g>
      <g
         id="patch_3">
        <path
           d="M 517.240375 319.974687  L 517.240375 13.974687  "
           style="fill:none;stroke:#ffffff;stroke-linecap:square;stroke-linejoin:miter;stroke-width:3.0;"
           id="path254" />
      </g>
      <g
         id="patch_4">
        <path
           d="M 56.440375 319.974687  L 517.240375 319.974687  "
           style="fill:none;stroke:#ffffff;stroke-linecap:square;stroke-linejoin:miter;stroke-width:3.0;"
           id="path257" />
      </g>
      <g
         id="patch_5">
        <path
           d="M 56.440375 13.974687  L 517.240375 13.974687  "
           style="fill:none;stroke:#ffffff;stroke-linecap:square;stroke-linejoin:miter;stroke-width:3.0;"
           id="path260" />
      </g>
      <g
         id="patch_6">
        <path
           d="M 56.440375 319.974687  L 56.440375 13.974687  "
           style="fill:none;stroke:#ffffff;stroke-linecap:square;stroke-linejoin:miter;stroke-width:3.0;"
           id="path263" />
      </g>
    </g>
  </g>
  <defs
     id="defs265">
    <clipPath
       id="p43087ecdae">
      <rect
         height="306.0"
         width="460.8"
         x="56.440375"
         y="13.9746875"
         id="rect268" />
    </clipPath>
  </defs>
  <path
     style="fill:none;stroke:#000000;stroke-width:3.2;stroke-linecap:butt;stroke-linejoin:miter;stroke-miterlimit:100000;stroke-opacity:1;marker-end:url(#Arrow1Mend)"
     d="M 235.0057,14.219113 146.06639,300.55132"
     id="path3235"
     inkscape:connector-curvature="0" />
  <text
     xml:space="preserve"
     style="font-size:20.58029366px;font-style:normal;font-variant:normal;font-weight:normal;font-stretch:normal;line-height:125%;letter-spacing:0px;word-spacing:0px;writing-mode:lr-tb;fill:#d9534f;fill-opacity:1;stroke:none;font-family:Latin Modern Sans;-inkscape-font-specification:Latin Modern Sans"
     x="157.79141"
     y="29.276302"
     id="text4804-3"
     sodipodi:linespacing="125%"><tspan
       sodipodi:role="line"
       id="tspan4806-6"
       x="157.79141"
       y="29.276302">β=0º </tspan></text>
  <text
     xml:space="preserve"
     style="font-size:20.58029366px;font-style:normal;font-variant:normal;font-weight:normal;font-stretch:normal;line-height:125%;letter-spacing:0px;word-spacing:0px;writing-mode:lr-tb;fill:#555555;fill-opacity:1;stroke:none;font-family:Latin Modern Sans;-inkscape-font-specification:Latin Modern Sans"
     x="68.629807"
     y="249.30084"
     id="text4804-3-7"
     sodipodi:linespacing="125%"><tspan
       sodipodi:role="line"
       x="68.629807"
       y="249.30084"
       id="tspan4850">β=24º </tspan></text>
</svg>
