<?xml version="1.0" encoding="utf-8" standalone="no"?>
<!DOCTYPE svg PUBLIC "-//W3C//DTD SVG 1.1//EN"
  "http://www.w3.org/Graphics/SVG/1.1/DTD/svg11.dtd">
<!-- Created with matplotlib (http://matplotlib.org/) -->
<svg height="334pt" version="1.1" viewBox="0 0 548 334" width="548pt" xmlns="http://www.w3.org/2000/svg" xmlns:xlink="http://www.w3.org/1999/xlink">
 <defs>
  <style type="text/css">
*{stroke-linecap:butt;stroke-linejoin:round;}
  </style>
 </defs>
 <g id="figure_1">
  <g id="patch_1">
   <path d="M 0 334.243969 
L 548.712 334.243969 
L 548.712 0 
L 0 0 
z
" style="fill:none;opacity:0;"/>
  </g>
  <g id="axes_1">
   <g id="patch_2">
    <path d="M 58.50975 281.218594 
L 478.74975 281.218594 
L 478.74975 14.038594 
L 58.50975 14.038594 
z
" style="fill:#ffffff;"/>
   </g>
   <g id="matplotlib.axis_1">
    <g id="xtick_1">
     <g id="line2d_1">
      <path clip-path="url(#p703cba7013)" d="M 77.611568 281.218594 
L 77.611568 14.038594 
" style="fill:none;stroke:#cbcbcb;"/>
     </g>
     <g id="line2d_2"/>
     <g id="text_1">
      <!-- 0 -->
      <defs>
       <path d="M 31.78125 66.40625 
Q 24.171875 66.40625 20.328125 58.90625 
Q 16.5 51.421875 16.5 36.375 
Q 16.5 21.390625 20.328125 13.890625 
Q 24.171875 6.390625 31.78125 6.390625 
Q 39.453125 6.390625 43.28125 13.890625 
Q 47.125 21.390625 47.125 36.375 
Q 47.125 51.421875 43.28125 58.90625 
Q 39.453125 66.40625 31.78125 66.40625 
z
M 31.78125 74.21875 
Q 44.046875 74.21875 50.515625 64.515625 
Q 56.984375 54.828125 56.984375 36.375 
Q 56.984375 17.96875 50.515625 8.265625 
Q 44.046875 -1.421875 31.78125 -1.421875 
Q 19.53125 -1.421875 13.0625 8.265625 
Q 6.59375 17.96875 6.59375 36.375 
Q 6.59375 54.828125 13.0625 64.515625 
Q 19.53125 74.21875 31.78125 74.21875 
z
" id="DejaVuSans-30"/>
      </defs>
      <g transform="translate(71.885318 298.395781)scale(0.18 -0.18)">
       <use xlink:href="#DejaVuSans-30"/>
      </g>
     </g>
    </g>
    <g id="xtick_2">
     <g id="line2d_3">
      <path clip-path="url(#p703cba7013)" d="M 194.44226 281.218594 
L 194.44226 14.038594 
" style="fill:none;stroke:#cbcbcb;"/>
     </g>
     <g id="line2d_4"/>
     <g id="text_2">
      <!-- 10 -->
      <defs>
       <path d="M 12.40625 8.296875 
L 28.515625 8.296875 
L 28.515625 63.921875 
L 10.984375 60.40625 
L 10.984375 69.390625 
L 28.421875 72.90625 
L 38.28125 72.90625 
L 38.28125 8.296875 
L 54.390625 8.296875 
L 54.390625 0 
L 12.40625 0 
z
" id="DejaVuSans-31"/>
      </defs>
      <g transform="translate(182.98976 298.395781)scale(0.18 -0.18)">
       <use xlink:href="#DejaVuSans-31"/>
       <use x="63.623047" xlink:href="#DejaVuSans-30"/>
      </g>
     </g>
    </g>
    <g id="xtick_3">
     <g id="line2d_5">
      <path clip-path="url(#p703cba7013)" d="M 311.272953 281.218594 
L 311.272953 14.038594 
" style="fill:none;stroke:#cbcbcb;"/>
     </g>
     <g id="line2d_6"/>
     <g id="text_3">
      <!-- 20 -->
      <defs>
       <path d="M 19.1875 8.296875 
L 53.609375 8.296875 
L 53.609375 0 
L 7.328125 0 
L 7.328125 8.296875 
Q 12.9375 14.109375 22.625 23.890625 
Q 32.328125 33.6875 34.8125 36.53125 
Q 39.546875 41.84375 41.421875 45.53125 
Q 43.3125 49.21875 43.3125 52.78125 
Q 43.3125 58.59375 39.234375 62.25 
Q 35.15625 65.921875 28.609375 65.921875 
Q 23.96875 65.921875 18.8125 64.3125 
Q 13.671875 62.703125 7.8125 59.421875 
L 7.8125 69.390625 
Q 13.765625 71.78125 18.9375 73 
Q 24.125 74.21875 28.421875 74.21875 
Q 39.75 74.21875 46.484375 68.546875 
Q 53.21875 62.890625 53.21875 53.421875 
Q 53.21875 48.921875 51.53125 44.890625 
Q 49.859375 40.875 45.40625 35.40625 
Q 44.1875 33.984375 37.640625 27.21875 
Q 31.109375 20.453125 19.1875 8.296875 
z
" id="DejaVuSans-32"/>
      </defs>
      <g transform="translate(299.820453 298.395781)scale(0.18 -0.18)">
       <use xlink:href="#DejaVuSans-32"/>
       <use x="63.623047" xlink:href="#DejaVuSans-30"/>
      </g>
     </g>
    </g>
    <g id="xtick_4">
     <g id="line2d_7">
      <path clip-path="url(#p703cba7013)" d="M 428.103645 281.218594 
L 428.103645 14.038594 
" style="fill:none;stroke:#cbcbcb;"/>
     </g>
     <g id="line2d_8"/>
     <g id="text_4">
      <!-- 30 -->
      <defs>
       <path d="M 40.578125 39.3125 
Q 47.65625 37.796875 51.625 33 
Q 55.609375 28.21875 55.609375 21.1875 
Q 55.609375 10.40625 48.1875 4.484375 
Q 40.765625 -1.421875 27.09375 -1.421875 
Q 22.515625 -1.421875 17.65625 -0.515625 
Q 12.796875 0.390625 7.625 2.203125 
L 7.625 11.71875 
Q 11.71875 9.328125 16.59375 8.109375 
Q 21.484375 6.890625 26.8125 6.890625 
Q 36.078125 6.890625 40.9375 10.546875 
Q 45.796875 14.203125 45.796875 21.1875 
Q 45.796875 27.640625 41.28125 31.265625 
Q 36.765625 34.90625 28.71875 34.90625 
L 20.21875 34.90625 
L 20.21875 43.015625 
L 29.109375 43.015625 
Q 36.375 43.015625 40.234375 45.921875 
Q 44.09375 48.828125 44.09375 54.296875 
Q 44.09375 59.90625 40.109375 62.90625 
Q 36.140625 65.921875 28.71875 65.921875 
Q 24.65625 65.921875 20.015625 65.03125 
Q 15.375 64.15625 9.8125 62.3125 
L 9.8125 71.09375 
Q 15.4375 72.65625 20.34375 73.4375 
Q 25.25 74.21875 29.59375 74.21875 
Q 40.828125 74.21875 47.359375 69.109375 
Q 53.90625 64.015625 53.90625 55.328125 
Q 53.90625 49.265625 50.4375 45.09375 
Q 46.96875 40.921875 40.578125 39.3125 
z
" id="DejaVuSans-33"/>
      </defs>
      <g transform="translate(416.651145 298.395781)scale(0.18 -0.18)">
       <use xlink:href="#DejaVuSans-33"/>
       <use x="63.623047" xlink:href="#DejaVuSans-30"/>
      </g>
     </g>
    </g>
    <g id="text_5">
     <!-- $\sf V \,(V) $ -->
     <defs>
      <path d="M 28.609375 0 
L 0.78125 72.90625 
L 11.078125 72.90625 
L 34.1875 11.53125 
L 57.328125 72.90625 
L 67.578125 72.90625 
L 39.796875 0 
z
" id="DejaVuSans-56"/>
      <path d="M 31 75.875 
Q 24.46875 64.65625 21.28125 53.65625 
Q 18.109375 42.671875 18.109375 31.390625 
Q 18.109375 20.125 21.3125 9.0625 
Q 24.515625 -2 31 -13.1875 
L 23.1875 -13.1875 
Q 15.875 -1.703125 12.234375 9.375 
Q 8.59375 20.453125 8.59375 31.390625 
Q 8.59375 42.28125 12.203125 53.3125 
Q 15.828125 64.359375 23.1875 75.875 
z
" id="DejaVuSans-28"/>
      <path d="M 8.015625 75.875 
L 15.828125 75.875 
Q 23.140625 64.359375 26.78125 53.3125 
Q 30.421875 42.28125 30.421875 31.390625 
Q 30.421875 20.453125 26.78125 9.375 
Q 23.140625 -1.703125 15.828125 -13.1875 
L 8.015625 -13.1875 
Q 14.5 -2 17.703125 9.0625 
Q 20.90625 20.125 20.90625 31.390625 
Q 20.90625 42.671875 17.703125 53.65625 
Q 14.5 64.65625 8.015625 75.875 
z
" id="DejaVuSans-29"/>
     </defs>
     <g transform="translate(243.57375 322.551844)scale(0.216 -0.216)">
      <use transform="translate(0 0.125)" xlink:href="#DejaVuSans-56"/>
      <use transform="translate(84.643879 0.125)" xlink:href="#DejaVuSans-28"/>
      <use transform="translate(123.657551 0.125)" xlink:href="#DejaVuSans-56"/>
      <use transform="translate(192.065754 0.125)" xlink:href="#DejaVuSans-29"/>
     </g>
    </g>
   </g>
   <g id="matplotlib.axis_2">
    <g id="ytick_1">
     <g id="line2d_9">
      <path clip-path="url(#p703cba7013)" d="M 58.50975 281.218594 
L 478.74975 281.218594 
" style="fill:none;stroke:#cbcbcb;"/>
     </g>
     <g id="line2d_10"/>
     <g id="text_6">
      <!-- 0 -->
      <g transform="translate(43.55725 288.057187)scale(0.18 -0.18)">
       <use xlink:href="#DejaVuSans-30"/>
      </g>
     </g>
    </g>
    <g id="ytick_2">
     <g id="line2d_11">
      <path clip-path="url(#p703cba7013)" d="M 58.50975 227.782594 
L 478.74975 227.782594 
" style="fill:none;stroke:#cbcbcb;"/>
     </g>
     <g id="line2d_12"/>
     <g id="text_7">
      <!-- 2 -->
      <g transform="translate(43.55725 234.621187)scale(0.18 -0.18)">
       <use xlink:href="#DejaVuSans-32"/>
      </g>
     </g>
    </g>
    <g id="ytick_3">
     <g id="line2d_13">
      <path clip-path="url(#p703cba7013)" d="M 58.50975 174.346594 
L 478.74975 174.346594 
" style="fill:none;stroke:#cbcbcb;"/>
     </g>
     <g id="line2d_14"/>
     <g id="text_8">
      <!-- 4 -->
      <defs>
       <path d="M 37.796875 64.3125 
L 12.890625 25.390625 
L 37.796875 25.390625 
z
M 35.203125 72.90625 
L 47.609375 72.90625 
L 47.609375 25.390625 
L 58.015625 25.390625 
L 58.015625 17.1875 
L 47.609375 17.1875 
L 47.609375 0 
L 37.796875 0 
L 37.796875 17.1875 
L 4.890625 17.1875 
L 4.890625 26.703125 
z
" id="DejaVuSans-34"/>
      </defs>
      <g transform="translate(43.55725 181.185187)scale(0.18 -0.18)">
       <use xlink:href="#DejaVuSans-34"/>
      </g>
     </g>
    </g>
    <g id="ytick_4">
     <g id="line2d_15">
      <path clip-path="url(#p703cba7013)" d="M 58.50975 120.910594 
L 478.74975 120.910594 
" style="fill:none;stroke:#cbcbcb;"/>
     </g>
     <g id="line2d_16"/>
     <g id="text_9">
      <!-- 6 -->
      <defs>
       <path d="M 33.015625 40.375 
Q 26.375 40.375 22.484375 35.828125 
Q 18.609375 31.296875 18.609375 23.390625 
Q 18.609375 15.53125 22.484375 10.953125 
Q 26.375 6.390625 33.015625 6.390625 
Q 39.65625 6.390625 43.53125 10.953125 
Q 47.40625 15.53125 47.40625 23.390625 
Q 47.40625 31.296875 43.53125 35.828125 
Q 39.65625 40.375 33.015625 40.375 
z
M 52.59375 71.296875 
L 52.59375 62.3125 
Q 48.875 64.0625 45.09375 64.984375 
Q 41.3125 65.921875 37.59375 65.921875 
Q 27.828125 65.921875 22.671875 59.328125 
Q 17.53125 52.734375 16.796875 39.40625 
Q 19.671875 43.65625 24.015625 45.921875 
Q 28.375 48.1875 33.59375 48.1875 
Q 44.578125 48.1875 50.953125 41.515625 
Q 57.328125 34.859375 57.328125 23.390625 
Q 57.328125 12.15625 50.6875 5.359375 
Q 44.046875 -1.421875 33.015625 -1.421875 
Q 20.359375 -1.421875 13.671875 8.265625 
Q 6.984375 17.96875 6.984375 36.375 
Q 6.984375 53.65625 15.1875 63.9375 
Q 23.390625 74.21875 37.203125 74.21875 
Q 40.921875 74.21875 44.703125 73.484375 
Q 48.484375 72.75 52.59375 71.296875 
z
" id="DejaVuSans-36"/>
      </defs>
      <g transform="translate(43.55725 127.749187)scale(0.18 -0.18)">
       <use xlink:href="#DejaVuSans-36"/>
      </g>
     </g>
    </g>
    <g id="ytick_5">
     <g id="line2d_17">
      <path clip-path="url(#p703cba7013)" d="M 58.50975 67.474594 
L 478.74975 67.474594 
" style="fill:none;stroke:#cbcbcb;"/>
     </g>
     <g id="line2d_18"/>
     <g id="text_10">
      <!-- 8 -->
      <defs>
       <path d="M 31.78125 34.625 
Q 24.75 34.625 20.71875 30.859375 
Q 16.703125 27.09375 16.703125 20.515625 
Q 16.703125 13.921875 20.71875 10.15625 
Q 24.75 6.390625 31.78125 6.390625 
Q 38.8125 6.390625 42.859375 10.171875 
Q 46.921875 13.96875 46.921875 20.515625 
Q 46.921875 27.09375 42.890625 30.859375 
Q 38.875 34.625 31.78125 34.625 
z
M 21.921875 38.8125 
Q 15.578125 40.375 12.03125 44.71875 
Q 8.5 49.078125 8.5 55.328125 
Q 8.5 64.0625 14.71875 69.140625 
Q 20.953125 74.21875 31.78125 74.21875 
Q 42.671875 74.21875 48.875 69.140625 
Q 55.078125 64.0625 55.078125 55.328125 
Q 55.078125 49.078125 51.53125 44.71875 
Q 48 40.375 41.703125 38.8125 
Q 48.828125 37.15625 52.796875 32.3125 
Q 56.78125 27.484375 56.78125 20.515625 
Q 56.78125 9.90625 50.3125 4.234375 
Q 43.84375 -1.421875 31.78125 -1.421875 
Q 19.734375 -1.421875 13.25 4.234375 
Q 6.78125 9.90625 6.78125 20.515625 
Q 6.78125 27.484375 10.78125 32.3125 
Q 14.796875 37.15625 21.921875 38.8125 
z
M 18.3125 54.390625 
Q 18.3125 48.734375 21.84375 45.5625 
Q 25.390625 42.390625 31.78125 42.390625 
Q 38.140625 42.390625 41.71875 45.5625 
Q 45.3125 48.734375 45.3125 54.390625 
Q 45.3125 60.0625 41.71875 63.234375 
Q 38.140625 66.40625 31.78125 66.40625 
Q 25.390625 66.40625 21.84375 63.234375 
Q 18.3125 60.0625 18.3125 54.390625 
z
" id="DejaVuSans-38"/>
      </defs>
      <g transform="translate(43.55725 74.313187)scale(0.18 -0.18)">
       <use xlink:href="#DejaVuSans-38"/>
      </g>
     </g>
    </g>
    <g id="ytick_6">
     <g id="line2d_19">
      <path clip-path="url(#p703cba7013)" d="M 58.50975 14.038594 
L 478.74975 14.038594 
" style="fill:none;stroke:#cbcbcb;"/>
     </g>
     <g id="line2d_20"/>
     <g id="text_11">
      <!-- 10 -->
      <g transform="translate(32.10475 20.877187)scale(0.18 -0.18)">
       <use xlink:href="#DejaVuSans-31"/>
       <use x="63.623047" xlink:href="#DejaVuSans-30"/>
      </g>
     </g>
    </g>
    <g id="text_12">
     <!-- $\sf I \,(A) $ -->
     <defs>
      <path d="M 9.8125 72.90625 
L 19.671875 72.90625 
L 19.671875 0 
L 9.8125 0 
z
" id="DejaVuSans-49"/>
      <path d="M 34.1875 63.1875 
L 20.796875 26.90625 
L 47.609375 26.90625 
z
M 28.609375 72.90625 
L 39.796875 72.90625 
L 67.578125 0 
L 57.328125 0 
L 50.6875 18.703125 
L 17.828125 18.703125 
L 11.1875 0 
L 0.78125 0 
z
" id="DejaVuSans-41"/>
     </defs>
     <g transform="translate(23.612625 168.472594)rotate(-90)scale(0.216 -0.216)">
      <use transform="translate(0 0.125)" xlink:href="#DejaVuSans-49"/>
      <use transform="translate(45.727864 0.125)" xlink:href="#DejaVuSans-28"/>
      <use transform="translate(84.741536 0.125)" xlink:href="#DejaVuSans-41"/>
      <use transform="translate(153.149739 0.125)" xlink:href="#DejaVuSans-29"/>
     </g>
    </g>
   </g>
   <g id="line2d_21">
    <path clip-path="url(#p703cba7013)" d="M 77.611568 105.828083 
L 284.882548 107.078295 
L 308.974932 107.444522 
L 323.889264 107.878332 
L 334.979409 108.417444 
L 343.775041 109.067698 
L 351.040998 109.829105 
L 357.159698 110.689984 
L 362.513561 111.660997 
L 367.485005 112.794185 
L 371.691612 113.967832 
L 375.898218 115.379288 
L 379.722406 116.906765 
L 383.164175 118.513581 
L 386.605944 120.373429 
L 389.665295 122.267281 
L 392.724645 124.415753 
L 395.783995 126.847841 
L 398.843345 129.594101 
L 401.520277 132.280508 
L 404.197208 135.254867 
L 406.87414 138.540151 
L 409.551071 142.160259 
L 412.228003 146.137618 
L 414.904934 150.494849 
L 417.581866 155.254749 
L 420.258797 160.438839 
L 422.935729 166.065988 
L 425.995079 173.061329 
L 429.054429 180.684198 
L 432.113779 188.950096 
L 435.17313 197.877811 
L 438.23248 207.476494 
L 441.29183 217.752442 
L 444.733599 230.124129 
L 448.175368 243.342076 
L 451.999556 258.928666 
L 456.588582 277.722989 
L 457.735838 281.740327 
L 458.500675 283.967368 
L 459.265513 285.636315 
L 459.647932 286.191468 
L 459.647932 286.191468 
" style="fill:none;stroke:#fc4f30;stroke-dasharray:14.8,6.4;stroke-dashoffset:0;stroke-width:4;"/>
   </g>
   <g id="line2d_22">
    <path clip-path="url(#p703cba7013)" d="M 77.611568 104.119096 
L 235.490882 105.099247 
L 261.453258 105.47739 
L 277.592032 105.920768 
L 289.520692 106.464325 
L 298.99345 107.117166 
L 306.711995 107.866827 
L 313.37801 108.7336 
L 319.34234 109.737305 
L 324.604984 110.851129 
L 329.165942 112.030261 
L 333.376057 113.330543 
L 337.586172 114.871223 
L 341.445444 116.529956 
L 344.953873 118.273568 
L 348.462302 120.272858 
L 351.619888 122.317679 
L 354.777475 124.622008 
L 357.935061 127.21354 
L 361.092647 130.121212 
L 363.899391 132.996289 
L 366.706134 136.1677 
L 369.512877 139.658435 
L 372.319621 143.490905 
L 375.126364 147.68811 
L 377.933107 152.271819 
L 380.739851 157.26447 
L 383.546594 162.687187 
L 386.353337 168.55846 
L 389.510924 175.720737 
L 392.66851 183.497295 
L 395.826096 191.903335 
L 398.983683 200.956944 
L 402.141269 210.668715 
L 405.649698 222.23819 
L 409.158127 234.630021 
L 412.666556 247.84033 
L 416.525829 263.270954 
L 423.542687 291.870615 
L 424.595216 295.355559 
L 425.647744 298.065875 
L 426.34943 299.226896 
L 426.700273 299.551163 
L 427.051116 299.67159 
L 427.401959 299.560659 
L 427.752802 299.188854 
L 428.103645 298.525011 
L 428.103645 298.525011 
" style="fill:none;stroke:#5cb85c;stroke-dasharray:14.8,6.4;stroke-dashoffset:0;stroke-width:4;"/>
   </g>
   <g id="line2d_23">
    <path clip-path="url(#p703cba7013)" d="M 77.611568 102.410693 
L 187.179812 103.13055 
L 214.650813 103.523978 
L 231.701778 103.976682 
L 244.332124 104.525817 
L 254.4364 105.185143 
L 262.646124 105.936358 
L 269.592814 106.781327 
L 275.907986 107.768894 
L 281.591642 108.884897 
L 286.64378 110.100571 
L 291.380159 111.47145 
L 295.80078 112.990479 
L 299.905642 114.643114 
L 303.694746 116.407 
L 307.168091 118.252361 
L 310.641435 120.343058 
L 314.11478 122.707673 
L 317.272367 125.120737 
L 320.429953 127.809874 
L 323.587539 130.800285 
L 326.745125 134.11915 
L 329.902712 137.793612 
L 332.744539 141.42816 
L 335.586367 145.393627 
L 338.428195 149.710626 
L 341.270022 154.398368 
L 344.427609 160.066291 
L 347.585195 166.24254 
L 350.742781 172.948736 
L 353.900367 180.207182 
L 357.057954 188.037927 
L 360.21554 196.45344 
L 363.373126 205.470064 
L 366.846471 216.093221 
L 370.319816 227.461421 
L 373.793161 239.578035 
L 377.582264 253.647824 
L 381.371368 268.579135 
L 386.423506 289.52226 
L 389.581092 302.274586 
L 391.159885 307.739817 
L 392.107161 310.343131 
L 392.738679 311.646318 
L 393.054437 312.132652 
L 393.054437 312.132652 
" style="fill:none;stroke:#30a2da;stroke-dasharray:14.8,6.4;stroke-dashoffset:0;stroke-width:4;"/>
   </g>
   <g id="patch_3">
    <path d="M 58.50975 281.218594 
L 58.50975 14.038594 
" style="fill:none;stroke:#ffffff;stroke-linecap:square;stroke-linejoin:miter;stroke-width:3;"/>
   </g>
   <g id="patch_4">
    <path d="M 478.74975 281.218594 
L 478.74975 14.038594 
" style="fill:none;stroke:#ffffff;stroke-linecap:square;stroke-linejoin:miter;stroke-width:3;"/>
   </g>
   <g id="patch_5">
    <path d="M 58.50975 281.218594 
L 478.74975 281.218594 
" style="fill:none;stroke:#ffffff;stroke-linecap:square;stroke-linejoin:miter;stroke-width:3;"/>
   </g>
   <g id="patch_6">
    <path d="M 58.50975 14.038594 
L 478.74975 14.038594 
" style="fill:none;stroke:#ffffff;stroke-linecap:square;stroke-linejoin:miter;stroke-width:3;"/>
   </g>
  </g>
  <g id="axes_2">
   <g id="matplotlib.axis_3">
    <g id="ytick_7">
     <g id="line2d_24">
      <path clip-path="url(#p703cba7013)" d="M 58.50975 281.218594 
L 478.74975 281.218594 
" style="fill:none;stroke:#cbcbcb;"/>
     </g>
     <g id="line2d_25"/>
     <g id="text_13">
      <!-- 0 -->
      <g transform="translate(482.24975 288.057187)scale(0.18 -0.18)">
       <use xlink:href="#DejaVuSans-30"/>
      </g>
     </g>
    </g>
    <g id="ytick_8">
     <g id="line2d_26">
      <path clip-path="url(#p703cba7013)" d="M 58.50975 217.604308 
L 478.74975 217.604308 
" style="fill:none;stroke:#cbcbcb;"/>
     </g>
     <g id="line2d_27"/>
     <g id="text_14">
      <!-- 50 -->
      <defs>
       <path d="M 10.796875 72.90625 
L 49.515625 72.90625 
L 49.515625 64.59375 
L 19.828125 64.59375 
L 19.828125 46.734375 
Q 21.96875 47.46875 24.109375 47.828125 
Q 26.265625 48.1875 28.421875 48.1875 
Q 40.625 48.1875 47.75 41.5 
Q 54.890625 34.8125 54.890625 23.390625 
Q 54.890625 11.625 47.5625 5.09375 
Q 40.234375 -1.421875 26.90625 -1.421875 
Q 22.3125 -1.421875 17.546875 -0.640625 
Q 12.796875 0.140625 7.71875 1.703125 
L 7.71875 11.625 
Q 12.109375 9.234375 16.796875 8.0625 
Q 21.484375 6.890625 26.703125 6.890625 
Q 35.15625 6.890625 40.078125 11.328125 
Q 45.015625 15.765625 45.015625 23.390625 
Q 45.015625 31 40.078125 35.4375 
Q 35.15625 39.890625 26.703125 39.890625 
Q 22.75 39.890625 18.8125 39.015625 
Q 14.890625 38.140625 10.796875 36.28125 
z
" id="DejaVuSans-35"/>
      </defs>
      <g transform="translate(482.24975 224.442902)scale(0.18 -0.18)">
       <use xlink:href="#DejaVuSans-35"/>
       <use x="63.623047" xlink:href="#DejaVuSans-30"/>
      </g>
     </g>
    </g>
    <g id="ytick_9">
     <g id="line2d_28">
      <path clip-path="url(#p703cba7013)" d="M 58.50975 153.990022 
L 478.74975 153.990022 
" style="fill:none;stroke:#cbcbcb;"/>
     </g>
     <g id="line2d_29"/>
     <g id="text_15">
      <!-- 100 -->
      <g transform="translate(482.24975 160.828616)scale(0.18 -0.18)">
       <use xlink:href="#DejaVuSans-31"/>
       <use x="63.623047" xlink:href="#DejaVuSans-30"/>
       <use x="127.246094" xlink:href="#DejaVuSans-30"/>
      </g>
     </g>
    </g>
    <g id="ytick_10">
     <g id="line2d_30">
      <path clip-path="url(#p703cba7013)" d="M 58.50975 90.375737 
L 478.74975 90.375737 
" style="fill:none;stroke:#cbcbcb;"/>
     </g>
     <g id="line2d_31"/>
     <g id="text_16">
      <!-- 150 -->
      <g transform="translate(482.24975 97.21433)scale(0.18 -0.18)">
       <use xlink:href="#DejaVuSans-31"/>
       <use x="63.623047" xlink:href="#DejaVuSans-35"/>
       <use x="127.246094" xlink:href="#DejaVuSans-30"/>
      </g>
     </g>
    </g>
    <g id="ytick_11">
     <g id="line2d_32">
      <path clip-path="url(#p703cba7013)" d="M 58.50975 26.761451 
L 478.74975 26.761451 
" style="fill:none;stroke:#cbcbcb;"/>
     </g>
     <g id="line2d_33"/>
     <g id="text_17">
      <!-- 200 -->
      <g transform="translate(482.24975 33.600045)scale(0.18 -0.18)">
       <use xlink:href="#DejaVuSans-32"/>
       <use x="63.623047" xlink:href="#DejaVuSans-30"/>
       <use x="127.246094" xlink:href="#DejaVuSans-30"/>
      </g>
     </g>
    </g>
    <g id="text_18">
     <!-- $\sf P \, (W)$ -->
     <defs>
      <path d="M 19.671875 64.796875 
L 19.671875 37.40625 
L 32.078125 37.40625 
Q 38.96875 37.40625 42.71875 40.96875 
Q 46.484375 44.53125 46.484375 51.125 
Q 46.484375 57.671875 42.71875 61.234375 
Q 38.96875 64.796875 32.078125 64.796875 
z
M 9.8125 72.90625 
L 32.078125 72.90625 
Q 44.34375 72.90625 50.609375 67.359375 
Q 56.890625 61.8125 56.890625 51.125 
Q 56.890625 40.328125 50.609375 34.8125 
Q 44.34375 29.296875 32.078125 29.296875 
L 19.671875 29.296875 
L 19.671875 0 
L 9.8125 0 
z
" id="DejaVuSans-50"/>
      <path d="M 3.328125 72.90625 
L 13.28125 72.90625 
L 28.609375 11.28125 
L 43.890625 72.90625 
L 54.984375 72.90625 
L 70.3125 11.28125 
L 85.59375 72.90625 
L 95.609375 72.90625 
L 77.296875 0 
L 64.890625 0 
L 49.515625 63.28125 
L 33.984375 0 
L 21.578125 0 
z
" id="DejaVuSans-57"/>
     </defs>
     <g transform="translate(537.019875 175.060594)rotate(-90)scale(0.216 -0.216)">
      <use transform="translate(0 0.125)" xlink:href="#DejaVuSans-50"/>
      <use transform="translate(76.538411 0.125)" xlink:href="#DejaVuSans-28"/>
      <use transform="translate(115.552083 0.125)" xlink:href="#DejaVuSans-57"/>
      <use transform="translate(214.429036 0.125)" xlink:href="#DejaVuSans-29"/>
     </g>
    </g>
   </g>
   <g id="line2d_34">
    <path clip-path="url(#p703cba7013)" d="M 77.611568 281.218594 
L 155.70317 225.529734 
L 232.263563 171.203917 
L 285.090235 133.956513 
L 309.589561 116.924581 
L 324.136035 107.054186 
L 334.85449 100.029164 
L 343.276134 94.762149 
L 350.166569 90.704014 
L 356.291401 87.364525 
L 361.650628 84.71942 
L 366.244252 82.716935 
L 370.072271 81.279364 
L 373.900291 80.09512 
L 376.962707 79.361941 
L 380.025123 78.849239 
L 383.087538 78.588361 
L 385.38435 78.579043 
L 387.681162 78.74704 
L 389.977974 79.109861 
L 392.274786 79.686156 
L 394.571597 80.495832 
L 396.868409 81.560032 
L 399.165221 82.900686 
L 401.462033 84.541789 
L 403.758845 86.507564 
L 406.055656 88.823357 
L 408.352468 91.515931 
L 410.64928 94.61118 
L 412.946092 98.136627 
L 415.242904 102.118653 
L 417.539715 106.585624 
L 419.836527 111.564876 
L 422.133339 117.081609 
L 424.430151 123.16048 
L 426.726963 129.827335 
L 429.023774 137.107048 
L 431.320586 145.016185 
L 433.617398 153.580493 
L 435.91421 162.812086 
L 438.976626 176.193843 
L 442.039041 190.830747 
L 445.101457 206.742804 
L 448.163873 223.943622 
L 451.226289 242.3806 
L 457.35112 280.05419 
L 458.116724 283.837103 
L 458.882328 286.913127 
L 459.647932 288.962069 
L 459.647932 288.962069 
" style="fill:none;stroke:#fc4f30;stroke-width:4;"/>
   </g>
   <g id="line2d_35">
    <path clip-path="url(#p703cba7013)" d="M 77.611568 281.218594 
L 155.57674 225.077561 
L 223.006077 176.779322 
L 257.423135 152.361578 
L 276.387636 139.159288 
L 289.030637 130.604978 
L 298.864082 124.203668 
L 306.59036 119.417417 
L 312.91186 115.729181 
L 318.530972 112.68151 
L 323.447694 110.243272 
L 327.662028 108.363857 
L 331.876361 106.719866 
L 335.388306 105.562831 
L 338.900251 104.632146 
L 342.412195 103.962863 
L 345.221751 103.642053 
L 348.031307 103.536441 
L 350.840862 103.670123 
L 353.650418 104.069798 
L 355.757585 104.561264 
L 357.864752 105.231274 
L 359.971919 106.093002 
L 362.079085 107.161004 
L 364.186252 108.449754 
L 366.293419 109.974454 
L 368.400586 111.750778 
L 370.507753 113.795414 
L 372.614919 116.124011 
L 374.722086 118.753669 
L 376.829253 121.700701 
L 378.93642 124.982887 
L 381.043587 128.616781 
L 383.150753 132.62009 
L 385.25792 137.008163 
L 387.365087 141.796713 
L 390.174643 148.833243 
L 392.984198 156.648529 
L 395.793754 165.271582 
L 398.60331 174.738932 
L 401.412866 185.073815 
L 404.222421 196.301954 
L 407.031977 208.448251 
L 409.841533 221.529568 
L 412.651088 235.555681 
L 416.163033 254.400747 
L 420.377367 278.567026 
L 423.186922 294.397648 
L 424.5917 301.196966 
L 425.294089 303.959871 
L 425.996478 306.071142 
L 426.698867 307.301715 
L 427.401256 307.369708 
L 428.103645 305.942047 
L 428.103645 305.942047 
" style="fill:none;stroke:#5cb85c;stroke-width:4;"/>
   </g>
   <g id="line2d_36">
    <path clip-path="url(#p703cba7013)" d="M 77.611568 281.218594 
L 153.469573 226.070957 
L 202.777276 190.461715 
L 227.431127 172.901731 
L 243.234878 161.900408 
L 254.613579 154.230538 
L 263.463679 148.506556 
L 271.04948 143.849703 
L 277.37098 140.211357 
L 283.060331 137.184368 
L 288.117531 134.742794 
L 292.542581 132.842572 
L 296.335481 131.423146 
L 300.128382 130.229851 
L 303.921282 129.298295 
L 307.082032 128.750982 
L 310.242782 128.439102 
L 313.403532 128.391103 
L 315.932133 128.563362 
L 318.460733 128.941202 
L 320.989333 129.54264 
L 323.517933 130.38626 
L 326.046533 131.492632 
L 328.575133 132.882345 
L 331.103733 134.577038 
L 333.632334 136.599706 
L 336.160934 138.972495 
L 338.689534 141.71924 
L 341.218134 144.862887 
L 343.746734 148.428359 
L 346.275334 152.439806 
L 348.803935 156.91991 
L 351.332535 161.891313 
L 353.861135 167.377711 
L 356.389735 173.402019 
L 358.918335 179.981911 
L 361.446935 187.140712 
L 363.975535 194.893717 
L 366.504136 203.261843 
L 369.664886 214.607004 
L 372.825636 226.963092 
L 375.986386 240.351112 
L 379.147136 254.787899 
L 382.307887 270.256942 
L 386.100787 289.961667 
L 389.893687 309.497307 
L 391.157987 315.104838 
L 392.422287 319.48892 
L 393.054437 320.965241 
L 393.054437 320.965241 
" style="fill:none;stroke:#30a2da;stroke-width:4;"/>
   </g>
   <g id="patch_7">
    <path d="M 58.50975 281.218594 
L 58.50975 14.038594 
" style="fill:none;stroke:#ffffff;stroke-linecap:square;stroke-linejoin:miter;stroke-width:3;"/>
   </g>
   <g id="patch_8">
    <path d="M 478.74975 281.218594 
L 478.74975 14.038594 
" style="fill:none;stroke:#ffffff;stroke-linecap:square;stroke-linejoin:miter;stroke-width:3;"/>
   </g>
   <g id="patch_9">
    <path d="M 58.50975 281.218594 
L 478.74975 281.218594 
" style="fill:none;stroke:#ffffff;stroke-linecap:square;stroke-linejoin:miter;stroke-width:3;"/>
   </g>
   <g id="patch_10">
    <path d="M 58.50975 14.038594 
L 478.74975 14.038594 
" style="fill:none;stroke:#ffffff;stroke-linecap:square;stroke-linejoin:miter;stroke-width:3;"/>
   </g>
   <g id="legend_1">
    <g id="patch_11">
     <path d="M 216.33975 272.218594 
L 320.91975 272.218594 
Q 324.51975 272.218594 324.51975 268.618594 
L 324.51975 191.156719 
Q 324.51975 187.556719 320.91975 187.556719 
L 216.33975 187.556719 
Q 212.73975 187.556719 212.73975 191.156719 
L 212.73975 268.618594 
Q 212.73975 272.218594 216.33975 272.218594 
z
" style="fill:#ffffff;opacity:0.8;stroke:#cccccc;stroke-linejoin:miter;stroke-width:0.5;"/>
    </g>
    <g id="line2d_37">
     <path d="M 219.93975 202.133906 
L 255.93975 202.133906 
" style="fill:none;stroke:#fc4f30;stroke-width:4;"/>
    </g>
    <g id="line2d_38"/>
    <g id="text_19">
     <!-- $\sf 25\, ºC$ -->
     <defs>
      <path d="M 6.78125 28.90625 
L 40.375 28.90625 
L 40.375 22.90625 
L 6.78125 22.90625 
z
M 23.578125 74.21875 
Q 32.328125 74.21875 37.359375 68.8125 
Q 42.390625 63.421875 42.390625 54.109375 
Q 42.390625 44.78125 37.359375 39.421875 
Q 32.328125 34.078125 23.578125 34.078125 
Q 14.84375 34.078125 9.765625 39.453125 
Q 4.6875 44.828125 4.6875 54.109375 
Q 4.6875 63.421875 9.765625 68.8125 
Q 14.84375 74.21875 23.578125 74.21875 
z
M 23.578125 68.609375 
Q 18.453125 68.609375 15.375 64.671875 
Q 12.3125 60.75 12.3125 54.109375 
Q 12.3125 47.609375 15.40625 43.703125 
Q 18.5 39.796875 23.578125 39.796875 
Q 28.71875 39.796875 31.765625 43.703125 
Q 34.8125 47.609375 34.8125 54.109375 
Q 34.8125 60.796875 31.78125 64.703125 
Q 28.765625 68.609375 23.578125 68.609375 
z
" id="DejaVuSans-ba"/>
      <path d="M 64.40625 67.28125 
L 64.40625 56.890625 
Q 59.421875 61.53125 53.78125 63.8125 
Q 48.140625 66.109375 41.796875 66.109375 
Q 29.296875 66.109375 22.65625 58.46875 
Q 16.015625 50.828125 16.015625 36.375 
Q 16.015625 21.96875 22.65625 14.328125 
Q 29.296875 6.6875 41.796875 6.6875 
Q 48.140625 6.6875 53.78125 8.984375 
Q 59.421875 11.28125 64.40625 15.921875 
L 64.40625 5.609375 
Q 59.234375 2.09375 53.4375 0.328125 
Q 47.65625 -1.421875 41.21875 -1.421875 
Q 24.65625 -1.421875 15.125 8.703125 
Q 5.609375 18.84375 5.609375 36.375 
Q 5.609375 53.953125 15.125 64.078125 
Q 24.65625 74.21875 41.21875 74.21875 
Q 47.75 74.21875 53.53125 72.484375 
Q 59.328125 70.75 64.40625 67.28125 
z
" id="DejaVuSans-43"/>
     </defs>
     <g transform="translate(270.33975 208.433906)scale(0.18 -0.18)">
      <use transform="translate(0 0.78125)" xlink:href="#DejaVuSans-32"/>
      <use transform="translate(63.623047 0.78125)" xlink:href="#DejaVuSans-35"/>
      <use transform="translate(143.48177 0.78125)" xlink:href="#DejaVuSans-ba"/>
      <use transform="translate(190.600911 0.78125)" xlink:href="#DejaVuSans-43"/>
     </g>
    </g>
    <g id="line2d_39">
     <path d="M 219.93975 228.554531 
L 255.93975 228.554531 
" style="fill:none;stroke:#5cb85c;stroke-width:4;"/>
    </g>
    <g id="line2d_40"/>
    <g id="text_20">
     <!-- $\sf 50\, ºC$ -->
     <g transform="translate(270.33975 234.854531)scale(0.18 -0.18)">
      <use transform="translate(0 0.78125)" xlink:href="#DejaVuSans-35"/>
      <use transform="translate(63.623047 0.78125)" xlink:href="#DejaVuSans-30"/>
      <use transform="translate(143.48177 0.78125)" xlink:href="#DejaVuSans-ba"/>
      <use transform="translate(190.600911 0.78125)" xlink:href="#DejaVuSans-43"/>
     </g>
    </g>
    <g id="line2d_41">
     <path d="M 219.93975 254.975156 
L 255.93975 254.975156 
" style="fill:none;stroke:#30a2da;stroke-width:4;"/>
    </g>
    <g id="line2d_42"/>
    <g id="text_21">
     <!-- $\sf 75\, ºC$ -->
     <defs>
      <path d="M 8.203125 72.90625 
L 55.078125 72.90625 
L 55.078125 68.703125 
L 28.609375 0 
L 18.3125 0 
L 43.21875 64.59375 
L 8.203125 64.59375 
z
" id="DejaVuSans-37"/>
     </defs>
     <g transform="translate(270.33975 261.275156)scale(0.18 -0.18)">
      <use transform="translate(0 0.78125)" xlink:href="#DejaVuSans-37"/>
      <use transform="translate(63.623047 0.78125)" xlink:href="#DejaVuSans-35"/>
      <use transform="translate(143.48177 0.78125)" xlink:href="#DejaVuSans-ba"/>
      <use transform="translate(190.600911 0.78125)" xlink:href="#DejaVuSans-43"/>
     </g>
    </g>
   </g>
  </g>
 </g>
 <defs>
  <clipPath id="p703cba7013">
   <rect height="267.18" width="420.24" x="58.50975" y="14.038594"/>
  </clipPath>
 </defs>
</svg>
