<?xml version="1.0" encoding="utf-8" standalone="no"?>
<!DOCTYPE svg PUBLIC "-//W3C//DTD SVG 1.1//EN"
  "http://www.w3.org/Graphics/SVG/1.1/DTD/svg11.dtd">
<!-- Created with matplotlib (http://matplotlib.org/) -->
<svg height="373pt" version="1.1" viewBox="0 0 526 373" width="526pt" xmlns="http://www.w3.org/2000/svg" xmlns:xlink="http://www.w3.org/1999/xlink">
 <defs>
  <style type="text/css">
*{stroke-linecap:butt;stroke-linejoin:round;}
  </style>
 </defs>
 <g id="figure_1">
  <g id="patch_1">
   <path d="M 0 373.063969 
L 526.50975 373.063969 
L 526.50975 0 
L 0 0 
z
" style="fill:none;opacity:0;"/>
  </g>
  <g id="axes_1">
   <g id="patch_2">
    <path d="M 58.50975 320.038594 
L 519.30975 320.038594 
L 519.30975 14.038594 
L 58.50975 14.038594 
z
" style="fill:#ffffff;"/>
   </g>
   <g id="matplotlib.axis_1">
    <g id="xtick_1">
     <g id="line2d_1">
      <path clip-path="url(#p79a44b0723)" d="M 79.455205 320.038594 
L 79.455205 14.038594 
" style="fill:none;stroke:#cbcbcb;"/>
     </g>
     <g id="line2d_2"/>
     <g id="text_1">
      <!-- 0 -->
      <defs>
       <path d="M 31.78125 66.40625 
Q 24.171875 66.40625 20.328125 58.90625 
Q 16.5 51.421875 16.5 36.375 
Q 16.5 21.390625 20.328125 13.890625 
Q 24.171875 6.390625 31.78125 6.390625 
Q 39.453125 6.390625 43.28125 13.890625 
Q 47.125 21.390625 47.125 36.375 
Q 47.125 51.421875 43.28125 58.90625 
Q 39.453125 66.40625 31.78125 66.40625 
z
M 31.78125 74.21875 
Q 44.046875 74.21875 50.515625 64.515625 
Q 56.984375 54.828125 56.984375 36.375 
Q 56.984375 17.96875 50.515625 8.265625 
Q 44.046875 -1.421875 31.78125 -1.421875 
Q 19.53125 -1.421875 13.0625 8.265625 
Q 6.59375 17.96875 6.59375 36.375 
Q 6.59375 54.828125 13.0625 64.515625 
Q 19.53125 74.21875 31.78125 74.21875 
z
" id="DejaVuSans-30"/>
      </defs>
      <g transform="translate(73.728955 337.215781)scale(0.18 -0.18)">
       <use xlink:href="#DejaVuSans-30"/>
      </g>
     </g>
    </g>
    <g id="xtick_2">
     <g id="line2d_3">
      <path clip-path="url(#p79a44b0723)" d="M 144.90975 320.038594 
L 144.90975 14.038594 
" style="fill:none;stroke:#cbcbcb;"/>
     </g>
     <g id="line2d_4"/>
     <g id="text_2">
      <!-- 5 -->
      <defs>
       <path d="M 10.796875 72.90625 
L 49.515625 72.90625 
L 49.515625 64.59375 
L 19.828125 64.59375 
L 19.828125 46.734375 
Q 21.96875 47.46875 24.109375 47.828125 
Q 26.265625 48.1875 28.421875 48.1875 
Q 40.625 48.1875 47.75 41.5 
Q 54.890625 34.8125 54.890625 23.390625 
Q 54.890625 11.625 47.5625 5.09375 
Q 40.234375 -1.421875 26.90625 -1.421875 
Q 22.3125 -1.421875 17.546875 -0.640625 
Q 12.796875 0.140625 7.71875 1.703125 
L 7.71875 11.625 
Q 12.109375 9.234375 16.796875 8.0625 
Q 21.484375 6.890625 26.703125 6.890625 
Q 35.15625 6.890625 40.078125 11.328125 
Q 45.015625 15.765625 45.015625 23.390625 
Q 45.015625 31 40.078125 35.4375 
Q 35.15625 39.890625 26.703125 39.890625 
Q 22.75 39.890625 18.8125 39.015625 
Q 14.890625 38.140625 10.796875 36.28125 
z
" id="DejaVuSans-35"/>
      </defs>
      <g transform="translate(139.1835 337.215781)scale(0.18 -0.18)">
       <use xlink:href="#DejaVuSans-35"/>
      </g>
     </g>
    </g>
    <g id="xtick_3">
     <g id="line2d_5">
      <path clip-path="url(#p79a44b0723)" d="M 210.364295 320.038594 
L 210.364295 14.038594 
" style="fill:none;stroke:#cbcbcb;"/>
     </g>
     <g id="line2d_6"/>
     <g id="text_3">
      <!-- 10 -->
      <defs>
       <path d="M 12.40625 8.296875 
L 28.515625 8.296875 
L 28.515625 63.921875 
L 10.984375 60.40625 
L 10.984375 69.390625 
L 28.421875 72.90625 
L 38.28125 72.90625 
L 38.28125 8.296875 
L 54.390625 8.296875 
L 54.390625 0 
L 12.40625 0 
z
" id="DejaVuSans-31"/>
      </defs>
      <g transform="translate(198.911795 337.215781)scale(0.18 -0.18)">
       <use xlink:href="#DejaVuSans-31"/>
       <use x="63.623047" xlink:href="#DejaVuSans-30"/>
      </g>
     </g>
    </g>
    <g id="xtick_4">
     <g id="line2d_7">
      <path clip-path="url(#p79a44b0723)" d="M 275.818841 320.038594 
L 275.818841 14.038594 
" style="fill:none;stroke:#cbcbcb;"/>
     </g>
     <g id="line2d_8"/>
     <g id="text_4">
      <!-- 15 -->
      <g transform="translate(264.366341 337.215781)scale(0.18 -0.18)">
       <use xlink:href="#DejaVuSans-31"/>
       <use x="63.623047" xlink:href="#DejaVuSans-35"/>
      </g>
     </g>
    </g>
    <g id="xtick_5">
     <g id="line2d_9">
      <path clip-path="url(#p79a44b0723)" d="M 341.273386 320.038594 
L 341.273386 14.038594 
" style="fill:none;stroke:#cbcbcb;"/>
     </g>
     <g id="line2d_10"/>
     <g id="text_5">
      <!-- 20 -->
      <defs>
       <path d="M 19.1875 8.296875 
L 53.609375 8.296875 
L 53.609375 0 
L 7.328125 0 
L 7.328125 8.296875 
Q 12.9375 14.109375 22.625 23.890625 
Q 32.328125 33.6875 34.8125 36.53125 
Q 39.546875 41.84375 41.421875 45.53125 
Q 43.3125 49.21875 43.3125 52.78125 
Q 43.3125 58.59375 39.234375 62.25 
Q 35.15625 65.921875 28.609375 65.921875 
Q 23.96875 65.921875 18.8125 64.3125 
Q 13.671875 62.703125 7.8125 59.421875 
L 7.8125 69.390625 
Q 13.765625 71.78125 18.9375 73 
Q 24.125 74.21875 28.421875 74.21875 
Q 39.75 74.21875 46.484375 68.546875 
Q 53.21875 62.890625 53.21875 53.421875 
Q 53.21875 48.921875 51.53125 44.890625 
Q 49.859375 40.875 45.40625 35.40625 
Q 44.1875 33.984375 37.640625 27.21875 
Q 31.109375 20.453125 19.1875 8.296875 
z
" id="DejaVuSans-32"/>
      </defs>
      <g transform="translate(329.820886 337.215781)scale(0.18 -0.18)">
       <use xlink:href="#DejaVuSans-32"/>
       <use x="63.623047" xlink:href="#DejaVuSans-30"/>
      </g>
     </g>
    </g>
    <g id="xtick_6">
     <g id="line2d_11">
      <path clip-path="url(#p79a44b0723)" d="M 406.727932 320.038594 
L 406.727932 14.038594 
" style="fill:none;stroke:#cbcbcb;"/>
     </g>
     <g id="line2d_12"/>
     <g id="text_6">
      <!-- 25 -->
      <g transform="translate(395.275432 337.215781)scale(0.18 -0.18)">
       <use xlink:href="#DejaVuSans-32"/>
       <use x="63.623047" xlink:href="#DejaVuSans-35"/>
      </g>
     </g>
    </g>
    <g id="xtick_7">
     <g id="line2d_13">
      <path clip-path="url(#p79a44b0723)" d="M 472.182477 320.038594 
L 472.182477 14.038594 
" style="fill:none;stroke:#cbcbcb;"/>
     </g>
     <g id="line2d_14"/>
     <g id="text_7">
      <!-- 30 -->
      <defs>
       <path d="M 40.578125 39.3125 
Q 47.65625 37.796875 51.625 33 
Q 55.609375 28.21875 55.609375 21.1875 
Q 55.609375 10.40625 48.1875 4.484375 
Q 40.765625 -1.421875 27.09375 -1.421875 
Q 22.515625 -1.421875 17.65625 -0.515625 
Q 12.796875 0.390625 7.625 2.203125 
L 7.625 11.71875 
Q 11.71875 9.328125 16.59375 8.109375 
Q 21.484375 6.890625 26.8125 6.890625 
Q 36.078125 6.890625 40.9375 10.546875 
Q 45.796875 14.203125 45.796875 21.1875 
Q 45.796875 27.640625 41.28125 31.265625 
Q 36.765625 34.90625 28.71875 34.90625 
L 20.21875 34.90625 
L 20.21875 43.015625 
L 29.109375 43.015625 
Q 36.375 43.015625 40.234375 45.921875 
Q 44.09375 48.828125 44.09375 54.296875 
Q 44.09375 59.90625 40.109375 62.90625 
Q 36.140625 65.921875 28.71875 65.921875 
Q 24.65625 65.921875 20.015625 65.03125 
Q 15.375 64.15625 9.8125 62.3125 
L 9.8125 71.09375 
Q 15.4375 72.65625 20.34375 73.4375 
Q 25.25 74.21875 29.59375 74.21875 
Q 40.828125 74.21875 47.359375 69.109375 
Q 53.90625 64.015625 53.90625 55.328125 
Q 53.90625 49.265625 50.4375 45.09375 
Q 46.96875 40.921875 40.578125 39.3125 
z
" id="DejaVuSans-33"/>
      </defs>
      <g transform="translate(460.729977 337.215781)scale(0.18 -0.18)">
       <use xlink:href="#DejaVuSans-33"/>
       <use x="63.623047" xlink:href="#DejaVuSans-30"/>
      </g>
     </g>
    </g>
    <g id="text_8">
     <!-- $\sf V \,(V)$ -->
     <defs>
      <path d="M 28.609375 0 
L 0.78125 72.90625 
L 11.078125 72.90625 
L 34.1875 11.53125 
L 57.328125 72.90625 
L 67.578125 72.90625 
L 39.796875 0 
z
" id="DejaVuSans-56"/>
      <path d="M 31 75.875 
Q 24.46875 64.65625 21.28125 53.65625 
Q 18.109375 42.671875 18.109375 31.390625 
Q 18.109375 20.125 21.3125 9.0625 
Q 24.515625 -2 31 -13.1875 
L 23.1875 -13.1875 
Q 15.875 -1.703125 12.234375 9.375 
Q 8.59375 20.453125 8.59375 31.390625 
Q 8.59375 42.28125 12.203125 53.3125 
Q 15.828125 64.359375 23.1875 75.875 
z
" id="DejaVuSans-28"/>
      <path d="M 8.015625 75.875 
L 15.828125 75.875 
Q 23.140625 64.359375 26.78125 53.3125 
Q 30.421875 42.28125 30.421875 31.390625 
Q 30.421875 20.453125 26.78125 9.375 
Q 23.140625 -1.703125 15.828125 -13.1875 
L 8.015625 -13.1875 
Q 14.5 -2 17.703125 9.0625 
Q 20.90625 20.125 20.90625 31.390625 
Q 20.90625 42.671875 17.703125 53.65625 
Q 14.5 64.65625 8.015625 75.875 
z
" id="DejaVuSans-29"/>
     </defs>
     <g transform="translate(263.85375 361.371844)scale(0.216 -0.216)">
      <use transform="translate(0 0.125)" xlink:href="#DejaVuSans-56"/>
      <use transform="translate(84.643879 0.125)" xlink:href="#DejaVuSans-28"/>
      <use transform="translate(123.657551 0.125)" xlink:href="#DejaVuSans-56"/>
      <use transform="translate(192.065754 0.125)" xlink:href="#DejaVuSans-29"/>
     </g>
    </g>
   </g>
   <g id="matplotlib.axis_2">
    <g id="ytick_1">
     <g id="line2d_15">
      <path clip-path="url(#p79a44b0723)" d="M 58.50975 320.038594 
L 519.30975 320.038594 
" style="fill:none;stroke:#cbcbcb;"/>
     </g>
     <g id="line2d_16"/>
     <g id="text_9">
      <!-- 0 -->
      <g transform="translate(43.55725 326.877187)scale(0.18 -0.18)">
       <use xlink:href="#DejaVuSans-30"/>
      </g>
     </g>
    </g>
    <g id="ytick_2">
     <g id="line2d_17">
      <path clip-path="url(#p79a44b0723)" d="M 58.50975 258.838594 
L 519.30975 258.838594 
" style="fill:none;stroke:#cbcbcb;"/>
     </g>
     <g id="line2d_18"/>
     <g id="text_10">
      <!-- 2 -->
      <g transform="translate(43.55725 265.677187)scale(0.18 -0.18)">
       <use xlink:href="#DejaVuSans-32"/>
      </g>
     </g>
    </g>
    <g id="ytick_3">
     <g id="line2d_19">
      <path clip-path="url(#p79a44b0723)" d="M 58.50975 197.638594 
L 519.30975 197.638594 
" style="fill:none;stroke:#cbcbcb;"/>
     </g>
     <g id="line2d_20"/>
     <g id="text_11">
      <!-- 4 -->
      <defs>
       <path d="M 37.796875 64.3125 
L 12.890625 25.390625 
L 37.796875 25.390625 
z
M 35.203125 72.90625 
L 47.609375 72.90625 
L 47.609375 25.390625 
L 58.015625 25.390625 
L 58.015625 17.1875 
L 47.609375 17.1875 
L 47.609375 0 
L 37.796875 0 
L 37.796875 17.1875 
L 4.890625 17.1875 
L 4.890625 26.703125 
z
" id="DejaVuSans-34"/>
      </defs>
      <g transform="translate(43.55725 204.477187)scale(0.18 -0.18)">
       <use xlink:href="#DejaVuSans-34"/>
      </g>
     </g>
    </g>
    <g id="ytick_4">
     <g id="line2d_21">
      <path clip-path="url(#p79a44b0723)" d="M 58.50975 136.438594 
L 519.30975 136.438594 
" style="fill:none;stroke:#cbcbcb;"/>
     </g>
     <g id="line2d_22"/>
     <g id="text_12">
      <!-- 6 -->
      <defs>
       <path d="M 33.015625 40.375 
Q 26.375 40.375 22.484375 35.828125 
Q 18.609375 31.296875 18.609375 23.390625 
Q 18.609375 15.53125 22.484375 10.953125 
Q 26.375 6.390625 33.015625 6.390625 
Q 39.65625 6.390625 43.53125 10.953125 
Q 47.40625 15.53125 47.40625 23.390625 
Q 47.40625 31.296875 43.53125 35.828125 
Q 39.65625 40.375 33.015625 40.375 
z
M 52.59375 71.296875 
L 52.59375 62.3125 
Q 48.875 64.0625 45.09375 64.984375 
Q 41.3125 65.921875 37.59375 65.921875 
Q 27.828125 65.921875 22.671875 59.328125 
Q 17.53125 52.734375 16.796875 39.40625 
Q 19.671875 43.65625 24.015625 45.921875 
Q 28.375 48.1875 33.59375 48.1875 
Q 44.578125 48.1875 50.953125 41.515625 
Q 57.328125 34.859375 57.328125 23.390625 
Q 57.328125 12.15625 50.6875 5.359375 
Q 44.046875 -1.421875 33.015625 -1.421875 
Q 20.359375 -1.421875 13.671875 8.265625 
Q 6.984375 17.96875 6.984375 36.375 
Q 6.984375 53.65625 15.1875 63.9375 
Q 23.390625 74.21875 37.203125 74.21875 
Q 40.921875 74.21875 44.703125 73.484375 
Q 48.484375 72.75 52.59375 71.296875 
z
" id="DejaVuSans-36"/>
      </defs>
      <g transform="translate(43.55725 143.277187)scale(0.18 -0.18)">
       <use xlink:href="#DejaVuSans-36"/>
      </g>
     </g>
    </g>
    <g id="ytick_5">
     <g id="line2d_23">
      <path clip-path="url(#p79a44b0723)" d="M 58.50975 75.238594 
L 519.30975 75.238594 
" style="fill:none;stroke:#cbcbcb;"/>
     </g>
     <g id="line2d_24"/>
     <g id="text_13">
      <!-- 8 -->
      <defs>
       <path d="M 31.78125 34.625 
Q 24.75 34.625 20.71875 30.859375 
Q 16.703125 27.09375 16.703125 20.515625 
Q 16.703125 13.921875 20.71875 10.15625 
Q 24.75 6.390625 31.78125 6.390625 
Q 38.8125 6.390625 42.859375 10.171875 
Q 46.921875 13.96875 46.921875 20.515625 
Q 46.921875 27.09375 42.890625 30.859375 
Q 38.875 34.625 31.78125 34.625 
z
M 21.921875 38.8125 
Q 15.578125 40.375 12.03125 44.71875 
Q 8.5 49.078125 8.5 55.328125 
Q 8.5 64.0625 14.71875 69.140625 
Q 20.953125 74.21875 31.78125 74.21875 
Q 42.671875 74.21875 48.875 69.140625 
Q 55.078125 64.0625 55.078125 55.328125 
Q 55.078125 49.078125 51.53125 44.71875 
Q 48 40.375 41.703125 38.8125 
Q 48.828125 37.15625 52.796875 32.3125 
Q 56.78125 27.484375 56.78125 20.515625 
Q 56.78125 9.90625 50.3125 4.234375 
Q 43.84375 -1.421875 31.78125 -1.421875 
Q 19.734375 -1.421875 13.25 4.234375 
Q 6.78125 9.90625 6.78125 20.515625 
Q 6.78125 27.484375 10.78125 32.3125 
Q 14.796875 37.15625 21.921875 38.8125 
z
M 18.3125 54.390625 
Q 18.3125 48.734375 21.84375 45.5625 
Q 25.390625 42.390625 31.78125 42.390625 
Q 38.140625 42.390625 41.71875 45.5625 
Q 45.3125 48.734375 45.3125 54.390625 
Q 45.3125 60.0625 41.71875 63.234375 
Q 38.140625 66.40625 31.78125 66.40625 
Q 25.390625 66.40625 21.84375 63.234375 
Q 18.3125 60.0625 18.3125 54.390625 
z
" id="DejaVuSans-38"/>
      </defs>
      <g transform="translate(43.55725 82.077187)scale(0.18 -0.18)">
       <use xlink:href="#DejaVuSans-38"/>
      </g>
     </g>
    </g>
    <g id="ytick_6">
     <g id="line2d_25">
      <path clip-path="url(#p79a44b0723)" d="M 58.50975 14.038594 
L 519.30975 14.038594 
" style="fill:none;stroke:#cbcbcb;"/>
     </g>
     <g id="line2d_26"/>
     <g id="text_14">
      <!-- 10 -->
      <g transform="translate(32.10475 20.877187)scale(0.18 -0.18)">
       <use xlink:href="#DejaVuSans-31"/>
       <use x="63.623047" xlink:href="#DejaVuSans-30"/>
      </g>
     </g>
    </g>
    <g id="text_15">
     <!-- $\sf I \,(A) $ -->
     <defs>
      <path d="M 9.8125 72.90625 
L 19.671875 72.90625 
L 19.671875 0 
L 9.8125 0 
z
" id="DejaVuSans-49"/>
      <path d="M 34.1875 63.1875 
L 20.796875 26.90625 
L 47.609375 26.90625 
z
M 28.609375 72.90625 
L 39.796875 72.90625 
L 67.578125 0 
L 57.328125 0 
L 50.6875 18.703125 
L 17.828125 18.703125 
L 11.1875 0 
L 0.78125 0 
z
" id="DejaVuSans-41"/>
     </defs>
     <g transform="translate(23.612625 187.882594)rotate(-90)scale(0.216 -0.216)">
      <use transform="translate(0 0.125)" xlink:href="#DejaVuSans-49"/>
      <use transform="translate(45.727864 0.125)" xlink:href="#DejaVuSans-28"/>
      <use transform="translate(84.741536 0.125)" xlink:href="#DejaVuSans-41"/>
      <use transform="translate(153.149739 0.125)" xlink:href="#DejaVuSans-29"/>
     </g>
    </g>
   </g>
   <g id="line2d_27">
    <path clip-path="url(#p79a44b0723)" d="M 79.455205 269.820111 
L 322.909386 271.299821 
L 349.773295 271.684322 
L 366.563239 272.133474 
L 378.316199 272.647407 
L 388.390165 273.308886 
L 396.785137 274.095268 
L 403.501115 274.940505 
L 409.377595 275.888666 
L 414.414578 276.896876 
L 419.451561 278.127348 
L 423.649047 279.356557 
L 427.846533 280.805117 
L 432.044019 282.509833 
L 435.402007 284.085958 
L 438.759996 285.87668 
L 442.117985 287.90782 
L 445.475973 290.207739 
L 448.833962 292.806859 
L 452.191951 295.73763 
L 455.549939 299.033807 
L 458.907928 302.731668 
L 462.265917 306.867676 
L 464.784408 310.280259 
L 467.3029 313.975842 
L 469.821391 317.970441 
L 473.17938 323.787088 
L 476.537369 330.198063 
L 479.895358 337.234991 
L 483.253346 344.926503 
L 486.611335 353.301441 
L 489.969324 362.378572 
L 493.327312 372.179588 
L 493.94453 374.063969 
L 493.94453 374.063969 
" style="fill:none;stroke:#fc4f30;stroke-width:4;"/>
   </g>
   <g id="line2d_28">
    <path clip-path="url(#p79a44b0723)" d="M 79.455205 219.601629 
L 317.872403 221.051679 
L 344.736312 221.433374 
L 361.526256 221.87827 
L 374.118713 222.43232 
L 383.353182 223.041124 
L 391.748154 223.818749 
L 398.464131 224.654479 
L 404.340612 225.591936 
L 409.377595 226.588771 
L 414.414578 227.805404 
L 418.612064 229.020863 
L 422.80955 230.453334 
L 427.007035 232.139292 
L 430.365024 233.698256 
L 433.723013 235.469517 
L 437.081002 237.479234 
L 440.43899 239.755061 
L 443.796979 242.327412 
L 447.154968 245.228571 
L 450.512956 248.492179 
L 453.870945 252.154365 
L 457.228934 256.251539 
L 459.747425 259.632861 
L 462.265917 263.295414 
L 464.784408 267.255212 
L 468.142397 273.02286 
L 471.500386 279.381204 
L 474.858375 286.364145 
L 478.216363 293.998712 
L 481.574352 302.314469 
L 484.932341 311.330883 
L 488.290329 321.069601 
L 491.648318 331.540649 
L 495.006307 342.754237 
L 498.364295 354.714358 
L 498.364295 354.714358 
" style="fill:none;stroke:#5cb85c;stroke-width:4;"/>
   </g>
   <g id="line2d_29">
    <path clip-path="url(#p79a44b0723)" d="M 79.455205 169.383147 
L 312.83542 170.803553 
L 339.699329 171.182475 
L 356.489273 171.623167 
L 369.08173 172.171439 
L 379.155696 172.839692 
L 386.711171 173.542582 
L 393.427148 174.368913 
L 399.303629 175.295788 
L 404.340612 176.281375 
L 409.377595 177.484321 
L 413.575081 178.686177 
L 417.772567 180.102729 
L 421.970052 181.770124 
L 425.328041 183.312098 
L 428.68603 185.064267 
L 432.044019 187.052585 
L 435.402007 189.304541 
L 438.759996 191.850359 
L 442.117985 194.722154 
L 445.475973 197.953451 
L 448.833962 201.580229 
L 452.191951 205.638839 
L 454.710442 208.989107 
L 457.228934 212.618834 
L 459.747425 216.54403 
L 463.105414 222.262931 
L 466.463403 228.569602 
L 469.821391 235.498061 
L 473.17938 243.07587 
L 476.537369 251.332617 
L 479.895358 260.288435 
L 483.253346 269.96497 
L 486.611335 280.373021 
L 489.969324 291.523035 
L 493.327312 303.419385 
L 496.685301 316.057507 
L 498.364295 322.652322 
L 498.364295 322.652322 
" style="fill:none;stroke:#30a2da;stroke-width:4;"/>
   </g>
   <g id="line2d_30">
    <path clip-path="url(#p79a44b0723)" d="M 79.455205 119.164665 
L 308.637934 120.564014 
L 335.501843 120.948318 
L 352.291787 121.397169 
L 364.044747 121.910725 
L 374.118713 122.571696 
L 382.513685 123.357461 
L 389.229663 124.202028 
L 395.106143 125.149435 
L 400.143126 126.156843 
L 405.180109 127.38634 
L 409.377595 128.61458 
L 413.575081 130.062007 
L 417.772567 131.765402 
L 421.130555 133.340318 
L 424.488544 135.129681 
L 427.846533 137.159301 
L 431.204521 139.457524 
L 434.56251 142.054759 
L 437.920499 144.983446 
L 441.278487 148.277332 
L 444.636476 151.972683 
L 447.994465 156.10596 
L 450.512956 159.516345 
L 453.031448 163.209606 
L 455.549939 167.201759 
L 458.907928 173.014963 
L 462.265917 179.422286 
L 465.623906 186.455376 
L 468.981894 194.142891 
L 472.339883 202.513674 
L 475.697872 211.586545 
L 479.05586 221.38319 
L 482.413849 231.912874 
L 485.771838 243.185608 
L 489.129827 255.203304 
L 492.487815 267.964281 
L 496.685301 284.923838 
L 498.364295 291.985096 
L 498.364295 291.985096 
" style="fill:none;stroke:#e5ae38;stroke-width:4;"/>
   </g>
   <g id="line2d_31">
    <path clip-path="url(#p79a44b0723)" d="M 79.455205 68.946183 
L 303.600951 70.315873 
L 330.46486 70.697372 
L 347.254804 71.141972 
L 359.847261 71.695615 
L 369.08173 72.303952 
L 377.476702 73.080967 
L 384.192679 73.916034 
L 390.06916 74.852746 
L 395.106143 75.848788 
L 400.143126 77.064457 
L 404.340612 78.278957 
L 408.538098 79.710306 
L 412.735583 81.394957 
L 416.093572 82.952724 
L 419.451561 84.722641 
L 422.80955 86.730851 
L 426.167538 89.004998 
L 429.525527 91.575481 
L 432.883516 94.474573 
L 436.241504 97.735908 
L 439.599493 101.395603 
L 442.957482 105.490064 
L 445.475973 108.869203 
L 447.994465 112.529449 
L 450.512956 116.486814 
L 453.870945 122.251037 
L 457.228934 128.605751 
L 460.586923 135.584865 
L 463.944911 143.215447 
L 467.3029 151.527062 
L 470.660889 160.539224 
L 474.018877 170.273579 
L 477.376866 180.740208 
L 480.734855 191.949338 
L 484.092843 203.904989 
L 487.450832 216.601542 
L 491.648318 233.487719 
L 498.364295 261.883417 
L 498.364295 261.883417 
" style="fill:none;stroke:#8b8b8b;stroke-width:4;"/>
   </g>
   <g id="patch_3">
    <path d="M 58.50975 320.038594 
L 58.50975 14.038594 
" style="fill:none;stroke:#ffffff;stroke-linecap:square;stroke-linejoin:miter;stroke-width:3;"/>
   </g>
   <g id="patch_4">
    <path d="M 519.30975 320.038594 
L 519.30975 14.038594 
" style="fill:none;stroke:#ffffff;stroke-linecap:square;stroke-linejoin:miter;stroke-width:3;"/>
   </g>
   <g id="patch_5">
    <path d="M 58.50975 320.038594 
L 519.30975 320.038594 
" style="fill:none;stroke:#ffffff;stroke-linecap:square;stroke-linejoin:miter;stroke-width:3;"/>
   </g>
   <g id="patch_6">
    <path d="M 58.50975 14.038594 
L 519.30975 14.038594 
" style="fill:none;stroke:#ffffff;stroke-linecap:square;stroke-linejoin:miter;stroke-width:3;"/>
   </g>
   <g id="text_16">
    <!-- $\sf 200\, W/m^2$ -->
    <defs>
     <path d="M 3.328125 72.90625 
L 13.28125 72.90625 
L 28.609375 11.28125 
L 43.890625 72.90625 
L 54.984375 72.90625 
L 70.3125 11.28125 
L 85.59375 72.90625 
L 95.609375 72.90625 
L 77.296875 0 
L 64.890625 0 
L 49.515625 63.28125 
L 33.984375 0 
L 21.578125 0 
z
" id="DejaVuSans-57"/>
     <path d="M 25.390625 72.90625 
L 33.6875 72.90625 
L 8.296875 -9.28125 
L 0 -9.28125 
z
" id="DejaVuSans-2f"/>
     <path d="M 52 44.1875 
Q 55.375 50.25 60.0625 53.125 
Q 64.75 56 71.09375 56 
Q 79.640625 56 84.28125 50.015625 
Q 88.921875 44.046875 88.921875 33.015625 
L 88.921875 0 
L 79.890625 0 
L 79.890625 32.71875 
Q 79.890625 40.578125 77.09375 44.375 
Q 74.3125 48.1875 68.609375 48.1875 
Q 61.625 48.1875 57.5625 43.546875 
Q 53.515625 38.921875 53.515625 30.90625 
L 53.515625 0 
L 44.484375 0 
L 44.484375 32.71875 
Q 44.484375 40.625 41.703125 44.40625 
Q 38.921875 48.1875 33.109375 48.1875 
Q 26.21875 48.1875 22.15625 43.53125 
Q 18.109375 38.875 18.109375 30.90625 
L 18.109375 0 
L 9.078125 0 
L 9.078125 54.6875 
L 18.109375 54.6875 
L 18.109375 46.1875 
Q 21.1875 51.21875 25.484375 53.609375 
Q 29.78125 56 35.6875 56 
Q 41.65625 56 45.828125 52.96875 
Q 50 49.953125 52 44.1875 
z
" id="DejaVuSans-6d"/>
    </defs>
    <g transform="translate(105.637023 263.700111)scale(0.15 -0.15)">
     <use transform="translate(0 0.765625)" xlink:href="#DejaVuSans-32"/>
     <use transform="translate(63.623047 0.765625)" xlink:href="#DejaVuSans-30"/>
     <use transform="translate(127.246094 0.765625)" xlink:href="#DejaVuSans-30"/>
     <use transform="translate(207.104817 0.765625)" xlink:href="#DejaVuSans-57"/>
     <use transform="translate(305.98177 0.765625)" xlink:href="#DejaVuSans-2f"/>
     <use transform="translate(339.673176 0.765625)" xlink:href="#DejaVuSans-6d"/>
     <use transform="translate(438.042317 39.046875)scale(0.7)" xlink:href="#DejaVuSans-32"/>
    </g>
   </g>
   <g id="text_17">
    <!-- $\sf 400\, W/m^2$ -->
    <g transform="translate(105.637023 213.481629)scale(0.15 -0.15)">
     <use transform="translate(0 0.765625)" xlink:href="#DejaVuSans-34"/>
     <use transform="translate(63.623047 0.765625)" xlink:href="#DejaVuSans-30"/>
     <use transform="translate(127.246094 0.765625)" xlink:href="#DejaVuSans-30"/>
     <use transform="translate(207.104817 0.765625)" xlink:href="#DejaVuSans-57"/>
     <use transform="translate(305.98177 0.765625)" xlink:href="#DejaVuSans-2f"/>
     <use transform="translate(339.673176 0.765625)" xlink:href="#DejaVuSans-6d"/>
     <use transform="translate(438.042317 39.046875)scale(0.7)" xlink:href="#DejaVuSans-32"/>
    </g>
   </g>
   <g id="text_18">
    <!-- $\sf 600\, W/m^2$ -->
    <g transform="translate(105.637023 163.263147)scale(0.15 -0.15)">
     <use transform="translate(0 0.765625)" xlink:href="#DejaVuSans-36"/>
     <use transform="translate(63.623047 0.765625)" xlink:href="#DejaVuSans-30"/>
     <use transform="translate(127.246094 0.765625)" xlink:href="#DejaVuSans-30"/>
     <use transform="translate(207.104817 0.765625)" xlink:href="#DejaVuSans-57"/>
     <use transform="translate(305.98177 0.765625)" xlink:href="#DejaVuSans-2f"/>
     <use transform="translate(339.673176 0.765625)" xlink:href="#DejaVuSans-6d"/>
     <use transform="translate(438.042317 39.046875)scale(0.7)" xlink:href="#DejaVuSans-32"/>
    </g>
   </g>
   <g id="text_19">
    <!-- $\sf 800\, W/m^2$ -->
    <g transform="translate(105.637023 113.044665)scale(0.15 -0.15)">
     <use transform="translate(0 0.765625)" xlink:href="#DejaVuSans-38"/>
     <use transform="translate(63.623047 0.765625)" xlink:href="#DejaVuSans-30"/>
     <use transform="translate(127.246094 0.765625)" xlink:href="#DejaVuSans-30"/>
     <use transform="translate(207.104817 0.765625)" xlink:href="#DejaVuSans-57"/>
     <use transform="translate(305.98177 0.765625)" xlink:href="#DejaVuSans-2f"/>
     <use transform="translate(339.673176 0.765625)" xlink:href="#DejaVuSans-6d"/>
     <use transform="translate(438.042317 39.046875)scale(0.7)" xlink:href="#DejaVuSans-32"/>
    </g>
   </g>
   <g id="text_20">
    <!-- $\sf 1000\, W/m^2$ -->
    <g transform="translate(105.637023 62.826183)scale(0.15 -0.15)">
     <use transform="translate(0 0.765625)" xlink:href="#DejaVuSans-31"/>
     <use transform="translate(63.623047 0.765625)" xlink:href="#DejaVuSans-30"/>
     <use transform="translate(127.246094 0.765625)" xlink:href="#DejaVuSans-30"/>
     <use transform="translate(190.869141 0.765625)" xlink:href="#DejaVuSans-30"/>
     <use transform="translate(270.727864 0.765625)" xlink:href="#DejaVuSans-57"/>
     <use transform="translate(369.604817 0.765625)" xlink:href="#DejaVuSans-2f"/>
     <use transform="translate(403.296223 0.765625)" xlink:href="#DejaVuSans-6d"/>
     <use transform="translate(501.665364 39.046875)scale(0.7)" xlink:href="#DejaVuSans-32"/>
    </g>
   </g>
  </g>
 </g>
 <defs>
  <clipPath id="p79a44b0723">
   <rect height="306" width="460.8" x="58.50975" y="14.038594"/>
  </clipPath>
 </defs>
</svg>
