<?xml version="1.0" encoding="utf-8" standalone="no"?>
<!DOCTYPE svg PUBLIC "-//W3C//DTD SVG 1.1//EN"
  "http://www.w3.org/Graphics/SVG/1.1/DTD/svg11.dtd">
<!-- Created with matplotlib (http://matplotlib.org/) -->
<svg height="334pt" version="1.1" viewBox="0 0 548 334" width="548pt" xmlns="http://www.w3.org/2000/svg" xmlns:xlink="http://www.w3.org/1999/xlink">
 <defs>
  <style type="text/css">
*{stroke-linecap:butt;stroke-linejoin:round;}
  </style>
 </defs>
 <g id="figure_1">
  <g id="patch_1">
   <path d="M 0 334.243969 
L 548.712 334.243969 
L 548.712 0 
L 0 0 
z
" style="fill:none;opacity:0;"/>
  </g>
  <g id="axes_1">
   <g id="patch_2">
    <path d="M 58.50975 281.218594 
L 478.74975 281.218594 
L 478.74975 14.038594 
L 58.50975 14.038594 
z
" style="fill:#ffffff;"/>
   </g>
   <g id="matplotlib.axis_1">
    <g id="xtick_1">
     <g id="line2d_1">
      <path clip-path="url(#p906feea06d)" d="M 77.611568 281.218594 
L 77.611568 14.038594 
" style="fill:none;stroke:#cbcbcb;"/>
     </g>
     <g id="line2d_2"/>
     <g id="text_1">
      <!-- 0 -->
      <defs>
       <path d="M 31.78125 66.40625 
Q 24.171875 66.40625 20.328125 58.90625 
Q 16.5 51.421875 16.5 36.375 
Q 16.5 21.390625 20.328125 13.890625 
Q 24.171875 6.390625 31.78125 6.390625 
Q 39.453125 6.390625 43.28125 13.890625 
Q 47.125 21.390625 47.125 36.375 
Q 47.125 51.421875 43.28125 58.90625 
Q 39.453125 66.40625 31.78125 66.40625 
z
M 31.78125 74.21875 
Q 44.046875 74.21875 50.515625 64.515625 
Q 56.984375 54.828125 56.984375 36.375 
Q 56.984375 17.96875 50.515625 8.265625 
Q 44.046875 -1.421875 31.78125 -1.421875 
Q 19.53125 -1.421875 13.0625 8.265625 
Q 6.59375 17.96875 6.59375 36.375 
Q 6.59375 54.828125 13.0625 64.515625 
Q 19.53125 74.21875 31.78125 74.21875 
z
" id="DejaVuSans-30"/>
      </defs>
      <g transform="translate(71.885318 298.395781)scale(0.18 -0.18)">
       <use xlink:href="#DejaVuSans-30"/>
      </g>
     </g>
    </g>
    <g id="xtick_2">
     <g id="line2d_3">
      <path clip-path="url(#p906feea06d)" d="M 195.815889 281.218594 
L 195.815889 14.038594 
" style="fill:none;stroke:#cbcbcb;"/>
     </g>
     <g id="line2d_4"/>
     <g id="text_2">
      <!-- 10 -->
      <defs>
       <path d="M 12.40625 8.296875 
L 28.515625 8.296875 
L 28.515625 63.921875 
L 10.984375 60.40625 
L 10.984375 69.390625 
L 28.421875 72.90625 
L 38.28125 72.90625 
L 38.28125 8.296875 
L 54.390625 8.296875 
L 54.390625 0 
L 12.40625 0 
z
" id="DejaVuSans-31"/>
      </defs>
      <g transform="translate(184.363389 298.395781)scale(0.18 -0.18)">
       <use xlink:href="#DejaVuSans-31"/>
       <use x="63.623047" xlink:href="#DejaVuSans-30"/>
      </g>
     </g>
    </g>
    <g id="xtick_3">
     <g id="line2d_5">
      <path clip-path="url(#p906feea06d)" d="M 314.020209 281.218594 
L 314.020209 14.038594 
" style="fill:none;stroke:#cbcbcb;"/>
     </g>
     <g id="line2d_6"/>
     <g id="text_3">
      <!-- 20 -->
      <defs>
       <path d="M 19.1875 8.296875 
L 53.609375 8.296875 
L 53.609375 0 
L 7.328125 0 
L 7.328125 8.296875 
Q 12.9375 14.109375 22.625 23.890625 
Q 32.328125 33.6875 34.8125 36.53125 
Q 39.546875 41.84375 41.421875 45.53125 
Q 43.3125 49.21875 43.3125 52.78125 
Q 43.3125 58.59375 39.234375 62.25 
Q 35.15625 65.921875 28.609375 65.921875 
Q 23.96875 65.921875 18.8125 64.3125 
Q 13.671875 62.703125 7.8125 59.421875 
L 7.8125 69.390625 
Q 13.765625 71.78125 18.9375 73 
Q 24.125 74.21875 28.421875 74.21875 
Q 39.75 74.21875 46.484375 68.546875 
Q 53.21875 62.890625 53.21875 53.421875 
Q 53.21875 48.921875 51.53125 44.890625 
Q 49.859375 40.875 45.40625 35.40625 
Q 44.1875 33.984375 37.640625 27.21875 
Q 31.109375 20.453125 19.1875 8.296875 
z
" id="DejaVuSans-32"/>
      </defs>
      <g transform="translate(302.567709 298.395781)scale(0.18 -0.18)">
       <use xlink:href="#DejaVuSans-32"/>
       <use x="63.623047" xlink:href="#DejaVuSans-30"/>
      </g>
     </g>
    </g>
    <g id="xtick_4">
     <g id="line2d_7">
      <path clip-path="url(#p906feea06d)" d="M 432.224529 281.218594 
L 432.224529 14.038594 
" style="fill:none;stroke:#cbcbcb;"/>
     </g>
     <g id="line2d_8"/>
     <g id="text_4">
      <!-- 30 -->
      <defs>
       <path d="M 40.578125 39.3125 
Q 47.65625 37.796875 51.625 33 
Q 55.609375 28.21875 55.609375 21.1875 
Q 55.609375 10.40625 48.1875 4.484375 
Q 40.765625 -1.421875 27.09375 -1.421875 
Q 22.515625 -1.421875 17.65625 -0.515625 
Q 12.796875 0.390625 7.625 2.203125 
L 7.625 11.71875 
Q 11.71875 9.328125 16.59375 8.109375 
Q 21.484375 6.890625 26.8125 6.890625 
Q 36.078125 6.890625 40.9375 10.546875 
Q 45.796875 14.203125 45.796875 21.1875 
Q 45.796875 27.640625 41.28125 31.265625 
Q 36.765625 34.90625 28.71875 34.90625 
L 20.21875 34.90625 
L 20.21875 43.015625 
L 29.109375 43.015625 
Q 36.375 43.015625 40.234375 45.921875 
Q 44.09375 48.828125 44.09375 54.296875 
Q 44.09375 59.90625 40.109375 62.90625 
Q 36.140625 65.921875 28.71875 65.921875 
Q 24.65625 65.921875 20.015625 65.03125 
Q 15.375 64.15625 9.8125 62.3125 
L 9.8125 71.09375 
Q 15.4375 72.65625 20.34375 73.4375 
Q 25.25 74.21875 29.59375 74.21875 
Q 40.828125 74.21875 47.359375 69.109375 
Q 53.90625 64.015625 53.90625 55.328125 
Q 53.90625 49.265625 50.4375 45.09375 
Q 46.96875 40.921875 40.578125 39.3125 
z
" id="DejaVuSans-33"/>
      </defs>
      <g transform="translate(420.772029 298.395781)scale(0.18 -0.18)">
       <use xlink:href="#DejaVuSans-33"/>
       <use x="63.623047" xlink:href="#DejaVuSans-30"/>
      </g>
     </g>
    </g>
    <g id="text_5">
     <!-- $\sf V (V)$ -->
     <defs>
      <path d="M 28.609375 0 
L 0.78125 72.90625 
L 11.078125 72.90625 
L 34.1875 11.53125 
L 57.328125 72.90625 
L 67.578125 72.90625 
L 39.796875 0 
z
" id="DejaVuSans-56"/>
      <path d="M 31 75.875 
Q 24.46875 64.65625 21.28125 53.65625 
Q 18.109375 42.671875 18.109375 31.390625 
Q 18.109375 20.125 21.3125 9.0625 
Q 24.515625 -2 31 -13.1875 
L 23.1875 -13.1875 
Q 15.875 -1.703125 12.234375 9.375 
Q 8.59375 20.453125 8.59375 31.390625 
Q 8.59375 42.28125 12.203125 53.3125 
Q 15.828125 64.359375 23.1875 75.875 
z
" id="DejaVuSans-28"/>
      <path d="M 8.015625 75.875 
L 15.828125 75.875 
Q 23.140625 64.359375 26.78125 53.3125 
Q 30.421875 42.28125 30.421875 31.390625 
Q 30.421875 20.453125 26.78125 9.375 
Q 23.140625 -1.703125 15.828125 -13.1875 
L 8.015625 -13.1875 
Q 14.5 -2 17.703125 9.0625 
Q 20.90625 20.125 20.90625 31.390625 
Q 20.90625 42.671875 17.703125 53.65625 
Q 14.5 64.65625 8.015625 75.875 
z
" id="DejaVuSans-29"/>
     </defs>
     <g transform="translate(245.40975 322.551844)scale(0.216 -0.216)">
      <use transform="translate(0 0.125)" xlink:href="#DejaVuSans-56"/>
      <use transform="translate(68.408203 0.125)" xlink:href="#DejaVuSans-28"/>
      <use transform="translate(107.421875 0.125)" xlink:href="#DejaVuSans-56"/>
      <use transform="translate(175.830078 0.125)" xlink:href="#DejaVuSans-29"/>
     </g>
    </g>
   </g>
   <g id="matplotlib.axis_2">
    <g id="ytick_1">
     <g id="line2d_9">
      <path clip-path="url(#p906feea06d)" d="M 58.50975 281.218594 
L 478.74975 281.218594 
" style="fill:none;stroke:#cbcbcb;"/>
     </g>
     <g id="line2d_10"/>
     <g id="text_6">
      <!-- 0 -->
      <g transform="translate(43.55725 288.057187)scale(0.18 -0.18)">
       <use xlink:href="#DejaVuSans-30"/>
      </g>
     </g>
    </g>
    <g id="ytick_2">
     <g id="line2d_11">
      <path clip-path="url(#p906feea06d)" d="M 58.50975 227.782594 
L 478.74975 227.782594 
" style="fill:none;stroke:#cbcbcb;"/>
     </g>
     <g id="line2d_12"/>
     <g id="text_7">
      <!-- 2 -->
      <g transform="translate(43.55725 234.621187)scale(0.18 -0.18)">
       <use xlink:href="#DejaVuSans-32"/>
      </g>
     </g>
    </g>
    <g id="ytick_3">
     <g id="line2d_13">
      <path clip-path="url(#p906feea06d)" d="M 58.50975 174.346594 
L 478.74975 174.346594 
" style="fill:none;stroke:#cbcbcb;"/>
     </g>
     <g id="line2d_14"/>
     <g id="text_8">
      <!-- 4 -->
      <defs>
       <path d="M 37.796875 64.3125 
L 12.890625 25.390625 
L 37.796875 25.390625 
z
M 35.203125 72.90625 
L 47.609375 72.90625 
L 47.609375 25.390625 
L 58.015625 25.390625 
L 58.015625 17.1875 
L 47.609375 17.1875 
L 47.609375 0 
L 37.796875 0 
L 37.796875 17.1875 
L 4.890625 17.1875 
L 4.890625 26.703125 
z
" id="DejaVuSans-34"/>
      </defs>
      <g transform="translate(43.55725 181.185187)scale(0.18 -0.18)">
       <use xlink:href="#DejaVuSans-34"/>
      </g>
     </g>
    </g>
    <g id="ytick_4">
     <g id="line2d_15">
      <path clip-path="url(#p906feea06d)" d="M 58.50975 120.910594 
L 478.74975 120.910594 
" style="fill:none;stroke:#cbcbcb;"/>
     </g>
     <g id="line2d_16"/>
     <g id="text_9">
      <!-- 6 -->
      <defs>
       <path d="M 33.015625 40.375 
Q 26.375 40.375 22.484375 35.828125 
Q 18.609375 31.296875 18.609375 23.390625 
Q 18.609375 15.53125 22.484375 10.953125 
Q 26.375 6.390625 33.015625 6.390625 
Q 39.65625 6.390625 43.53125 10.953125 
Q 47.40625 15.53125 47.40625 23.390625 
Q 47.40625 31.296875 43.53125 35.828125 
Q 39.65625 40.375 33.015625 40.375 
z
M 52.59375 71.296875 
L 52.59375 62.3125 
Q 48.875 64.0625 45.09375 64.984375 
Q 41.3125 65.921875 37.59375 65.921875 
Q 27.828125 65.921875 22.671875 59.328125 
Q 17.53125 52.734375 16.796875 39.40625 
Q 19.671875 43.65625 24.015625 45.921875 
Q 28.375 48.1875 33.59375 48.1875 
Q 44.578125 48.1875 50.953125 41.515625 
Q 57.328125 34.859375 57.328125 23.390625 
Q 57.328125 12.15625 50.6875 5.359375 
Q 44.046875 -1.421875 33.015625 -1.421875 
Q 20.359375 -1.421875 13.671875 8.265625 
Q 6.984375 17.96875 6.984375 36.375 
Q 6.984375 53.65625 15.1875 63.9375 
Q 23.390625 74.21875 37.203125 74.21875 
Q 40.921875 74.21875 44.703125 73.484375 
Q 48.484375 72.75 52.59375 71.296875 
z
" id="DejaVuSans-36"/>
      </defs>
      <g transform="translate(43.55725 127.749187)scale(0.18 -0.18)">
       <use xlink:href="#DejaVuSans-36"/>
      </g>
     </g>
    </g>
    <g id="ytick_5">
     <g id="line2d_17">
      <path clip-path="url(#p906feea06d)" d="M 58.50975 67.474594 
L 478.74975 67.474594 
" style="fill:none;stroke:#cbcbcb;"/>
     </g>
     <g id="line2d_18"/>
     <g id="text_10">
      <!-- 8 -->
      <defs>
       <path d="M 31.78125 34.625 
Q 24.75 34.625 20.71875 30.859375 
Q 16.703125 27.09375 16.703125 20.515625 
Q 16.703125 13.921875 20.71875 10.15625 
Q 24.75 6.390625 31.78125 6.390625 
Q 38.8125 6.390625 42.859375 10.171875 
Q 46.921875 13.96875 46.921875 20.515625 
Q 46.921875 27.09375 42.890625 30.859375 
Q 38.875 34.625 31.78125 34.625 
z
M 21.921875 38.8125 
Q 15.578125 40.375 12.03125 44.71875 
Q 8.5 49.078125 8.5 55.328125 
Q 8.5 64.0625 14.71875 69.140625 
Q 20.953125 74.21875 31.78125 74.21875 
Q 42.671875 74.21875 48.875 69.140625 
Q 55.078125 64.0625 55.078125 55.328125 
Q 55.078125 49.078125 51.53125 44.71875 
Q 48 40.375 41.703125 38.8125 
Q 48.828125 37.15625 52.796875 32.3125 
Q 56.78125 27.484375 56.78125 20.515625 
Q 56.78125 9.90625 50.3125 4.234375 
Q 43.84375 -1.421875 31.78125 -1.421875 
Q 19.734375 -1.421875 13.25 4.234375 
Q 6.78125 9.90625 6.78125 20.515625 
Q 6.78125 27.484375 10.78125 32.3125 
Q 14.796875 37.15625 21.921875 38.8125 
z
M 18.3125 54.390625 
Q 18.3125 48.734375 21.84375 45.5625 
Q 25.390625 42.390625 31.78125 42.390625 
Q 38.140625 42.390625 41.71875 45.5625 
Q 45.3125 48.734375 45.3125 54.390625 
Q 45.3125 60.0625 41.71875 63.234375 
Q 38.140625 66.40625 31.78125 66.40625 
Q 25.390625 66.40625 21.84375 63.234375 
Q 18.3125 60.0625 18.3125 54.390625 
z
" id="DejaVuSans-38"/>
      </defs>
      <g transform="translate(43.55725 74.313187)scale(0.18 -0.18)">
       <use xlink:href="#DejaVuSans-38"/>
      </g>
     </g>
    </g>
    <g id="ytick_6">
     <g id="line2d_19">
      <path clip-path="url(#p906feea06d)" d="M 58.50975 14.038594 
L 478.74975 14.038594 
" style="fill:none;stroke:#cbcbcb;"/>
     </g>
     <g id="line2d_20"/>
     <g id="text_11">
      <!-- 10 -->
      <g transform="translate(32.10475 20.877187)scale(0.18 -0.18)">
       <use xlink:href="#DejaVuSans-31"/>
       <use x="63.623047" xlink:href="#DejaVuSans-30"/>
      </g>
     </g>
    </g>
    <g id="text_12">
     <!-- $\sf I (A) $ -->
     <defs>
      <path d="M 9.8125 72.90625 
L 19.671875 72.90625 
L 19.671875 0 
L 9.8125 0 
z
" id="DejaVuSans-49"/>
      <path d="M 34.1875 63.1875 
L 20.796875 26.90625 
L 47.609375 26.90625 
z
M 28.609375 72.90625 
L 39.796875 72.90625 
L 67.578125 0 
L 57.328125 0 
L 50.6875 18.703125 
L 17.828125 18.703125 
L 11.1875 0 
L 0.78125 0 
z
" id="DejaVuSans-41"/>
     </defs>
     <g transform="translate(23.612625 166.636594)rotate(-90)scale(0.216 -0.216)">
      <use transform="translate(0 0.125)" xlink:href="#DejaVuSans-49"/>
      <use transform="translate(29.492188 0.125)" xlink:href="#DejaVuSans-28"/>
      <use transform="translate(68.505859 0.125)" xlink:href="#DejaVuSans-41"/>
      <use transform="translate(136.914062 0.125)" xlink:href="#DejaVuSans-29"/>
     </g>
    </g>
   </g>
   <g id="line2d_21">
    <path clip-path="url(#p906feea06d)" d="M 77.611568 237.370966 
L 299.712512 238.686163 
L 324.727294 239.060923 
L 339.887768 239.500134 
L 350.5001 240.008036 
L 359.596384 240.665124 
L 367.176621 241.44834 
L 373.24081 242.291133 
L 378.546976 243.236843 
L 383.095119 244.242227 
L 387.643261 245.468571 
L 391.433379 246.692622 
L 395.223498 248.133565 
L 399.013616 249.827008 
L 402.045711 251.390554 
L 405.077806 253.164018 
L 408.109901 255.172163 
L 411.141995 257.441552 
L 414.17409 260.000517 
L 417.206185 262.878532 
L 420.23828 266.107272 
L 423.270375 269.718575 
L 426.302469 273.745644 
L 429.334564 278.220356 
L 432.366659 283.174361 
L 435.398754 288.639182 
L 438.430849 294.644621 
L 441.462943 301.215151 
L 444.495038 308.37665 
L 447.527133 316.147206 
L 450.559228 324.545751 
L 453.591322 333.582311 
L 454.124985 335.243969 
L 454.124985 335.243969 
" style="fill:none;stroke:#fc4f30;stroke-dasharray:14.8,6.4;stroke-dashoffset:0;stroke-width:4;"/>
   </g>
   <g id="line2d_22">
    <path clip-path="url(#p906feea06d)" d="M 77.611568 193.523338 
L 295.922393 194.820461 
L 320.179152 195.184398 
L 335.339626 195.619332 
L 346.709981 196.166933 
L 355.048242 196.771721 
L 362.628479 197.546169 
L 368.692668 198.379458 
L 373.998834 199.314492 
L 378.546976 200.308553 
L 383.095119 201.521157 
L 386.885237 202.73159 
L 390.675356 204.156645 
L 394.465474 205.831628 
L 398.255593 207.796561 
L 401.287687 209.606922 
L 404.319782 211.656211 
L 407.351877 213.97129 
L 410.383972 216.580772 
L 413.416066 219.514307 
L 416.448161 222.803823 
L 419.480256 226.481234 
L 422.512351 230.579875 
L 425.544446 235.131456 
L 428.57654 240.167405 
L 431.608635 245.719112 
L 434.64073 251.816178 
L 437.672825 258.482203 
L 440.70492 265.743 
L 443.737014 273.615567 
L 446.769109 282.118805 
L 449.801204 291.261467 
L 452.833299 301.052468 
L 455.865394 311.495295 
L 455.865394 311.495295 
" style="fill:none;stroke:#5cb85c;stroke-dasharray:14.8,6.4;stroke-dashoffset:0;stroke-width:4;"/>
   </g>
   <g id="line2d_23">
    <path clip-path="url(#p906feea06d)" d="M 77.611568 149.67571 
L 291.374251 150.946775 
L 315.631009 151.307923 
L 330.791483 151.738631 
L 342.161839 152.28043 
L 350.5001 152.878567 
L 358.080337 153.644349 
L 364.144526 154.468244 
L 369.450692 155.39272 
L 374.756858 156.559275 
L 379.305 157.798533 
L 383.095119 159.035377 
L 386.885237 160.491242 
L 390.675356 162.20202 
L 393.70745 163.781376 
L 396.739545 165.572535 
L 399.77164 167.600414 
L 402.803735 169.891722 
L 405.835829 172.474926 
L 408.867924 175.379587 
L 411.900019 178.637502 
L 414.932114 182.280549 
L 417.964209 186.341992 
L 420.996303 190.853634 
L 424.028398 195.84702 
L 427.060493 201.353609 
L 430.092588 207.403105 
L 433.124683 214.019572 
L 436.156777 221.228846 
L 439.188872 229.048504 
L 442.220967 237.497447 
L 445.253062 246.585104 
L 448.285157 256.320597 
L 451.317251 266.707744 
L 455.10737 280.601911 
L 455.865394 283.500737 
L 455.865394 283.500737 
" style="fill:none;stroke:#30a2da;stroke-dasharray:14.8,6.4;stroke-dashoffset:0;stroke-width:4;"/>
   </g>
   <g id="line2d_24">
    <path clip-path="url(#p906feea06d)" d="M 77.611568 105.828083 
L 287.584133 107.081102 
L 311.840891 107.447663 
L 327.001365 107.886572 
L 337.613697 108.394096 
L 346.709981 109.050674 
L 354.290218 109.833272 
L 360.354408 110.675395 
L 365.660573 111.620353 
L 370.208716 112.624939 
L 374.756858 113.850316 
L 378.546976 115.073407 
L 382.337095 116.51323 
L 386.127213 118.205374 
L 389.159308 119.767733 
L 392.191403 121.53987 
L 395.223498 123.546534 
L 398.255593 125.814277 
L 401.287687 128.371423 
L 404.319782 131.247437 
L 407.351877 134.473986 
L 410.383972 138.082904 
L 413.416066 142.10739 
L 416.448161 146.579327 
L 419.480256 151.53037 
L 422.512351 156.99205 
L 425.544446 162.994174 
L 428.57654 169.561248 
L 431.608635 176.71915 
L 434.64073 184.486008 
L 437.672825 192.880758 
L 440.70492 201.913468 
L 443.737014 211.59221 
L 446.769109 221.924954 
L 450.559228 235.750571 
L 454.349346 250.558592 
L 455.865394 256.72404 
L 455.865394 256.72404 
" style="fill:none;stroke:#e5ae38;stroke-dasharray:14.8,6.4;stroke-dashoffset:0;stroke-width:4;"/>
   </g>
   <g id="line2d_25">
    <path clip-path="url(#p906feea06d)" d="M 77.611568 61.980455 
L 283.03599 63.207401 
L 307.292749 63.571142 
L 322.453223 64.005777 
L 333.823578 64.55297 
L 342.161839 65.157289 
L 349.742076 65.931126 
L 355.806265 66.763753 
L 361.112431 67.698042 
L 365.660573 68.691315 
L 370.208716 69.902961 
L 373.998834 71.112446 
L 377.788953 72.536393 
L 381.579071 74.210088 
L 385.36919 76.173531 
L 388.401284 77.98254 
L 391.433379 80.030322 
L 394.465474 82.343729 
L 397.497569 84.951361 
L 400.529664 87.882864 
L 403.561758 91.170157 
L 406.593853 94.845152 
L 409.625948 98.941178 
L 412.658043 103.489951 
L 415.690138 108.522909 
L 418.722232 114.071447 
L 421.754327 120.165171 
L 424.786422 126.827717 
L 427.818517 134.084897 
L 430.850612 141.953752 
L 433.882706 150.45318 
L 436.914801 159.591984 
L 439.946896 169.379093 
L 442.978991 179.818017 
L 446.769109 193.775784 
L 450.559228 208.705146 
L 455.865394 230.441142 
L 455.865394 230.441142 
" style="fill:none;stroke:#8b8b8b;stroke-dasharray:14.8,6.4;stroke-dashoffset:0;stroke-width:4;"/>
   </g>
   <g id="patch_3">
    <path d="M 58.50975 281.218594 
L 58.50975 14.038594 
" style="fill:none;stroke:#ffffff;stroke-linecap:square;stroke-linejoin:miter;stroke-width:3;"/>
   </g>
   <g id="patch_4">
    <path d="M 478.74975 281.218594 
L 478.74975 14.038594 
" style="fill:none;stroke:#ffffff;stroke-linecap:square;stroke-linejoin:miter;stroke-width:3;"/>
   </g>
   <g id="patch_5">
    <path d="M 58.50975 281.218594 
L 478.74975 281.218594 
" style="fill:none;stroke:#ffffff;stroke-linecap:square;stroke-linejoin:miter;stroke-width:3;"/>
   </g>
   <g id="patch_6">
    <path d="M 58.50975 14.038594 
L 478.74975 14.038594 
" style="fill:none;stroke:#ffffff;stroke-linecap:square;stroke-linejoin:miter;stroke-width:3;"/>
   </g>
   <g id="text_13">
    <!-- $\sf 200\, W/m^2$ -->
    <defs>
     <path d="M 3.328125 72.90625 
L 13.28125 72.90625 
L 28.609375 11.28125 
L 43.890625 72.90625 
L 54.984375 72.90625 
L 70.3125 11.28125 
L 85.59375 72.90625 
L 95.609375 72.90625 
L 77.296875 0 
L 64.890625 0 
L 49.515625 63.28125 
L 33.984375 0 
L 21.578125 0 
z
" id="DejaVuSans-57"/>
     <path d="M 25.390625 72.90625 
L 33.6875 72.90625 
L 8.296875 -9.28125 
L 0 -9.28125 
z
" id="DejaVuSans-2f"/>
     <path d="M 52 44.1875 
Q 55.375 50.25 60.0625 53.125 
Q 64.75 56 71.09375 56 
Q 79.640625 56 84.28125 50.015625 
Q 88.921875 44.046875 88.921875 33.015625 
L 88.921875 0 
L 79.890625 0 
L 79.890625 32.71875 
Q 79.890625 40.578125 77.09375 44.375 
Q 74.3125 48.1875 68.609375 48.1875 
Q 61.625 48.1875 57.5625 43.546875 
Q 53.515625 38.921875 53.515625 30.90625 
L 53.515625 0 
L 44.484375 0 
L 44.484375 32.71875 
Q 44.484375 40.625 41.703125 44.40625 
Q 38.921875 48.1875 33.109375 48.1875 
Q 26.21875 48.1875 22.15625 43.53125 
Q 18.109375 38.875 18.109375 30.90625 
L 18.109375 0 
L 9.078125 0 
L 9.078125 54.6875 
L 18.109375 54.6875 
L 18.109375 46.1875 
Q 21.1875 51.21875 25.484375 53.609375 
Q 29.78125 56 35.6875 56 
Q 41.65625 56 45.828125 52.96875 
Q 50 49.953125 52 44.1875 
z
" id="DejaVuSans-6d"/>
    </defs>
    <g transform="translate(101.252432 232.027366)scale(0.12 -0.12)">
     <use transform="translate(0 0.765625)" xlink:href="#DejaVuSans-32"/>
     <use transform="translate(63.623047 0.765625)" xlink:href="#DejaVuSans-30"/>
     <use transform="translate(127.246094 0.765625)" xlink:href="#DejaVuSans-30"/>
     <use transform="translate(207.104817 0.765625)" xlink:href="#DejaVuSans-57"/>
     <use transform="translate(305.98177 0.765625)" xlink:href="#DejaVuSans-2f"/>
     <use transform="translate(339.673176 0.765625)" xlink:href="#DejaVuSans-6d"/>
     <use transform="translate(438.042317 39.046875)scale(0.7)" xlink:href="#DejaVuSans-32"/>
    </g>
   </g>
   <g id="text_14">
    <!-- $\sf 400\, W/m^2$ -->
    <g transform="translate(101.252432 188.179738)scale(0.12 -0.12)">
     <use transform="translate(0 0.765625)" xlink:href="#DejaVuSans-34"/>
     <use transform="translate(63.623047 0.765625)" xlink:href="#DejaVuSans-30"/>
     <use transform="translate(127.246094 0.765625)" xlink:href="#DejaVuSans-30"/>
     <use transform="translate(207.104817 0.765625)" xlink:href="#DejaVuSans-57"/>
     <use transform="translate(305.98177 0.765625)" xlink:href="#DejaVuSans-2f"/>
     <use transform="translate(339.673176 0.765625)" xlink:href="#DejaVuSans-6d"/>
     <use transform="translate(438.042317 39.046875)scale(0.7)" xlink:href="#DejaVuSans-32"/>
    </g>
   </g>
   <g id="text_15">
    <!-- $\sf 600\, W/m^2$ -->
    <g transform="translate(101.252432 144.33211)scale(0.12 -0.12)">
     <use transform="translate(0 0.765625)" xlink:href="#DejaVuSans-36"/>
     <use transform="translate(63.623047 0.765625)" xlink:href="#DejaVuSans-30"/>
     <use transform="translate(127.246094 0.765625)" xlink:href="#DejaVuSans-30"/>
     <use transform="translate(207.104817 0.765625)" xlink:href="#DejaVuSans-57"/>
     <use transform="translate(305.98177 0.765625)" xlink:href="#DejaVuSans-2f"/>
     <use transform="translate(339.673176 0.765625)" xlink:href="#DejaVuSans-6d"/>
     <use transform="translate(438.042317 39.046875)scale(0.7)" xlink:href="#DejaVuSans-32"/>
    </g>
   </g>
   <g id="text_16">
    <!-- $\sf 800\, W/m^2$ -->
    <g transform="translate(101.252432 100.484483)scale(0.12 -0.12)">
     <use transform="translate(0 0.765625)" xlink:href="#DejaVuSans-38"/>
     <use transform="translate(63.623047 0.765625)" xlink:href="#DejaVuSans-30"/>
     <use transform="translate(127.246094 0.765625)" xlink:href="#DejaVuSans-30"/>
     <use transform="translate(207.104817 0.765625)" xlink:href="#DejaVuSans-57"/>
     <use transform="translate(305.98177 0.765625)" xlink:href="#DejaVuSans-2f"/>
     <use transform="translate(339.673176 0.765625)" xlink:href="#DejaVuSans-6d"/>
     <use transform="translate(438.042317 39.046875)scale(0.7)" xlink:href="#DejaVuSans-32"/>
    </g>
   </g>
   <g id="text_17">
    <!-- $\sf 1000\, W/m^2$ -->
    <g transform="translate(101.252432 56.636855)scale(0.12 -0.12)">
     <use transform="translate(0 0.765625)" xlink:href="#DejaVuSans-31"/>
     <use transform="translate(63.623047 0.765625)" xlink:href="#DejaVuSans-30"/>
     <use transform="translate(127.246094 0.765625)" xlink:href="#DejaVuSans-30"/>
     <use transform="translate(190.869141 0.765625)" xlink:href="#DejaVuSans-30"/>
     <use transform="translate(270.727864 0.765625)" xlink:href="#DejaVuSans-57"/>
     <use transform="translate(369.604817 0.765625)" xlink:href="#DejaVuSans-2f"/>
     <use transform="translate(403.296223 0.765625)" xlink:href="#DejaVuSans-6d"/>
     <use transform="translate(501.665364 39.046875)scale(0.7)" xlink:href="#DejaVuSans-32"/>
    </g>
   </g>
  </g>
  <g id="axes_2">
   <g id="matplotlib.axis_3">
    <g id="ytick_7">
     <g id="line2d_26">
      <path clip-path="url(#p906feea06d)" d="M 58.50975 281.218594 
L 478.74975 281.218594 
" style="fill:none;stroke:#cbcbcb;"/>
     </g>
     <g id="line2d_27"/>
     <g id="text_18">
      <!-- 0 -->
      <g transform="translate(482.24975 288.057187)scale(0.18 -0.18)">
       <use xlink:href="#DejaVuSans-30"/>
      </g>
     </g>
    </g>
    <g id="ytick_8">
     <g id="line2d_28">
      <path clip-path="url(#p906feea06d)" d="M 58.50975 217.604308 
L 478.74975 217.604308 
" style="fill:none;stroke:#cbcbcb;"/>
     </g>
     <g id="line2d_29"/>
     <g id="text_19">
      <!-- 50 -->
      <defs>
       <path d="M 10.796875 72.90625 
L 49.515625 72.90625 
L 49.515625 64.59375 
L 19.828125 64.59375 
L 19.828125 46.734375 
Q 21.96875 47.46875 24.109375 47.828125 
Q 26.265625 48.1875 28.421875 48.1875 
Q 40.625 48.1875 47.75 41.5 
Q 54.890625 34.8125 54.890625 23.390625 
Q 54.890625 11.625 47.5625 5.09375 
Q 40.234375 -1.421875 26.90625 -1.421875 
Q 22.3125 -1.421875 17.546875 -0.640625 
Q 12.796875 0.140625 7.71875 1.703125 
L 7.71875 11.625 
Q 12.109375 9.234375 16.796875 8.0625 
Q 21.484375 6.890625 26.703125 6.890625 
Q 35.15625 6.890625 40.078125 11.328125 
Q 45.015625 15.765625 45.015625 23.390625 
Q 45.015625 31 40.078125 35.4375 
Q 35.15625 39.890625 26.703125 39.890625 
Q 22.75 39.890625 18.8125 39.015625 
Q 14.890625 38.140625 10.796875 36.28125 
z
" id="DejaVuSans-35"/>
      </defs>
      <g transform="translate(482.24975 224.442902)scale(0.18 -0.18)">
       <use xlink:href="#DejaVuSans-35"/>
       <use x="63.623047" xlink:href="#DejaVuSans-30"/>
      </g>
     </g>
    </g>
    <g id="ytick_9">
     <g id="line2d_30">
      <path clip-path="url(#p906feea06d)" d="M 58.50975 153.990022 
L 478.74975 153.990022 
" style="fill:none;stroke:#cbcbcb;"/>
     </g>
     <g id="line2d_31"/>
     <g id="text_20">
      <!-- 100 -->
      <g transform="translate(482.24975 160.828616)scale(0.18 -0.18)">
       <use xlink:href="#DejaVuSans-31"/>
       <use x="63.623047" xlink:href="#DejaVuSans-30"/>
       <use x="127.246094" xlink:href="#DejaVuSans-30"/>
      </g>
     </g>
    </g>
    <g id="ytick_10">
     <g id="line2d_32">
      <path clip-path="url(#p906feea06d)" d="M 58.50975 90.375737 
L 478.74975 90.375737 
" style="fill:none;stroke:#cbcbcb;"/>
     </g>
     <g id="line2d_33"/>
     <g id="text_21">
      <!-- 150 -->
      <g transform="translate(482.24975 97.21433)scale(0.18 -0.18)">
       <use xlink:href="#DejaVuSans-31"/>
       <use x="63.623047" xlink:href="#DejaVuSans-35"/>
       <use x="127.246094" xlink:href="#DejaVuSans-30"/>
      </g>
     </g>
    </g>
    <g id="ytick_11">
     <g id="line2d_34">
      <path clip-path="url(#p906feea06d)" d="M 58.50975 26.761451 
L 478.74975 26.761451 
" style="fill:none;stroke:#cbcbcb;"/>
     </g>
     <g id="line2d_35"/>
     <g id="text_22">
      <!-- 200 -->
      <g transform="translate(482.24975 33.600045)scale(0.18 -0.18)">
       <use xlink:href="#DejaVuSans-32"/>
       <use x="63.623047" xlink:href="#DejaVuSans-30"/>
       <use x="127.246094" xlink:href="#DejaVuSans-30"/>
      </g>
     </g>
    </g>
    <g id="text_23">
     <!-- $\sf P (W)$ -->
     <defs>
      <path d="M 19.671875 64.796875 
L 19.671875 37.40625 
L 32.078125 37.40625 
Q 38.96875 37.40625 42.71875 40.96875 
Q 46.484375 44.53125 46.484375 51.125 
Q 46.484375 57.671875 42.71875 61.234375 
Q 38.96875 64.796875 32.078125 64.796875 
z
M 9.8125 72.90625 
L 32.078125 72.90625 
Q 44.34375 72.90625 50.609375 67.359375 
Q 56.890625 61.8125 56.890625 51.125 
Q 56.890625 40.328125 50.609375 34.8125 
Q 44.34375 29.296875 32.078125 29.296875 
L 19.671875 29.296875 
L 19.671875 0 
L 9.8125 0 
z
" id="DejaVuSans-50"/>
     </defs>
     <g transform="translate(537.019875 173.332594)rotate(-90)scale(0.216 -0.216)">
      <use transform="translate(0 0.125)" xlink:href="#DejaVuSans-50"/>
      <use transform="translate(60.302734 0.125)" xlink:href="#DejaVuSans-28"/>
      <use transform="translate(99.316406 0.125)" xlink:href="#DejaVuSans-57"/>
      <use transform="translate(198.193359 0.125)" xlink:href="#DejaVuSans-29"/>
     </g>
    </g>
   </g>
   <g id="line2d_36">
    <path clip-path="url(#p906feea06d)" d="M 77.611568 281.218594 
L 149.008304 268.718651 
L 220.40504 256.443518 
L 281.16822 246.206707 
L 312.30935 241.150962 
L 329.778764 238.513663 
L 341.9314 236.8826 
L 351.045877 235.859487 
L 358.641274 235.214023 
L 364.717592 234.892429 
L 370.03437 234.802927 
L 375.351148 234.946646 
L 379.908387 235.305128 
L 383.706086 235.808691 
L 387.503784 236.536236 
L 391.301483 237.52954 
L 394.339642 238.547928 
L 397.377801 239.79566 
L 400.41596 241.304356 
L 403.454119 243.109408 
L 406.492278 245.249257 
L 408.770897 247.099402 
L 411.049516 249.181147 
L 413.328136 251.515007 
L 415.606755 254.122226 
L 417.885374 257.02605 
L 420.163993 260.249906 
L 422.442613 263.818305 
L 424.721232 267.7571 
L 426.999851 272.091351 
L 429.27847 276.847667 
L 431.55709 282.051665 
L 433.835709 287.730748 
L 436.114328 293.91047 
L 438.392947 300.618163 
L 440.671567 307.875349 
L 442.950186 315.707951 
L 445.988345 327.08698 
L 448.001796 335.243969 
L 448.001796 335.243969 
" style="fill:none;stroke:#fc4f30;stroke-width:4;"/>
   </g>
   <g id="line2d_37">
    <path clip-path="url(#p906feea06d)" d="M 77.611568 281.218594 
L 150.672924 255.524198 
L 222.973225 230.329746 
L 282.335576 209.859157 
L 312.016752 199.831253 
L 328.75998 194.390523 
L 340.175817 190.889807 
L 349.308486 188.307703 
L 356.919044 186.388099 
L 363.007491 185.070776 
L 368.334881 184.133195 
L 372.901216 183.534877 
L 377.467551 183.173803 
L 381.27283 183.094039 
L 385.078109 183.255884 
L 388.122332 183.589176 
L 391.166555 184.131806 
L 394.210778 184.913127 
L 397.255001 185.965864 
L 399.538169 186.955517 
L 401.821336 188.13471 
L 404.104503 189.521492 
L 406.387671 191.134921 
L 408.670838 192.995233 
L 410.954005 195.123444 
L 413.237173 197.542486 
L 415.52034 200.275572 
L 417.803508 203.346999 
L 420.086675 206.782365 
L 422.369842 210.606652 
L 424.65301 214.8463 
L 426.936177 219.526927 
L 429.219345 224.675764 
L 431.502512 230.318419 
L 433.785679 236.48205 
L 436.068847 243.188649 
L 438.352014 250.463999 
L 440.635181 258.332054 
L 443.679405 269.777105 
L 446.723628 282.360531 
L 449.767851 296.11926 
L 452.812074 311.090651 
L 455.856297 327.304182 
L 457.266445 335.243969 
L 457.266445 335.243969 
" style="fill:none;stroke:#5cb85c;stroke-width:4;"/>
   </g>
   <g id="line2d_38">
    <path clip-path="url(#p906feea06d)" d="M 77.611568 281.218594 
L 153.10618 241.337 
L 227.838221 202.107463 
L 285.031109 172.311684 
L 311.721123 158.624074 
L 327.735132 150.641731 
L 339.173709 145.177949 
L 347.562 141.392068 
L 354.425146 138.506784 
L 360.525721 136.167321 
L 365.863724 134.352562 
L 370.439155 133.018731 
L 374.252014 132.100337 
L 378.064873 131.393672 
L 381.877732 130.938558 
L 384.92802 130.786585 
L 387.978307 130.852372 
L 391.028595 131.166311 
L 394.078882 131.762455 
L 396.366597 132.416955 
L 398.654313 133.268271 
L 400.942028 134.334769 
L 403.229744 135.636003 
L 405.51746 137.192695 
L 407.805175 139.026198 
L 410.092891 141.160023 
L 412.380606 143.617678 
L 414.668322 146.423757 
L 416.956037 149.604291 
L 419.243753 153.184141 
L 421.531468 157.189933 
L 423.819184 161.64692 
L 426.106899 166.582577 
L 428.394615 172.023202 
L 430.68233 177.992781 
L 432.970046 184.514847 
L 435.257761 191.615544 
L 437.545477 199.315253 
L 439.833192 207.632885 
L 442.88348 219.723803 
L 445.933767 232.988764 
L 448.984054 247.464737 
L 452.034342 263.177859 
L 455.084629 280.149506 
L 458.134917 298.37163 
L 458.134917 298.37163 
" style="fill:none;stroke:#30a2da;stroke-width:4;"/>
   </g>
   <g id="line2d_39">
    <path clip-path="url(#p906feea06d)" d="M 77.611568 281.218594 
L 156.312621 225.746787 
L 233.485497 171.621036 
L 286.971649 134.342992 
L 312.18655 117.01321 
L 327.468307 106.768149 
L 338.165538 99.847778 
L 346.570505 94.65962 
L 353.447296 90.661258 
L 359.559999 87.368616 
L 364.908614 84.756933 
L 369.493141 82.77499 
L 373.313581 81.346838 
L 377.13402 80.162985 
L 380.190372 79.422073 
L 383.246723 78.892984 
L 386.303075 78.605465 
L 389.359426 78.592872 
L 391.65169 78.78564 
L 393.943954 79.170438 
L 396.236217 79.765328 
L 398.528481 80.589559 
L 400.820745 81.66355 
L 403.113008 83.008418 
L 405.405272 84.647328 
L 407.697536 86.603567 
L 409.989799 88.901504 
L 412.282063 91.566887 
L 414.574327 94.624528 
L 416.86659 98.100871 
L 419.158854 102.021213 
L 421.451118 106.412825 
L 423.743381 111.301942 
L 426.035645 116.712769 
L 428.327909 122.66906 
L 430.620172 129.195685 
L 432.912436 136.316526 
L 435.2047 144.0479 
L 437.496963 152.414319 
L 440.553315 164.581851 
L 443.609666 177.940227 
L 446.666018 192.525588 
L 449.72237 208.352982 
L 452.778721 225.433937 
L 455.835073 243.707029 
L 458.891424 262.784026 
L 458.891424 262.784026 
" style="fill:none;stroke:#e5ae38;stroke-width:4;"/>
   </g>
   <g id="line2d_40">
    <path clip-path="url(#p906feea06d)" d="M 77.611568 281.218594 
L 159.531189 209.013585 
L 239.153998 139.123747 
L 288.918254 95.691942 
L 311.886372 75.907083 
L 326.432847 63.651226 
L 337.151302 54.906089 
L 345.572945 48.324165 
L 352.463381 43.224987 
L 357.822608 39.505413 
L 363.181836 36.069847 
L 367.77546 33.411606 
L 371.603479 31.445421 
L 375.431499 29.751097 
L 378.493915 28.624685 
L 381.55633 27.733165 
L 384.618746 27.10899 
L 386.915558 26.838124 
L 389.21237 26.754229 
L 391.509182 26.875233 
L 393.805993 27.220069 
L 396.102805 27.808842 
L 398.399617 28.662414 
L 400.696429 29.803594 
L 402.993241 31.255432 
L 405.290052 33.042057 
L 407.586864 35.188928 
L 409.883676 37.720784 
L 412.180488 40.66388 
L 414.4773 44.043535 
L 416.774111 47.886818 
L 419.070923 52.219904 
L 421.367735 57.067195 
L 423.664547 62.452649 
L 425.961359 68.401079 
L 428.25817 74.936313 
L 430.554982 82.075586 
L 432.851794 89.84285 
L 435.148606 98.251624 
L 437.445418 107.323151 
L 440.507833 120.467494 
L 443.570249 134.836642 
L 446.632665 150.45195 
L 449.695081 167.303951 
L 453.5231 189.865922 
L 456.585516 207.937354 
L 458.116724 215.722211 
L 458.882328 218.787565 
L 459.647932 220.946646 
L 459.647932 220.946646 
" style="fill:none;stroke:#8b8b8b;stroke-width:4;"/>
   </g>
   <g id="patch_7">
    <path d="M 58.50975 281.218594 
L 58.50975 14.038594 
" style="fill:none;stroke:#ffffff;stroke-linecap:square;stroke-linejoin:miter;stroke-width:3;"/>
   </g>
   <g id="patch_8">
    <path d="M 478.74975 281.218594 
L 478.74975 14.038594 
" style="fill:none;stroke:#ffffff;stroke-linecap:square;stroke-linejoin:miter;stroke-width:3;"/>
   </g>
   <g id="patch_9">
    <path d="M 58.50975 281.218594 
L 478.74975 281.218594 
" style="fill:none;stroke:#ffffff;stroke-linecap:square;stroke-linejoin:miter;stroke-width:3;"/>
   </g>
   <g id="patch_10">
    <path d="M 58.50975 14.038594 
L 478.74975 14.038594 
" style="fill:none;stroke:#ffffff;stroke-linecap:square;stroke-linejoin:miter;stroke-width:3;"/>
   </g>
  </g>
 </g>
 <defs>
  <clipPath id="p906feea06d">
   <rect height="267.18" width="420.24" x="58.50975" y="14.038594"/>
  </clipPath>
 </defs>
</svg>
