<?xml version="1.0" encoding="utf-8" standalone="no"?>
<!DOCTYPE svg PUBLIC "-//W3C//DTD SVG 1.1//EN"
  "http://www.w3.org/Graphics/SVG/1.1/DTD/svg11.dtd">
<!-- Created with matplotlib (http://matplotlib.org/) -->
<svg height="349pt" version="1.1" viewBox="0 0 518 349" width="518pt" xmlns="http://www.w3.org/2000/svg" xmlns:xlink="http://www.w3.org/1999/xlink">
 <defs>
  <style type="text/css">
*{stroke-linecap:butt;stroke-linejoin:round;}
  </style>
 </defs>
 <g id="figure_1">
  <g id="patch_1">
   <path d="M 0 349.391094 
L 518.168437 349.391094 
L 518.168437 0 
L 0 0 
z
" style="fill:none;opacity:0;"/>
  </g>
  <g id="axes_1">
   <g id="patch_2">
    <path d="M 42.216875 313.399219 
L 503.016875 313.399219 
L 503.016875 10.999219 
L 42.216875 10.999219 
z
" style="fill:#ffffff;"/>
   </g>
   <g id="matplotlib.axis_1">
    <g id="xtick_1">
     <g id="line2d_1">
      <path clip-path="url(#p0aac95fc22)" d="M 42.216875 313.399219 
L 42.216875 10.999219 
" style="fill:none;stroke:#cbcbcb;"/>
     </g>
     <g id="line2d_2"/>
     <g id="text_1">
      <!-- 0.0 -->
      <defs>
       <path d="M 31.78125 66.40625 
Q 24.171875 66.40625 20.328125 58.90625 
Q 16.5 51.421875 16.5 36.375 
Q 16.5 21.390625 20.328125 13.890625 
Q 24.171875 6.390625 31.78125 6.390625 
Q 39.453125 6.390625 43.28125 13.890625 
Q 47.125 21.390625 47.125 36.375 
Q 47.125 51.421875 43.28125 58.90625 
Q 39.453125 66.40625 31.78125 66.40625 
z
M 31.78125 74.21875 
Q 44.046875 74.21875 50.515625 64.515625 
Q 56.984375 54.828125 56.984375 36.375 
Q 56.984375 17.96875 50.515625 8.265625 
Q 44.046875 -1.421875 31.78125 -1.421875 
Q 19.53125 -1.421875 13.0625 8.265625 
Q 6.59375 17.96875 6.59375 36.375 
Q 6.59375 54.828125 13.0625 64.515625 
Q 19.53125 74.21875 31.78125 74.21875 
z
" id="DejaVuSans-30"/>
       <path d="M 10.6875 12.40625 
L 21 12.40625 
L 21 0 
L 10.6875 0 
z
" id="DejaVuSans-2e"/>
      </defs>
      <g transform="translate(34.265312 324.497656)scale(0.1 -0.1)">
       <use xlink:href="#DejaVuSans-30"/>
       <use x="63.623047" xlink:href="#DejaVuSans-2e"/>
       <use x="95.410156" xlink:href="#DejaVuSans-30"/>
      </g>
     </g>
    </g>
    <g id="xtick_2">
     <g id="line2d_3">
      <path clip-path="url(#p0aac95fc22)" d="M 119.016875 313.399219 
L 119.016875 10.999219 
" style="fill:none;stroke:#cbcbcb;"/>
     </g>
     <g id="line2d_4"/>
     <g id="text_2">
      <!-- 0.5 -->
      <defs>
       <path d="M 10.796875 72.90625 
L 49.515625 72.90625 
L 49.515625 64.59375 
L 19.828125 64.59375 
L 19.828125 46.734375 
Q 21.96875 47.46875 24.109375 47.828125 
Q 26.265625 48.1875 28.421875 48.1875 
Q 40.625 48.1875 47.75 41.5 
Q 54.890625 34.8125 54.890625 23.390625 
Q 54.890625 11.625 47.5625 5.09375 
Q 40.234375 -1.421875 26.90625 -1.421875 
Q 22.3125 -1.421875 17.546875 -0.640625 
Q 12.796875 0.140625 7.71875 1.703125 
L 7.71875 11.625 
Q 12.109375 9.234375 16.796875 8.0625 
Q 21.484375 6.890625 26.703125 6.890625 
Q 35.15625 6.890625 40.078125 11.328125 
Q 45.015625 15.765625 45.015625 23.390625 
Q 45.015625 31 40.078125 35.4375 
Q 35.15625 39.890625 26.703125 39.890625 
Q 22.75 39.890625 18.8125 39.015625 
Q 14.890625 38.140625 10.796875 36.28125 
z
" id="DejaVuSans-35"/>
      </defs>
      <g transform="translate(111.065312 324.497656)scale(0.1 -0.1)">
       <use xlink:href="#DejaVuSans-30"/>
       <use x="63.623047" xlink:href="#DejaVuSans-2e"/>
       <use x="95.410156" xlink:href="#DejaVuSans-35"/>
      </g>
     </g>
    </g>
    <g id="xtick_3">
     <g id="line2d_5">
      <path clip-path="url(#p0aac95fc22)" d="M 195.816875 313.399219 
L 195.816875 10.999219 
" style="fill:none;stroke:#cbcbcb;"/>
     </g>
     <g id="line2d_6"/>
     <g id="text_3">
      <!-- 1.0 -->
      <defs>
       <path d="M 12.40625 8.296875 
L 28.515625 8.296875 
L 28.515625 63.921875 
L 10.984375 60.40625 
L 10.984375 69.390625 
L 28.421875 72.90625 
L 38.28125 72.90625 
L 38.28125 8.296875 
L 54.390625 8.296875 
L 54.390625 0 
L 12.40625 0 
z
" id="DejaVuSans-31"/>
      </defs>
      <g transform="translate(187.865312 324.497656)scale(0.1 -0.1)">
       <use xlink:href="#DejaVuSans-31"/>
       <use x="63.623047" xlink:href="#DejaVuSans-2e"/>
       <use x="95.410156" xlink:href="#DejaVuSans-30"/>
      </g>
     </g>
    </g>
    <g id="xtick_4">
     <g id="line2d_7">
      <path clip-path="url(#p0aac95fc22)" d="M 272.616875 313.399219 
L 272.616875 10.999219 
" style="fill:none;stroke:#cbcbcb;"/>
     </g>
     <g id="line2d_8"/>
     <g id="text_4">
      <!-- 1.5 -->
      <g transform="translate(264.665312 324.497656)scale(0.1 -0.1)">
       <use xlink:href="#DejaVuSans-31"/>
       <use x="63.623047" xlink:href="#DejaVuSans-2e"/>
       <use x="95.410156" xlink:href="#DejaVuSans-35"/>
      </g>
     </g>
    </g>
    <g id="xtick_5">
     <g id="line2d_9">
      <path clip-path="url(#p0aac95fc22)" d="M 349.416875 313.399219 
L 349.416875 10.999219 
" style="fill:none;stroke:#cbcbcb;"/>
     </g>
     <g id="line2d_10"/>
     <g id="text_5">
      <!-- 2.0 -->
      <defs>
       <path d="M 19.1875 8.296875 
L 53.609375 8.296875 
L 53.609375 0 
L 7.328125 0 
L 7.328125 8.296875 
Q 12.9375 14.109375 22.625 23.890625 
Q 32.328125 33.6875 34.8125 36.53125 
Q 39.546875 41.84375 41.421875 45.53125 
Q 43.3125 49.21875 43.3125 52.78125 
Q 43.3125 58.59375 39.234375 62.25 
Q 35.15625 65.921875 28.609375 65.921875 
Q 23.96875 65.921875 18.8125 64.3125 
Q 13.671875 62.703125 7.8125 59.421875 
L 7.8125 69.390625 
Q 13.765625 71.78125 18.9375 73 
Q 24.125 74.21875 28.421875 74.21875 
Q 39.75 74.21875 46.484375 68.546875 
Q 53.21875 62.890625 53.21875 53.421875 
Q 53.21875 48.921875 51.53125 44.890625 
Q 49.859375 40.875 45.40625 35.40625 
Q 44.1875 33.984375 37.640625 27.21875 
Q 31.109375 20.453125 19.1875 8.296875 
z
" id="DejaVuSans-32"/>
      </defs>
      <g transform="translate(341.465312 324.497656)scale(0.1 -0.1)">
       <use xlink:href="#DejaVuSans-32"/>
       <use x="63.623047" xlink:href="#DejaVuSans-2e"/>
       <use x="95.410156" xlink:href="#DejaVuSans-30"/>
      </g>
     </g>
    </g>
    <g id="xtick_6">
     <g id="line2d_11">
      <path clip-path="url(#p0aac95fc22)" d="M 426.216875 313.399219 
L 426.216875 10.999219 
" style="fill:none;stroke:#cbcbcb;"/>
     </g>
     <g id="line2d_12"/>
     <g id="text_6">
      <!-- 2.5 -->
      <g transform="translate(418.265312 324.497656)scale(0.1 -0.1)">
       <use xlink:href="#DejaVuSans-32"/>
       <use x="63.623047" xlink:href="#DejaVuSans-2e"/>
       <use x="95.410156" xlink:href="#DejaVuSans-35"/>
      </g>
     </g>
    </g>
    <g id="xtick_7">
     <g id="line2d_13">
      <path clip-path="url(#p0aac95fc22)" d="M 503.016875 313.399219 
L 503.016875 10.999219 
" style="fill:none;stroke:#cbcbcb;"/>
     </g>
     <g id="line2d_14"/>
     <g id="text_7">
      <!-- 3.0 -->
      <defs>
       <path d="M 40.578125 39.3125 
Q 47.65625 37.796875 51.625 33 
Q 55.609375 28.21875 55.609375 21.1875 
Q 55.609375 10.40625 48.1875 4.484375 
Q 40.765625 -1.421875 27.09375 -1.421875 
Q 22.515625 -1.421875 17.65625 -0.515625 
Q 12.796875 0.390625 7.625 2.203125 
L 7.625 11.71875 
Q 11.71875 9.328125 16.59375 8.109375 
Q 21.484375 6.890625 26.8125 6.890625 
Q 36.078125 6.890625 40.9375 10.546875 
Q 45.796875 14.203125 45.796875 21.1875 
Q 45.796875 27.640625 41.28125 31.265625 
Q 36.765625 34.90625 28.71875 34.90625 
L 20.21875 34.90625 
L 20.21875 43.015625 
L 29.109375 43.015625 
Q 36.375 43.015625 40.234375 45.921875 
Q 44.09375 48.828125 44.09375 54.296875 
Q 44.09375 59.90625 40.109375 62.90625 
Q 36.140625 65.921875 28.71875 65.921875 
Q 24.65625 65.921875 20.015625 65.03125 
Q 15.375 64.15625 9.8125 62.3125 
L 9.8125 71.09375 
Q 15.4375 72.65625 20.34375 73.4375 
Q 25.25 74.21875 29.59375 74.21875 
Q 40.828125 74.21875 47.359375 69.109375 
Q 53.90625 64.015625 53.90625 55.328125 
Q 53.90625 49.265625 50.4375 45.09375 
Q 46.96875 40.921875 40.578125 39.3125 
z
" id="DejaVuSans-33"/>
      </defs>
      <g transform="translate(495.065312 324.497656)scale(0.1 -0.1)">
       <use xlink:href="#DejaVuSans-33"/>
       <use x="63.623047" xlink:href="#DejaVuSans-2e"/>
       <use x="95.410156" xlink:href="#DejaVuSans-30"/>
      </g>
     </g>
    </g>
    <g id="text_8">
     <!-- $\sf \omega_t$ -->
     <defs>
      <path d="M 26.859375 -1.421875 
Q 6.59375 -1.421875 6.59375 27.59375 
Q 6.59375 39.0625 14.15625 54.6875 
L 23.828125 54.6875 
Q 16.84375 39.0625 16.84375 27.34375 
Q 16.84375 6.203125 27.6875 6.203125 
Q 37.59375 6.203125 37.59375 32.46875 
L 45.90625 32.46875 
Q 45.90625 6.203125 55.8125 6.203125 
Q 66.65625 6.203125 66.65625 27.34375 
Q 66.65625 39.0625 59.671875 54.6875 
L 69.34375 54.6875 
Q 76.90625 39.0625 76.90625 27.59375 
Q 76.90625 -1.421875 56.640625 -1.421875 
Q 43.359375 -1.421875 41.75 13.1875 
Q 39.75 -1.421875 26.859375 -1.421875 
z
" id="DejaVuSans-3c9"/>
      <path d="M 18.3125 70.21875 
L 18.3125 54.6875 
L 36.8125 54.6875 
L 36.8125 47.703125 
L 18.3125 47.703125 
L 18.3125 18.015625 
Q 18.3125 11.328125 20.140625 9.421875 
Q 21.96875 7.515625 27.59375 7.515625 
L 36.8125 7.515625 
L 36.8125 0 
L 27.59375 0 
Q 17.1875 0 13.234375 3.875 
Q 9.28125 7.765625 9.28125 18.015625 
L 9.28125 47.703125 
L 2.6875 47.703125 
L 2.6875 54.6875 
L 9.28125 54.6875 
L 9.28125 70.21875 
z
" id="DejaVuSans-74"/>
     </defs>
     <g transform="translate(265.716875 339.695469)scale(0.12 -0.12)">
      <use transform="translate(0 0.3125)" xlink:href="#DejaVuSans-3c9"/>
      <use transform="translate(84.697266 -16.09375)scale(0.7)" xlink:href="#DejaVuSans-74"/>
     </g>
    </g>
   </g>
   <g id="matplotlib.axis_2">
    <g id="ytick_1">
     <g id="line2d_15">
      <path clip-path="url(#p0aac95fc22)" d="M 42.216875 313.399219 
L 503.016875 313.399219 
" style="fill:none;stroke:#cbcbcb;"/>
     </g>
     <g id="line2d_16"/>
     <g id="text_9">
      <!-- 0.0 -->
      <g transform="translate(22.81375 317.198437)scale(0.1 -0.1)">
       <use xlink:href="#DejaVuSans-30"/>
       <use x="63.623047" xlink:href="#DejaVuSans-2e"/>
       <use x="95.410156" xlink:href="#DejaVuSans-30"/>
      </g>
     </g>
    </g>
    <g id="ytick_2">
     <g id="line2d_17">
      <path clip-path="url(#p0aac95fc22)" d="M 42.216875 252.919219 
L 503.016875 252.919219 
" style="fill:none;stroke:#cbcbcb;"/>
     </g>
     <g id="line2d_18"/>
     <g id="text_10">
      <!-- 0.5 -->
      <g transform="translate(22.81375 256.718437)scale(0.1 -0.1)">
       <use xlink:href="#DejaVuSans-30"/>
       <use x="63.623047" xlink:href="#DejaVuSans-2e"/>
       <use x="95.410156" xlink:href="#DejaVuSans-35"/>
      </g>
     </g>
    </g>
    <g id="ytick_3">
     <g id="line2d_19">
      <path clip-path="url(#p0aac95fc22)" d="M 42.216875 192.439219 
L 503.016875 192.439219 
" style="fill:none;stroke:#cbcbcb;"/>
     </g>
     <g id="line2d_20"/>
     <g id="text_11">
      <!-- 1.0 -->
      <g transform="translate(22.81375 196.238437)scale(0.1 -0.1)">
       <use xlink:href="#DejaVuSans-31"/>
       <use x="63.623047" xlink:href="#DejaVuSans-2e"/>
       <use x="95.410156" xlink:href="#DejaVuSans-30"/>
      </g>
     </g>
    </g>
    <g id="ytick_4">
     <g id="line2d_21">
      <path clip-path="url(#p0aac95fc22)" d="M 42.216875 131.959219 
L 503.016875 131.959219 
" style="fill:none;stroke:#cbcbcb;"/>
     </g>
     <g id="line2d_22"/>
     <g id="text_12">
      <!-- 1.5 -->
      <g transform="translate(22.81375 135.758437)scale(0.1 -0.1)">
       <use xlink:href="#DejaVuSans-31"/>
       <use x="63.623047" xlink:href="#DejaVuSans-2e"/>
       <use x="95.410156" xlink:href="#DejaVuSans-35"/>
      </g>
     </g>
    </g>
    <g id="ytick_5">
     <g id="line2d_23">
      <path clip-path="url(#p0aac95fc22)" d="M 42.216875 71.479219 
L 503.016875 71.479219 
" style="fill:none;stroke:#cbcbcb;"/>
     </g>
     <g id="line2d_24"/>
     <g id="text_13">
      <!-- 2.0 -->
      <g transform="translate(22.81375 75.278437)scale(0.1 -0.1)">
       <use xlink:href="#DejaVuSans-32"/>
       <use x="63.623047" xlink:href="#DejaVuSans-2e"/>
       <use x="95.410156" xlink:href="#DejaVuSans-30"/>
      </g>
     </g>
    </g>
    <g id="ytick_6">
     <g id="line2d_25">
      <path clip-path="url(#p0aac95fc22)" d="M 42.216875 10.999219 
L 503.016875 10.999219 
" style="fill:none;stroke:#cbcbcb;"/>
     </g>
     <g id="line2d_26"/>
     <g id="text_14">
      <!-- 2.5 -->
      <g transform="translate(22.81375 14.798437)scale(0.1 -0.1)">
       <use xlink:href="#DejaVuSans-32"/>
       <use x="63.623047" xlink:href="#DejaVuSans-2e"/>
       <use x="95.410156" xlink:href="#DejaVuSans-35"/>
      </g>
     </g>
    </g>
    <g id="text_15">
     <!-- $\sf P_t$ -->
     <defs>
      <path d="M 19.671875 64.796875 
L 19.671875 37.40625 
L 32.078125 37.40625 
Q 38.96875 37.40625 42.71875 40.96875 
Q 46.484375 44.53125 46.484375 51.125 
Q 46.484375 57.671875 42.71875 61.234375 
Q 38.96875 64.796875 32.078125 64.796875 
z
M 9.8125 72.90625 
L 32.078125 72.90625 
Q 44.34375 72.90625 50.609375 67.359375 
Q 56.890625 61.8125 56.890625 51.125 
Q 56.890625 40.328125 50.609375 34.8125 
Q 44.34375 29.296875 32.078125 29.296875 
L 19.671875 29.296875 
L 19.671875 0 
L 9.8125 0 
z
" id="DejaVuSans-50"/>
     </defs>
     <g transform="translate(16.318125 167.719219)rotate(-90)scale(0.12 -0.12)">
      <use transform="translate(0 0.09375)" xlink:href="#DejaVuSans-50"/>
      <use transform="translate(61.259766 -16.3125)scale(0.7)" xlink:href="#DejaVuSans-74"/>
     </g>
    </g>
   </g>
   <g id="line2d_27">
    <path clip-path="url(#p0aac95fc22)" d="M 57.576875 312.904609 
L 62.852027 312.733765 
L 68.127178 312.546507 
L 73.40233 312.273454 
L 78.677481 311.775589 
L 83.952633 310.893327 
L 89.227784 309.513533 
L 94.502936 307.604422 
L 99.778087 305.213003 
L 105.053239 302.442224 
L 110.32839 299.424091 
L 115.603542 296.29736 
L 120.878693 293.192371 
L 126.153845 290.22244 
L 131.428996 287.480185 
L 136.704148 285.037086 
L 141.979299 282.944962 
L 147.254451 281.238374 
L 152.529602 279.937378 
L 157.804754 279.050236 
L 163.079905 278.575902 
L 168.355057 278.5062 
L 173.630208 278.827655 
L 178.90536 279.523013 
L 184.180511 280.572462 
L 189.455663 281.954602 
L 194.730814 283.647206 
L 200.005966 285.6278 
L 205.281117 287.874101 
L 210.556269 290.364338 
L 215.83142 293.077487 
L 221.106572 295.993424 
L 226.381723 299.093029 
L 231.656875 302.358248 
L 236.932027 305.772113 
L 242.207178 309.318746 
L 247.48233 312.98334 
L 252.757481 316.752131 
L 258.032633 320.612356 
L 263.307784 324.552208 
L 268.582936 328.560786 
L 273.858087 332.628046 
L 279.133239 336.744744 
L 284.40839 340.902392 
L 289.683542 345.093202 
L 294.958693 349.31004 
L 296.304838 350.391094 
" style="fill:none;stroke:#fc4f30;stroke-width:4;"/>
   </g>
   <g id="line2d_28">
    <path clip-path="url(#p0aac95fc22)" d="M 57.576875 312.626402 
L 62.852027 312.36094 
L 68.127178 312.09352 
L 73.40233 311.806964 
L 78.677481 311.439081 
L 83.952633 310.866329 
L 89.227784 309.926711 
L 94.502936 308.466194 
L 99.778087 306.378902 
L 105.053239 303.62614 
L 110.32839 300.235427 
L 115.603542 296.287388 
L 120.878693 291.898201 
L 126.153845 287.202669 
L 131.428996 282.340369 
L 136.704148 277.445603 
L 141.979299 272.640872 
L 147.254451 268.033232 
L 152.529602 263.712789 
L 157.804754 259.752661 
L 163.079905 256.209898 
L 168.355057 253.126929 
L 173.630208 250.533283 
L 178.90536 248.447366 
L 184.180511 246.878201 
L 189.455663 245.827034 
L 194.730814 245.288787 
L 200.005966 245.253339 
L 205.281117 245.706633 
L 210.556269 246.63162 
L 215.83142 248.009055 
L 221.106572 249.818158 
L 226.381723 252.037163 
L 231.656875 254.643762 
L 236.932027 257.615463 
L 242.207178 260.929874 
L 247.48233 264.564933 
L 252.757481 268.499076 
L 258.032633 272.71137 
L 263.307784 277.181607 
L 268.582936 281.890376 
L 273.858087 286.8191 
L 279.133239 291.950067 
L 284.40839 297.266438 
L 289.683542 302.752247 
L 294.958693 308.392389 
L 300.233845 314.172603 
L 305.508996 320.079448 
L 310.784148 326.10028 
L 316.059299 332.223216 
L 321.334451 338.437107 
L 326.609602 344.731504 
L 331.300038 350.391094 
" style="fill:none;stroke:#5cb85c;stroke-width:4;"/>
   </g>
   <g id="line2d_29">
    <path clip-path="url(#p0aac95fc22)" d="M 57.576875 312.286362 
L 62.852027 311.904167 
L 68.127178 311.521782 
L 73.40233 311.13607 
L 78.677481 310.728222 
L 83.952633 310.240917 
L 89.227784 309.563885 
L 94.502936 308.543892 
L 99.778087 307.014559 
L 105.053239 304.830069 
L 110.32839 301.890032 
L 115.603542 298.151018 
L 120.878693 293.626295 
L 126.153845 288.377805 
L 131.428996 282.504406 
L 136.704148 276.129383 
L 141.979299 269.389074 
L 147.254451 262.423488 
L 152.529602 255.36915 
L 157.804754 248.354066 
L 163.079905 241.494476 
L 168.355057 234.893064 
L 173.630208 228.638245 
L 178.90536 222.804249 
L 184.180511 217.451738 
L 189.455663 212.628756 
L 194.730814 208.371884 
L 200.005966 204.707462 
L 205.281117 201.652838 
L 210.556269 199.217561 
L 215.83142 197.404514 
L 221.106572 196.210946 
L 226.381723 195.629411 
L 231.656875 195.648606 
L 236.932027 196.254103 
L 242.207178 197.429003 
L 247.48233 199.154485 
L 252.757481 201.410293 
L 258.032633 204.175143 
L 263.307784 207.427068 
L 268.582936 211.143715 
L 273.858087 215.302582 
L 279.133239 219.881224 
L 284.40839 224.857416 
L 289.683542 230.209285 
L 294.958693 235.915419 
L 300.233845 241.954948 
L 305.508996 248.307611 
L 310.784148 254.953801 
L 316.059299 261.874601 
L 321.334451 269.051805 
L 326.609602 276.467931 
L 331.884754 284.106226 
L 337.159905 291.950664 
L 342.435057 299.985941 
L 347.710208 308.197458 
L 352.98536 316.571313 
L 358.260511 325.09428 
L 363.535663 333.753791 
L 368.810814 342.537914 
L 373.466853 350.391094 
" style="fill:none;stroke:#30a2da;stroke-width:4;"/>
   </g>
   <g id="line2d_30">
    <path clip-path="url(#p0aac95fc22)" d="M 57.576875 311.884497 
L 62.852027 311.36429 
L 68.127178 310.844066 
L 73.40233 310.323348 
L 78.677481 309.79759 
L 83.952633 309.246527 
L 89.227784 308.616291 
L 94.502936 307.807175 
L 99.778087 306.677204 
L 105.053239 305.060864 
L 110.32839 302.794646 
L 115.603542 299.740586 
L 120.878693 295.802486 
L 126.153845 290.93348 
L 131.428996 285.1361 
L 136.704148 278.457109 
L 141.979299 270.979363 
L 147.254451 262.812586 
L 152.529602 254.084327 
L 157.804754 244.931868 
L 163.079905 235.495463 
L 168.355057 225.912988 
L 173.630208 216.31596 
L 178.90536 206.82674 
L 184.180511 197.556743 
L 189.455663 188.605458 
L 194.730814 180.060093 
L 200.005966 171.99568 
L 205.281117 164.475516 
L 210.556269 157.551835 
L 215.83142 151.266613 
L 221.106572 145.652458 
L 226.381723 140.733522 
L 231.656875 136.526411 
L 236.932027 133.041064 
L 242.207178 130.281587 
L 247.48233 128.247026 
L 252.757481 126.932084 
L 258.032633 126.327769 
L 263.307784 126.421985 
L 268.582936 127.200053 
L 273.858087 128.645182 
L 279.133239 130.738882 
L 284.40839 133.461329 
L 289.683542 136.791678 
L 294.958693 140.708345 
L 300.233845 145.189245 
L 305.508996 150.211992 
L 310.784148 155.754082 
L 316.059299 161.793039 
L 321.334451 168.30654 
L 326.609602 175.272521 
L 331.884754 182.669267 
L 337.159905 190.475478 
L 342.435057 198.670332 
L 347.710208 207.233528 
L 352.98536 216.145325 
L 358.260511 225.386562 
L 363.535663 234.938685 
L 368.810814 244.783753 
L 374.085966 254.904451 
L 379.361117 265.284087 
L 384.636269 275.906592 
L 389.91142 286.756516 
L 395.186572 297.819022 
L 400.461723 309.079869 
L 405.736875 320.525409 
L 411.012027 332.142567 
L 416.287178 343.918829 
L 419.150638 350.391094 
" style="fill:none;stroke:#e5ae38;stroke-width:4;"/>
   </g>
   <g id="line2d_31">
    <path clip-path="url(#p0aac95fc22)" d="M 57.576875 311.420807 
L 62.852027 310.741353 
L 68.127178 310.061897 
L 73.40233 309.382375 
L 78.677481 308.701837 
L 83.952633 308.014251 
L 89.227784 307.298085 
L 94.502936 306.502019 
L 99.778087 305.534672 
L 105.053239 304.264946 
L 110.32839 302.53368 
L 115.603542 300.172271 
L 120.878693 297.022543 
L 126.153845 292.953381 
L 131.428996 287.871863 
L 136.704148 281.728521 
L 141.979299 274.517567 
L 147.254451 266.273415 
L 152.529602 257.064896 
L 157.804754 246.988347 
L 163.079905 236.160473 
L 168.355057 224.711591 
L 173.630208 212.779611 
L 178.90536 200.504932 
L 184.180511 188.026302 
L 189.455663 175.477591 
L 194.730814 162.9854 
L 200.005966 150.667389 
L 205.281117 138.631212 
L 210.556269 126.973938 
L 215.83142 115.781866 
L 221.106572 105.130632 
L 226.381723 95.085543 
L 231.656875 85.702066 
L 236.932027 77.026421 
L 242.207178 69.096242 
L 247.48233 61.941275 
L 252.757481 55.584074 
L 258.032633 50.040702 
L 263.307784 45.321394 
L 268.582936 41.431205 
L 273.858087 38.370607 
L 279.133239 36.136051 
L 284.40839 34.72049 
L 289.683542 34.113848 
L 294.958693 34.303462 
L 300.233845 35.274468 
L 305.508996 37.010162 
L 310.784148 39.492316 
L 316.059299 42.70146 
L 321.334451 46.617142 
L 326.609602 51.218147 
L 331.884754 56.482695 
L 337.159905 62.388621 
L 342.435057 68.913522 
L 347.710208 76.034889 
L 352.98536 83.730229 
L 358.260511 91.977157 
L 363.535663 100.753484 
L 368.810814 110.037291 
L 374.085966 119.806988 
L 379.361117 130.041363 
L 384.636269 140.719631 
L 389.91142 151.821463 
L 395.186572 163.327013 
L 400.461723 175.216945 
L 405.736875 187.472442 
L 411.012027 200.075225 
L 416.287178 213.007555 
L 421.56233 226.252238 
L 426.837481 239.79263 
L 432.112633 253.612631 
L 437.387784 267.696681 
L 442.662936 282.02976 
L 447.938087 296.597374 
L 453.213239 311.385551 
L 458.48839 326.380829 
L 463.763542 341.570247 
L 466.790739 350.391094 
" style="fill:none;stroke:#8b8b8b;stroke-width:4;"/>
   </g>
   <g id="patch_3">
    <path d="M 42.216875 313.399219 
L 42.216875 10.999219 
" style="fill:none;stroke:#ffffff;stroke-linecap:square;stroke-linejoin:miter;stroke-width:3;"/>
   </g>
   <g id="patch_4">
    <path d="M 503.016875 313.399219 
L 503.016875 10.999219 
" style="fill:none;stroke:#ffffff;stroke-linecap:square;stroke-linejoin:miter;stroke-width:3;"/>
   </g>
   <g id="patch_5">
    <path d="M 42.216875 313.399219 
L 503.016875 313.399219 
" style="fill:none;stroke:#ffffff;stroke-linecap:square;stroke-linejoin:miter;stroke-width:3;"/>
   </g>
   <g id="patch_6">
    <path d="M 42.216875 10.999219 
L 503.016875 10.999219 
" style="fill:none;stroke:#ffffff;stroke-linecap:square;stroke-linejoin:miter;stroke-width:3;"/>
   </g>
  </g>
 </g>
 <defs>
  <clipPath id="p0aac95fc22">
   <rect height="302.4" width="460.8" x="42.216875" y="10.999219"/>
  </clipPath>
 </defs>
</svg>
